<svg width="16" height="16" viewBox="0 0 16 16" fill="none" xmlns="http://www.w3.org/2000/svg">
<path fill-rule="evenodd" clip-rule="evenodd" d="M3.18737 2.04366C2.50737 2.16632 1.8467 2.71099 1.58937 3.36232C1.4327 3.75699 1.43337 3.75166 1.4207 5.42699L1.4087 6.97366L1.08137 7.30699C0.7227 7.67299 0.634033 7.81032 0.634033 8.00032C0.634033 8.19032 0.7227 8.32766 1.08137 8.69366L1.4087 9.02699L1.4207 10.5737C1.43337 12.2477 1.4327 12.2437 1.58803 12.6363C1.7767 13.113 2.19537 13.555 2.6747 13.785C2.9547 13.9197 3.1507 13.9703 3.46737 13.991C4.03337 14.0283 4.27537 13.831 4.27537 13.3337C4.27537 13.0817 4.23737 12.9657 4.11537 12.8423C4.00803 12.7337 3.88937 12.6917 3.6187 12.6663C3.2407 12.631 3.0107 12.4863 2.84803 12.1817L2.7867 12.067L2.77337 10.3337C2.75803 8.33632 2.7847 8.52432 2.4707 8.19432L2.2867 8.00032L2.4707 7.80632C2.7847 7.47632 2.75803 7.66432 2.77337 5.66699L2.7867 3.93366L2.86603 3.79099C3.02003 3.51232 3.2487 3.37432 3.6167 3.33632C3.98337 3.29832 4.13137 3.21499 4.23337 2.98699C4.2907 2.85966 4.2907 2.47366 4.2327 2.34499C4.0947 2.03766 3.75803 1.94032 3.18737 2.04366ZM12.106 2.04099C11.9694 2.08366 11.8227 2.21299 11.77 2.33832C11.6754 2.56366 11.7034 2.91499 11.8307 3.09966C11.9267 3.23766 12.082 3.30499 12.3774 3.33566C12.752 3.37432 12.9794 3.51099 13.134 3.79099L13.2134 3.93366L13.2267 5.66699C13.242 7.66432 13.2154 7.47632 13.5294 7.80632L13.7134 8.00032L13.5294 8.19432C13.2154 8.52432 13.242 8.33632 13.2267 10.3337L13.2134 12.067L13.152 12.1817C12.9894 12.4863 12.7594 12.631 12.3814 12.6663C12.1027 12.6923 11.9914 12.7337 11.874 12.8543C11.76 12.9717 11.7214 13.0923 11.7214 13.3337C11.7214 13.5783 11.7607 13.6983 11.882 13.8237C12.0174 13.963 12.208 14.0123 12.5327 13.991C12.8494 13.9703 13.0454 13.9197 13.3254 13.785C13.8694 13.5237 14.2974 13.025 14.4787 12.4403C14.568 12.1517 14.5847 11.8263 14.586 10.3757L14.5867 9.03099L14.916 8.69566C15.2774 8.32766 15.366 8.19032 15.366 8.00032C15.366 7.81032 15.2774 7.67299 14.916 7.30499L14.5867 6.96966L14.586 5.62499C14.5854 4.88566 14.574 4.15832 14.5607 4.00899C14.4867 3.18966 13.9834 2.49566 13.2267 2.16899C12.8794 2.01899 12.3674 1.96099 12.106 2.04099Z" fill="#E5A01A"/>
</svg>
