<svg width="16" height="16" viewBox="0 0 16 16" fill="none" xmlns="http://www.w3.org/2000/svg">
<path fill-rule="evenodd" clip-rule="evenodd" d="M14.7475 8.84163C14.7658 8.72261 14.7749 8.61275 14.7841 8.49373L15.1961 8.24654C15.2876 8.19161 15.3334 8.10006 15.3334 7.99935C15.3334 7.89864 15.2785 7.80709 15.1961 7.75216L14.7841 7.50497C14.7841 7.38595 14.7658 7.27609 14.7475 7.15707L15.0954 6.83664C15.1686 6.77255 15.2052 6.66269 15.1869 6.56198C15.1686 6.46127 15.0954 6.37887 15.0038 6.34225L14.5552 6.17746C14.5278 6.0676 14.4911 5.94858 14.4545 5.83872L14.7383 5.46335C14.8024 5.38095 14.8116 5.27109 14.7749 5.17954C14.7383 5.08799 14.6468 5.01475 14.5461 5.00559L14.0791 4.93235C14.0242 4.83164 13.9693 4.72178 13.9144 4.62107L14.1158 4.19078C14.1615 4.09922 14.1524 3.98936 14.0975 3.90696C14.0425 3.82457 13.9418 3.76964 13.8411 3.77879L13.365 3.80626C13.2918 3.7147 13.2186 3.62315 13.1453 3.54076L13.2643 3.08299C13.2918 2.98229 13.2643 2.88158 13.1911 2.80834C13.1178 2.7351 13.0171 2.70763 12.9164 2.7351L12.4587 2.85411C12.3671 2.78087 12.2847 2.70763 12.1932 2.63439L12.2206 2.15832C12.2206 2.05761 12.1749 1.9569 12.0925 1.90197C12.0101 1.84704 11.9002 1.83788 11.8087 1.88366L11.3784 2.08508C11.2777 2.03014 11.1769 1.97521 11.0671 1.92028L10.9938 1.45336C10.9755 1.35266 10.9114 1.27026 10.8199 1.22448C10.7283 1.17871 10.6185 1.19702 10.5361 1.26111L10.1607 1.54492C10.0509 1.5083 9.94099 1.48083 9.82197 1.44421L9.65718 0.995604C9.62055 0.904051 9.53816 0.83081 9.43745 0.812499C9.33674 0.794189 9.23604 0.83081 9.16279 0.904051L8.84236 1.25195C8.72334 1.23364 8.61348 1.22448 8.49446 1.21533L8.24727 0.803344C8.19234 0.711792 8.10079 0.666016 8.00008 0.666016C7.89937 0.666016 7.80782 0.720947 7.75289 0.803344L7.5057 1.21533C7.38668 1.21533 7.27682 1.23364 7.1578 1.25195L6.83737 0.904051C6.77328 0.83081 6.66342 0.794189 6.56271 0.812499C6.462 0.83081 6.37961 0.904051 6.34299 0.995604L6.17819 1.44421C6.06833 1.47168 5.94931 1.5083 5.83945 1.54492L5.46408 1.26111C5.38169 1.19702 5.27182 1.18786 5.18027 1.22448C5.08872 1.26111 5.01548 1.35266 5.00632 1.45336L4.93308 1.92028C4.83237 1.97521 4.72251 2.03014 4.6218 2.08508L4.19151 1.88366C4.09996 1.83788 3.99009 1.84704 3.9077 1.90197C3.8253 1.9569 3.77037 2.05761 3.77952 2.15832L3.80699 2.63439C3.71544 2.70763 3.62388 2.78087 3.54149 2.85411L3.08373 2.7351C2.98302 2.70763 2.88231 2.7351 2.80907 2.80834C2.73583 2.88158 2.70836 2.98229 2.73583 3.08299L2.85485 3.54076C2.7816 3.63231 2.70836 3.7147 2.63512 3.80626L2.15905 3.77879C2.05834 3.77879 1.95763 3.82457 1.9027 3.90696C1.84777 3.98936 1.83862 4.09922 1.88439 4.19078L2.08581 4.62107C2.03088 4.72178 1.97594 4.82249 1.92101 4.93235L1.4541 5.00559C1.35339 5.0239 1.27099 5.08799 1.22522 5.17954C1.1886 5.27109 1.19775 5.38095 1.26184 5.46335L1.54565 5.83872C1.50903 5.94858 1.48156 6.05844 1.44494 6.17746L0.996336 6.34225C0.904784 6.37887 0.831542 6.46127 0.813232 6.56198C0.794921 6.66269 0.831542 6.76339 0.904784 6.83664L1.25268 7.15707C1.23437 7.27609 1.22522 7.38595 1.21606 7.50497L0.804076 7.75216C0.712524 7.80709 0.666748 7.89864 0.666748 7.99935C0.666748 8.10006 0.721679 8.19161 0.804076 8.24654L1.21606 8.49373C1.21606 8.61275 1.23437 8.72261 1.25268 8.84163L0.904784 9.16206C0.831542 9.22615 0.794921 9.33601 0.813232 9.43672C0.831542 9.53743 0.904784 9.61982 0.996336 9.65644L1.44494 9.82124C1.47241 9.9311 1.50903 10.0501 1.54565 10.16L1.26184 10.5353C1.19775 10.6177 1.1886 10.7276 1.22522 10.8192C1.26184 10.9107 1.35339 10.984 1.4541 10.9931L1.92101 11.0663C1.97594 11.1671 2.03088 11.2769 2.08581 11.3776L1.88439 11.8079C1.83862 11.8995 1.84777 12.0093 1.9027 12.0917C1.95763 12.1741 2.05834 12.2291 2.15905 12.2199L2.63512 12.1924C2.70836 12.284 2.7816 12.3755 2.85485 12.4579L2.73583 12.9157C2.70836 13.0164 2.73583 13.1171 2.80907 13.1904C2.88231 13.2636 2.98302 13.2911 3.08373 13.2636L3.54149 13.1446C3.63304 13.2178 3.71544 13.2911 3.80699 13.3643L3.77952 13.8404C3.77952 13.9411 3.8253 14.0418 3.9077 14.0967C3.99009 14.1517 4.09996 14.1608 4.19151 14.115L4.6218 13.9136C4.72251 13.9686 4.82322 14.0235 4.93308 14.0784L5.00632 14.5453C5.02463 14.646 5.08872 14.7284 5.18027 14.7742C5.27182 14.8108 5.38169 14.8017 5.46408 14.7376L5.83945 14.4538C5.94931 14.4904 6.05917 14.5179 6.17819 14.5545L6.34299 15.0031C6.37961 15.0946 6.462 15.1679 6.56271 15.1862C6.66342 15.2045 6.76413 15.1679 6.83737 15.0946L7.1578 14.7467C7.27682 14.7651 7.38668 14.7742 7.5057 14.7834L7.75289 15.1954C7.80782 15.2869 7.89937 15.3327 8.00008 15.3327C8.10079 15.3327 8.19234 15.2778 8.24727 15.1954L8.49446 14.7834C8.61348 14.7834 8.72334 14.7651 8.84236 14.7467L9.16279 15.0946C9.22688 15.1679 9.33674 15.2045 9.43745 15.1862C9.53816 15.1679 9.62055 15.0946 9.65718 15.0031L9.82197 14.5545C9.93183 14.527 10.0509 14.4904 10.1607 14.4538L10.5361 14.7376C10.6185 14.8017 10.7283 14.8108 10.8199 14.7742C10.9114 14.7376 10.9847 14.646 10.9938 14.5453L11.0671 14.0784C11.1678 14.0235 11.2777 13.9686 11.3784 13.9136L11.8087 14.115C11.9002 14.1608 12.0101 14.1517 12.0925 14.0967C12.1749 14.0418 12.2298 13.9411 12.2206 13.8404L12.1932 13.3643C12.2847 13.2911 12.3763 13.2178 12.4587 13.1446L12.9164 13.2636C13.0171 13.2911 13.1178 13.2636 13.1911 13.1904C13.2643 13.1171 13.2918 13.0164 13.2643 12.9157L13.1453 12.4579C13.2186 12.3664 13.2918 12.284 13.365 12.1924L13.8411 12.2199C13.9418 12.2199 14.0425 12.1741 14.0975 12.0917C14.1524 12.0093 14.1615 11.8995 14.1158 11.8079L13.9144 11.3776C13.9693 11.2769 14.0242 11.1762 14.0791 11.0663L14.5461 10.9931C14.6468 10.9748 14.7292 10.9107 14.7749 10.8192C14.8116 10.7276 14.8024 10.6177 14.7383 10.5353L14.4545 10.16C14.4911 10.0501 14.5186 9.94026 14.5552 9.82124L15.0038 9.65644C15.0954 9.61982 15.1686 9.53743 15.1869 9.43672C15.2052 9.33601 15.1686 9.2353 15.0954 9.16206L14.7475 8.84163ZM7.99093 13.0713C7.22189 13.0713 6.49862 12.8974 5.83945 12.5861L5.72043 11.8171C5.67465 11.4966 5.37253 11.2861 5.0521 11.3318L4.28306 11.4509C4.20066 11.3685 4.12742 11.2861 4.05418 11.1945H8.05501C8.10994 11.1945 8.15572 11.1487 8.15572 11.0938V9.57405C8.15572 9.51912 8.10994 9.47334 8.05501 9.47334H6.91061V8.55782H8.19234C8.36629 8.55782 8.50362 8.59444 8.61348 8.65852C8.72334 8.72261 8.80574 8.81416 8.87898 8.92403C9.02547 9.15291 9.09871 9.46418 9.17195 9.79377C9.17195 9.83039 9.19026 9.85786 9.19026 9.89448C9.25435 10.1874 9.30928 10.4896 9.4283 10.7184C9.49238 10.8466 9.57478 10.9656 9.6938 11.048C9.81281 11.1304 9.95014 11.1762 10.1241 11.1762H11.9094C11.8361 11.2678 11.7629 11.3502 11.6805 11.4326L10.9114 11.3135C10.591 11.2678 10.298 11.4783 10.2431 11.7988L10.1241 12.5678C9.47407 12.8699 8.74165 13.053 7.97261 13.053L7.99093 13.0713ZM7.02963 3.01891L7.57894 3.56822C7.80782 3.7971 8.17403 3.7971 8.40291 3.56822L8.95222 3.01891C10.4537 3.30272 11.7079 4.25486 12.4312 5.54575L12.0742 6.24155C11.9277 6.52536 12.0467 6.87326 12.3305 7.01974L13.0263 7.37679C13.0538 7.57821 13.0721 7.78878 13.0721 7.99935C13.0721 8.12752 13.0629 8.25569 13.0538 8.38387H12.77C12.715 8.38387 12.6692 8.42964 12.6692 8.48458V8.75923C12.6692 9.01558 12.596 9.18953 12.4953 9.29939C12.3946 9.40925 12.2573 9.46418 12.1199 9.47334C11.827 9.49165 11.534 9.29939 11.4791 9.01558C11.4058 8.64937 11.2227 8.32894 11.0488 8.0909C10.9572 7.97188 10.8657 7.88033 10.7924 7.80709C10.7833 7.80709 10.7741 7.78878 10.765 7.77962C11.2044 7.51412 11.4882 7.18453 11.6347 6.83664C11.7903 6.45212 11.7812 6.04013 11.6347 5.67392C11.36 4.95066 10.6002 4.36473 9.73042 4.36473H4.45701C5.15281 3.67808 6.05002 3.20201 7.04794 3.00975L7.02963 3.01891ZM9.3459 6.54367C9.3459 6.74508 9.14448 7.00143 8.61348 7.00143H6.91061V6.08591H8.61348C9.14448 6.08591 9.3459 6.34225 9.3459 6.54367ZM3.65135 7.01974C3.93516 6.87326 4.05418 6.52536 3.9077 6.24155L3.83446 6.09506H4.51194V9.49165H3.14781C3.00133 9.01558 2.92809 8.5212 2.92809 7.99935C2.92809 7.78878 2.9464 7.57821 2.97386 7.37679L3.66966 7.01974H3.65135Z" fill="#799C92"/>
</svg>
