<svg width="24" height="24" viewBox="0 0 24 24" fill="none" xmlns="http://www.w3.org/2000/svg">
<path d="M12.2598 3.22483C12.2526 3.23454 12.2495 3.24758 12.2432 3.27366L8.70963 17.879C8.6999 17.9192 8.69504 17.9393 8.70002 17.9551C8.70438 17.969 8.71366 17.9808 8.72611 17.9883C8.74031 17.9969 8.761 17.9969 8.80236 17.9969H20.5658C21.9102 17.9969 23 16.8707 23 15.4815V5.71604C23 4.32685 21.9102 3.20068 20.5658 3.20068H12.3359C12.3091 3.20068 12.2957 3.20068 12.2845 3.20539C12.2747 3.20954 12.2662 3.21626 12.2598 3.22483Z" fill="#FF0000"/>
<path d="M10.0849 6.04543C10.0899 6.06122 10.085 6.08129 10.0754 6.12145L6.91285 19.3058C6.90322 19.3459 6.8984 19.366 6.9034 19.3818C6.90778 19.3956 6.91706 19.4074 6.9295 19.4149C6.94369 19.4234 6.96433 19.4234 7.00563 19.4234H11.8568C11.8981 19.4234 11.9187 19.4234 11.9329 19.432C11.9454 19.4395 11.9547 19.4512 11.959 19.4651C11.964 19.4809 11.9592 19.5009 11.9496 19.5411L11.6652 20.7268C11.6589 20.7529 11.6558 20.766 11.6486 20.7758C11.6422 20.7843 11.6337 20.7911 11.6239 20.7952C11.6127 20.8 11.5993 20.8 11.5724 20.8H3.41346C2.08054 20.8 1 19.6738 1 18.2846V8.51913C1 7.12995 2.08054 6.00378 3.41346 6.00378H9.98264C10.0239 6.00378 10.0446 6.00378 10.0588 6.01233C10.0712 6.01981 10.0805 6.03158 10.0849 6.04543Z" fill="#FF0000"/>
</svg>
