<svg width="24" height="24" viewBox="0 0 24 24" fill="none" xmlns="http://www.w3.org/2000/svg">
<path fill-rule="evenodd" clip-rule="evenodd" d="M12.7139 1.03693C12.6549 1.05593 12.5499 1.10493 12.4789 1.14593C12.3369 1.22893 3.08588 12.3039 2.83488 12.6919C2.63488 13.0019 2.57988 13.1899 2.58288 13.5599C2.58588 13.9599 2.72588 14.2779 3.02288 14.5599C3.26088 14.7839 3.48188 14.8939 3.82488 14.9579C3.97588 14.9849 5.22788 14.9999 7.45988 14.9999H10.8649L10.4309 18.4499C9.95588 22.2179 9.94888 22.3189 10.1379 22.6039C10.2749 22.8119 10.5879 22.9619 10.9429 22.9899C11.1629 23.0079 11.2269 22.9959 11.4169 22.9029C11.6249 22.8009 11.8889 22.4929 16.3229 17.1719C18.8999 14.0789 21.0789 11.4409 21.1649 11.3079C21.3649 10.9979 21.4199 10.8099 21.4169 10.4399C21.4159 10.1989 21.3929 10.0909 21.3019 9.88893C21.1499 9.55293 20.8189 9.24393 20.4729 9.11493L20.2199 9.02093L16.6779 9.00893L13.1349 8.99693L13.5689 5.54893C13.8729 3.13793 13.9989 2.01893 13.9869 1.82993C13.9649 1.46993 13.8369 1.27093 13.5409 1.13493C13.3099 1.02893 12.8899 0.978932 12.7139 1.03693ZM11.2779 7.68193C11.0959 9.12593 11.0009 10.0199 11.0119 10.1629C11.0429 10.5229 11.1839 10.7469 11.4799 10.9049C11.6129 10.9759 11.8009 10.9809 15.2349 10.9999L18.8499 11.0199L15.6549 14.8539C13.8979 16.9629 12.4549 18.6629 12.4489 18.6329C12.4419 18.6019 12.5649 17.5599 12.7219 16.3179C12.9219 14.7289 12.9999 13.9919 12.9839 13.8299C12.9459 13.4449 12.7879 13.2179 12.4549 13.0709C12.3659 13.0309 11.5359 13.0159 8.74488 12.9999L5.14988 12.9799L8.34488 9.14593C10.1019 7.03693 11.5449 5.33693 11.5509 5.36693C11.5579 5.39793 11.4349 6.43993 11.2779 7.68193Z" fill="#FF0000"/>
</svg>
