<svg width="24" height="24" viewBox="0 0 24 24" fill="none" xmlns="http://www.w3.org/2000/svg">
<path fill-rule="evenodd" clip-rule="evenodd" d="M11.64 1.6821C11.044 1.8061 10.374 2.3791 9.86502 3.2001C9.50202 3.7861 1.48302 17.6701 1.31602 18.0011C0.962016 18.7071 0.829016 19.3611 0.936016 19.8751C1.13802 20.8421 1.91602 21.3641 3.32302 21.4771C4.06002 21.5361 19.94 21.5361 20.677 21.4771C21.842 21.3841 22.559 21.0201 22.893 20.3521C23.224 19.6901 23.158 18.9511 22.682 18.0001C22.425 17.4861 14.339 3.5221 14.015 3.0311C13.579 2.3721 13.018 1.8801 12.544 1.7391C12.28 1.6611 11.866 1.6341 11.64 1.6821ZM12.146 3.8501C12.209 3.9221 12.317 4.0711 12.386 4.1801C12.626 4.5601 20.734 18.5811 20.888 18.8841C20.973 19.0511 21.047 19.2381 21.052 19.3011C21.059 19.4021 21.042 19.4191 20.9 19.4571C20.675 19.5171 3.32502 19.5171 3.10002 19.4571C2.95602 19.4191 2.94102 19.4021 2.94802 19.2971C2.95302 19.2331 3.02602 19.0451 3.11202 18.8801C3.27502 18.5661 11.394 4.5281 11.614 4.1801C11.757 3.9531 11.953 3.7201 12 3.7201C12.017 3.7201 12.083 3.7791 12.146 3.8501ZM11.649 8.0391C11.442 8.0881 11.209 8.2661 11.111 8.4501L11.02 8.6201L11.009 10.9111C11.001 12.3921 11.012 13.2561 11.039 13.3551C11.1 13.5831 11.242 13.7681 11.442 13.8801C11.598 13.9671 11.668 13.9801 12 13.9791C12.505 13.9771 12.715 13.8741 12.894 13.5401C12.979 13.3821 12.98 13.3571 12.98 11.0001V8.6201L12.891 8.4531C12.842 8.3621 12.746 8.2471 12.678 8.1991C12.432 8.0241 11.999 7.9561 11.649 8.0391ZM11.649 16.0371C11.263 16.1361 11.039 16.4381 11.009 16.9001C10.978 17.3811 11.119 17.6991 11.442 17.8801C11.597 17.9671 11.669 17.9801 12 17.9801C12.312 17.9801 12.408 17.9641 12.54 17.8941C12.866 17.7181 13 17.4591 13 17.0001C13 16.3561 12.712 16.0471 12.083 16.0171C11.916 16.0091 11.721 16.0181 11.649 16.0371Z" fill="#FF0000"/>
</svg>
