<svg width="17" height="16" viewBox="0 0 17 16" fill="none" xmlns="http://www.w3.org/2000/svg">
<path fill-rule="evenodd" clip-rule="evenodd" d="M4.44732 1.36074C3.93465 1.39474 3.61532 1.47007 3.28732 1.63407C2.55998 1.99741 2.07198 2.64074 1.91665 3.44007C1.84265 3.81941 1.83398 4.30341 1.83398 8.00007C1.83398 12.2387 1.83798 12.3507 1.99732 12.8801C2.21865 13.6147 2.88598 14.2821 3.62065 14.5034C4.14998 14.6627 4.26198 14.6667 8.50065 14.6667C12.7393 14.6667 12.8513 14.6627 13.3807 14.5034C14.1153 14.2821 14.7827 13.6147 15.004 12.8801C15.1633 12.3507 15.1673 12.2387 15.1673 8.00007C15.1673 3.76141 15.1633 3.64941 15.004 3.12007C14.7833 2.38741 14.144 1.74807 13.3807 1.49741C12.93 1.34941 13.034 1.35274 8.72732 1.34607C6.54198 1.34274 4.61598 1.34941 4.44732 1.36074ZM12.8287 2.72741C13.0967 2.79207 13.24 2.87274 13.434 3.06674C13.6313 3.26341 13.71 3.40607 13.7753 3.68541C13.8173 3.86474 13.8207 4.20874 13.8207 8.00007C13.8207 11.7914 13.8173 12.1354 13.7753 12.3147C13.71 12.5941 13.6313 12.7361 13.434 12.9341C13.2347 13.1341 13.0473 13.2341 12.7793 13.2854C12.5073 13.3367 4.49398 13.3367 4.22198 13.2847C3.94732 13.2334 3.76598 13.1361 3.56732 12.9354C3.36932 12.7361 3.29132 12.5934 3.22598 12.3147C3.18398 12.1354 3.18065 11.7914 3.18065 8.00007C3.18065 4.20874 3.18398 3.86474 3.22598 3.68541C3.28398 3.43674 3.36332 3.27874 3.51398 3.11141C3.75598 2.84141 4.02198 2.72741 4.48732 2.69274C4.63398 2.68207 6.52998 2.67541 8.70065 2.67874C12.2627 2.68274 12.6653 2.68807 12.8287 2.72741ZM8.24332 4.70474C8.08532 4.75407 7.97532 4.84074 7.90665 4.96874C7.84732 5.07941 7.84732 5.08607 7.83998 6.60741C7.83465 7.59474 7.84198 8.17074 7.85998 8.23674C7.92998 8.49807 8.12265 8.64074 8.43132 8.66074C8.75465 8.68141 8.96665 8.58807 9.08732 8.37207L9.15398 8.25341V6.66674V5.08007L9.09465 4.96874C9.06198 4.90807 8.99798 4.83141 8.95265 4.79941C8.77665 4.67341 8.47198 4.63341 8.24332 4.70474ZM8.24332 10.0367C7.98065 10.1227 7.85998 10.2914 7.83998 10.6001C7.81932 10.9207 7.91332 11.1327 8.12865 11.2534C8.23198 11.3114 8.27998 11.3201 8.50065 11.3201C8.70865 11.3201 8.77265 11.3094 8.86065 11.2627C9.07798 11.1454 9.16732 10.9727 9.16732 10.6667C9.16732 10.2381 8.97598 10.0321 8.55598 10.0107C8.42932 10.0041 8.31265 10.0141 8.24332 10.0367Z" fill="white"/>
</svg>
