<svg width="24" height="24" viewBox="0 0 24 24" fill="none" xmlns="http://www.w3.org/2000/svg">
<path fill-rule="evenodd" clip-rule="evenodd" d="M11.4181 1.24123C11.1661 1.32123 3.16414 5.74223 2.83514 5.98323C2.41314 6.29223 2.15814 6.67623 2.05714 7.15523C1.97314 7.54823 1.97314 16.4522 2.05714 16.8452C2.17014 17.3812 2.49114 17.8132 3.01714 18.1392C3.53714 18.4612 11.0851 22.6362 11.3131 22.7292C11.5031 22.8052 11.6131 22.8202 11.9991 22.8202C12.3851 22.8202 12.4951 22.8052 12.6851 22.7292C12.9131 22.6362 20.4611 18.4612 20.9811 18.1392C21.3211 17.9282 21.6321 17.6092 21.7781 17.3222C22.0011 16.8812 21.9981 16.9692 21.9981 12.0002C21.9981 7.03623 22.0011 7.11823 21.7801 6.68123C21.6561 6.43823 21.4231 6.17323 21.1631 5.98323C20.8071 5.72223 12.8321 1.32123 12.5671 1.23923C12.2321 1.13623 11.7471 1.13723 11.4181 1.24123ZM16.0031 5.37023L19.9791 7.58023L19.9891 11.9852C19.9971 15.4792 19.9891 16.3982 19.9491 16.4312C19.8681 16.4972 12.0381 20.8402 11.9991 20.8402C11.9601 20.8402 4.13014 16.4972 4.04914 16.4312C4.00914 16.3982 4.00114 15.4792 4.00914 11.9852L4.01914 7.58023L7.99514 5.37023C10.1831 4.15423 11.9841 3.16023 11.9991 3.16023C12.0141 3.16023 13.8151 4.15423 16.0031 5.37023ZM11.6481 7.03723C11.4381 7.09123 11.2071 7.26723 11.1101 7.45023L11.0191 7.62023L11.0081 9.91123C11.0001 11.3922 11.0111 12.2562 11.0381 12.3552C11.1431 12.7472 11.4321 12.9612 11.8951 12.9912C12.3801 13.0222 12.6981 12.8822 12.8791 12.5582L12.9791 12.3802V10.0002V7.62023L12.8791 7.44223C12.7251 7.16723 12.4831 7.03723 12.0931 7.01823C11.9201 7.01023 11.7201 7.01823 11.6481 7.03723ZM11.6131 15.0552C11.2191 15.1842 11.0381 15.4372 11.0081 15.9002C10.9771 16.3812 11.1181 16.6992 11.4411 16.8802C11.5961 16.9672 11.6681 16.9802 11.9991 16.9802C12.3111 16.9802 12.4071 16.9642 12.5391 16.8942C12.8651 16.7182 12.9991 16.4592 12.9991 16.0002C12.9991 15.3572 12.7121 15.0482 12.0821 15.0162C11.8921 15.0062 11.7171 15.0212 11.6131 15.0552Z" fill="white"/>
</svg>
