<svg width="24" height="24" viewBox="0 0 24 24" fill="none" xmlns="http://www.w3.org/2000/svg">
<path d="M4.88668 1.19995C4.88668 1.0896 4.97628 1 5.08663 1H6.68673C6.79708 1 6.88668 1.0896 6.88668 1.19995V17H10.4597C10.6292 17 10.7219 17.1978 10.6134 17.3281L6.04036 22.8157C5.96041 22.9116 5.81295 22.9116 5.73299 22.8157L1.15999 17.3281C1.05147 17.1978 1.14412 17 1.31368 17H4.88668V1.19995Z" fill="#FF0000"/>
<path fill-rule="evenodd" clip-rule="evenodd" d="M19.0548 1L22.8867 11H20.1944L19.5947 9.13184H16.1699L15.5719 11H12.8867L16.6972 1H19.0548ZM16.7657 7.27051H18.9972L17.8798 3.79028L16.7657 7.27051Z" fill="#FF0000"/>
<path d="M22.8867 23V21.1455H16.7826L22.8253 14.2363V13H12.8867V14.8613H19.03L12.9306 21.7295V23H22.8867Z" fill="#FF0000"/>
</svg>
