<svg width="24" height="24" viewBox="0 0 24 24" fill="none" xmlns="http://www.w3.org/2000/svg">
<path d="M6.04039 1.07202C5.96043 0.976074 5.81309 0.976074 5.73314 1.07202L1.16014 6.55957C1.05162 6.68994 1.14415 6.8877 1.31382 6.8877H4.88682V22.6877C4.88682 22.7981 4.9763 22.8877 5.08677 22.8877H6.68675C6.73851 22.8877 6.78575 22.8679 6.82127 22.8357C6.86155 22.7991 6.88682 22.7463 6.88682 22.6877V6.8877H10.4597C10.6294 6.8877 10.7219 6.68994 10.6134 6.55957L6.04039 1.07202Z" fill="#FF0000"/>
<path d="M22.8867 9.14551V11H12.9306V9.72949L19.03 2.86133H12.8867V1H22.8253V2.23633L16.7826 9.14551H22.8867Z" fill="#FF0000"/>
<path fill-rule="evenodd" clip-rule="evenodd" d="M19.0548 13H16.6972L12.8867 23H15.5719L16.1699 21.1318H19.5947L20.1944 23H22.8867L19.0548 13ZM18.9972 19.2705H16.7657L17.8799 15.7903L18.9972 19.2705Z" fill="#FF0000"/>
</svg>
