<?xml version="1.0" standalone="no"?>
<!DOCTYPE svg PUBLIC "-//W3C//DTD SVG 20010904//EN"
 "http://www.w3.org/TR/2001/REC-SVG-20010904/DTD/svg10.dtd">
<svg version="1.0" xmlns="http://www.w3.org/2000/svg"
 width="404.000000pt" height="404.000000pt" viewBox="0 0 404.000000 404.000000"
 preserveAspectRatio="xMidYMid meet">
<metadata>
Created by potrace 1.16, written by Peter Selinger 2001-2019
</metadata>
<g transform="translate(0.000000,404.000000) scale(0.100000,-0.100000)"
fill="currentColor" stroke="none">
<path d="M2532 3622 c1 -17 7 -37 14 -43 9 -8 10 -17 3 -36 -7 -18 -6 -30 1
-37 7 -7 10 -6 10 3 0 18 22 -6 38 -43 9 -21 10 -32 2 -40 -8 -8 -10 -7 -7 4
2 8 2 12 0 7 -3 -4 -10 -4 -16 0 -6 4 -1 -10 11 -31 12 -21 19 -42 15 -48 -4
-8 0 -9 12 -4 14 5 16 4 7 -7 -9 -10 -7 -19 5 -37 9 -13 12 -20 6 -17 -6 4
-13 1 -16 -7 -3 -8 1 -17 9 -20 9 -3 13 -10 9 -16 -3 -5 1 -22 9 -38 13 -26
13 -31 -1 -44 -11 -12 -12 -17 -2 -23 8 -6 10 -4 4 5 -6 9 -4 11 4 6 9 -6 8
-13 -6 -29 -17 -20 -17 -21 0 -8 16 13 17 12 12 -17 -3 -20 -1 -32 6 -32 6 0
8 -8 4 -19 -3 -11 0 -23 6 -27 8 -4 9 -3 5 4 -4 7 -5 12 -2 12 3 0 10 -10 17
-21 8 -15 8 -19 0 -15 -10 6 -15 -6 -12 -26 0 -5 -3 -8 -8 -8 -5 0 -11 -9 -14
-21 -3 -12 -10 -18 -16 -14 -6 3 -8 11 -5 17 4 7 2 8 -5 4 -9 -6 -9 -11 -1
-22 14 -16 33 -14 40 4 5 11 9 10 20 -4 9 -11 10 -15 3 -10 -8 4 -13 1 -13 -8
0 -9 6 -13 14 -10 8 3 17 0 21 -6 3 -6 3 -10 -2 -9 -4 1 -21 -3 -38 -10 -16
-7 -30 -11 -31 -9 0 2 -9 -5 -19 -15 -9 -10 -24 -16 -32 -13 -8 4 -11 1 -7 -5
3 -6 18 -8 33 -4 25 6 25 6 6 -9 -18 -14 -18 -15 -2 -16 9 0 18 5 18 10 1 6 2
16 3 23 1 6 8 11 15 9 7 -1 10 2 7 7 -3 5 3 11 14 14 14 3 20 0 20 -10 0 -9 8
-22 18 -29 16 -12 15 -13 -4 -10 -11 3 -27 0 -35 -5 -15 -10 -6 -12 36 -10 11
0 14 -2 7 -5 -7 -3 -17 -14 -22 -24 -8 -16 -7 -18 10 -15 13 3 20 -2 21 -13 0
-11 2 -12 6 -4 3 7 -1 19 -7 27 -10 12 -9 15 3 15 20 0 49 29 41 41 -8 14 -26
0 -18 -14 4 -7 3 -8 -1 -4 -15 13 -14 35 1 41 19 7 35 -25 23 -46 -7 -13 -4
-20 11 -28 11 -6 24 -8 29 -6 5 3 11 -1 15 -9 3 -9 12 -12 23 -8 19 7 18 5
-11 -17 -16 -12 -18 -12 -11 -1 5 10 4 12 -3 7 -20 -12 -13 -24 19 -31 21 -5
29 -11 25 -21 -3 -9 -1 -12 4 -9 6 3 10 14 10 23 0 14 2 15 9 2 6 -8 7 -18 4
-24 -3 -5 -1 -6 6 -2 6 4 9 11 7 15 -7 10 46 8 62 -3 7 -4 15 -6 17 -4 8 7
-112 351 -165 474 -81 189 -171 341 -268 454 l-30 35 0 -33z m144 -517 c-1 -8
-5 -17 -8 -21 -5 -4 -4 16 1 34 3 9 9 -1 7 -13z m33 -129 c9 -11 8 -15 -5 -20
-11 -4 -15 -2 -11 8 3 8 1 17 -6 20 -8 3 -8 5 -1 5 6 1 17 -5 23 -13z m25
-110 c-10 -8 -21 -12 -24 -10 -5 6 21 24 34 24 6 0 1 -6 -10 -14z m156 -132
c0 -8 -19 -13 -24 -6 -3 5 1 9 9 9 8 0 15 -2 15 -3z"/>
<path d="M2617 3197 c-3 -8 3 -14 16 -15 12 0 17 2 12 6 -6 4 -13 11 -16 15
-4 4 -9 2 -12 -6z"/>
<path d="M2609 3053 c-13 -16 -12 -17 4 -4 16 13 21 21 13 21 -2 0 -10 -8 -17
-17z"/>
<path d="M2437 2803 c-13 -12 -7 -23 11 -22 10 0 12 3 4 6 -6 2 -10 9 -6 14 6
10 0 12 -9 2z"/>
<path d="M2387 2779 c4 -13 8 -18 11 -10 2 7 -1 18 -6 23 -8 8 -9 4 -5 -13z"/>
<path d="M2605 2781 c2 -9 4 -19 4 -23 1 -11 31 3 31 14 0 5 -5 6 -12 2 -7 -5
-9 -2 -6 8 4 8 1 15 -7 15 -7 0 -11 -7 -10 -16z"/>
<path d="M2755 2779 c-4 -5 -2 -16 5 -23 7 -10 8 -16 0 -19 -7 -4 -7 -5 0 -3
7 1 11 5 10 10 -1 5 3 12 8 15 6 4 5 11 -4 18 -8 9 -15 9 -19 2z"/>
<path d="M2155 2770 c-3 -5 -2 -10 4 -10 5 0 13 5 16 10 3 6 2 10 -4 10 -5 0
-13 -4 -16 -10z"/>
<path d="M2512 2773 c-7 -2 -17 -14 -23 -26 -9 -19 -8 -20 3 -7 8 8 20 21 28
28 15 13 13 14 -8 5z"/>
<path d="M2351 2754 c9 -12 9 -15 2 -10 -7 4 -13 2 -13 -3 0 -6 8 -11 17 -11
13 0 14 -3 5 -12 -9 -9 -17 -7 -35 10 -29 27 -33 27 -40 2 -3 -11 -9 -20 -14
-19 -19 3 -33 -2 -33 -12 0 -5 3 -8 8 -6 4 3 15 -6 25 -19 l17 -23 -30 17
c-20 11 -30 25 -30 40 0 15 4 21 11 16 7 -4 10 -2 8 5 -8 24 -24 16 -29 -14
-5 -26 -7 -27 -13 -10 -7 16 -10 17 -17 5 -9 -13 -10 -13 -10 0 0 10 -3 11 -8
4 -5 -8 -11 -7 -22 4 -8 9 -14 18 -12 19 11 12 -2 9 -17 -4 -11 -9 -17 -21
-14 -26 3 -5 8 -5 12 2 4 6 11 3 19 -9 7 -12 8 -20 2 -20 -5 0 -10 4 -10 8 0
12 -32 11 -47 -1 -17 -13 -16 -2 2 33 10 20 12 31 4 35 -6 4 -13 4 -16 1 -4
-3 -1 -6 6 -6 7 0 10 -4 7 -9 -3 -5 -15 -7 -27 -4 -15 4 -17 8 -7 14 9 6 6 8
-10 6 -12 0 -22 -4 -22 -8 0 -8 31 -23 42 -21 7 2 2 -37 -6 -45 -3 -3 -10 -2
-16 2 -9 6 -9 10 1 16 11 7 11 9 1 9 -7 0 -15 -7 -18 -15 -6 -14 -8 -13 -20 2
-9 12 -13 14 -14 5 0 -7 -4 -11 -8 -8 -4 2 -9 -5 -9 -17 -2 -18 0 -19 8 -7 8
12 10 12 7 -4 -3 -20 -38 -32 -38 -13 0 5 -3 7 -7 3 -5 -4 -8 -12 -8 -18 0 -6
-8 -16 -18 -22 -14 -9 -21 -7 -32 7 -10 14 -14 15 -18 5 -5 -13 -11 17 -7 37
1 5 -2 7 -6 3 -4 -4 -14 -2 -22 5 -11 9 -10 4 3 -16 15 -24 16 -27 1 -21 -9 3
-16 11 -16 17 0 6 -3 7 -6 4 -4 -4 -1 -13 5 -21 7 -8 10 -20 6 -27 -6 -8 -10
-7 -16 2 -8 12 -10 12 -18 0 -5 -8 -7 -20 -4 -28 3 -7 0 -13 -7 -13 -6 0 -8 5
-5 10 3 6 1 10 -4 10 -15 0 -14 -27 2 -33 6 -2 -5 -7 -26 -11 -25 -5 -35 -11
-31 -19 4 -7 4 -9 -1 -5 -4 4 -15 2 -23 -5 -13 -11 -14 -9 -2 13 11 21 8 19
-18 -8 -19 -20 -36 -31 -43 -26 -8 4 -9 3 -5 -5 4 -6 13 -8 19 -5 9 5 9 4 0
-6 -6 -7 -9 -20 -6 -29 4 -13 3 -13 -5 -2 -9 12 -13 12 -27 -2 -9 -10 -21 -17
-26 -17 -5 0 -9 -7 -9 -16 0 -8 -5 -12 -11 -8 -8 4 -8 0 0 -15 7 -12 8 -21 2
-21 -5 0 -12 6 -14 13 -4 10 -6 10 -6 0 -1 -7 -8 -13 -17 -13 -8 0 -13 -3 -11
-7 3 -5 -1 -14 -9 -20 -7 -7 -15 -9 -19 -4 -3 5 1 12 7 14 9 4 8 6 -3 6 -9 1
-21 -10 -27 -24 -6 -14 -20 -25 -29 -25 -15 0 -16 -2 -3 -10 11 -7 11 -10 2
-10 -7 0 -10 -4 -7 -10 3 -5 -1 -10 -9 -10 -9 0 -13 -6 -10 -13 3 -8 -2 -20
-11 -27 -9 -7 -15 -8 -15 -2 0 6 6 13 13 15 9 4 9 6 -1 6 -8 1 -16 -8 -19 -20
-3 -12 -11 -18 -19 -15 -19 7 -18 1 3 -20 16 -16 16 -16 -4 -10 -13 4 -25 1
-34 -11 -12 -15 -12 -16 1 -8 8 4 4 -5 -10 -21 -14 -15 -18 -23 -9 -16 9 6 19
9 22 5 4 -3 -3 -13 -14 -21 -17 -11 -23 -12 -29 -2 -5 9 -9 9 -14 1 -4 -6 -2
-11 3 -11 6 0 11 -9 11 -21 0 -11 -4 -17 -10 -14 -5 3 -10 1 -10 -4 0 -6 -5
-11 -11 -11 -5 0 -7 4 -4 10 4 6 -1 7 -11 3 -11 -4 -13 -8 -6 -11 7 -2 12 -8
12 -14 0 -6 -6 -8 -14 -5 -7 3 -29 -8 -47 -23 -19 -16 -28 -29 -21 -30 6 0 12
-5 12 -10 0 -6 -8 -10 -17 -8 -13 2 -17 -3 -15 -17 2 -20 -3 -23 -55 -27 -6
-1 -9 -7 -6 -13 3 -9 -5 -11 -26 -9 -17 2 -33 -2 -37 -8 -5 -7 -3 -8 6 -3 9 5
11 4 6 -4 -6 -9 -11 -9 -21 -1 -9 8 -17 4 -30 -16 -16 -25 -16 -27 -1 -21 10
4 15 3 11 -3 -4 -6 -12 -9 -20 -8 -7 2 -23 -8 -34 -21 -15 -17 -21 -20 -21 -9
0 9 7 19 16 22 19 7 14 31 -7 32 -22 1 -39 -16 -39 -40 -1 -20 -2 -20 -15 4
-8 14 -14 19 -15 13 0 -7 -7 -13 -15 -13 -8 0 -15 -7 -15 -15 0 -8 -6 -15 -12
-15 -8 0 -37 -76 -72 -183 -161 -503 -331 -831 -551 -1067 -158 -169 -201
-253 -161 -316 43 -64 172 -71 288 -17 135 64 355 256 499 436 108 134 192
261 354 537 163 277 225 369 320 469 157 165 312 231 542 231 187 0 325 -46
453 -149 126 -101 223 -232 405 -546 242 -419 409 -637 617 -811 177 -148 268
-196 373 -197 94 -1 155 41 155 108 0 54 -47 129 -151 241 -55 60 -124 144
-152 186 -29 43 -56 77 -60 78 -5 0 -5 -6 -2 -12 4 -7 -1 -4 -9 6 -18 23 -21
40 -5 31 6 -4 5 2 -2 13 -12 19 -14 20 -28 3 -20 -21 -58 -17 -40 5 10 12 9
13 -5 8 -10 -4 -16 -1 -16 8 0 8 -11 15 -25 16 -46 3 -54 5 -49 13 2 4 0 10
-6 14 -5 3 -10 1 -10 -4 0 -6 -4 -11 -9 -11 -5 0 -8 11 -7 24 2 19 -4 28 -25
36 -15 7 -32 9 -37 6 -6 -3 -12 1 -16 9 -3 8 -12 15 -21 15 -13 0 -14 4 -5 20
9 16 8 19 -6 13 -11 -4 -15 -2 -11 4 4 6 0 14 -9 17 -21 8 -26 8 -20 -2 3 -5
-1 -9 -9 -9 -10 0 -11 5 -5 17 7 13 4 22 -13 36 l-22 19 19 -22 c19 -23 19
-23 -2 -23 -12 0 -22 5 -22 11 0 6 -7 8 -16 5 -12 -4 -15 -2 -10 9 3 9 0 15
-10 15 -8 0 -13 4 -10 9 3 5 -1 12 -10 15 -8 3 -12 10 -9 16 10 17 -7 11 -22
-8 -8 -9 -12 -11 -8 -4 3 6 0 12 -7 12 -10 0 -10 2 0 8 9 7 8 13 -8 27 -20 18
-21 18 -34 -1 -8 -10 -12 -23 -8 -29 3 -5 -2 -4 -11 4 -9 7 -15 17 -12 21 3 5
-1 11 -7 13 -10 4 -10 6 0 6 6 1 12 6 12 11 0 6 -10 9 -22 6 -20 -3 -49 14
-48 29 1 21 -2 24 -17 18 -10 -3 -15 -3 -11 2 4 4 3 14 -3 21 -7 8 -7 14 1 19
5 3 10 11 10 16 0 6 -6 7 -12 2 -22 -13 -38 -12 -38 3 0 9 -4 13 -8 10 -5 -3
-9 1 -9 8 0 8 9 11 26 8 l26 -5 -27 28 c-16 15 -28 32 -28 37 0 5 -5 6 -11 2
-8 -4 -7 -9 2 -15 11 -7 10 -9 -5 -9 -15 0 -17 5 -12 28 5 21 4 23 -4 10 -6
-9 -17 -15 -25 -12 -8 4 -12 11 -9 16 4 6 0 15 -7 20 -11 8 -10 9 3 4 10 -3
20 0 24 6 4 6 3 8 -4 4 -6 -3 -16 0 -24 7 -7 8 -19 12 -26 9 -6 -2 -12 1 -12
7 0 6 3 10 8 8 4 -1 7 3 7 8 0 6 -8 10 -17 9 -14 0 -15 3 -7 13 9 10 8 13 -4
13 -11 0 -14 7 -11 25 2 14 1 25 -3 24 -15 -2 -53 13 -53 22 0 5 -8 5 -17 2
-16 -6 -16 -5 -4 11 12 15 12 17 0 14 -8 -2 -13 2 -12 9 4 18 -15 63 -26 63
-6 0 -8 -8 -5 -17 5 -15 4 -15 -6 1 -10 14 -10 20 0 26 8 5 4 15 -16 34 -16
14 -32 26 -35 26 -4 0 -5 9 -2 20 3 11 10 17 15 14 5 -3 7 -12 4 -19 -3 -9 2
-11 15 -8 19 5 19 6 -1 20 -11 8 -18 19 -14 24 3 5 2 9 -3 8 -31 -5 -36 3 -15
21 21 18 22 21 9 35 -9 8 -18 11 -21 6 -4 -5 0 -11 6 -14 7 -2 10 -8 6 -12 -4
-4 -15 -2 -23 5 -11 9 -13 16 -5 24 5 5 10 17 10 26 0 13 -2 13 -10 0 -8 -12
-10 -12 -16 3 -3 9 -15 17 -25 17 -10 0 -19 4 -19 10 0 5 7 7 16 3 14 -5 15
-3 5 15 -7 14 -8 23 -1 27 6 4 10 3 9 -2 -4 -15 13 -43 22 -37 5 3 7 10 4 15
-9 14 2 11 19 -7 23 -22 20 -1 -4 29 -19 23 -41 29 -56 15 -10 -11 -34 3 -34
20 0 13 2 13 13 -3 10 -12 16 -14 21 -7 4 7 2 12 -5 12 -8 0 -7 5 3 13 15 10
15 16 3 42 -10 22 -14 25 -14 11 -1 -15 -3 -16 -16 -6 -11 9 -13 15 -5 20 7 4
11 10 11 14 -2 17 0 16 18 -5 18 -22 19 -22 29 -3 7 14 6 22 -3 31 -7 6 -15
10 -18 7 -2 -3 -7 2 -11 11 -5 13 -1 15 16 9 17 -5 20 -3 14 11 -5 13 -2 16 9
11 9 -3 14 -2 10 3 -3 5 1 12 7 14 10 4 10 6 1 6 -7 1 -13 9 -13 18 0 14 -3
14 -12 5 -10 -10 -10 -15 -1 -20 9 -6 6 -11 -8 -20 -18 -12 -20 -11 -15 5 3
10 1 25 -4 33 -5 8 -5 19 0 25 6 7 4 21 -4 36 -14 27 -4 75 13 64 5 -3 13 0
17 6 4 8 3 9 -4 5 -7 -4 -12 -1 -12 6 0 8 -5 6 -11 -4 -14 -26 -32 -23 -19 2
13 23 4 44 -13 33 -7 -4 -5 1 3 11 23 28 21 46 -5 46 -12 0 -25 7 -29 15 -3 8
-2 15 3 15 5 0 7 11 6 25 -3 26 10 35 18 13 3 -10 8 -10 18 1 9 9 9 11 2 7 -8
-5 -13 -1 -13 10 0 13 3 14 13 5 8 -6 18 -7 23 -3 4 4 2 -1 -5 -11 -17 -22
-11 -29 28 -32 26 -2 28 0 18 16 -10 16 -12 16 -23 1 -10 -14 -12 -10 -11 22
2 27 -3 40 -13 43 -13 4 -13 3 0 -6 8 -5 11 -13 8 -16 -10 -10 -28 4 -28 21 0
8 -4 12 -10 9 -5 -3 -10 0 -10 7 0 10 -2 10 -9 -1 -5 -8 -6 -21 -3 -30 5 -14
4 -14 -12 -1 -11 8 -14 16 -7 18 17 6 13 22 -6 22 -15 0 -16 2 -3 10 8 5 10
10 3 10 -6 0 -9 9 -6 21 6 21 7 21 19 4 8 -10 17 -16 21 -12 11 12 -29 48 -41
38 -8 -7 -11 1 -10 25 1 19 -2 32 -7 29 -4 -3 -6 -12 -3 -19 3 -7 -2 -19 -11
-26 -8 -7 -15 -9 -15 -4 0 4 -6 -1 -14 -11 -8 -11 -12 -24 -9 -28 3 -5 -4 -3
-15 4 -24 15 -18 46 12 60 18 9 19 8 6 -3 -18 -15 -24 -38 -11 -38 10 0 21 27
20 44 0 5 5 13 13 18 10 6 8 8 -6 6 -13 -2 -22 4 -25 17 -3 11 -12 21 -20 23
-12 3 -12 1 0 -14z m-11 -71 c0 -8 -5 -11 -10 -8 -6 4 -8 11 -5 16 4 5 -1 9
-9 9 -10 0 -16 9 -16 22 l0 21 20 -23 c11 -13 20 -29 20 -37z m100 -43 c0 -5
-5 -12 -10 -15 -6 -4 -7 -11 -4 -17 4 -6 1 -9 -6 -6 -14 4 -22 36 -14 49 6 10
34 0 34 -11z m-172 -15 c-3 -3 -9 2 -12 12 -6 14 -5 15 5 6 7 -7 10 -15 7 -18z
m-335 -30 c-3 -9 -8 -14 -10 -11 -3 3 -2 9 2 15 9 16 15 13 8 -4z m-123 -49
c-14 -14 -22 -2 -14 18 5 14 9 15 15 4 4 -7 4 -17 -1 -22z m646 -5 c1 -14 -2
-18 -10 -12 -6 4 -21 7 -34 6 -20 -2 -21 0 -6 16 20 23 49 18 50 -10z m25
-140 c-5 -9 -11 -23 -15 -31 -3 -8 -4 -4 0 10 3 14 6 34 5 45 0 15 2 17 9 5 5
-7 5 -21 1 -29z m24 -31 c-3 -5 -12 -10 -18 -10 -7 0 -6 4 3 10 19 12 23 12
15 0z m-19 -75 c1 -8 -2 -15 -8 -15 -6 0 -8 6 -5 14 3 7 1 19 -4 25 -6 8 -5 8
3 1 6 -5 13 -17 14 -25z m844 -1319 c0 -2 -7 -7 -16 -10 -8 -3 -12 -2 -9 4 6
10 25 14 25 6z m110 -59 c0 -8 -7 -14 -15 -14 -11 0 -12 4 -4 14 6 7 13 13 15
13 2 0 4 -6 4 -13z m193 -112 c4 -8 2 -17 -3 -20 -6 -4 -10 3 -10 14 0 25 6
27 13 6z"/>
<path d="M2200 2749 c0 -5 5 -7 10 -4 6 3 10 8 10 11 0 2 -4 4 -10 4 -5 0 -10
-5 -10 -11z"/>
<path d="M2450 2703 c0 -9 3 -13 7 -10 3 4 11 0 17 -8 9 -13 13 -12 25 7 7 13
10 20 6 16 -4 -4 -18 -3 -31 2 -19 8 -24 6 -24 -7z"/>
<path d="M2723 2703 c0 -9 4 -10 14 -2 7 6 13 12 13 14 0 1 -6 2 -13 2 -8 0
-14 -6 -14 -14z"/>
<path d="M2830 2706 c0 -2 8 -10 18 -17 15 -13 16 -12 3 4 -13 16 -21 21 -21
13z"/>
<path d="M1870 2692 c0 -8 9 -16 20 -19 20 -5 28 -23 10 -23 -5 0 -10 -7 -10
-15 0 -17 25 -20 35 -5 3 6 2 10 -3 10 -5 0 -8 12 -6 26 2 20 -1 24 -13 19 -9
-3 -20 0 -25 7 -6 10 -8 10 -8 0z"/>
<path d="M2524 2692 c3 -6 -2 -13 -11 -15 -14 -4 -13 -5 5 -6 23 -1 30 13 10
25 -6 4 -8 3 -4 -4z"/>
<path d="M2745 2691 c-3 -5 -2 -12 3 -15 5 -3 9 1 9 9 0 17 -3 19 -12 6z"/>
<path d="M2937 2679 c7 -7 15 -10 18 -7 3 3 -2 9 -12 12 -14 6 -15 5 -6 -5z"/>
<path d="M2573 2584 c4 -4 1 -14 -6 -22 -10 -13 -9 -14 11 -3 27 14 27 17 5
25 -10 4 -14 4 -10 0z"/>
<path d="M2610 2549 c0 -5 5 -7 10 -4 6 3 10 8 10 11 0 2 -4 4 -10 4 -5 0 -10
-5 -10 -11z"/>
<path d="M2535 2310 c-3 -6 1 -7 9 -4 18 7 21 14 7 14 -6 0 -13 -4 -16 -10z"/>
<path d="M2587 2146 c-4 -10 -6 -19 -5 -20 2 -1 12 -8 23 -16 18 -13 19 -13 9
0 -7 8 -14 24 -16 35 -3 19 -4 19 -11 1z"/>
<path d="M2561 2086 c-8 -10 -9 -16 -1 -21 5 -3 10 0 10 9 0 8 6 17 13 19 7 4
8 6 1 6 -6 1 -17 -5 -23 -13z"/>
<path d="M2586 2072 c-2 -4 4 -8 14 -8 10 0 16 4 14 8 -3 4 -9 8 -14 8 -5 0
-11 -4 -14 -8z"/>
<path d="M2565 2040 c-3 -5 -1 -10 4 -10 6 0 11 5 11 10 0 6 -2 10 -4 10 -3 0
-8 -4 -11 -10z"/>
<path d="M1130 2008 c0 -4 4 -8 9 -8 6 0 12 4 15 8 3 5 -1 9 -9 9 -8 0 -15 -4
-15 -9z"/>
<path d="M1056 1947 c3 -10 9 -15 12 -12 3 3 0 11 -7 18 -10 9 -11 8 -5 -6z"/>
<path d="M1080 1944 c0 -8 5 -12 10 -9 6 4 8 11 5 16 -9 14 -15 11 -15 -7z"/>
<path d="M980 1918 c0 -9 -6 -19 -12 -21 -10 -4 -10 -6 0 -6 14 -1 28 26 18
36 -3 4 -6 -1 -6 -9z"/>
<path d="M2623 1885 c0 -8 4 -15 9 -15 4 0 8 4 8 9 0 6 -4 12 -8 15 -5 3 -9
-1 -9 -9z"/>
<path d="M3087 1175 c-4 -8 -2 -17 3 -20 6 -4 10 0 10 9 0 8 6 17 13 19 7 4 6
6 -4 6 -9 1 -19 -6 -22 -14z"/>
</g>
</svg>
