<svg xmlns="http://www.w3.org/2000/svg" width="540" height="540" viewBox="0 0 540 540">
<g>
<path d="M 94.48 453.34 C80.40,458.26 68.00,454.36 68.00,445.01 C68.00,438.80 72.13,431.87 82.24,421.16 C106.67,395.25 121.25,368.20 138.62,316.50 C142.14,306.05 145.46,296.72 146.00,295.76 C146.55,294.81 147.00,293.10 147.00,291.96 C147.00,290.82 148.35,287.17 150.00,283.84 C151.65,280.52 153.00,277.01 153.00,276.05 C153.00,273.41 155.72,268.50 158.77,265.65 C160.27,264.25 164.44,260.26 168.03,256.80 C171.63,253.33 176.61,248.94 179.11,247.04 C181.61,245.14 184.75,242.09 186.08,240.26 C187.41,238.42 189.75,236.25 191.27,235.42 C192.80,234.60 196.17,231.94 198.77,229.51 C207.84,221.04 211.58,218.25 223.48,211.07 C234.77,204.24 235.99,203.75 244.98,202.39 C250.21,201.59 258.48,201.04 263.35,201.15 C271.14,201.34 272.98,201.76 278.79,204.68 C282.42,206.51 285.75,208.00 286.20,208.00 C288.43,208.00 316.88,225.52 318.32,227.78 C318.76,228.48 320.90,230.17 323.05,231.53 C326.67,233.82 329.75,236.30 335.43,241.50 C338.60,244.40 344.10,248.34 347.11,249.87 C348.55,250.60 353.05,253.91 357.11,257.24 C361.18,260.56 366.28,264.46 368.45,265.89 C370.63,267.33 373.54,269.54 374.92,270.82 C376.31,272.09 378.72,273.39 380.28,273.71 C382.57,274.16 383.76,275.57 386.52,281.04 C388.40,284.76 390.31,287.97 390.77,288.15 C391.23,288.34 394.21,296.60 397.38,306.50 C406.59,335.25 413.75,353.45 423.52,373.00 C428.10,382.14 437.09,397.24 439.90,400.50 C440.85,401.60 442.33,403.62 443.18,405.00 C444.03,406.38 449.07,412.15 454.39,417.84 C466.08,430.33 469.98,436.65 469.99,443.12 C470.01,451.76 463.52,455.85 451.71,454.62 C440.21,453.43 426.42,444.39 406.64,425.08 C388.92,407.77 375.98,390.01 357.02,357.00 C332.35,314.04 321.35,300.84 302.50,291.53 C290.70,285.71 279.43,283.52 265.50,284.36 C243.81,285.66 230.97,291.81 215.22,308.45 C205.67,318.54 199.39,327.86 180.55,359.93 C161.25,392.77 147.60,411.46 131.85,426.56 C118.49,439.38 103.30,450.26 94.48,453.34 Z" fill="rgb(58,138,240)"/>
<path d="M 400.68 316.62 C399.61,313.39 398.51,310.03 397.38,306.50 C394.21,296.60 391.23,288.34 390.77,288.15 C390.31,287.97 388.40,284.76 386.52,281.04 C383.76,275.57 382.57,274.16 380.28,273.71 C378.72,273.39 376.31,272.09 374.92,270.82 C373.54,269.54 370.63,267.33 368.45,265.89 C366.28,264.46 361.18,260.56 357.11,257.24 C353.05,253.91 348.55,250.60 347.11,249.87 C344.10,248.34 338.60,244.40 335.43,241.50 C329.75,236.30 326.67,233.82 323.05,231.53 C320.90,230.17 318.76,228.48 318.32,227.78 C316.88,225.52 288.43,208.00 286.20,208.00 C285.75,208.00 282.42,206.51 278.79,204.68 C272.98,201.76 271.14,201.34 263.35,201.15 C258.48,201.04 250.21,201.59 244.98,202.39 C235.99,203.75 234.77,204.24 223.48,211.07 C211.58,218.25 207.84,221.04 198.77,229.51 C196.17,231.94 192.80,234.60 191.27,235.42 C189.75,236.25 187.41,238.42 186.08,240.26 C184.75,242.09 181.61,245.14 179.11,247.04 C176.61,248.94 171.63,253.33 168.03,256.80 C164.44,260.26 160.27,264.25 158.77,265.65 C155.72,268.50 153.00,273.41 153.00,276.05 C153.00,277.01 151.65,280.52 150.00,283.84 C148.87,286.12 147.88,288.55 147.37,290.23 C148.93,283.40 155.41,259.91 165.57,224.27 C174.31,193.61 184.61,163.28 189.00,155.26 L 191.06 151.50 L 190.45 154.75 C189.68,158.87 190.31,158.86 199.31,154.61 C208.95,150.06 219.82,148.53 237.15,149.30 C250.61,149.89 264.93,152.39 272.73,155.51 C279.66,158.28 306.93,173.78 313.29,178.56 C316.54,181.00 319.57,183.00 320.03,183.00 C320.49,183.00 324.61,185.85 329.18,189.33 C333.76,192.82 340.20,197.42 343.50,199.55 C349.28,203.30 355.31,207.93 359.50,211.84 C363.92,215.96 369.88,217.00 370.07,213.68 C370.15,212.34 373.32,223.14 384.98,264.50 C390.87,285.38 395.92,302.23 400.68,316.62 Z" fill="rgb(115,142,167)"/>
<path d="M 378.47 241.50 C372.08,218.99 370.13,212.63 370.07,213.68 C369.88,217.00 363.92,215.96 359.50,211.84 C355.31,207.93 349.28,203.30 343.50,199.55 C340.20,197.42 333.76,192.82 329.18,189.33 C324.61,185.85 320.49,183.00 320.03,183.00 C319.57,183.00 316.54,181.00 313.29,178.56 C306.93,173.78 279.66,158.28 272.73,155.51 C264.93,152.39 250.61,149.89 237.15,149.30 C219.82,148.53 208.95,150.06 199.31,154.61 C190.31,158.86 189.68,158.87 190.45,154.75 L 191.06 151.50 L 189.00 155.26 C187.47,158.06 185.22,163.57 182.57,170.86 C185.28,163.39 187.64,157.51 189.39,154.04 C190.65,151.54 193.13,146.35 194.92,142.50 C207.84,114.57 226.36,95.22 247.03,88.07 C267.10,81.12 290.48,84.15 308.01,95.98 C315.29,100.89 325.55,110.87 329.73,117.11 C348.02,144.44 358.94,171.59 375.53,231.00 C376.54,234.61 377.52,238.10 378.47,241.50 ZM 400.38 315.70 C395.70,301.51 390.74,284.93 384.98,264.50 L 384.50 262.81 C390.82,284.93 395.87,301.85 400.38,315.70 Z" fill="rgb(207,124,78)"/>
<path d="M 0.00 270.00 L 0.00 0.00 L 270.00 0.00 L 540.00 0.00 L 540.00 270.00 L 540.00 540.00 L 270.00 540.00 L 0.00 540.00 L 0.00 270.00 ZM 94.48 453.34 C103.30,450.26 118.49,439.38 131.85,426.56 C147.60,411.46 161.25,392.77 180.55,359.93 C199.39,327.86 205.67,318.54 215.22,308.45 C230.97,291.81 243.81,285.66 265.50,284.36 C279.43,283.52 290.70,285.71 302.50,291.53 C321.35,300.84 332.35,314.04 357.02,357.00 C375.98,390.01 388.92,407.77 406.64,425.08 C426.42,444.39 440.21,453.43 451.71,454.62 C463.52,455.85 470.01,451.76 469.99,443.12 C469.98,436.65 466.08,430.33 454.39,417.84 C449.07,412.15 444.03,406.38 443.18,405.00 C442.33,403.62 440.85,401.60 439.90,400.50 C437.09,397.24 428.10,382.14 423.52,373.00 C407.78,341.53 399.88,318.14 375.53,231.00 C358.94,171.59 348.02,144.44 329.73,117.11 C325.55,110.87 315.29,100.89 308.01,95.98 C290.48,84.15 267.10,81.12 247.03,88.07 C226.36,95.22 207.84,114.57 194.92,142.50 C193.13,146.35 190.65,151.54 189.39,154.04 C184.36,164.02 174.24,193.86 165.57,224.27 C153.82,265.47 147.00,290.43 147.00,292.19 C147.00,293.20 146.55,294.81 146.00,295.76 C145.46,296.72 142.14,306.05 138.62,316.50 C121.25,368.20 106.67,395.25 82.24,421.16 C72.13,431.87 68.00,438.80 68.00,445.01 C68.00,454.36 80.40,458.26 94.48,453.34 Z" fill="rgb(254,254,254)"/>
</g>
</svg>