<svg width="24" height="24" viewBox="0 0 24 24" fill="none" xmlns="http://www.w3.org/2000/svg">
<path fill-rule="evenodd" clip-rule="evenodd" d="M11.9977 0C10.9293 2.61948 10.2849 4.33293 9.09535 6.87455C9.8247 7.64765 10.7199 8.54796 12.1738 9.56478C10.6107 8.9216 9.54456 8.27587 8.74779 7.60578C7.2254 10.7825 4.84025 15.3076 0 24.0045C3.80427 21.8082 6.75327 20.4542 9.5016 19.9375C9.38359 19.43 9.31648 18.8809 9.32104 18.308L9.32556 18.1862C9.38594 15.7489 10.6538 13.8746 12.1557 14.0019C13.6577 14.1291 14.8251 16.2093 14.7647 18.6466C14.7534 19.1052 14.7016 19.5464 14.6112 19.9556C17.3297 20.4874 20.2472 21.8379 24 24.0045C23.26 22.6421 22.5995 21.4141 21.9688 20.2445C20.9753 19.4744 19.939 18.4722 17.8251 17.3872C19.278 17.7648 20.3183 18.2003 21.1292 18.6872C14.7162 6.74735 14.1969 5.16079 11.9977 0Z" fill="#050505"/>
<path fill-rule="evenodd" clip-rule="evenodd" d="M11.9977 0C10.9293 2.61948 10.2849 4.33293 9.09535 6.87455C9.8247 7.64765 10.7199 8.54796 12.1738 9.56478C10.6107 8.9216 9.54456 8.27587 8.74779 7.60578C7.2254 10.7825 4.84025 15.3076 0 24.0045C3.80427 21.8082 6.75327 20.4542 9.5016 19.9375C9.38359 19.43 9.31648 18.8809 9.32104 18.308L9.32556 18.1862C9.38594 15.7489 10.6538 13.8746 12.1557 14.0019C13.6577 14.1291 14.8251 16.2093 14.7647 18.6466C14.7534 19.1052 14.7016 19.5464 14.6112 19.9556C17.3297 20.4874 20.2472 21.8379 24 24.0045C23.26 22.6421 22.5995 21.4141 21.9688 20.2445C20.9753 19.4744 19.939 18.4722 17.8251 17.3872C19.278 17.7648 20.3183 18.2003 21.1292 18.6872C14.7162 6.74735 14.1969 5.16079 11.9977 0Z" fill="white"/>
</svg>
