<svg width="24" height="24" viewBox="0 0 24 24" fill="none" xmlns="http://www.w3.org/2000/svg">
<path fill-rule="evenodd" clip-rule="evenodd" d="M11.62 2.04604C11.412 2.15304 4.27502 9.27204 4.12702 9.52004C4.03302 9.67704 4.02002 9.74304 4.02002 10.04C4.02002 10.328 4.03502 10.407 4.12002 10.558C4.23002 10.755 4.41402 10.898 4.63502 10.959C4.72102 10.983 5.43502 11 6.38902 11H7.99802L8.00902 15.93L8.02002 20.86L8.14402 21.12C8.30102 21.45 8.55002 21.699 8.88002 21.856L9.14002 21.98H12H14.86L15.12 21.856C15.45 21.699 15.699 21.45 15.856 21.12L15.98 20.86L15.991 15.932L16.002 11.003L17.651 10.992L19.3 10.98L19.486 10.871C19.964 10.589 20.17 10.056 19.961 9.63704C19.839 9.39404 12.614 2.16504 12.372 2.04404C12.151 1.93404 11.836 1.93504 11.62 2.04604ZM14.297 6.71704L16.574 8.99504L15.616 9.00704C14.678 9.02004 14.653 9.02204 14.459 9.12204C14.245 9.23304 14.105 9.40404 14.041 9.63504C14.015 9.72904 14 11.59 14 14.89V20H12.001H10.001L9.99102 14.81L9.98002 9.62004L9.89102 9.45304C9.84202 9.36204 9.74602 9.24704 9.67802 9.19904C9.43902 9.02804 9.24302 9.00004 8.30402 9.00004H7.42002L9.70002 6.72004C10.954 5.46604 11.989 4.44004 12 4.44004C12.011 4.44004 13.045 5.46504 14.297 6.71704Z" fill="#FF0000"/>
</svg>
