<svg width="16" height="16" viewBox="0 0 16 16" fill="none" xmlns="http://www.w3.org/2000/svg">
<path d="M3.33366 8.66699C3.14477 8.66699 2.98644 8.6031 2.85866 8.47533C2.73088 8.34755 2.66699 8.18921 2.66699 8.00033C2.66699 7.81144 2.73088 7.6531 2.85866 7.52533C2.98644 7.39755 3.14477 7.33366 3.33366 7.33366H7.73366L11.067 4.00033H10.0003C9.81144 4.00033 9.6531 3.93644 9.52533 3.80866C9.39755 3.68088 9.33366 3.52255 9.33366 3.33366C9.33366 3.14477 9.39755 2.98644 9.52533 2.85866C9.6531 2.73088 9.81144 2.66699 10.0003 2.66699H12.667C12.8559 2.66699 13.0142 2.73088 13.142 2.85866C13.2698 2.98644 13.3337 3.14477 13.3337 3.33366V6.00033C13.3337 6.18921 13.2698 6.34755 13.142 6.47533C13.0142 6.6031 12.8559 6.66699 12.667 6.66699C12.4781 6.66699 12.3198 6.6031 12.192 6.47533C12.0642 6.34755 12.0003 6.18921 12.0003 6.00033V4.93366L8.65033 8.28366C8.5281 8.40588 8.38644 8.50033 8.22533 8.56699C8.06421 8.63366 7.89477 8.66699 7.71699 8.66699H3.33366ZM10.0003 13.3337C9.81144 13.3337 9.6531 13.2698 9.52533 13.142C9.39755 13.0142 9.33366 12.8559 9.33366 12.667C9.33366 12.4781 9.39755 12.3198 9.52533 12.192C9.6531 12.0642 9.81144 12.0003 10.0003 12.0003H11.067L9.41699 10.367C9.28366 10.2337 9.21699 10.0753 9.21699 9.89199C9.21699 9.70866 9.28366 9.55032 9.41699 9.41699C9.55032 9.28366 9.71144 9.21699 9.90033 9.21699C10.0892 9.21699 10.2503 9.28366 10.3837 9.41699L12.0003 11.067V10.0003C12.0003 9.81144 12.0642 9.6531 12.192 9.52533C12.3198 9.39755 12.4781 9.33366 12.667 9.33366C12.8559 9.33366 13.0142 9.39755 13.142 9.52533C13.2698 9.6531 13.3337 9.81144 13.3337 10.0003V12.667C13.3337 12.8559 13.2698 13.0142 13.142 13.142C13.0142 13.2698 12.8559 13.3337 12.667 13.3337H10.0003Z" fill="white"/>
</svg>
