<svg width="16" height="16" viewBox="0 0 16 16" fill="none" xmlns="http://www.w3.org/2000/svg">
<path fill-rule="evenodd" clip-rule="evenodd" d="M7.74266 2.03803C7.58466 2.08736 7.47466 2.17403 7.40599 2.30203L7.34666 2.41336L7.33999 7.06603L7.33266 11.718L5.84666 10.2354C4.86266 9.25403 4.32199 8.73336 4.24799 8.69603C4.01332 8.5787 3.75932 8.63936 3.53266 8.86603C3.30132 9.09736 3.24199 9.34003 3.35999 9.57536C3.40132 9.65803 4.01932 10.2967 5.42266 11.7074C6.52466 12.8154 7.44932 13.7554 7.47732 13.7974C7.54532 13.9 7.84066 14.0327 7.99999 14.0327C8.15932 14.0327 8.45466 13.9 8.52266 13.7974C8.55066 13.7554 9.47532 12.8154 10.5773 11.7074C11.9807 10.2967 12.5987 9.65803 12.64 9.57536C12.758 9.34003 12.6987 9.09736 12.4673 8.86603C12.2407 8.63936 11.9867 8.5787 11.752 8.69603C11.678 8.73336 11.1373 9.25403 10.154 10.2354L8.66732 11.718L8.66066 7.06603L8.65332 2.41336L8.59399 2.30203C8.56132 2.24136 8.49732 2.1647 8.45199 2.1327C8.27599 2.0067 7.97132 1.9667 7.74266 2.03803Z" fill="white"/>
</svg>
