<svg width="17" height="16" viewBox="0 0 17 16" fill="none" xmlns="http://www.w3.org/2000/svg">
<path fill-rule="evenodd" clip-rule="evenodd" d="M7.07994 2.69716C6.92128 2.7785 2.10328 7.60383 2.02594 7.75783C1.94928 7.91183 1.94928 8.08783 2.02594 8.24183C2.09861 8.3865 6.83128 13.1398 7.00795 13.2445C7.08461 13.2905 7.17594 13.3172 7.28794 13.3258C7.58328 13.3492 7.80128 13.2505 7.91994 13.0385L7.98661 12.9198L7.99461 11.7938L8.00261 10.6678L11.2879 10.6605L14.5733 10.6532L14.7466 10.5705C14.8419 10.5252 14.9726 10.4352 15.0373 10.3705C15.1019 10.3058 15.1919 10.1752 15.2373 10.0798L15.3199 9.9065V7.99983V6.09316L15.2373 5.91983C15.0953 5.62183 14.8339 5.42116 14.5099 5.3605C14.4179 5.34316 13.2226 5.33316 11.1839 5.33316H8.00195L7.99461 4.23316L7.98661 3.13316L7.91395 3.00916C7.83861 2.88183 7.70528 2.7605 7.55461 2.68316C7.43594 2.6225 7.21194 2.62916 7.07994 2.69716ZM6.74661 6.37183C6.81994 6.50316 6.94261 6.5985 7.08994 6.63916C7.15261 6.6565 8.39328 6.6665 10.5933 6.6665H13.9999V7.99983V9.33316H10.6039C6.96328 9.33316 7.07261 9.32916 6.88128 9.46583C6.83594 9.49783 6.77194 9.5745 6.73928 9.63516C6.68395 9.73916 6.67928 9.78916 6.66661 10.3932L6.65328 11.0405L5.13328 9.51983L3.61328 7.99983L5.13328 6.47983L6.65328 4.95916L6.66661 5.6065C6.67928 6.2345 6.68194 6.2565 6.74661 6.37183Z" fill="white"/>
</svg>
