<svg width="22" height="22" viewBox="0 0 22 22" fill="none" xmlns="http://www.w3.org/2000/svg">
<path fill-rule="evenodd" clip-rule="evenodd" d="M10.2802 0.0107821C10.2032 0.0197821 9.95121 0.0467821 9.72021 0.0707821C8.21621 0.230782 6.64421 0.768782 5.30321 1.58278C3.89421 2.43778 2.55521 3.75678 1.66121 5.16778C1.37721 5.61678 0.893205 6.60178 0.701205 7.12078C-0.162795 9.46278 -0.229795 11.9608 0.508205 14.2878C1.26421 16.6738 2.83021 18.7598 4.90021 20.1388C5.53221 20.5598 5.80721 20.6878 6.07421 20.6838C6.19821 20.6818 6.35621 20.6518 6.42421 20.6158C6.72421 20.4608 7.04021 19.9218 7.04021 19.5658C7.04021 19.2218 6.89521 19.0478 6.27121 18.6428C5.35821 18.0498 4.80721 17.5808 4.21421 16.8918C3.28021 15.8068 2.55021 14.3938 2.24721 13.0878C2.08021 12.3638 2.02521 11.8448 2.02421 10.9878C2.02221 9.49778 2.27921 8.36778 2.92021 7.04778C3.79921 5.23478 5.24721 3.78678 7.06021 2.90778C8.37921 2.26778 9.50721 2.01078 11.0002 2.01078C12.4932 2.01078 13.6212 2.26778 14.9402 2.90778C16.7532 3.78678 18.2012 5.23478 19.0802 7.04778C19.7212 8.36778 19.9782 9.49778 19.9762 10.9878C19.9752 12.5148 19.6952 13.7168 19.0372 15.0178C18.2922 16.4928 17.2732 17.6228 15.8282 18.5758C15.0942 19.0588 14.9602 19.2118 14.9602 19.5658C14.9602 19.9218 15.2762 20.4608 15.5762 20.6158C15.6442 20.6518 15.8022 20.6818 15.9262 20.6838C16.1932 20.6878 16.4682 20.5598 17.1002 20.1388C20.1302 18.1198 21.9982 14.6548 21.9992 11.0478C22.0012 8.59678 21.2462 6.33278 19.7672 4.34778C19.3172 3.74278 18.2472 2.67378 17.6402 2.22278C16.0452 1.03678 14.3652 0.347782 12.4232 0.0837821C12.0002 0.0257821 10.5742 -0.0222179 10.2802 0.0107821ZM10.5302 6.07078C10.3932 6.13778 10.2492 6.23978 10.2102 6.29878C10.1722 6.35678 9.2372 7.31478 8.1342 8.42678C6.7662 9.80578 6.10121 10.5038 6.04021 10.6248C5.86321 10.9768 5.95221 11.3418 6.29921 11.6888C6.64621 12.0358 7.01121 12.1248 7.36321 11.9478C7.47921 11.8888 7.96121 11.4398 8.76921 10.6348L9.9992 9.41178L10.0092 15.3898L10.0202 21.3678L10.1062 21.5278C10.2852 21.8628 10.4962 21.9658 11.0002 21.9658C11.5042 21.9658 11.7152 21.8628 11.8942 21.5278L11.9802 21.3678L11.9912 15.3898L12.0012 9.41178L13.2312 10.6348C14.0392 11.4398 14.5212 11.8888 14.6372 11.9478C14.9892 12.1248 15.3542 12.0358 15.7012 11.6888C16.0482 11.3418 16.1372 10.9768 15.9602 10.6248C15.8992 10.5038 15.2342 9.80578 13.8662 8.42678C12.7632 7.31478 11.8282 6.35678 11.7892 6.29778C11.7512 6.23978 11.6042 6.13678 11.4642 6.06978C11.1202 5.90578 10.8712 5.90578 10.5302 6.07078Z" fill="#FF0000"/>
</svg>
