<svg width="24" height="24" viewBox="0 0 24 24" fill="none" xmlns="http://www.w3.org/2000/svg">
<path fill-rule="evenodd" clip-rule="evenodd" d="M11.626 4.04492C11.42 4.15392 11.146 4.43292 11.038 4.64392C10.924 4.86692 10.924 5.13192 11.039 5.36292C11.102 5.48692 11.942 6.35592 13.853 8.26992L16.579 10.9999H10.696C4.38402 10.9999 4.61102 10.9929 4.32202 11.1989C4.10002 11.3569 4.02002 11.5679 4.02002 11.9999C4.02002 12.3309 4.03302 12.4029 4.12002 12.5579C4.23002 12.7549 4.41402 12.8979 4.63502 12.9589C4.72902 12.9849 6.85102 12.9999 10.679 12.9999H16.579L13.853 15.7299C11.942 17.6439 11.102 18.5129 11.039 18.6369C10.863 18.9899 10.952 19.3539 11.299 19.7009C11.646 20.0479 12.01 20.1369 12.363 19.9609C12.488 19.8979 13.577 18.8399 16.061 16.3659C17.997 14.4379 19.633 12.8259 19.696 12.7839C19.85 12.6819 20.049 12.2389 20.049 11.9999C20.049 11.7439 19.851 11.3209 19.676 11.2009C19.601 11.1499 17.965 9.53792 16.04 7.61792C13.675 5.25892 12.485 4.10092 12.372 4.04392C12.152 3.93392 11.835 3.93492 11.626 4.04492Z" fill="white"/>
</svg>
