<svg width="24" height="24" viewBox="0 0 24 24" fill="none" xmlns="http://www.w3.org/2000/svg">
<path fill-rule="evenodd" clip-rule="evenodd" d="M11.62 4.04606C11.521 4.09706 10.129 5.45606 7.96005 7.61806C6.03505 9.53806 4.39905 11.1501 4.32405 11.2011C4.14905 11.3211 3.95105 11.7441 3.95105 12.0001C3.95105 12.2391 4.15005 12.6821 4.30405 12.7841C4.36705 12.8261 6.00305 14.4381 7.93905 16.3661C10.423 18.8401 11.512 19.8981 11.637 19.9611C11.99 20.1371 12.354 20.0481 12.701 19.7011C13.048 19.3541 13.137 18.9901 12.9611 18.6371C12.8981 18.5131 12.0581 17.6441 10.147 15.7301L7.42105 13.0001H13.321C17.149 13.0001 19.271 12.9851 19.365 12.9591C19.586 12.8981 19.77 12.7551 19.88 12.5581C19.967 12.4021 19.98 12.3321 19.979 12.0001C19.9781 11.5671 19.898 11.3551 19.678 11.1991C19.389 10.9931 19.616 11.0001 13.304 11.0001H7.42105L10.147 8.27006C12.0581 6.35606 12.8981 5.48706 12.9611 5.36306C13.137 5.01006 13.048 4.64606 12.701 4.29906C12.361 3.95906 11.967 3.86706 11.62 4.04606Z" fill="white"/>
</svg>
