<svg width="16" height="16" viewBox="0 0 16 16" fill="none" xmlns="http://www.w3.org/2000/svg">
<path fill-rule="evenodd" clip-rule="evenodd" d="M7.68666 2.05667C7.59466 2.10134 7.49866 2.16934 7.47332 2.20801C7.44732 2.24667 6.52466 3.18467 5.42266 4.29267C4.01932 5.70334 3.40132 6.34201 3.35999 6.42467C3.24199 6.66001 3.30132 6.90267 3.53266 7.13401C3.76399 7.36534 4.00666 7.42467 4.24199 7.30667C4.32399 7.26601 4.81599 6.79267 5.84666 5.76467L7.33332 4.28134V8.88067C7.33332 11.8793 7.34266 13.5133 7.36066 13.5767C7.43199 13.8333 7.62466 13.9747 7.93066 13.994C8.25399 14.0147 8.46599 13.9213 8.58666 13.7053L8.65332 13.5867L8.66066 8.93401L8.66732 4.28201L10.154 5.76467C11.184 6.79267 11.676 7.26601 11.758 7.30667C11.9933 7.42467 12.236 7.36534 12.4673 7.13401C12.6987 6.90267 12.758 6.66001 12.64 6.42467C12.5987 6.34201 11.9807 5.70334 10.5773 4.29267C9.47532 3.18467 8.55266 2.24667 8.52666 2.20801C8.50132 2.16934 8.40266 2.10067 8.30666 2.05534C8.07532 1.94601 7.91532 1.94667 7.68666 2.05667Z" fill="white"/>
</svg>
