<svg width="24" height="24" viewBox="0 0 24 24" fill="none" xmlns="http://www.w3.org/2000/svg">
<path fill-rule="evenodd" clip-rule="evenodd" d="M11.2801 1.02399C11.2031 1.03299 10.9601 1.05899 10.7401 1.08299C7.4311 1.43699 4.3501 3.41099 2.5951 6.30299C1.8511 7.52799 1.3421 8.93899 1.1141 10.406C0.994102 11.175 0.984102 12.724 1.0931 13.46C1.4031 15.539 2.1761 17.33 3.4521 18.92C3.8971 19.474 4.7901 20.338 5.3641 20.769C7.9291 22.695 11.1211 23.411 14.2531 22.762C15.7041 22.461 17.1251 21.845 18.3201 20.998C18.9551 20.548 19.1201 20.337 19.1201 19.972C19.1201 19.727 18.9841 19.444 18.7541 19.207C18.4811 18.927 18.2261 18.838 17.9291 18.918C17.8381 18.942 17.4881 19.146 17.1511 19.371C16.4411 19.844 15.9991 20.083 15.3651 20.338C13.8751 20.937 12.2021 21.137 10.6651 20.899C8.7401 20.602 6.9701 19.7 5.6111 18.322C4.2491 16.943 3.3891 15.206 3.0931 13.24C2.9981 12.61 2.9981 11.386 3.0941 10.76C3.5361 7.84699 5.2141 5.44399 7.7611 4.07299C8.6371 3.60199 9.5421 3.29799 10.6201 3.11399C11.3121 2.99699 12.5881 2.98699 13.2801 3.09499C15.4631 3.43599 17.3491 4.46599 18.7811 6.09999C19.9191 7.39899 20.6471 8.99099 20.9031 10.739C20.9851 11.301 21.0251 12.981 20.9651 13.34C20.8961 13.748 20.7141 14.092 20.4031 14.404C20.0021 14.807 19.5471 15 19.0001 15C18.3171 15 17.6951 14.654 17.3121 14.063C17.0111 13.597 17.0251 13.756 17.0011 10.52L16.9801 7.61999L16.8801 7.44199C16.8161 7.32799 16.7091 7.21899 16.5831 7.14199C16.3991 7.02799 16.3611 7.01999 16.0001 7.01999C15.6391 7.01999 15.6011 7.02799 15.4171 7.14199C15.1851 7.28499 15.0471 7.50699 15.0131 7.79299L14.9901 7.99199L14.7251 7.82099C13.9951 7.35099 13.3461 7.12499 12.4701 7.03599C11.7421 6.96199 10.8981 7.06999 10.2481 7.31999C9.0671 7.77399 8.0721 8.67499 7.5261 9.78499C7.1581 10.533 7.0201 11.136 7.0201 12C7.0201 12.67 7.0781 13.044 7.2681 13.6C7.8461 15.291 9.2531 16.525 11.0401 16.907C11.5111 17.008 12.4891 17.008 12.9601 16.907C13.9351 16.698 14.7951 16.244 15.4811 15.575L15.7411 15.321L15.9211 15.546C16.7691 16.615 18.2821 17.179 19.6561 16.94C21.3641 16.642 22.6451 15.353 22.9441 13.63C23.0381 13.09 23.0021 11.164 22.8841 10.4C22.3231 6.76999 20.1031 3.74099 16.8201 2.12299C15.7491 1.59499 14.6631 1.26799 13.4191 1.09899C12.9921 1.03999 11.5611 0.989986 11.2801 1.02399ZM12.8611 9.12899C13.8041 9.40499 14.5841 10.183 14.8751 11.139C14.9581 11.412 14.9731 11.542 14.9731 12C14.9731 12.458 14.9581 12.588 14.8751 12.861C14.5881 13.803 13.8451 14.555 12.8871 14.872C12.6201 14.961 12.5081 14.974 12.0201 14.977C11.5391 14.98 11.4181 14.967 11.1601 14.886C10.1801 14.58 9.4181 13.822 9.1251 12.861C9.0421 12.588 9.0271 12.458 9.0271 12C9.0271 11.542 9.0421 11.412 9.1251 11.139C9.4561 10.054 10.3711 9.24499 11.4991 9.03999C11.8321 8.97999 12.5001 9.02299 12.8611 9.12899Z" fill="#FF0000"/>
</svg>
