<svg width="16" height="16" viewBox="0 0 16 16" fill="none" xmlns="http://www.w3.org/2000/svg">
<path fill-rule="evenodd" clip-rule="evenodd" d="M4.31999 1.46665C2.35932 1.69599 1.23666 3.22598 1.46799 5.35465C1.54999 6.10798 1.85199 7.11999 2.20532 7.82399L2.29799 8.00732L2.17732 8.26398C1.32532 10.0753 1.20799 11.854 1.86332 13.0107C2.59532 14.3027 4.04132 14.8307 5.87999 14.4787C6.43532 14.372 7.12866 14.1427 7.72533 13.8687L8.02333 13.7313L8.18666 13.8133C8.78866 14.1173 9.68466 14.4067 10.3867 14.524C10.7927 14.592 11.6453 14.592 11.986 14.524C13.3627 14.2487 14.2533 13.362 14.52 12C14.5807 11.6907 14.6013 11.0407 14.562 10.6933C14.4733 9.90865 14.2247 9.06132 13.8493 8.26398L13.7287 8.00732L13.808 7.84998C14.1347 7.20332 14.4313 6.27265 14.5373 5.55999C14.5847 5.24599 14.5847 4.36932 14.5373 4.10665C14.394 3.30399 14.0633 2.69465 13.5113 2.21732C13.0987 1.86065 12.6347 1.64199 12.0267 1.51732C11.632 1.43665 10.904 1.42999 10.4267 1.50332C9.76466 1.60532 8.95199 1.85665 8.29866 2.16265L8.01666 2.29465L7.66866 2.13665C6.98533 1.82665 6.26266 1.60465 5.61866 1.50732C5.28466 1.45665 4.58999 1.43465 4.31999 1.46665ZM5.31199 2.81332C5.65466 2.85799 6.04332 2.94932 6.36932 3.05999L6.59266 3.13599L6.22266 3.41265C5.56132 3.90865 4.85999 4.53932 4.32599 5.11999C3.99199 5.48265 3.89399 5.64665 3.89399 5.83999C3.89399 6.18399 4.37532 6.58399 4.69866 6.50932C4.86266 6.47132 4.95732 6.39399 5.35999 5.97065C6.13599 5.15399 7.02466 4.41732 7.80599 3.94199L8.01066 3.81732L8.13199 3.88732C8.99066 4.38132 10.136 5.35465 10.9373 6.27065C11.5333 6.95199 12.2413 7.96198 12.3027 8.21798C12.312 8.25732 12.3487 8.32332 12.3833 8.36465C12.5733 8.59132 12.9573 9.52865 13.1053 10.1287C13.2133 10.566 13.2393 10.7713 13.2387 11.2C13.2387 11.714 13.1933 11.946 13.0227 12.2933C12.8007 12.7473 12.4353 13.0353 11.9053 13.1753C11.326 13.328 10.4473 13.246 9.64666 12.964L9.43933 12.8907L9.79266 12.6253C10.3587 12.1993 10.804 11.81 11.36 11.2533C11.9747 10.6387 12.0853 10.492 12.1007 10.2727C12.114 10.0747 12.0607 9.94932 11.8927 9.78598C11.6627 9.56198 11.412 9.49065 11.184 9.58598C11.126 9.60998 10.8653 9.85265 10.4987 10.2227C9.63999 11.0893 8.95999 11.6427 8.16599 12.1213L8.01533 12.212L7.89466 12.1413C7.01666 11.6313 5.89132 10.674 5.08866 9.75598C4.48199 9.06065 3.81332 8.10532 3.70866 7.78199C3.69132 7.72799 3.65866 7.66865 3.63599 7.64999C3.53599 7.56732 3.21132 6.83465 3.04132 6.30865C2.61399 4.98799 2.70932 3.90265 3.30599 3.30599C3.74532 2.86665 4.43466 2.69732 5.31199 2.81332ZM11.89 2.85332C12.4113 2.97999 12.8007 3.28332 13.024 3.73599C13.1973 4.08732 13.2373 4.29065 13.2367 4.82665C13.2367 5.16532 13.2233 5.33865 13.1787 5.57798C13.126 5.85932 12.9593 6.46532 12.91 6.55265C12.8973 6.57599 12.8033 6.47199 12.6253 6.23465C11.8267 5.17265 10.8547 4.20065 9.80399 3.41265L9.43399 3.13599L9.65733 3.05999C9.95599 2.95799 10.3793 2.85665 10.6907 2.81199C11.0367 2.76199 11.5953 2.78132 11.89 2.85332ZM7.65133 6.71532C7.20399 6.83265 6.82533 7.21532 6.70666 7.67199C6.62733 7.97465 6.66866 8.32799 6.81666 8.61999C6.90733 8.79932 7.20066 9.09265 7.37999 9.18332C7.77266 9.38198 8.22733 9.38198 8.61999 9.18332C8.79733 9.09332 9.09199 8.79999 9.18066 8.62465C9.32933 8.33199 9.36799 8.00465 9.29333 7.68599C9.23866 7.45465 9.14666 7.28465 8.97666 7.10198C8.71599 6.82132 8.37333 6.66999 7.99999 6.66999C7.90466 6.66999 7.74799 6.69065 7.65133 6.71532ZM3.42866 9.82665C4.21732 10.872 5.17933 11.8313 6.23466 12.6253L6.58732 12.8907L6.42066 12.952C5.86799 13.156 5.21799 13.2667 4.69332 13.2453C4.06399 13.2207 3.65266 13.0673 3.31932 12.734C2.80332 12.218 2.65466 11.3873 2.88132 10.2927C2.95332 9.94665 3.11732 9.42665 3.14532 9.45665C3.15732 9.46932 3.28466 9.63598 3.42866 9.82665Z" fill="#121212"/>
<path fill-rule="evenodd" clip-rule="evenodd" d="M4.31999 1.46665C2.35932 1.69599 1.23666 3.22598 1.46799 5.35465C1.54999 6.10798 1.85199 7.11999 2.20532 7.82399L2.29799 8.00732L2.17732 8.26398C1.32532 10.0753 1.20799 11.854 1.86332 13.0107C2.59532 14.3027 4.04132 14.8307 5.87999 14.4787C6.43532 14.372 7.12866 14.1427 7.72533 13.8687L8.02333 13.7313L8.18666 13.8133C8.78866 14.1173 9.68466 14.4067 10.3867 14.524C10.7927 14.592 11.6453 14.592 11.986 14.524C13.3627 14.2487 14.2533 13.362 14.52 12C14.5807 11.6907 14.6013 11.0407 14.562 10.6933C14.4733 9.90865 14.2247 9.06132 13.8493 8.26398L13.7287 8.00732L13.808 7.84998C14.1347 7.20332 14.4313 6.27265 14.5373 5.55999C14.5847 5.24599 14.5847 4.36932 14.5373 4.10665C14.394 3.30399 14.0633 2.69465 13.5113 2.21732C13.0987 1.86065 12.6347 1.64199 12.0267 1.51732C11.632 1.43665 10.904 1.42999 10.4267 1.50332C9.76466 1.60532 8.95199 1.85665 8.29866 2.16265L8.01666 2.29465L7.66866 2.13665C6.98533 1.82665 6.26266 1.60465 5.61866 1.50732C5.28466 1.45665 4.58999 1.43465 4.31999 1.46665ZM5.31199 2.81332C5.65466 2.85799 6.04332 2.94932 6.36932 3.05999L6.59266 3.13599L6.22266 3.41265C5.56132 3.90865 4.85999 4.53932 4.32599 5.11999C3.99199 5.48265 3.89399 5.64665 3.89399 5.83999C3.89399 6.18399 4.37532 6.58399 4.69866 6.50932C4.86266 6.47132 4.95732 6.39399 5.35999 5.97065C6.13599 5.15399 7.02466 4.41732 7.80599 3.94199L8.01066 3.81732L8.13199 3.88732C8.99066 4.38132 10.136 5.35465 10.9373 6.27065C11.5333 6.95199 12.2413 7.96198 12.3027 8.21798C12.312 8.25732 12.3487 8.32332 12.3833 8.36465C12.5733 8.59132 12.9573 9.52865 13.1053 10.1287C13.2133 10.566 13.2393 10.7713 13.2387 11.2C13.2387 11.714 13.1933 11.946 13.0227 12.2933C12.8007 12.7473 12.4353 13.0353 11.9053 13.1753C11.326 13.328 10.4473 13.246 9.64666 12.964L9.43933 12.8907L9.79266 12.6253C10.3587 12.1993 10.804 11.81 11.36 11.2533C11.9747 10.6387 12.0853 10.492 12.1007 10.2727C12.114 10.0747 12.0607 9.94932 11.8927 9.78598C11.6627 9.56198 11.412 9.49065 11.184 9.58598C11.126 9.60998 10.8653 9.85265 10.4987 10.2227C9.63999 11.0893 8.95999 11.6427 8.16599 12.1213L8.01533 12.212L7.89466 12.1413C7.01666 11.6313 5.89132 10.674 5.08866 9.75598C4.48199 9.06065 3.81332 8.10532 3.70866 7.78199C3.69132 7.72799 3.65866 7.66865 3.63599 7.64999C3.53599 7.56732 3.21132 6.83465 3.04132 6.30865C2.61399 4.98799 2.70932 3.90265 3.30599 3.30599C3.74532 2.86665 4.43466 2.69732 5.31199 2.81332ZM11.89 2.85332C12.4113 2.97999 12.8007 3.28332 13.024 3.73599C13.1973 4.08732 13.2373 4.29065 13.2367 4.82665C13.2367 5.16532 13.2233 5.33865 13.1787 5.57798C13.126 5.85932 12.9593 6.46532 12.91 6.55265C12.8973 6.57599 12.8033 6.47199 12.6253 6.23465C11.8267 5.17265 10.8547 4.20065 9.80399 3.41265L9.43399 3.13599L9.65733 3.05999C9.95599 2.95799 10.3793 2.85665 10.6907 2.81199C11.0367 2.76199 11.5953 2.78132 11.89 2.85332ZM7.65133 6.71532C7.20399 6.83265 6.82533 7.21532 6.70666 7.67199C6.62733 7.97465 6.66866 8.32799 6.81666 8.61999C6.90733 8.79932 7.20066 9.09265 7.37999 9.18332C7.77266 9.38198 8.22733 9.38198 8.61999 9.18332C8.79733 9.09332 9.09199 8.79999 9.18066 8.62465C9.32933 8.33199 9.36799 8.00465 9.29333 7.68599C9.23866 7.45465 9.14666 7.28465 8.97666 7.10198C8.71599 6.82132 8.37333 6.66999 7.99999 6.66999C7.90466 6.66999 7.74799 6.69065 7.65133 6.71532ZM3.42866 9.82665C4.21732 10.872 5.17933 11.8313 6.23466 12.6253L6.58732 12.8907L6.42066 12.952C5.86799 13.156 5.21799 13.2667 4.69332 13.2453C4.06399 13.2207 3.65266 13.0673 3.31932 12.734C2.80332 12.218 2.65466 11.3873 2.88132 10.2927C2.95332 9.94665 3.11732 9.42665 3.14532 9.45665C3.15732 9.46932 3.28466 9.63598 3.42866 9.82665Z" fill="#FAF9F6" fill-opacity="0.6"/>
</svg>
