<svg width="24" height="24" viewBox="0 24 512 441" fill="none" xmlns="http://www.w3.org/2000/svg">
<path d="M78.844 464.762c-8.453 0-15.573-1.451-21.359-4.339-5.77-2.888-10.144-7.289-13.076-13.095-2.932-5.807-4.436-12.912-4.436-21.255v-86.028c0-10.605-2.125-18.321-6.329-23.135-4.234-4.798-11.742-7.334-22.507-7.579-3.35 0-6.034-1.253-8.066-3.804C1.008 303.005 0 300.087 0 296.832c0-3.53 1.008-6.448 3.071-8.725 2.048-2.277 4.762-3.53 8.066-3.774 10.765-.26 18.273-2.781 22.507-7.579 4.235-4.798 6.329-12.392 6.329-22.752v-86.028c0-12.637 3.35-22.249 10.005-28.804 6.654-6.555 16.287-9.856 28.866-9.856H181.5c3.862 0 7.042 1.146 9.617 3.408 2.559 2.277 3.862 5.195 3.862 8.694 0 3.301-1.086 6.128-3.257 8.542-2.172 2.414-5.057 3.622-8.671 3.622H87.732c-5.413 0-9.508 1.39-12.316 4.171-2.823 2.781-4.234 7.075-4.234 12.912v86.425c0 7.579-1.551 14.455-4.623 20.644-3.07 6.204-7.181 11.063-12.316 14.623-5.134 3.53-11.137 5.302-18.07 5.302v-1.528c6.933 0 12.936 1.773 18.07 5.303 5.135 3.529 9.245 8.404 12.316 14.623 3.072 6.188 4.623 13.064 4.623 20.643v86.808c0 5.837 1.411 10.115 4.234 12.911 2.823 2.812 6.934 4.172 12.316 4.172h95.318c3.583 0 6.468 1.207 8.671 3.606 2.202 2.414 3.257 5.257 3.257 8.542s-1.272 6.097-3.862 8.511c-2.575 2.414-5.771 3.606-9.617 3.606H78.844v-.092Z" fill="#FF0000"/>
<path d="M330.501 464.768c-3.862 0-7.042-1.207-9.617-3.606-2.575-2.414-3.863-5.256-3.863-8.511 0-3.255 1.086-6.128 3.258-8.542 2.171-2.414 5.057-3.606 8.671-3.606h95.317c5.414 0 9.509-1.36 12.316-4.171 2.823-2.781 4.235-7.075 4.235-12.912v-86.808c0-7.579 1.551-14.455 4.622-20.643 3.071-6.204 7.182-11.063 12.316-14.623 5.134-3.53 11.137-5.303 18.071-5.303v1.528c-6.934 0-12.937-1.772-18.071-5.302-5.134-3.53-9.245-8.404-12.316-14.623-3.071-6.189-4.622-13.065-4.622-20.644v-86.425c0-5.807-1.412-10.1-4.235-12.912-2.823-2.781-6.933-4.171-12.316-4.171H328.95c-3.583 0-6.469-1.208-8.671-3.622-2.172-2.384-3.258-5.241-3.258-8.542 0-3.529 1.272-6.417 3.863-8.694 2.559-2.277 5.755-3.407 9.617-3.407h102.654c12.58 0 22.181 3.3 28.867 9.855 6.685 6.556 10.005 16.167 10.005 28.804v86.028c0 10.36 2.125 17.969 6.328 22.752 4.235 4.798 11.742 7.334 22.507 7.579 3.351.244 6.034 1.497 8.066 3.774 2.063 2.277 3.071 5.195 3.071 8.725 0 3.301-1.008 6.189-3.071 8.695-2.032 2.521-4.762 3.804-8.066 3.804-10.765.245-18.257 2.781-22.507 7.579-4.234 4.798-6.328 12.5-6.328 23.135v86.028c0 8.358-1.474 15.418-4.437 21.255-2.962 5.837-7.305 10.176-13.076 13.095-5.785 2.888-12.905 4.339-21.359 4.339H330.501v.092Z" fill="#FF0000"/>
<path d="M356.885 329.738c18.691 0 33.846-14.929 33.846-33.342 0-18.412-15.155-33.341-33.846-33.341-18.691 0-33.846 14.929-33.846 33.341 0 18.413 15.155 33.342 33.846 33.342Z" fill="#FF0000"/>
<path d="M167.305 329.738c18.691 0 33.846-14.929 33.846-33.342 0-18.412-15.155-33.341-33.846-33.341-18.691 0-33.846 14.929-33.846 33.341 0 18.413 15.155 33.342 33.846 33.342Z" fill="#FF0000"/>
<path d="M244.477 32.846l-2.59 68.135c0 3.82-3.661 5.73-10.983 5.73-7.321 0-10.982-1.91-10.982-5.73-.651-16.976-1.178-30.148-1.613-39.484-.217-9.55-.434-16.35-.651-20.384-.217-4.034-.326-6.479-.326-7.32v-1.268c0-4.874 4.529-7.319 13.572-7.319 9.044 0 13.573 2.552 13.573 7.64Zm54.941 0-2.59 68.135c0 3.82-3.661 5.73-10.982 5.73-7.322 0-10.982-1.91-10.982-5.73-.652-16.976-1.179-30.148-1.613-39.484-.218-9.55-.435-16.35-.652-20.384-.217-4.034-.326-6.479-.326-7.32v-1.268c0-4.874 4.53-7.319 13.573-7.319s13.572 2.552 13.572 7.64Z" fill="#FF0000"/>
</svg>
