<svg width="20" height="18" viewBox="0 0 20 18" fill="none" xmlns="http://www.w3.org/2000/svg">
<path fill-rule="evenodd" clip-rule="evenodd" d="M9.41666 0.704143C7.67499 0.867476 6.04666 1.86831 5.08249 3.36748C4.86832 3.69998 4.59166 4.28164 4.47249 4.64748L4.37582 4.94498L4.04666 5.04998C2.33999 5.59414 1.14749 7.00581 0.878325 8.79998C0.815825 9.21498 0.832491 9.86831 0.914991 10.2916C1.11916 11.3316 1.71999 12.3241 2.54332 12.9841C3.17582 13.49 3.55332 13.5308 3.91416 13.1316C4.11166 12.9133 4.21082 12.6666 4.19416 12.4366C4.17582 12.1891 4.10499 12.0916 3.71832 11.7841C3.10666 11.2966 2.77416 10.81 2.59332 10.1366C2.49416 9.76664 2.49332 9.05331 2.59166 8.67831C2.83249 7.75831 3.56332 6.97164 4.46582 6.66164C4.56666 6.62664 4.81999 6.56831 5.02916 6.53081C5.44166 6.45831 5.50249 6.43581 5.64499 6.30414C5.78332 6.17581 5.82332 6.08164 5.93249 5.61831C6.05082 5.12248 6.18332 4.76748 6.36749 4.45164C6.98582 3.39581 8.03249 2.63581 9.16749 2.41831C10.6158 2.14164 12.0217 2.59081 13.035 3.65414C13.5733 4.21831 13.8658 4.77664 14.0683 5.62664C14.1775 6.08164 14.2175 6.17664 14.355 6.30414C14.4975 6.43581 14.5583 6.45831 14.9708 6.53081C15.18 6.56831 15.4333 6.62664 15.5342 6.66164C16.4367 6.97164 17.1675 7.75831 17.4083 8.67831C17.5067 9.05331 17.5058 9.76664 17.4067 10.1366C17.2258 10.81 16.8933 11.2966 16.2817 11.7841C15.895 12.0916 15.8242 12.1891 15.8058 12.4366C15.7892 12.6733 15.8917 12.92 16.1033 13.15C16.455 13.5316 16.83 13.4858 17.4567 12.9841C19.0767 11.6858 19.6067 9.47331 18.7608 7.54081C18.355 6.61498 17.5383 5.76914 16.6083 5.31331C16.4292 5.22581 16.135 5.10664 15.9533 5.04914L15.6242 4.94498L15.5275 4.64748C15.4083 4.28164 15.1317 3.69998 14.9175 3.36748C13.725 1.51164 11.6283 0.496643 9.41666 0.704143ZM9.67832 8.21414C9.48082 8.27581 9.34332 8.38414 9.25749 8.54414L9.18332 8.68331L9.17416 11.5816L9.16499 14.4791L8.14082 13.46C7.50082 12.8233 7.06416 12.415 6.97666 12.3708C6.68332 12.2233 6.36582 12.2983 6.08249 12.5825C5.79332 12.8716 5.71916 13.1758 5.86666 13.4691C5.91749 13.57 6.47166 14.1516 7.61166 15.3008C8.53082 16.2275 9.31166 17.0283 9.34666 17.08C9.43166 17.2083 9.80082 17.3741 9.99999 17.3741C10.1992 17.3741 10.5683 17.2083 10.6533 17.08C10.6883 17.0283 11.4692 16.2275 12.3883 15.3008C13.5283 14.1516 14.0825 13.57 14.1333 13.4691C14.2808 13.1758 14.2067 12.8716 13.9175 12.5825C13.6342 12.2983 13.3167 12.2233 13.0233 12.3708C12.9358 12.415 12.5 12.8233 11.8592 13.46L10.835 14.4791L10.8258 11.5808L10.8167 8.68331L10.7425 8.54414C10.7017 8.46831 10.6217 8.37248 10.565 8.33248C10.345 8.17498 9.96416 8.12498 9.67832 8.21414Z" fill="white"/>
</svg>
