<svg width="24" height="24" viewBox="0 0 24 24" fill="none" xmlns="http://www.w3.org/2000/svg">
<path fill-rule="evenodd" clip-rule="evenodd" d="M8.6139 2.05714C8.3769 2.13114 8.2119 2.26114 8.1089 2.45314L8.0199 2.62014L8.0099 11.9141C8.0029 18.0561 8.0129 21.2601 8.0399 21.3581C8.1439 21.7471 8.4349 21.9621 8.8959 21.9911C9.3809 22.0221 9.6989 21.8821 9.8799 21.5581L9.9799 21.3801V12.0001V2.62014L9.8909 2.45314C9.8419 2.36214 9.7459 2.24714 9.6779 2.19914C9.4139 2.01014 8.9569 1.95014 8.6139 2.05714ZM20.6139 2.05714C20.3769 2.13114 20.2119 2.26114 20.1089 2.45314L20.0199 2.62014L20.0099 11.9141C20.0029 18.0561 20.0129 21.2601 20.0399 21.3581C20.1439 21.7471 20.4349 21.9621 20.8959 21.9911C21.3809 22.0221 21.6989 21.8821 21.8799 21.5581L21.9799 21.3801V12.0001V2.62014L21.8909 2.45314C21.8419 2.36214 21.7459 2.24714 21.6779 2.19914C21.4139 2.01014 20.9569 1.95014 20.6139 2.05714ZM2.6139 10.0571C2.3769 10.1311 2.2119 10.2611 2.1089 10.4531L2.0199 10.6201L2.0089 15.9141C2.0019 19.3931 2.0129 21.2591 2.0389 21.3581C2.1439 21.7471 2.4339 21.9611 2.8959 21.9911C3.3809 22.0221 3.6989 21.8821 3.8799 21.5581L3.9799 21.3801V16.0001V10.6201L3.8909 10.4531C3.8419 10.3621 3.7459 10.2471 3.6779 10.1991C3.4139 10.0101 2.9569 9.95014 2.6139 10.0571ZM14.6139 10.0571C14.3769 10.1311 14.2119 10.2611 14.1089 10.4531L14.0199 10.6201L14.0089 15.9141C14.0019 19.3931 14.0129 21.2591 14.0389 21.3581C14.1439 21.7471 14.4339 21.9611 14.8959 21.9911C15.3809 22.0221 15.6989 21.8821 15.8799 21.5581L15.9799 21.3801V16.0001V10.6201L15.8909 10.4531C15.8419 10.3621 15.7459 10.2471 15.6779 10.1991C15.4139 10.0101 14.9569 9.95014 14.6139 10.0571Z" fill="#FF0000"/>
</svg>
