<svg width="18" height="19" viewBox="0 0 18 19" fill="none" xmlns="http://www.w3.org/2000/svg">
    <path fill-rule="evenodd" clip-rule="evenodd" d="M8.61665 0.852378C7.72915 0.938212 7.23166 1.06821 6.51666 1.40071C4.93832 2.13488 3.76165 3.57155 3.33582 5.28321C3.24415 5.65155 3.16665 6.27655 3.16665 6.64405C3.16665 7.42821 3.04999 8.55821 2.89915 9.23738C2.66415 10.2965 2.36415 10.9982 1.64665 12.1665C1.14665 12.9807 1.02415 13.2032 0.949155 13.4315C0.748321 14.0482 1.09749 14.704 1.74499 14.9249C1.90582 14.9799 2.33499 14.984 8.79999 14.9924C13.2892 14.999 15.78 14.9907 15.9617 14.9682C16.4442 14.9099 16.7642 14.709 16.9592 14.3424C17.0842 14.1057 17.1375 13.8357 17.1 13.6324C17.04 13.3157 16.9575 13.1565 16.2358 11.9682C15.61 10.9382 15.3258 10.254 15.1008 9.23905C14.9492 8.55321 14.8842 7.95071 14.8333 6.76655C14.7908 5.76488 14.7225 5.36405 14.4775 4.68321C13.7658 2.70405 11.9908 1.23321 9.93332 0.918212C9.60582 0.867378 8.84999 0.829878 8.61665 0.852378ZM9.45999 2.53488C11.1883 2.72405 12.6175 3.97905 13.0458 5.68321C13.1167 5.96405 13.1667 6.46738 13.1667 6.89155C13.1667 7.63238 13.2925 8.78655 13.4517 9.50738C13.7258 10.749 14.0717 11.6107 14.7467 12.7332L15.0975 13.3165L12.0483 13.3249C10.3717 13.3299 7.62832 13.3299 5.95165 13.3249L2.90249 13.3165L3.25332 12.7332C3.93332 11.6024 4.30332 10.6707 4.56499 9.43321C4.71332 8.73155 4.83249 7.61155 4.83249 6.90655C4.83332 6.46738 4.88332 5.96655 4.95415 5.68321C5.33499 4.16821 6.52165 2.98738 8.03332 2.61738C8.47832 2.50905 8.96165 2.48071 9.45999 2.53488ZM7.01165 16.714C6.81415 16.7757 6.67665 16.884 6.59082 17.044C6.52915 17.1599 6.51666 17.2365 6.51666 17.4999C6.51666 17.7757 6.52749 17.8357 6.59999 17.9649C6.69165 18.129 6.84499 18.2482 7.02915 18.299C7.10332 18.3199 7.86249 18.3332 8.99999 18.3332C10.1375 18.3332 10.8967 18.3199 10.9708 18.299C11.155 18.2482 11.3083 18.129 11.4 17.9649C11.4725 17.8349 11.4833 17.7765 11.4825 17.4999C11.4817 17.139 11.415 16.9624 11.2317 16.8324C11.005 16.6707 10.9467 16.6665 8.98665 16.669C7.57749 16.6707 7.11749 16.6807 7.01165 16.714Z" fill="white"/>
</svg>
