<svg width="24" height="24" viewBox="0 0 24 24" fill="none" xmlns="http://www.w3.org/2000/svg">
<path fill-rule="evenodd" clip-rule="evenodd" d="M18.7 4.046C18.605 4.095 17.892 4.775 16.952 5.714C15.277 7.387 15.203 7.476 15.201 7.825C15.2 8.055 15.293 8.255 15.511 8.488C15.86 8.86 16.228 8.965 16.6 8.797C16.836 8.691 19.908 5.628 20.036 5.372C20.212 5.02 20.121 4.639 19.781 4.299C19.441 3.959 19.047 3.867 18.7 4.046ZM7.4 15.283C7.159 15.391 4.092 18.453 3.96 18.716C3.785 19.067 3.875 19.437 4.219 19.781C4.559 20.121 4.94 20.212 5.292 20.036C5.548 19.908 8.611 16.836 8.717 16.6C8.877 16.245 8.806 15.931 8.489 15.592C8.14 15.22 7.772 15.115 7.4 15.283ZM15.879 15.298C15.659 15.413 15.347 15.738 15.262 15.941C15.178 16.143 15.185 16.384 15.283 16.6C15.389 16.836 18.452 19.908 18.708 20.036C19.06 20.212 19.441 20.121 19.781 19.781C20.121 19.441 20.212 19.06 20.036 18.708C19.908 18.452 16.836 15.389 16.6 15.283C16.36 15.175 16.105 15.18 15.879 15.298Z" fill="#FF0000"/>
<path d="M3.96298 4.63501C4.06598 4.43201 4.34298 4.15201 4.54598 4.04501C4.75498 3.93501 5.07198 3.93401 5.29198 4.04401C5.54798 4.17201 8.61098 7.24401 8.71698 7.48001C8.87698 7.83501 8.79598 8.16801 8.46598 8.51301C8.13298 8.86201 7.76198 8.96001 7.39998 8.79701C7.16398 8.69101 4.09198 5.62801 3.96398 5.37201C3.85398 5.15101 3.85298 4.84901 3.96298 4.63501Z" fill="#FF0000"/>
</svg>
