<svg width="24" height="24" viewBox="0 0 24 24" fill="none" xmlns="http://www.w3.org/2000/svg">
<path fill-rule="evenodd" clip-rule="evenodd" d="M11.614 1.05701C11.377 1.13101 11.212 1.26101 11.109 1.45301C11.02 1.61901 11.02 1.62901 11.009 3.91101C11.001 5.39201 11.012 6.25601 11.039 6.35501C11.144 6.74701 11.433 6.96101 11.896 6.99101C12.381 7.02201 12.699 6.88201 12.88 6.55801L12.98 6.38001V4.00001V1.62001L12.891 1.45301C12.842 1.36201 12.746 1.24701 12.678 1.19901C12.414 1.01001 11.957 0.950013 11.614 1.05701ZM18.7 4.04601C18.605 4.09501 17.892 4.77501 16.952 5.71401C15.277 7.38701 15.203 7.47601 15.201 7.82501C15.2 8.05501 15.293 8.25501 15.511 8.48801C15.86 8.86001 16.228 8.96501 16.6 8.79701C16.836 8.69101 19.908 5.62801 20.036 5.37201C20.212 5.02001 20.121 4.63901 19.781 4.29901C19.441 3.95901 19.047 3.86701 18.7 4.04601ZM17.614 11.057C17.377 11.131 17.212 11.261 17.109 11.453C17.035 11.592 17.02 11.684 17.02 12C17.02 12.331 17.033 12.403 17.12 12.558C17.23 12.755 17.414 12.898 17.635 12.959C17.831 13.014 22.169 13.014 22.365 12.959C22.586 12.898 22.77 12.755 22.88 12.558C22.967 12.402 22.98 12.332 22.979 12C22.978 11.567 22.898 11.355 22.678 11.199C22.406 11.005 22.336 11 19.984 11.003C18.293 11.005 17.741 11.017 17.614 11.057ZM7.4 15.283C7.159 15.391 4.092 18.453 3.96 18.716C3.785 19.067 3.875 19.437 4.219 19.781C4.559 20.121 4.94 20.212 5.292 20.036C5.548 19.908 8.611 16.836 8.717 16.6C8.877 16.245 8.806 15.931 8.489 15.592C8.14 15.22 7.772 15.115 7.4 15.283ZM15.879 15.298C15.659 15.413 15.347 15.738 15.262 15.941C15.178 16.143 15.185 16.384 15.283 16.6C15.389 16.836 18.452 19.908 18.708 20.036C19.06 20.212 19.441 20.121 19.781 19.781C20.121 19.441 20.212 19.06 20.036 18.708C19.908 18.452 16.836 15.389 16.6 15.283C16.36 15.175 16.105 15.18 15.879 15.298ZM11.614 17.057C11.377 17.131 11.212 17.261 11.109 17.453C11.02 17.619 11.02 17.629 11.009 19.911C11.001 21.392 11.012 22.256 11.039 22.355C11.144 22.747 11.433 22.961 11.896 22.991C12.381 23.022 12.699 22.882 12.88 22.558L12.98 22.38V20V17.62L12.891 17.453C12.842 17.362 12.746 17.247 12.678 17.199C12.414 17.01 11.957 16.95 11.614 17.057Z" fill="#FF0000"/>
<path d="M11.109 1.45301C11.212 1.26101 11.377 1.13101 11.614 1.05701C11.957 0.950013 12.414 1.01001 12.678 1.19901C12.746 1.24701 12.842 1.36201 12.891 1.45301L12.98 1.62001V4.00001V6.38001L12.88 6.55801C12.699 6.88201 12.381 7.02201 11.896 6.99101C11.433 6.96101 11.144 6.74701 11.039 6.35501C11.012 6.25601 11.001 5.39201 11.009 3.91101L11.009 3.90728C11.02 1.629 11.02 1.61892 11.109 1.45301Z" fill="#FF0000"/>
<path d="M3.96298 4.63501C4.06598 4.43201 4.34298 4.15201 4.54598 4.04501C4.75498 3.93501 5.07198 3.93401 5.29198 4.04401C5.54798 4.17201 8.61098 7.24401 8.71698 7.48001C8.87698 7.83501 8.79598 8.16801 8.46598 8.51301C8.13298 8.86201 7.76198 8.96001 7.39998 8.79701C7.16398 8.69101 4.09198 5.62801 3.96398 5.37201C3.85398 5.15101 3.85298 4.84901 3.96298 4.63501Z" fill="#FF0000"/>
<path d="M1.10899 11.453C1.21199 11.261 1.37699 11.131 1.61399 11.057C1.74099 11.017 2.29299 11.005 3.98399 11.003C6.33599 11 6.40599 11.005 6.67799 11.199C6.89799 11.355 6.97799 11.567 6.97899 12C6.97999 12.332 6.96699 12.402 6.87999 12.558C6.76999 12.755 6.58599 12.898 6.36499 12.959C6.16899 13.014 1.83099 13.014 1.63499 12.959C1.41399 12.898 1.22999 12.755 1.11999 12.558C1.03299 12.403 1.01999 12.331 1.01999 12C1.01999 11.684 1.03499 11.592 1.10899 11.453Z" fill="#FF0000"/>
</svg>
