<svg width="24" height="24" viewBox="0 0 24 24" fill="none" xmlns="http://www.w3.org/2000/svg">
<path fill-rule="evenodd" clip-rule="evenodd" d="M11.614 1.05701C11.377 1.13101 11.212 1.26101 11.109 1.45301C11.02 1.61901 11.02 1.62901 11.009 3.91101C11.001 5.39201 11.012 6.25601 11.039 6.35501C11.144 6.74701 11.433 6.96101 11.896 6.99101C12.381 7.02201 12.699 6.88201 12.88 6.55801L12.98 6.38001V4.00001V1.62001L12.891 1.45301C12.842 1.36201 12.746 1.24701 12.678 1.19901C12.414 1.01001 11.957 0.950013 11.614 1.05701ZM1.61399 11.057C1.37699 11.131 1.21199 11.261 1.10899 11.453C1.03499 11.592 1.01999 11.684 1.01999 12C1.01999 12.331 1.03299 12.403 1.11999 12.558C1.22999 12.755 1.41399 12.898 1.63499 12.959C1.83099 13.014 6.16899 13.014 6.36499 12.959C6.58599 12.898 6.76999 12.755 6.87999 12.558C6.96699 12.402 6.97999 12.332 6.97899 12C6.97799 11.567 6.89799 11.355 6.67799 11.199C6.40599 11.005 6.33599 11 3.98399 11.003C2.29299 11.005 1.74099 11.017 1.61399 11.057ZM11.614 17.057C11.377 17.131 11.212 17.261 11.109 17.453C11.02 17.619 11.02 17.629 11.009 19.911C11.001 21.392 11.012 22.256 11.039 22.355C11.144 22.747 11.433 22.961 11.896 22.991C12.381 23.022 12.699 22.882 12.88 22.558L12.98 22.38V20V17.62L12.891 17.453C12.842 17.362 12.746 17.247 12.678 17.199C12.414 17.01 11.957 16.95 11.614 17.057Z" fill="#FF0000"/>
<path d="M17.109 11.453C17.212 11.261 17.377 11.131 17.614 11.057C17.741 11.017 18.293 11.005 19.984 11.003C22.336 11 22.406 11.005 22.678 11.199C22.898 11.355 22.978 11.567 22.979 12C22.98 12.332 22.967 12.402 22.88 12.558C22.77 12.755 22.586 12.898 22.365 12.959C22.169 13.014 17.831 13.014 17.635 12.959C17.414 12.898 17.23 12.755 17.12 12.558C17.033 12.403 17.02 12.331 17.02 12C17.02 11.684 17.035 11.592 17.109 11.453Z" fill="#FF0000"/>
</svg>
