<svg width="13" height="12" viewBox="0 0 13 12" fill="none" xmlns="http://www.w3.org/2000/svg">
    <path fill-rule="evenodd" clip-rule="evenodd"
        d="M1.41733 0.696692C1.28 0.769359 1.09733 0.955359 1.02533 1.09603C0.949333 1.24469 0.949333 1.42136 1.026 1.57536C1.068 1.65803 1.628 2.23736 2.902 3.51336L4.71933 5.33336L2.902 7.15336C1.628 8.42936 1.068 9.00869 1.026 9.09136C0.908666 9.32669 0.968 9.56936 1.19933 9.80069C1.43 10.0314 1.67333 10.0914 1.90867 9.97402C2.07533 9.89069 6.224 5.74202 6.30733 5.57536C6.34267 5.50402 6.366 5.40736 6.366 5.33336C6.366 5.25936 6.34267 5.16269 6.30733 5.09136C6.22667 4.92936 2.076 0.776025 1.91467 0.696025C1.768 0.622692 1.556 0.623359 1.41733 0.696692ZM6.74267 10.038C6.58467 10.0874 6.47467 10.174 6.406 10.302C6.35667 10.3947 6.34667 10.456 6.34667 10.6667C6.34667 10.8874 6.35533 10.9354 6.41333 11.0387C6.48667 11.17 6.60933 11.2654 6.75667 11.306C6.88867 11.3427 12.4447 11.3427 12.5767 11.306C12.724 11.2654 12.8467 11.17 12.92 11.0387C12.978 10.9347 12.9867 10.888 12.986 10.6667C12.9853 10.378 12.932 10.2367 12.7853 10.1327C12.5953 9.99736 12.658 10 9.656 10.002C7.434 10.0034 6.83067 10.0107 6.74267 10.038Z"
        fill="white" />
</svg>
