<svg width="16" height="16" viewBox="0 0 16 16" fill="none" xmlns="http://www.w3.org/2000/svg">
<path fill-rule="evenodd" clip-rule="evenodd" d="M11.8123 1.33266L9.77168 1.34666L9.63901 1.41466C9.41234 1.53133 9.31834 1.73733 9.33901 2.06933C9.35834 2.37533 9.49967 2.56799 9.75634 2.63933C9.81501 2.65599 10.353 2.66666 11.1197 2.66666H12.3857L9.90167 5.15333C8.13701 6.91999 7.40101 7.67399 7.35901 7.75799C7.24167 7.99333 7.30101 8.23666 7.53234 8.46733C7.76301 8.69866 8.00634 8.75799 8.24167 8.64066C8.32567 8.59866 9.07967 7.86266 10.8463 6.09799L13.333 3.61399V4.87999C13.333 5.64666 13.3437 6.18466 13.3603 6.24333C13.4317 6.49999 13.6243 6.64133 13.9303 6.66066C14.2537 6.68133 14.4657 6.58799 14.5863 6.37199L14.653 6.25333L14.671 4.14666C14.681 2.98799 14.6897 2.00066 14.691 1.95266C14.6937 1.82933 14.5563 1.53999 14.4637 1.47466C14.311 1.36799 14.1317 1.30666 13.9897 1.31266C13.9143 1.31599 12.9343 1.32533 11.8123 1.33266ZM3.94634 1.36133C3.43634 1.39399 3.11567 1.46933 2.78634 1.63399C2.05901 1.99733 1.57101 2.64066 1.41567 3.43999C1.34167 3.81933 1.33301 4.30333 1.33301 7.99999C1.33301 12.2387 1.33701 12.3507 1.49634 12.88C1.71767 13.6147 2.38501 14.282 3.11967 14.5033C3.64901 14.6627 3.76101 14.6667 7.99967 14.6667C12.2383 14.6667 12.3503 14.6627 12.8797 14.5033C13.6143 14.282 14.283 13.614 14.503 12.88C14.6477 12.398 14.6717 12.024 14.6617 10.4133C14.653 9.09333 14.6523 9.07866 14.5937 8.96866C14.459 8.71733 14.0917 8.60133 13.7523 8.70333C13.585 8.75399 13.4763 8.83733 13.4057 8.96866C13.347 9.07866 13.3463 9.09533 13.329 10.6133C13.3103 12.2547 13.3023 12.358 13.1677 12.6347C13.0837 12.8073 12.793 13.092 12.6117 13.1787C12.3103 13.3233 12.4177 13.32 7.99967 13.32C3.58834 13.32 3.69167 13.3233 3.38767 13.1807C3.20767 13.0953 2.91767 12.8113 2.83167 12.6347C2.79834 12.566 2.75034 12.422 2.72501 12.3147C2.68301 12.1353 2.67967 11.7913 2.67967 7.99999C2.67967 4.20866 2.68301 3.86466 2.72501 3.68533C2.75034 3.57799 2.79834 3.43399 2.83167 3.36533C2.91034 3.20399 3.20367 2.91066 3.36501 2.83199C3.64167 2.69733 3.74501 2.68933 5.38634 2.67066C6.88634 2.65399 6.92167 2.65199 7.02634 2.59599C7.24967 2.47666 7.31834 2.33599 7.31834 1.99999C7.31834 1.71133 7.26568 1.57066 7.11834 1.46599C6.93901 1.33799 6.87701 1.33333 5.52234 1.33733C4.82434 1.33933 4.11501 1.34999 3.94634 1.36133Z" fill="black"/>
<path fill-rule="evenodd" clip-rule="evenodd" d="M11.8123 1.33266L9.77168 1.34666L9.63901 1.41466C9.41234 1.53133 9.31834 1.73733 9.33901 2.06933C9.35834 2.37533 9.49967 2.56799 9.75634 2.63933C9.81501 2.65599 10.353 2.66666 11.1197 2.66666H12.3857L9.90167 5.15333C8.13701 6.91999 7.40101 7.67399 7.35901 7.75799C7.24167 7.99333 7.30101 8.23666 7.53234 8.46733C7.76301 8.69866 8.00634 8.75799 8.24167 8.64066C8.32567 8.59866 9.07967 7.86266 10.8463 6.09799L13.333 3.61399V4.87999C13.333 5.64666 13.3437 6.18466 13.3603 6.24333C13.4317 6.49999 13.6243 6.64133 13.9303 6.66066C14.2537 6.68133 14.4657 6.58799 14.5863 6.37199L14.653 6.25333L14.671 4.14666C14.681 2.98799 14.6897 2.00066 14.691 1.95266C14.6937 1.82933 14.5563 1.53999 14.4637 1.47466C14.311 1.36799 14.1317 1.30666 13.9897 1.31266C13.9143 1.31599 12.9343 1.32533 11.8123 1.33266ZM3.94634 1.36133C3.43634 1.39399 3.11567 1.46933 2.78634 1.63399C2.05901 1.99733 1.57101 2.64066 1.41567 3.43999C1.34167 3.81933 1.33301 4.30333 1.33301 7.99999C1.33301 12.2387 1.33701 12.3507 1.49634 12.88C1.71767 13.6147 2.38501 14.282 3.11967 14.5033C3.64901 14.6627 3.76101 14.6667 7.99967 14.6667C12.2383 14.6667 12.3503 14.6627 12.8797 14.5033C13.6143 14.282 14.283 13.614 14.503 12.88C14.6477 12.398 14.6717 12.024 14.6617 10.4133C14.653 9.09333 14.6523 9.07866 14.5937 8.96866C14.459 8.71733 14.0917 8.60133 13.7523 8.70333C13.585 8.75399 13.4763 8.83733 13.4057 8.96866C13.347 9.07866 13.3463 9.09533 13.329 10.6133C13.3103 12.2547 13.3023 12.358 13.1677 12.6347C13.0837 12.8073 12.793 13.092 12.6117 13.1787C12.3103 13.3233 12.4177 13.32 7.99967 13.32C3.58834 13.32 3.69167 13.3233 3.38767 13.1807C3.20767 13.0953 2.91767 12.8113 2.83167 12.6347C2.79834 12.566 2.75034 12.422 2.72501 12.3147C2.68301 12.1353 2.67967 11.7913 2.67967 7.99999C2.67967 4.20866 2.68301 3.86466 2.72501 3.68533C2.75034 3.57799 2.79834 3.43399 2.83167 3.36533C2.91034 3.20399 3.20367 2.91066 3.36501 2.83199C3.64167 2.69733 3.74501 2.68933 5.38634 2.67066C6.88634 2.65399 6.92167 2.65199 7.02634 2.59599C7.24967 2.47666 7.31834 2.33599 7.31834 1.99999C7.31834 1.71133 7.26568 1.57066 7.11834 1.46599C6.93901 1.33799 6.87701 1.33333 5.52234 1.33733C4.82434 1.33933 4.11501 1.34999 3.94634 1.36133Z" fill="white" fill-opacity="0.9"/>
</svg>
