<svg width="16" height="16" viewBox="0 0 16 16" fill="none" xmlns="http://www.w3.org/2000/svg">
<path fill-rule="evenodd" clip-rule="evenodd" d="M5.076 1.37133C4.918 1.42067 4.808 1.50733 4.73934 1.63533C4.68067 1.746 4.68 1.75533 4.67267 3.20667L4.66467 4.66667H3.60334C2.47334 4.66667 2.38934 4.67467 2.21467 4.79933C2.06667 4.90467 2.01334 5.04533 2.01334 5.33333C2.01334 5.554 2.022 5.602 2.08 5.70533C2.15334 5.83667 2.276 5.932 2.42334 5.97267C2.48067 5.98867 2.95667 6 3.59334 6H4.66667V8V10H3.604C2.47334 10 2.38934 10.008 2.21467 10.1327C2.06667 10.238 2.01334 10.3787 2.01334 10.6667C2.01334 10.8873 2.022 10.9353 2.08 11.0387C2.15334 11.17 2.276 11.2653 2.42334 11.306C2.48067 11.322 2.95667 11.3333 3.59334 11.3333H4.66667V12.74C4.66667 13.6 4.67734 14.184 4.694 14.2433C4.76534 14.5 4.958 14.6413 5.264 14.6607C5.58734 14.6813 5.79934 14.588 5.92 14.372L5.98667 14.2533L5.99467 12.7933L6.002 11.3333H8.00134H10V12.74C10 13.6 10.0107 14.184 10.0273 14.2433C10.0987 14.5 10.2913 14.6413 10.5973 14.6607C10.9207 14.6813 11.1327 14.588 11.2533 14.372L11.32 14.2533L11.328 12.7933L11.3353 11.3333H12.408C13.044 11.3333 13.5193 11.322 13.5767 11.306C13.724 11.2653 13.8467 11.17 13.92 11.0387C13.978 10.9347 13.9867 10.888 13.986 10.6667C13.9853 10.378 13.932 10.2367 13.7853 10.1327C13.6107 10.008 13.5267 10 12.396 10H11.3333V8V6H12.4067C13.0433 6 13.5193 5.98867 13.5767 5.97267C13.724 5.932 13.8467 5.83667 13.92 5.70533C13.978 5.60133 13.9867 5.55467 13.986 5.33333C13.9853 5.04467 13.932 4.90333 13.7853 4.79933C13.6107 4.67467 13.5267 4.66667 12.3967 4.66667H11.3353L11.328 3.20667C11.32 1.74667 11.32 1.74667 11.2593 1.63333C11.1493 1.42667 10.886 1.31333 10.5827 1.34067C10.2927 1.36733 10.094 1.516 10.0273 1.75667C10.0107 1.816 10 2.4 10 3.26V4.66667H8.00134H6.002L5.99467 3.20667C5.98667 1.75533 5.986 1.746 5.92734 1.63533C5.89467 1.57467 5.83067 1.498 5.78534 1.466C5.60934 1.34 5.30467 1.3 5.076 1.37133ZM10 8V10H8H6V8V6H8H10V8Z" fill="#C28000"/>
</svg>
