<svg width="16" height="16" viewBox="0 0 16 16" fill="none" xmlns="http://www.w3.org/2000/svg">
<path fill-rule="evenodd" clip-rule="evenodd" d="M1.74267 1.37133C1.58467 1.42066 1.47467 1.50733 1.406 1.63533C1.348 1.74466 1.34667 1.766 1.34734 2.66666C1.348 3.53066 1.35134 3.60133 1.40734 3.82333C1.48267 4.122 1.58534 4.336 1.76667 4.572C2.02534 4.90866 2.396 5.146 2.84334 5.25933L3.08 5.32H7.98667C12.6753 5.32 12.9027 5.318 13.1067 5.27066C13.5127 5.176 13.8073 5.01733 14.0787 4.74533C14.3507 4.474 14.5093 4.17933 14.604 3.77333C14.6467 3.58733 14.6533 3.44266 14.6533 2.65333C14.6533 1.76666 14.652 1.744 14.594 1.63533C14.5233 1.504 14.4147 1.42066 14.2473 1.37C13.9073 1.268 13.54 1.384 13.4067 1.63533C13.3507 1.74133 13.3467 1.78933 13.33 2.61333C13.3187 3.14866 13.3 3.51933 13.2807 3.58266C13.2413 3.712 13.054 3.902 12.9173 3.95C12.762 4.00466 3.238 4.00466 3.08267 3.95C2.946 3.902 2.75867 3.712 2.71934 3.58266C2.70067 3.52 2.68134 3.144 2.67 2.61333C2.65267 1.792 2.64867 1.74066 2.59267 1.63533C2.56067 1.57466 2.49734 1.498 2.452 1.466C2.276 1.34 1.97134 1.3 1.74267 1.37133ZM1.74267 7.37C1.48 7.456 1.35934 7.62466 1.33934 7.93333C1.31867 8.254 1.41267 8.466 1.628 8.58666C1.73134 8.64466 1.77934 8.65333 2 8.65333C2.208 8.65333 2.272 8.64266 2.36 8.596C2.57734 8.47866 2.66667 8.306 2.66667 8C2.66667 7.57133 2.47534 7.36533 2.05534 7.344C1.92867 7.33733 1.812 7.34733 1.74267 7.37ZM4.78667 7.35933C4.47667 7.43933 4.34267 7.63133 4.34134 7.998C4.34 8.232 4.388 8.37066 4.514 8.50133C4.754 8.74866 5.37867 8.70666 5.56067 8.43C5.684 8.24333 5.71 7.89333 5.61667 7.67133C5.508 7.412 5.132 7.27066 4.78667 7.35933ZM7.74267 7.37C7.48 7.456 7.35934 7.62466 7.33934 7.93333C7.31867 8.254 7.41267 8.466 7.628 8.58666C7.73134 8.64466 7.77934 8.65333 8 8.65333C8.208 8.65333 8.272 8.64266 8.36 8.596C8.57734 8.47866 8.66667 8.306 8.66667 8C8.66667 7.57133 8.47534 7.36533 8.05534 7.344C7.92867 7.33733 7.812 7.34733 7.74267 7.37ZM10.7867 7.35933C10.4767 7.43933 10.3427 7.63133 10.3413 7.998C10.34 8.232 10.388 8.37066 10.514 8.50133C10.754 8.74866 11.3787 8.70666 11.5607 8.43C11.684 8.24333 11.71 7.89333 11.6167 7.67133C11.508 7.412 11.132 7.27066 10.7867 7.35933ZM13.7427 7.37C13.48 7.456 13.3593 7.62466 13.3393 7.93333C13.3187 8.254 13.4127 8.466 13.628 8.58666C13.7313 8.64466 13.7793 8.65333 14 8.65333C14.208 8.65333 14.272 8.64266 14.36 8.596C14.5773 8.47866 14.6667 8.306 14.6667 8C14.6667 7.57133 14.4753 7.36533 14.0553 7.344C13.9287 7.33733 13.812 7.34733 13.7427 7.37ZM3.166 10.6967C2.514 10.7593 2.02467 11.038 1.68467 11.54C1.54534 11.7447 1.47867 11.8973 1.408 12.1733C1.35934 12.3607 1.35134 12.4913 1.34067 13.254C1.332 13.8373 1.33734 14.1567 1.35734 14.23C1.42934 14.4987 1.61934 14.6407 1.93067 14.6607C2.254 14.6813 2.466 14.588 2.58667 14.372C2.65267 14.2547 2.65334 14.2453 2.67067 13.3867C2.68134 12.8533 2.7 12.4807 2.71934 12.4173C2.76134 12.2787 2.95267 12.092 3.09734 12.048C3.26867 11.9967 12.7313 11.9967 12.9027 12.048C13.0473 12.092 13.238 12.278 13.2807 12.4173C13.3 12.4807 13.3187 12.8493 13.3293 13.3867C13.3467 14.2467 13.3473 14.254 13.4133 14.372C13.5247 14.5707 13.7147 14.6667 14 14.6667C14.2853 14.6667 14.4753 14.5707 14.5867 14.372L14.6533 14.2533V13.3467C14.6533 12.5573 14.6467 12.4127 14.604 12.2267C14.4587 11.6027 14.1113 11.158 13.5527 10.8807C13.346 10.7787 13.1373 10.7273 12.7867 10.6947C12.4293 10.6607 3.51734 10.6627 3.166 10.6967Z" fill="#C28000"/>
</svg>
