<svg width="12" height="12" viewBox="0 0 12 12" fill="none" xmlns="http://www.w3.org/2000/svg">
    <path fill-rule="evenodd" clip-rule="evenodd"
        d="M1.77667 0.0293402C0.941333 0.11734 0.289333 0.674007 0.0766664 1.48001C0.0313331 1.65201 0.0179997 1.79934 0.00733303 2.24001C-0.00133363 2.59867 0.00399981 2.82401 0.0233331 2.89601C0.0966665 3.16534 0.285333 3.30734 0.597333 3.32734C0.92 3.34801 1.13333 3.25401 1.25133 3.04134C1.31133 2.93267 1.31733 2.88467 1.33733 2.36934C1.35133 2.00401 1.37133 1.78534 1.39533 1.72734C1.452 1.59201 1.56267 1.47667 1.70067 1.40867L1.82667 1.34667L3.58 1.33801L5.33333 1.32934V5.99801V10.6667H4.604C3.82933 10.6667 3.71333 10.6813 3.548 10.7993C3.4 10.9047 3.34667 11.0453 3.34667 11.3333C3.34667 11.554 3.35533 11.602 3.41333 11.7053C3.48667 11.8367 3.60933 11.932 3.75667 11.9727C3.888 12.0093 8.112 12.0093 8.24333 11.9727C8.39067 11.932 8.51333 11.8367 8.58667 11.7053C8.64467 11.6013 8.65333 11.5547 8.65267 11.3333C8.652 11.0447 8.59867 10.9033 8.452 10.7993C8.28667 10.6813 8.17067 10.6667 7.396 10.6667H6.66667V5.99801V1.32934L8.42 1.33801L10.1733 1.34667L10.2933 1.40934C10.4527 1.49201 10.5127 1.55067 10.5833 1.69201C10.636 1.79734 10.644 1.86934 10.662 2.36534C10.6807 2.88534 10.686 2.92801 10.748 3.03934C10.8573 3.23734 11.048 3.33334 11.3333 3.33334C11.6187 3.33334 11.8087 3.23734 11.92 3.03867C11.986 2.92134 11.9867 2.91334 11.9847 2.30667C11.9827 1.76334 11.976 1.66934 11.924 1.48134C11.7673 0.910007 11.424 0.484007 10.914 0.228674C10.6767 0.110007 10.4947 0.0593402 10.1867 0.0273402C9.87733 -0.00465981 2.08467 -0.00332646 1.77667 0.0293402Z"
        fill="#C28000" />
</svg>
