<svg width="16" height="16" viewBox="0 0 16 16" fill="none" xmlns="http://www.w3.org/2000/svg">
<path fill-rule="evenodd" clip-rule="evenodd" d="M3.94668 1.36133C3.43668 1.394 3.11601 1.46933 2.78668 1.634C2.05934 1.99733 1.57134 2.64067 1.41601 3.44C1.34201 3.81933 1.33334 4.30333 1.33334 8C1.33334 12.2387 1.33734 12.3507 1.49668 12.88C1.71801 13.6147 2.38534 14.282 3.12001 14.5033C3.64934 14.6627 3.76134 14.6667 8.00001 14.6667C12.2387 14.6667 12.3507 14.6627 12.88 14.5033C13.6147 14.282 14.2833 13.614 14.5033 12.88C14.656 12.37 14.6713 12.0747 14.6613 9.74667L14.6533 7.74667L14.594 7.63533C14.5233 7.504 14.4147 7.42067 14.2473 7.37C13.908 7.268 13.5407 7.384 13.406 7.63533L13.3467 7.74667L13.3307 9.94666C13.3127 12.318 13.3113 12.34 13.168 12.6347C13.084 12.8073 12.7933 13.092 12.612 13.1787C12.3107 13.3233 12.418 13.32 8.00001 13.32C3.58868 13.32 3.69201 13.3233 3.38801 13.1807C3.20801 13.0953 2.91801 12.8113 2.83201 12.6347C2.79868 12.566 2.75068 12.422 2.72534 12.3147C2.68334 12.1353 2.68001 11.7913 2.68001 8C2.68001 4.20867 2.68334 3.86467 2.72534 3.68533C2.75068 3.578 2.79868 3.434 2.83201 3.36533C2.91068 3.204 3.20401 2.91067 3.36534 2.832C3.67734 2.68 3.54868 2.68533 7.38668 2.66867L10.92 2.65333L11.0267 2.596C11.25 2.47667 11.3187 2.336 11.3187 2C11.3187 1.71133 11.266 1.57067 11.1187 1.466C10.9273 1.32933 11.0287 1.33333 7.52268 1.33733C5.72468 1.33933 4.11534 1.35 3.94668 1.36133ZM14.4133 2.03067C14.346 2.06467 13.1367 3.25467 11.154 5.23533L8.00068 8.38533L7.18068 7.56933C6.66734 7.05867 6.31801 6.732 6.24801 6.69667C6.01334 6.57867 5.75934 6.63866 5.53268 6.866C5.30134 7.09666 5.24201 7.34 5.35934 7.57533C5.44201 7.74 7.59334 9.89133 7.75801 9.974C7.91201 10.0507 8.08801 10.0507 8.24201 9.974C8.41001 9.89 15.2233 3.07667 15.3073 2.90867C15.424 2.67333 15.3647 2.43 15.134 2.19933C14.9073 1.97267 14.6453 1.91133 14.4133 2.03067Z" fill="#C28000"/>
</svg>
