<svg width="16" height="16" viewBox="0 0 16 16" fill="none" xmlns="http://www.w3.org/2000/svg">
<path fill-rule="evenodd" clip-rule="evenodd" d="M2.40934 2.038C2.25134 2.08733 2.14134 2.174 2.07267 2.302C2.02334 2.39467 2.01334 2.456 2.01334 2.66667C2.01334 2.88733 2.022 2.93533 2.08 3.03867C2.15334 3.17 2.276 3.26533 2.42334 3.306C2.47667 3.32067 2.70267 3.33333 2.92667 3.33333H3.33334V8V12.6667H2.93734C2.38467 12.6667 2.2 12.7313 2.07267 12.9687C2.02334 13.0613 2.01334 13.1227 2.01334 13.3333C2.01334 13.554 2.022 13.602 2.08 13.7053C2.15334 13.8367 2.276 13.932 2.42334 13.9727C2.554 14.0093 5.446 14.0093 5.57667 13.9727C5.724 13.932 5.84667 13.8367 5.92 13.7053C5.978 13.6013 5.98667 13.5547 5.986 13.3333C5.98534 13.1247 5.97467 13.0607 5.92667 12.9687C5.80134 12.7313 5.616 12.6667 5.06267 12.6667H4.66667V10.6667V8.66667H8H11.3333V10.6667V12.6667H10.9373C10.3847 12.6667 10.2 12.7313 10.0727 12.9687C10.0233 13.0613 10.0133 13.1227 10.0133 13.3333C10.0133 13.554 10.022 13.602 10.08 13.7053C10.1533 13.8367 10.276 13.932 10.4233 13.9727C10.554 14.0093 13.446 14.0093 13.5767 13.9727C13.724 13.932 13.8467 13.8367 13.92 13.7053C13.978 13.6013 13.9867 13.5547 13.986 13.3333C13.9853 13.1247 13.9747 13.0607 13.9267 12.9687C13.8013 12.7313 13.616 12.6667 13.0627 12.6667H12.6667V8V3.33333H13.0733C13.2967 3.33333 13.5233 3.32067 13.5767 3.306C13.724 3.26533 13.8467 3.17 13.92 3.03867C13.978 2.93467 13.9867 2.888 13.986 2.66667C13.9853 2.378 13.932 2.23667 13.7853 2.13267C13.6047 2.00333 13.5553 2 12 2C10.4447 2 10.3953 2.00333 10.2147 2.13267C10.0667 2.238 10.0133 2.37867 10.0133 2.66667C10.0133 2.88733 10.022 2.93533 10.08 3.03867C10.1533 3.17 10.276 3.26533 10.4233 3.306C10.4767 3.32067 10.7033 3.33333 10.9267 3.33333H11.3333V5.33333V7.33333H8H4.66667V5.33333V3.33333H5.07334C5.29734 3.33333 5.52334 3.32067 5.57667 3.306C5.724 3.26533 5.84667 3.17 5.92 3.03867C5.978 2.93467 5.98667 2.888 5.986 2.66667C5.98534 2.378 5.932 2.23667 5.78534 2.13267C5.604 2.00333 5.55734 2 3.98934 2.002C2.862 2.00333 2.494 2.01133 2.40934 2.038Z" fill="#C28000"/>
</svg>
