<svg width="24" height="24" viewBox="0 0 24 24" fill="none" xmlns="http://www.w3.org/2000/svg">
<path fill-rule="evenodd" clip-rule="evenodd" d="M3.74902 2.04209C2.95702 2.12409 2.40002 2.37309 1.89002 2.87009C1.49102 3.26009 1.23602 3.73109 1.09402 4.34009C1.02402 4.64409 1.02002 4.94909 1.02002 10.5201V16.3801L1.11102 16.7351C1.22502 17.1841 1.37902 17.5051 1.65002 17.8581C2.03302 18.3571 2.59302 18.7181 3.24402 18.8841C3.56202 18.9661 3.70702 18.9721 5.96002 19.0001C8.19302 19.0271 8.35902 19.0341 8.64602 19.1121C9.19002 19.2591 9.72002 19.5831 10.045 19.9661C10.298 20.2641 10.924 21.1751 11.058 21.4401C11.206 21.7331 11.26 21.7881 11.529 21.9241C11.847 22.0851 12.153 22.0851 12.471 21.9241C12.74 21.7881 12.794 21.7331 12.943 21.4401C13.082 21.1661 13.58 20.4311 13.877 20.0631C14.245 19.6051 14.763 19.2721 15.354 19.1121C15.641 19.0341 15.808 19.0271 18.04 19.0001C20.258 18.9731 20.442 18.9651 20.74 18.8881C21.154 18.7821 21.383 18.6821 21.69 18.4731C22.324 18.0441 22.722 17.4491 22.906 16.6601C22.976 16.3561 22.98 16.0511 22.98 10.5001C22.98 4.94909 22.976 4.64409 22.906 4.34009C22.688 3.40409 22.167 2.73709 21.329 2.32109C20.742 2.03009 20.185 1.98309 17.72 2.01409C15.809 2.03809 15.293 2.07209 14.676 2.21509C13.832 2.41109 13.045 2.87309 12.382 3.56409L12 3.96209L11.618 3.56409C10.955 2.87309 10.168 2.41109 9.32402 2.21509C8.68002 2.06509 8.21302 2.03709 6.14002 2.02109C5.01802 2.01209 3.94202 2.02209 3.74902 2.04209ZM7.76002 4.03909C8.78102 4.09409 9.14502 4.18309 9.64202 4.50109C9.97602 4.71409 10.286 5.02409 10.499 5.35809C10.819 5.85909 10.907 6.22209 10.961 7.26009C11.005 8.11709 11.013 18.0931 10.97 18.0731C10.954 18.0661 10.782 17.9551 10.588 17.8261C10.03 17.4561 9.38202 17.2011 8.68002 17.0771C8.51602 17.0481 7.55302 17.0211 6.08002 17.0051L3.74002 16.9801L3.55002 16.8861C3.33502 16.7811 3.14202 16.5681 3.07002 16.3601C3.00802 16.1771 2.97702 5.48909 3.03702 4.94609C3.10202 4.36509 3.34202 4.10309 3.86602 4.04209C4.25602 3.99709 6.92902 3.99509 7.76002 4.03909ZM20.374 4.07709C20.584 4.14409 20.862 4.43009 20.928 4.64609C21.002 4.89209 21.005 16.0981 20.931 16.3401C20.863 16.5621 20.675 16.7761 20.45 16.8861L20.26 16.9801L17.92 17.0051C15.595 17.0311 15.375 17.0431 14.82 17.1851C14.316 17.3151 13.571 17.6721 13.194 17.9661C13.114 18.0291 13.038 18.0801 13.024 18.0801C12.985 18.0801 12.999 8.00209 13.039 7.24009C13.094 6.21909 13.183 5.85509 13.501 5.35809C13.714 5.02409 14.024 4.71409 14.358 4.50109C15.047 4.06109 15.542 4.00209 18.46 4.01809C19.717 4.02509 20.264 4.04209 20.374 4.07709Z" fill="#FF0000"/>
</svg>
