<svg width="24" height="24" viewBox="0 0 24 24" fill="none" xmlns="http://www.w3.org/2000/svg">
<path fill-rule="evenodd" clip-rule="evenodd" d="M18.8 1.42097C18.323 1.51797 17.887 1.71697 17.516 2.00597C17.047 2.37197 6.65597 12.034 6.48397 12.264C6.16797 12.688 5.95897 13.231 5.89797 13.78L5.87197 14.02L5.63197 14.006C5.49997 13.999 5.21097 14.014 4.98997 14.039C3.46097 14.217 2.07997 15.188 1.63897 16.395C1.39797 17.055 1.38597 17.181 1.38297 19.04C1.37997 20.908 1.38297 20.877 1.11397 21.548C1.00697 21.816 0.992967 21.893 1.00997 22.124C1.04197 22.574 1.25897 22.856 1.65597 22.965C1.76497 22.995 2.41297 23.012 3.57997 23.015C5.09697 23.019 5.40297 23.01 5.79997 22.948C7.17997 22.731 8.00997 22.353 8.73297 21.613C9.53397 20.794 9.99997 19.648 9.99997 18.499V18.129L10.23 18.102C10.602 18.057 10.919 17.965 11.26 17.801C11.577 17.648 12.074 17.263 12.303 16.991C12.368 16.915 14.444 14.667 16.918 11.996C19.392 9.32497 21.549 6.99597 21.711 6.81997C22.312 6.16797 22.595 5.52897 22.631 4.73697C22.679 3.66697 22.302 2.78797 21.505 2.11397C21.128 1.79597 20.532 1.50497 20.086 1.42197C19.687 1.34797 19.158 1.34697 18.8 1.42097ZM19.995 3.50097C20.23 3.62897 20.396 3.79897 20.529 4.05097C20.602 4.18797 20.619 4.28497 20.62 4.55997C20.62 4.86497 20.608 4.92097 20.5 5.10897C20.427 5.23597 18.884 6.93397 16.562 9.44097L12.744 13.564L11.592 12.412L10.44 11.261L10.57 11.134C11.079 10.635 18.651 3.65097 18.768 3.57197C19.013 3.40697 19.195 3.35697 19.503 3.37297C19.72 3.38397 19.834 3.41397 19.995 3.50097ZM10.195 13.815C10.841 14.462 11.363 15.01 11.355 15.035C11.347 15.059 11.161 15.271 10.942 15.505C10.498 15.98 10.275 16.119 9.95297 16.12C9.59697 16.12 9.43597 16.011 8.69597 15.268C8.08997 14.659 8.00297 14.555 7.94097 14.365C7.85697 14.11 7.87697 13.842 7.99597 13.608C8.07497 13.452 8.90097 12.64 8.97997 12.64C9.00197 12.64 9.54897 13.169 10.195 13.815ZM6.01997 16.06C7.35497 16.339 8.22197 17.675 7.93997 19.02C7.81097 19.635 7.38897 20.253 6.89997 20.541C6.34797 20.867 5.67597 20.995 4.33997 21.028L3.37997 21.052L3.38697 19.305C3.39197 18.231 3.41097 17.478 3.43797 17.349C3.53497 16.883 3.85897 16.522 4.42297 16.253C4.92897 16.011 5.47297 15.946 6.01997 16.06Z" fill="#FF0000"/>
</svg>
