<svg width="24" height="24" viewBox="0 0 24 24" fill="none" xmlns="http://www.w3.org/2000/svg">
<path fill-rule="evenodd" clip-rule="evenodd" d="M4.66673 15.6665H2.22224C1.89808 15.6665 1.5872 15.5378 1.35799 15.3086C1.12877 15.0793 1 14.7685 1 14.4443C1 14.1201 1.12877 13.8093 1.35799 13.58C1.5872 13.3508 1.89808 13.2221 2.22224 13.2221H4.66673V11.5879C4.45456 11.6529 4.22871 11.6589 4.01338 11.6053C3.79806 11.5517 3.6014 11.4405 3.44448 11.2836L1.71623 9.55533C1.49359 9.32482 1.3704 9.01607 1.37318 8.69561C1.37597 8.37514 1.50451 8.06859 1.73112 7.84197C1.95774 7.61536 2.26429 7.48682 2.58476 7.48403C2.90523 7.48125 3.21397 7.60444 3.44448 7.82708L4.83295 9.21555C5.0407 8.26404 5.43568 7.36337 5.9949 6.56599C6.55411 5.76861 7.26638 5.09046 8.09023 4.57103L6.6052 3.08723C6.37586 2.85805 6.24695 2.54715 6.24684 2.22292C6.24672 1.8987 6.37541 1.58771 6.60459 1.35836C6.83377 1.12902 7.14467 1.00011 7.4689 1C7.79312 0.999885 8.10411 1.12857 8.33345 1.35775L10.5616 3.58468C11.5113 3.39563 12.489 3.39563 13.4388 3.58468L15.6669 1.35775C15.8974 1.13511 16.2062 1.01192 16.5266 1.0147C16.8471 1.01749 17.1537 1.14603 17.3803 1.37264C17.6069 1.59926 17.7354 1.90581 17.7382 2.22628C17.741 2.54675 17.6178 2.85549 17.3952 3.086L15.9114 4.57225C16.7352 5.09168 17.4475 5.76983 18.0067 6.56721C18.5659 7.36459 18.9609 8.26526 19.1686 9.21677L20.5559 7.82586C20.7852 7.59668 21.0962 7.46799 21.4204 7.46811C21.7447 7.46822 22.0556 7.59713 22.2847 7.82647C22.5139 8.05581 22.6426 8.3668 22.6425 8.69103C22.6424 9.01525 22.5135 9.32615 22.2841 9.55533L20.5559 11.2836C20.3991 11.4407 20.2025 11.5521 19.9872 11.606C19.7718 11.6598 19.5459 11.654 19.3336 11.5891V13.2221H21.7781C22.1023 13.2221 22.4132 13.3508 22.6424 13.58C22.8716 13.8093 23.0004 14.1201 23.0004 14.4443C23.0004 14.7685 22.8716 15.0793 22.6424 15.3086C22.4132 15.5378 22.1023 15.6665 21.7781 15.6665H19.3336C19.3336 16.2569 19.264 16.8313 19.132 17.3826C19.3623 17.264 19.6243 17.2216 19.8802 17.2616C20.1361 17.3016 20.3727 17.4218 20.5559 17.605L22.2841 19.3333C22.5068 19.5638 22.63 19.8725 22.6272 20.193C22.6244 20.5135 22.4959 20.82 22.2692 21.0466C22.0426 21.2733 21.7361 21.4018 21.4156 21.4046C21.0951 21.4074 20.7864 21.2842 20.5559 21.0615L18.8276 19.3333C18.7149 19.221 18.6252 19.0877 18.5636 18.9409C17.955 20.1607 17.0184 21.1866 15.859 21.9036C14.6996 22.6206 13.3634 23.0003 12.0002 23C10.637 23.0003 9.30073 22.6206 8.14136 21.9036C6.98198 21.1866 6.0454 20.1607 5.43674 18.9409C5.3752 19.0877 5.28551 19.221 5.17274 19.3333L3.44448 21.0615C3.33174 21.1783 3.19687 21.2714 3.04775 21.3354C2.89863 21.3995 2.73825 21.4332 2.57596 21.4346C2.41367 21.436 2.25273 21.4051 2.10252 21.3436C1.95231 21.2822 1.81584 21.1914 1.70108 21.0767C1.58632 20.9619 1.49557 20.8254 1.43411 20.6752C1.37266 20.525 1.34173 20.3641 1.34314 20.2018C1.34455 20.0395 1.37827 19.8791 1.44233 19.73C1.50638 19.5809 1.5995 19.446 1.71623 19.3333L3.44448 17.605C3.62763 17.4218 3.86424 17.3016 4.12017 17.2616C4.37609 17.2216 4.63811 17.264 4.8684 17.3826C4.73397 16.8205 4.66628 16.2445 4.66673 15.6665ZM16.7351 9.55533H7.26522C7.53709 8.50636 8.14959 7.57735 9.00659 6.91416C9.86358 6.25096 10.9165 5.89112 12.0002 5.89112C13.0838 5.89112 14.1368 6.25096 14.9938 6.91416C15.8508 7.57735 16.4633 8.50636 16.7351 9.55533ZM16.7351 16.8888C16.4633 17.9378 15.8508 18.8668 14.9938 19.53C14.1368 20.1932 13.0838 20.553 12.0002 20.553C10.9165 20.553 9.86358 20.1932 9.00659 19.53C8.14959 18.8668 7.53709 17.9378 7.26522 16.8888H16.7351Z" fill="#FF0000"/>
</svg>
