<svg width="24" height="24" viewBox="0 0 24 24" fill="none" xmlns="http://www.w3.org/2000/svg">
<path fill-rule="evenodd" clip-rule="evenodd" d="M7.614 1.05714C7.377 1.13114 7.212 1.26114 7.109 1.45314C7.029 1.60314 7.019 1.68914 7.007 2.30514L6.994 2.99114L6.367 3.01814C5.29 3.06514 4.711 3.18114 4.16 3.46014C3.083 4.00514 2.355 4.97014 2.124 6.16014C2.013 6.72914 2 7.45514 2 13.0001C2 19.3581 2.006 19.5261 2.245 20.3201C2.577 21.4221 3.578 22.4231 4.68 22.7551C5.474 22.9941 5.642 23.0001 12 23.0001C18.358 23.0001 18.526 22.9941 19.32 22.7551C20.422 22.4231 21.423 21.4221 21.755 20.3201C21.994 19.5261 22 19.3581 22 13.0001C22 7.45514 21.987 6.72914 21.876 6.16014C21.68 5.14714 21.12 4.29014 20.287 3.72514C19.573 3.24114 18.954 3.07614 17.634 3.01814L17.008 2.99114L16.993 2.30514C16.975 1.52414 16.927 1.36414 16.649 1.18214C16.199 0.887135 15.426 0.979135 15.17 1.35814C15.029 1.56814 15 1.73914 15 2.39014V3.00014H12.004H9.008L8.993 2.31014C8.976 1.54114 8.93 1.37814 8.678 1.19914C8.414 1.01014 7.957 0.950135 7.614 1.05714ZM7 5.61014C7 5.94614 7.019 6.28514 7.041 6.36514C7.148 6.75014 7.437 6.96214 7.896 6.99114C8.381 7.02214 8.699 6.88214 8.88 6.55814C8.974 6.39114 8.981 6.33814 8.994 5.69014L9.008 5.00014H12.004H15V5.61014C15 5.94614 15.019 6.28514 15.041 6.36514C15.148 6.75014 15.437 6.96214 15.896 6.99114C16.381 7.02214 16.699 6.88214 16.88 6.55814C16.974 6.39114 16.981 6.33814 16.994 5.68514L17.008 4.99013L17.614 5.01814C18.655 5.06614 18.969 5.16814 19.4 5.60014C19.887 6.08614 19.952 6.34014 19.987 7.89014L20.012 9.00014H12H3.988L4.013 7.89014C4.047 6.40914 4.112 6.12014 4.52 5.66714C4.967 5.16914 5.422 5.03014 6.69 5.00614L7 5.00014V5.61014ZM19.989 15.1101C19.972 19.5641 19.975 19.4931 19.752 19.9521C19.626 20.2111 19.19 20.6381 18.918 20.7681C18.466 20.9851 18.627 20.9801 12 20.9801C5.383 20.9801 5.538 20.9851 5.082 20.7711C4.812 20.6431 4.377 20.2171 4.248 19.9521C4.025 19.4931 4.028 19.5641 4.011 15.1101L3.995 11.0001H12H20.005L19.989 15.1101ZM11.697 12.0361C11.527 12.1131 10.059 13.0791 9.784 13.2941C9.58 13.4541 9.423 13.7891 9.451 14.0011C9.501 14.3721 9.843 14.8581 10.142 14.9831C10.328 15.0611 10.562 15.0541 10.8 14.9641L11 14.8881V15.9381V16.9891L10.687 17.0101C10.042 17.0541 9.76 17.3551 9.76 18.0001C9.76 18.5051 9.951 18.8161 10.338 18.9371C10.521 18.9951 10.745 19.0021 12.084 18.9921C13.568 18.9801 13.625 18.9771 13.78 18.8941C14.106 18.7181 14.24 18.4591 14.24 18.0001C14.24 17.3551 13.958 17.0541 13.313 17.0101L13 16.9891V14.9211C13 12.6001 13.003 12.6321 12.712 12.3011C12.419 11.9681 12.055 11.8731 11.697 12.0361Z" fill="#FF0000"/>
</svg>
