<svg width="24" height="24" viewBox="0 0 24 24" fill="none" xmlns="http://www.w3.org/2000/svg">
<path fill-rule="evenodd" clip-rule="evenodd" d="M7.614 1.05689C7.377 1.13089 7.212 1.26089 7.109 1.45289C7.029 1.60289 7.019 1.68889 7.007 2.30489L6.994 2.99089L6.367 3.01789C5.29 3.06489 4.711 3.18089 4.16 3.45989C3.083 4.00489 2.355 4.96989 2.124 6.15989C2.013 6.72889 2 7.45489 2 12.9999C2 19.3579 2.006 19.5259 2.245 20.3199C2.577 21.4219 3.578 22.4229 4.68 22.7549C5.474 22.9939 5.642 22.9999 12 22.9999C18.358 22.9999 18.526 22.9939 19.32 22.7549C20.422 22.4229 21.423 21.4219 21.755 20.3199C21.994 19.5259 22 19.3579 22 12.9999C22 7.45489 21.987 6.72889 21.876 6.15989C21.68 5.14689 21.12 4.28989 20.287 3.72489C19.573 3.24089 18.954 3.07589 17.634 3.01789L17.008 2.99089L16.993 2.30489C16.975 1.52389 16.927 1.36389 16.649 1.18189C16.199 0.886891 15.426 0.978891 15.17 1.35789C15.029 1.56789 15 1.73889 15 2.38989V2.99989H12.004H9.008L8.993 2.30989C8.976 1.54089 8.93 1.37789 8.678 1.19889C8.414 1.00989 7.957 0.949891 7.614 1.05689ZM7 5.60989C7 5.94589 7.019 6.28489 7.041 6.36489C7.148 6.74989 7.437 6.96189 7.896 6.99089C8.381 7.02189 8.699 6.88189 8.88 6.55789C8.974 6.39089 8.981 6.33789 8.994 5.68989L9.008 4.99989H12.004H15V5.60989C15 5.94589 15.019 6.28489 15.041 6.36489C15.148 6.74989 15.437 6.96189 15.896 6.99089C16.381 7.02189 16.699 6.88189 16.88 6.55789C16.974 6.39089 16.981 6.33789 16.994 5.68489L17.008 4.98989L17.614 5.01789C18.655 5.06589 18.969 5.16789 19.4 5.59989C19.887 6.08589 19.952 6.33989 19.987 7.88989L20.012 8.99989H12H3.988L4.013 7.88989C4.047 6.40889 4.112 6.11989 4.52 5.66689C4.967 5.16889 5.422 5.02989 6.69 5.00589L7 4.99989V5.60989ZM19.989 15.1099C19.972 19.5639 19.975 19.4929 19.752 19.9519C19.626 20.2109 19.19 20.6379 18.918 20.7679C18.466 20.9849 18.627 20.9799 12 20.9799C5.383 20.9799 5.538 20.9849 5.082 20.7709C4.812 20.6429 4.377 20.2169 4.248 19.9519C4.025 19.4929 4.028 19.5639 4.011 15.1099L3.995 10.9999H12H20.005L19.989 15.1099ZM15.26 12.4869C15.194 12.5109 15.086 12.5669 15.02 12.6109C14.954 12.6549 14.023 13.5659 12.951 14.6339L11.002 16.5769L10.271 15.8539C9.857 15.4439 9.467 15.0939 9.372 15.0449C9.021 14.8679 8.64 14.9579 8.299 15.2989C7.952 15.6459 7.863 16.0099 8.04 16.3629C8.162 16.6069 10.393 18.8379 10.637 18.9599C10.868 19.0759 11.132 19.0759 11.363 18.9599C11.579 18.8519 16.216 14.2439 16.408 13.9469C16.655 13.5639 16.587 13.1819 16.202 12.7989C15.905 12.5029 15.541 12.3819 15.26 12.4869Z" fill="#FF0000"/>
</svg>
