<svg width="24" height="24" viewBox="0 0 24 24" fill="none" xmlns="http://www.w3.org/2000/svg">
<path fill-rule="evenodd" clip-rule="evenodd" d="M11.346 2.00981C11.276 2.01799 11.0469 2.04255 10.8369 2.06438C9.75248 2.1799 8.67076 2.49643 7.61903 3.00761C6.58731 3.50879 5.81283 4.06726 4.94473 4.935C4.07117 5.80728 3.49486 6.60952 2.99854 7.64644C1.36596 11.0555 1.75411 14.9831 4.02481 18.0274C4.45659 18.6059 5.41287 19.5582 6.001 19.9957C9.60431 22.6772 14.4239 22.6672 18.0335 19.9712C18.5871 19.5582 19.5598 18.585 19.9725 18.031C22.6758 14.4064 22.6758 9.58201 19.9725 5.95736C19.5598 5.40434 18.588 4.432 18.0363 4.02179C16.5864 2.94303 15.0593 2.31633 13.294 2.07621C12.9095 2.02345 11.6132 1.97979 11.346 2.00981ZM13.2003 3.8999C15.5301 4.25191 17.5672 5.56442 18.8726 7.55548C19.148 7.97661 19.5479 8.79159 19.7198 9.28367C20.0343 10.1869 20.1606 10.9618 20.1606 11.9942C20.1606 13.3522 19.9279 14.3746 19.3452 15.5797C19.1125 16.0618 18.5999 16.8859 18.448 17.0232C18.3817 17.0833 18.1726 16.8786 12.6404 11.343L6.90273 5.60172L7.0609 5.47347C7.60994 5.02777 8.61712 4.49658 9.41887 4.2319C10.0597 4.01997 10.5751 3.91537 11.4005 3.82987C11.6932 3.79985 12.8286 3.84351 13.2003 3.8999ZM17.09 18.3976C17.0891 18.4076 16.9627 18.5068 16.8082 18.6186C13.8157 20.7798 9.75611 20.6815 6.88274 18.3785C5.50741 17.2761 4.47568 15.6589 4.06208 13.9589C3.89301 13.2649 3.84029 12.8019 3.84029 11.9942C3.84029 10.9618 3.96664 10.1869 4.28115 9.28367C4.53295 8.56238 5.07654 7.55366 5.48377 7.05158L5.61194 6.89331L11.3514 12.6364C14.5084 15.7953 17.0909 18.3876 17.09 18.3976Z" fill="#FF0000"/>
</svg>
