<svg xmlns="http://www.w3.org/2000/svg" width="16" height="16" viewBox="0 0 16 16" fill="none">
  <path d="M5.30885 5.34959L3.10701 11.8916H1.33331L4.34138 4H5.47009L5.30885 5.34959ZM7.13815 11.8916L4.93076 5.34959L4.75283 4H5.89267L8.91741 11.8916H7.13815ZM7.03807 8.95393V10.2276H2.76228V8.95393H7.03807Z" fill="white"/>
  <path d="M12.8151 10.5691V7.95664C12.8151 7.76874 12.7836 7.60795 12.7206 7.47425C12.6576 7.33695 12.5593 7.23035 12.4259 7.15447C12.2962 7.07859 12.1275 7.04065 11.9199 7.04065C11.742 7.04065 11.5882 7.07136 11.4584 7.13279C11.3287 7.1906 11.2286 7.27552 11.1582 7.38753C11.0877 7.49593 11.0525 7.62421 11.0525 7.77236H9.45119C9.45119 7.52304 9.5105 7.28636 9.62912 7.06233C9.74773 6.8383 9.9201 6.64137 10.1462 6.47154C10.3723 6.2981 10.6411 6.1626 10.9524 6.06504C11.2675 5.96748 11.6197 5.9187 12.0089 5.9187C12.4759 5.9187 12.8911 5.99458 13.2544 6.14634C13.6176 6.2981 13.903 6.52575 14.1106 6.82927C14.3219 7.13279 14.4276 7.51219 14.4276 7.96748V10.477C14.4276 10.7986 14.4479 11.0623 14.4887 11.2683C14.5295 11.4706 14.5888 11.6477 14.6666 11.7995V11.8916H13.0486C12.9708 11.7326 12.9115 11.5339 12.8707 11.2954C12.8336 11.0533 12.8151 10.8112 12.8151 10.5691ZM13.0264 8.31978L13.0375 9.20325H12.1423C11.931 9.20325 11.7475 9.22674 11.5919 9.27371C11.4362 9.32069 11.3083 9.38753 11.2082 9.47425C11.1081 9.55736 11.034 9.65492 10.9858 9.76694C10.9413 9.87895 10.9191 10.0018 10.9191 10.1355C10.9191 10.2692 10.9506 10.3902 11.0136 10.4986C11.0766 10.6034 11.1674 10.6865 11.2861 10.748C11.4047 10.8058 11.5437 10.8347 11.7031 10.8347C11.944 10.8347 12.1534 10.7877 12.3314 10.6938C12.5093 10.5998 12.6464 10.4842 12.7428 10.3469C12.8429 10.2096 12.8948 10.0795 12.8985 9.95664L13.3211 10.6179C13.2618 10.766 13.1802 10.9196 13.0764 11.0786C12.9763 11.2376 12.8485 11.3875 12.6928 11.5285C12.5371 11.6658 12.3499 11.7796 12.1312 11.8699C11.9125 11.9566 11.653 12 11.3528 12C10.971 12 10.6244 11.9259 10.313 11.7778C10.0054 11.626 9.76071 11.4182 9.57907 11.1545C9.40115 10.8871 9.31218 10.5836 9.31218 10.2439C9.31218 9.93677 9.37149 9.66396 9.49011 9.42547C9.60873 9.18699 9.78295 8.98645 10.0128 8.82385C10.2463 8.65763 10.5373 8.53297 10.8857 8.44986C11.2342 8.36314 11.6382 8.31978 12.0978 8.31978H13.0264Z" fill="white"/>
</svg>
