<svg width="20" height="19" viewBox="0 0 20 19" fill="none" xmlns="http://www.w3.org/2000/svg">
<path d="M1 10C0.716667 10 0.479167 9.90417 0.2875 9.7125C0.0958333 9.52083 0 9.28333 0 9V7C0 6.71667 0.0958333 6.47917 0.2875 6.2875C0.479167 6.09583 0.716667 6 1 6C1.28333 6 1.52083 6.09583 1.7125 6.2875C1.90417 6.47917 2 6.71667 2 7V9C2 9.28333 1.90417 9.52083 1.7125 9.7125C1.52083 9.90417 1.28333 10 1 10ZM0.625 18.5C0.441667 18.4167 0.291667 18.3 0.175 18.15C0.0583333 18 0 17.8083 0 17.575V13C0 12.7167 0.0958333 12.4792 0.2875 12.2875C0.479167 12.0958 0.716667 12 1 12C1.28333 12 1.52083 12.0958 1.7125 12.2875C1.90417 12.4792 2 12.7167 2 13V15.125L3.15 14H5C5.28333 14 5.52083 14.0958 5.7125 14.2875C5.90417 14.4792 6 14.7167 6 15C6 15.2833 5.90417 15.5208 5.7125 15.7125C5.52083 15.9042 5.28333 16 5 16H4L1.7 18.3C1.53333 18.4667 1.35833 18.5625 1.175 18.5875C0.991667 18.6125 0.808333 18.5833 0.625 18.5ZM9 16C8.71667 16 8.47917 15.9042 8.2875 15.7125C8.09583 15.5208 8 15.2833 8 15C8 14.7167 8.09583 14.4792 8.2875 14.2875C8.47917 14.0958 8.71667 14 9 14H11C11.2833 14 11.5208 14.0958 11.7125 14.2875C11.9042 14.4792 12 14.7167 12 15C12 15.2833 11.9042 15.5208 11.7125 15.7125C11.5208 15.9042 11.2833 16 11 16H9ZM15 16C14.7167 16 14.4792 15.9042 14.2875 15.7125C14.0958 15.5208 14 15.2833 14 15C14 14.7167 14.0958 14.4792 14.2875 14.2875C14.4792 14.0958 14.7167 14 15 14H18V13C18 12.7167 18.0958 12.4792 18.2875 12.2875C18.4792 12.0958 18.7167 12 19 12C19.2833 12 19.5208 12.0958 19.7125 12.2875C19.9042 12.4792 20 12.7167 20 13V14C20 14.55 19.8042 15.0208 19.4125 15.4125C19.0208 15.8042 18.55 16 18 16H15ZM19 10C18.7167 10 18.4792 9.90417 18.2875 9.7125C18.0958 9.52083 18 9.28333 18 9V7C18 6.71667 18.0958 6.47917 18.2875 6.2875C18.4792 6.09583 18.7167 6 19 6C19.2833 6 19.5208 6.09583 19.7125 6.2875C19.9042 6.47917 20 6.71667 20 7V9C20 9.28333 19.9042 9.52083 19.7125 9.7125C19.5208 9.90417 19.2833 10 19 10ZM19 4.025C18.7167 4.025 18.4792 3.92917 18.2875 3.7375C18.0958 3.54583 18 3.30833 18 3.025V2H15C14.7167 2 14.4792 1.90417 14.2875 1.7125C14.0958 1.52083 14 1.28333 14 1C14 0.716667 14.0958 0.479167 14.2875 0.2875C14.4792 0.0958333 14.7167 0 15 0H18C18.55 0 19.0208 0.195833 19.4125 0.5875C19.8042 0.979167 20 1.45 20 2V3.025C20 3.30833 19.9042 3.54583 19.7125 3.7375C19.5208 3.92917 19.2833 4.025 19 4.025ZM9 2C8.71667 2 8.47917 1.90417 8.2875 1.7125C8.09583 1.52083 8 1.28333 8 1C8 0.716667 8.09583 0.479167 8.2875 0.2875C8.47917 0.0958333 8.71667 0 9 0H11C11.2833 0 11.5208 0.0958333 11.7125 0.2875C11.9042 0.479167 12 0.716667 12 1C12 1.28333 11.9042 1.52083 11.7125 1.7125C11.5208 1.90417 11.2833 2 11 2H9ZM1 4.025C0.716667 4.025 0.479167 3.92917 0.2875 3.7375C0.0958333 3.54583 0 3.30833 0 3.025V2C0 1.45 0.195833 0.979167 0.5875 0.5875C0.979167 0.195833 1.45 0 2 0H5C5.28333 0 5.52083 0.0958333 5.7125 0.2875C5.90417 0.479167 6 0.716667 6 1C6 1.28333 5.90417 1.52083 5.7125 1.7125C5.52083 1.90417 5.28333 2 5 2H2V3.025C2 3.30833 1.90417 3.54583 1.7125 3.7375C1.52083 3.92917 1.28333 4.025 1 4.025Z" fill="#FF0000"/>
</svg>
