<svg width="24" height="24" viewBox="0 0 24 24" fill="none" xmlns="http://www.w3.org/2000/svg">
<path fill-rule="evenodd" clip-rule="evenodd" d="M11.28 1.02388C11.203 1.03288 10.96 1.05888 10.74 1.08188C9.35904 1.22688 7.80203 1.73488 6.57903 2.43788C5.61403 2.99388 5.00203 3.46788 4.17903 4.29588C2.81303 5.67088 1.89903 7.25388 1.38403 9.13988C0.917035 10.8489 0.885035 12.7159 1.29303 14.4999C1.83303 16.8609 3.22403 19.0579 5.17003 20.6189C7.55803 22.5349 10.843 23.3719 13.86 22.8339C16.097 22.4349 18.007 21.4649 19.626 19.9059C21.002 18.5809 21.956 17.0339 22.5 15.2459C22.871 14.0289 22.979 13.2479 22.98 11.7769V10.6939L22.86 10.4989C22.68 10.2089 22.45 10.1029 22 10.1029C21.551 10.1029 21.32 10.2089 21.142 10.4969L21.023 10.6889L20.994 11.7539C20.978 12.3399 20.937 13.0179 20.902 13.2599C20.481 16.2059 18.634 18.7569 15.98 20.0589C13.837 21.1089 11.564 21.2799 9.26004 20.5629C6.87604 19.8209 4.82303 17.9899 3.80103 15.6929C2.42403 12.5969 2.87303 9.02288 4.97003 6.39488C6.39103 4.61288 8.40304 3.45888 10.72 3.09488C11.286 3.00688 12.601 2.99488 13.14 3.07488C13.984 3.19888 14.725 3.39688 15.434 3.68688C15.918 3.88388 16.16 3.93388 16.368 3.87788C16.884 3.73888 17.278 2.84288 17.018 2.40088C16.849 2.11288 16.407 1.87788 15.42 1.55488C14.377 1.21188 13.345 1.04088 12.2 1.02088C11.771 1.01288 11.357 1.01488 11.28 1.02388ZM21.62 3.04588C21.519 3.09688 19.705 4.88188 16.731 7.85288L12.002 12.5769L10.771 11.3559C9.90104 10.4929 9.48604 10.1089 9.35704 10.0469C8.99804 9.87588 8.65503 9.96088 8.29903 10.3109C7.95503 10.6489 7.86503 11.0209 8.04203 11.3749C8.10303 11.4979 8.65804 12.0779 9.83504 13.2519C11.483 14.8949 11.548 14.9539 11.77 15.0229C11.99 15.0919 12.01 15.0919 12.23 15.0239C12.457 14.9539 12.519 14.8939 17.666 9.74688C21.411 6.00088 22.897 4.48988 22.961 4.36288C23.136 4.00988 23.047 3.64488 22.701 3.29888C22.361 2.95888 21.968 2.86688 21.62 3.04588Z" fill="#FF0000"/>
</svg>
