<svg width="24" height="24" viewBox="0 0 24 24" fill="none" xmlns="http://www.w3.org/2000/svg">
<path fill-rule="evenodd" clip-rule="evenodd" d="M19.62 5.04606C19.519 5.09806 17.529 7.05706 14.23 10.3531L9 15.5791L6.77 13.3541C5.295 11.8811 4.483 11.1001 4.372 11.0441C4.02 10.8681 3.639 10.9591 3.299 11.2991C2.953 11.6451 2.863 12.0101 3.039 12.3631C3.164 12.6131 8.387 17.8361 8.637 17.9611C8.868 18.0761 9.132 18.0761 9.363 17.9611C9.615 17.8351 20.835 6.61506 20.961 6.36306C21.136 6.01006 21.047 5.64506 20.701 5.29906C20.361 4.95906 19.968 4.86706 19.62 5.04606Z" fill="#FF0000"/>
</svg>
