<svg width="24" height="24" viewBox="0 0 24 24" fill="none" xmlns="http://www.w3.org/2000/svg">
<path fill-rule="evenodd" clip-rule="evenodd" d="M8.62598 5.04492C8.41998 5.15392 8.14598 5.43292 8.03798 5.64392C7.92398 5.86692 7.92398 6.13192 8.03898 6.36292C8.10198 6.48692 8.94198 7.35592 10.853 9.26992L13.579 11.9999L10.853 14.7299C8.94198 16.6439 8.10198 17.5129 8.03898 17.6369C7.86298 17.9899 7.95198 18.3539 8.29898 18.7009C8.64498 19.0469 9.00998 19.1369 9.36298 18.9609C9.61298 18.8359 15.836 12.6129 15.961 12.3629C16.014 12.2559 16.049 12.1109 16.049 11.9999C16.049 11.8889 16.014 11.7439 15.961 11.6369C15.84 11.3939 9.61398 5.16392 9.37198 5.04392C9.15198 4.93392 8.83398 4.93492 8.62598 5.04492Z" fill="white"/>
</svg>
