<svg width="24" height="24" viewBox="0 0 24 24" fill="none" xmlns="http://www.w3.org/2000/svg">
  <path fill-rule="evenodd" clip-rule="evenodd" d="m 16.524926,5.04492 c -0.206,0.109 -0.48,0.388 -0.588,0.599 -0.114,0.223 -0.114,0.488 10e-4,0.719 0.063,0.124 0.903,0.993 2.814,2.907 l 2.726,2.72998 -2.726,2.73 c -1.911,1.914 -2.751,2.783 -2.814,2.907 -0.176,0.353 -0.087,0.717 0.26,1.064 0.346,0.346 0.711,0.436 1.064,0.26 0.25,-0.125 6.473,-6.348 6.598,-6.598 0.053,-0.107 0.088,-0.252 0.088,-0.363 0,-0.111 -0.035,-0.256 -0.088,-0.363 -0.121,-0.243 -6.347,-6.47298 -6.589,-6.59298 -0.22,-0.11 -0.538,-0.109 -0.746,0.001 z" fill="red" />
</svg>
