<svg width="16" height="16" viewBox="0 0 16 16" fill="none" xmlns="http://www.w3.org/2000/svg">
<path fill-rule="evenodd" clip-rule="evenodd" d="M3.75053 4.03C3.6132 4.10267 3.43054 4.28867 3.35854 4.42934C3.28254 4.57867 3.28253 4.75467 3.35987 4.90867C3.40053 4.99067 3.87387 5.48267 4.90187 6.51334L6.3852 8L4.90187 9.48667C3.87387 10.5173 3.40053 11.0093 3.35987 11.0913C3.24187 11.3267 3.3012 11.5693 3.53253 11.8007C3.7632 12.0313 4.00653 12.0913 4.24187 11.974C4.40853 11.8907 7.89053 8.40867 7.97387 8.242C8.05054 8.08801 8.05054 7.912 7.97387 7.758C7.8932 7.59667 4.40854 4.10934 4.24787 4.02934C4.1012 3.956 3.8892 3.95667 3.75053 4.03ZM8.4172 4.03C8.27987 4.10267 8.0972 4.28867 8.0252 4.42934C7.9492 4.57867 7.9492 4.75467 8.02653 4.90867C8.0672 4.99067 8.54053 5.48267 9.56853 6.51334L11.0519 8L9.56853 9.48667C8.54053 10.5173 8.0672 11.0093 8.02653 11.0913C7.90853 11.3267 7.96787 11.5693 8.1992 11.8007C8.42987 12.0313 8.6732 12.0913 8.90853 11.974C9.0752 11.8907 12.5572 8.40867 12.6405 8.242C12.7172 8.08801 12.7172 7.912 12.6405 7.758C12.5599 7.59667 9.0752 4.10934 8.91453 4.02934C8.76787 3.956 8.55587 3.95667 8.4172 4.03Z" fill="red"/>
</svg>
