<svg width="24" height="24" viewBox="0 0 24 24" fill="none" xmlns="http://www.w3.org/2000/svg">
<path fill-rule="evenodd" clip-rule="evenodd" d="M14.6199 5.04606C14.3829 5.16706 8.15393 11.4061 8.03893 11.6371C7.98593 11.7441 7.95093 11.8891 7.95093 12.0001C7.95093 12.1111 7.98593 12.2561 8.03893 12.3631C8.16393 12.6131 14.3869 18.8361 14.6369 18.9611C14.9899 19.1371 15.3549 19.0471 15.7009 18.7011C16.0479 18.3541 16.1369 17.9901 15.9609 17.6371C15.8979 17.5131 15.0579 16.6441 13.1469 14.7301L10.4209 12.0001L13.1469 9.27006C15.0579 7.35606 15.8979 6.48706 15.9609 6.36306C16.1369 6.01006 16.0479 5.64606 15.7009 5.29906C15.3609 4.95906 14.9679 4.86706 14.6199 5.04606Z" fill="#FF0000"/>
</svg>
