<svg width="24" height="24" viewBox="0 0 24 24" fill="none" xmlns="http://www.w3.org/2000/svg">
<path fill-rule="evenodd" clip-rule="evenodd" d="M8.6261 5.04492C8.4201 5.15392 8.1461 5.43292 8.0381 5.64392C7.9241 5.86692 7.9241 6.13192 8.0391 6.36292C8.1021 6.48692 8.9421 7.35592 10.8531 9.26992L13.5791 11.9999L10.8531 14.7299C8.9421 16.6439 8.1021 17.5129 8.0391 17.6369C7.8631 17.9899 7.9521 18.3539 8.2991 18.7009C8.6451 19.0469 9.0101 19.1369 9.3631 18.9609C9.6131 18.8359 15.8361 12.6129 15.9611 12.3629C16.0141 12.2559 16.0491 12.1109 16.0491 11.9999C16.0491 11.8889 16.0141 11.7439 15.9611 11.6369C15.8401 11.3939 9.6141 5.16392 9.3721 5.04392C9.1521 4.93392 8.8341 4.93492 8.6261 5.04492Z" fill="#FF0000"/>
</svg>
