<svg width="24" height="24" viewBox="0 0 24 24" fill="none" xmlns="http://www.w3.org/2000/svg">
<path fill-rule="evenodd" clip-rule="evenodd" d="M5.62601 8.04497C5.42001 8.15397 5.14601 8.43297 5.03801 8.64397C4.92401 8.86697 4.92401 9.13197 5.03901 9.36297C5.16401 9.61297 11.387 15.836 11.637 15.961C11.868 16.076 12.132 16.076 12.363 15.961C12.613 15.836 18.836 9.61297 18.961 9.36297C19.137 9.00997 19.047 8.64497 18.701 8.29897C18.361 7.95897 17.98 7.86797 17.628 8.04397C17.516 8.09997 16.558 9.02897 14.73 10.853L12 13.579L9.27001 10.853C7.44201 9.02897 6.48401 8.09997 6.37201 8.04397C6.15201 7.93397 5.83501 7.93497 5.62601 8.04497Z" fill="white"/>
</svg>
