<svg width="16" height="16" viewBox="0 0 16 16" fill="none" xmlns="http://www.w3.org/2000/svg">
<path fill-rule="evenodd" clip-rule="evenodd" d="M12.2495 11.97C12.3868 11.8973 12.5695 11.7113 12.6415 11.5707C12.7175 11.4213 12.7175 11.2453 12.6401 11.0913C12.5995 11.0093 12.1261 10.5173 11.0981 9.48667L9.6148 8L11.0981 6.51333C12.1261 5.48267 12.5995 4.99067 12.6401 4.90867C12.7581 4.67333 12.6988 4.43067 12.4675 4.19933C12.2368 3.96867 11.9935 3.90867 11.7581 4.026C11.5915 4.10933 8.1095 7.59133 8.0261 7.758C7.9495 7.91199 7.9495 8.088 8.0261 8.242C8.1068 8.40333 11.5915 11.8907 11.7521 11.9707C11.8988 12.044 12.1108 12.0433 12.2495 11.97ZM7.5828 11.97C7.72013 11.8973 7.9028 11.7113 7.9748 11.5707C8.0508 11.4213 8.0508 11.2453 7.97347 11.0913C7.9328 11.0093 7.45947 10.5173 6.43147 9.48667L4.9481 8L6.43147 6.51333C7.45947 5.48267 7.9328 4.99067 7.97347 4.90867C8.09147 4.67333 8.03213 4.43067 7.8008 4.19933C7.57013 3.96867 7.3268 3.90867 7.09147 4.026C6.9248 4.10933 3.4428 7.59133 3.3595 7.758C3.2828 7.91199 3.2828 8.088 3.3595 8.242C3.4401 8.40333 6.9248 11.8907 7.08547 11.9707C7.23213 12.044 7.44413 12.0433 7.5828 11.97Z" fill="red"/>
</svg>
