<svg width="24" height="24" viewBox="0 0 24 24" fill="none" xmlns="http://www.w3.org/2000/svg">
<path fill-rule="evenodd" clip-rule="evenodd" d="M10.92 2.56502C8.85998 2.80002 6.91098 3.72002 5.42398 5.15802C3.91098 6.62302 2.96698 8.41702 2.62198 10.485C2.46698 11.417 2.57198 11.795 3.04198 11.997C3.50898 12.198 4.04198 12.131 4.29098 11.84C4.45298 11.651 4.49598 11.518 4.57998 10.96C4.70498 10.125 4.88998 9.50502 5.21798 8.81602C6.25698 6.63602 8.13298 5.16202 10.52 4.65002C10.985 4.55002 11.088 4.54302 12 4.54302C12.86 4.54302 13.031 4.55402 13.4 4.63202C14.484 4.86202 15.522 5.31102 16.379 5.92302C16.822 6.23902 17.637 6.97702 17.592 7.02202C17.58 7.03302 17.466 7.01502 17.337 6.98102C16.665 6.80602 16.255 7.03202 16.083 7.67002C15.963 8.11502 16.064 8.50502 16.349 8.69802C16.546 8.83202 16.741 8.89302 18.337 9.31802C19.16 9.53702 19.771 9.68002 19.889 9.68002C20.236 9.68002 20.49 9.51102 20.642 9.18002C20.682 9.09202 20.898 8.33702 21.122 7.50202C21.578 5.79902 21.593 5.67502 21.389 5.36702C21.182 5.05302 20.545 4.84502 20.135 4.95602C19.866 5.02902 19.664 5.28302 19.536 5.71202L19.429 6.06902L19.2 5.80502C17.634 3.99602 15.395 2.81902 13.032 2.56202C12.581 2.51302 11.357 2.51502 10.92 2.56502ZM11.545 6.57902C11.46 6.60902 11.329 6.69402 11.253 6.76602C10.997 7.01502 10.996 7.02002 11.009 9.80402L11.02 12.3L11.129 12.486C11.272 12.729 11.389 12.81 12.86 13.689C14.002 14.371 14.369 14.56 14.551 14.56C15.086 14.558 15.662 13.769 15.519 13.236C15.441 12.946 15.197 12.752 14.05 12.064L13 11.435V9.36502C13 7.01802 12.998 6.99602 12.723 6.74702C12.636 6.66902 12.497 6.58602 12.413 6.56302C12.2 6.50402 11.731 6.51302 11.545 6.57902ZM20.26 11.898C20.238 11.907 20.151 11.925 20.068 11.939C19.857 11.974 19.621 12.196 19.543 12.433C19.509 12.536 19.454 12.809 19.419 13.04C19.256 14.143 18.909 15.089 18.333 16.006C16.879 18.319 14.195 19.686 11.51 19.481C9.81398 19.351 8.24598 18.69 6.97898 17.57C6.66298 17.291 6.35798 16.96 6.41598 16.96C6.42698 16.96 6.53998 16.987 6.66598 17.02C7.43898 17.221 7.90798 16.856 7.94998 16.02C7.96498 15.72 7.95898 15.689 7.84698 15.515C7.76098 15.381 7.66898 15.301 7.51398 15.226C7.21198 15.08 4.35298 14.32 4.10298 14.32C3.74498 14.32 3.45798 14.532 3.31898 14.9C3.18098 15.265 2.47998 18.002 2.47998 18.177C2.47998 18.58 2.73498 18.878 3.19798 19.016C3.85898 19.212 4.25598 18.983 4.46498 18.286L4.57098 17.931L4.80098 18.195C5.10998 18.552 5.75598 19.175 6.09998 19.448C7.43598 20.51 9.14598 21.214 10.94 21.442C11.477 21.511 12.616 21.501 13.2 21.424C14.684 21.227 16.033 20.721 17.267 19.896C17.883 19.485 18.263 19.167 18.803 18.614C20.189 17.192 21.027 15.529 21.379 13.501C21.535 12.602 21.424 12.202 20.966 12.007C20.792 11.933 20.349 11.865 20.26 11.898Z" fill="#FF1200"/>
</svg>
