<svg width="24" height="24" viewBox="0 0 24 24" fill="none" xmlns="http://www.w3.org/2000/svg">
<path fill-rule="evenodd" clip-rule="evenodd" d="M11.0801 2.04192C9.16506 2.22592 7.36006 2.94792 5.80006 4.15392C5.00506 4.76892 4.01506 5.88392 3.47006 6.77992C2.10606 9.01992 1.66606 11.7429 2.26006 14.2599C2.69706 16.1119 3.58106 17.7009 4.91906 19.0419C6.09406 20.2199 7.40406 21.0259 8.94706 21.5199C10.0231 21.8649 10.7781 21.9779 12.0001 21.9779C13.2221 21.9779 13.9771 21.8649 15.0531 21.5199C16.5961 21.0259 17.9061 20.2199 19.0811 19.0419C19.8921 18.2289 20.4731 17.4189 20.9601 16.4199C21.2851 15.7539 21.4791 15.2419 21.6471 14.6079C21.7151 14.3499 21.7771 14.1159 21.7851 14.0859C21.7951 14.0519 21.8741 14.0989 22.0101 14.2219C22.4421 14.6129 22.7821 14.6569 23.1921 14.3749C23.4821 14.1759 23.7211 13.8369 23.7501 13.5839C23.7931 13.1999 23.7441 13.1349 22.4251 11.8159C21.6521 11.0439 21.1631 10.5849 21.0601 10.5369C20.8541 10.4399 20.5461 10.4399 20.3401 10.5369C20.0981 10.6509 17.8281 12.9259 17.7231 13.1599C17.5611 13.5189 17.6491 13.8529 17.9981 14.2019C18.4941 14.6969 18.9051 14.6769 19.4861 14.1289C19.6551 13.9689 19.7601 13.8949 19.7601 13.9339C19.7601 14.0889 19.4151 15.0249 19.1831 15.4989C18.7491 16.3869 18.2231 17.1049 17.4961 17.8009C16.8761 18.3939 16.2621 18.8189 15.4711 19.1999C13.2671 20.2649 10.7331 20.2649 8.52906 19.1999C7.73806 18.8189 7.12406 18.3939 6.50406 17.8009C4.49506 15.8779 3.63006 13.1549 4.16106 10.4219C4.40306 9.17592 5.02306 7.88092 5.84806 6.89992C6.62206 5.97992 7.44006 5.33692 8.50006 4.81592C11.5091 3.33792 15.1451 3.91692 17.5541 6.25792C18.0481 6.73692 18.3371 7.08792 18.7351 7.69392C19.1651 8.34792 19.3971 8.51892 19.7851 8.46492C20.1361 8.41692 20.5981 8.10192 20.7241 7.82292C20.9121 7.41092 20.7501 7.01592 19.9631 5.95992C18.4001 3.86192 15.8911 2.41492 13.2401 2.08092C12.7611 2.01992 11.5321 1.99792 11.0801 2.04192ZM11.6141 6.05692C11.3771 6.13092 11.2121 6.26092 11.1091 6.45292L11.0201 6.61992V9.46292V12.3059L11.1401 12.5029C11.2491 12.6809 11.4151 12.8039 12.8601 13.7739C13.7401 14.3649 14.5501 14.8909 14.6601 14.9429C15.0421 15.1259 15.3981 15.0489 15.6971 14.7179C16.1201 14.2499 16.1491 13.7079 15.7701 13.3489C15.7061 13.2879 15.0611 12.8419 14.3371 12.3579L13.0201 11.4789L13.0001 9.04992C12.9801 6.63292 12.9801 6.61892 12.8911 6.45292C12.8421 6.36192 12.7461 6.24692 12.6781 6.19892C12.4141 6.00992 11.9571 5.94992 11.6141 6.05692Z" fill="#FF0000"/>
</svg>
