<svg width="24" height="24" viewBox="0 0 24 24" fill="none" xmlns="http://www.w3.org/2000/svg">
<path fill-rule="evenodd" clip-rule="evenodd" d="M11.28 1.02299C11.203 1.03199 10.951 1.05899 10.72 1.08299C8.83203 1.28299 6.99103 2.02299 5.36003 3.23499C4.75103 3.68799 3.68403 4.75499 3.22603 5.36699C0.728033 8.71399 0.301033 13.032 2.09703 16.78C2.64203 17.918 3.27603 18.8 4.23803 19.763C5.20203 20.728 6.13203 21.391 7.29003 21.938C9.09103 22.79 11.202 23.156 13.08 22.942C13.639 22.879 13.799 22.834 13.994 22.689C14.266 22.487 14.358 21.999 14.216 21.518C14.085 21.078 13.758 20.89 13.2 20.936C11.554 21.07 10.459 20.961 9.15003 20.533C8.51303 20.324 7.57803 19.871 7.04003 19.511C5.15703 18.249 3.79103 16.312 3.26703 14.16C3.08103 13.397 3.02303 12.888 3.02303 12C3.02303 10.507 3.28003 9.37899 3.92003 8.05999C4.79903 6.24699 6.24703 4.79899 8.06003 3.91999C9.37903 3.27999 10.507 3.02299 12 3.02299C13.493 3.02299 14.621 3.27999 15.94 3.91999C17.753 4.79899 19.201 6.24699 20.08 8.05999C20.81 9.56499 21.082 11.012 20.959 12.739C20.897 13.616 20.917 13.732 21.177 13.983C21.382 14.18 21.629 14.261 22.02 14.259C22.624 14.255 22.843 13.977 22.943 13.088C23.24 10.424 22.449 7.61299 20.77 5.36299C20.316 4.75499 19.247 3.68599 18.64 3.23499C17.045 2.04899 15.365 1.35999 13.423 1.09599C13 1.03799 11.574 0.989989 11.28 1.02299ZM11.614 5.05699C11.377 5.13099 11.212 5.26099 11.109 5.45299L11.02 5.61999L11.008 8.87999C11 11.26 11.009 12.185 11.043 12.308C11.148 12.688 11.188 12.713 13.466 13.852C15.535 14.886 15.565 14.9 15.811 14.9C16.116 14.9 16.282 14.813 16.482 14.547C16.747 14.197 16.845 13.72 16.708 13.455C16.571 13.19 16.381 13.075 14.691 12.227L13.002 11.38L12.991 8.49999L12.98 5.61999L12.891 5.45299C12.842 5.36199 12.746 5.24699 12.678 5.19899C12.414 5.00999 11.957 4.94999 11.614 5.05699ZM18.614 15.057C18.377 15.131 18.212 15.261 18.109 15.453C18.024 15.613 18.02 15.668 18.008 16.81L17.996 18H16.904C15.744 18 15.57 18.022 15.322 18.199C15.1 18.357 15.02 18.568 15.02 19C15.02 19.331 15.033 19.403 15.12 19.558C15.23 19.755 15.414 19.898 15.635 19.959C15.716 19.982 16.27 20 16.89 20H18V21.11C18 21.73 18.018 22.284 18.041 22.365C18.148 22.75 18.437 22.962 18.896 22.991C19.381 23.022 19.699 22.882 19.88 22.558C19.979 22.381 19.98 22.374 19.993 21.19L20.005 20H21.113C21.731 20 22.284 19.982 22.365 19.959C22.586 19.898 22.77 19.755 22.88 19.558C22.967 19.402 22.98 19.332 22.979 19C22.978 18.567 22.898 18.355 22.678 18.199C22.43 18.022 22.256 18 21.096 18H20.005L19.993 16.81C19.981 15.669 19.976 15.613 19.891 15.453C19.842 15.362 19.746 15.247 19.678 15.199C19.414 15.01 18.957 14.95 18.614 15.057Z" fill="#FF0000"/>
</svg>
