<svg width="24" height="24" viewBox="0 0 24 24" fill="none" xmlns="http://www.w3.org/2000/svg">
<path fill-rule="evenodd" clip-rule="evenodd" d="M11.28 1.02299C11.203 1.03199 10.951 1.05899 10.72 1.08299C9.52703 1.20999 8.33703 1.55799 7.18003 2.11999C6.04503 2.67099 5.19303 3.28499 4.23803 4.23899C3.27703 5.19799 2.64303 6.07999 2.09703 7.21999C0.301033 10.968 0.728033 15.286 3.22603 18.633C3.70103 19.269 4.75303 20.316 5.40003 20.797C9.36403 23.745 14.666 23.734 18.637 20.77C19.246 20.316 20.316 19.246 20.77 18.637C23.744 14.652 23.744 9.34799 20.77 5.36299C20.316 4.75499 19.247 3.68599 18.64 3.23499C17.045 2.04899 15.365 1.35999 13.423 1.09599C13 1.03799 11.574 0.989989 11.28 1.02299ZM13.32 3.10099C15.883 3.48799 18.124 4.93099 19.56 7.11999C19.863 7.58299 20.303 8.47899 20.492 9.01999C20.838 10.013 20.977 10.865 20.977 12C20.977 13.493 20.72 14.621 20.08 15.94C19.375 17.394 18.311 18.607 16.927 19.532C16.138 20.06 14.876 20.588 13.908 20.797C11.266 21.366 8.47903 20.708 6.37003 19.019C4.85703 17.807 3.72203 16.029 3.26703 14.16C3.08103 13.397 3.02303 12.888 3.02303 12C3.02303 10.507 3.28003 9.37899 3.92003 8.05999C4.97103 5.89099 6.87703 4.22099 9.16003 3.46599C9.86503 3.23299 10.432 3.11799 11.34 3.02399C11.662 2.99099 12.911 3.03899 13.32 3.10099ZM11.614 5.05699C11.377 5.13099 11.212 5.26099 11.109 5.45299L11.02 5.61999L11.008 8.87999C11 11.26 11.009 12.185 11.043 12.308C11.148 12.69 11.178 12.708 13.576 13.907C15.988 15.113 16.013 15.122 16.381 14.982C16.694 14.862 16.984 14.415 17.028 13.98C17.057 13.704 16.938 13.443 16.705 13.272C16.614 13.206 15.744 12.754 14.771 12.267L13.002 11.382L12.991 8.50099L12.98 5.61999L12.891 5.45299C12.842 5.36199 12.746 5.24699 12.678 5.19899C12.414 5.00999 11.957 4.94999 11.614 5.05699Z" fill="#FF0000"/>
</svg>
