<svg width="24" height="24" viewBox="0 0 24 24" fill="none" xmlns="http://www.w3.org/2000/svg">
<path fill-rule="evenodd" clip-rule="evenodd" d="M11.28 1.02299C11.203 1.03199 10.951 1.05899 10.72 1.08299C9.52703 1.20999 8.33703 1.55799 7.18003 2.11999C6.04503 2.67099 5.19303 3.28499 4.23803 4.23899C3.27703 5.19799 2.64303 6.07999 2.09703 7.21999C0.301033 10.968 0.728033 15.286 3.22603 18.633C3.70103 19.269 4.75303 20.316 5.40003 20.797C7.44603 22.319 9.84403 23.071 12.38 22.987C13.438 22.952 13.743 22.841 13.921 22.428C14.081 22.058 13.974 21.41 13.715 21.172C13.498 20.973 13.382 20.955 12.488 20.984C11.2 21.027 10.276 20.902 9.15003 20.533C8.51303 20.324 7.57803 19.871 7.04003 19.511C5.15703 18.249 3.79103 16.312 3.26703 14.16C3.08103 13.397 3.02303 12.888 3.02303 12C3.02303 10.507 3.28003 9.37899 3.92003 8.05999C4.79903 6.24699 6.24703 4.79899 8.06003 3.91999C9.37903 3.27999 10.507 3.02299 12 3.02299C13.493 3.02299 14.621 3.27999 15.94 3.91999C18.328 5.07699 20.11 7.27899 20.733 9.83999C20.938 10.681 20.975 11.054 20.978 12.28C20.98 13.263 20.989 13.437 21.046 13.54C21.205 13.829 21.468 13.961 21.94 13.989C22.235 14.007 22.277 13.999 22.48 13.892C22.884 13.678 22.997 13.274 22.999 12.02C23.003 9.62599 22.231 7.32099 20.77 5.36299C20.316 4.75499 19.247 3.68599 18.64 3.23499C17.045 2.04899 15.365 1.35999 13.423 1.09599C13 1.03799 11.574 0.989989 11.28 1.02299ZM11.614 5.05699C11.377 5.13099 11.212 5.26099 11.109 5.45299L11.02 5.61999L11.008 8.87999C11 11.26 11.009 12.185 11.043 12.308C11.148 12.688 11.188 12.713 13.466 13.852C15.535 14.886 15.565 14.9 15.811 14.9C16.116 14.9 16.282 14.813 16.482 14.547C16.747 14.197 16.845 13.72 16.708 13.455C16.571 13.19 16.381 13.075 14.691 12.227L13.002 11.38L12.991 8.49999L12.98 5.61999L12.891 5.45299C12.842 5.36199 12.746 5.24699 12.678 5.19899C12.414 5.00999 11.957 4.94999 11.614 5.05699ZM16.18 16.039C15.715 16.159 15.514 16.447 15.512 16.997C15.51 17.348 15.582 17.556 15.771 17.751C15.995 17.983 16.128 18 17.697 18H19.1L17.351 19.75C15.53 21.574 15.442 21.677 15.442 22C15.442 22.323 15.741 22.734 16.1 22.904L16.3 22.999L19.003 23C21.995 23 21.988 23.001 22.229 22.751C22.418 22.556 22.486 22.355 22.486 21.997C22.486 21.491 22.303 21.196 21.909 21.064C21.748 21.01 21.493 21 20.309 21H18.9L20.629 19.27C21.886 18.012 22.375 17.496 22.423 17.38C22.572 17.02 22.472 16.47 22.215 16.234C21.96 15.999 21.973 16 19.009 16.004C17.519 16.006 16.246 16.022 16.18 16.039Z" fill="#FF0000"/>
</svg>
