<svg width="24" height="24" viewBox="0 0 24 24" fill="none" xmlns="http://www.w3.org/2000/svg">
<path fill-rule="evenodd" clip-rule="evenodd" d="M5.62598 5.04497C5.41998 5.15397 5.14598 5.43297 5.03798 5.64397C4.92398 5.86697 4.92398 6.13197 5.03898 6.36297C5.10198 6.48697 5.94198 7.35597 7.85298 9.26997L10.579 12L7.85298 14.73C5.94198 16.644 5.10198 17.513 5.03898 17.637C4.86298 17.99 4.95198 18.354 5.29898 18.701C5.64598 19.048 6.00998 19.137 6.36298 18.961C6.48698 18.898 7.35598 18.058 9.26998 16.147L12 13.421L14.73 16.147C16.644 18.058 17.513 18.898 17.637 18.961C17.99 19.137 18.354 19.048 18.701 18.701C19.048 18.354 19.137 17.99 18.961 17.637C18.898 17.513 18.058 16.644 16.147 14.73L13.421 12L16.147 9.26997C18.058 7.35597 18.898 6.48697 18.961 6.36297C19.137 6.00997 19.048 5.64597 18.701 5.29897C18.361 4.95897 17.98 4.86797 17.628 5.04397C17.516 5.09997 16.558 6.02897 14.73 7.85297L12 10.579L9.26998 7.85297C7.44198 6.02897 6.48398 5.09997 6.37198 5.04397C6.15198 4.93397 5.83498 4.93497 5.62598 5.04497Z" fill="#FF0000"/>
</svg>
