<svg width="16" height="16" viewBox="0 0 16 16" fill="none" xmlns="http://www.w3.org/2000/svg">
<path fill-rule="evenodd" clip-rule="evenodd" d="M1.75067 1.36333C1.61333 1.436 1.43067 1.622 1.35867 1.76267C1.28267 1.912 1.28267 2.08867 1.36 2.242C1.40067 2.32267 1.82067 2.76267 2.70133 3.646L3.98333 4.93133L3.83133 5.23867C3.74733 5.408 3.638 5.66867 3.58733 5.81867L3.496 6.09067L3.23467 6.174C2.05533 6.55 1.15533 7.47133 0.814 8.65267C0.446667 9.92333 0.789334 11.2787 1.71533 12.222C2.29533 12.8133 2.99733 13.1707 3.81933 13.294C4.03933 13.3273 4.69 13.3333 7.998 13.3333C10.64 13.3333 11.9833 13.324 12.1213 13.3047L12.3273 13.276L12.9833 13.928C13.402 14.3433 13.6827 14.602 13.758 14.64C13.9927 14.758 14.236 14.6987 14.4673 14.4673C14.6993 14.236 14.758 13.992 14.6393 13.758C14.6013 13.6833 14.288 13.3433 13.7807 12.8267C13.3413 12.3793 12.974 12.0067 12.964 11.998C12.9547 11.9893 10.5647 9.60533 7.65333 6.70067C3.99933 3.054 2.32533 1.40133 2.248 1.36267C2.10133 1.28933 1.88933 1.29 1.75067 1.36333ZM7.50933 2.696C6.99733 2.75 6.68133 2.85533 6.56733 3.00933C6.424 3.20333 6.422 3.49533 6.562 3.78133C6.706 4.07533 6.90133 4.14667 7.34667 4.07C8.55267 3.862 9.61267 4.20133 10.428 5.05667C10.8587 5.50867 11.0927 5.95467 11.2553 6.63533C11.3413 6.99667 11.3607 7.04467 11.4633 7.156C11.5687 7.26933 11.6453 7.3 11.9773 7.358C12.4393 7.44 12.708 7.546 13.0267 7.774C13.868 8.376 14.1933 9.414 13.864 10.4427C13.7167 10.9053 13.7887 11.146 14.128 11.3167C14.3313 11.4193 14.5333 11.4547 14.682 11.4127C14.916 11.3473 15.05 11.1527 15.186 10.6807C15.554 9.40533 15.2027 8.03133 14.2713 7.098C13.834 6.66 13.3347 6.354 12.7627 6.17267L12.4993 6.08933L12.422 5.85133C12.3267 5.55867 12.1053 5.09333 11.934 4.82733C10.9787 3.34133 9.25667 2.512 7.50933 2.696ZM8.02667 8.974L11.0533 12.0007L7.48 11.9933L3.90667 11.986L3.72 11.928C3.31067 11.8007 3.02267 11.6333 2.72333 11.3487C2.42 11.0593 2.18 10.6607 2.07467 10.27C1.994 9.974 1.99333 9.38 2.07333 9.076C2.266 8.34 2.85067 7.71067 3.57267 7.46267C3.65333 7.43467 3.856 7.388 4.02333 7.358C4.35333 7.3 4.402 7.282 4.516 7.17667C4.626 7.07467 4.65533 7.00467 4.74333 6.63533C4.82067 6.31333 4.948 5.94667 4.98267 5.94667C4.99267 5.94667 6.362 7.30867 8.02667 8.974Z" fill="#050505"/>
<path fill-rule="evenodd" clip-rule="evenodd" d="M1.75067 1.36333C1.61333 1.436 1.43067 1.622 1.35867 1.76267C1.28267 1.912 1.28267 2.08867 1.36 2.242C1.40067 2.32267 1.82067 2.76267 2.70133 3.646L3.98333 4.93133L3.83133 5.23867C3.74733 5.408 3.638 5.66867 3.58733 5.81867L3.496 6.09067L3.23467 6.174C2.05533 6.55 1.15533 7.47133 0.814 8.65267C0.446667 9.92333 0.789334 11.2787 1.71533 12.222C2.29533 12.8133 2.99733 13.1707 3.81933 13.294C4.03933 13.3273 4.69 13.3333 7.998 13.3333C10.64 13.3333 11.9833 13.324 12.1213 13.3047L12.3273 13.276L12.9833 13.928C13.402 14.3433 13.6827 14.602 13.758 14.64C13.9927 14.758 14.236 14.6987 14.4673 14.4673C14.6993 14.236 14.758 13.992 14.6393 13.758C14.6013 13.6833 14.288 13.3433 13.7807 12.8267C13.3413 12.3793 12.974 12.0067 12.964 11.998C12.9547 11.9893 10.5647 9.60533 7.65333 6.70067C3.99933 3.054 2.32533 1.40133 2.248 1.36267C2.10133 1.28933 1.88933 1.29 1.75067 1.36333ZM7.50933 2.696C6.99733 2.75 6.68133 2.85533 6.56733 3.00933C6.424 3.20333 6.422 3.49533 6.562 3.78133C6.706 4.07533 6.90133 4.14667 7.34667 4.07C8.55267 3.862 9.61267 4.20133 10.428 5.05667C10.8587 5.50867 11.0927 5.95467 11.2553 6.63533C11.3413 6.99667 11.3607 7.04467 11.4633 7.156C11.5687 7.26933 11.6453 7.3 11.9773 7.358C12.4393 7.44 12.708 7.546 13.0267 7.774C13.868 8.376 14.1933 9.414 13.864 10.4427C13.7167 10.9053 13.7887 11.146 14.128 11.3167C14.3313 11.4193 14.5333 11.4547 14.682 11.4127C14.916 11.3473 15.05 11.1527 15.186 10.6807C15.554 9.40533 15.2027 8.03133 14.2713 7.098C13.834 6.66 13.3347 6.354 12.7627 6.17267L12.4993 6.08933L12.422 5.85133C12.3267 5.55867 12.1053 5.09333 11.934 4.82733C10.9787 3.34133 9.25667 2.512 7.50933 2.696ZM8.02667 8.974L11.0533 12.0007L7.48 11.9933L3.90667 11.986L3.72 11.928C3.31067 11.8007 3.02267 11.6333 2.72333 11.3487C2.42 11.0593 2.18 10.6607 2.07467 10.27C1.994 9.974 1.99333 9.38 2.07333 9.076C2.266 8.34 2.85067 7.71067 3.57267 7.46267C3.65333 7.43467 3.856 7.388 4.02333 7.358C4.35333 7.3 4.402 7.282 4.516 7.17667C4.626 7.07467 4.65533 7.00467 4.74333 6.63533C4.82067 6.31333 4.948 5.94667 4.98267 5.94667C4.99267 5.94667 6.362 7.30867 8.02667 8.974Z" fill="white" fill-opacity="0.6"/>
</svg>
