<svg width="24" height="24" viewBox="0 0 24 24" fill="none" xmlns="http://www.w3.org/2000/svg">
<path fill-rule="evenodd" clip-rule="evenodd" d="M11.3001 4.04492C9.21012 4.24092 7.25612 5.44192 6.09912 7.24092C5.84212 7.63992 5.51012 8.33792 5.36712 8.77692L5.25112 9.13392L4.85612 9.25992C3.08312 9.82492 1.73312 11.2059 1.22112 12.9789C0.670118 14.8849 1.18412 16.9179 2.57312 18.3329C3.44312 19.2199 4.49612 19.7559 5.72912 19.9409C6.05912 19.9909 7.03612 19.9999 12.0001 19.9999C18.3631 19.9999 18.2461 20.0039 19.0011 19.7839C19.6941 19.5829 20.1991 19.3329 20.7631 18.9149C23.1251 17.1639 23.6951 13.9139 22.0721 11.4559C21.4001 10.4389 20.3281 9.63392 19.1441 9.25892L18.7491 9.13392L18.6331 8.77692C18.4901 8.33792 18.1581 7.63992 17.9011 7.24092C16.4701 5.01392 13.9541 3.79592 11.3001 4.04492ZM12.6201 6.04392C13.7811 6.18692 14.8081 6.70992 15.6421 7.58492C16.2881 8.26292 16.6391 8.93192 16.8831 9.95292C17.0121 10.4949 17.0411 10.5669 17.1951 10.7339C17.3531 10.9039 17.4681 10.9499 17.9661 11.0369C18.2161 11.0819 18.5201 11.1519 18.6411 11.1939C19.7241 11.5659 20.6031 12.5119 20.8891 13.6139C21.0031 14.0509 21.0111 14.8819 20.9061 15.3199C20.6121 16.5489 19.6281 17.5479 18.3601 17.9059C18.1131 17.9759 17.8001 17.9799 12.0001 17.9799C5.22312 17.9799 5.77512 18.0009 5.11112 17.7189C4.18112 17.3239 3.38012 16.3969 3.11212 15.4049C2.99112 14.9609 2.99012 14.0699 3.11012 13.6139C3.39912 12.5099 4.27612 11.5659 5.35912 11.1939C5.48012 11.1519 5.78412 11.0819 6.03512 11.0369C6.53012 10.9499 6.60312 10.9229 6.77412 10.7649C6.93912 10.6119 6.98812 10.4979 7.11812 9.94792C7.36212 8.92092 7.71212 8.25792 8.37812 7.56592C9.50712 6.38992 11.0191 5.84792 12.6201 6.04392Z" fill="#FF0000"/>
</svg>
