<svg width="24" height="24" viewBox="0 0 24 24" fill="none" xmlns="http://www.w3.org/2000/svg">
<path fill-rule="evenodd" clip-rule="evenodd" d="M11.3001 4.04492C9.21012 4.24092 7.25612 5.44192 6.09912 7.24092C5.84212 7.63992 5.51012 8.33792 5.36712 8.77692L5.25112 9.13392L4.85612 9.25992C3.08312 9.82492 1.73312 11.2059 1.22112 12.9789C0.670118 14.8849 1.18412 16.9179 2.57312 18.3329C3.44312 19.2199 4.49612 19.7559 5.72912 19.9409C6.05912 19.9909 7.03612 19.9999 12.0001 19.9999C18.3631 19.9999 18.2461 20.0039 19.0011 19.7839C19.6941 19.5829 20.1991 19.3329 20.7631 18.9149C23.1251 17.1639 23.6951 13.9139 22.0721 11.4559C21.4001 10.4389 20.3281 9.63392 19.1441 9.25892L18.7491 9.13392L18.6331 8.77692C18.4901 8.33792 18.1581 7.63992 17.9011 7.24092C16.4701 5.01392 13.9541 3.79592 11.3001 4.04492Z" fill="#FF0000"/>
</svg>
