<svg width="24" height="24" viewBox="0 0 24 24" fill="none" xmlns="http://www.w3.org/2000/svg">
<path fill-rule="evenodd" clip-rule="evenodd" d="M2.62612 2.04492C2.42012 2.15392 2.14612 2.43292 2.03812 2.64392C1.92412 2.86792 1.92412 3.13292 2.04012 3.36292C2.10112 3.48392 2.73112 4.14392 4.05212 5.46892L5.97512 7.39692L5.74712 7.85792C5.62112 8.11192 5.45712 8.50292 5.38112 8.72792L5.24412 9.13592L4.85212 9.26092C3.08312 9.82492 1.73312 11.2069 1.22112 12.9789C0.670118 14.8849 1.18412 16.9179 2.57312 18.3329C3.44312 19.2199 4.49612 19.7559 5.72912 19.9409C6.05912 19.9909 7.03512 19.9999 11.9971 19.9999C15.9601 19.9999 17.9751 19.9859 18.1821 19.9569L18.4911 19.9139L19.4751 20.8919C20.1031 21.5149 20.5241 21.9029 20.6371 21.9599C20.9891 22.1369 21.3541 22.0479 21.7011 21.7009C22.0491 21.3539 22.1371 20.9879 21.9591 20.6369C21.9021 20.5249 21.4321 20.0149 20.6711 19.2399C20.0121 18.5689 19.4611 18.0099 19.4461 17.9969C19.4321 17.9839 15.8471 14.4079 11.4801 10.0509C5.99912 4.58092 3.48812 2.10192 3.37212 2.04392C3.15212 1.93392 2.83412 1.93492 2.62612 2.04492ZM11.2641 4.04392C10.4961 4.12492 10.0221 4.28292 9.85112 4.51392C9.63612 4.80492 9.63312 5.24292 9.84312 5.67192C10.0591 6.11292 10.3521 6.21992 11.0201 6.10492C12.8291 5.79292 14.4191 6.30192 15.6421 7.58492C16.2881 8.26292 16.6391 8.93192 16.8831 9.95292C17.0121 10.4949 17.0411 10.5669 17.1951 10.7339C17.3531 10.9039 17.4681 10.9499 17.9661 11.0369C18.6591 11.1599 19.0621 11.3189 19.5401 11.6609C20.8021 12.5639 21.2901 14.1209 20.7961 15.6639C20.5751 16.3579 20.6831 16.7189 21.1921 16.9749C21.4971 17.1289 21.8001 17.1819 22.0231 17.1189C22.3741 17.0209 22.5751 16.7289 22.7791 16.0209C23.3311 14.1079 22.8041 12.0469 21.4071 10.6469C20.7511 9.98992 20.0021 9.53092 19.1441 9.25892L18.7491 9.13392L18.6331 8.77692C18.4901 8.33792 18.1581 7.63992 17.9011 7.24092C16.4681 5.01192 13.8851 3.76792 11.2641 4.04392ZM12.0401 13.4609L16.5801 18.0009L11.2201 17.9899L5.86012 17.9789L5.58012 17.8919C4.96612 17.7009 4.53412 17.4499 4.08512 17.0229C3.63012 16.5889 3.27012 15.9909 3.11212 15.4049C2.99112 14.9609 2.99012 14.0699 3.11012 13.6139C3.39912 12.5099 4.27612 11.5659 5.35912 11.1939C5.48012 11.1519 5.78412 11.0819 6.03512 11.0369C6.53012 10.9499 6.60312 10.9229 6.77412 10.7649C6.93912 10.6119 6.98312 10.5069 7.11512 9.95292C7.23112 9.46992 7.42212 8.91992 7.47412 8.91992C7.48912 8.91992 9.54312 10.9629 12.0401 13.4609Z" fill="#FF0000"/>
</svg>
