<svg width="24" height="24" viewBox="0 0 24 24" fill="none" xmlns="http://www.w3.org/2000/svg">
<path fill-rule="evenodd" clip-rule="evenodd" d="M13.4759 2.09289C13.1109 2.28589 13.2819 1.61189 11.0379 11.7059C9.63289 18.0219 9.00189 20.9339 9.00089 21.0969C8.99889 21.6549 9.41589 21.9999 10.0939 21.9999C10.5319 21.9999 10.8429 21.7509 10.9529 21.3109C10.9769 21.2169 11.8969 17.0859 12.9979 12.1299C14.3489 6.04789 14.9999 3.04589 14.9999 2.89289C14.9999 2.61989 14.8929 2.37389 14.7179 2.24489C14.3849 1.99889 13.7919 1.92589 13.4759 2.09289ZM6.61989 6.04589C6.38389 6.16689 1.15389 11.4069 1.03889 11.6369C0.923887 11.8679 0.923887 12.1319 1.03889 12.3629C1.16389 12.6129 6.38689 17.8359 6.63689 17.9609C6.98989 18.1369 7.35489 18.0469 7.70089 17.7009C8.04789 17.3539 8.13689 16.9899 7.95989 16.6369C7.89889 16.5139 7.18889 15.7759 5.64689 14.2299L3.42189 11.9999L5.64689 9.76989C7.18889 8.22389 7.89889 7.48589 7.95989 7.36289C8.13689 7.00989 8.04789 6.64589 7.70089 6.29889C7.36089 5.95889 6.96789 5.86689 6.61989 6.04589ZM16.6259 6.04489C16.4199 6.15389 16.1459 6.43289 16.0379 6.64389C15.9239 6.86789 15.9239 7.13189 16.0399 7.36289C16.1009 7.48589 16.8109 8.22389 18.3529 9.76989L20.5779 11.9999L18.3529 14.2299C16.8109 15.7759 16.1009 16.5139 16.0399 16.6369C15.8629 16.9899 15.9519 17.3539 16.2989 17.7009C16.6449 18.0469 17.0099 18.1369 17.3629 17.9609C17.6129 17.8359 22.8359 12.6129 22.9609 12.3629C23.0759 12.1319 23.0759 11.8679 22.9609 11.6369C22.8399 11.3949 17.6129 6.16389 17.3719 6.04389C17.1519 5.93389 16.8339 5.93489 16.6259 6.04489Z" fill="#FF0000"/>
</svg>
