<svg width="24" height="24" viewBox="0 0 24 24" fill="none" xmlns="http://www.w3.org/2000/svg">
<path fill-rule="evenodd" clip-rule="evenodd" d="M7.62005 5.04606C7.38305 5.16706 1.15405 11.4061 1.03905 11.6371C0.98605 11.7441 0.95105 11.8891 0.95105 12.0001C0.95105 12.1111 0.98605 12.2561 1.03905 12.3631C1.16405 12.6131 7.38705 18.8361 7.63705 18.9611C7.99005 19.1371 8.35505 19.0471 8.70105 18.7011C9.04805 18.3541 9.13705 17.9901 8.96105 17.6371C8.89805 17.5131 8.05805 16.6441 6.14705 14.7301L3.42105 12.0001L6.14705 9.27006C8.05805 7.35606 8.89805 6.48706 8.96105 6.36306C9.13705 6.01006 9.04805 5.64606 8.70105 5.29906C8.36105 4.95906 7.96805 4.86706 7.62005 5.04606ZM15.626 5.04506C15.42 5.15406 15.146 5.43306 15.038 5.64406C14.924 5.86706 14.924 6.13206 15.039 6.36306C15.102 6.48706 15.942 7.35606 17.8531 9.27006L20.5791 12.0001L17.8531 14.7301C15.942 16.6441 15.102 17.5131 15.039 17.6371C14.863 17.9901 14.952 18.3541 15.299 18.7011C15.645 19.0471 16.0101 19.1371 16.3631 18.9611C16.6131 18.8361 22.8361 12.6131 22.9611 12.3631C23.014 12.2561 23.049 12.1111 23.049 12.0001C23.049 11.8891 23.014 11.7441 22.9611 11.6371C22.84 11.3941 16.614 5.16406 16.372 5.04406C16.152 4.93406 15.8341 4.93506 15.626 5.04506Z" fill="red"/>
</svg>
