<svg width="16" height="16" viewBox="0 0 16 16" fill="none" xmlns="http://www.w3.org/2000/svg">
<path d="M5.15 9.51668C5.47222 9.8389 5.86667 10 6.33333 10C6.8 10 7.19444 9.8389 7.51667 9.51668L10.1833 6.85001C10.5056 6.52779 10.6667 6.13334 10.6667 5.66668C10.6667 5.20001 10.5056 4.80557 10.1833 4.48334C9.86111 4.16112 9.46667 4.00001 9 4.00001C8.53333 4.00001 8.13889 4.16112 7.81667 4.48334C7.40556 4.3389 7 4.30557 6.6 4.38334C6.2 4.46112 5.86111 4.6389 5.58333 4.91668C5.30556 5.19445 5.12778 5.53334 5.05 5.93334C4.97222 6.33334 5.00556 6.7389 5.15 7.15001C4.82778 7.47223 4.66667 7.86668 4.66667 8.33334C4.66667 8.80001 4.82778 9.19445 5.15 9.51668ZM4 14.6667V11.8C3.36667 11.2222 2.875 10.5472 2.525 9.77501C2.175 9.00279 2 8.1889 2 7.33334C2 5.66668 2.58333 4.25001 3.75 3.08334C4.91667 1.91668 6.33333 1.33334 8 1.33334C9.38889 1.33334 10.6194 1.74168 11.6917 2.55834C12.7639 3.37501 13.4611 4.4389 13.7833 5.75001L14.65 9.16668C14.7056 9.37779 14.6667 9.56945 14.5333 9.74168C14.4 9.9139 14.2222 10 14 10H12.6667V12C12.6667 12.3667 12.5361 12.6806 12.275 12.9417C12.0139 13.2028 11.7 13.3333 11.3333 13.3333H10V14.6667H8.66667V12H11.3333V8.66668H13.1333L12.5 6.08334C12.2444 5.07223 11.7 4.25001 10.8667 3.61668C10.0333 2.98334 9.07778 2.66668 8 2.66668C6.71111 2.66668 5.61111 3.11668 4.7 4.01668C3.78889 4.91668 3.33333 6.01112 3.33333 7.30001C3.33333 7.96668 3.46944 8.60001 3.74167 9.20001C4.01389 9.80001 4.4 10.3333 4.9 10.8L5.33333 11.2V14.6667H4Z" fill="#121212"/>
<path d="M5.15 9.51668C5.47222 9.8389 5.86667 10 6.33333 10C6.8 10 7.19444 9.8389 7.51667 9.51668L10.1833 6.85001C10.5056 6.52779 10.6667 6.13334 10.6667 5.66668C10.6667 5.20001 10.5056 4.80557 10.1833 4.48334C9.86111 4.16112 9.46667 4.00001 9 4.00001C8.53333 4.00001 8.13889 4.16112 7.81667 4.48334C7.40556 4.3389 7 4.30557 6.6 4.38334C6.2 4.46112 5.86111 4.6389 5.58333 4.91668C5.30556 5.19445 5.12778 5.53334 5.05 5.93334C4.97222 6.33334 5.00556 6.7389 5.15 7.15001C4.82778 7.47223 4.66667 7.86668 4.66667 8.33334C4.66667 8.80001 4.82778 9.19445 5.15 9.51668ZM4 14.6667V11.8C3.36667 11.2222 2.875 10.5472 2.525 9.77501C2.175 9.00279 2 8.1889 2 7.33334C2 5.66668 2.58333 4.25001 3.75 3.08334C4.91667 1.91668 6.33333 1.33334 8 1.33334C9.38889 1.33334 10.6194 1.74168 11.6917 2.55834C12.7639 3.37501 13.4611 4.4389 13.7833 5.75001L14.65 9.16668C14.7056 9.37779 14.6667 9.56945 14.5333 9.74168C14.4 9.9139 14.2222 10 14 10H12.6667V12C12.6667 12.3667 12.5361 12.6806 12.275 12.9417C12.0139 13.2028 11.7 13.3333 11.3333 13.3333H10V14.6667H8.66667V12H11.3333V8.66668H13.1333L12.5 6.08334C12.2444 5.07223 11.7 4.25001 10.8667 3.61668C10.0333 2.98334 9.07778 2.66668 8 2.66668C6.71111 2.66668 5.61111 3.11668 4.7 4.01668C3.78889 4.91668 3.33333 6.01112 3.33333 7.30001C3.33333 7.96668 3.46944 8.60001 3.74167 9.20001C4.01389 9.80001 4.4 10.3333 4.9 10.8L5.33333 11.2V14.6667H4Z" fill="#FAF9F6" fill-opacity="0.6"/>
</svg>
