<svg width="14" height="12" viewBox="0 0 14 12" fill="none" xmlns="http://www.w3.org/2000/svg">
<path fill-rule="evenodd" clip-rule="evenodd" d="M3.69369 0.192331C2.36953 0.282165 1.24194 0.696915 0.826611 1.24641C0.707611 1.40391 0.663861 1.492 0.615444 1.67166C0.568778 1.84433 0.568778 8.989 0.615444 9.16166C0.663861 9.34075 0.707611 9.42941 0.823694 9.58341C1.20111 10.0822 2.10819 10.4555 3.32503 10.6118C3.57994 10.6445 3.81328 10.6538 4.38669 10.6532C5.09778 10.6527 5.39761 10.6317 5.81528 10.5535C5.91911 10.5342 5.92786 10.5366 5.96403 10.5937C6.22828 11.0091 6.65353 11.2926 7.34769 11.516C8.05411 11.7435 8.62928 11.8205 9.62503 11.8205C10.633 11.8205 11.2146 11.7412 11.9234 11.5078C12.5143 11.3136 12.9483 11.0511 13.1734 10.7536C13.2924 10.5961 13.3362 10.508 13.3846 10.3283C13.4313 10.1562 13.4313 5.34375 13.3846 5.17166C13.3362 4.992 13.2924 4.90391 13.1734 4.74641C12.6519 4.05575 11.0979 3.62 9.35611 3.67541C8.95069 3.68825 8.41053 3.7355 8.23086 3.77341L8.16669 3.78683V2.78758C8.16611 1.59525 8.16028 1.56025 7.92344 1.24641C7.35761 0.497998 5.61169 0.0628314 3.69369 0.192331ZM5.34336 1.39166C5.99436 1.47333 6.65878 1.67691 6.90669 1.87116L6.96503 1.91666L6.90669 1.96391C6.66811 2.15641 5.97103 2.367 5.27336 2.45683C4.94436 2.49883 3.80569 2.49883 3.47669 2.45683C2.77903 2.367 2.08194 2.15641 1.84336 1.96391L1.78503 1.91666L1.84336 1.87116C1.94136 1.79475 2.21611 1.66991 2.45528 1.59291C2.83503 1.47158 3.30403 1.39108 3.88503 1.34675C4.13353 1.32808 5.06569 1.35666 5.34336 1.39166ZM2.70669 3.51091C3.28303 3.627 3.59453 3.65383 4.37503 3.65383C5.37953 3.65383 5.96344 3.5745 6.66753 3.3435L7.00003 3.23383V3.66783V4.10125L6.83261 4.18116C6.63253 4.27741 6.42078 4.40983 6.27611 4.53058C6.18511 4.60641 6.13436 4.62683 5.90278 4.67816C5.38769 4.79366 5.10536 4.81991 4.38669 4.82108C3.96028 4.82108 3.63361 4.81 3.47669 4.79016C2.76853 4.69916 2.12919 4.50608 1.84919 4.29958L1.75003 4.22608V3.73025V3.23383L2.08253 3.3435C2.26569 3.40358 2.54628 3.47883 2.70669 3.51091ZM10.5934 4.89166C11.2444 4.97333 11.9088 5.17691 12.1567 5.37116L12.215 5.41666L12.1567 5.46391C11.9881 5.60041 11.4964 5.77891 11.0367 5.87108C10.5549 5.96791 10.311 5.98833 9.62503 5.98833C8.93844 5.98833 8.69694 5.96791 8.20928 5.87108C7.69828 5.769 7.05836 5.51525 7.05836 5.41491C7.05836 5.3665 7.40719 5.1915 7.68019 5.10225C8.07569 4.97333 8.53886 4.89225 9.13503 4.84675C9.38353 4.82808 10.3157 4.85666 10.5934 4.89166ZM2.70669 5.84425C3.28769 5.96091 3.59336 5.98716 4.38669 5.98658C4.95078 5.986 5.19228 5.97666 5.42444 5.94516C5.59128 5.923 5.75111 5.89908 5.78028 5.8915L5.83336 5.87808V6.45091C5.83336 6.97591 5.82986 7.02433 5.79253 7.036C5.70503 7.06341 5.29319 7.11941 4.99336 7.14566C4.61303 7.17891 3.73978 7.15966 3.38044 7.1095C2.71428 7.01733 2.11928 6.83241 1.84919 6.63291L1.75003 6.55941V6.06358V5.56716L2.08253 5.67683C2.26569 5.73691 2.54628 5.81216 2.70669 5.84425ZM7.95669 7.01091C8.53303 7.127 8.84453 7.15383 9.62503 7.15383C10.6295 7.15383 11.2134 7.0745 11.9175 6.8435L12.25 6.73383V7.23025V7.72608L12.1509 7.79958C11.8709 8.00608 11.2309 8.19916 10.5234 8.29016C10.3688 8.31 10.0369 8.32166 9.62503 8.32166C9.21319 8.32166 8.88128 8.31 8.72669 8.29016C8.02261 8.19975 7.37919 8.00608 7.10269 7.80191L7.00703 7.73133L7.00236 7.23258L6.99828 6.73325L7.33136 6.84291C7.51511 6.903 7.79628 6.97883 7.95669 7.01091ZM2.70669 8.17758C3.28769 8.29425 3.59336 8.3205 4.38669 8.31991C4.95078 8.31933 5.19228 8.31 5.42444 8.2785C5.59128 8.25633 5.75111 8.23241 5.78028 8.22483L5.83336 8.21141V8.78425C5.83336 9.30925 5.82986 9.35766 5.79253 9.36933C5.70503 9.39675 5.29319 9.45275 4.99336 9.479C4.61303 9.51225 3.73978 9.493 3.38044 9.44283C2.71428 9.35066 2.11928 9.16575 1.84919 8.96625L1.75003 8.89275V8.39691V7.9005L2.08253 8.01016C2.26569 8.07025 2.54628 8.1455 2.70669 8.17758ZM7.95669 9.34425C8.53303 9.46033 8.84453 9.48716 9.62503 9.48716C10.6295 9.48716 11.2134 9.40783 11.9175 9.17683L12.25 9.06716V9.56358V10.0594L12.1509 10.1329C11.8709 10.3394 11.2309 10.5325 10.5234 10.6235C10.3688 10.6433 10.0369 10.655 9.62503 10.655C9.21319 10.655 8.88128 10.6433 8.72669 10.6235C8.01911 10.5325 7.37919 10.3394 7.09919 10.1329L7.00003 10.0594V9.56358V9.06716L7.33253 9.17683C7.51511 9.23691 7.79628 9.31216 7.95669 9.34425Z" fill="#FF0000"/>
</svg>
