<svg width="24" height="24" viewBox="0 0 24 24" fill="none" xmlns="http://www.w3.org/2000/svg">
<path d="M9 15H6C5.71667 15 5.47917 14.9042 5.2875 14.7125C5.09583 14.5208 5 14.2833 5 14C5 13.7167 5.09583 13.4792 5.2875 13.2875C5.47917 13.0958 5.71667 13 6 13H10C10.2833 13 10.5208 13.0958 10.7125 13.2875C10.9042 13.4792 11 13.7167 11 14V18C11 18.2833 10.9042 18.5208 10.7125 18.7125C10.5208 18.9042 10.2833 19 10 19C9.71667 19 9.47917 18.9042 9.2875 18.7125C9.09583 18.5208 9 18.2833 9 18V15ZM15 9H18C18.2833 9 18.5208 9.09583 18.7125 9.2875C18.9042 9.47917 19 9.71667 19 10C19 10.2833 18.9042 10.5208 18.7125 10.7125C18.5208 10.9042 18.2833 11 18 11H14C13.7167 11 13.4792 10.9042 13.2875 10.7125C13.0958 10.5208 13 10.2833 13 10V6C13 5.71667 13.0958 5.47917 13.2875 5.2875C13.4792 5.09583 13.7167 5 14 5C14.2833 5 14.5208 5.09583 14.7125 5.2875C14.9042 5.47917 15 5.71667 15 6V9Z" fill="#FF0000"/>
</svg>
