<svg width="16" height="16" viewBox="0 0 16 16" fill="none" xmlns="http://www.w3.org/2000/svg">
<rect width="16" height="16" rx="2" fill="#414141"/>
<path fill-rule="evenodd" clip-rule="evenodd" d="M10.4999 4.66671C10.0397 4.66671 9.66659 5.0398 9.66659 5.50004C9.66659 5.96028 10.0397 6.33337 10.4999 6.33337C10.9602 6.33337 11.3333 5.96028 11.3333 5.50004C11.3333 5.0398 10.9602 4.66671 10.4999 4.66671ZM8.83325 5.50004C8.83325 4.57957 9.57944 3.83337 10.4999 3.83337C11.4204 3.83337 12.1666 4.57957 12.1666 5.50004C12.1666 6.42052 11.4204 7.16671 10.4999 7.16671C9.57944 7.16671 8.83325 6.42052 8.83325 5.50004Z" fill="white"/>
<path fill-rule="evenodd" clip-rule="evenodd" d="M5.66667 9.83333C5.20643 9.83333 4.83333 10.2064 4.83333 10.6667C4.83333 11.1269 5.20643 11.5 5.66667 11.5C6.1269 11.5 6.5 11.1269 6.5 10.6667C6.5 10.2064 6.1269 9.83333 5.66667 9.83333ZM4 10.6667C4 9.74619 4.74619 9 5.66667 9C6.58714 9 7.33333 9.74619 7.33333 10.6667C7.33333 11.5871 6.58714 12.3333 5.66667 12.3333C4.74619 12.3333 4 11.5871 4 10.6667Z" fill="white"/>
<path fill-rule="evenodd" clip-rule="evenodd" d="M5.66667 3.83333C5.20643 3.83333 4.83333 4.20643 4.83333 4.66667C4.83333 5.1269 5.20643 5.5 5.66667 5.5C6.1269 5.5 6.5 5.1269 6.5 4.66667C6.5 4.20643 6.1269 3.83333 5.66667 3.83333ZM4 4.66667C4 3.74619 4.74619 3 5.66667 3C6.58714 3 7.33333 3.74619 7.33333 4.66667C7.33333 5.58714 6.58714 6.33333 5.66667 6.33333C4.74619 6.33333 4 5.58714 4 4.66667Z" fill="white"/>
<path fill-rule="evenodd" clip-rule="evenodd" d="M10.4999 6.33337C10.73 6.33337 10.9166 6.51992 10.9166 6.75004C10.9166 7.85511 10.4776 8.91492 9.6962 9.69632C8.91479 10.4777 7.85499 10.9167 6.74992 10.9167C6.5198 10.9167 6.33325 10.7302 6.33325 10.5C6.33325 10.2699 6.5198 10.0834 6.74992 10.0834C7.63397 10.0834 8.48182 9.73218 9.10694 9.10706C9.73206 8.48194 10.0833 7.6341 10.0833 6.75004C10.0833 6.51992 10.2698 6.33337 10.4999 6.33337Z" fill="white"/>
<rect x="5" y="6" width="1" height="3" fill="white"/>
</svg>
