<svg width="16" height="16" viewBox="0 0 16 16" fill="none" xmlns="http://www.w3.org/2000/svg">
<rect width="16" height="16" rx="2" fill="#414141"/>
<path d="M3 8L5.5 10.5C5.77614 10.7761 6.22386 10.7761 6.5 10.5C6.77614 10.2239 6.77614 9.77614 6.5 9.5L5 8L6.5 6.5C6.77614 6.22386 6.77614 5.77614 6.5 5.5C6.22386 5.22386 5.77614 5.22386 5.5 5.5L3 8Z" fill="#D9D9D9"/>
<path d="M13 8L10.5 10.5C10.2239 10.7761 9.77614 10.7761 9.5 10.5C9.22386 10.2239 9.22386 9.77614 9.5 9.5L11 8L9.5 6.5C9.22386 6.22386 9.22386 5.77614 9.5 5.5C9.77614 5.22386 10.2239 5.22386 10.5 5.5L13 8Z" fill="#D9D9D9"/>
</svg>
