<svg width="12" height="10" viewBox="0 0 12 10" fill="none" xmlns="http://www.w3.org/2000/svg">
<path fill-rule="evenodd" clip-rule="evenodd" d="M0.93934 0.43934C1.22064 0.158035 1.60218 0 2 0H4.5C4.66718 0 4.82329 0.0835506 4.91603 0.22265L5.76759 1.5H10C10.3978 1.5 10.7794 1.65804 11.0607 1.93934C11.342 2.22064 11.5 2.60217 11.5 3V8.5C11.5 8.89783 11.342 9.27936 11.0607 9.56066C10.7794 9.84196 10.3978 10 10 10H2C1.60217 10 1.22064 9.84196 0.93934 9.56066C0.658035 9.27936 0.5 8.89783 0.5 8.5V1.5C0.5 1.10218 0.658035 0.720644 0.93934 0.43934Z" fill="white"/>
</svg>
