<svg width="24" height="24" viewBox="0 0 24 24" fill="none" xmlns="http://www.w3.org/2000/svg">
<path fill-rule="evenodd" clip-rule="evenodd" d="M11.28 1.02299C11.203 1.03199 10.951 1.05899 10.72 1.08299C9.52703 1.20999 8.33703 1.55799 7.18003 2.11999C6.04503 2.67099 5.19303 3.28499 4.23803 4.23899C3.27703 5.19799 2.64303 6.07999 2.09703 7.21999C0.301033 10.968 0.728033 15.286 3.22603 18.633C3.70103 19.269 4.75303 20.316 5.40003 20.797C9.36403 23.745 14.666 23.734 18.637 20.77C19.246 20.316 20.316 19.246 20.77 18.637C23.744 14.652 23.744 9.34799 20.77 5.36299C20.316 4.75499 19.247 3.68599 18.64 3.23499C17.045 2.04899 15.365 1.35999 13.423 1.09599C13 1.03799 11.574 0.989989 11.28 1.02299ZM13.32 3.10099C15.883 3.48799 18.124 4.93099 19.56 7.11999C19.863 7.58299 20.303 8.47899 20.492 9.01999C20.838 10.013 20.977 10.865 20.977 12C20.977 13.493 20.72 14.621 20.08 15.94C19.375 17.394 18.311 18.607 16.927 19.532C16.138 20.06 14.876 20.588 13.908 20.797C11.266 21.366 8.47903 20.708 6.37003 19.019C4.85703 17.807 3.72203 16.029 3.26703 14.16C3.08103 13.397 3.02303 12.888 3.02303 12C3.02303 10.507 3.28003 9.37899 3.92003 8.05999C4.97103 5.89099 6.87703 4.22099 9.16003 3.46599C9.86503 3.23299 10.432 3.11799 11.34 3.02399C11.662 2.99099 12.911 3.03899 13.32 3.10099ZM14.96 7.14199C14.525 7.26199 9.81603 8.84299 9.61903 8.93399C9.34603 9.06199 9.04903 9.36799 8.91803 9.65999C8.85903 9.79199 8.43103 11.043 7.96703 12.44C7.07303 15.133 7.01503 15.355 7.10103 15.765C7.16803 16.085 7.25503 16.256 7.46303 16.479C7.78703 16.826 8.24103 16.976 8.76003 16.909C9.03203 16.873 13.905 15.278 14.34 15.082C14.649 14.943 14.943 14.649 15.082 14.34C15.142 14.208 15.574 12.948 16.043 11.54L16.896 8.97999L16.898 8.53999C16.9 8.13799 16.89 8.07999 16.789 7.87399C16.659 7.60899 16.412 7.36899 16.114 7.21499C15.936 7.12399 15.839 7.10299 15.54 7.09299C15.305 7.08499 15.104 7.10199 14.96 7.14199ZM14.63 9.40999C14.62 9.43799 14.328 10.315 13.981 11.36C13.634 12.405 13.33 13.28 13.305 13.305C13.26 13.35 9.39603 14.649 9.37303 14.627C9.35803 14.611 10.626 10.799 10.671 10.722C10.698 10.677 14.473 9.37599 14.614 9.36299C14.633 9.36099 14.64 9.38299 14.63 9.40999Z" fill="#FF0000"/>
</svg>
