<svg width="100" height="100" viewBox="0 0 100 100" fill="none" xmlns="http://www.w3.org/2000/svg">
<g clip-path="url(#clip0_2367_5)">
<path d="M91.7032 28.1801L35.3611 16.6572C31.6669 15.8988 28.1929 18.7367 28.1929 22.5043V49.1954V50.6144V77.3052C28.1929 81.0729 31.6669 83.9112 35.3611 83.1526L91.7032 71.6296" stroke="white" stroke-width="2.8556" stroke-miterlimit="10" stroke-linecap="round" stroke-linejoin="round"/>
<path d="M48.1992 7.38531C48.1993 2.09223 53.6097 -1.44765 58.4546 0.57874L58.6851 0.679333L58.6902 0.68227L88.8308 14.6023C91.4759 15.7947 93.1338 18.4366 93.1346 21.3053V33.0975C93.1346 37.3994 89.4707 40.797 85.1902 40.4658L51.0547 37.918V61.8914L85.185 59.3435L85.585 59.323C89.6842 59.2231 93.1331 62.5334 93.109 66.6876V78.4797C93.109 81.3707 91.4075 83.9737 88.8105 85.1812L88.806 85.1827L58.691 99.0774L58.6917 99.0782C53.7808 101.351 48.1992 97.7714 48.1992 92.3759V81.1383C47.9779 81.2256 47.741 81.2834 47.4921 81.3015L30.8347 82.5007C29.4429 82.6007 28.2584 81.4977 28.2582 80.1023V67.7354C28.2583 67.256 28.4014 66.8063 28.6474 66.4277L14.9439 67.4513H14.9388C10.6701 67.7539 7.00001 64.3671 7 60.0823V39.7271C7.00031 35.4239 10.6671 32.0248 14.9491 32.3589H14.9483L28.3486 33.3589C28.2905 33.152 28.2583 32.9345 28.2582 32.7099V19.6826C28.2582 17.7807 29.9597 16.3299 31.8377 16.6304L47.6992 19.168C47.8735 19.1959 48.0404 19.2435 48.1992 19.3059V7.38531ZM85.4075 62.191H85.4023L51.0547 64.755V79.6601L90.2541 71.4669V66.6774L90.2496 66.435C90.1323 63.9438 87.9489 61.9928 85.4075 62.191ZM27.7075 36.1748C27.9471 36.5495 28.0863 36.9936 28.0864 37.4678V62.7813C28.0864 63.0748 28.0314 63.3559 27.9344 63.6169L48.1992 62.1044V37.7043L27.7075 36.1748ZM51.0547 35.0544L85.4023 37.6183L85.4075 37.6191L85.6511 37.6316C88.1632 37.6928 90.279 35.6595 90.279 33.0975V28.1405L51.0547 19.9411V35.0544Z" fill="white"/>
</g>
<defs>
<clipPath id="clip0_2367_5">
<rect width="86.4662" height="100" fill="white" transform="translate(7)"/>
</clipPath>
</defs>
</svg>
