<svg width="16" height="16" viewBox="0 0 16 16" fill="none" xmlns="http://www.w3.org/2000/svg">
<rect width="16" height="16" rx="2" fill="#414141"/>
<path d="M7 10.5C7 10.2239 7.22386 10 7.5 10H11.5C11.7761 10 12 10.2239 12 10.5C12 10.7761 11.7761 11 11.5 11H7.5C7.22386 11 7 10.7761 7 10.5Z" fill="#D9D9D9"/>
<path d="M7 8L4.5 10.5C4.22386 10.7761 3.77614 10.7761 3.5 10.5C3.22386 10.2239 3.22386 9.77614 3.5 9.5L5 8L3.5 6.5C3.22386 6.22386 3.22386 5.77614 3.5 5.5C3.77614 5.22386 4.22386 5.22386 4.5 5.5L7 8Z" fill="#D9D9D9"/>
</svg>
