<svg width="10" height="12" viewBox="0 0 10 12" fill="none" xmlns="http://www.w3.org/2000/svg">
<path fill-rule="evenodd" clip-rule="evenodd" d="M0.93934 0.93934C1.22064 0.658035 1.60218 0.5 2 0.5H5.5C5.63261 0.5 5.75979 0.552678 5.85355 0.646447L9.35355 4.14645C9.44732 4.24021 9.5 4.36739 9.5 4.5V10C9.5 10.3978 9.34196 10.7794 9.06066 11.0607C8.77936 11.342 8.39783 11.5 8 11.5H2C1.60217 11.5 1.22064 11.342 0.93934 11.0607C0.658035 10.7794 0.5 10.3978 0.5 10V2C0.5 1.60218 0.658035 1.22064 0.93934 0.93934ZM2 1.5C1.86739 1.5 1.74021 1.55268 1.64645 1.64645C1.55268 1.74021 1.5 1.86739 1.5 2V10C1.5 10.1326 1.55268 10.2598 1.64645 10.3536C1.74021 10.4473 1.86739 10.5 2 10.5H8C8.13261 10.5 8.25978 10.4473 8.35355 10.3536C8.44732 10.2598 8.5 10.1326 8.5 10V4.70711L5.29289 1.5H2Z" fill="white"/>
<path fill-rule="evenodd" clip-rule="evenodd" d="M5.5 0.5C5.77614 0.5 6 0.723858 6 1V4H9C9.27614 4 9.5 4.22386 9.5 4.5C9.5 4.77614 9.27614 5 9 5H5.5C5.22386 5 5 4.77614 5 4.5V1C5 0.723858 5.22386 0.5 5.5 0.5Z" fill="white"/>
</svg>
