<svg width="14" height="14" viewBox="0 0 14 14" fill="none" xmlns="http://www.w3.org/2000/svg">
<path fill-rule="evenodd" clip-rule="evenodd" d="M2.78885 1.78783C2.19385 1.89517 1.61577 2.37175 1.3906 2.94167C1.25352 3.287 1.2541 3.28233 1.24302 4.74825L1.23252 6.10158L0.946104 6.39325C0.632271 6.7135 0.554688 6.83367 0.554688 6.99992C0.554688 7.16617 0.632271 7.28633 0.946104 7.60658L1.23252 7.89825L1.24302 9.25158C1.2541 10.7163 1.25352 10.7128 1.38944 11.0564C1.55452 11.4735 1.92085 11.8603 2.34027 12.0615C2.58527 12.1793 2.75677 12.2237 3.03385 12.2418C3.5291 12.2744 3.74085 12.1018 3.74085 11.6666C3.74085 11.4461 3.7076 11.3446 3.60085 11.2367C3.50694 11.1416 3.4031 11.1048 3.16627 11.0827C2.83552 11.0518 2.63427 10.9252 2.49194 10.6586L2.43827 10.5583L2.4266 9.04158C2.41319 7.29392 2.43652 7.45842 2.16177 7.16967L2.00077 6.99992L2.16177 6.83017C2.43652 6.54142 2.41319 6.70592 2.4266 4.95825L2.43827 3.44158L2.50769 3.31675C2.64244 3.07292 2.84252 2.95217 3.16452 2.91892C3.48535 2.88567 3.61485 2.81275 3.7041 2.61325C3.75427 2.50183 3.75427 2.16408 3.70352 2.0515C3.58277 1.78258 3.28819 1.69742 2.78885 1.78783ZM10.5927 1.7855C10.4731 1.82283 10.3448 1.936 10.2987 2.04567C10.2159 2.24283 10.2404 2.55025 10.3518 2.71183C10.4358 2.83258 10.5717 2.8915 10.8301 2.91833C11.1579 2.95217 11.3569 3.07175 11.4922 3.31675L11.5616 3.44158L11.5733 4.95825C11.5867 6.70592 11.5634 6.54142 11.8381 6.83017L11.9991 6.99992L11.8381 7.16967C11.5634 7.45842 11.5867 7.29392 11.5733 9.04158L11.5616 10.5583L11.5079 10.6586C11.3656 10.9252 11.1644 11.0518 10.8336 11.0827C10.5898 11.1054 10.4924 11.1416 10.3897 11.2472C10.2899 11.3498 10.2561 11.4554 10.2561 11.6666C10.2561 11.8807 10.2905 11.9857 10.3967 12.0953C10.5151 12.2173 10.6819 12.2604 10.966 12.2418C11.2431 12.2237 11.4146 12.1793 11.6596 12.0615C12.1356 11.8328 12.5101 11.3965 12.6688 10.8849C12.7469 10.6323 12.7615 10.3477 12.7627 9.07833L12.7633 7.90175L13.0514 7.60833C13.3676 7.28633 13.4452 7.16617 13.4452 6.99992C13.4452 6.83367 13.3676 6.7135 13.0514 6.3915L12.7633 6.09808L12.7627 4.9215C12.7621 4.27458 12.7522 3.63817 12.7405 3.5075C12.6758 2.79058 12.2354 2.18333 11.5733 1.8975C11.2694 1.76625 10.8214 1.7155 10.5927 1.7855ZM4.05352 6.19317C3.30977 6.49883 3.32435 7.53483 4.07569 7.816C4.44377 7.95367 4.8871 7.80725 5.10644 7.4765C5.20502 7.32717 5.2371 7.2105 5.2371 6.99992C5.2371 6.78933 5.20502 6.67267 5.10644 6.52333C4.88302 6.18617 4.42219 6.0415 4.05352 6.19317ZM6.7176 6.16983C6.1051 6.40433 5.93069 7.1615 6.38452 7.61533C6.88735 8.11875 7.76644 7.82825 7.86152 7.12708C7.91344 6.74558 7.72619 6.39208 7.3791 6.2165C7.26535 6.15875 7.21577 6.14883 7.02444 6.14358C6.87685 6.1395 6.77302 6.14825 6.7176 6.16983ZM9.30352 6.19317C8.55977 6.49883 8.57435 7.53483 9.32569 7.816C9.69377 7.95367 10.1371 7.80725 10.3564 7.4765C10.455 7.32717 10.4871 7.2105 10.4871 6.99992C10.4871 6.78933 10.455 6.67267 10.3564 6.52333C10.133 6.18617 9.67219 6.0415 9.30352 6.19317Z" fill="#050505"/>
<path fill-rule="evenodd" clip-rule="evenodd" d="M2.78885 1.78783C2.19385 1.89517 1.61577 2.37175 1.3906 2.94167C1.25352 3.287 1.2541 3.28233 1.24302 4.74825L1.23252 6.10158L0.946104 6.39325C0.632271 6.7135 0.554688 6.83367 0.554688 6.99992C0.554688 7.16617 0.632271 7.28633 0.946104 7.60658L1.23252 7.89825L1.24302 9.25158C1.2541 10.7163 1.25352 10.7128 1.38944 11.0564C1.55452 11.4735 1.92085 11.8603 2.34027 12.0615C2.58527 12.1793 2.75677 12.2237 3.03385 12.2418C3.5291 12.2744 3.74085 12.1018 3.74085 11.6666C3.74085 11.4461 3.7076 11.3446 3.60085 11.2367C3.50694 11.1416 3.4031 11.1048 3.16627 11.0827C2.83552 11.0518 2.63427 10.9252 2.49194 10.6586L2.43827 10.5583L2.4266 9.04158C2.41319 7.29392 2.43652 7.45842 2.16177 7.16967L2.00077 6.99992L2.16177 6.83017C2.43652 6.54142 2.41319 6.70592 2.4266 4.95825L2.43827 3.44158L2.50769 3.31675C2.64244 3.07292 2.84252 2.95217 3.16452 2.91892C3.48535 2.88567 3.61485 2.81275 3.7041 2.61325C3.75427 2.50183 3.75427 2.16408 3.70352 2.0515C3.58277 1.78258 3.28819 1.69742 2.78885 1.78783ZM10.5927 1.7855C10.4731 1.82283 10.3448 1.936 10.2987 2.04567C10.2159 2.24283 10.2404 2.55025 10.3518 2.71183C10.4358 2.83258 10.5717 2.8915 10.8301 2.91833C11.1579 2.95217 11.3569 3.07175 11.4922 3.31675L11.5616 3.44158L11.5733 4.95825C11.5867 6.70592 11.5634 6.54142 11.8381 6.83017L11.9991 6.99992L11.8381 7.16967C11.5634 7.45842 11.5867 7.29392 11.5733 9.04158L11.5616 10.5583L11.5079 10.6586C11.3656 10.9252 11.1644 11.0518 10.8336 11.0827C10.5898 11.1054 10.4924 11.1416 10.3897 11.2472C10.2899 11.3498 10.2561 11.4554 10.2561 11.6666C10.2561 11.8807 10.2905 11.9857 10.3967 12.0953C10.5151 12.2173 10.6819 12.2604 10.966 12.2418C11.2431 12.2237 11.4146 12.1793 11.6596 12.0615C12.1356 11.8328 12.5101 11.3965 12.6688 10.8849C12.7469 10.6323 12.7615 10.3477 12.7627 9.07833L12.7633 7.90175L13.0514 7.60833C13.3676 7.28633 13.4452 7.16617 13.4452 6.99992C13.4452 6.83367 13.3676 6.7135 13.0514 6.3915L12.7633 6.09808L12.7627 4.9215C12.7621 4.27458 12.7522 3.63817 12.7405 3.5075C12.6758 2.79058 12.2354 2.18333 11.5733 1.8975C11.2694 1.76625 10.8214 1.7155 10.5927 1.7855ZM4.05352 6.19317C3.30977 6.49883 3.32435 7.53483 4.07569 7.816C4.44377 7.95367 4.8871 7.80725 5.10644 7.4765C5.20502 7.32717 5.2371 7.2105 5.2371 6.99992C5.2371 6.78933 5.20502 6.67267 5.10644 6.52333C4.88302 6.18617 4.42219 6.0415 4.05352 6.19317ZM6.7176 6.16983C6.1051 6.40433 5.93069 7.1615 6.38452 7.61533C6.88735 8.11875 7.76644 7.82825 7.86152 7.12708C7.91344 6.74558 7.72619 6.39208 7.3791 6.2165C7.26535 6.15875 7.21577 6.14883 7.02444 6.14358C6.87685 6.1395 6.77302 6.14825 6.7176 6.16983ZM9.30352 6.19317C8.55977 6.49883 8.57435 7.53483 9.32569 7.816C9.69377 7.95367 10.1371 7.80725 10.3564 7.4765C10.455 7.32717 10.4871 7.2105 10.4871 6.99992C10.4871 6.78933 10.455 6.67267 10.3564 6.52333C10.133 6.18617 9.67219 6.0415 9.30352 6.19317Z" fill="white" fill-opacity="0.6"/>
</svg>
