<svg width="24" height="24" viewBox="0 0 24 24" fill="none" xmlns="http://www.w3.org/2000/svg">
<path fill-rule="evenodd" clip-rule="evenodd" d="M9.76002 1.03903C9.33002 1.08103 8.96502 1.17503 8.67102 1.32103C7.72902 1.78903 7.16202 2.61203 7.04302 3.68803C6.94402 4.58303 7.00802 5.00903 7.27802 5.25303C7.56602 5.51403 8.14702 5.57503 8.53202 5.38503C8.89502 5.20603 8.96402 5.02803 9.03402 4.09003C9.07502 3.53203 9.14702 3.36903 9.44002 3.17503C9.57902 3.08303 9.66102 3.06503 10.09 3.03403C11.028 2.96403 11.206 2.89503 11.385 2.53203C11.464 2.37103 11.488 2.26103 11.489 2.05203C11.491 1.55403 11.356 1.28203 11.025 1.11203C10.833 1.01403 10.324 0.985033 9.76002 1.03903ZM13.614 1.05703C13.377 1.13103 13.212 1.26103 13.109 1.45303C13.035 1.59203 13.02 1.68403 13.02 2.00003C13.02 2.33103 13.033 2.40303 13.12 2.55803C13.23 2.75503 13.414 2.89803 13.635 2.95903C13.826 3.01203 16.174 3.01203 16.365 2.95903C16.586 2.89803 16.77 2.75503 16.88 2.55803C16.967 2.40203 16.98 2.33203 16.979 2.00003C16.978 1.68703 16.962 1.59103 16.89 1.45303C16.786 1.25603 16.623 1.13103 16.371 1.05503C16.117 0.979033 13.859 0.981033 13.614 1.05703ZM19.18 1.03503C18.712 1.15903 18.509 1.46803 18.511 2.05203C18.512 2.26103 18.536 2.37103 18.615 2.53203C18.794 2.89503 18.972 2.96403 19.91 3.03403C20.468 3.07503 20.631 3.14703 20.825 3.44003C20.917 3.57903 20.935 3.66103 20.966 4.09003C21.036 5.02803 21.105 5.20603 21.468 5.38503C21.704 5.50103 22.09 5.52503 22.392 5.44303C22.642 5.37503 22.866 5.15603 22.94 4.90803C23.056 4.51603 22.99 3.53003 22.81 2.98403C22.502 2.05003 21.657 1.30503 20.68 1.10603C20.331 1.03403 19.355 0.988033 19.18 1.03503ZM3.74902 7.04503C2.96702 7.12003 2.40202 7.37103 1.89002 7.87003C1.49102 8.26003 1.23602 8.73103 1.09402 9.34003C1.02402 9.64303 1.02002 9.93603 1.02002 15.02V20.38L1.11102 20.735C1.28102 21.406 1.63702 21.962 2.14202 22.35C2.49502 22.621 2.81602 22.775 3.26502 22.889L3.62002 22.98H8.98002C14.064 22.98 14.357 22.976 14.66 22.906C15.459 22.72 16.041 22.327 16.486 21.671C16.685 21.378 16.807 21.084 16.906 20.66C16.976 20.357 16.98 20.064 16.98 15C16.98 9.93603 16.976 9.64303 16.906 9.34003C16.688 8.40403 16.167 7.73703 15.329 7.32103C15.019 7.16803 14.706 7.09103 14.18 7.04203C13.648 6.99103 4.27402 6.99403 3.74902 7.04503ZM21.649 7.03703C21.439 7.09103 21.208 7.26703 21.111 7.45003C21.021 7.61703 21.02 7.64203 21.02 9.00003C21.02 10.334 21.023 10.385 21.106 10.54C21.285 10.875 21.496 10.978 22 10.978C22.504 10.978 22.715 10.875 22.894 10.54C22.977 10.385 22.98 10.334 22.98 9.00003V7.62003L22.88 7.44203C22.726 7.16703 22.484 7.03703 22.094 7.01803C21.921 7.01003 21.721 7.01803 21.649 7.03703ZM14.374 9.07403C14.585 9.14503 14.862 9.43203 14.928 9.64603C15.005 9.90203 15.005 20.098 14.928 20.354C14.863 20.567 14.591 20.849 14.376 20.925C14.144 21.007 3.85602 21.007 3.62402 20.925C3.42202 20.854 3.14002 20.571 3.07402 20.374C3.00802 20.176 2.97402 10.516 3.03702 9.94703C3.10202 9.36503 3.34102 9.10403 3.86602 9.04203C4.01702 9.02403 6.40802 9.01203 9.18002 9.01603C13.174 9.02103 14.252 9.03403 14.374 9.07403ZM21.5 12.595C21.276 12.696 21.099 12.912 21.048 13.146C21.024 13.253 20.994 13.538 20.981 13.78C20.949 14.365 20.91 14.492 20.701 14.701C20.485 14.917 20.343 14.958 19.662 14.999C18.954 15.042 18.757 15.136 18.591 15.511C18.5 15.717 18.484 16.125 18.557 16.392C18.625 16.642 18.844 16.866 19.092 16.94C19.484 17.056 20.47 16.99 21.016 16.81C21.818 16.545 22.545 15.818 22.81 15.016C22.99 14.47 23.056 13.484 22.94 13.092C22.868 12.852 22.645 12.627 22.413 12.563C22.166 12.494 21.683 12.511 21.5 12.595Z" fill="#FF0000"/>
</svg>
