<svg width="24" height="24" viewBox="0 0 24 24" fill="none" xmlns="http://www.w3.org/2000/svg">
<path fill-rule="evenodd" clip-rule="evenodd" d="M3.74902 1.04515C2.96702 1.12015 2.40202 1.37115 1.89002 1.87015C1.49102 2.26015 1.23602 2.73115 1.09402 3.34015C1.02402 3.64315 1.02002 3.93615 1.02002 9.02015V14.3802L1.11102 14.7352C1.22502 15.1842 1.37902 15.5052 1.65002 15.8582C2.03302 16.3572 2.59202 16.7172 3.24402 16.8852C3.55702 16.9662 3.69902 16.9732 5.28702 16.9892L6.99302 17.0072L7.01002 18.7142C7.02602 20.3052 7.03302 20.4432 7.11502 20.7562C7.28402 21.4092 7.64402 21.9682 8.14202 22.3502C8.49502 22.6212 8.81602 22.7752 9.26502 22.8892L9.62002 22.9802H14.98C20.064 22.9802 20.357 22.9762 20.66 22.9062C21.459 22.7202 22.041 22.3272 22.486 21.6712C22.685 21.3782 22.807 21.0842 22.906 20.6602C22.976 20.3572 22.98 20.0642 22.98 15.0002C22.98 9.93615 22.976 9.64316 22.906 9.34015C22.688 8.40415 22.167 7.73715 21.329 7.32115C20.8 7.05915 20.258 7.00015 18.374 7.00015H17.007L16.99 5.29015C16.973 3.72415 16.965 3.55315 16.889 3.26015C16.781 2.84515 16.681 2.61715 16.473 2.31015C16.184 1.88215 15.811 1.56015 15.329 1.32115C15.019 1.16815 14.706 1.09115 14.18 1.04215C13.648 0.991154 4.27402 0.994154 3.74902 1.04515ZM14.374 3.07415C14.585 3.14515 14.862 3.43215 14.928 3.64615C15.005 3.90215 15.005 14.0982 14.928 14.3542C14.863 14.5672 14.591 14.8492 14.376 14.9252C14.144 15.0072 3.85602 15.0072 3.62402 14.9252C3.42202 14.8542 3.14002 14.5712 3.07402 14.3742C3.00802 14.1762 2.97402 4.51615 3.03702 3.94715C3.10202 3.36515 3.34102 3.10415 3.86602 3.04215C4.01702 3.02415 6.40802 3.01215 9.18002 3.01615C13.174 3.02115 14.252 3.03415 14.374 3.07415ZM20.374 9.07715C20.584 9.14415 20.862 9.43015 20.928 9.64615C21.005 9.90215 21.005 20.0982 20.928 20.3542C20.863 20.5672 20.591 20.8492 20.376 20.9252C20.144 21.0072 9.85602 21.0072 9.62402 20.9252C9.42102 20.8532 9.13902 20.5692 9.07702 20.3742C9.04402 20.2682 9.02302 19.7202 9.01002 18.6132L8.99202 17.0052L11.706 16.9902C14.312 16.9752 14.433 16.9712 14.74 16.8902C15.322 16.7372 15.755 16.4932 16.131 16.1082C16.518 15.7122 16.739 15.3132 16.89 14.7402C16.971 14.4332 16.975 14.3122 16.99 11.7062L17.005 8.99215L18.613 9.01015C19.72 9.02315 20.268 9.04415 20.374 9.07715Z" fill="#FF0000"/>
</svg>
