<svg width="24" height="24" viewBox="0 0 24 24" fill="none" xmlns="http://www.w3.org/2000/svg">
<path fill-rule="evenodd" clip-rule="evenodd" d="M19.6139 3.05689C19.3769 3.13089 19.2119 3.26089 19.1099 3.45289C19.0219 3.61789 19.0209 3.64289 18.9949 6.09989C18.9629 9.05889 18.9229 9.69489 18.7129 10.5399C18.4319 11.6749 17.4419 12.8609 16.2999 13.4319C15.7929 13.6849 15.2229 13.8269 14.3199 13.9239C14.0549 13.9519 12.5219 13.9759 10.1599 13.9879L6.41993 14.0059L8.14593 12.2729C9.31893 11.0949 9.89993 10.4829 9.95993 10.3629C10.1369 10.0109 10.0479 9.64589 9.70093 9.29889C9.36093 8.95889 8.97993 8.86789 8.62793 9.04389C8.51693 9.09989 7.62093 9.96389 5.95993 11.6179C4.58493 12.9879 3.39893 14.1499 3.32393 14.2009C3.14893 14.3209 2.95093 14.7439 2.95093 14.9999C2.95093 15.2389 3.14993 15.6819 3.30393 15.7839C3.36593 15.8259 4.55193 16.9879 5.93893 18.3659C7.68693 20.1029 8.51393 20.8989 8.63693 20.9599C8.98993 21.1369 9.35393 21.0479 9.70093 20.7009C10.0479 20.3539 10.1369 19.9889 9.95993 19.6369C9.89993 19.5169 9.32093 18.9079 8.14693 17.7299L6.42193 15.9999L9.56093 15.9989C13.6869 15.9979 14.7209 15.9509 15.7769 15.7159C16.9899 15.4459 18.0059 14.8759 18.9409 13.9409C19.8759 13.0059 20.4459 11.9899 20.7159 10.7769C20.9369 9.78689 21.0109 8.38189 20.9919 5.53989C20.9799 3.64289 20.9789 3.61789 20.8909 3.45289C20.8419 3.36189 20.7459 3.24689 20.6779 3.19889C20.4139 3.00989 19.9569 2.94989 19.6139 3.05689Z" fill="#FF0000"/>
</svg>
