<svg width="24" height="24" viewBox="0 0 24 24" fill="none" xmlns="http://www.w3.org/2000/svg">
<path fill-rule="evenodd" clip-rule="evenodd" d="M3.61402 3.05689C3.37702 3.13089 3.21202 3.26089 3.10902 3.45289L3.02002 3.61989L3.02302 6.21989C3.02602 8.91889 3.04702 9.40489 3.20402 10.3549C3.32202 11.0689 3.48602 11.5879 3.78102 12.1799C4.12602 12.8739 4.48002 13.3609 5.05902 13.9409C5.99302 14.8749 7.01002 15.4459 8.22302 15.7159C9.27902 15.9509 10.313 15.9979 14.439 15.9989L17.578 15.9999L15.853 17.7299C14.679 18.9079 14.1 19.5169 14.04 19.6369C13.863 19.9889 13.952 20.3539 14.299 20.7009C14.646 21.0479 15.01 21.1369 15.363 20.9599C15.486 20.8989 16.313 20.1029 18.061 18.3659C19.448 16.9879 20.634 15.8259 20.696 15.7839C20.85 15.6819 21.049 15.2389 21.049 14.9999C21.049 14.7439 20.851 14.3209 20.676 14.2009C20.601 14.1499 19.415 12.9879 18.04 11.6179C16.379 9.96389 15.483 9.09989 15.372 9.04389C15.02 8.86789 14.639 8.95889 14.299 9.29889C13.952 9.64589 13.863 10.0109 14.04 10.3629C14.1 10.4829 14.681 11.0949 15.854 12.2729L17.58 14.0059L13.84 13.9879C10.111 13.9689 9.67302 13.9539 8.92002 13.8169C7.92502 13.6369 7.25302 13.2879 6.50802 12.5639C5.95302 12.0239 5.49202 11.2899 5.32102 10.6729C5.08602 9.82689 5.03802 9.12989 5.00502 6.11989C4.97802 3.64589 4.97702 3.61789 4.89002 3.45289C4.84102 3.36189 4.74602 3.24689 4.67802 3.19889C4.41402 3.00989 3.95702 2.94989 3.61402 3.05689Z" fill="#FF0000"/>
</svg>
