<svg width="16" height="14" viewBox="0 0 16 14" fill="none" xmlns="http://www.w3.org/2000/svg">
<path fill-rule="evenodd" clip-rule="evenodd" d="M5.90661 0.364668C5.08794 0.456668 4.31928 0.834002 3.71928 1.43934C2.32194 2.84734 2.31994 5.134 3.71528 6.55534C4.77994 7.64 6.33394 7.95734 7.74928 7.38C8.59928 7.03267 9.36594 6.266 9.71328 5.416C10.2106 4.198 10.0486 2.86534 9.27661 1.82467C8.49328 0.768002 7.21994 0.216668 5.90661 0.364668ZM10.3866 0.668668C10.3426 0.691335 10.2726 0.742002 10.2319 0.781335C10.1273 0.881335 9.99461 1.16334 9.97928 1.31734C9.95394 1.58267 10.0646 1.73334 10.4493 1.95733C10.7446 2.12934 10.9073 2.26067 11.0866 2.47133C11.4693 2.92 11.6533 3.41667 11.6533 4C11.6533 4.58334 11.4693 5.08 11.0866 5.52867C10.9073 5.73934 10.7473 5.86867 10.4386 6.052C10.1633 6.216 10.0413 6.32934 9.99728 6.46067C9.89728 6.76534 10.1833 7.30867 10.4726 7.36267C10.6353 7.39334 10.8099 7.35867 11.0133 7.25534C12.0179 6.74334 12.7526 5.74534 12.9479 4.62667C13.0059 4.29333 13.0059 3.70667 12.9479 3.37334C12.7519 2.254 11.9939 1.22867 11.0019 0.743335C10.8073 0.648002 10.7366 0.626668 10.6153 0.626668C10.5333 0.626668 10.4306 0.645335 10.3866 0.668668ZM6.93661 1.74334C7.58328 1.91067 8.15461 2.396 8.45194 3.03067C8.60394 3.35467 8.65194 3.58734 8.65194 4C8.65194 4.41267 8.60394 4.64534 8.45194 4.96934C8.14861 5.61667 7.60061 6.078 6.90661 6.27C6.66194 6.338 6.00461 6.338 5.75994 6.27C5.08128 6.082 4.54661 5.64 4.22794 5.00334C4.06328 4.67534 4.01861 4.46067 4.01861 4C4.01861 3.678 4.02928 3.56 4.07394 3.39667C4.31128 2.524 5.07661 1.834 5.96128 1.69467C6.19794 1.65734 6.69994 1.68267 6.93661 1.74334ZM5.78661 9.02867C4.37128 9.16067 3.10528 9.724 1.91594 10.7513C1.45261 11.1527 0.807944 11.8687 0.695277 12.1087C0.61261 12.284 0.62061 12.4787 0.715944 12.63C0.93461 12.9747 1.33794 13.1227 1.61528 12.96C1.68128 12.9213 1.84528 12.7567 2.00728 12.5667C3.24794 11.1107 4.75394 10.3333 6.33328 10.3333C7.91261 10.3333 9.41861 11.1107 10.6593 12.5667C10.8213 12.7567 10.9853 12.9213 11.0513 12.96C11.3286 13.1227 11.7319 12.9747 11.9506 12.63C12.0459 12.4787 12.0539 12.284 11.9713 12.1087C11.8886 11.9327 11.5306 11.5113 11.1086 11.0933C9.58528 9.58533 7.69261 8.85067 5.78661 9.02867ZM11.7653 9.50867C11.5679 9.56933 11.3479 9.89534 11.3146 10.178C11.2946 10.3447 11.3599 10.5173 11.4833 10.626C11.5346 10.6707 11.6973 10.7687 11.8453 10.8427C12.6586 11.2507 13.3593 11.814 14.0046 12.5793C14.3126 12.944 14.4293 13.0267 14.6406 13.0267C14.8746 13.0267 15.1333 12.8667 15.2839 12.63C15.3786 12.48 15.3873 12.284 15.3059 12.112C15.1933 11.872 14.5179 11.1207 14.0673 10.7347C13.5313 10.2747 12.8919 9.85534 12.3706 9.62134C12.0946 9.498 11.9126 9.464 11.7653 9.50867Z" fill="white"/>
</svg>
