<svg width="11" height="10" viewBox="0 0 11 10" fill="none" xmlns="http://www.w3.org/2000/svg">
<path fill-rule="evenodd" clip-rule="evenodd" d="M1.3645 0.0198916C0.9735 0.0573916 0.691 0.182891 0.435 0.432391C0.2355 0.627391 0.108 0.862892 0.037 1.16739C0.002 1.31889 0 1.46539 0 4.00739V6.68739L0.0455 6.86489C0.1025 7.08939 0.1795 7.24989 0.315 7.42639C0.5055 7.67489 0.7835 7.85389 1.112 7.94089C1.279 7.98489 1.2915 7.98539 3.1845 7.99239C4.467 7.99689 5.114 7.99239 5.1665 7.97839C5.2815 7.94739 5.374 7.87689 5.43 7.77639C5.4735 7.69839 5.48 7.66339 5.4795 7.49739C5.4785 7.23189 5.416 7.12089 5.2175 7.03289C5.173 7.01289 4.7385 7.00539 3.26 6.99739L1.36 6.98739L1.265 6.94039C1.1575 6.88739 1.0605 6.78089 1.0255 6.67739C1.009 6.62689 1.0005 6.17039 0.995 5.05239L0.988 3.49739H5.486H9.9845L9.9965 3.59889C10.027 3.85489 10.203 3.99739 10.49 3.99739C10.704 3.99739 10.8465 3.92539 10.93 3.77639L10.98 3.68739V2.50739C10.98 1.42789 10.977 1.31389 10.943 1.16739C10.834 0.699392 10.5735 0.365892 10.1545 0.157892C9.9995 0.0813916 9.843 0.0428915 9.58 0.0183915C9.3115 -0.00710853 1.6285 -0.0056084 1.3645 0.0198916ZM9.677 1.03439C9.7775 1.06839 9.9205 1.21289 9.9505 1.31039C9.965 1.35739 9.978 1.60289 9.9845 1.94239L9.995 2.49739H5.4925H0.99V2.06239C0.9905 1.51539 1.011 1.31789 1.0795 1.21439C1.1565 1.09789 1.2635 1.03739 1.423 1.01839C1.4985 1.00939 3.369 1.00339 5.58 1.00539C8.8255 1.00789 9.615 1.01339 9.677 1.03439ZM8.5015 4.51739C8.21 4.56989 7.998 4.68539 7.769 4.91539C7.4685 5.21739 7.37 5.47789 7.37 5.97039V6.25639L7.315 6.26839C6.883 6.36089 6.577 6.66939 6.511 7.07739C6.4845 7.24389 6.484 8.24689 6.5105 8.41739C6.556 8.70889 6.773 9.00589 7.0325 9.13139C7.275 9.24839 7.258 9.24739 8.74 9.24739C9.8215 9.24739 10.1225 9.24189 10.21 9.21989C10.5565 9.13439 10.817 8.89739 10.937 8.55939C10.973 8.45939 10.978 8.38289 10.9855 7.84389C10.995 7.14739 10.981 7.01239 10.881 6.80739C10.743 6.52489 10.497 6.33989 10.165 6.26839L10.11 6.25639V5.97039C10.11 5.47139 10.012 5.21639 9.701 4.90689C9.5075 4.71439 9.3295 4.60589 9.11 4.54639C8.974 4.50939 8.634 4.49339 8.5015 4.51739ZM8.9465 5.56239C9.075 5.64789 9.11 5.74639 9.11 6.02389V6.25739H8.7385H8.367L8.3735 6.00089C8.3795 5.76189 8.3835 5.73889 8.4335 5.66389C8.5445 5.49589 8.7765 5.45039 8.9465 5.56239ZM9.99 7.74489V8.23239L9.9275 8.24489C9.893 8.25189 9.359 8.25739 8.74 8.25739C8.121 8.25739 7.587 8.25189 7.5525 8.24489L7.49 8.23239V7.74489V7.25739H8.74H9.99V7.74489Z" fill="#050505"/>
<path fill-rule="evenodd" clip-rule="evenodd" d="M1.3645 0.0198916C0.9735 0.0573916 0.691 0.182891 0.435 0.432391C0.2355 0.627391 0.108 0.862892 0.037 1.16739C0.002 1.31889 0 1.46539 0 4.00739V6.68739L0.0455 6.86489C0.1025 7.08939 0.1795 7.24989 0.315 7.42639C0.5055 7.67489 0.7835 7.85389 1.112 7.94089C1.279 7.98489 1.2915 7.98539 3.1845 7.99239C4.467 7.99689 5.114 7.99239 5.1665 7.97839C5.2815 7.94739 5.374 7.87689 5.43 7.77639C5.4735 7.69839 5.48 7.66339 5.4795 7.49739C5.4785 7.23189 5.416 7.12089 5.2175 7.03289C5.173 7.01289 4.7385 7.00539 3.26 6.99739L1.36 6.98739L1.265 6.94039C1.1575 6.88739 1.0605 6.78089 1.0255 6.67739C1.009 6.62689 1.0005 6.17039 0.995 5.05239L0.988 3.49739H5.486H9.9845L9.9965 3.59889C10.027 3.85489 10.203 3.99739 10.49 3.99739C10.704 3.99739 10.8465 3.92539 10.93 3.77639L10.98 3.68739V2.50739C10.98 1.42789 10.977 1.31389 10.943 1.16739C10.834 0.699392 10.5735 0.365892 10.1545 0.157892C9.9995 0.0813916 9.843 0.0428915 9.58 0.0183915C9.3115 -0.00710853 1.6285 -0.0056084 1.3645 0.0198916ZM9.677 1.03439C9.7775 1.06839 9.9205 1.21289 9.9505 1.31039C9.965 1.35739 9.978 1.60289 9.9845 1.94239L9.995 2.49739H5.4925H0.99V2.06239C0.9905 1.51539 1.011 1.31789 1.0795 1.21439C1.1565 1.09789 1.2635 1.03739 1.423 1.01839C1.4985 1.00939 3.369 1.00339 5.58 1.00539C8.8255 1.00789 9.615 1.01339 9.677 1.03439ZM8.5015 4.51739C8.21 4.56989 7.998 4.68539 7.769 4.91539C7.4685 5.21739 7.37 5.47789 7.37 5.97039V6.25639L7.315 6.26839C6.883 6.36089 6.577 6.66939 6.511 7.07739C6.4845 7.24389 6.484 8.24689 6.5105 8.41739C6.556 8.70889 6.773 9.00589 7.0325 9.13139C7.275 9.24839 7.258 9.24739 8.74 9.24739C9.8215 9.24739 10.1225 9.24189 10.21 9.21989C10.5565 9.13439 10.817 8.89739 10.937 8.55939C10.973 8.45939 10.978 8.38289 10.9855 7.84389C10.995 7.14739 10.981 7.01239 10.881 6.80739C10.743 6.52489 10.497 6.33989 10.165 6.26839L10.11 6.25639V5.97039C10.11 5.47139 10.012 5.21639 9.701 4.90689C9.5075 4.71439 9.3295 4.60589 9.11 4.54639C8.974 4.50939 8.634 4.49339 8.5015 4.51739ZM8.9465 5.56239C9.075 5.64789 9.11 5.74639 9.11 6.02389V6.25739H8.7385H8.367L8.3735 6.00089C8.3795 5.76189 8.3835 5.73889 8.4335 5.66389C8.5445 5.49589 8.7765 5.45039 8.9465 5.56239ZM9.99 7.74489V8.23239L9.9275 8.24489C9.893 8.25189 9.359 8.25739 8.74 8.25739C8.121 8.25739 7.587 8.25189 7.5525 8.24489L7.49 8.23239V7.74489V7.25739H8.74H9.99V7.74489Z" fill="white" fill-opacity="0.9"/>
</svg>
