<svg width="16" height="16" viewBox="0 0 16 16" fill="none" xmlns="http://www.w3.org/2000/svg">
<g clip-path="url(#clip0_16_4409)">
<path fill-rule="evenodd" clip-rule="evenodd" d="M9.10349 2.52151C8.23999 2.60501 7.39549 2.98951 6.76449 3.58751C6.60249 3.74101 6.52049 3.87951 6.52049 4.00001C6.52049 4.10651 6.60249 4.25951 6.71749 4.36601C6.83749 4.47801 6.93349 4.52351 7.04999 4.52351C7.17049 4.52351 7.25499 4.48101 7.41949 4.33751C8.01949 3.81351 8.54399 3.57901 9.24999 3.51801C10.1445 3.44051 11.004 3.75951 11.6345 4.40251C12.2545 5.03501 12.561 5.88251 12.482 6.74501C12.4155 7.46951 12.189 7.97751 11.6625 8.58051C11.519 8.74501 11.4765 8.82951 11.4765 8.95001C11.4765 9.06651 11.522 9.16251 11.634 9.28251C11.7405 9.39751 11.8935 9.47951 12 9.47951C12.122 9.47951 12.259 9.39751 12.42 9.22801C13.1035 8.50901 13.5 7.50801 13.5 6.50001C13.5 5.62651 13.202 4.75401 12.6625 4.05001C12.5275 3.87351 12.255 3.59501 12.05 3.42351C11.2415 2.74701 10.1685 2.41851 9.10349 2.52151ZM6.10349 5.52151C5.32799 5.59651 4.54799 5.92301 3.94999 6.42351C3.49249 6.80601 3.15349 7.23851 2.89999 7.76451C2.36699 8.86701 2.36749 10.1335 2.90049 11.237C3.11249 11.676 3.36499 12.0245 3.72299 12.3705C4.05699 12.6945 4.35299 12.9015 4.76449 13.1C6.12949 13.7595 7.73349 13.592 8.94999 12.663C9.11949 12.5335 9.46249 12.197 9.60549 12.02C10.5815 10.8125 10.7735 9.15851 10.1 7.76451C9.84649 7.23851 9.50749 6.80601 9.04999 6.42351C8.24149 5.74701 7.16849 5.41851 6.10349 5.52151ZM6.78199 6.51951C7.96049 6.63451 8.95649 7.41851 9.33549 8.53001C9.58399 9.25851 9.53399 10.1255 9.20499 10.79C8.77499 11.658 8.02799 12.239 7.07999 12.4425C6.90499 12.48 6.80849 12.4875 6.49999 12.4875C6.19149 12.4875 6.09499 12.48 5.91999 12.4425C4.97049 12.239 4.22549 11.6595 3.79499 10.79C3.41299 10.0185 3.41299 8.98151 3.79499 8.21001C3.95649 7.88401 4.11849 7.65451 4.36549 7.40251C5.00399 6.75151 5.87849 6.43201 6.78199 6.51951Z" fill="#E4EEF5"/>
</g>
<defs>
<clipPath id="clip0_16_4409">
<rect width="12" height="12" fill="white" transform="translate(2 2)"/>
</clipPath>
</defs>
</svg>
