<svg width="24" height="24" viewBox="0 0 14 14" fill="none" xmlns="http://www.w3.org/2000/svg">
<path fill="red" fill-rule="evenodd" clip-rule="evenodd" d="M2.72115 0.608997C1.99081 0.685997 1.4279 1.1655 1.23131 1.87833C1.18231 2.05508 1.17998 2.10991 1.17998 2.91666C1.17998 3.72516 1.18231 3.77766 1.2319 3.955C1.40515 4.57858 1.83506 5.0085 2.46273 5.18525C2.64648 5.23658 2.66573 5.23716 4.5324 5.24475L6.41656 5.25233V6.12325V6.99475L5.17406 7.00641C3.85281 7.01866 3.64631 7.03383 3.31323 7.1435C2.54031 7.39725 1.97856 8.03716 1.82223 8.84333C1.78315 9.04283 1.7499 9.45933 1.7499 9.74341V10.0012L1.5574 10.0992C1.12106 10.3209 0.796147 10.7071 0.64973 11.1767C0.57098 11.4298 0.57098 11.9035 0.64973 12.1567C0.828814 12.7318 1.26806 13.1711 1.84323 13.3502C1.99023 13.3957 2.06898 13.4044 2.33323 13.4044C2.59748 13.4044 2.67623 13.3957 2.82323 13.3502C3.3984 13.1711 3.83765 12.7318 4.01673 12.1567C4.09548 11.9035 4.09548 11.4298 4.01673 11.1767C3.87031 10.7059 3.5454 10.3209 3.10615 10.0975L2.91015 9.99833L2.92648 9.60166C2.94398 9.16533 2.98015 8.94425 3.06123 8.778C3.13006 8.63683 3.38673 8.38016 3.5279 8.31133C3.76881 8.19408 3.8674 8.18591 5.18573 8.17308L6.41656 8.16141V9.08133V10.0012L6.22406 10.0992C5.78773 10.3209 5.46281 10.7071 5.3164 11.1767C5.23765 11.4298 5.23765 11.9035 5.3164 12.1567C5.49548 12.7318 5.93473 13.1711 6.5099 13.3502C6.76306 13.4289 7.23673 13.4289 7.4899 13.3502C8.06506 13.1711 8.50431 12.7318 8.6834 12.1567C8.76215 11.9035 8.76215 11.4298 8.6834 11.1767C8.53698 10.7071 8.21206 10.3209 7.77573 10.0992L7.58323 10.0012V9.08133V8.16141L8.81406 8.17308C10.1324 8.18591 10.231 8.19408 10.4719 8.31133C10.6131 8.38016 10.8697 8.63683 10.9386 8.778C11.0196 8.94425 11.0558 9.16533 11.0733 9.60166L11.0896 9.99833L10.8936 10.0975C10.4544 10.3209 10.1295 10.7059 9.98306 11.1767C9.90431 11.4298 9.90431 11.9035 9.98306 12.1567C10.1621 12.7318 10.6014 13.1711 11.1766 13.3502C11.4297 13.4289 11.9034 13.4289 12.1566 13.3502C12.7317 13.1711 13.171 12.7318 13.3501 12.1567C13.4288 11.9035 13.4288 11.4298 13.3501 11.1767C13.2036 10.7071 12.8787 10.3209 12.4424 10.0992L12.2499 10.0012V9.74341C12.2499 9.28433 12.1997 8.87133 12.107 8.56333C11.9139 7.92225 11.3539 7.36225 10.6866 7.1435C10.3535 7.03383 10.147 7.01866 8.82573 7.00641L7.58323 6.99475V6.12325V5.25233L9.4674 5.24475C11.3341 5.23716 11.3533 5.23658 11.5371 5.18525C12.1636 5.00908 12.5929 4.57916 12.7691 3.95033C12.8169 3.77825 12.8198 3.72166 12.8198 2.91666C12.8198 2.10758 12.8175 2.05566 12.7679 1.8795C12.6279 1.379 12.3269 1.00566 11.8853 0.78458C11.6753 0.67958 11.5166 0.63583 11.2466 0.607247C10.9753 0.579247 2.99065 0.580414 2.72115 0.608997ZM11.3451 1.81825C11.477 1.88533 11.5271 1.93666 11.6001 2.07666C11.6543 2.1805 11.6549 2.191 11.6549 2.91666V3.65166L11.5971 3.76483C11.5336 3.88908 11.442 3.97716 11.3166 4.03433C11.2425 4.06816 10.8306 4.07166 6.9999 4.07166C3.16915 4.07166 2.75731 4.06816 2.68323 4.03433C2.55665 3.97658 2.45865 3.88266 2.40148 3.76483C2.35306 3.6645 2.3484 3.61725 2.33906 3.09458C2.32623 2.39866 2.34956 2.13616 2.43531 2.00666C2.52865 1.86608 2.65756 1.79141 2.84248 1.77216C2.92823 1.76341 4.85148 1.757 7.11656 1.75875L11.2349 1.76166L11.3451 1.81825ZM2.51406 11.1189C2.73456 11.1842 2.91656 11.4322 2.91656 11.6672C2.91656 11.8597 2.79056 12.0727 2.61556 12.1753C2.52456 12.2284 2.4814 12.2383 2.33323 12.2383C2.18506 12.2383 2.1419 12.2284 2.0509 12.1753C1.71198 11.9758 1.65248 11.5348 1.92723 11.2601C2.08998 11.0973 2.28423 11.0507 2.51406 11.1189ZM7.18073 11.1189C7.40123 11.1842 7.58323 11.4322 7.58323 11.6672C7.58323 11.8597 7.45723 12.0727 7.28223 12.1753C7.19123 12.2284 7.14806 12.2383 6.9999 12.2383C6.85173 12.2383 6.80856 12.2284 6.71756 12.1753C6.37865 11.9758 6.31915 11.5348 6.5939 11.2601C6.75665 11.0973 6.9509 11.0507 7.18073 11.1189ZM11.8474 11.1189C12.0679 11.1842 12.2499 11.4322 12.2499 11.6672C12.2499 11.8597 12.1239 12.0727 11.9489 12.1753C11.8579 12.2284 11.8147 12.2383 11.6666 12.2383C11.5184 12.2383 11.4752 12.2284 11.3842 12.1753C11.0453 11.9758 10.9858 11.5348 11.2606 11.2601C11.4233 11.0973 11.6176 11.0507 11.8474 11.1189Z"/>
</svg>
