<svg width="16" height="16" viewBox="0 0 16 16" fill="none" xmlns="http://www.w3.org/2000/svg">
<g clip-path="url(#clip0_4082_1153)">
<path fill-rule="evenodd" clip-rule="evenodd" d="M3.11 0.696165C2.27534 0.784165 1.632 1.33216 1.40734 2.14683C1.35134 2.34883 1.34867 2.4115 1.34867 3.3335C1.34867 4.2575 1.35134 4.3175 1.408 4.52016C1.606 5.23283 2.09734 5.72416 2.81467 5.92616C3.02467 5.98483 3.04667 5.9855 5.18 5.99416L7.33334 6.00283V6.99816V7.99416L5.91334 8.0075C4.40334 8.0215 4.16734 8.03883 3.78667 8.16417C2.90334 8.45416 2.26134 9.1855 2.08267 10.1068C2.038 10.3348 2 10.8108 2 11.1355V11.4302L1.78 11.5422C1.28134 11.7955 0.910004 12.2368 0.742671 12.7735C0.652671 13.0628 0.652671 13.6042 0.742671 13.8935C0.947338 14.5508 1.44934 15.0528 2.10667 15.2575C2.27467 15.3095 2.36467 15.3195 2.66667 15.3195C2.96867 15.3195 3.05867 15.3095 3.22667 15.2575C3.884 15.0528 4.386 14.5508 4.59067 13.8935C4.68067 13.6042 4.68067 13.0628 4.59067 12.7735C4.42334 12.2355 4.052 11.7955 3.55 11.5402L3.326 11.4268L3.34467 10.9735C3.36467 10.4748 3.406 10.2222 3.49867 10.0322C3.57734 9.87083 3.87067 9.5775 4.032 9.49883C4.30734 9.36483 4.42 9.3555 5.92667 9.34083L7.33334 9.3275V10.3788V11.4302L7.11334 11.5422C6.61467 11.7955 6.24334 12.2368 6.076 12.7735C5.986 13.0628 5.986 13.6042 6.076 13.8935C6.28067 14.5508 6.78267 15.0528 7.44 15.2575C7.72934 15.3475 8.27067 15.3475 8.56 15.2575C9.21734 15.0528 9.71934 14.5508 9.924 13.8935C10.014 13.6042 10.014 13.0628 9.924 12.7735C9.75667 12.2368 9.38534 11.7955 8.88667 11.5422L8.66667 11.4302V10.3788V9.3275L10.0733 9.34083C11.58 9.3555 11.6927 9.36483 11.968 9.49883C12.1293 9.5775 12.4227 9.87083 12.5013 10.0322C12.594 10.2222 12.6353 10.4748 12.6553 10.9735L12.674 11.4268L12.45 11.5402C11.948 11.7955 11.5767 12.2355 11.4093 12.7735C11.3193 13.0628 11.3193 13.6042 11.4093 13.8935C11.614 14.5508 12.116 15.0528 12.7733 15.2575C13.0627 15.3475 13.604 15.3475 13.8933 15.2575C14.5507 15.0528 15.0527 14.5508 15.2573 13.8935C15.3473 13.6042 15.3473 13.0628 15.2573 12.7735C15.09 12.2368 14.7187 11.7955 14.22 11.5422L14 11.4302V11.1355C14 10.6108 13.9427 10.1388 13.8367 9.78683C13.616 9.05416 12.976 8.41417 12.2133 8.16417C11.8327 8.03883 11.5967 8.0215 10.0867 8.0075L8.66667 7.99416V6.99816V6.00283L10.82 5.99416C12.9533 5.9855 12.9753 5.98483 13.1853 5.92616C13.9013 5.72483 14.392 5.2335 14.5933 4.51483C14.648 4.31816 14.6513 4.2535 14.6513 3.3335C14.6513 2.40883 14.6487 2.3495 14.592 2.14816C14.432 1.57616 14.088 1.1495 13.5833 0.896831C13.3433 0.776831 13.162 0.726831 12.8533 0.694165C12.5433 0.662165 3.418 0.663498 3.11 0.696165ZM12.966 2.07816C13.1167 2.15483 13.174 2.2135 13.2573 2.3735C13.3193 2.49216 13.32 2.50416 13.32 3.3335V4.1735L13.254 4.30283C13.1813 4.44483 13.0767 4.5455 12.9333 4.61083C12.8487 4.6495 12.378 4.6535 8 4.6535C3.622 4.6535 3.15134 4.6495 3.06667 4.61083C2.922 4.54483 2.81 4.4375 2.74467 4.30283C2.68934 4.18816 2.684 4.13416 2.67334 3.53683C2.65867 2.7415 2.68534 2.4415 2.78334 2.2935C2.89 2.13283 3.03734 2.0475 3.24867 2.0255C3.34667 2.0155 5.54467 2.00816 8.13334 2.01016L12.84 2.0135L12.966 2.07816ZM2.87334 12.7075C3.12534 12.7822 3.33334 13.0655 3.33334 13.3342C3.33334 13.5542 3.18934 13.7975 2.98934 13.9148C2.88534 13.9755 2.836 13.9868 2.66667 13.9868C2.49734 13.9868 2.448 13.9755 2.344 13.9148C1.95667 13.6868 1.88867 13.1828 2.20267 12.8688C2.38867 12.6828 2.61067 12.6295 2.87334 12.7075ZM8.20667 12.7075C8.45867 12.7822 8.66667 13.0655 8.66667 13.3342C8.66667 13.5542 8.52267 13.7975 8.32267 13.9148C8.21867 13.9755 8.16934 13.9868 8 13.9868C7.83067 13.9868 7.78134 13.9755 7.67734 13.9148C7.29 13.6868 7.222 13.1828 7.536 12.8688C7.722 12.6828 7.94401 12.6295 8.20667 12.7075ZM13.54 12.7075C13.792 12.7822 14 13.0655 14 13.3342C14 13.5542 13.856 13.7975 13.656 13.9148C13.552 13.9755 13.5027 13.9868 13.3333 13.9868C13.164 13.9868 13.1147 13.9755 13.0107 13.9148C12.6233 13.6868 12.5553 13.1828 12.8693 12.8688C13.0553 12.6828 13.2773 12.6295 13.54 12.7075Z" fill="#121212"/>
<path fill-rule="evenodd" clip-rule="evenodd" d="M3.11 0.696165C2.27534 0.784165 1.632 1.33216 1.40734 2.14683C1.35134 2.34883 1.34867 2.4115 1.34867 3.3335C1.34867 4.2575 1.35134 4.3175 1.408 4.52016C1.606 5.23283 2.09734 5.72416 2.81467 5.92616C3.02467 5.98483 3.04667 5.9855 5.18 5.99416L7.33334 6.00283V6.99816V7.99416L5.91334 8.0075C4.40334 8.0215 4.16734 8.03883 3.78667 8.16417C2.90334 8.45416 2.26134 9.1855 2.08267 10.1068C2.038 10.3348 2 10.8108 2 11.1355V11.4302L1.78 11.5422C1.28134 11.7955 0.910004 12.2368 0.742671 12.7735C0.652671 13.0628 0.652671 13.6042 0.742671 13.8935C0.947338 14.5508 1.44934 15.0528 2.10667 15.2575C2.27467 15.3095 2.36467 15.3195 2.66667 15.3195C2.96867 15.3195 3.05867 15.3095 3.22667 15.2575C3.884 15.0528 4.386 14.5508 4.59067 13.8935C4.68067 13.6042 4.68067 13.0628 4.59067 12.7735C4.42334 12.2355 4.052 11.7955 3.55 11.5402L3.326 11.4268L3.34467 10.9735C3.36467 10.4748 3.406 10.2222 3.49867 10.0322C3.57734 9.87083 3.87067 9.5775 4.032 9.49883C4.30734 9.36483 4.42 9.3555 5.92667 9.34083L7.33334 9.3275V10.3788V11.4302L7.11334 11.5422C6.61467 11.7955 6.24334 12.2368 6.076 12.7735C5.986 13.0628 5.986 13.6042 6.076 13.8935C6.28067 14.5508 6.78267 15.0528 7.44 15.2575C7.72934 15.3475 8.27067 15.3475 8.56 15.2575C9.21734 15.0528 9.71934 14.5508 9.924 13.8935C10.014 13.6042 10.014 13.0628 9.924 12.7735C9.75667 12.2368 9.38534 11.7955 8.88667 11.5422L8.66667 11.4302V10.3788V9.3275L10.0733 9.34083C11.58 9.3555 11.6927 9.36483 11.968 9.49883C12.1293 9.5775 12.4227 9.87083 12.5013 10.0322C12.594 10.2222 12.6353 10.4748 12.6553 10.9735L12.674 11.4268L12.45 11.5402C11.948 11.7955 11.5767 12.2355 11.4093 12.7735C11.3193 13.0628 11.3193 13.6042 11.4093 13.8935C11.614 14.5508 12.116 15.0528 12.7733 15.2575C13.0627 15.3475 13.604 15.3475 13.8933 15.2575C14.5507 15.0528 15.0527 14.5508 15.2573 13.8935C15.3473 13.6042 15.3473 13.0628 15.2573 12.7735C15.09 12.2368 14.7187 11.7955 14.22 11.5422L14 11.4302V11.1355C14 10.6108 13.9427 10.1388 13.8367 9.78683C13.616 9.05416 12.976 8.41417 12.2133 8.16417C11.8327 8.03883 11.5967 8.0215 10.0867 8.0075L8.66667 7.99416V6.99816V6.00283L10.82 5.99416C12.9533 5.9855 12.9753 5.98483 13.1853 5.92616C13.9013 5.72483 14.392 5.2335 14.5933 4.51483C14.648 4.31816 14.6513 4.2535 14.6513 3.3335C14.6513 2.40883 14.6487 2.3495 14.592 2.14816C14.432 1.57616 14.088 1.1495 13.5833 0.896831C13.3433 0.776831 13.162 0.726831 12.8533 0.694165C12.5433 0.662165 3.418 0.663498 3.11 0.696165ZM12.966 2.07816C13.1167 2.15483 13.174 2.2135 13.2573 2.3735C13.3193 2.49216 13.32 2.50416 13.32 3.3335V4.1735L13.254 4.30283C13.1813 4.44483 13.0767 4.5455 12.9333 4.61083C12.8487 4.6495 12.378 4.6535 8 4.6535C3.622 4.6535 3.15134 4.6495 3.06667 4.61083C2.922 4.54483 2.81 4.4375 2.74467 4.30283C2.68934 4.18816 2.684 4.13416 2.67334 3.53683C2.65867 2.7415 2.68534 2.4415 2.78334 2.2935C2.89 2.13283 3.03734 2.0475 3.24867 2.0255C3.34667 2.0155 5.54467 2.00816 8.13334 2.01016L12.84 2.0135L12.966 2.07816ZM2.87334 12.7075C3.12534 12.7822 3.33334 13.0655 3.33334 13.3342C3.33334 13.5542 3.18934 13.7975 2.98934 13.9148C2.88534 13.9755 2.836 13.9868 2.66667 13.9868C2.49734 13.9868 2.448 13.9755 2.344 13.9148C1.95667 13.6868 1.88867 13.1828 2.20267 12.8688C2.38867 12.6828 2.61067 12.6295 2.87334 12.7075ZM8.20667 12.7075C8.45867 12.7822 8.66667 13.0655 8.66667 13.3342C8.66667 13.5542 8.52267 13.7975 8.32267 13.9148C8.21867 13.9755 8.16934 13.9868 8 13.9868C7.83067 13.9868 7.78134 13.9755 7.67734 13.9148C7.29 13.6868 7.222 13.1828 7.536 12.8688C7.722 12.6828 7.94401 12.6295 8.20667 12.7075ZM13.54 12.7075C13.792 12.7822 14 13.0655 14 13.3342C14 13.5542 13.856 13.7975 13.656 13.9148C13.552 13.9755 13.5027 13.9868 13.3333 13.9868C13.164 13.9868 13.1147 13.9755 13.0107 13.9148C12.6233 13.6868 12.5553 13.1828 12.8693 12.8688C13.0553 12.6828 13.2773 12.6295 13.54 12.7075Z" fill="#FAF9F6" fill-opacity="0.9"/>
</g>
<defs>
<clipPath id="clip0_4082_1153">
<rect width="16" height="16" fill="white"/>
</clipPath>
</defs>
</svg>
