<svg width="24" height="24" viewBox="0 0 24 24" fill="none" xmlns="http://www.w3.org/2000/svg">
    <path fill-rule="evenodd" clip-rule="evenodd"
          d="M4.49895 1.03999C3.36295 1.24599 2.45995 2.04899 2.11395 3.15999C1.97895 3.59399 1.97895 4.40599 2.11395 4.83999C2.42095 5.82599 3.17394 6.57899 4.15995 6.88599C4.59395 7.02099 5.40595 7.02099 5.83995 6.88599C6.64495 6.63499 7.31795 6.06899 7.68795 5.32999L7.85295 4.99999H9.42695H10.9999V10.87C10.9999 17.368 11.0049 17.524 11.2449 18.32C11.5769 19.422 12.5779 20.423 13.6799 20.755C14.2079 20.914 14.9159 21 15.7029 21H16.1469L16.3119 21.33C16.6819 22.069 17.3549 22.635 18.1599 22.886C18.5939 23.021 19.4059 23.021 19.8399 22.886C20.8259 22.579 21.5789 21.826 21.8859 20.84C22.0209 20.406 22.0209 19.594 21.8859 19.16C21.5809 18.181 20.8219 17.418 19.8609 17.125C19.5879 17.042 19.4579 17.027 18.9999 17.027C18.5419 17.027 18.4119 17.042 18.1389 17.125C17.3559 17.364 16.6789 17.938 16.3089 18.676L16.1409 19.011L15.4609 18.988C14.6809 18.961 14.3899 18.915 14.0799 18.769C13.8119 18.644 13.3759 18.216 13.2479 17.952C13.0469 17.539 13.0329 17.37 13.0109 15.11L12.9909 13H14.5689H16.1469L16.3119 13.33C16.6819 14.069 17.3549 14.635 18.1599 14.886C18.4119 14.964 18.5469 14.979 18.9999 14.979C19.4529 14.979 19.5879 14.964 19.8399 14.886C20.8259 14.579 21.5789 13.826 21.8859 12.84C22.0209 12.406 22.0209 11.594 21.8859 11.16C21.5809 10.181 20.8219 9.41799 19.8609 9.12499C19.5879 9.04199 19.4579 9.02699 18.9999 9.02699C18.5419 9.02699 18.4119 9.04199 18.1389 9.12499C17.3579 9.36299 16.6789 9.93799 16.3119 10.67L16.1469 11H14.5729H12.9999V7.99999V4.99999H14.5729H16.1469L16.3119 5.32999C16.6819 6.06899 17.3549 6.63499 18.1599 6.88599C18.5939 7.02099 19.4059 7.02099 19.8399 6.88599C20.8259 6.57899 21.5789 5.82599 21.8859 4.83999C22.0209 4.40599 22.0209 3.59399 21.8859 3.15999C21.5809 2.18099 20.8219 1.41799 19.8609 1.12499C19.5879 1.04199 19.4579 1.02699 18.9999 1.02699C18.5419 1.02699 18.4119 1.04199 18.1389 1.12499C17.3579 1.36299 16.6789 1.93799 16.3119 2.66999L16.1469 2.99999H11.9999H7.85295L7.68795 2.66999C7.31995 1.93499 6.63095 1.35399 5.86095 1.12899C5.49995 1.02299 4.83195 0.979992 4.49895 1.03999ZM5.30995 3.06099C5.68795 3.17299 5.99995 3.59799 5.99995 4.00099C5.99995 4.33099 5.78395 4.69599 5.48395 4.87199C5.32795 4.96299 5.25395 4.97999 4.99995 4.97999C4.74595 4.97999 4.67194 4.96299 4.51594 4.87199C3.93494 4.52999 3.83295 3.77399 4.30395 3.30299C4.58295 3.02399 4.91595 2.94399 5.30995 3.06099ZM19.3099 3.06099C19.6879 3.17299 19.9999 3.59799 19.9999 4.00099C19.9999 4.33099 19.7839 4.69599 19.4839 4.87199C19.3279 4.96299 19.2539 4.97999 18.9999 4.97999C18.7459 4.97999 18.6719 4.96299 18.5159 4.87199C17.9349 4.52999 17.8329 3.77399 18.3039 3.30299C18.5829 3.02399 18.9159 2.94399 19.3099 3.06099ZM19.3099 11.061C19.6879 11.173 19.9999 11.598 19.9999 12.001C19.9999 12.331 19.7839 12.696 19.4839 12.872C19.3279 12.963 19.2539 12.98 18.9999 12.98C18.7459 12.98 18.6719 12.963 18.5159 12.872C17.9349 12.53 17.8329 11.774 18.3039 11.303C18.5829 11.024 18.9159 10.944 19.3099 11.061ZM19.3099 19.061C19.6879 19.173 19.9999 19.598 19.9999 20.001C19.9999 20.331 19.7839 20.696 19.4839 20.872C19.3279 20.963 19.2539 20.98 18.9999 20.98C18.7459 20.98 18.6719 20.963 18.5159 20.872C17.9349 20.53 17.8329 19.774 18.3039 19.303C18.5829 19.024 18.9159 18.944 19.3099 19.061Z"
          fill="#FF0000"/>
</svg>
