<svg width="24" height="24" viewBox="0 0 24 24" fill="none" xmlns="http://www.w3.org/2000/svg">
<path d="M20.7 9.3C20.7 9.3 20.7 9.3 20.7 9.2C20.7 9.1 20.7 9 20.7 9H21.2C21.2 8.9 21.2 8.8 21.2 8.8C21.2 8.3 21 7.8 20.8 7.3V7.2C20.8 7.2 20.8 7 20.8 6.9H21C20.5 5 18.9 3.3 17.4 2.5C17.4 2.56667 17.4 2.6 17.4 2.6L17 2.8H17.4C17.4 2.6 17.4 2.6 17.4 2.5C17.4 2.4 17.3 2.3 17.3 2.3C17.1 2.3 16.9 2.2 16.7 2.2C16.5 2.2 16.4 2.2 16.3 2.2C15.6 1.9 15.3 1.7 14.9 1.6C14.7 1.6 14.5 1.5 14.1 1.4L13.6 1.2V1C13.5 1 13.4 1 13.3 1C13.1 1 12.8 1 12.6 1V1.3C12.6 1.3 12.5 1.3 12.4 1.3C12.4 1.3 12.3 1.3 12.2 1.3V1.1C11.9 1.1 11.6 1.1 11.4 1.2H11.2C11.2 1.2 11.3 1.2 11.4 1.4V1.6C11.4 1.6 11.4 1.6 11.3 1.6L10.9 1.1C10.7 1.1 10.6 1.3 10.3 1.3C9.6 1.6 8.7 2 8 2.5V2.1L7.3 2.9C7.2 3 7 3.2 6.7 3.5C6.4 3.7 6.1 4 5.9 4.3C5.8 4.4 5.6 4.6 5.5 4.7C5.5 4.7 5.5 4.8 5.4 4.9L5.3 5.1C5.1 5.4 5 5.7 4.9 5.9C4.9 5.9 4.9 5.9 4.9 6C4.9 6 4.9 5.8 4.7 5.7C4.6 5.7 4.5 5.7 4.4 5.6H4.3C4.3 5.6 4.4 5.6 4.5 5.6L4.6 5.8H3.7C3.7 5.9 3.7 6 3.7 6C3.7 6 3.7 6 3.7 6.1C3.7 6.1 3.7 6.3 3.8 6.5C3.9 6.6 4.1 6.6 4.2 6.6C4.2 6.8 4 7 4 7.2L3.5 7C3.4 7.2 3.3 7.3 3.2 7.5C3.2 7.7 3.2 7.8 3.2 7.9H3.6C3.6 8.3 3.4 8.5 3.4 8.8C3.4 8.8 3.4 8.8 3.4 8.9V9.1V9.2C3.4 9.2 3.4 9.3 3.4 9.4C3.4 9.6 3.4 9.8 3.4 10.1C3.4 10.5 3.4 11 3.4 11.4C3.3 14 4.2 16.6 5.7 18.6C7.2 20.6 9.2 22.2 11.4 22.8C12 23 12.8 23 13.5 23C13.6 23 13.7 23 13.8 23V22.1C13.5 22 13.2 21.9 13 21.9C12.7 21.9 12.5 21.9 12.1 21.7C11.8 21.5 11.6 21.4 11.4 21.2C11.3 21.1 11.2 20.9 11 20.8H10.8C10.8 20.9 10.6 20.8 10.6 20.8C10.6 20.8 10.6 20.8 10.5 20.7C10.5 20.7 10.5 20.7 10.4 20.7L10.8 20.2H10C10 20.2 9.9 20.2 9.8 20.1C9.7 20 9.5 19.8 9.5 19.8V19.5C9.4 19.5 9.1 19.5 9.1 19.5C9 19.4 8.9 19.2 8.9 19.1C8.9 19 8.9 18.9 8.9 18.9H8.7C8.7 18.9 8.5 18.7 8.5 18.5C8.3 18.2 8.1 17.9 7.9 17.7C7.9 17.7 7.9 17.7 7.9 17.6C7.9 17.6 7.9 17.6 7.9 17.7C7.9 17.7 7.9 17.9 7.7 18C7.7 18 7.7 18 7.6 18V17.9L8 17.3C8 17.3 8 17.3 7.9 17.3V17.1H8L7.6 16.2C7.4 15.7 7.2 15.4 7 15.2C6.9 15.1 6.8 15 6.7 15H6.5C6.5 15 6.5 15 6.5 14.9H6.8L6.4 14.2C6.4 14.2 6.4 14.1 6.3 13.9V13.5V13.3V13.1C6.1 13.1 6.1 13 6 12.8C6 12.6 6 12.4 6 12.1C6 11.6 6 10.9 6.1 10.3C6.1 10 6.1 9.7 6.1 9.4C6.1 9.2 6.2 9 6.4 8.6C6.5 8.3 6.7 8 6.9 7.7L7.1 7.2C7.3 6.9 7.6 6.6 7.9 6.3C8.2 6 8.5 5.8 8.7 5.6C9 5.4 9.1 5.4 9.2 5.4H9.5L9.7 5.2C9.7 5.2 9.8 5.1 9.8 5C9.8 5 9.8 5 9.8 4.8C9.8 4.8 9.9 4.8 10 4.7C10.1 4.7 10.2 4.7 10.4 4.7C10.5 4.7 10.7 4.7 10.9 4.7C10.9 4.7 11.1 4.7 11.1 4.6C11.1 4.6 11.1 4.6 11.2 4.5C11.2 4.5 11.2 4.5 11.2 4.4C11.2 4.4 11.4 4.3 11.5 4.3C11.6 4.3 11.7 4.2 11.9 4.1C11.9 4.1 12.1 4.1 12.3 4.1C12.7 4.1 13.3 4 14 4.1C14.7 4.1 15.5 4.3 16.1 4.6C16.8 4.9 17.5 5.5 18.1 6.3C18.7 7.1 19.1 8 19.1 8.9V9.2C19.1 9.3 19.1 9.5 19.1 9.6C19.1 10.2 19.1 10.7 19 11.2H19.1C19.1 11.4 19.1 11.6 18.9 11.8C18.9 11.8 18.9 11.9 18.9 12H18.7L18.6 12.1C18.6 12.2 19 12.4 19 12.4L18.6 12.2C18.6 12.3 18.5 12.5 18.4 12.6V12.8L17.2 13.6C17 13.7 16.9 13.9 16.8 14C16.8 14 16.7 14.1 16.6 14.2L16.2 14.3C15.4 14.7 14.3 14.5 13.5 13.9C12.6 13.3 12 12.3 12.1 11.2H12C12 10.1 12.6 9 13.6 8.6C14.6 8.1 15.8 8.3 16.5 9L17.2 8.4C16.7 7.7 15.6 7 14.3 7C13.7 7 13.1 7.2 12.6 7.5C12.1 7.8 11.8 8.2 11.5 8.6C11.3 8.8 11.2 8.9 11.1 9.1C11 9.3 10.9 9.6 10.8 9.7C10.8 9.8 10.8 9.9 10.7 10H10.6V10.3C10.5 11 10.6 11.7 10.6 12.2L10.4 13.1V13.3V13.6V13.8V14C10.4 14 10.5 14.2 10.6 14.3C10.8 14.5 11 14.8 11.2 15.1L11.4 14.9C11.9 15.4 12.6 15.9 13.3 16.2C14.3 16.6 15.4 16.8 16.3 16.5V16.1C17.2 16 18.2 15.6 19 14.9C19.2 14.7 19.4 14.5 19.6 14.4C19.6 14.4 19.7 14.3 19.8 14.2H20C20 14.3 20 14.3 20 14.3C20 14.1 20.2 14 20.2 13.9L20.4 13.6L21.1 14C21.5 13.3 21.7 12.5 21.8 11.7H21.4C21.4 11.6 21.4 11.5 21.4 11.5H21.6C21.6 11.1 21.6 10.9 21.7 10.6C21.7 10.5 21.8 10.3 21.8 10.2V9.8L21.5 9.6L20.7 9.3Z" fill="#050505"/>
<path d="M20.7 9.3C20.7 9.3 20.7 9.3 20.7 9.2C20.7 9.1 20.7 9 20.7 9H21.2C21.2 8.9 21.2 8.8 21.2 8.8C21.2 8.3 21 7.8 20.8 7.3V7.2C20.8 7.2 20.8 7 20.8 6.9H21C20.5 5 18.9 3.3 17.4 2.5C17.4 2.56667 17.4 2.6 17.4 2.6L17 2.8H17.4C17.4 2.6 17.4 2.6 17.4 2.5C17.4 2.4 17.3 2.3 17.3 2.3C17.1 2.3 16.9 2.2 16.7 2.2C16.5 2.2 16.4 2.2 16.3 2.2C15.6 1.9 15.3 1.7 14.9 1.6C14.7 1.6 14.5 1.5 14.1 1.4L13.6 1.2V1C13.5 1 13.4 1 13.3 1C13.1 1 12.8 1 12.6 1V1.3C12.6 1.3 12.5 1.3 12.4 1.3C12.4 1.3 12.3 1.3 12.2 1.3V1.1C11.9 1.1 11.6 1.1 11.4 1.2H11.2C11.2 1.2 11.3 1.2 11.4 1.4V1.6C11.4 1.6 11.4 1.6 11.3 1.6L10.9 1.1C10.7 1.1 10.6 1.3 10.3 1.3C9.6 1.6 8.7 2 8 2.5V2.1L7.3 2.9C7.2 3 7 3.2 6.7 3.5C6.4 3.7 6.1 4 5.9 4.3C5.8 4.4 5.6 4.6 5.5 4.7C5.5 4.7 5.5 4.8 5.4 4.9L5.3 5.1C5.1 5.4 5 5.7 4.9 5.9C4.9 5.9 4.9 5.9 4.9 6C4.9 6 4.9 5.8 4.7 5.7C4.6 5.7 4.5 5.7 4.4 5.6H4.3C4.3 5.6 4.4 5.6 4.5 5.6L4.6 5.8H3.7C3.7 5.9 3.7 6 3.7 6C3.7 6 3.7 6 3.7 6.1C3.7 6.1 3.7 6.3 3.8 6.5C3.9 6.6 4.1 6.6 4.2 6.6C4.2 6.8 4 7 4 7.2L3.5 7C3.4 7.2 3.3 7.3 3.2 7.5C3.2 7.7 3.2 7.8 3.2 7.9H3.6C3.6 8.3 3.4 8.5 3.4 8.8C3.4 8.8 3.4 8.8 3.4 8.9V9.1V9.2C3.4 9.2 3.4 9.3 3.4 9.4C3.4 9.6 3.4 9.8 3.4 10.1C3.4 10.5 3.4 11 3.4 11.4C3.3 14 4.2 16.6 5.7 18.6C7.2 20.6 9.2 22.2 11.4 22.8C12 23 12.8 23 13.5 23C13.6 23 13.7 23 13.8 23V22.1C13.5 22 13.2 21.9 13 21.9C12.7 21.9 12.5 21.9 12.1 21.7C11.8 21.5 11.6 21.4 11.4 21.2C11.3 21.1 11.2 20.9 11 20.8H10.8C10.8 20.9 10.6 20.8 10.6 20.8C10.6 20.8 10.6 20.8 10.5 20.7C10.5 20.7 10.5 20.7 10.4 20.7L10.8 20.2H10C10 20.2 9.9 20.2 9.8 20.1C9.7 20 9.5 19.8 9.5 19.8V19.5C9.4 19.5 9.1 19.5 9.1 19.5C9 19.4 8.9 19.2 8.9 19.1C8.9 19 8.9 18.9 8.9 18.9H8.7C8.7 18.9 8.5 18.7 8.5 18.5C8.3 18.2 8.1 17.9 7.9 17.7C7.9 17.7 7.9 17.7 7.9 17.6C7.9 17.6 7.9 17.6 7.9 17.7C7.9 17.7 7.9 17.9 7.7 18C7.7 18 7.7 18 7.6 18V17.9L8 17.3C8 17.3 8 17.3 7.9 17.3V17.1H8L7.6 16.2C7.4 15.7 7.2 15.4 7 15.2C6.9 15.1 6.8 15 6.7 15H6.5C6.5 15 6.5 15 6.5 14.9H6.8L6.4 14.2C6.4 14.2 6.4 14.1 6.3 13.9V13.5V13.3V13.1C6.1 13.1 6.1 13 6 12.8C6 12.6 6 12.4 6 12.1C6 11.6 6 10.9 6.1 10.3C6.1 10 6.1 9.7 6.1 9.4C6.1 9.2 6.2 9 6.4 8.6C6.5 8.3 6.7 8 6.9 7.7L7.1 7.2C7.3 6.9 7.6 6.6 7.9 6.3C8.2 6 8.5 5.8 8.7 5.6C9 5.4 9.1 5.4 9.2 5.4H9.5L9.7 5.2C9.7 5.2 9.8 5.1 9.8 5C9.8 5 9.8 5 9.8 4.8C9.8 4.8 9.9 4.8 10 4.7C10.1 4.7 10.2 4.7 10.4 4.7C10.5 4.7 10.7 4.7 10.9 4.7C10.9 4.7 11.1 4.7 11.1 4.6C11.1 4.6 11.1 4.6 11.2 4.5C11.2 4.5 11.2 4.5 11.2 4.4C11.2 4.4 11.4 4.3 11.5 4.3C11.6 4.3 11.7 4.2 11.9 4.1C11.9 4.1 12.1 4.1 12.3 4.1C12.7 4.1 13.3 4 14 4.1C14.7 4.1 15.5 4.3 16.1 4.6C16.8 4.9 17.5 5.5 18.1 6.3C18.7 7.1 19.1 8 19.1 8.9V9.2C19.1 9.3 19.1 9.5 19.1 9.6C19.1 10.2 19.1 10.7 19 11.2H19.1C19.1 11.4 19.1 11.6 18.9 11.8C18.9 11.8 18.9 11.9 18.9 12H18.7L18.6 12.1C18.6 12.2 19 12.4 19 12.4L18.6 12.2C18.6 12.3 18.5 12.5 18.4 12.6V12.8L17.2 13.6C17 13.7 16.9 13.9 16.8 14C16.8 14 16.7 14.1 16.6 14.2L16.2 14.3C15.4 14.7 14.3 14.5 13.5 13.9C12.6 13.3 12 12.3 12.1 11.2H12C12 10.1 12.6 9 13.6 8.6C14.6 8.1 15.8 8.3 16.5 9L17.2 8.4C16.7 7.7 15.6 7 14.3 7C13.7 7 13.1 7.2 12.6 7.5C12.1 7.8 11.8 8.2 11.5 8.6C11.3 8.8 11.2 8.9 11.1 9.1C11 9.3 10.9 9.6 10.8 9.7C10.8 9.8 10.8 9.9 10.7 10H10.6V10.3C10.5 11 10.6 11.7 10.6 12.2L10.4 13.1V13.3V13.6V13.8V14C10.4 14 10.5 14.2 10.6 14.3C10.8 14.5 11 14.8 11.2 15.1L11.4 14.9C11.9 15.4 12.6 15.9 13.3 16.2C14.3 16.6 15.4 16.8 16.3 16.5V16.1C17.2 16 18.2 15.6 19 14.9C19.2 14.7 19.4 14.5 19.6 14.4C19.6 14.4 19.7 14.3 19.8 14.2H20C20 14.3 20 14.3 20 14.3C20 14.1 20.2 14 20.2 13.9L20.4 13.6L21.1 14C21.5 13.3 21.7 12.5 21.8 11.7H21.4C21.4 11.6 21.4 11.5 21.4 11.5H21.6C21.6 11.1 21.6 10.9 21.7 10.6C21.7 10.5 21.8 10.3 21.8 10.2V9.8L21.5 9.6L20.7 9.3Z" fill="white"/>
</svg>
