<svg width="16" height="16" viewBox="0 0 16 16" fill="none" xmlns="http://www.w3.org/2000/svg">
<path fill-rule="evenodd" clip-rule="evenodd" d="M5.32035 0.684673C5.17968 0.704673 4.98101 0.778673 4.82835 0.868673C4.72301 0.931339 4.13101 1.50667 2.78168 2.85801C1.14368 4.49934 0.873681 4.78001 0.816348 4.90667C0.661681 5.24601 0.667014 5.14201 0.667014 8.00001C0.667014 10.8573 0.661681 10.754 0.816348 11.0933C0.873681 11.22 1.14368 11.5013 2.82168 13.1787C4.49901 14.8567 4.78035 15.1267 4.90701 15.184C5.24635 15.3387 5.14301 15.3333 8.00035 15.3333C10.8577 15.3333 10.7543 15.3387 11.0937 15.184C11.2203 15.1267 11.5017 14.8567 13.179 13.1787C14.857 11.5013 15.127 11.22 15.1843 11.0933C15.339 10.754 15.3337 10.8573 15.3337 8.00001C15.3337 5.14201 15.339 5.24601 15.1843 4.90667C15.127 4.78001 14.857 4.49934 13.219 2.85801C11.2843 0.920673 11.211 0.853339 10.8937 0.732006C10.7657 0.682673 10.6543 0.680673 8.08035 0.677339C6.60635 0.675339 5.36435 0.678673 5.32035 0.684673ZM12.247 3.75334L14.0003 5.50667V8.00001V10.494L13.3603 11.1333L12.7203 11.7733L8.47368 7.52667L4.22701 3.28001L4.86701 2.64001L5.50635 2.00001H8.00035H10.4937L12.247 3.75334ZM7.53368 8.48001L11.7737 12.72L11.1337 13.36L10.4943 14H8.00035H5.50701L3.75368 12.2467L2.00035 10.4933V8.00001V5.50734L2.63368 4.87334C2.98168 4.52534 3.27301 4.24001 3.28035 4.24001C3.28768 4.24001 5.20168 6.14801 7.53368 8.48001Z" fill="black"/>
<path fill-rule="evenodd" clip-rule="evenodd" d="M5.32035 0.684673C5.17968 0.704673 4.98101 0.778673 4.82835 0.868673C4.72301 0.931339 4.13101 1.50667 2.78168 2.85801C1.14368 4.49934 0.873681 4.78001 0.816348 4.90667C0.661681 5.24601 0.667014 5.14201 0.667014 8.00001C0.667014 10.8573 0.661681 10.754 0.816348 11.0933C0.873681 11.22 1.14368 11.5013 2.82168 13.1787C4.49901 14.8567 4.78035 15.1267 4.90701 15.184C5.24635 15.3387 5.14301 15.3333 8.00035 15.3333C10.8577 15.3333 10.7543 15.3387 11.0937 15.184C11.2203 15.1267 11.5017 14.8567 13.179 13.1787C14.857 11.5013 15.127 11.22 15.1843 11.0933C15.339 10.754 15.3337 10.8573 15.3337 8.00001C15.3337 5.14201 15.339 5.24601 15.1843 4.90667C15.127 4.78001 14.857 4.49934 13.219 2.85801C11.2843 0.920673 11.211 0.853339 10.8937 0.732006C10.7657 0.682673 10.6543 0.680673 8.08035 0.677339C6.60635 0.675339 5.36435 0.678673 5.32035 0.684673ZM12.247 3.75334L14.0003 5.50667V8.00001V10.494L13.3603 11.1333L12.7203 11.7733L8.47368 7.52667L4.22701 3.28001L4.86701 2.64001L5.50635 2.00001H8.00035H10.4937L12.247 3.75334ZM7.53368 8.48001L11.7737 12.72L11.1337 13.36L10.4943 14H8.00035H5.50701L3.75368 12.2467L2.00035 10.4933V8.00001V5.50734L2.63368 4.87334C2.98168 4.52534 3.27301 4.24001 3.28035 4.24001C3.28768 4.24001 5.20168 6.14801 7.53368 8.48001Z" fill="white" fill-opacity="0.9"/>
</svg>
