<svg width="14" height="14" viewBox="0 0 14 14" fill="none" xmlns="http://www.w3.org/2000/svg">
<path d="M7.63848 2.15544C7.63848 1.79352 7.34181 1.50012 6.97584 1.50012C6.60987 1.50012 6.3132 1.79352 6.3132 2.15544V4.7769H3.66265C3.29667 4.7769 3 5.0703 3 5.43222C3 5.79414 3.29667 6.08754 3.66265 6.08754H6.3132V8.70863C6.3132 9.07055 6.60987 9.36395 6.97584 9.36395C7.34181 9.36395 7.63848 9.07055 7.63848 8.70863V6.08754H10.2891C10.655 6.08754 10.9518 5.79414 10.9518 5.43222C10.9518 5.0703 10.655 4.7769 10.2891 4.7769H7.63848V2.15544Z" fill="#FF0000"/>
<path d="M3.66459 11.1896C3.29863 11.1896 3.00195 11.4829 3.00195 11.8449C3.00195 12.2067 3.29863 12.5001 3.66459 12.5001H10.3374C10.7034 12.5001 11 12.2067 11 11.8449C11 11.4829 10.7034 11.1896 10.3374 11.1896H3.66459Z" fill="#FF0000"/>
</svg>
