<svg width="14" height="14" viewBox="0 0 14 14" fill="none" xmlns="http://www.w3.org/2000/svg">
<path fill-rule="evenodd" clip-rule="evenodd" d="M0.74268 0.371667C0.58468 0.421001 0.47468 0.507667 0.406013 0.635668C0.35668 0.728334 0.34668 0.789667 0.34668 1.00033C0.34668 1.221 0.355346 1.269 0.413346 1.37233C0.48668 1.50367 0.609346 1.599 0.75668 1.63967C0.890013 1.677 13.11 1.677 13.2433 1.63967C13.3907 1.599 13.5133 1.50367 13.5867 1.37233C13.6447 1.26833 13.6533 1.22167 13.6527 1.00033C13.652 0.711667 13.5987 0.570334 13.452 0.466334C13.2567 0.327001 13.5847 0.333667 6.98935 0.335667C2.03068 0.337001 0.832013 0.343667 0.74268 0.371667ZM3.44335 4.363C2.60868 4.451 1.96535 4.999 1.74068 5.81367C1.68468 6.01567 1.68201 6.07833 1.68201 7.00033C1.68201 7.92233 1.68468 7.985 1.74068 8.187C1.93868 8.903 2.44401 9.40367 3.16001 9.59367L3.38668 9.65367H7.00001H10.6133L10.834 9.595C11.5567 9.40167 12.0567 8.90767 12.2587 8.18567C12.3153 7.98433 12.318 7.925 12.318 7.00033C12.318 6.07567 12.3153 6.01633 12.2587 5.815C12.098 5.23967 11.7567 4.81767 11.2473 4.56233C11.01 4.44367 10.828 4.393 10.52 4.361C10.212 4.329 3.75068 4.33033 3.44335 4.363ZM10.6267 5.743C10.7867 5.82633 10.8453 5.88367 10.922 6.03433C10.9867 6.15967 10.9867 6.16433 10.9867 7.00033V7.84033L10.9207 7.96967C10.848 8.11167 10.7433 8.21233 10.6 8.27767C10.516 8.31633 10.1567 8.32033 7.00001 8.32033C3.84335 8.32033 3.48401 8.31633 3.40001 8.27767C3.25535 8.21167 3.14335 8.10433 3.07801 7.96967C3.02268 7.855 3.01735 7.801 3.00668 7.20367C2.99201 6.40833 3.01868 6.10833 3.11668 5.96033C3.22335 5.79967 3.37068 5.71433 3.58201 5.69233C3.68001 5.68167 5.27801 5.675 7.13335 5.677L10.5067 5.68033L10.6267 5.743ZM0.74268 12.3717C0.58468 12.421 0.47468 12.5077 0.406013 12.6357C0.35668 12.7283 0.34668 12.7897 0.34668 13.0003C0.34668 13.221 0.355346 13.269 0.413346 13.3723C0.48668 13.5037 0.609346 13.599 0.75668 13.6397C0.890013 13.677 13.11 13.677 13.2433 13.6397C13.3907 13.599 13.5133 13.5037 13.5867 13.3723C13.6447 13.2683 13.6533 13.2217 13.6527 13.0003C13.652 12.7117 13.5987 12.5703 13.452 12.4663C13.2567 12.327 13.5847 12.3337 6.98935 12.3357C2.03068 12.337 0.832013 12.3437 0.74268 12.3717Z" fill="black"/>
<path fill-rule="evenodd" clip-rule="evenodd" d="M0.74268 0.371667C0.58468 0.421001 0.47468 0.507667 0.406013 0.635668C0.35668 0.728334 0.34668 0.789667 0.34668 1.00033C0.34668 1.221 0.355346 1.269 0.413346 1.37233C0.48668 1.50367 0.609346 1.599 0.75668 1.63967C0.890013 1.677 13.11 1.677 13.2433 1.63967C13.3907 1.599 13.5133 1.50367 13.5867 1.37233C13.6447 1.26833 13.6533 1.22167 13.6527 1.00033C13.652 0.711667 13.5987 0.570334 13.452 0.466334C13.2567 0.327001 13.5847 0.333667 6.98935 0.335667C2.03068 0.337001 0.832013 0.343667 0.74268 0.371667ZM3.44335 4.363C2.60868 4.451 1.96535 4.999 1.74068 5.81367C1.68468 6.01567 1.68201 6.07833 1.68201 7.00033C1.68201 7.92233 1.68468 7.985 1.74068 8.187C1.93868 8.903 2.44401 9.40367 3.16001 9.59367L3.38668 9.65367H7.00001H10.6133L10.834 9.595C11.5567 9.40167 12.0567 8.90767 12.2587 8.18567C12.3153 7.98433 12.318 7.925 12.318 7.00033C12.318 6.07567 12.3153 6.01633 12.2587 5.815C12.098 5.23967 11.7567 4.81767 11.2473 4.56233C11.01 4.44367 10.828 4.393 10.52 4.361C10.212 4.329 3.75068 4.33033 3.44335 4.363ZM10.6267 5.743C10.7867 5.82633 10.8453 5.88367 10.922 6.03433C10.9867 6.15967 10.9867 6.16433 10.9867 7.00033V7.84033L10.9207 7.96967C10.848 8.11167 10.7433 8.21233 10.6 8.27767C10.516 8.31633 10.1567 8.32033 7.00001 8.32033C3.84335 8.32033 3.48401 8.31633 3.40001 8.27767C3.25535 8.21167 3.14335 8.10433 3.07801 7.96967C3.02268 7.855 3.01735 7.801 3.00668 7.20367C2.99201 6.40833 3.01868 6.10833 3.11668 5.96033C3.22335 5.79967 3.37068 5.71433 3.58201 5.69233C3.68001 5.68167 5.27801 5.675 7.13335 5.677L10.5067 5.68033L10.6267 5.743ZM0.74268 12.3717C0.58468 12.421 0.47468 12.5077 0.406013 12.6357C0.35668 12.7283 0.34668 12.7897 0.34668 13.0003C0.34668 13.221 0.355346 13.269 0.413346 13.3723C0.48668 13.5037 0.609346 13.599 0.75668 13.6397C0.890013 13.677 13.11 13.677 13.2433 13.6397C13.3907 13.599 13.5133 13.5037 13.5867 13.3723C13.6447 13.2683 13.6533 13.2217 13.6527 13.0003C13.652 12.7117 13.5987 12.5703 13.452 12.4663C13.2567 12.327 13.5847 12.3337 6.98935 12.3357C2.03068 12.337 0.832013 12.3437 0.74268 12.3717Z" fill="white" fill-opacity="0.6"/>
</svg>
