<svg width="24" height="24" viewBox="0 0 11 8" fill="none" xmlns="http://www.w3.org/2000/svg">
<path d="M6.40888 3.5717H7.38009C7.40262 3.5717 7.42423 3.56266 7.44021 3.54655C7.45618 3.53045 7.46521 3.50859 7.46534 3.48576V2.60921C7.46534 2.58629 7.45635 2.56432 7.44037 2.54812C7.42438 2.53191 7.4027 2.52281 7.38009 2.52281H6.40888C6.38639 2.52281 6.36482 2.53186 6.34892 2.54798C6.33302 2.5641 6.32409 2.58595 6.32409 2.60875V3.48576C6.32409 3.53314 6.36213 3.5717 6.40888 3.5717M5.05496 1.04935H6.02571C6.04832 1.04935 6.07001 1.04025 6.08599 1.02404C6.10198 1.00784 6.11096 0.985865 6.11096 0.96295V0.0859362C6.11084 0.0631019 6.10181 0.0412447 6.08583 0.0251417C6.06986 0.00903879 6.04824 -3.30012e-07 6.02571 0H5.05496C5.03247 0 5.01091 0.00905404 4.99501 0.0251702C4.9791 0.0412864 4.97017 0.0631445 4.97017 0.0859362V0.96295C4.97017 1.01033 5.00775 1.04889 5.05496 1.04889M5.05496 2.31052H6.02571C6.04828 2.3104 6.0699 2.30126 6.08586 2.28508C6.10182 2.26891 6.11084 2.247 6.11096 2.22412V1.34757C6.11084 1.32474 6.10181 1.30288 6.08583 1.28678C6.06986 1.27068 6.04824 1.26164 6.02571 1.26164H5.05496C5.03247 1.26164 5.01091 1.27069 4.99501 1.28681C4.9791 1.30292 4.97017 1.32478 4.97017 1.34757V2.22412C4.97017 2.2715 5.00775 2.31006 5.05496 2.31052ZM3.71205 2.31052H4.68371C4.70616 2.31028 4.72761 2.30107 4.7434 2.28489C4.75919 2.26871 4.76805 2.24688 4.76805 2.22412V1.34757C4.76805 1.32478 4.75911 1.30292 4.74321 1.28681C4.72731 1.27069 4.70574 1.26164 4.68325 1.26164H3.71251C3.69002 1.26164 3.66845 1.27069 3.65255 1.28681C3.63665 1.30292 3.62771 1.32478 3.62771 1.34757V2.22412C3.62771 2.2715 3.66576 2.31006 3.71251 2.31052M2.35401 2.31052H3.32521C3.34774 2.3104 3.36931 2.30124 3.3852 2.28505C3.40109 2.26886 3.41001 2.24696 3.41001 2.22412V1.34757C3.41001 1.32478 3.40107 1.30292 3.38517 1.28681C3.36927 1.27069 3.3477 1.26164 3.32521 1.26164H2.35401C2.33148 1.26164 2.30986 1.27068 2.29389 1.28678C2.27791 1.30288 2.26888 1.32474 2.26876 1.34757V2.22412C2.26876 2.2715 2.30726 2.31006 2.35401 2.31052M5.05496 3.5717H6.02571C6.04824 3.5717 6.06986 3.56266 6.08583 3.54655C6.10181 3.53045 6.11084 3.50859 6.11096 3.48576V2.60921C6.11096 2.58629 6.10198 2.56432 6.08599 2.54812C6.07001 2.53191 6.04832 2.52281 6.02571 2.52281H5.05496C5.03247 2.52281 5.01091 2.53186 4.99501 2.54798C4.9791 2.5641 4.97017 2.58595 4.97017 2.60875V3.48576C4.97017 3.53314 5.00775 3.5717 5.05496 3.5717M3.71205 3.5717H4.68371C4.70612 3.57157 4.72757 3.56246 4.74337 3.54636C4.75918 3.53026 4.76805 3.50847 4.76805 3.48576V2.60921C4.76811 2.59792 4.76597 2.58674 4.76177 2.57629C4.75756 2.56584 4.75137 2.55633 4.74354 2.54831C4.7357 2.54028 4.72639 2.5339 4.71613 2.52953C4.70586 2.52515 4.69485 2.52287 4.68371 2.52281H3.71205C3.68964 2.52293 3.66819 2.53204 3.65239 2.54814C3.63658 2.56425 3.62771 2.58603 3.62771 2.60875V3.48576C3.62771 3.53314 3.66576 3.5717 3.71251 3.5717M2.35401 3.5717H3.32521C3.3477 3.5717 3.36927 3.56264 3.38517 3.54653C3.40107 3.53041 3.41001 3.50855 3.41001 3.48576V2.60921C3.41007 2.59792 3.40793 2.58674 3.40373 2.57629C3.39952 2.56584 3.39333 2.55633 3.3855 2.54831C3.37766 2.54028 3.36835 2.5339 3.35809 2.52953C3.34782 2.52515 3.33681 2.52287 3.32567 2.52281H2.35401C2.3314 2.52281 2.30971 2.53191 2.29373 2.54812C2.27774 2.56432 2.26876 2.58629 2.26876 2.60921V3.48576C2.26876 3.53314 2.30726 3.5717 2.35401 3.5717M1.01567 3.5717H1.98734C2.00975 3.57157 2.0312 3.56246 2.047 3.54636C2.0628 3.53026 2.07167 3.50847 2.07167 3.48576V2.60921C2.07173 2.59792 2.0696 2.58674 2.06539 2.57629C2.06119 2.56584 2.05499 2.55633 2.04716 2.54831C2.03933 2.54028 2.03002 2.5339 2.01975 2.52953C2.00949 2.52515 1.99847 2.52287 1.98734 2.52281H1.01567C0.993265 2.52293 0.971816 2.53204 0.956013 2.54814C0.940211 2.56425 0.93134 2.58603 0.93134 2.60875V3.48576C0.93134 3.53314 0.968924 3.5717 1.01613 3.5717M10.8914 3.01985C10.8616 2.99616 10.5834 2.78294 9.99579 2.78294C9.84088 2.7834 9.68596 2.79688 9.53288 2.82335C9.41921 2.03367 8.77525 1.64812 8.74638 1.63139L8.58871 1.53896L8.48513 1.69085C8.35496 1.89431 8.26054 2.11914 8.20463 2.35512C8.09921 2.8057 8.16338 3.22934 8.38934 3.59121C8.11663 3.74543 7.67892 3.78305 7.59 3.7863H0.344216C0.253243 3.78643 0.166018 3.82304 0.101605 3.88815C0.0371916 3.95326 0.000829462 4.04157 0.000466136 4.13376C-0.00802142 4.77705 0.0994636 5.4165 0.317633 6.02065C0.567424 6.68398 0.938674 7.17266 1.42222 7.47181C1.96305 7.80766 2.84305 7.99997 3.83992 7.99997C4.29046 8.00136 4.73963 7.96002 5.18284 7.8764C5.79831 7.76181 6.39054 7.54373 6.93504 7.23119C7.38421 6.9678 7.78754 6.63288 8.13129 6.23897C8.70513 5.58028 9.04704 4.8468 9.30142 4.19508H9.40271C10.0315 4.19508 10.4179 3.94006 10.631 3.72638C10.7727 3.59028 10.8831 3.42444 10.9551 3.24049L11 3.10671L10.8914 3.01985Z" fill="#FF0000"/>
</svg>
