<svg width="24" height="24" viewBox="0 0 24 24" fill="none" xmlns="http://www.w3.org/2000/svg">
<path fill-rule="evenodd" clip-rule="evenodd" d="M4.477 10.073C3.806 10.249 3.238 10.823 3.06 11.508C2.941 11.962 3.003 12.492 3.225 12.93C3.361 13.199 3.801 13.639 4.07 13.775C4.659 14.073 5.341 14.073 5.93 13.775C6.196 13.64 6.638 13.2 6.771 12.937C7.161 12.168 7.043 11.275 6.471 10.659C6.074 10.232 5.563 10.005 5 10.005C4.857 10.005 4.622 10.036 4.477 10.073ZM11.477 10.073C10.806 10.249 10.238 10.823 10.06 11.508C9.941 11.962 10.003 12.492 10.225 12.93C10.361 13.199 10.801 13.639 11.07 13.775C11.659 14.073 12.341 14.073 12.93 13.775C13.196 13.64 13.638 13.2 13.771 12.937C13.994 12.498 14.052 12.007 13.94 11.529C13.858 11.182 13.72 10.927 13.465 10.653C13.074 10.232 12.56 10.005 12 10.005C11.857 10.005 11.622 10.036 11.477 10.073ZM18.477 10.073C17.806 10.249 17.238 10.823 17.06 11.508C16.941 11.962 17.003 12.492 17.225 12.93C17.361 13.199 17.801 13.639 18.07 13.775C18.659 14.073 19.341 14.073 19.93 13.775C20.196 13.64 20.638 13.2 20.771 12.937C20.994 12.498 21.052 12.007 20.94 11.529C20.858 11.182 20.72 10.927 20.465 10.653C20.074 10.232 19.56 10.005 19 10.005C18.857 10.005 18.622 10.036 18.477 10.073Z" fill="#FF0000"/>
</svg>
