<svg width="24" height="24" viewBox="0 0 24 24" fill="none" xmlns="http://www.w3.org/2000/svg">
<path fill-rule="evenodd" clip-rule="evenodd" d="M4.47693 10.0729C3.80593 10.2489 3.23793 10.8229 3.05993 11.5079C2.94093 11.9619 3.00293 12.4919 3.22493 12.9299C3.36093 13.1989 3.80093 13.6389 4.06993 13.7749C4.65893 14.0729 5.34093 14.0729 5.92993 13.7749C6.19593 13.6399 6.63793 13.1999 6.77093 12.9369C7.16093 12.1679 7.04293 11.2749 6.47093 10.6589C6.07393 10.2319 5.56293 10.0049 4.99993 10.0049C4.85693 10.0049 4.62193 10.0359 4.47693 10.0729ZM11.4769 10.0729C10.8059 10.2489 10.2379 10.8229 10.0599 11.5079C9.94094 11.9619 10.0029 12.4919 10.2249 12.9299C10.3609 13.1989 10.8009 13.6389 11.0699 13.7749C11.6589 14.0729 12.3409 14.0729 12.9299 13.7749C13.1959 13.6399 13.6379 13.1999 13.7709 12.9369C13.9939 12.4979 14.0519 12.0069 13.9399 11.5289C13.8579 11.1819 13.7199 10.9269 13.4649 10.6529C13.0739 10.2319 12.5599 10.0049 11.9999 10.0049C11.8569 10.0049 11.6219 10.0359 11.4769 10.0729ZM18.4769 10.0729C17.8059 10.2489 17.2379 10.8229 17.0599 11.5079C16.9409 11.9619 17.0029 12.4919 17.2249 12.9299C17.3609 13.1989 17.8009 13.6389 18.0699 13.7749C18.6589 14.0729 19.3409 14.0729 19.9299 13.7749C20.1959 13.6399 20.6379 13.1999 20.7709 12.9369C20.9939 12.4979 21.0519 12.0069 20.9399 11.5289C20.8579 11.1819 20.7199 10.9269 20.4649 10.6529C20.0739 10.2319 19.5599 10.0049 18.9999 10.0049C18.8569 10.0049 18.6219 10.0359 18.4769 10.0729Z" fill="#FF0000"/>
</svg>
