<svg width="24" height="24" viewBox="0 0 24 24" fill="none" xmlns="http://www.w3.org/2000/svg">
<path fill-rule="evenodd" clip-rule="evenodd" d="M11.4771 3.07314C10.8061 3.24914 10.2381 3.82314 10.0601 4.50814C9.94106 4.96214 10.0031 5.49214 10.2251 5.93014C10.3611 6.19914 10.8011 6.63914 11.0701 6.77514C11.6591 7.07314 12.3411 7.07314 12.9301 6.77514C13.1961 6.64014 13.6381 6.20014 13.7711 5.93714C13.9941 5.49814 14.0521 5.00714 13.9401 4.52914C13.8581 4.18214 13.7201 3.92714 13.4651 3.65314C12.9481 3.09714 12.2111 2.88214 11.4771 3.07314ZM11.4771 10.0731C10.8061 10.2491 10.2381 10.8231 10.0601 11.5081C9.94106 11.9621 10.0031 12.4921 10.2251 12.9301C10.3611 13.1991 10.8011 13.6391 11.0701 13.7751C11.6591 14.0731 12.3411 14.0731 12.9301 13.7751C13.1961 13.6401 13.6381 13.2001 13.7711 12.9371C13.9941 12.4981 14.0521 12.0071 13.9401 11.5291C13.8581 11.1821 13.7201 10.9271 13.4651 10.6531C13.0741 10.2321 12.5601 10.0051 12.0001 10.0051C11.8571 10.0051 11.6221 10.0361 11.4771 10.0731ZM11.4771 17.0731C10.8061 17.2491 10.2381 17.8231 10.0601 18.5081C9.94106 18.9621 10.0031 19.4921 10.2251 19.9301C10.3611 20.1991 10.8011 20.6391 11.0701 20.7751C11.6591 21.0731 12.3411 21.0731 12.9301 20.7751C13.1961 20.6401 13.6381 20.2001 13.7711 19.9371C13.9941 19.4981 14.0521 19.0071 13.9401 18.5291C13.8581 18.1821 13.7201 17.9271 13.4651 17.6531C13.0741 17.2321 12.5601 17.0051 12.0001 17.0051C11.8571 17.0051 11.6221 17.0361 11.4771 17.0731Z" fill="red"/>
</svg>
