<svg width="24" height="24" viewBox="0 0 24 24" fill="none" xmlns="http://www.w3.org/2000/svg">
<path fill-rule="evenodd" clip-rule="evenodd" d="M11.614 2.05689C11.377 2.13089 11.212 2.26089 11.109 2.45289L11.02 2.61989L11.009 8.59889L10.999 14.5769L8.76902 12.3529C7.29402 10.8809 6.48302 10.0999 6.37202 10.0439C6.02002 9.86789 5.63902 9.95889 5.29902 10.2989C4.95202 10.6459 4.86302 11.0099 5.04002 11.3629C5.10202 11.4869 6.02902 12.4449 8.13402 14.5609C9.78702 16.2229 11.174 17.6329 11.216 17.6959C11.318 17.8499 11.761 18.0489 12 18.0489C12.239 18.0489 12.682 17.8499 12.784 17.6959C12.826 17.6329 14.213 16.2229 15.866 14.5609C17.971 12.4449 18.898 11.4869 18.96 11.3629C19.137 11.0099 19.048 10.6459 18.701 10.2989C18.361 9.95889 17.98 9.86789 17.628 10.0439C17.517 10.0999 16.706 10.8809 15.231 12.3529L13.001 14.5769L12.991 8.59889L12.98 2.61989L12.891 2.45289C12.842 2.36189 12.746 2.24689 12.678 2.19889C12.414 2.00989 11.957 1.94989 11.614 2.05689ZM2.61402 20.0569C2.37702 20.1309 2.21202 20.2609 2.10902 20.4529C2.03502 20.5919 2.02002 20.6839 2.02002 20.9999C2.02002 21.3309 2.03302 21.4029 2.12002 21.5579C2.23002 21.7549 2.41402 21.8979 2.63502 21.9589C2.83502 22.0149 21.165 22.0149 21.365 21.9589C21.586 21.8979 21.77 21.7549 21.88 21.5579C21.967 21.4019 21.98 21.3319 21.979 20.9999C21.978 20.5669 21.898 20.3549 21.678 20.1989C21.385 19.9899 21.877 19.9999 11.984 20.0029C4.54602 20.0049 2.74802 20.0149 2.61402 20.0569Z" fill="#FF1200"/>
</svg>
