<svg width="24" height="24" viewBox="0 0 24 24" fill="none" xmlns="http://www.w3.org/2000/svg">
<path fill-rule="evenodd" clip-rule="evenodd" d="M11.6141 2.05689C11.3771 2.13089 11.2121 2.26089 11.1091 2.45289L11.0201 2.61989L11.0091 7.59789L10.9991 12.5769L9.26909 10.8529C8.14709 9.73389 7.48109 9.09889 7.37209 9.04389C7.02009 8.86789 6.63909 8.95889 6.29909 9.29889C5.95209 9.64589 5.86309 10.0099 6.04009 10.3629C6.10109 10.4859 6.89709 11.3129 8.63409 13.0609C10.0121 14.4479 11.1741 15.6339 11.2161 15.6959C11.3181 15.8499 11.7611 16.0489 12.0001 16.0489C12.2391 16.0489 12.6821 15.8499 12.7841 15.6959C12.8261 15.6339 13.9881 14.4479 15.3661 13.0609C17.1031 11.3129 17.8991 10.4859 17.9601 10.3629C18.1371 10.0099 18.0481 9.64589 17.7011 9.29889C17.3611 8.95889 16.9801 8.86789 16.6281 9.04389C16.5191 9.09889 15.8531 9.73389 14.7311 10.8529L13.0021 12.5759L12.9911 7.59789L12.9801 2.61989L12.8911 2.45289C12.8421 2.36189 12.7461 2.24689 12.6781 2.19889C12.4141 2.00989 11.9571 1.94989 11.6141 2.05689ZM2.61409 14.0569C2.37709 14.1309 2.21209 14.2609 2.10909 14.4529C2.02209 14.6159 2.02009 14.6579 2.00709 16.1199C1.98809 18.3879 2.07409 19.0879 2.46509 19.8589C2.91509 20.7489 3.77209 21.4819 4.68009 21.7549C5.47409 21.9939 5.64209 21.9999 12.0001 21.9999C18.3581 21.9999 18.5261 21.9939 19.3201 21.7549C20.2281 21.4819 21.0851 20.7489 21.5351 19.8589C21.9271 19.0869 22.0121 18.3859 21.9931 16.1199C21.9801 14.6579 21.9781 14.6159 21.8911 14.4529C21.7851 14.2559 21.6221 14.1309 21.3711 14.0549C20.8611 13.9019 20.3101 14.0759 20.1101 14.4529C20.0241 14.6159 20.0211 14.6669 19.9931 16.4199C19.9581 18.7309 19.9301 18.8699 19.4001 19.4009C19.1011 19.7009 18.8201 19.8509 18.4181 19.9279C18.0101 20.0049 5.99009 20.0049 5.58209 19.9269C5.17009 19.8499 4.89809 19.7039 4.60009 19.4029C4.07009 18.8679 4.04309 18.7319 4.00609 16.4199C3.97909 14.6699 3.97509 14.6149 3.89009 14.4529C3.84109 14.3619 3.74609 14.2469 3.67809 14.1989C3.41409 14.0099 2.95709 13.9499 2.61409 14.0569Z" fill="#FF0000"/>
</svg>
