<svg width="16" height="16" viewBox="0 0 16 16" fill="none" xmlns="http://www.w3.org/2000/svg">
<path d="M13.3334 10.0002C13.3334 10.3668 13.2029 10.6807 12.9417 10.9418C12.6806 11.2029 12.3667 11.3335 12.0001 11.3335C11.6334 11.3335 11.3195 11.2029 11.0584 10.9418C10.7973 10.6807 10.6667 10.3668 10.6667 10.0002C10.6667 9.6335 10.7973 9.31961 11.0584 9.0585C11.3195 8.79739 11.6334 8.66683 12.0001 8.66683C12.3667 8.66683 12.6806 8.79739 12.9417 9.0585C13.2029 9.31961 13.3334 9.6335 13.3334 10.0002ZM13.3334 6.00016C13.3334 6.36683 13.2029 6.68072 12.9417 6.94183C12.6806 7.20294 12.3667 7.3335 12.0001 7.3335C11.6334 7.3335 11.3195 7.20294 11.0584 6.94183C10.7973 6.68072 10.6667 6.36683 10.6667 6.00016C10.6667 5.6335 10.7973 5.31961 11.0584 5.0585C11.3195 4.79739 11.6334 4.66683 12.0001 4.66683C12.3667 4.66683 12.6806 4.79739 12.9417 5.0585C13.2029 5.31961 13.3334 5.6335 13.3334 6.00016ZM9.33342 10.0002C9.33342 10.3668 9.20286 10.6807 8.94175 10.9418C8.68064 11.2029 8.36675 11.3335 8.00008 11.3335C7.63342 11.3335 7.31953 11.2029 7.05842 10.9418C6.7973 10.6807 6.66675 10.3668 6.66675 10.0002C6.66675 9.6335 6.7973 9.31961 7.05842 9.0585C7.31953 8.79739 7.63342 8.66683 8.00008 8.66683C8.36675 8.66683 8.68064 8.79739 8.94175 9.0585C9.20286 9.31961 9.33342 9.6335 9.33342 10.0002ZM9.33342 6.00016C9.33342 6.36683 9.20286 6.68072 8.94175 6.94183C8.68064 7.20294 8.36675 7.3335 8.00008 7.3335C7.63342 7.3335 7.31953 7.20294 7.05842 6.94183C6.7973 6.68072 6.66675 6.36683 6.66675 6.00016C6.66675 5.6335 6.7973 5.31961 7.05842 5.0585C7.31953 4.79739 7.63342 4.66683 8.00008 4.66683C8.36675 4.66683 8.68064 4.79739 8.94175 5.0585C9.20286 5.31961 9.33342 5.6335 9.33342 6.00016ZM5.33342 10.0002C5.33342 10.3668 5.20286 10.6807 4.94175 10.9418C4.68064 11.2029 4.36675 11.3335 4.00008 11.3335C3.63342 11.3335 3.31953 11.2029 3.05842 10.9418C2.7973 10.6807 2.66675 10.3668 2.66675 10.0002C2.66675 9.6335 2.7973 9.31961 3.05842 9.0585C3.31953 8.79739 3.63342 8.66683 4.00008 8.66683C4.36675 8.66683 4.68064 8.79739 4.94175 9.0585C5.20286 9.31961 5.33342 9.6335 5.33342 10.0002ZM5.33342 6.00016C5.33342 6.36683 5.20286 6.68072 4.94175 6.94183C4.68064 7.20294 4.36675 7.3335 4.00008 7.3335C3.63342 7.3335 3.31953 7.20294 3.05842 6.94183C2.7973 6.68072 2.66675 6.36683 2.66675 6.00016C2.66675 5.6335 2.7973 5.31961 3.05842 5.0585C3.31953 4.79739 3.63342 4.66683 4.00008 4.66683C4.36675 4.66683 4.68064 4.79739 4.94175 5.0585C5.20286 5.31961 5.33342 5.6335 5.33342 6.00016Z" fill="#121212"/>
<path d="M13.3334 10.0002C13.3334 10.3668 13.2029 10.6807 12.9417 10.9418C12.6806 11.2029 12.3667 11.3335 12.0001 11.3335C11.6334 11.3335 11.3195 11.2029 11.0584 10.9418C10.7973 10.6807 10.6667 10.3668 10.6667 10.0002C10.6667 9.6335 10.7973 9.31961 11.0584 9.0585C11.3195 8.79739 11.6334 8.66683 12.0001 8.66683C12.3667 8.66683 12.6806 8.79739 12.9417 9.0585C13.2029 9.31961 13.3334 9.6335 13.3334 10.0002ZM13.3334 6.00016C13.3334 6.36683 13.2029 6.68072 12.9417 6.94183C12.6806 7.20294 12.3667 7.3335 12.0001 7.3335C11.6334 7.3335 11.3195 7.20294 11.0584 6.94183C10.7973 6.68072 10.6667 6.36683 10.6667 6.00016C10.6667 5.6335 10.7973 5.31961 11.0584 5.0585C11.3195 4.79739 11.6334 4.66683 12.0001 4.66683C12.3667 4.66683 12.6806 4.79739 12.9417 5.0585C13.2029 5.31961 13.3334 5.6335 13.3334 6.00016ZM9.33342 10.0002C9.33342 10.3668 9.20286 10.6807 8.94175 10.9418C8.68064 11.2029 8.36675 11.3335 8.00008 11.3335C7.63342 11.3335 7.31953 11.2029 7.05842 10.9418C6.7973 10.6807 6.66675 10.3668 6.66675 10.0002C6.66675 9.6335 6.7973 9.31961 7.05842 9.0585C7.31953 8.79739 7.63342 8.66683 8.00008 8.66683C8.36675 8.66683 8.68064 8.79739 8.94175 9.0585C9.20286 9.31961 9.33342 9.6335 9.33342 10.0002ZM9.33342 6.00016C9.33342 6.36683 9.20286 6.68072 8.94175 6.94183C8.68064 7.20294 8.36675 7.3335 8.00008 7.3335C7.63342 7.3335 7.31953 7.20294 7.05842 6.94183C6.7973 6.68072 6.66675 6.36683 6.66675 6.00016C6.66675 5.6335 6.7973 5.31961 7.05842 5.0585C7.31953 4.79739 7.63342 4.66683 8.00008 4.66683C8.36675 4.66683 8.68064 4.79739 8.94175 5.0585C9.20286 5.31961 9.33342 5.6335 9.33342 6.00016ZM5.33342 10.0002C5.33342 10.3668 5.20286 10.6807 4.94175 10.9418C4.68064 11.2029 4.36675 11.3335 4.00008 11.3335C3.63342 11.3335 3.31953 11.2029 3.05842 10.9418C2.7973 10.6807 2.66675 10.3668 2.66675 10.0002C2.66675 9.6335 2.7973 9.31961 3.05842 9.0585C3.31953 8.79739 3.63342 8.66683 4.00008 8.66683C4.36675 8.66683 4.68064 8.79739 4.94175 9.0585C5.20286 9.31961 5.33342 9.6335 5.33342 10.0002ZM5.33342 6.00016C5.33342 6.36683 5.20286 6.68072 4.94175 6.94183C4.68064 7.20294 4.36675 7.3335 4.00008 7.3335C3.63342 7.3335 3.31953 7.20294 3.05842 6.94183C2.7973 6.68072 2.66675 6.36683 2.66675 6.00016C2.66675 5.6335 2.7973 5.31961 3.05842 5.0585C3.31953 4.79739 3.63342 4.66683 4.00008 4.66683C4.36675 4.66683 4.68064 4.79739 4.94175 5.0585C5.20286 5.31961 5.33342 5.6335 5.33342 6.00016Z" fill="#FAF9F6" fill-opacity="0.6"/>
</svg>
