<svg width="24" height="24" viewBox="0 0 24 24" fill="none" xmlns="http://www.w3.org/2000/svg">
<g clip-path="url(#clip0_122280_27)">
<path d="M17.2616 4.16338C17.2164 4.1522 17.1743 4.13135 17.1379 4.10236C17.1016 4.07333 17.0718 4.03683 17.0509 3.9953C17.03 3.95376 17.0183 3.90819 17.0165 3.86172C17.0149 3.8152 17.0232 3.76893 17.0411 3.72598C17.6575 2.22582 17.9295 1.02547 17.4905 0.522964C16.328 -0.810226 11.6658 1.84088 10.1793 2.73877C10.1395 2.76271 10.0949 2.77778 10.0488 2.78293C10.0026 2.78808 9.95589 2.78319 9.91178 2.76865C9.86767 2.7541 9.82719 2.73021 9.79316 2.6986C9.75914 2.66699 9.73236 2.6284 9.71456 2.5855C9.08971 1.08848 8.43283 0.0472375 7.76702 0.00208019C6.00221 -0.118689 4.57975 5.05282 4.16336 6.73834C4.15223 6.7835 4.13149 6.82572 4.10256 6.86205C4.07357 6.89844 4.03708 6.92811 3.9956 6.94906C3.95411 6.97001 3.90859 6.98172 3.86212 6.9834C3.8157 6.98513 3.76944 6.97678 3.72649 6.95893C2.22632 6.34248 1.02545 6.07049 0.523472 6.50946C-0.809718 7.672 1.84091 12.3342 2.73881 13.8207C2.7628 13.8605 2.77792 13.905 2.78312 13.9512C2.78832 13.9974 2.78349 14.0442 2.76895 14.0883C2.7544 14.1324 2.73046 14.1729 2.69879 14.2069C2.66713 14.241 2.62848 14.2677 2.58548 14.2854C1.08899 14.9102 0.0477449 15.5671 0.00206248 16.2329C-0.118182 17.9977 5.05285 19.4203 6.7389 19.8366C6.78395 19.8479 6.82601 19.8687 6.8623 19.8977C6.89853 19.9267 6.92814 19.9632 6.94899 20.0047C6.96989 20.0461 6.9816 20.0916 6.98328 20.138C6.98501 20.1844 6.97671 20.2306 6.95891 20.2735C6.34246 21.7736 6.07047 22.9745 6.50944 23.4765C7.67198 24.8097 12.3347 22.159 13.8212 21.2611C13.861 21.2371 13.9056 21.222 13.9518 21.2168C13.9979 21.2116 14.0447 21.2165 14.0888 21.2311C14.133 21.2456 14.1734 21.2695 14.2074 21.3012C14.2415 21.3329 14.2683 21.3715 14.2859 21.4145C14.9108 22.911 15.5672 23.9523 16.2335 23.9979C17.9983 24.1182 19.4208 18.9471 19.8366 17.2611C19.8479 17.216 19.8687 17.1738 19.8977 17.1375C19.9268 17.1012 19.9633 17.0716 20.0049 17.0507C20.0464 17.0299 20.0919 17.0181 20.1384 17.0165C20.1849 17.0148 20.2311 17.0232 20.274 17.0411C21.7742 17.6575 22.9745 17.929 23.477 17.4905C24.8102 16.328 22.1591 11.6652 21.2612 10.1787C21.2373 10.1389 21.2224 10.0944 21.2173 10.0483C21.2121 10.0021 21.2171 9.95538 21.2316 9.91133C21.2462 9.86722 21.27 9.82679 21.3016 9.79276C21.3331 9.75874 21.3717 9.73185 21.4145 9.71405C22.9115 9.0892 23.9528 8.43227 23.9979 7.76646C24.1187 6.00165 18.9471 4.57925 17.2616 4.16338ZM15.2369 2.4715C15.5761 3.07955 13.8281 7.13116 12.528 9.96504C12.5062 10.0124 12.4705 10.052 12.4256 10.0785C12.3807 10.1049 12.3287 10.117 12.2767 10.1131C12.2247 10.1091 12.1752 10.0893 12.1348 10.0564C12.0943 10.0234 12.065 9.9789 12.0507 9.92876C11.5256 8.08624 10.9254 5.92136 10.2832 4.08357C10.258 4.01142 10.2593 3.93266 10.2868 3.8614C10.3143 3.7901 10.3663 3.73092 10.4334 3.69443C12.037 2.81858 14.7811 1.65552 15.2369 2.4715ZM7.55173 2.97296C8.22122 3.16304 9.85003 7.26401 10.9343 10.1872C10.9524 10.236 10.9551 10.2892 10.9421 10.3396C10.929 10.39 10.9009 10.4353 10.8614 10.4692C10.8219 10.5032 10.7729 10.5243 10.7211 10.5296C10.6693 10.5349 10.6171 10.5243 10.5715 10.4991C8.89595 9.56913 6.94211 8.4612 5.18833 7.61581C5.11964 7.58247 5.06504 7.52592 5.03416 7.45608C5.00329 7.3863 4.99819 7.3078 5.01977 7.2346C5.53593 5.48292 6.65226 2.71829 7.55173 2.97296ZM2.47206 8.76202C3.07959 8.42282 7.13167 10.1709 9.96502 11.471C10.0124 11.4927 10.052 11.5284 10.0785 11.5734C10.105 11.6183 10.117 11.6703 10.1131 11.7222C10.1091 11.7742 10.0894 11.8237 10.0564 11.8642C10.0235 11.9045 9.97894 11.934 9.92879 11.9483C8.08679 12.4734 5.92134 13.0735 4.08355 13.7157C4.01151 13.7408 3.93285 13.7395 3.8617 13.7119C3.79055 13.6844 3.73143 13.6326 3.69498 13.5655C2.82072 11.9619 1.65556 9.21779 2.47206 8.76202ZM2.97352 16.4472C3.16307 15.7777 7.26451 14.1489 10.1877 13.0646C10.2365 13.0465 10.2897 13.0438 10.3401 13.0568C10.3906 13.0699 10.4358 13.0981 10.4698 13.1376C10.5037 13.177 10.5248 13.226 10.5301 13.2778C10.5354 13.3296 10.5248 13.3818 10.4996 13.4275C9.56911 15.103 8.46118 17.0568 7.61579 18.8101C7.58277 18.879 7.52622 18.9339 7.45633 18.9648C7.38649 18.9958 7.30788 19.0009 7.23458 18.9792C5.4829 18.4662 2.71833 17.3467 2.97352 16.4472ZM8.76258 21.5269C8.42285 20.9194 10.1714 16.8673 11.4715 14.0339C11.4932 13.9865 11.529 13.9469 11.5739 13.9205C11.6188 13.894 11.6708 13.8819 11.7227 13.8859C11.7748 13.8898 11.8243 13.9096 11.8647 13.9425C11.9051 13.9755 11.9345 14.02 11.9488 14.0702C12.4739 15.9122 13.0741 18.0776 13.7162 19.9154C13.7413 19.9875 13.7399 20.0662 13.7123 20.1374C13.6847 20.2085 13.6326 20.2676 13.5655 20.304C11.9624 21.1782 9.21783 22.3434 8.76415 21.5269H8.76258ZM16.4477 21.0254C15.7777 20.8358 14.1489 16.7344 13.0646 13.8113C13.0464 13.7624 13.0436 13.709 13.0567 13.6585C13.0697 13.608 13.098 13.5627 13.1376 13.5287C13.1772 13.4947 13.2263 13.4737 13.2782 13.4684C13.3301 13.4632 13.3824 13.474 13.428 13.4993C15.103 14.4293 17.0573 15.5378 18.8106 16.3832C18.8794 16.4163 18.9342 16.4728 18.9651 16.5427C18.996 16.6126 19.0009 16.6911 18.9792 16.7644C18.4635 18.5187 17.3472 21.2806 16.4477 21.0254ZM21.5274 15.2363C20.9193 15.576 16.8678 13.8275 14.0339 12.5274C13.9865 12.5057 13.9469 12.47 13.9204 12.425C13.894 12.3801 13.8819 12.3281 13.8859 12.2762C13.8898 12.2242 13.9096 12.1747 13.9425 12.1342C13.9755 12.0938 14.02 12.0645 14.0701 12.0502C15.9127 11.5251 18.0776 10.9248 19.9154 10.2827C19.9876 10.2576 20.0663 10.259 20.1376 10.2866C20.2089 10.3142 20.268 10.3663 20.3045 10.4334C21.1782 12.0365 22.3434 14.7811 21.5274 15.2363ZM21.0259 7.55117C20.8359 8.22118 16.7349 9.85005 13.8118 10.9343C13.7629 10.9525 13.7096 10.9552 13.659 10.9422C13.6085 10.9292 13.5632 10.901 13.5292 10.8614C13.4952 10.8218 13.4742 10.7727 13.469 10.7207C13.4637 10.6689 13.4745 10.6166 13.4999 10.5709C14.4298 8.89592 15.5378 6.94155 16.3831 5.18829C16.4164 5.11956 16.4729 5.0649 16.5428 5.03402C16.6126 5.00315 16.6912 4.99805 16.7644 5.01974C18.516 5.53537 21.2806 6.6517 21.0259 7.55117Z" fill="#FF0000"/>
</g>
<defs>
<clipPath id="clip0_122280_27">
<rect width="24" height="24" fill="white"/>
</clipPath>
</defs>
</svg>
