<svg width="24" height="24" viewBox="0 0 24 24" fill="none" xmlns="http://www.w3.org/2000/svg">
<path fill-rule="evenodd" clip-rule="evenodd" d="M5.61397 3.05682C5.37697 3.13082 5.21197 3.26082 5.10897 3.45282L5.01997 3.61982L5.00997 11.9138C5.00297 17.3908 5.01297 20.2598 5.03997 20.3578C5.09997 20.5838 5.24297 20.7688 5.44197 20.8798L5.61997 20.9798H10.62C15.304 20.9798 15.641 20.9748 15.96 20.9068C17.488 20.5798 18.748 19.6298 19.433 18.2878C19.662 17.8388 19.805 17.4388 19.907 16.9598C20.008 16.4888 20.008 15.5108 19.907 15.0398C19.624 13.7148 18.867 12.5818 17.787 11.8628L17.434 11.6288L17.633 11.4238C18.239 10.8018 18.706 9.89882 18.907 8.95982C18.96 8.71382 18.98 8.44782 18.98 7.99982C18.98 7.55182 18.96 7.28582 18.907 7.03982C18.625 5.72082 17.863 4.57582 16.8 3.87382C16.046 3.37482 15.396 3.13482 14.552 3.04282C13.945 2.97582 5.82997 2.98982 5.61397 3.05682ZM14.861 5.12182C15.824 5.42482 16.585 6.18682 16.875 7.13882C16.958 7.41182 16.973 7.54182 16.973 7.99982C16.973 8.45782 16.958 8.58782 16.875 8.86082C16.585 9.81082 15.844 10.5558 14.86 10.8858L14.58 10.9798L10.79 10.9908L6.99997 11.0028V7.99982V4.99682L10.77 5.00882L14.54 5.02082L14.861 5.12182ZM15.861 13.1208C16.825 13.4258 17.585 14.1868 17.875 15.1388C17.958 15.4118 17.973 15.5418 17.973 15.9998C17.973 16.4578 17.958 16.5878 17.875 16.8608C17.586 17.8108 16.844 18.5558 15.86 18.8858L15.58 18.9798L11.29 18.9908L6.99997 19.0018V15.9998V12.9978L11.27 13.0088L15.54 13.0198L15.861 13.1208Z" fill="#FF1200"/>
</svg>
