<svg width="24" height="24" viewBox="0 0 24 24" fill="none" xmlns="http://www.w3.org/2000/svg">
<path fill-rule="evenodd" clip-rule="evenodd" d="M12.199 3L9.65802 3.02L9.45902 3.122C9.14402 3.284 9.00002 3.56 9.00002 4C9.00002 4.428 9.14402 4.713 9.44202 4.88L9.62002 4.98L11.584 5L13.548 5.02L10.926 12.01L8.30502 19H6.55902C4.69902 19 4.58702 19.01 4.32202 19.199C4.10002 19.357 4.02002 19.568 4.02002 20C4.02002 20.331 4.03302 20.403 4.12002 20.558C4.23202 20.758 4.41602 20.9 4.64402 20.961C4.85202 21.017 14.15 21.017 14.358 20.961C14.584 20.9 14.768 20.757 14.88 20.558C14.967 20.402 14.98 20.332 14.979 20C14.977 19.469 14.852 19.247 14.455 19.071C14.369 19.033 13.848 19.015 12.396 19L10.452 18.98L13.074 11.99L15.695 5H17.457C18.515 5 19.278 4.983 19.365 4.959C19.586 4.898 19.77 4.755 19.88 4.558C19.967 4.402 19.98 4.332 19.979 4C19.978 3.685 19.963 3.591 19.888 3.45C19.784 3.252 19.575 3.102 19.32 3.042C19.103 2.991 15.818 2.972 12.199 3Z" fill="#FF1200"/>
</svg>
