<svg width="24" height="24" viewBox="0 0 24 24" fill="none" xmlns="http://www.w3.org/2000/svg">
<path fill-rule="evenodd" clip-rule="evenodd" d="M7.61993 5.04606C7.38293 5.16706 1.15393 11.4061 1.03893 11.6371C0.985928 11.7441 0.950928 11.8891 0.950928 12.0001C0.950928 12.1111 0.985928 12.2561 1.03893 12.3631C1.16393 12.6131 7.38693 18.8361 7.63693 18.9611C7.98993 19.1371 8.35493 19.0471 8.70093 18.7011C9.04793 18.3541 9.13693 17.9901 8.96093 17.6371C8.89793 17.5131 8.05793 16.6441 6.14693 14.7301L3.42093 12.0001L6.14693 9.27006C8.05793 7.35606 8.89793 6.48706 8.96093 6.36306C9.13693 6.01006 9.04793 5.64606 8.70093 5.29906C8.36093 4.95906 7.96793 4.86706 7.61993 5.04606ZM15.6259 5.04506C15.4199 5.15406 15.1459 5.43306 15.0379 5.64406C14.9239 5.86706 14.9239 6.13206 15.0389 6.36306C15.1019 6.48706 15.9419 7.35606 17.8529 9.27006L20.5789 12.0001L17.8529 14.7301C15.9419 16.6441 15.1019 17.5131 15.0389 17.6371C14.8629 17.9901 14.9519 18.3541 15.2989 18.7011C15.6449 19.0471 16.0099 19.1371 16.3629 18.9611C16.6129 18.8361 22.8359 12.6131 22.9609 12.3631C23.0139 12.2561 23.0489 12.1111 23.0489 12.0001C23.0489 11.8891 23.0139 11.7441 22.9609 11.6371C22.8399 11.3941 16.6139 5.16406 16.3719 5.04406C16.1519 4.93406 15.8339 4.93506 15.6259 5.04506Z" fill="#FF1200"/>
</svg>
