<svg width="24" height="24" viewBox="0 0 24 24" fill="none" xmlns="http://www.w3.org/2000/svg">
<path fill-rule="evenodd" clip-rule="evenodd" d="M18.611 1.20391C17.903 1.26991 17.1781 1.56491 16.6201 2.01591C16.4441 2.15791 13.2101 5.36691 9.43405 9.14691C4.39605 14.1889 2.52405 16.0879 2.40505 16.2739C2.17605 16.6329 2.01805 17.0719 1.94305 17.5599C1.90705 17.7909 1.78905 18.7849 1.68105 19.7679C1.49205 21.4809 1.48605 21.5659 1.54305 21.7879C1.65405 22.2159 1.87405 22.4339 2.26005 22.4959C2.41805 22.5219 5.56405 22.1909 6.44005 22.0569C6.92805 21.9819 7.36705 21.8249 7.72605 21.5949C7.91205 21.4759 9.81505 19.5989 14.8531 14.5659C18.6331 10.7899 21.841 7.55691 21.982 7.38291C22.3081 6.97891 22.5741 6.44991 22.7071 5.93991C22.7941 5.60391 22.8111 5.45291 22.8111 4.99991C22.8111 4.54691 22.7941 4.39591 22.7071 4.05991C22.225 2.21691 20.518 1.02691 18.611 1.20391ZM19.6241 3.28591C20.618 3.65191 21.085 4.78191 20.653 5.77691C20.554 6.00391 20.098 6.46891 13.6051 12.9689C7.97705 18.6029 6.62905 19.9319 6.48205 19.9949C6.35005 20.0519 5.93905 20.1139 4.98805 20.2209C4.26605 20.3019 3.66705 20.3609 3.65705 20.3509C3.63905 20.3319 3.90105 17.9079 3.94505 17.6999C3.95805 17.6339 4.00205 17.5169 4.04205 17.4399C4.08205 17.3629 7.23405 14.1839 11.0471 10.3759C17.6891 3.74391 17.9911 3.44791 18.239 3.33991C18.6691 3.15291 19.205 3.13191 19.6241 3.28591Z" fill="#FF1200"/>
</svg>
