<svg width="24" height="24" viewBox="0 0 24 24" fill="none" xmlns="http://www.w3.org/2000/svg">
<path fill-rule="evenodd" clip-rule="evenodd" d="M17.45 1.9221C16.941 2.0131 16.483 2.2241 16.06 2.5631C15.714 2.8391 2.72202 15.8601 2.54602 16.1071C2.36702 16.3571 2.19102 16.7351 2.09302 17.0821C2.02902 17.3111 2.02002 17.5111 2.02002 18.8601V20.3801L2.12002 20.5581C2.23302 20.7601 2.41702 20.9001 2.65302 20.9631C2.76002 20.9921 3.29302 21.0011 4.25702 20.9891C5.86402 20.9701 5.91302 20.9631 6.50002 20.6801C6.72902 20.5701 6.93402 20.4241 7.22002 20.1671C7.44002 19.9701 10.511 16.9131 14.044 13.3741C18.381 9.0301 20.517 6.8631 20.62 6.7031C20.982 6.1431 21.145 5.5231 21.107 4.8421C21.095 4.6101 21.055 4.3121 21.019 4.1801C20.741 3.1561 19.841 2.2561 18.82 1.9811C18.531 1.9041 17.742 1.8691 17.45 1.9221ZM18.494 4.0011C18.716 4.1121 18.882 4.2801 19.007 4.5201C19.129 4.7551 19.137 5.2191 19.023 5.4601C18.927 5.6641 5.90602 18.7141 5.64002 18.8731C5.46502 18.9771 5.44002 18.9801 4.72602 18.9931L3.99202 19.0061L4.00702 18.2731C4.01902 17.6601 4.03402 17.5171 4.09502 17.4001C4.17902 17.2381 17.188 4.2001 17.406 4.0591C17.486 4.0071 17.612 3.9461 17.686 3.9241C17.894 3.8601 18.286 3.8971 18.494 4.0011ZM11.614 19.0571C11.377 19.1311 11.212 19.2611 11.109 19.4531C11.035 19.5921 11.02 19.6841 11.02 20.0001C11.02 20.3311 11.033 20.4031 11.12 20.5581C11.23 20.7551 11.414 20.8981 11.635 20.9591C11.834 21.0141 21.166 21.0141 21.365 20.9591C21.586 20.8981 21.77 20.7551 21.88 20.5581C21.967 20.4021 21.98 20.3321 21.979 20.0001C21.978 19.5671 21.898 19.3551 21.678 19.1991C21.392 18.9951 21.526 19.0001 16.484 19.0031C12.74 19.0051 11.746 19.0161 11.614 19.0571Z" fill="#FF0000"/>
</svg>
