<svg width="24" height="24" viewBox="0 0 24 24" fill="none" xmlns="http://www.w3.org/2000/svg">
<path fill-rule="evenodd" clip-rule="evenodd" d="M5.61402 3.05689C5.37702 3.13089 5.21202 3.26089 5.10902 3.45289L5.02002 3.61989V7.63989C5.02002 10.7699 5.03202 11.7349 5.07302 11.9999C5.55202 15.0899 7.88102 17.4249 10.98 17.9259C11.392 17.9919 12.607 17.9919 13.02 17.9259C16.116 17.4259 18.449 15.0859 18.927 11.9999C18.968 11.7359 18.98 10.7669 18.98 7.63989V3.61989L18.889 3.44989C18.724 3.13989 18.329 2.96989 17.874 3.01089C17.439 3.05089 17.141 3.27389 17.041 3.63489C17.015 3.72689 17 5.12189 17 7.47189C17 9.80689 16.984 11.3059 16.957 11.5519C16.884 12.2259 16.718 12.7599 16.398 13.3529C15.683 14.6809 14.466 15.5849 12.96 15.9069C12.489 16.0079 11.511 16.0079 11.04 15.9069C9.77102 15.6359 8.67702 14.9329 7.96302 13.9319C7.50302 13.2859 7.24202 12.6819 7.07102 11.8599C7.04402 11.7329 7.02002 10.1829 7.00402 7.63989L6.98002 3.61989L6.89102 3.45289C6.84202 3.36189 6.74602 3.24689 6.67802 3.19889C6.41402 3.00989 5.95702 2.94989 5.61402 3.05689ZM3.61402 20.0569C3.37702 20.1309 3.21202 20.2609 3.10902 20.4529C3.03502 20.5919 3.02002 20.6839 3.02002 20.9999C3.02002 21.3309 3.03302 21.4029 3.12002 21.5579C3.23002 21.7549 3.41402 21.8979 3.63502 21.9589C3.83502 22.0149 20.165 22.0149 20.365 21.9589C20.586 21.8979 20.77 21.7549 20.88 21.5579C20.967 21.4019 20.98 21.3319 20.979 20.9999C20.978 20.5669 20.898 20.3549 20.678 20.1989C20.386 19.9899 20.799 19.9999 11.984 20.0029C5.36702 20.0049 3.74802 20.0149 3.61402 20.0569Z" fill="#FF1200"/>
</svg>
