<svg width="24" height="24" viewBox="0 0 24 24" fill="none" xmlns="http://www.w3.org/2000/svg">
<path fill-rule="evenodd" clip-rule="evenodd" d="M9.39994 3.044C7.76094 3.229 6.26094 4.29 5.52594 5.785C5.21294 6.421 5.04594 7.061 5.01094 7.76C4.97994 8.391 5.09294 8.686 5.43794 8.876C5.64394 8.99 6.08894 9.033 6.34394 8.965C6.79594 8.842 6.94794 8.602 7.00294 7.923C7.02394 7.659 7.08294 7.302 7.13194 7.131C7.40494 6.188 8.21694 5.388 9.17794 5.112C9.49894 5.02 9.50994 5.02 11.9999 5.02C14.4899 5.02 14.5009 5.02 14.8219 5.112C15.7849 5.388 16.5949 6.188 16.8689 7.134C16.9209 7.315 16.9749 7.652 16.9949 7.922C17.0229 8.299 17.0489 8.428 17.1249 8.565C17.2859 8.856 17.5749 9 17.9999 9C18.4279 9 18.7129 8.856 18.8799 8.558C18.9719 8.394 18.9799 8.34 18.9789 7.88C18.9779 6.314 18.1279 4.752 16.7999 3.874C16.0459 3.375 15.3959 3.135 14.5519 3.043C14.0919 2.992 9.84894 2.994 9.39994 3.044ZM2.61394 11.057C2.22294 11.18 2.03894 11.436 2.00894 11.9C1.97794 12.381 2.11894 12.699 2.44194 12.88L2.61994 12.98L8.57994 13L14.5399 13.02L14.8609 13.121C15.8249 13.426 16.5849 14.187 16.8749 15.139C16.9579 15.412 16.9729 15.542 16.9729 16C16.9729 16.458 16.9579 16.588 16.8749 16.861C16.5819 17.822 15.8199 18.58 14.8399 18.886L14.5399 18.98H11.9999H9.45994L9.15994 18.886C8.57794 18.705 8.10694 18.391 7.69494 17.911C7.27694 17.423 7.06694 16.869 7.00294 16.082C6.95894 15.531 6.88094 15.334 6.64894 15.182C6.19794 14.887 5.42594 14.979 5.16994 15.358C5.02594 15.572 4.98894 15.781 5.01094 16.24C5.12494 18.533 6.75194 20.417 9.03994 20.907C9.34894 20.973 9.61794 20.98 11.9999 20.98C14.3819 20.98 14.6509 20.973 14.9599 20.907C16.4879 20.58 17.7479 19.63 18.4329 18.288C18.8379 17.494 18.9799 16.899 18.9799 16C18.9799 15.33 18.9219 14.957 18.7319 14.4C18.6049 14.029 18.3609 13.534 18.1549 13.23L17.9989 13H19.6099C20.5649 13 21.2789 12.983 21.3649 12.959C21.5859 12.898 21.7699 12.755 21.8799 12.558C21.9669 12.402 21.9799 12.332 21.9789 12C21.9779 11.567 21.8979 11.355 21.6779 11.199C21.3849 10.99 21.8769 11 11.9839 11.003C4.54594 11.005 2.74794 11.015 2.61394 11.057Z" fill="#FF1200"/>
</svg>
