<svg width="24" height="24" viewBox="0 0 24 24" fill="none" xmlns="http://www.w3.org/2000/svg">
<path fill-rule="evenodd" clip-rule="evenodd" d="M3.77294 1.98598C3.72494 1.99598 3.59994 2.07998 3.49594 2.17198C3.33794 2.31098 3.25794 2.43898 3.03094 2.91598C1.97394 5.13598 1.30494 7.61998 1.07194 10.18C1.00694 10.904 1.00694 13.096 1.07194 13.82C1.30494 16.382 1.97694 18.875 3.03194 21.084C3.41594 21.888 3.64994 22.092 4.11994 22.029C4.49994 21.978 4.99394 21.641 5.08194 21.373C5.17494 21.093 5.11494 20.825 4.80994 20.16C3.81994 18 3.30094 16.055 3.07494 13.66C3.01294 13.004 3.01294 10.98 3.07494 10.32C3.29694 7.96198 3.82594 5.98898 4.80994 3.83998C5.20894 2.96898 5.22194 2.65398 4.87294 2.33798C4.57894 2.07298 4.08894 1.91598 3.77294 1.98598ZM19.6909 2.01798C19.2909 2.14298 18.9459 2.43998 18.8969 2.70098C18.8439 2.98198 18.9029 3.20898 19.1939 3.84998C20.0479 5.72998 20.5289 7.34798 20.7949 9.23998C20.9359 10.25 20.9739 10.829 20.9739 12C20.9739 14.97 20.4409 17.411 19.1939 20.15C18.8859 20.826 18.8249 21.094 18.9179 21.373C19.0109 21.657 19.5249 21.993 19.9229 22.031C20.3919 22.076 20.6059 21.866 21.0349 20.938C22.0759 18.686 22.6989 16.343 22.9279 13.82C22.9929 13.096 22.9929 10.904 22.9279 10.18C22.7399 8.10798 22.3159 6.27898 21.5689 4.31998C21.2449 3.46898 20.7449 2.40998 20.5909 2.24798C20.3399 1.98398 20.0429 1.90798 19.6909 2.01798ZM8.26494 7.69898C8.03094 7.78198 7.84694 7.98298 7.77394 8.23598C7.68594 8.53598 7.71594 8.97098 7.83894 9.18998C8.04894 9.56398 8.31494 9.63998 9.40694 9.63998H10.1969L10.2759 9.90998C10.3199 10.059 10.4929 10.661 10.6609 11.249L10.9649 12.319L9.72394 13.775C9.04094 14.576 8.42194 15.266 8.34794 15.31C8.14394 15.43 7.97694 15.474 7.55394 15.516C7.14094 15.557 6.98294 15.616 6.81994 15.79C6.53094 16.101 6.53394 16.902 6.82494 17.215C7.01494 17.418 7.25094 17.494 7.68194 17.492C8.33694 17.487 8.91294 17.315 9.44794 16.964C9.79894 16.733 10.0779 16.448 10.8809 15.5C11.2159 15.104 11.5209 14.748 11.5569 14.709C11.6199 14.642 11.6359 14.678 11.8189 15.329C11.9259 15.709 12.0559 16.118 12.1079 16.238C12.3629 16.826 12.9059 17.276 13.5609 17.444C13.8639 17.521 15.5829 17.523 15.8389 17.446C16.6189 17.211 16.6339 15.78 15.8589 15.565C15.7669 15.539 15.3539 15.52 14.8779 15.52C14.2819 15.52 14.0369 15.506 13.9899 15.47C13.9319 15.426 13.1999 12.978 13.1999 12.831C13.1999 12.786 14.7999 10.88 15.4589 10.14C15.7879 9.76998 15.9769 9.67698 16.4879 9.63398C17.0669 9.58498 17.2959 9.46598 17.4429 9.13998C17.5999 8.79098 17.5749 8.27598 17.3879 7.99198C17.3379 7.91798 17.2039 7.80998 17.0799 7.74598C16.8639 7.63498 16.8509 7.63298 16.3399 7.65298C15.7599 7.67498 15.4059 7.76698 14.9189 8.02398C14.4859 8.25098 14.1819 8.54198 13.3399 9.53198C12.8999 10.05 12.5339 10.467 12.5269 10.46C12.5189 10.453 12.4149 10.109 12.2949 9.69598C12.0339 8.79698 11.9159 8.56198 11.5589 8.22498C11.2739 7.95498 10.9859 7.79198 10.6349 7.69798C10.3339 7.61798 8.48994 7.61898 8.26494 7.69898Z" fill="#FF0000"/>
</svg>
