<svg width="24" height="24" viewBox="0 0 24 24" fill="none" xmlns="http://www.w3.org/2000/svg">
<path fill-rule="evenodd" clip-rule="evenodd" d="M15.9737 12.2473C16.2833 12.2464 16.7984 12.6084 16.9473 12.932C17.0217 13.0933 17.0197 13.3793 16.9443 13.5509C16.9026 13.6475 16.2575 14.2825 14.88 15.5861C13.7785 16.6281 12.8773 17.4984 12.8773 17.52C12.8773 17.6634 12.2739 17.9861 12.005 17.9861C11.7847 17.9861 11.3828 17.8041 11.2408 17.6409C11.1694 17.5575 10.2137 16.6346 9.11805 15.5898C7.69888 14.2375 7.10641 13.6485 7.05976 13.5434C6.97938 13.3596 6.97739 13.1252 7.05579 12.9479C7.20366 12.614 7.71675 12.2464 8.03432 12.2473C8.34396 12.2483 8.48091 12.3533 9.77106 13.5697L11.0116 14.7411V12.7153C11.0116 11.4736 11.0275 10.637 11.0523 10.5536C11.1128 10.3463 11.2547 10.1737 11.4502 10.0706C11.6041 9.98897 11.6755 9.97678 12.004 9.97678C12.4327 9.97678 12.6421 10.0518 12.7989 10.26C12.9905 10.5142 12.9964 10.5864 12.9964 12.7303V14.7411L14.237 13.5697C15.5271 12.3533 15.6641 12.2483 15.9737 12.2473ZM4.0016 8.00232C4.55409 8.00232 5.00198 7.55409 5.00198 7.00116C5.00198 6.44824 4.55409 6 4.0016 6C3.4491 6 3.00122 6.44824 3.00122 7.00116C3.00122 7.55409 3.4491 8.00232 4.0016 8.00232ZM9.00349 7.00116C9.00349 7.55409 8.5556 8.00232 8.00311 8.00232C7.45061 8.00232 7.00273 7.55409 7.00273 7.00116C7.00273 6.44824 7.45061 6 8.00311 6C8.5556 6 9.00349 6.44824 9.00349 7.00116ZM12.0046 8.00232C12.5571 8.00232 13.005 7.55409 13.005 7.00116C13.005 6.44824 12.5571 6 12.0046 6C11.4521 6 11.0042 6.44824 11.0042 7.00116C11.0042 7.55409 11.4521 8.00232 12.0046 8.00232ZM17.0065 7.00116C17.0065 7.55409 16.5586 8.00232 16.0061 8.00232C15.4536 8.00232 15.0057 7.55409 15.0057 7.00116C15.0057 6.44824 15.4536 6 16.0061 6C16.5586 6 17.0065 6.44824 17.0065 7.00116ZM20.0076 8.00232C20.5601 8.00232 21.008 7.55409 21.008 7.00116C21.008 6.44824 20.5601 6 20.0076 6C19.4551 6 19.0073 6.44824 19.0073 7.00116C19.0073 7.55409 19.4551 8.00232 20.0076 8.00232Z" fill="#FF0000"/>
</svg>
