<svg width="24" height="24" viewBox="0 0 24 24" fill="none" xmlns="http://www.w3.org/2000/svg">
<path fill-rule="evenodd" clip-rule="evenodd" d="M7.05294 11.0544C7.2018 11.3779 7.71687 11.7399 8.0265 11.739C8.33614 11.738 8.47309 11.633 9.76324 10.4166L11.0038 9.24523V11.256C11.0038 13.3999 11.0097 13.4721 11.2013 13.7263C11.3581 13.9345 11.5675 14.0095 11.9962 14.0095C12.3247 14.0095 12.3961 13.9973 12.55 13.9157C12.7455 13.8126 12.8874 13.64 12.9479 13.4328C12.9727 13.3493 12.9886 12.5127 12.9886 11.271V9.24523L14.2291 10.4166C15.5193 11.633 15.6562 11.738 15.9659 11.739C16.2835 11.7399 16.7965 11.3723 16.9444 11.0384C17.0228 10.8612 17.0208 10.6267 16.9404 10.4429C16.8938 10.3378 16.3013 9.74885 14.8822 8.39647C13.7865 7.3517 12.8308 6.42884 12.7594 6.34538C12.6174 6.18219 12.2155 6.00024 11.9952 6.00024C11.7262 6.00024 11.1229 6.32287 11.1229 6.46636C11.1229 6.48793 10.2217 7.35826 9.12015 8.40022C7.74267 9.70384 7.09759 10.3388 7.05591 10.4354C6.98049 10.607 6.9785 10.893 7.05294 11.0544ZM4.0016 18.0142C4.55409 18.0142 5.00198 17.5659 5.00198 17.013C5.00198 16.4601 4.55409 16.0119 4.0016 16.0119C3.4491 16.0119 3.00122 16.4601 3.00122 17.013C3.00122 17.5659 3.4491 18.0142 4.0016 18.0142ZM9.00349 17.013C9.00349 17.5659 8.5556 18.0142 8.00311 18.0142C7.45061 18.0142 7.00273 17.5659 7.00273 17.013C7.00273 16.4601 7.45061 16.0119 8.00311 16.0119C8.5556 16.0119 9.00349 16.4601 9.00349 17.013ZM12.0046 18.0142C12.5571 18.0142 13.005 17.5659 13.005 17.013C13.005 16.4601 12.5571 16.0119 12.0046 16.0119C11.4521 16.0119 11.0042 16.4601 11.0042 17.013C11.0042 17.5659 11.4521 18.0142 12.0046 18.0142ZM17.0065 17.013C17.0065 17.5659 16.5586 18.0142 16.0061 18.0142C15.4536 18.0142 15.0057 17.5659 15.0057 17.013C15.0057 16.4601 15.4536 16.0119 16.0061 16.0119C16.5586 16.0119 17.0065 16.4601 17.0065 17.013ZM20.0076 18.0142C20.5601 18.0142 21.008 17.5659 21.008 17.013C21.008 16.4601 20.5601 16.0119 20.0076 16.0119C19.4551 16.0119 19.0073 16.4601 19.0073 17.013C19.0073 17.5659 19.4551 18.0142 20.0076 18.0142Z" fill="#FF0000"/>
</svg>
