<svg width="18" height="22" viewBox="0 0 18 22" fill="none" xmlns="http://www.w3.org/2000/svg">
<path fill-rule="evenodd" clip-rule="evenodd" d="M4.05294 5.05533C4.2018 5.37889 4.71687 5.7409 5.0265 5.73996C5.33614 5.73902 5.47309 5.63398 6.76324 4.41758L8.00377 3.2462V5.25697C8.00377 7.4009 8.00972 7.47312 8.20126 7.72728C8.35806 7.93548 8.56746 8.01051 8.99619 8.01051C9.32468 8.01051 9.39613 7.99832 9.54996 7.91673C9.74547 7.81356 9.88738 7.641 9.94792 7.43373C9.97273 7.35026 9.98861 6.51369 9.98861 5.27197V3.2462L11.2291 4.41758C12.5193 5.63398 12.6562 5.73902 12.9659 5.73996C13.2835 5.7409 13.7965 5.37326 13.9444 5.03938C14.0228 4.86213 14.0208 4.62766 13.9404 4.44384C13.8938 4.33881 13.3013 3.74983 11.8822 2.39744C10.7865 1.35267 9.83082 0.429821 9.75936 0.346352C9.61744 0.183165 9.21551 0.00122082 8.9952 0.0012207C8.72625 0.0012207 8.12286 0.323845 8.12286 0.467337C8.12286 0.488907 7.22174 1.35924 6.12015 2.40119C4.74267 3.70481 4.09759 4.33974 4.05591 4.43634C3.98049 4.60797 3.9785 4.89402 4.05294 5.05533ZM12.9737 16.2602C13.2833 16.2592 13.7984 16.6212 13.9473 16.9448C14.0217 17.1061 14.0197 17.3922 13.9443 17.5638C13.9026 17.6604 13.2575 18.2953 11.88 19.5989C10.7785 20.6409 9.87734 21.5112 9.87734 21.5328C9.87734 21.6763 9.27395 21.9989 9.005 21.9989C8.78469 21.9989 8.38275 21.817 8.24084 21.6538C8.16938 21.5703 7.21368 20.6475 6.11805 19.6027C4.69888 18.2503 4.10641 17.6613 4.05976 17.5563C3.97938 17.3725 3.97739 17.138 4.05579 16.9607C4.20366 16.6269 4.71675 16.2592 5.03432 16.2602C5.34396 16.2611 5.48091 16.3661 6.77106 17.5825L8.01159 18.7539V16.7282C8.01159 15.4864 8.02747 14.6499 8.05228 14.5664C8.11281 14.3591 8.25473 14.1866 8.45024 14.0834C8.60406 14.0018 8.67552 13.9896 9.00401 13.9896C9.43274 13.9896 9.64214 14.0646 9.79894 14.2728C9.99048 14.527 9.99643 14.5992 9.99643 16.7432V18.7539L11.237 17.5825C12.5271 16.3661 12.6641 16.2611 12.9737 16.2602ZM1.0016 12.0152C1.55409 12.0152 2.00198 11.5669 2.00198 11.014C2.00198 10.4611 1.55409 10.0128 1.0016 10.0128C0.449105 10.0128 0.0012207 10.4611 0.0012207 11.014C0.0012207 11.5669 0.449105 12.0152 1.0016 12.0152ZM6.00349 11.014C6.00349 11.5669 5.5556 12.0152 5.00311 12.0152C4.45061 12.0152 4.00273 11.5669 4.00273 11.014C4.00273 10.4611 4.45061 10.0128 5.00311 10.0128C5.5556 10.0128 6.00349 10.4611 6.00349 11.014ZM9.00462 12.0152C9.55711 12.0152 10.005 11.5669 10.005 11.014C10.005 10.4611 9.55711 10.0128 9.00462 10.0128C8.45212 10.0128 8.00424 10.4611 8.00424 11.014C8.00424 11.5669 8.45212 12.0152 9.00462 12.0152ZM14.0065 11.014C14.0065 11.5669 13.5586 12.0152 13.0061 12.0152C12.4536 12.0152 12.0057 11.5669 12.0057 11.014C12.0057 10.4611 12.4536 10.0128 13.0061 10.0128C13.5586 10.0128 14.0065 10.4611 14.0065 11.014ZM17.0076 12.0152C17.5601 12.0152 18.008 11.5669 18.008 11.014C18.008 10.4611 17.5601 10.0128 17.0076 10.0128C16.4551 10.0128 16.0073 10.4611 16.0073 11.014C16.0073 11.5669 16.4551 12.0152 17.0076 12.0152Z" fill="#FF0000"/>
</svg>
