<svg width="24" height="24" viewBox="0 0 20 20" fill="none" xmlns="http://www.w3.org/2000/svg">
<path fill-rule="evenodd" clip-rule="evenodd" d="M4.93324 1.70105C4.72241 1.71522 4.45241 1.74355 4.33324 1.76522C3.35574 1.93855 2.49908 2.57188 2.05408 3.45105C1.85408 3.84438 1.75741 4.22688 1.70074 4.85022C1.65574 5.33938 1.65574 12.5152 1.70074 12.9077C1.82491 13.996 2.51574 14.9719 3.51658 15.4752C3.92074 15.6785 4.52991 15.831 4.94158 15.8335C4.99574 15.8335 4.99991 15.8952 4.99991 16.6627C4.99991 17.1185 5.01491 17.571 5.03324 17.6685C5.19741 18.531 6.03324 18.9544 6.80491 18.5644C6.90991 18.5119 7.65241 17.9427 8.45574 17.3002C10.0132 16.0552 10.1999 15.9302 10.5999 15.8677C10.7282 15.8477 11.6266 15.8335 12.7999 15.8335C15.1049 15.8335 15.5049 15.8085 16.0999 15.6294C17.0182 15.3527 17.8524 14.5185 18.1291 13.6002C18.3224 12.9577 18.3332 12.7069 18.3332 8.75022C18.3332 4.79355 18.3224 4.54272 18.1291 3.90022C17.8532 2.98438 17.0541 2.18522 16.0999 1.87188C15.5366 1.68688 15.6666 1.69105 10.2832 1.68272C7.55158 1.67855 5.14408 1.68688 4.93324 1.70105ZM15.4099 3.40938C15.7449 3.49022 15.9241 3.59105 16.1666 3.83355C16.4132 4.07938 16.5116 4.25772 16.5932 4.60688C16.6449 4.82938 16.6499 5.19022 16.6499 8.75022C16.6499 13.0069 16.6549 12.8935 16.4599 13.2935C16.3557 13.5085 15.9916 13.8652 15.7666 13.9727C15.4299 14.1344 15.3599 14.1385 12.7999 14.1669C10.3241 14.1944 10.2632 14.1977 9.83324 14.3385C9.31408 14.5085 9.15491 14.616 7.72741 15.7544L6.67074 16.596L6.66074 15.6402C6.65074 14.7252 6.64658 14.6777 6.57574 14.5444C6.49908 14.4019 6.37991 14.2977 6.21241 14.2294C6.15658 14.206 5.81158 14.1794 5.38324 14.1644C4.77158 14.1435 4.61741 14.1277 4.45491 14.0702C3.97658 13.901 3.63824 13.5702 3.43991 13.0752L3.34991 12.8502V8.85021C3.34991 5.19521 3.35491 4.82938 3.40658 4.60688C3.47908 4.29605 3.57824 4.09855 3.76658 3.88938C4.06908 3.55188 4.40158 3.40938 4.98324 3.36605C5.16658 3.35272 7.53658 3.34438 10.2499 3.34855C14.7024 3.35355 15.2057 3.36022 15.4099 3.40938ZM9.43324 4.66688C8.45824 4.92522 7.63574 5.76522 7.48491 6.65688C7.41741 7.05688 7.72408 7.39355 8.25741 7.50355C8.65574 7.58605 8.88741 7.43605 9.12074 6.94605C9.28408 6.60438 9.41074 6.47105 9.69324 6.34105C9.84991 6.26938 9.90824 6.26105 10.1457 6.27355C10.3657 6.28438 10.4516 6.30605 10.5957 6.38438C10.9074 6.55438 11.1016 6.85355 11.1241 7.20022C11.1374 7.39688 11.1299 7.43105 11.0382 7.57272C10.8616 7.84688 10.4699 8.11355 9.87991 8.36188C9.39741 8.56438 9.25324 8.73105 9.25574 9.08355C9.25991 9.64855 9.66491 10.0885 10.1124 10.0152C10.4666 9.95772 11.0416 9.69521 11.5049 9.38021C12.1807 8.92188 12.5666 8.43105 12.7357 7.81688C12.7966 7.59355 12.8049 7.49522 12.7907 7.16855C12.7707 6.70188 12.7132 6.47688 12.5166 6.08355C12.2524 5.55688 11.7999 5.10938 11.2832 4.86272C10.8824 4.67105 10.6791 4.62688 10.1499 4.61272C9.76241 4.60272 9.64074 4.61188 9.43324 4.66688ZM9.84991 10.8644C9.47908 10.9552 9.29991 11.216 9.29991 11.6669C9.29991 12.0927 9.45908 12.3469 9.79074 12.451C10.1241 12.556 10.6016 12.4719 10.7707 12.2785C10.9107 12.1194 10.9482 11.9894 10.9482 11.6669C10.9482 11.306 10.8824 11.1302 10.6982 10.9994C10.4957 10.8544 10.1291 10.7969 9.84991 10.8644Z" fill="#050505"/>
<path fill-rule="evenodd" clip-rule="evenodd" d="M4.93324 1.70105C4.72241 1.71522 4.45241 1.74355 4.33324 1.76522C3.35574 1.93855 2.49908 2.57188 2.05408 3.45105C1.85408 3.84438 1.75741 4.22688 1.70074 4.85022C1.65574 5.33938 1.65574 12.5152 1.70074 12.9077C1.82491 13.996 2.51574 14.9719 3.51658 15.4752C3.92074 15.6785 4.52991 15.831 4.94158 15.8335C4.99574 15.8335 4.99991 15.8952 4.99991 16.6627C4.99991 17.1185 5.01491 17.571 5.03324 17.6685C5.19741 18.531 6.03324 18.9544 6.80491 18.5644C6.90991 18.5119 7.65241 17.9427 8.45574 17.3002C10.0132 16.0552 10.1999 15.9302 10.5999 15.8677C10.7282 15.8477 11.6266 15.8335 12.7999 15.8335C15.1049 15.8335 15.5049 15.8085 16.0999 15.6294C17.0182 15.3527 17.8524 14.5185 18.1291 13.6002C18.3224 12.9577 18.3332 12.7069 18.3332 8.75022C18.3332 4.79355 18.3224 4.54272 18.1291 3.90022C17.8532 2.98438 17.0541 2.18522 16.0999 1.87188C15.5366 1.68688 15.6666 1.69105 10.2832 1.68272C7.55158 1.67855 5.14408 1.68688 4.93324 1.70105ZM15.4099 3.40938C15.7449 3.49022 15.9241 3.59105 16.1666 3.83355C16.4132 4.07938 16.5116 4.25772 16.5932 4.60688C16.6449 4.82938 16.6499 5.19022 16.6499 8.75022C16.6499 13.0069 16.6549 12.8935 16.4599 13.2935C16.3557 13.5085 15.9916 13.8652 15.7666 13.9727C15.4299 14.1344 15.3599 14.1385 12.7999 14.1669C10.3241 14.1944 10.2632 14.1977 9.83324 14.3385C9.31408 14.5085 9.15491 14.616 7.72741 15.7544L6.67074 16.596L6.66074 15.6402C6.65074 14.7252 6.64658 14.6777 6.57574 14.5444C6.49908 14.4019 6.37991 14.2977 6.21241 14.2294C6.15658 14.206 5.81158 14.1794 5.38324 14.1644C4.77158 14.1435 4.61741 14.1277 4.45491 14.0702C3.97658 13.901 3.63824 13.5702 3.43991 13.0752L3.34991 12.8502V8.85021C3.34991 5.19521 3.35491 4.82938 3.40658 4.60688C3.47908 4.29605 3.57824 4.09855 3.76658 3.88938C4.06908 3.55188 4.40158 3.40938 4.98324 3.36605C5.16658 3.35272 7.53658 3.34438 10.2499 3.34855C14.7024 3.35355 15.2057 3.36022 15.4099 3.40938ZM9.43324 4.66688C8.45824 4.92522 7.63574 5.76522 7.48491 6.65688C7.41741 7.05688 7.72408 7.39355 8.25741 7.50355C8.65574 7.58605 8.88741 7.43605 9.12074 6.94605C9.28408 6.60438 9.41074 6.47105 9.69324 6.34105C9.84991 6.26938 9.90824 6.26105 10.1457 6.27355C10.3657 6.28438 10.4516 6.30605 10.5957 6.38438C10.9074 6.55438 11.1016 6.85355 11.1241 7.20022C11.1374 7.39688 11.1299 7.43105 11.0382 7.57272C10.8616 7.84688 10.4699 8.11355 9.87991 8.36188C9.39741 8.56438 9.25324 8.73105 9.25574 9.08355C9.25991 9.64855 9.66491 10.0885 10.1124 10.0152C10.4666 9.95772 11.0416 9.69521 11.5049 9.38021C12.1807 8.92188 12.5666 8.43105 12.7357 7.81688C12.7966 7.59355 12.8049 7.49522 12.7907 7.16855C12.7707 6.70188 12.7132 6.47688 12.5166 6.08355C12.2524 5.55688 11.7999 5.10938 11.2832 4.86272C10.8824 4.67105 10.6791 4.62688 10.1499 4.61272C9.76241 4.60272 9.64074 4.61188 9.43324 4.66688ZM9.84991 10.8644C9.47908 10.9552 9.29991 11.216 9.29991 11.6669C9.29991 12.0927 9.45908 12.3469 9.79074 12.451C10.1241 12.556 10.6016 12.4719 10.7707 12.2785C10.9107 12.1194 10.9482 11.9894 10.9482 11.6669C10.9482 11.306 10.8824 11.1302 10.6982 10.9994C10.4957 10.8544 10.1291 10.7969 9.84991 10.8644Z" fill="white" fill-opacity="0.9"/>
</svg>
