<svg width="24" height="24" viewBox="0 0 24 24" fill="none" xmlns="http://www.w3.org/2000/svg">
<path fill-rule="evenodd" clip-rule="evenodd" d="M11.3201 4.02308C11.2431 4.03208 11.0091 4.05908 10.8001 4.08308C7.52411 4.45708 4.23311 6.76608 1.81511 10.3861C1.29111 11.1711 1.16211 11.4901 1.16211 12.0001C1.16211 12.5091 1.28511 12.8141 1.81011 13.6041C3.93011 16.7961 6.77911 19.0081 9.68011 19.7141C10.5521 19.9271 11.0041 19.9781 12.0001 19.9781C12.9961 19.9781 13.4481 19.9271 14.3201 19.7141C17.2191 19.0081 20.0471 16.8151 22.1851 13.6141C22.7091 12.8291 22.8381 12.5101 22.8381 12.0001C22.8381 11.4901 22.7091 11.1711 22.1851 10.3861C20.4881 7.84508 18.3361 5.91908 16.0311 4.87708C15.1891 4.49708 14.2901 4.23608 13.3401 4.09708C12.9511 4.04008 11.6011 3.99108 11.3201 4.02308ZM13.0601 6.08408C15.0091 6.36208 16.7731 7.33108 18.5431 9.09808C19.3351 9.88808 19.8701 10.5351 20.4661 11.4221L20.8541 12.0001L20.4661 12.5781C19.8701 13.4661 19.3351 14.1121 18.5431 14.9011C16.9571 16.4841 15.4901 17.3681 13.7401 17.7951C13.1841 17.9301 12.7211 17.9791 12.0001 17.9791C11.2791 17.9791 10.8161 17.9301 10.2601 17.7951C8.51011 17.3681 7.03811 16.4811 5.45711 14.9021C4.66411 14.1091 4.12611 13.4601 3.53411 12.5781L3.14611 12.0001L3.53411 11.4221C4.13011 10.5351 4.66511 9.88808 5.45711 9.09808C7.40411 7.15408 9.26511 6.21008 11.5201 6.02408C11.7901 6.00108 12.7411 6.03808 13.0601 6.08408ZM11.3581 8.06108C10.2411 8.23508 9.15611 8.96508 8.57911 9.93208C7.31411 12.0501 8.22911 14.7841 10.5121 15.7041C12.8321 16.6391 15.4151 15.2391 15.9171 12.7731C16.3681 10.5631 14.8451 8.39608 12.6051 8.05808C12.1441 7.98908 11.8161 7.99008 11.3581 8.06108ZM12.4781 10.0621C13.1501 10.2151 13.7501 10.8011 13.9271 11.4771C14.1181 12.2111 13.9031 12.9481 13.3471 13.4651C12.7211 14.0461 11.8411 14.1661 11.0701 13.7751C10.7731 13.6251 10.3621 13.1981 10.2071 12.8801C9.84811 12.1431 9.98111 11.2491 10.5391 10.6491C11.0441 10.1051 11.7411 9.89508 12.4781 10.0621Z" fill="#FF1200"/>
</svg>
