<svg width="24" height="24" viewBox="0 0 24 24" fill="none" xmlns="http://www.w3.org/2000/svg">
<path fill-rule="evenodd" clip-rule="evenodd" d="M2.47998 4.30098C1.84198 4.47998 1.35098 4.93798 1.15198 5.54198C0.99698 6.01098 0.990979 6.30498 1.00498 12.24C1.01798 17.633 1.02398 17.997 1.09198 18.26C1.24298 18.841 1.57698 19.276 2.06998 19.533C2.41498 19.713 2.70998 19.775 3.10498 19.752C3.59998 19.724 4.05198 19.483 4.75598 18.875C5.87698 17.905 10.843 13.465 10.977 13.312C11.316 12.927 11.475 12.507 11.475 12C11.475 11.493 11.316 11.073 10.977 10.688C10.843 10.535 5.87698 6.09498 4.75598 5.12498C4.33498 4.76098 4.02698 4.54898 3.68898 4.39098C3.46998 4.28798 3.36798 4.26598 3.06198 4.25398C2.81698 4.24498 2.62398 4.25998 2.47998 4.30098ZM13.48 4.30098C12.842 4.47998 12.351 4.93798 12.152 5.54198C11.997 6.01098 11.991 6.30498 12.005 12.24C12.018 17.633 12.024 17.997 12.092 18.26C12.243 18.841 12.577 19.276 13.07 19.533C13.415 19.713 13.71 19.775 14.105 19.752C14.6 19.724 15.052 19.483 15.756 18.875C16.877 17.905 21.843 13.465 21.977 13.312C22.316 12.927 22.475 12.507 22.475 12C22.475 11.493 22.316 11.073 21.977 10.688C21.843 10.535 16.877 6.09498 15.756 5.12498C15.335 4.76098 15.027 4.54898 14.689 4.39098C14.47 4.28798 14.368 4.26598 14.062 4.25398C13.817 4.24498 13.624 4.25998 13.48 4.30098Z" fill="#FF0000"/>
</svg>
