<svg width="24" height="24" viewBox="0 0 24 24" fill="none" xmlns="http://www.w3.org/2000/svg">
<path fill-rule="evenodd" clip-rule="evenodd" d="M2.48389 4.30098C1.84589 4.47998 1.35489 4.93798 1.15589 5.54198C1.00089 6.01098 0.994886 6.30498 1.00889 12.24C1.02189 17.633 1.02789 17.997 1.09589 18.26C1.24689 18.841 1.58089 19.276 2.07389 19.533C2.41889 19.713 2.71389 19.775 3.10889 19.752C3.60389 19.724 4.05589 19.483 4.75989 18.875C5.88089 17.905 10.8469 13.465 10.9809 13.312C11.3199 12.927 11.4789 12.507 11.4789 12C11.4789 11.493 11.3199 11.073 10.9809 10.688C10.8469 10.535 5.88089 6.09498 4.75989 5.12498C4.33889 4.76098 4.03089 4.54898 3.69289 4.39098C3.47389 4.28798 3.37189 4.26598 3.06589 4.25398C2.82089 4.24498 2.62789 4.25998 2.48389 4.30098ZM13.4839 4.30098C12.8459 4.47998 12.3549 4.93798 12.1559 5.54198C12.0009 6.01098 11.9949 6.30498 12.0089 12.24C12.0219 17.633 12.0279 17.997 12.0959 18.26C12.2469 18.841 12.5809 19.276 13.0739 19.533C13.4189 19.713 13.7139 19.775 14.1089 19.752C14.6039 19.724 15.0559 19.483 15.7599 18.875C16.8809 17.905 21.8469 13.465 21.9809 13.312C22.3199 12.927 22.4789 12.507 22.4789 12C22.4789 11.493 22.3199 11.073 21.9809 10.688C21.8469 10.535 16.8809 6.09498 15.7599 5.12498C15.3389 4.76098 15.0309 4.54898 14.6929 4.39098C14.4739 4.28798 14.3719 4.26598 14.0659 4.25398C13.8209 4.24498 13.6279 4.25998 13.4839 4.30098ZM3.52989 6.70898C4.27189 7.34898 9.33589 11.86 9.39489 11.933C9.44089 11.99 9.44089 12.01 9.39489 12.068C9.33289 12.144 3.67089 17.184 3.30089 17.493C3.06489 17.689 3.06089 17.69 3.03489 17.596C3.00089 17.474 2.99089 6.61398 3.02489 6.44498C3.03889 6.37598 3.05689 6.31998 3.06489 6.31998C3.07389 6.31998 3.28289 6.49498 3.52989 6.70898ZM14.5299 6.70898C15.2719 7.34898 20.3359 11.86 20.3949 11.933C20.4409 11.99 20.4409 12.01 20.3949 12.068C20.3329 12.144 14.6709 17.184 14.3009 17.493C14.0649 17.689 14.0609 17.69 14.0349 17.596C14.0009 17.474 13.9909 6.61398 14.0249 6.44498C14.0389 6.37598 14.0569 6.31998 14.0649 6.31998C14.0739 6.31998 14.2829 6.49498 14.5299 6.70898Z" fill="#FF0000"/>
</svg>
