<svg width="254" height="202" viewBox="0 0 254 202" fill="none" xmlns="http://www.w3.org/2000/svg">
<path d="M195.367 115.081H58.346C53.6898 115.081 49.916 111.307 49.916 106.651C49.916 101.994 53.6898 98.2206 58.346 98.2206H195.367C200.023 98.2206 203.797 101.994 203.797 106.651C203.797 111.307 200.023 115.081 195.367 115.081Z" fill="white"/>
<path d="M195.367 74.8498H58.346C53.6898 74.8498 49.916 71.076 49.916 66.4198C49.916 61.7637 53.6898 57.9898 58.346 57.9898H195.367C200.023 57.9898 203.797 61.7637 203.797 66.4198C203.797 71.076 200.023 74.8498 195.367 74.8498Z" fill="white"/>
<path d="M70.3559 201.275C68.1978 201.275 66.0398 200.451 64.3959 198.805L38.3416 172.753H28.3099C12.9223 172.753 0.406601 160.237 0.406601 144.85V28.2207C0.406601 12.8359 12.9223 0.32019 28.3071 0.32019H225.406C240.791 0.32019 253.307 12.8359 253.307 28.2207V144.85C253.307 160.237 240.791 172.753 225.406 172.753H102.37L76.3159 198.805C74.6693 200.451 72.5112 201.275 70.3559 201.275ZM28.3071 17.1802C22.2206 17.1802 17.2666 22.1314 17.2666 28.2207V144.85C17.2666 150.939 22.2206 155.893 28.3071 155.893H41.8316C44.0656 155.893 46.2124 156.781 47.7916 158.363L70.3531 180.925L92.9146 158.363C94.4966 156.781 96.6407 155.893 98.8746 155.893H225.403C231.49 155.893 236.444 150.939 236.444 144.85V28.2207C236.444 22.1314 231.49 17.1802 225.403 17.1802H28.3071V17.1802Z" fill="white"/>
</svg>
