<svg width="288" height="41" viewBox="0 0 288 41" fill="none" xmlns="http://www.w3.org/2000/svg">
<g opacity="0.9" clip-path="url(#clip0_10108_5924)" filter="url(#filter0_f_10108_5924)">
<path d="M187.065 2.00346C192.119 2.09544 197.588 2.04599 202.653 2C202.651 3.69989 202.825 15.9454 202.574 16.6977C198.688 16.6135 194.769 16.7185 190.882 16.6743C189.626 16.6595 188.341 16.6673 187.086 16.7107C187.028 11.8228 187.132 6.90096 187.065 2.00346Z" fill="#4949FE"/>
<path d="M191.896 3.62868C193.144 3.57922 193.637 4.11201 194.314 5.04222C194.538 4.39402 195.044 3.22085 195.975 3.93239C196.391 4.25085 196.351 4.92073 196.372 5.41968C197.161 4.63004 198.63 3.40307 199.835 3.94887C200.311 4.61876 199.479 5.47869 199.046 6.00714C199.371 5.97764 199.933 5.88566 200.215 5.98111C201.633 6.46357 200.441 8.06454 199.735 8.6303C199.33 8.95397 199.098 9.03815 198.652 9.20388C199.431 9.53796 201.098 10.1679 200.836 11.2552C200.229 11.9468 198.859 11.3793 198.119 11.1276C198.719 11.591 200.02 12.5473 199.961 13.395C199.299 14.2636 197.466 12.6635 196.88 12.2045C197.105 12.7842 197.252 13.1764 197.412 13.7742C197.437 14.0962 197.462 14.4762 197.12 14.6533C196.942 14.7461 196.731 14.7487 196.55 14.6602C195.921 14.36 195.512 12.9117 195.32 12.2765C195.079 13.0696 194.714 15.0125 193.69 15.0134C192.675 15.0151 193.068 13.4419 193.155 12.8189C192.513 13.6823 191.507 14.9101 190.326 14.9648C189.565 15.0003 189.131 14.3096 189.226 13.5972C189.38 12.4397 190.179 11.5294 191.034 10.7962C190.108 10.4933 188.101 9.42515 188.982 7.92657C189.162 7.61852 189.857 7.57166 190.211 7.59943C187.723 4.94329 188.654 2.95358 191.807 5.57935C191.447 4.76802 191.107 4.26213 191.896 3.62868Z" fill="#FEFEFE"/>
<path d="M192.045 4.22568C193.826 4.46951 193.793 6.04097 194.486 6.48786L194.628 6.40369C194.761 5.80322 195.018 4.7602 195.459 4.33935L195.591 4.34802C195.999 5.20187 195.306 6.20845 195.606 6.97813C195.662 7.01024 195.718 7.04234 195.774 7.07445C196.53 6.55988 198.191 3.83606 199.315 4.4912C199.315 5.28604 196.687 7.09614 196.744 7.66711C197.651 7.74954 199.547 6.04705 200.275 6.65447C200.414 7.65757 198.643 8.85678 197.621 8.67108C197.307 8.61381 196.979 8.71359 196.882 9.03379C197.239 9.67938 199.631 9.95533 200.308 10.8838L200.24 10.994C199.09 11.0912 196.572 9.50063 196.203 9.97875C196.385 11.0027 198.721 12.1585 199.572 13.2935L199.515 13.2675C198.281 12.6774 197.903 12.2999 196.861 11.4201C194.387 8.87846 194.923 13.9721 193.717 14.3322C193.145 13.4584 194.874 11.1268 194.109 10.5784C193.211 10.8187 192.005 14.0371 190.418 14.3582C190.066 14.2836 190.22 14.3582 189.944 14.1152C189.455 13.0019 191.279 11.2578 192.193 10.9298C192.347 10.8751 192.471 10.705 192.501 10.5419C192.29 10.3311 188.71 9.85901 189.467 8.39687C189.85 7.65843 191.628 9.08238 192.356 8.95743L192.421 8.79083C192.224 8.07061 188.455 5.79627 189.607 4.99275C190.745 5.083 192.633 7.36861 193.454 7.54129C193.858 6.88355 192.081 5.37196 192.045 4.22568Z" fill="#4949FE"/>
<path d="M195.725 11.7568C196.077 12.1195 196.696 13.5756 196.886 14.084L196.789 14.0736C196.285 13.8029 195.9 12.3347 195.725 11.7568Z" fill="#4949FE"/>
<path d="M235.012 21C241.18 21.0907 247.523 21.0159 253.7 21.016L288.786 21.0168V49.2829V57.4932V85.7225C275.656 85.8561 262.276 85.7227 249.126 85.7233C244.43 85.7071 239.733 85.7166 235.036 85.7518C234.96 80.0377 235.028 74.1593 235.03 68.4346L235.012 21Z" fill="#E28BF7"/>
<path d="M265.237 47.9968C264.535 42.8061 264.064 37.5528 263.397 32.3552C263.131 30.2742 263.017 28.5421 264.817 27.1084C265.711 26.3978 266.854 26.0775 267.988 26.2203C269.106 26.3557 270.124 26.9344 270.811 27.8266C271.217 28.3513 271.616 29.1591 271.63 29.8125C271.672 31.8345 271.287 34.236 271.051 36.2593L269.669 48.0657C271.881 45.0851 274.405 42.1049 276.69 39.1412C278.005 37.4362 279.693 35.2096 281.202 33.713C281.768 33.1519 283.248 32.8456 284.104 32.9281C285.22 33.0346 286.245 33.5859 286.95 34.4576C288.64 36.519 288.077 39.117 286.072 40.6747C284.816 41.6497 283.565 42.6724 282.316 43.66L272.798 51.1809C278.006 50.454 283.623 49.8982 288.874 49.2879V57.4981C287.339 57.236 285.04 57.0349 283.436 56.8475L272.839 55.6127L282.503 63.2586C282.991 63.6441 283.492 64.0228 283.972 64.4192C285.912 66.0256 288.213 67.1774 287.896 70.0894C287.777 71.2036 287.221 72.2251 286.35 72.9303C285.496 73.6155 284.282 73.9626 283.194 73.839C282.378 73.7481 281.608 73.4114 280.987 72.8735C280.203 72.1918 278 69.2929 277.207 68.289L269.661 58.7473C270.371 63.1868 270.641 67.8623 271.268 72.3332C271.622 74.8697 272.354 77.8898 270.082 79.6734C269.191 80.3758 268.056 80.6921 266.93 80.5514C265.804 80.4091 264.78 79.8245 264.085 78.9269C262.808 77.2775 263.314 75.4238 263.502 73.5145C263.6 72.5176 263.735 71.5155 263.851 70.52L265.229 58.7548L257.808 68.1461C256.61 69.6624 255.285 71.4571 253.948 72.8341C253.226 73.5779 251.982 73.9275 250.936 73.8523C249.78 73.7674 248.707 73.2254 247.953 72.3467C247.239 71.506 246.891 70.2537 247.003 69.1601C247.079 68.372 247.39 67.6243 247.891 67.0121C248.549 66.2196 251.457 64.0092 252.455 63.2199L262.065 55.6055L250.37 56.9855C249.681 57.0662 248.973 57.1753 248.285 57.2299C245.737 57.4318 243.139 58.3832 241.242 56.1006C240.501 55.2127 240.155 54.061 240.285 52.9122C240.41 51.7652 241.001 50.7201 241.92 50.0223C242.397 49.6571 243.387 49.1672 243.973 49.1738C245.905 49.1961 248.203 49.5275 250.135 49.7598C254.12 50.2391 258.133 50.6575 262.103 51.1799L252.514 43.6025C251.95 43.1558 251.37 42.7172 250.815 42.2581C248.905 40.6753 246.747 39.6182 247.001 36.762C247.099 35.6258 247.654 34.5783 248.54 33.859C249.44 33.1438 250.589 32.8162 251.731 32.9484C252.532 33.0328 253.289 33.3575 253.902 33.8798C254.366 34.28 254.754 34.7688 255.135 35.2461C258.521 39.4813 261.827 43.781 265.237 47.9968Z" fill="#731D1C"/>
<path d="M231.601 12.4459C250.346 12.6783 269.685 12.4656 288.471 12.4628V21.3784V29.8532V38.5435V51.5162V65.5578V78.3615V87.056V92.7397H256.918H231.582L231.57 47.2549C231.57 35.7636 231.423 23.9118 231.601 12.4459Z" fill="#4949FE"/>
<path d="M231.601 12.4459C250.346 12.6783 269.685 12.4656 288.471 12.4628V21.3784C284.766 20.7151 281.428 20.9996 277.757 20.9306C268.226 20.7489 261.138 20.8447 252.968 26.5438C246.169 31.2797 241.525 38.5195 240.058 46.6733C239.342 50.698 239.658 53.8102 239.565 57.742C239.342 67.1294 239.549 74.5874 245.181 82.5891C248.436 87.2151 251.975 90.0274 256.918 92.7397H231.582L231.57 47.2549C231.57 35.7636 231.423 23.9118 231.601 12.4459Z" fill="#F4FEE3"/>
<path d="M288.471 78.3616C287.291 78.7925 286.06 79.0727 284.809 79.1938C282.893 79.3882 279.362 79.2741 277.341 79.2657C275.038 79.2558 271.504 79.4023 269.291 79.1924C268.265 79.0953 267.255 78.884 266.278 78.5629C262.61 77.3589 259.57 74.7494 257.827 71.3077C257.132 69.9572 256.66 68.5039 256.429 67.0027C256.117 64.9185 256.222 61.4289 256.234 59.1968C256.245 56.7338 256.098 53.1737 256.328 50.7868C256.426 49.7067 256.645 48.6406 256.983 47.6098C258.213 43.9329 260.849 40.8925 264.317 39.1575C265.621 38.5027 267.017 38.0521 268.458 37.8197C269.485 37.6634 270.553 37.6169 271.594 37.6394C276.084 37.7338 280.604 37.4859 285.085 37.738C286.174 37.7986 287.446 38.207 288.471 38.5435V51.5163V65.5578V78.3616Z" fill="#FE7238"/>
<path d="M288.471 87.056C284.445 87.9263 270.264 88.0024 266.258 87.1771C260.249 85.9463 254.981 82.3652 251.626 77.2307C250.002 74.7395 248.877 71.9568 248.309 69.0376C247.603 65.417 247.663 50.9064 248.415 47.3872C249.694 41.4163 253.308 36.2044 258.451 32.9105C260.862 31.36 263.543 30.2743 266.354 29.7124C270.447 28.8956 284.375 28.9745 288.471 29.8532V38.5435C287.446 38.2069 286.174 37.7985 285.085 37.738C280.604 37.4859 276.084 37.7337 271.594 37.6394C270.553 37.6169 269.485 37.6633 268.458 37.8197C267.017 38.052 265.622 38.5026 264.317 39.1575C260.849 40.8924 258.213 43.9328 256.983 47.6098C256.645 48.6406 256.427 49.7066 256.328 50.7867C256.098 53.1737 256.245 56.7338 256.234 59.1968C256.222 61.4288 256.117 64.9184 256.429 67.0026C256.66 68.5038 257.132 69.9571 257.827 71.3077C259.57 74.7494 262.61 77.3589 266.278 78.5629C267.255 78.884 268.265 79.0952 269.291 79.1924C271.504 79.4022 275.038 79.2558 277.341 79.2656C279.362 79.2741 282.893 79.3881 284.809 79.1938C286.06 79.0727 287.291 78.7925 288.471 78.3615V87.056Z" fill="#FE00E5"/>
<path d="M145.156 30.0924C146.106 29.9281 148.072 30.0328 149.112 30.0335L156.706 30.0412L164.486 30.0337C165.826 30.0311 168.122 29.9668 169.352 30.1568C170.772 30.3724 172.121 30.9199 173.29 31.7547C175.256 33.1801 176.562 35.3387 176.913 37.7409C177.117 39.0753 177.05 41.2597 177.049 42.6728L177.045 50.1079L177.051 57.6304C177.052 58.943 177.111 61.1124 176.917 62.343C176.695 63.8117 176.118 65.2042 175.237 66.4002C173.693 68.4949 171.552 69.6001 169.014 69.9775C164.538 70.1928 158.807 70.0241 154.238 70.0282L148.474 70.0343C147.234 70.0343 145.776 70.0935 144.569 69.9032C140.791 69.3081 137.555 66.0779 137.136 62.2495C136.952 60.5634 137.006 58.9335 137.004 57.2562L137.001 49.1859L137.003 42.1511C137.004 40.934 136.95 39.0065 137.118 37.8575C137.333 36.3102 137.94 34.8437 138.883 33.598C140.481 31.5173 142.582 30.4247 145.156 30.0924Z" fill="#095D36"/>
<path d="M147.032 31.3822C152.114 31.1433 155.83 35.2166 156.151 40.1204L157.891 40.123C157.99 38.1599 158.569 36.359 159.788 34.8013C161.261 32.9203 163.427 31.7083 165.802 31.4369C168.161 31.1589 170.532 31.8493 172.372 33.3504C174.229 34.8584 175.403 37.047 175.633 39.4271C175.864 41.8111 175.124 44.1876 173.581 46.0197C171.761 48.1695 169.601 48.9478 166.89 49.175V50.9208C168.849 50.9894 170.591 51.5192 172.165 52.7216C174.067 54.1683 175.307 56.3203 175.603 58.6916C175.906 61.0606 175.243 63.452 173.762 65.326C172.07 67.4593 169.981 68.38 167.342 68.6881C161.985 68.8099 158.225 65.2148 157.893 59.9049L156.151 59.9115C156.11 62.0013 155.351 64.0135 154 65.6088C152.445 67.4151 150.228 68.5182 147.849 68.6685C145.458 68.828 143.102 68.0165 141.317 66.4175C139.54 64.8331 138.48 62.5977 138.377 60.2198C138.278 57.8575 139.114 55.5511 140.704 53.8012C142.43 51.9317 144.607 51.0177 147.127 50.9276L147.126 49.1814C144.89 48.9802 143.223 48.5211 141.462 47.0104C139.663 45.4567 138.56 43.2499 138.396 40.8795C138.231 38.5169 139.018 36.1867 140.581 34.4073C142.336 32.4183 144.431 31.5608 147.032 31.3822Z" fill="#31DFDD"/>
<path d="M96 18.0052L115.309 18L115.306 37.2141L102.912 37.2132C100.65 37.2133 98.2611 37.1759 96.0077 37.2316L96 18.0052Z" fill="#BA8E01"/>
<path d="M103.982 18.7998C104.683 19.1241 105.022 22.984 105.598 23.4998L105.718 23.4906C106.204 23.0567 106.706 19.0936 107.274 18.8372L107.403 18.9336C107.624 19.6775 106.666 23.2844 107.175 23.7624C107.621 23.6275 109.43 20.7037 110.097 20.0654C110.272 20.0223 110.192 20.0103 110.345 20.0948C110.468 20.6464 108.274 23.8634 108.392 24.4897L108.503 24.554C109.344 24.4482 112.003 22.0714 112.655 22.248C112.647 22.9453 109.381 25.0787 109.284 25.6839C109.889 26.1359 113.793 24.6872 114.149 25.097C113.923 25.7282 109.989 26.646 109.685 27.0944C109.69 27.1438 109.695 27.1931 109.699 27.2424C110.468 27.6641 113.932 27.8558 114.459 28.2914L114.435 28.3867C113.632 28.8342 109.809 28.1828 109.526 28.6632C109.705 29.2113 113.167 30.7481 113.602 31.4206L113.576 31.5093C113.039 31.7216 109.781 29.9905 109.026 29.9084C108.942 29.8994 108.934 29.9458 108.863 30.0297C108.816 30.5829 111.805 33.5435 111.609 34.0078C110.92 34.1542 108.469 31.0239 107.806 30.9433C107.765 30.9708 107.725 30.9983 107.684 31.0258C107.702 31.8164 109.11 35.1653 108.838 35.7054L108.731 35.6931C108.295 35.3064 107.166 32.7358 106.831 32.0328C106.708 31.7657 106.672 31.5816 106.374 31.5124C105.925 31.9629 106.181 35.7214 105.678 36.3496L105.566 36.3589C105.189 35.9821 105.42 31.9408 104.849 31.5045C104.733 31.5485 104.707 31.5459 104.64 31.6734C103.979 32.9321 103.425 34.4928 102.676 35.6904C102.521 35.7798 102.604 35.7621 102.416 35.7289C102.166 35.1969 103.792 31.4788 103.585 30.9868L103.456 30.9774C102.786 31.2504 100.766 33.4173 100.075 33.9883C99.9077 34.126 99.9148 34.1138 99.7459 34.0976C99.3182 33.5126 102.859 30.4313 102.351 29.8797C102.104 29.8857 102.086 29.9433 101.873 30.0242C100.617 30.4986 99.3913 31.0549 98.1342 31.523C97.9985 31.5735 97.8417 31.5503 97.7118 31.5013L97.6892 31.408C97.9423 30.8852 101.151 29.4358 101.677 28.7927C101.739 28.7169 101.71 28.7067 101.678 28.5966C101.06 28.2329 97.3107 28.8421 96.8267 28.3582C97.122 27.8253 100.913 27.6722 101.613 27.2642L101.644 27.1231C101.312 26.6604 97.4495 25.6504 97.1448 25.2075C97.4375 24.5364 101.45 26.1294 101.993 25.7933L102.007 25.6552C101.775 25.1475 99.1979 23.0463 98.5812 22.4457C98.5641 22.2342 98.5317 22.3177 98.647 22.1755C99.2242 22.0913 101.766 24.2245 102.603 24.4985C102.743 24.5441 102.805 24.5491 102.934 24.4822C103.085 23.9434 100.803 20.7419 101.028 20.0408C101.754 20.2155 103.544 23.7255 104.223 23.7418C104.576 23.296 103.606 19.4085 103.982 18.7998Z" fill="#FE7238"/>
</g>
<defs>
<filter id="filter0_f_10108_5924" x="-2" y="-1" width="292" height="44" filterUnits="userSpaceOnUse" color-interpolation-filters="sRGB">
<feFlood flood-opacity="0" result="BackgroundImageFix"/>
<feBlend mode="normal" in="SourceGraphic" in2="BackgroundImageFix" result="shape"/>
<feGaussianBlur stdDeviation="1" result="effect1_foregroundBlur_10108_5924"/>
</filter>
<clipPath id="clip0_10108_5924">
<rect width="288" height="40" fill="white" transform="translate(0 1)"/>
</clipPath>
</defs>
</svg>
