<svg width="24" height="24" viewBox="0 0 24 24" fill="none" xmlns="http://www.w3.org/2000/svg">
<path fill-rule="evenodd" clip-rule="evenodd" d="M7.67206 0.583109C5.82906 0.916109 4.36406 2.42411 4.05906 4.30011C3.82706 5.72811 4.34106 7.24911 5.39506 8.25311C5.53006 8.38111 5.64006 8.49211 5.64006 8.50011C5.64006 8.50811 5.53006 8.61911 5.39506 8.74711C4.70606 9.40411 4.21406 10.3411 4.06006 11.2951C3.82706 12.7291 4.33906 14.2471 5.39506 15.2531C5.53006 15.3811 5.64006 15.4921 5.64006 15.5001C5.64006 15.5081 5.53006 15.6191 5.39506 15.7471C3.83406 17.2341 3.55506 19.6691 4.74106 21.4601C5.51706 22.6331 6.70706 23.3451 8.10206 23.4751C10.4461 23.6921 12.5601 22.0431 12.9411 19.7001C12.9861 19.4221 13.0001 18.9301 13.0001 17.5491V15.7581L13.2961 15.9201C16.0571 17.4361 19.4371 15.7981 19.9411 12.7001C20.1731 11.2721 19.6451 9.71411 18.6021 8.74811C18.4691 8.62511 18.3601 8.51611 18.3601 8.50511C18.3601 8.49411 18.4701 8.38111 18.6051 8.25311C19.6611 7.24711 20.1731 5.72911 19.9401 4.29511C19.6351 2.41111 18.1571 0.905109 16.2961 0.580109C15.8031 0.494109 8.14906 0.497109 7.67206 0.583109ZM11.0001 5.02411V7.52811L9.55006 7.51011C7.95906 7.49111 7.87706 7.48011 7.36106 7.22911C7.02506 7.06511 6.47206 6.52311 6.29306 6.18011C6.08406 5.78111 6.02306 5.51511 6.02306 5.00011C6.02306 4.24311 6.20606 3.79711 6.74006 3.25511C6.97406 3.01711 7.13806 2.89111 7.35206 2.78411C7.84006 2.53911 7.93806 2.52711 9.55006 2.52311L11.0001 2.52011V5.02411ZM16.1161 2.58111C16.5371 2.68111 16.9001 2.89611 17.2601 3.25811C17.7931 3.79411 17.9771 4.24111 17.9771 5.00011C17.9771 5.51511 17.9161 5.78111 17.7071 6.18011C17.5281 6.52311 16.9751 7.06511 16.6391 7.22911C16.1231 7.48011 16.0411 7.49111 14.4501 7.51011L13.0001 7.52811V5.02411V2.52011L14.4301 2.52111C15.5631 2.52111 15.9131 2.53411 16.1161 2.58111ZM11.0001 12.0241V14.5281L9.55006 14.5101C7.95906 14.4911 7.87706 14.4801 7.36106 14.2291C7.02506 14.0651 6.47206 13.5231 6.29306 13.1801C6.08406 12.7811 6.02306 12.5151 6.02306 12.0001C6.02306 11.2431 6.20606 10.7971 6.74006 10.2551C6.97406 10.0171 7.13806 9.89111 7.35206 9.78411C7.84006 9.53911 7.93806 9.52711 9.55006 9.52311L11.0001 9.52011V12.0241ZM16.1161 9.58111C16.5371 9.68111 16.9001 9.89611 17.2601 10.2581C17.7931 10.7941 17.9771 11.2411 17.9771 12.0001C17.9771 12.7701 17.7941 13.2071 17.2411 13.7611C16.7241 14.2781 16.2181 14.4901 15.5001 14.4901C14.7821 14.4901 14.2761 14.2781 13.7591 13.7611C13.2061 13.2071 13.0231 12.7701 13.0231 12.0001C13.0231 11.2431 13.2061 10.7971 13.7401 10.2551C14.0901 9.90011 14.4531 9.68311 14.8721 9.58211C15.1791 9.50811 15.8011 9.50711 16.1161 9.58111ZM10.9901 18.0101C10.9731 19.6471 10.9691 19.6781 10.7071 20.1801C10.5271 20.5241 9.97506 21.0651 9.63706 21.2301C9.26506 21.4111 8.91906 21.4901 8.50006 21.4901C7.78206 21.4901 7.27606 21.2781 6.75906 20.7611C6.20606 20.2071 6.02306 19.7701 6.02306 19.0001C6.02306 18.2431 6.20606 17.7971 6.74006 17.2551C6.97406 17.0171 7.13806 16.8911 7.35206 16.7841C7.84006 16.5391 7.93706 16.5271 9.55306 16.5231L11.0061 16.5201L10.9901 18.0101Z" fill="#FF0000"/>
</svg>
