<svg width="19" height="22" viewBox="0 0 19 22" fill="none" xmlns="http://www.w3.org/2000/svg">
<path d="M17 18H6C5.45 18 4.97917 17.8042 4.5875 17.4125C4.19583 17.0208 4 16.55 4 16V2C4 1.45 4.19583 0.979167 4.5875 0.5875C4.97917 0.195833 5.45 0 6 0H12.175C12.4417 0 12.6958 0.05 12.9375 0.15C13.1792 0.25 13.3917 0.391667 13.575 0.575L18.425 5.425C18.6083 5.60833 18.75 5.82083 18.85 6.0625C18.95 6.30417 19 6.55833 19 6.825V16C19 16.55 18.8042 17.0208 18.4125 17.4125C18.0208 17.8042 17.55 18 17 18ZM17 7H13.5C13.0833 7 12.7292 6.85417 12.4375 6.5625C12.1458 6.27083 12 5.91667 12 5.5V2H6V16H17V7ZM2 22C1.45 22 0.979167 21.8042 0.5875 21.4125C0.195833 21.0208 0 20.55 0 20V7C0 6.71667 0.0958333 6.47917 0.2875 6.2875C0.479167 6.09583 0.716667 6 1 6C1.28333 6 1.52083 6.09583 1.7125 6.2875C1.90417 6.47917 2 6.71667 2 7V20H12C12.2833 20 12.5208 20.0958 12.7125 20.2875C12.9042 20.4792 13 20.7167 13 21C13 21.2833 12.9042 21.5208 12.7125 21.7125C12.5208 21.9042 12.2833 22 12 22H2Z" fill="#FF0000"/>
</svg>
