<svg width="16" height="16" viewBox="0 0 16 16" fill="none" xmlns="http://www.w3.org/2000/svg">
<path fill-rule="evenodd" clip-rule="evenodd" d="M4.97336 0.697187C4.0047 0.819853 3.1387 1.51985 2.8247 2.43385C2.71736 2.74585 2.6667 3.07519 2.6667 3.46519C2.6667 3.97985 2.74803 4.16519 3.0247 4.28119C3.1667 4.33985 3.49936 4.34052 3.64003 4.28185C3.91136 4.16852 4.00003 3.97719 4.00003 3.50585C4.00003 2.99319 4.11003 2.68785 4.39936 2.39919C4.5887 2.20985 4.74936 2.11719 5.00403 2.05185C5.1987 2.00252 5.30736 1.99985 7.18403 2.00119C8.2707 2.00185 9.2467 2.01252 9.3527 2.02452C9.48536 2.03985 9.61136 2.07785 9.7527 2.14519C9.9547 2.24052 9.99803 2.28119 11.5254 3.80785C13.052 5.33519 13.0927 5.37852 13.188 5.58052C13.262 5.73652 13.2927 5.84319 13.3114 6.01519C13.326 6.14985 13.332 7.58385 13.326 9.52785C13.3174 12.4559 13.3114 12.8332 13.2727 12.9945C13.208 13.2619 13.1274 13.4059 12.9334 13.6005C12.7467 13.7872 12.5594 13.8939 12.32 13.9485C12.1154 13.9952 5.31736 14.0179 5.08003 13.9725C4.82936 13.9245 4.5947 13.7992 4.41203 13.6152C4.1087 13.3099 4.00003 13.0139 4.00003 12.4939C4.00003 12.1139 3.9567 11.9592 3.81536 11.8312C3.6907 11.7185 3.56736 11.6799 3.33336 11.6799C3.09936 11.6799 2.97603 11.7185 2.85136 11.8319C2.6887 11.9785 2.6567 12.1245 2.67403 12.6512C2.6847 12.9965 2.70136 13.1319 2.75736 13.3465C2.97603 14.1839 3.6327 14.8999 4.43403 15.1752C4.90336 15.3365 4.80936 15.3332 8.4767 15.3332C12.2034 15.3332 12.3574 15.3272 12.88 15.1699C13.6147 14.9485 14.2834 14.2805 14.5034 13.5465C14.6654 13.0059 14.6714 12.8479 14.6607 9.07985C14.6514 5.76719 14.6514 5.74519 14.594 5.53319C14.502 5.18919 14.3667 4.89852 14.166 4.61319C14.0194 4.40385 11.24 1.60252 10.8834 1.30385C10.4674 0.95652 9.9987 0.75252 9.48603 0.695187C9.1727 0.66052 5.25003 0.661853 4.97336 0.697187ZM3.12003 5.68185C3.03136 5.72185 2.75203 5.98252 2.04403 6.68785C1.04136 7.68585 0.960031 7.78452 0.960697 7.99985C0.961364 8.21052 1.0307 8.29519 2.02136 9.28919C3.0187 10.2905 3.11803 10.3725 3.33336 10.3725C3.47536 10.3725 3.67936 10.2632 3.82136 10.1099C3.9707 9.94985 4.03136 9.82185 4.03136 9.66652C4.03136 9.45119 3.97536 9.37785 3.2727 8.67319L2.60136 7.99985L3.2727 7.32652C3.73136 6.86652 3.95803 6.61985 3.98736 6.54852C4.08603 6.31252 4.01536 6.06919 3.78536 5.85452C3.5467 5.63119 3.3467 5.57985 3.12003 5.68185ZM5.79403 5.67919C5.64136 5.74785 5.42803 5.95252 5.3587 6.09519C5.29136 6.23519 5.28603 6.40585 5.34603 6.54852C5.37536 6.61985 5.60203 6.86652 6.0607 7.32652L6.73203 7.99985L6.0607 8.67319C5.35803 9.37785 5.30203 9.45119 5.30203 9.66652C5.30203 9.82185 5.3627 9.94985 5.51203 10.1099C5.65403 10.2632 5.85803 10.3725 6.00003 10.3725C6.21536 10.3725 6.3147 10.2905 7.31203 9.28919C8.3027 8.29519 8.37203 8.21052 8.3727 7.99985C8.37336 7.78452 8.29203 7.68585 7.28936 6.68785C6.29536 5.69785 6.21003 5.62785 6.00003 5.62785C5.9487 5.62785 5.85603 5.65052 5.79403 5.67919Z" fill="#FAF9F6"/>
</svg>
