<svg width="16" height="16" viewBox="0 0 16 16" fill="none" xmlns="http://www.w3.org/2000/svg">
<path fill-rule="evenodd" clip-rule="evenodd" d="M4.61333 0.694811C4.10333 0.727477 3.78267 0.802811 3.45333 0.967477C2.726 1.33081 2.238 1.97414 2.08267 2.77348C2.008 3.15881 2 3.64681 2 8.00014C2 12.9555 2.00133 13.0101 2.16333 13.5468C2.38467 14.2815 3.052 14.9488 3.78667 15.1701C4.30667 15.3268 4.47733 15.3335 8 15.3335C11.5227 15.3335 11.6933 15.3268 12.2133 15.1701C12.948 14.9488 13.6167 14.2808 13.8367 13.5468C13.9993 13.0041 14.004 12.8728 13.9947 8.77348L13.9867 5.13348L13.9153 5.01348C13.8747 4.94481 12.952 4.00348 11.7687 2.82214C9.75533 0.813477 9.68933 0.750144 9.54867 0.708811C9.42067 0.672144 9.13867 0.667477 7.162 0.670811C5.92867 0.672811 4.782 0.683477 4.61333 0.694811ZM8.66733 3.38014C8.66733 4.88148 8.676 4.98748 8.818 5.27948C8.91067 5.47014 9.19667 5.75614 9.38733 5.84881C9.67933 5.99081 9.78467 5.99948 11.288 5.99948L12.6693 6.00014L12.6593 9.40681C12.6487 13.1101 12.6533 12.9888 12.5013 13.3015C12.4173 13.4741 12.1267 13.7588 11.9453 13.8455C11.6473 13.9888 11.698 13.9868 8 13.9868C4.308 13.9868 4.35533 13.9888 4.05467 13.8475C3.87467 13.7621 3.58467 13.4781 3.49867 13.3015C3.46533 13.2328 3.41733 13.0888 3.392 12.9815C3.35 12.8015 3.34667 12.4201 3.34667 8.00014C3.34667 3.58014 3.35 3.19881 3.392 3.01881C3.45 2.77014 3.52933 2.61214 3.68 2.44481C3.92267 2.17414 4.18867 2.06014 4.65333 2.02681C4.8 2.01681 5.76333 2.00614 6.79333 2.00414L8.66667 2.00014L8.66733 3.38014ZM10.8667 3.81348L11.72 4.66681H10.86H10V3.81348C10 3.34414 10.0033 2.96014 10.0067 2.96014C10.0107 2.96014 10.3973 3.34414 10.8667 3.81348ZM5.076 5.37148C4.918 5.42081 4.808 5.50748 4.73933 5.63548C4.69 5.72814 4.68 5.78948 4.68 6.00014C4.68 6.22081 4.68867 6.26881 4.74667 6.37214C4.82 6.50348 4.94267 6.59881 5.09 6.63948C5.21733 6.67481 6.78267 6.67481 6.91 6.63948C7.05733 6.59881 7.18 6.50348 7.25333 6.37214C7.31133 6.26814 7.32 6.22148 7.31933 6.00014C7.31867 5.79148 7.308 5.72748 7.26 5.63548C7.19067 5.50414 7.082 5.42081 6.914 5.37014C6.74467 5.31948 5.23933 5.32081 5.076 5.37148ZM5.076 8.03814C4.918 8.08748 4.808 8.17414 4.73933 8.30214C4.69 8.39481 4.68 8.45614 4.68 8.66681C4.68 8.88748 4.68867 8.93548 4.74667 9.03881C4.82 9.17014 4.94267 9.26548 5.09 9.30614C5.222 9.34281 10.778 9.34281 10.91 9.30614C11.0573 9.26548 11.18 9.17014 11.2533 9.03881C11.3113 8.93481 11.32 8.88814 11.3193 8.66681C11.3187 8.37814 11.2653 8.23681 11.1187 8.13281C10.9287 7.99748 10.9913 8.00014 7.98933 8.00214C5.76733 8.00348 5.164 8.01081 5.076 8.03814ZM5.076 10.7048C4.918 10.7541 4.808 10.8408 4.73933 10.9688C4.69 11.0615 4.68 11.1228 4.68 11.3335C4.68 11.5541 4.68867 11.6021 4.74667 11.7055C4.82 11.8368 4.94267 11.9321 5.09 11.9728C5.222 12.0095 10.778 12.0095 10.91 11.9728C11.0573 11.9321 11.18 11.8368 11.2533 11.7055C11.3113 11.6015 11.32 11.5548 11.3193 11.3335C11.3187 11.0448 11.2653 10.9035 11.1187 10.7995C10.9287 10.6641 10.9913 10.6668 7.98933 10.6688C5.76733 10.6701 5.164 10.6775 5.076 10.7048Z" fill="#FAF9F6"/>
</svg>
