<svg width="24" height="24" viewBox="0 0 24 24" fill="none" xmlns="http://www.w3.org/2000/svg">
<path fill-rule="evenodd" clip-rule="evenodd" d="M2.61402 5.05701C2.37702 5.13101 2.21202 5.26101 2.10902 5.45301C2.03502 5.59201 2.02002 5.68401 2.02002 6.00001C2.02002 6.33101 2.03302 6.40301 2.12002 6.55801C2.23002 6.75501 2.41402 6.89801 2.63502 6.95901C2.83502 7.01501 21.165 7.01501 21.365 6.95901C21.586 6.89801 21.77 6.75501 21.88 6.55801C21.967 6.40201 21.98 6.33201 21.979 6.00001C21.978 5.56701 21.898 5.35501 21.678 5.19901C21.385 4.99001 21.877 5.00001 11.984 5.00301C4.54602 5.00501 2.74802 5.01501 2.61402 5.05701ZM5.61402 11.057C5.37702 11.131 5.21202 11.261 5.10902 11.453C5.03502 11.592 5.02002 11.684 5.02002 12C5.02002 12.331 5.03302 12.403 5.12002 12.558C5.23002 12.755 5.41402 12.898 5.63502 12.959C5.83402 13.015 18.166 13.015 18.365 12.959C18.586 12.898 18.77 12.755 18.88 12.558C18.967 12.402 18.98 12.332 18.979 12C18.978 11.567 18.898 11.355 18.678 11.199C18.388 10.992 18.642 11 11.984 11.003C7.00902 11.005 5.74702 11.016 5.61402 11.057ZM8.61402 17.057C8.37702 17.131 8.21202 17.261 8.10902 17.453C8.03502 17.592 8.02002 17.684 8.02002 18C8.02002 18.331 8.03302 18.403 8.12002 18.558C8.23002 18.755 8.41402 18.898 8.63502 18.959C8.83202 19.014 15.168 19.014 15.365 18.959C15.586 18.898 15.77 18.755 15.88 18.558C15.967 18.402 15.98 18.332 15.979 18C15.978 17.567 15.898 17.355 15.678 17.199C15.398 16.999 15.411 17 11.984 17.003C9.47202 17.005 8.74402 17.017 8.61402 17.057Z" fill="#FF0000"/>
</svg>
