<svg width="24" height="24" viewBox="0 0 24 24" fill="none" xmlns="http://www.w3.org/2000/svg">
<path d="M19.0749 21.9L2.0749 4.92495C1.8749 4.72495 1.7749 4.48745 1.7749 4.21245C1.7749 3.93745 1.8749 3.69995 2.0749 3.49995C2.2749 3.29995 2.5124 3.19995 2.7874 3.19995C3.0624 3.19995 3.2999 3.29995 3.4999 3.49995L20.4999 20.5C20.6999 20.7 20.7999 20.9333 20.7999 21.2C20.7999 21.4666 20.6999 21.7 20.4999 21.9C20.2999 22.1 20.0624 22.2 19.7874 22.2C19.5124 22.2 19.2749 22.1 19.0749 21.9ZM16.2499 13C15.9666 13 15.7249 12.9041 15.5249 12.7125C15.3249 12.5208 15.2249 12.2833 15.2249 12C15.2249 11.7333 15.3207 11.5 15.5124 11.3C15.7041 11.1 15.9499 11 16.2499 11H16.9999C17.2832 11 17.5207 11.0958 17.7124 11.2875C17.9041 11.4791 17.9999 11.7166 17.9999 12C17.9999 12.2833 17.9041 12.5208 17.7124 12.7125C17.5207 12.9041 17.2832 13 16.9999 13H16.2499ZM11.2499 7.99995C10.9666 7.99995 10.7249 7.90412 10.5249 7.71245C10.3249 7.52078 10.2249 7.28328 10.2249 6.99995C10.2249 6.73328 10.3207 6.49995 10.5124 6.29995C10.7041 6.09995 10.9499 5.99995 11.2499 5.99995H19.9999C20.2832 5.99995 20.5207 6.09578 20.7124 6.28745C20.9041 6.47912 20.9999 6.71662 20.9999 6.99995C20.9999 7.28328 20.9041 7.52078 20.7124 7.71245C20.5207 7.90412 20.2832 7.99995 19.9999 7.99995H11.2499ZM10.9999 18C10.7166 18 10.4791 17.9041 10.2874 17.7125C10.0957 17.5208 9.9999 17.2833 9.9999 17C9.9999 16.7166 10.0957 16.4791 10.2874 16.2875C10.4791 16.0958 10.7166 16 10.9999 16H12.9999C13.2832 16 13.5207 16.0958 13.7124 16.2875C13.9041 16.4791 13.9999 16.7166 13.9999 17C13.9999 17.2833 13.9041 17.5208 13.7124 17.7125C13.5207 17.9041 13.2832 18 12.9999 18H10.9999ZM6.9999 13C6.71657 13 6.47907 12.9041 6.2874 12.7125C6.09574 12.5208 5.9999 12.2833 5.9999 12C5.9999 11.7166 6.09574 11.4791 6.2874 11.2875C6.47907 11.0958 6.71657 11 6.9999 11H10.1499V13H6.9999ZM3.9999 7.99995C3.71657 7.99995 3.47907 7.90412 3.2874 7.71245C3.09574 7.52078 2.9999 7.28328 2.9999 6.99995C2.9999 6.71662 3.09574 6.47912 3.2874 6.28745C3.47907 6.09578 3.71657 5.99995 3.9999 5.99995H5.1499V7.99995H3.9999Z" fill="#FF0000"/>
</svg>
