<svg width="24" height="24" viewBox="0 0 24 24" fill="none" xmlns="http://www.w3.org/2000/svg">
<path fill-rule="evenodd" clip-rule="evenodd" d="M6.09866 5.36266C5.832 5.38866 5.53733 5.48199 5.382 5.58999C5.23 5.69533 5.05333 5.89999 4.97266 6.06533C4.76266 6.49466 4.78266 6.91399 5.03266 7.32733C5.17666 7.56533 5.384 7.80399 7.636 10.32L9.65333 12.5733L9.654 14.9867C9.65466 16.3667 9.666 17.4847 9.68066 17.5973C9.71466 17.8573 9.806 18.05 9.97933 18.2233C10.2187 18.462 10.5687 18.5553 10.9013 18.4687C11.0927 18.4187 13.5193 17.4547 13.762 17.3327C14.0947 17.1647 14.2787 16.9 14.322 16.528C14.334 16.4213 14.3447 15.4873 14.3453 14.4533L14.3467 12.5733L16.3633 10.32C18.6047 7.81599 18.7927 7.60133 18.9373 7.37733C19.2927 6.82733 19.2353 6.18999 18.7887 5.74466C18.6093 5.56599 18.416 5.46066 18.138 5.39266C17.976 5.35266 17.436 5.34866 12.1467 5.34399C8.94933 5.34199 6.228 5.34999 6.09866 5.36266Z" fill="white"/>
</svg>
