<svg width="20" height="20" viewBox="0 0 20 20" fill="none" xmlns="http://www.w3.org/2000/svg">
<path fill-rule="evenodd" clip-rule="evenodd" d="M9.16675 3.33317C5.94509 3.33317 3.33341 5.94484 3.33341 9.1665C3.33341 12.3882 5.94509 14.9998 9.16675 14.9998C12.3884 14.9998 15.0001 12.3882 15.0001 9.1665C15.0001 5.94484 12.3884 3.33317 9.16675 3.33317ZM1.66675 9.1665C1.66675 5.02437 5.02461 1.6665 9.16675 1.6665C13.3089 1.6665 16.6667 5.02437 16.6667 9.1665C16.6667 13.3086 13.3089 16.6665 9.16675 16.6665C5.02461 16.6665 1.66675 13.3086 1.66675 9.1665Z" fill="white"/>
<path fill-rule="evenodd" clip-rule="evenodd" d="M13.2858 13.2856C13.6113 12.9601 14.1389 12.9601 14.4643 13.2856L18.0893 16.9106C18.4148 17.236 18.4148 17.7637 18.0893 18.0891C17.7639 18.4145 17.2363 18.4145 16.9108 18.0891L13.2858 14.4641C12.9604 14.1387 12.9604 13.611 13.2858 13.2856Z" fill="white"/>
</svg>
