<svg width="14" height="14" viewBox="0 0 14 14" fill="none" xmlns="http://www.w3.org/2000/svg">
<g clip-path="url(#clip0_327_6878)">
<path fill-rule="evenodd" clip-rule="evenodd" d="M1.16634 0.583496C0.844175 0.583496 0.583008 0.844663 0.583008 1.16683V5.8335C0.583008 6.15566 0.844175 6.41683 1.16634 6.41683H5.83301C6.15517 6.41683 6.41634 6.15566 6.41634 5.8335V1.16683C6.41634 0.844663 6.15517 0.583496 5.83301 0.583496H1.16634ZM1.74967 1.75016V5.25016H5.24967V1.75016H1.74967Z" fill="white"/>
<path fill-rule="evenodd" clip-rule="evenodd" d="M8.16634 0.583496C7.84418 0.583496 7.58301 0.844663 7.58301 1.16683V5.8335C7.58301 6.15566 7.84418 6.41683 8.16634 6.41683H12.833C13.1552 6.41683 13.4163 6.15566 13.4163 5.8335V1.16683C13.4163 0.844663 13.1552 0.583496 12.833 0.583496H8.16634ZM8.74967 1.75016V5.25016H12.2497V1.75016H8.74967Z" fill="white"/>
<path fill-rule="evenodd" clip-rule="evenodd" d="M0.583008 8.16683C0.583008 7.84466 0.844175 7.5835 1.16634 7.5835H5.83301C6.15517 7.5835 6.41634 7.84466 6.41634 8.16683V12.8335C6.41634 13.1557 6.15517 13.4168 5.83301 13.4168H1.16634C0.844175 13.4168 0.583008 13.1557 0.583008 12.8335V8.16683ZM1.74967 12.2502V8.75016H5.24967V12.2502H1.74967Z" fill="white"/>
<path fill-rule="evenodd" clip-rule="evenodd" d="M9.91634 12.2502C10.3491 12.2502 10.7543 12.1324 11.1017 11.9271L12.4205 13.246C12.6483 13.4738 13.0177 13.4738 13.2455 13.246C13.4733 13.0182 13.4733 12.6488 13.2455 12.421L11.9266 11.1021C12.1319 10.7548 12.2497 10.3496 12.2497 9.91683C12.2497 8.62816 11.205 7.5835 9.91634 7.5835C8.62768 7.5835 7.58301 8.62816 7.58301 9.91683C7.58301 11.2055 8.62768 12.2502 9.91634 12.2502ZM9.91634 11.0835C10.5607 11.0835 11.083 10.5612 11.083 9.91683C11.083 9.2725 10.5607 8.75016 9.91634 8.75016C9.27201 8.75016 8.74967 9.2725 8.74967 9.91683C8.74967 10.5612 9.27201 11.0835 9.91634 11.0835Z" fill="white"/>
</g>
<defs>
<clipPath id="clip0_327_6878">
<rect width="14" height="14" fill="white"/>
</clipPath>
</defs>
</svg>
