<svg width="24" height="24" viewBox="0 0 24 24" fill="none" xmlns="http://www.w3.org/2000/svg">
<path fill-rule="evenodd" clip-rule="evenodd" d="M16.626 4.04492C16.257 4.23892 15.951 4.67292 15.951 4.99992C15.951 5.33292 16.056 5.46692 17.353 6.76992L18.577 7.99992H12.947C9.277 7.99992 7.182 8.01492 6.928 8.04192C5.633 8.18292 4.502 8.72892 3.579 9.65892C1.483 11.7709 1.48 15.2009 3.573 17.3329C4.443 18.2199 5.496 18.7559 6.729 18.9409C7.041 18.9879 7.632 18.9999 9.67 18.9999C11.255 18.9999 12.275 18.9839 12.365 18.9589C12.586 18.8979 12.77 18.7549 12.88 18.5579C12.967 18.4019 12.98 18.3319 12.979 17.9999C12.977 17.4689 12.852 17.2459 12.455 17.0709C12.367 17.0319 11.691 17.0149 9.6 16.9979C6.948 16.9769 6.851 16.9729 6.58 16.8899C5.362 16.5179 4.431 15.5809 4.111 14.4049C3.992 13.9679 3.992 13.0319 4.111 12.5949C4.373 11.6319 5.061 10.8089 5.995 10.3419C6.157 10.2609 6.427 10.1549 6.595 10.1079L6.9 10.0209L12.74 10.0089L18.579 9.99792L17.354 11.2289C16.549 12.0389 16.099 12.5209 16.04 12.6369C15.863 12.9889 15.952 13.3539 16.299 13.7009C16.646 14.0479 17.011 14.1369 17.363 13.9599C17.484 13.8989 18.182 13.2339 19.561 11.8659C20.673 10.7629 21.634 9.82592 21.696 9.78392C21.85 9.68192 22.049 9.23892 22.049 8.99992C22.049 8.74492 21.851 8.32092 21.676 8.20092C21.601 8.14992 20.64 7.21292 19.54 6.11792C18.232 4.81692 17.482 4.09892 17.372 4.04392C17.152 3.93392 16.835 3.93492 16.626 4.04492Z" fill="#FF0000"/>
</svg>
