<svg width="16" height="14" viewBox="0 0 16 14" fill="none" xmlns="http://www.w3.org/2000/svg">
<path fill-rule="evenodd" clip-rule="evenodd" d="M2.49934 0.362667C1.97534 0.414667 1.60067 0.581334 1.26001 0.913334C1.00534 1.162 0.843339 1.45 0.738672 1.84L0.681339 2.05333L0.672672 6.4C0.662672 11.2653 0.664005 11.3273 0.830005 11.88C1.05001 12.614 1.71867 13.282 2.45334 13.5033C2.99001 13.6653 3.04467 13.6667 8 13.6667C12.9553 13.6667 13.01 13.6653 13.5467 13.5033C14.2813 13.282 14.9487 12.6147 15.17 11.88C15.3227 11.374 15.3333 11.1413 15.3333 8.33333C15.3333 5.52533 15.3227 5.29267 15.17 4.78667C14.9493 4.054 14.3093 3.414 13.5467 3.164C13.1387 3.03 12.9713 3.02 10.9587 3.00733L9.07734 2.99467L8.70934 2.25733C8.50667 1.852 8.28534 1.42533 8.21734 1.31C7.95334 0.862667 7.496 0.525334 6.96 0.382667C6.814 0.344 2.86601 0.326 2.49934 0.362667ZM6.776 1.724C6.95 1.80267 7.046 1.934 7.31334 2.458C7.45667 2.738 7.57334 2.97467 7.57334 2.98333C7.57334 2.99267 6.31934 3 4.78667 3H2.00001V2.75333C2.00067 2.34933 2.04201 2.07333 2.11934 1.956C2.22201 1.80133 2.36467 1.72 2.57734 1.694C2.678 1.68267 3.642 1.674 4.72 1.676C6.474 1.67933 6.69 1.68467 6.776 1.724ZM12.9947 4.394C13.2627 4.45867 13.4067 4.53933 13.6 4.73333C13.7973 4.93 13.876 5.07267 13.9413 5.352C13.9827 5.52933 13.9867 5.79933 13.9867 8.33333C13.9867 11.3713 13.9893 11.3173 13.8347 11.6347C13.7507 11.8073 13.46 12.092 13.2787 12.1787C12.9753 12.3247 13.138 12.32 8 12.32C2.86934 12.32 3.02734 12.324 2.72134 12.1807C2.54134 12.0953 2.25134 11.8113 2.16534 11.6347C2.01334 11.322 2.01801 11.4433 2.00734 7.73933L1.99734 4.33133L7.40534 4.34067C12.3187 4.34933 12.83 4.354 12.9947 4.394Z" fill="black"/>
<path fill-rule="evenodd" clip-rule="evenodd" d="M2.49934 0.362667C1.97534 0.414667 1.60067 0.581334 1.26001 0.913334C1.00534 1.162 0.843339 1.45 0.738672 1.84L0.681339 2.05333L0.672672 6.4C0.662672 11.2653 0.664005 11.3273 0.830005 11.88C1.05001 12.614 1.71867 13.282 2.45334 13.5033C2.99001 13.6653 3.04467 13.6667 8 13.6667C12.9553 13.6667 13.01 13.6653 13.5467 13.5033C14.2813 13.282 14.9487 12.6147 15.17 11.88C15.3227 11.374 15.3333 11.1413 15.3333 8.33333C15.3333 5.52533 15.3227 5.29267 15.17 4.78667C14.9493 4.054 14.3093 3.414 13.5467 3.164C13.1387 3.03 12.9713 3.02 10.9587 3.00733L9.07734 2.99467L8.70934 2.25733C8.50667 1.852 8.28534 1.42533 8.21734 1.31C7.95334 0.862667 7.496 0.525334 6.96 0.382667C6.814 0.344 2.86601 0.326 2.49934 0.362667ZM6.776 1.724C6.95 1.80267 7.046 1.934 7.31334 2.458C7.45667 2.738 7.57334 2.97467 7.57334 2.98333C7.57334 2.99267 6.31934 3 4.78667 3H2.00001V2.75333C2.00067 2.34933 2.04201 2.07333 2.11934 1.956C2.22201 1.80133 2.36467 1.72 2.57734 1.694C2.678 1.68267 3.642 1.674 4.72 1.676C6.474 1.67933 6.69 1.68467 6.776 1.724ZM12.9947 4.394C13.2627 4.45867 13.4067 4.53933 13.6 4.73333C13.7973 4.93 13.876 5.07267 13.9413 5.352C13.9827 5.52933 13.9867 5.79933 13.9867 8.33333C13.9867 11.3713 13.9893 11.3173 13.8347 11.6347C13.7507 11.8073 13.46 12.092 13.2787 12.1787C12.9753 12.3247 13.138 12.32 8 12.32C2.86934 12.32 3.02734 12.324 2.72134 12.1807C2.54134 12.0953 2.25134 11.8113 2.16534 11.6347C2.01334 11.322 2.01801 11.4433 2.00734 7.73933L1.99734 4.33133L7.40534 4.34067C12.3187 4.34933 12.83 4.354 12.9947 4.394Z" fill="white" fill-opacity="0.9"/>
</svg>
