<svg width="24" height="24" viewBox="0 0 24 24" fill="none" xmlns="http://www.w3.org/2000/svg">
<path fill-rule="evenodd" clip-rule="evenodd" d="M3.74904 2.04389C2.96304 2.12189 2.40104 2.37189 1.89004 2.86989C1.50804 3.24289 1.26504 3.67489 1.10804 4.25989L1.02204 4.57989L1.00904 11.0999C0.994038 18.3979 0.996038 18.4909 1.24504 19.3199C1.57504 20.4209 2.57804 21.4229 3.68004 21.7549C4.48504 21.9979 4.56704 21.9999 12 21.9999C19.433 21.9999 19.515 21.9979 20.32 21.7549C21.422 21.4229 22.423 20.4219 22.755 19.3199C22.984 18.5609 23 18.2119 23 13.9999C23 9.78789 22.984 9.43889 22.755 8.67989C22.424 7.58089 21.464 6.62089 20.32 6.24589C19.708 6.04489 19.457 6.02989 16.438 6.01089L13.616 5.99189L13.064 4.88589C12.76 4.27789 12.428 3.63789 12.326 3.46489C11.93 2.79389 11.244 2.28789 10.44 2.07389C10.221 2.01589 4.29904 1.98889 3.74904 2.04389ZM10.164 4.08589C10.425 4.20389 10.569 4.40089 10.97 5.18689C11.185 5.60689 11.36 5.96189 11.36 5.97489C11.36 5.98889 9.47904 5.99989 7.18004 5.99989H3.00004V5.62989C3.00104 5.02389 3.06304 4.60989 3.17904 4.43389C3.33304 4.20189 3.54704 4.07989 3.86604 4.04089C4.01704 4.02389 5.46304 4.01089 7.08004 4.01389C9.71104 4.01889 10.035 4.02689 10.164 4.08589ZM19.492 8.09089C19.894 8.18789 20.11 8.30889 20.4 8.59989C20.696 8.89489 20.814 9.10889 20.912 9.52789C20.974 9.79389 20.98 10.1989 20.98 13.9999C20.98 18.5569 20.984 18.4759 20.752 18.9519C20.626 19.2109 20.19 19.6379 19.918 19.7679C19.463 19.9869 19.707 19.9799 12 19.9799C4.30404 19.9799 4.54104 19.9859 4.08204 19.7709C3.81204 19.6429 3.37704 19.2169 3.24804 18.9519C3.02004 18.4829 3.02704 18.6649 3.01104 13.1089L2.99604 7.99689L11.108 8.01089C18.478 8.02389 19.245 8.03089 19.492 8.09089ZM11.4 9.04389C9.76104 9.22889 8.26104 10.2899 7.52604 11.7849C7.15804 12.5329 7.02004 13.1359 7.02004 13.9999C7.02004 14.6699 7.07804 15.0439 7.26804 15.5999C7.84604 17.2909 9.25304 18.5249 11.04 18.9069C11.511 19.0079 12.489 19.0079 12.96 18.9069C14.488 18.5799 15.748 17.6299 16.433 16.2879C16.838 15.4939 16.98 14.8989 16.98 13.9999C16.98 13.1009 16.838 12.5059 16.433 11.7129C15.794 10.4609 14.604 9.50989 13.24 9.16189C12.669 9.01589 12.019 8.97389 11.4 9.04389ZM12.861 11.1289C13.804 11.4049 14.585 12.1839 14.875 13.1389C14.956 13.4059 14.973 13.5479 14.974 13.9799C14.976 14.4999 14.926 14.7959 14.775 15.1579L14.717 15.2969L12.721 13.3009C11.623 12.2029 10.733 11.2909 10.744 11.2729C10.769 11.2329 11.248 11.0859 11.506 11.0389C11.832 10.9799 12.503 11.0239 12.861 11.1289ZM13.256 16.7259C13.245 16.7429 13.089 16.8059 12.908 16.8659C12.618 16.9609 12.516 16.9739 12.02 16.9769C11.539 16.9799 11.418 16.9669 11.16 16.8859C10.18 16.5799 9.41704 15.8209 9.12504 14.8609C9.04404 14.5939 9.02704 14.4519 9.02604 14.0199C9.02404 13.4999 9.07404 13.2039 9.22504 12.8419L9.28304 12.7029L11.279 14.6989C12.377 15.7969 13.267 16.7089 13.256 16.7259Z" fill="#FF0000"/>
</svg>
