<svg width="24" height="24" viewBox="0 0 24 24" fill="none" xmlns="http://www.w3.org/2000/svg">
<path d="M14.8496 13.8252C15.1329 13.8252 15.3752 13.925 15.5752 14.125L18 16.5996V15C18 14.7167 18.0954 14.4788 18.2871 14.2871C18.4788 14.0954 18.7167 14 19 14C19.2833 14 19.5212 14.0954 19.7129 14.2871C19.9046 14.4788 20 14.7167 20 15V19C20 19.2833 19.9046 19.5212 19.7129 19.7129C19.5212 19.9046 19.2833 20 19 20H15C14.7167 20 14.4788 19.9046 14.2871 19.7129C14.0954 19.5212 14 19.2833 14 19C14 18.7167 14.0954 18.4788 14.2871 18.2871C14.4788 18.0954 14.7167 18 15 18H16.5996L14.125 15.5498C13.9252 15.3499 13.8253 15.1127 13.8252 14.8379C13.8252 14.5629 13.925 14.325 14.125 14.125C14.3249 13.9251 14.5664 13.8253 14.8496 13.8252ZM7.4502 13H6.4502V11H7.4502V13ZM10.2002 13H9.2002V11H10.2002V13ZM19 4C19.2833 4 19.5212 4.09544 19.7129 4.28711C19.9046 4.47878 20 4.71667 20 5V9C20 9.28333 19.9046 9.52122 19.7129 9.71289C19.5212 9.90456 19.2833 10 19 10C18.7167 10 18.4788 9.90456 18.2871 9.71289C18.0954 9.52122 18 9.28333 18 9V7.40039L12.9746 12.4248C12.7914 12.608 12.5793 12.7496 12.3379 12.8496C12.2122 12.9016 12.0826 12.9399 11.9502 12.9648V10.6494L16.5996 6H15C14.7167 6 14.4788 5.90456 14.2871 5.71289C14.0954 5.52122 14 5.28333 14 5C14 4.71667 14.0954 4.47878 14.2871 4.28711C14.4788 4.09544 14.7167 4 15 4H19ZM4.7002 12.96C4.5447 12.915 4.40684 12.8326 4.28711 12.7129C4.09544 12.5212 4 12.2833 4 12C4 11.7167 4.09544 11.4788 4.28711 11.2871C4.40684 11.1674 4.5447 11.085 4.7002 11.04V12.96Z" fill="#FF0000"/>
</svg>
