<svg width="24" height="24" viewBox="0 0 24 24" fill="none" xmlns="http://www.w3.org/2000/svg">
<path fill-rule="evenodd" clip-rule="evenodd" d="M7.8601 4.03993C6.3391 4.10493 5.4781 4.31993 4.5871 4.85493C4.0631 5.16993 3.7461 5.42093 3.3381 5.84593C2.3751 6.84993 1.9311 7.86293 1.7221 9.53893C1.5671 10.7789 1.1851 15.9829 1.2231 16.3489C1.3271 17.3719 1.7021 18.1849 2.3831 18.8589C2.8921 19.3629 3.4731 19.6919 4.2001 19.8869C4.4781 19.9609 4.6451 19.9779 5.1201 19.9789C5.8111 19.9799 6.2001 19.8959 6.7951 19.6169C7.4431 19.3119 7.7951 19.0059 8.6111 18.0369C9.0611 17.5019 9.1801 17.3939 9.5031 17.2249C9.8951 17.0199 10.1041 17.0009 12.0001 17.0009C13.8961 17.0009 14.1051 17.0199 14.4971 17.2249C14.8231 17.3959 14.9301 17.4949 15.4741 18.1339C16.2791 19.0789 16.5451 19.3069 17.2131 19.6199C17.8011 19.8959 18.1921 19.9799 18.8801 19.9779C19.3121 19.9769 19.5311 19.9579 19.7401 19.9029C21.1871 19.5219 22.2251 18.5389 22.6201 17.1759C22.8171 16.4979 22.8181 16.3489 22.6401 13.8689C22.3801 10.2349 22.3081 9.49493 22.1351 8.66693C21.8821 7.45893 21.4441 6.64593 20.5801 5.77693C19.5291 4.71993 18.5071 4.25493 16.8401 4.07593C16.3381 4.02293 8.9581 3.99193 7.8601 4.03993ZM15.9601 6.03793C17.1811 6.09093 17.7551 6.21093 18.3351 6.53493C19.1611 6.99793 19.8491 7.84493 20.0771 8.68193C20.2921 9.46693 20.3431 9.93593 20.5991 13.4759C20.7831 16.0059 20.7921 16.3309 20.6861 16.6709C20.4281 17.4989 19.6211 18.0459 18.7401 17.9889C18.0881 17.9469 17.7561 17.7379 17.0891 16.9479C16.4911 16.2389 16.2311 15.9749 15.9051 15.7419C15.5531 15.4909 14.9671 15.2199 14.5381 15.1109C14.1871 15.0219 14.1371 15.0199 12.0001 15.0199C9.8631 15.0199 9.8131 15.0219 9.4621 15.1109C9.0331 15.2199 8.4471 15.4909 8.0951 15.7419C7.7691 15.9749 7.5091 16.2389 6.9111 16.9479C6.2511 17.7299 5.9141 17.9449 5.2801 17.9889C4.5911 18.0369 3.9941 17.7579 3.5791 17.1939C3.3341 16.8609 3.2401 16.5529 3.2401 16.0799C3.2401 15.6839 3.5121 11.7749 3.6221 10.5999C3.7861 8.83593 3.9781 8.20493 4.5751 7.45793C4.7161 7.28193 4.9601 7.03593 5.1181 6.90993C5.8761 6.30593 6.5331 6.10093 7.9001 6.04193C8.8891 5.99893 14.9981 5.99593 15.9601 6.03793ZM7.6141 8.05693C7.3771 8.13093 7.2121 8.26093 7.1091 8.45293C7.0291 8.60293 7.0191 8.68893 7.0071 9.30993L6.9931 9.99993H6.4031C5.5771 9.99993 5.2991 10.0969 5.1091 10.4529C5.0351 10.5919 5.0201 10.6839 5.0201 10.9999C5.0201 11.3309 5.0331 11.4029 5.1201 11.5579C5.2301 11.7549 5.4141 11.8979 5.6351 11.9589C5.7151 11.9809 6.0551 11.9999 6.3901 11.9999H7.0001V12.6099C7.0001 12.9449 7.0191 13.2849 7.0411 13.3649C7.1481 13.7499 7.4371 13.9619 7.8961 13.9909C8.3811 14.0219 8.6991 13.8819 8.8801 13.5579C8.9741 13.3909 8.9811 13.3379 8.9941 12.6899L9.0081 11.9999H9.6141C9.9471 11.9999 10.2851 11.9809 10.3651 11.9589C10.5861 11.8979 10.7701 11.7549 10.8801 11.5579C10.9671 11.4019 10.9801 11.3319 10.9791 10.9999C10.9781 10.6869 10.9621 10.5909 10.8901 10.4529C10.7021 10.0979 10.4231 9.99993 9.5981 9.99993H9.0081L8.9931 9.30993C8.9761 8.54093 8.9301 8.37793 8.6781 8.19893C8.4141 8.00993 7.9571 7.94993 7.6141 8.05693ZM17.6141 9.05493C17.2201 9.18393 17.0391 9.43693 17.0091 9.89993C16.9781 10.3809 17.1191 10.6989 17.4421 10.8799C17.5971 10.9669 17.6691 10.9799 18.0001 10.9799C18.3121 10.9799 18.4081 10.9639 18.5401 10.8939C18.8661 10.7179 19.0001 10.4589 19.0001 9.99993C19.0001 9.35693 18.7131 9.04793 18.0831 9.01593C17.8931 9.00593 17.7181 9.02093 17.6141 9.05493ZM14.6141 11.0549C14.2201 11.1839 14.0391 11.4369 14.0091 11.8999C13.9781 12.3809 14.1191 12.6989 14.4421 12.8799C14.5971 12.9669 14.6691 12.9799 15.0001 12.9799C15.3121 12.9799 15.4081 12.9639 15.5401 12.8939C15.8661 12.7179 16.0001 12.4589 16.0001 11.9999C16.0001 11.3569 15.7131 11.0479 15.0831 11.0159C14.8931 11.0059 14.7181 11.0209 14.6141 11.0549Z" fill="#FF0000"/>
</svg>
