<svg width="24" height="24" viewBox="0 0 24 24" fill="none" xmlns="http://www.w3.org/2000/svg">
<path fill-rule="evenodd" clip-rule="evenodd" d="M11.536 1.03894C10.781 1.14594 9.98205 1.60094 9.51205 2.19394C9.25205 2.52094 9.15305 2.70094 8.80005 3.49994C8.34005 4.53894 8.19505 4.73894 7.76005 4.93494C7.42605 5.08594 7.25305 5.09394 6.40005 4.99894C5.14705 4.85894 4.63305 4.89094 4.03005 5.14394C3.08205 5.54294 2.42005 6.32094 2.12705 7.37994C2.03405 7.71594 2.04005 8.52794 2.13705 8.87994C2.26405 9.33694 2.53705 9.83294 3.04105 10.5199C3.72605 11.4549 3.74005 11.4839 3.74005 11.9999C3.74005 12.5149 3.72705 12.5429 3.04305 13.4799C2.24405 14.5739 2.06705 15.0069 2.06305 15.8799C2.06005 16.5789 2.20005 17.0639 2.56705 17.6279C3.02105 18.3239 3.75005 18.8409 4.52705 19.0169C5.02104 19.1289 5.26505 19.1289 6.26105 19.0219C7.30105 18.9099 7.48005 18.9169 7.80305 19.0819C7.89405 19.1279 8.05005 19.2409 8.15105 19.3329C8.33905 19.5049 8.45505 19.7219 8.96305 20.8579C9.31305 21.6389 9.66205 22.0809 10.227 22.4529C11.424 23.2419 12.902 23.1679 14.049 22.2619C14.513 21.8949 14.801 21.4259 15.402 20.0599C15.659 19.4769 15.913 19.1879 16.298 19.0439C16.602 18.9299 16.831 18.9299 17.88 19.0409C18.625 19.1209 18.789 19.1269 19.105 19.0869C21.04 18.8449 22.307 17.0199 21.855 15.1259C21.754 14.6989 21.474 14.1879 20.957 13.4799C20.28 12.5539 20.26 12.5129 20.26 12.0199C20.26 11.5269 20.313 11.4069 20.846 10.6799C21.775 9.41494 21.931 9.04894 21.936 8.11994C21.939 7.59094 21.893 7.34194 21.704 6.87394C21.388 6.09294 20.705 5.43194 19.88 5.10894C19.304 4.88394 18.833 4.86094 17.6 4.99894C17.169 5.04694 16.739 5.07394 16.64 5.06094C16.357 5.02194 15.988 4.82194 15.788 4.60094C15.671 4.47094 15.54 4.24494 15.4 3.93194C14.768 2.51594 14.545 2.14894 14.1 1.78894C13.667 1.43794 13.219 1.20794 12.752 1.09594C12.452 1.02494 11.842 0.995943 11.536 1.03894ZM12.346 3.05994C12.598 3.13394 12.848 3.31294 12.98 3.51294C13.036 3.59694 13.243 4.02294 13.44 4.45994C13.87 5.41094 13.982 5.60494 14.316 5.96694C14.904 6.60494 15.691 6.98494 16.583 7.05994C16.803 7.07894 17.144 7.05994 17.7 6.99894C18.704 6.88894 18.963 6.88894 19.209 6.99494C19.47 7.10794 19.733 7.36294 19.844 7.61094C19.957 7.86394 19.97 8.33394 19.869 8.56094C19.835 8.63794 19.571 9.02494 19.282 9.42094C18.461 10.5469 18.236 11.1019 18.237 11.9969C18.237 12.4909 18.305 12.8679 18.463 13.2639C18.614 13.6409 18.719 13.8099 19.282 14.5819C19.869 15.3889 19.935 15.5219 19.935 15.8999C19.935 16.4919 19.553 16.9559 18.961 17.0829C18.801 17.1179 18.6 17.1089 17.97 17.0399C16.523 16.8819 16.051 16.9319 15.27 17.3249C14.938 17.4919 14.705 17.6539 14.445 17.8979C14.037 18.2819 13.855 18.5949 13.237 19.9799C13.076 20.3399 12.976 20.5059 12.839 20.6439C12.423 21.0609 11.77 21.1099 11.287 20.7609C11.061 20.5969 10.969 20.4459 10.618 19.6589C10.088 18.4729 9.97005 18.2819 9.49005 17.8369C8.95805 17.3449 8.26305 17.0339 7.52405 16.9589C7.19905 16.9249 6.99105 16.9339 6.19505 17.0179C5.67705 17.0719 5.18205 17.1059 5.09605 17.0929C4.69405 17.0319 4.31704 16.7419 4.14804 16.3649C4.04104 16.1249 4.03404 15.7279 4.13205 15.4739C4.17204 15.3709 4.43705 14.9659 4.72305 14.5739C5.56105 13.4209 5.76604 12.9159 5.76604 11.9999C5.76604 11.0839 5.56105 10.5789 4.72305 9.42594C4.43705 9.03394 4.17204 8.62894 4.13205 8.52594C3.91205 7.95594 4.18705 7.28294 4.74905 7.01694C5.03005 6.88494 5.23105 6.88194 6.30005 6.99894C7.18105 7.09594 7.52205 7.08694 8.03705 6.95594C8.95404 6.72194 9.78204 6.06894 10.197 5.25294C10.262 5.12494 10.451 4.71494 10.618 4.34094C10.961 3.57394 11.056 3.41294 11.262 3.25594C11.568 3.02194 11.974 2.94894 12.346 3.05994ZM11.358 8.06094C10.23 8.23694 9.14305 8.97394 8.56905 9.95294C7.32005 12.0829 8.23304 14.7849 10.512 15.7039C12.558 16.5279 14.877 15.5379 15.704 13.4879C16.09 12.5299 16.09 11.4689 15.705 10.5159C15.172 9.19694 14.001 8.26894 12.605 8.05794C12.144 7.98894 11.816 7.98994 11.358 8.06094ZM12.523 10.0729C13.262 10.2659 13.85 10.9239 13.967 11.6899C14.067 12.3429 13.873 12.9329 13.403 13.4039C13.002 13.8069 12.547 13.9999 12 13.9999C11.485 13.9999 11.038 13.8219 10.653 13.4649C9.32304 12.2289 10.189 10.0049 12 10.0049C12.143 10.0049 12.378 10.0359 12.523 10.0729Z" fill="#FF0000"/>
</svg>
