<svg width="24" height="24" viewBox="0 0 24 24" fill="none" xmlns="http://www.w3.org/2000/svg">
<path fill-rule="evenodd" clip-rule="evenodd" d="M7.93996 1.04016C7.33996 1.15016 6.86096 1.41316 6.37796 1.89716C5.96396 2.31316 5.73196 2.70916 5.59696 3.22916C5.49396 3.62316 5.48496 4.30116 5.57596 4.69216C5.61096 4.84216 5.63996 4.97116 5.63996 4.97916C5.63996 4.98716 4.96096 5.00016 4.12996 5.00816C2.68196 5.02216 2.60996 5.02716 2.36496 5.11416C1.67096 5.36016 1.20896 5.88017 1.06096 6.58116C0.97496 6.98617 0.97496 10.0142 1.06096 10.4192C1.14696 10.8272 1.29796 11.1042 1.59696 11.4032C1.91296 11.7192 2.19396 11.8642 2.65696 11.9522L2.99696 12.0162L3.00996 16.2182C3.02296 20.4172 3.02296 20.4202 3.11196 20.7562C3.28696 21.4142 3.64496 21.9692 4.14196 22.3502C4.49496 22.6212 4.81596 22.7752 5.26496 22.8892L5.61996 22.9802H11.98C18.038 22.9802 18.355 22.9762 18.66 22.9062C19.269 22.7642 19.711 22.5262 20.118 22.1182C20.509 21.7272 20.736 21.3232 20.891 20.7402C20.975 20.4252 20.977 20.3572 20.99 16.2182L21.003 12.0162L21.344 11.9522C21.798 11.8662 22.085 11.7162 22.401 11.4012C22.699 11.1022 22.855 10.8182 22.94 10.4192C23.025 10.0142 23.025 6.98617 22.939 6.58116C22.791 5.88017 22.329 5.36016 21.635 5.11416C21.39 5.02716 21.318 5.02216 19.87 5.00816C19.04 5.00016 18.36 4.98716 18.36 4.97916C18.36 4.97116 18.389 4.84216 18.424 4.69216C18.515 4.30116 18.506 3.62316 18.403 3.22916C18.268 2.70916 18.036 2.31316 17.622 1.89716C17.221 1.49516 16.899 1.29116 16.407 1.12816C16.137 1.03816 16.033 1.02616 15.54 1.02516C14.726 1.02516 14.186 1.18216 13.528 1.60916C13.14 1.86116 12.527 2.47916 12.24 2.90916C12.119 3.08916 12.011 3.23716 12 3.23716C11.989 3.23716 11.881 3.09016 11.76 2.91016C11.491 2.51016 10.869 1.87116 10.525 1.64116C10.185 1.41316 9.74396 1.21316 9.36796 1.11616C9.01496 1.02516 8.24596 0.984165 7.93996 1.04016ZM9.03396 3.11416C9.57196 3.31916 10.054 3.83616 10.465 4.65216L10.643 5.00416L9.41096 4.99216C8.05396 4.97916 8.06696 4.98116 7.79796 4.71216C7.60596 4.52016 7.52196 4.30316 7.52196 4.00016C7.52196 3.56016 7.75996 3.20016 8.14596 3.05616C8.33996 2.98416 8.76396 3.01216 9.03396 3.11416ZM15.944 3.09216C16.282 3.26916 16.478 3.60216 16.478 4.00016C16.478 4.30316 16.394 4.52016 16.202 4.71216C15.933 4.98116 15.946 4.97916 14.589 4.99216L13.357 5.00416L13.535 4.65216C14.009 3.71016 14.565 3.17716 15.216 3.03916C15.439 2.99216 15.802 3.01816 15.944 3.09216ZM11 8.50016V10.0002H6.99996H2.99996V8.50016V7.00016H6.99996H11V8.50016ZM21 8.50016V10.0002H17H13V8.50016V7.00016H17H21V8.50016ZM11 16.5022V21.0042L8.36996 20.9922L5.73996 20.9802L5.54996 20.8862C5.33496 20.7812 5.14096 20.5672 5.07096 20.3602C5.03596 20.2572 5.01996 19.1432 5.00996 16.1102L4.99596 12.0002H7.99796H11V16.5022ZM18.99 16.1102C18.98 19.1432 18.964 20.2572 18.929 20.3602C18.859 20.5672 18.665 20.7812 18.45 20.8862L18.26 20.9802L15.63 20.9922L13 21.0042V16.5022V12.0002H16.002H19.004L18.99 16.1102Z" fill="#FF0000"/>
</svg>
