<svg width="24" height="24" viewBox="0 0 24 24" fill="none" xmlns="http://www.w3.org/2000/svg">
<path fill-rule="evenodd" clip-rule="evenodd" d="M5.6139 2.057C5.3769 2.131 5.2119 2.261 5.1089 2.453L5.0199 2.62L4.9999 8.373L4.9799 14.126L4.7199 14.217C3.8239 14.531 3.0239 15.177 2.5689 15.953C1.3199 18.083 2.2329 20.785 4.5119 21.704C5.4709 22.09 6.5289 22.09 7.4879 21.704C8.5019 21.295 9.3049 20.495 9.6999 19.5C9.7609 19.346 9.8269 19.164 9.8459 19.095C9.8799 18.972 9.8849 18.97 10.2499 18.923C12.0349 18.696 13.7269 17.986 15.1999 16.847C15.6369 16.509 16.5089 15.637 16.8469 15.2C17.9859 13.727 18.6959 12.035 18.9229 10.25C18.9699 9.885 18.9719 9.88 19.0949 9.846C20.0309 9.585 20.9199 8.901 21.4359 8.044C21.9229 7.238 22.1079 6.163 21.9209 5.243C21.6279 3.806 20.6369 2.68 19.2449 2.204C18.9509 2.103 18.3219 2 17.9999 2C16.6349 2 15.2529 2.787 14.5689 3.953C13.6959 5.441 13.8479 7.269 14.9539 8.584C15.3789 9.088 15.9089 9.464 16.5589 9.722C16.7689 9.805 16.9379 9.884 16.9349 9.897C16.9329 9.91 16.9189 10.038 16.9039 10.182C16.8399 10.808 16.5079 11.861 16.1499 12.578C15.6669 13.545 14.8639 14.547 14.0409 15.211C12.9119 16.122 11.4829 16.738 10.0299 16.939C9.8789 16.959 9.8399 16.953 9.8399 16.907C9.8399 16.807 9.5749 16.189 9.4209 15.932C8.9649 15.168 8.1649 14.527 7.2799 14.217L7.0199 14.126L6.9999 8.373L6.9799 2.62L6.8909 2.453C6.8419 2.362 6.7459 2.247 6.6779 2.199C6.4139 2.01 5.9569 1.95 5.6139 2.057ZM18.5229 4.073C19.2619 4.266 19.8499 4.924 19.9669 5.69C20.0289 6.098 19.9669 6.522 19.7929 6.88C19.6379 7.198 19.2269 7.625 18.9299 7.775C18.4919 7.997 17.9619 8.059 17.5079 7.94C16.8229 7.762 16.2489 7.194 16.0729 6.523C15.6829 5.028 17.0279 3.683 18.5229 4.073ZM6.5229 16.073C7.2619 16.266 7.8499 16.924 7.9669 17.69C8.0669 18.343 7.8729 18.933 7.4029 19.404C7.0019 19.807 6.5469 20 5.9999 20C5.4849 20 5.0379 19.822 4.6529 19.465C3.3229 18.229 4.1889 16.005 5.9999 16.005C6.1429 16.005 6.3779 16.036 6.5229 16.073Z" fill="#FF0000"/>
</svg>
