<svg width="24" height="24" viewBox="0 0 24 24" fill="none" xmlns="http://www.w3.org/2000/svg">
<path fill-rule="evenodd" clip-rule="evenodd" d="M11.4 7.04411C9.76105 7.22911 8.26105 8.29011 7.52605 9.78511C7.35905 10.1241 7.18305 10.6081 7.13905 10.8501L7.11105 11.0001H4.46205C1.63305 11.0001 1.59805 11.0021 1.32205 11.1991C1.10205 11.3551 1.02205 11.5671 1.02105 12.0001C1.02005 12.3321 1.03305 12.4021 1.12005 12.5581C1.23005 12.7551 1.41405 12.8981 1.63505 12.9591C1.72605 12.9841 2.78305 13.0001 4.44605 13.0001H7.11105L7.13905 13.1501C7.18305 13.3921 7.35905 13.8761 7.52605 14.2151C8.20305 15.5921 9.48605 16.5741 11.04 16.9071C11.511 17.0081 12.489 17.0081 12.96 16.9071C14.207 16.6401 15.295 15.9461 16.034 14.9481C16.382 14.4761 16.775 13.6241 16.861 13.1501L16.889 13.0001H19.554C21.217 13.0001 22.274 12.9841 22.365 12.9591C22.586 12.8981 22.77 12.7551 22.88 12.5581C22.967 12.4021 22.98 12.3321 22.979 12.0001C22.978 11.5671 22.898 11.3551 22.678 11.1991C22.402 11.0021 22.367 11.0001 19.54 11.0001H16.893L16.842 10.7731C16.66 9.96111 16.116 9.03111 15.452 8.39611C14.365 7.35811 12.912 6.87411 11.4 7.04411ZM12.861 9.12911C13.804 9.40511 14.584 10.1831 14.875 11.1391C14.958 11.4121 14.973 11.5421 14.973 12.0001C14.973 12.4581 14.958 12.5881 14.875 12.8611C14.582 13.8221 13.819 14.5811 12.84 14.8861C12.406 15.0211 11.594 15.0211 11.16 14.8861C10.181 14.5811 9.41805 13.8221 9.12505 12.8611C9.04205 12.5881 9.02705 12.4581 9.02705 12.0001C9.02705 11.5421 9.04205 11.4121 9.12505 11.1391C9.45605 10.0541 10.371 9.24511 11.499 9.04011C11.832 8.98011 12.5 9.02311 12.861 9.12911Z" fill="#FF0000"/>
</svg>
