<svg width="24" height="24" viewBox="0 0 24 24" fill="none" xmlns="http://www.w3.org/2000/svg">
<path d="M1.42332 10.978C0.858894 11.5424 0.858895 12.4576 1.42332 13.022L10.978 22.5767C11.5424 23.1411 12.4576 23.1411 13.022 22.5767L22.5767 13.022C23.1411 12.4576 23.1411 11.5424 22.5767 10.978L13.022 1.42332C12.4576 0.858894 11.5424 0.858895 10.978 1.42332L8.89331 3.50803L11.1621 5.77686C11.3961 5.66492 11.658 5.60223 11.9347 5.60223C12.9242 5.60223 13.7265 6.40445 13.7265 7.39403C13.7265 7.67066 13.6638 7.93264 13.5518 8.16655L15.9627 10.5774C16.6287 10.2592 17.4506 10.376 18.0022 10.9276C18.702 11.6274 18.702 12.7619 18.0022 13.4616C17.3025 14.1613 16.168 14.1613 15.4682 13.4616C14.9166 12.9099 14.7998 12.0881 15.118 11.422L12.7072 9.01121C12.6504 9.0384 12.5919 9.06269 12.5319 9.08388V14.8623C13.2279 15.1083 13.7265 15.772 13.7265 16.5521C13.7265 17.5417 12.9242 18.3439 11.9347 18.3439C10.9451 18.3439 10.1429 17.5417 10.1429 16.5521C10.1429 15.772 10.6415 15.1083 11.3374 14.8623V9.08388C10.6415 8.8379 10.1429 8.1742 10.1429 7.39403C10.1429 7.11741 10.2055 6.85543 10.3175 6.62152L8.04865 4.35269L1.42332 10.978Z" fill="#050505"/>
<path d="M1.42332 10.978C0.858894 11.5424 0.858895 12.4576 1.42332 13.022L10.978 22.5767C11.5424 23.1411 12.4576 23.1411 13.022 22.5767L22.5767 13.022C23.1411 12.4576 23.1411 11.5424 22.5767 10.978L13.022 1.42332C12.4576 0.858894 11.5424 0.858895 10.978 1.42332L8.89331 3.50803L11.1621 5.77686C11.3961 5.66492 11.658 5.60223 11.9347 5.60223C12.9242 5.60223 13.7265 6.40445 13.7265 7.39403C13.7265 7.67066 13.6638 7.93264 13.5518 8.16655L15.9627 10.5774C16.6287 10.2592 17.4506 10.376 18.0022 10.9276C18.702 11.6274 18.702 12.7619 18.0022 13.4616C17.3025 14.1613 16.168 14.1613 15.4682 13.4616C14.9166 12.9099 14.7998 12.0881 15.118 11.422L12.7072 9.01121C12.6504 9.0384 12.5919 9.06269 12.5319 9.08388V14.8623C13.2279 15.1083 13.7265 15.772 13.7265 16.5521C13.7265 17.5417 12.9242 18.3439 11.9347 18.3439C10.9451 18.3439 10.1429 17.5417 10.1429 16.5521C10.1429 15.772 10.6415 15.1083 11.3374 14.8623V9.08388C10.6415 8.8379 10.1429 8.1742 10.1429 7.39403C10.1429 7.11741 10.2055 6.85543 10.3175 6.62152L8.04865 4.35269L1.42332 10.978Z" fill="white"/>
</svg>
