<svg width="64" height="48" viewBox="0 0 64 48" fill="none" xmlns="http://www.w3.org/2000/svg">
<path d="M28.8 39.4C29.8 39.4 30.7 40.2 30.7 41.3C30.7 42.3 29.9 43.2 28.8 43.2C27.8 43.2 26.9 42.4 26.9 41.3C26.9 40.2 27.8 39.4 28.8 39.4ZM58.2 27.8C57.2 27.8 56.3 27 56.3 25.9C56.3 24.9 57.1 24 58.2 24C59.2 24 60.1 24.8 60.1 25.9C60.1 26.9 59.2 27.8 58.2 27.8ZM58.2 20.1C55 20.1 52.4 22.7 52.4 25.9C52.4 26.5 52.5 27.1 52.7 27.7L33.6 37.9C32.5 36.3 30.7 35.4 28.8 35.4C26.6 35.4 24.6 36.7 23.6 38.6L6.40001 29.6C4.60001 28.6 3.20001 25.7 3.40001 22.9C3.50001 21.5 4.00001 20.4 4.70001 20C5.20001 19.7 5.70001 19.8 6.40001 20.1L6.50001 20.2C11.1 22.6 26 30.4 26.6 30.7C27.6 31.1 28.1 31.3 29.8 30.5L60.6 14.5C61.1 14.3 61.6 13.9 61.6 13.2C61.6 12.3 60.7 11.9 60.7 11.9C58.9 11.1 56.2 9.8 53.6 8.6C48 6 41.6 3 38.8 1.5C36.4 0.200001 34.4 1.3 34.1 1.5L33.4 1.8C20.7 8.2 3.90001 16.5 2.90001 17.1C1.20001 18.1 0.100008 20.2 7.8138e-06 22.8C-0.199992 26.9 1.90001 31.2 4.90001 32.7L23.1 42.1C23.5 44.9 26 47.1 28.8 47.1C32 47.1 34.5 44.6 34.6 41.4L54.6 30.6C55.6 31.4 56.9 31.8 58.2 31.8C61.4 31.8 64 29.2 64 26C64 22.7 61.4 20.1 58.2 20.1Z" fill="white"/>
</svg>
