<svg width="13" height="14" viewBox="0 0 13 14" fill="none" xmlns="http://www.w3.org/2000/svg">
<path fill-rule="evenodd" clip-rule="evenodd" d="M2.50001 0C1.11929 0 0 1.11929 0 2.50001C0 3.52517 0.617049 4.40621 1.50001 4.79199V9.20807C0.617049 9.59385 0 10.4749 0 11.5001C0 12.8807 1.11929 14 2.50001 14C3.77361 14 4.82477 13.0477 4.9802 11.8163C6.32187 11.631 7.5757 11.0131 8.54434 10.0445C9.58553 9.00333 10.2214 7.6326 10.3505 6.17748C11.4412 5.90854 12.2499 4.92376 12.2499 3.75008C12.2499 2.36937 11.1306 1.25007 9.74988 1.25007C8.36919 1.25007 7.2499 2.36937 7.2499 3.75008C7.2499 4.90453 8.03239 5.87621 9.09591 6.16369C8.9737 7.29172 8.4703 8.35077 7.66045 9.16062C6.88905 9.93202 5.89154 10.4254 4.82371 10.5761C4.51592 9.80267 3.8332 9.21918 3.00001 9.05005V4.95C4.14113 4.71837 5.00001 3.70949 5.00001 2.50001C5.00001 1.11929 3.88072 0 2.50001 0ZM1.25 2.50001C1.25 1.80965 1.80965 1.25 2.50001 1.25C3.19036 1.25 3.75001 1.80965 3.75001 2.50001C3.75001 3.19036 3.19036 3.75001 2.50001 3.75001C1.80965 3.75001 1.25 3.19036 1.25 2.50001ZM9.74988 2.50008C9.05958 2.50008 8.49991 3.05972 8.49991 3.75008C8.49991 4.43977 9.05849 4.99899 9.74787 5.00008L9.74989 5.00007L9.75259 5.00008C10.4418 4.99862 11 4.43954 11 3.75008C11 3.05972 10.4403 2.50008 9.74988 2.50008ZM2.50001 10.25C1.80965 10.25 1.25 10.8097 1.25 11.5001C1.25 12.1904 1.80965 12.7501 2.50001 12.7501C3.19036 12.7501 3.75001 12.1904 3.75001 11.5001C3.75001 10.8097 3.19036 10.25 2.50001 10.25Z" fill="black"/>
<path fill-rule="evenodd" clip-rule="evenodd" d="M2.50001 0C1.11929 0 0 1.11929 0 2.50001C0 3.52517 0.617049 4.40621 1.50001 4.79199V9.20807C0.617049 9.59385 0 10.4749 0 11.5001C0 12.8807 1.11929 14 2.50001 14C3.77361 14 4.82477 13.0477 4.9802 11.8163C6.32187 11.631 7.5757 11.0131 8.54434 10.0445C9.58553 9.00333 10.2214 7.6326 10.3505 6.17748C11.4412 5.90854 12.2499 4.92376 12.2499 3.75008C12.2499 2.36937 11.1306 1.25007 9.74988 1.25007C8.36919 1.25007 7.2499 2.36937 7.2499 3.75008C7.2499 4.90453 8.03239 5.87621 9.09591 6.16369C8.9737 7.29172 8.4703 8.35077 7.66045 9.16062C6.88905 9.93202 5.89154 10.4254 4.82371 10.5761C4.51592 9.80267 3.8332 9.21918 3.00001 9.05005V4.95C4.14113 4.71837 5.00001 3.70949 5.00001 2.50001C5.00001 1.11929 3.88072 0 2.50001 0ZM1.25 2.50001C1.25 1.80965 1.80965 1.25 2.50001 1.25C3.19036 1.25 3.75001 1.80965 3.75001 2.50001C3.75001 3.19036 3.19036 3.75001 2.50001 3.75001C1.80965 3.75001 1.25 3.19036 1.25 2.50001ZM9.74988 2.50008C9.05958 2.50008 8.49991 3.05972 8.49991 3.75008C8.49991 4.43977 9.05849 4.99899 9.74787 5.00008L9.74989 5.00007L9.75259 5.00008C10.4418 4.99862 11 4.43954 11 3.75008C11 3.05972 10.4403 2.50008 9.74988 2.50008ZM2.50001 10.25C1.80965 10.25 1.25 10.8097 1.25 11.5001C1.25 12.1904 1.80965 12.7501 2.50001 12.7501C3.19036 12.7501 3.75001 12.1904 3.75001 11.5001C3.75001 10.8097 3.19036 10.25 2.50001 10.25Z" fill="white" fill-opacity="0.6"/>
</svg>
