<svg width="24" height="24" viewBox="0 0 24 24" fill="none" xmlns="http://www.w3.org/2000/svg">
<path fill-rule="evenodd" clip-rule="evenodd" d="M11.48 1.00394C11.315 1.02194 10.982 1.05694 10.74 1.08194C8.85103 1.27594 6.99803 2.01694 5.36003 3.23494C4.75103 3.68794 3.68403 4.75494 3.22603 5.36694C0.728033 8.71394 0.301033 13.0319 2.09703 16.7799C2.64203 17.9179 3.27603 18.7999 4.23803 19.7629C6.16603 21.6929 8.38203 22.7079 11.26 22.9829C12.08 23.0609 11.92 23.0609 12.74 22.9829C15.057 22.7619 16.889 22.0749 18.637 20.7699C19.246 20.3159 20.316 19.2459 20.77 18.6369C23.744 14.6519 23.744 9.34794 20.77 5.36294C20.316 4.75494 19.247 3.68594 18.64 3.23494C17.009 2.02194 15.154 1.27794 13.28 1.08394C13.049 1.06094 12.686 1.02294 12.473 0.999941C12.041 0.954941 11.912 0.955941 11.48 1.00394ZM9.68003 3.34294C9.68003 3.35494 9.62903 3.44094 9.56603 3.53294C9.35303 3.84594 9.00303 4.46794 8.72103 5.03194C7.88303 6.71394 7.32103 8.57694 7.12003 10.3399C7.09503 10.5599 7.06603 10.7979 7.05503 10.8699L7.03603 10.9999H5.05203H3.06903L3.09403 10.7609C3.20803 9.66494 3.77303 8.13694 4.44003 7.11994C5.55903 5.41494 7.21703 4.12094 9.10003 3.48294C9.57103 3.32394 9.68003 3.29694 9.68003 3.34294ZM14.897 3.48294C16.778 4.11694 18.44 5.41394 19.56 7.11994C20.227 8.13694 20.792 9.66494 20.906 10.7609L20.931 10.9999H18.948H16.964L16.946 10.8699C16.936 10.7979 16.889 10.4509 16.842 10.0969C16.664 8.76194 16.343 7.54494 15.835 6.27194C15.472 5.36394 14.848 4.14394 14.433 3.53294C14.371 3.44094 14.32 3.35494 14.32 3.34294C14.32 3.29794 14.422 3.32194 14.897 3.48294ZM12.268 3.91294C13.067 4.99094 13.86 6.55094 14.305 7.91994C14.579 8.76094 14.836 9.95494 14.903 10.6909L14.931 10.9999H12H9.06903L9.09703 10.6909C9.25603 8.93494 9.99403 6.72794 10.981 5.05994C11.38 4.38494 11.96 3.55494 12.01 3.58594C12.027 3.59694 12.143 3.74294 12.268 3.91294ZM7.05503 13.1299C7.06603 13.2019 7.09503 13.4399 7.12003 13.6599C7.38703 16.0079 8.32603 18.5879 9.64103 20.5869L9.72503 20.7149L9.39203 20.6139C7.35803 19.9929 5.62503 18.6859 4.44003 16.8799C3.77303 15.8629 3.20803 14.3349 3.09403 13.2389L3.06903 12.9999H5.05203H7.03603L7.05503 13.1299ZM14.903 13.3089C14.811 14.3239 14.454 15.7699 14.021 16.8799C13.568 18.0389 12.626 19.7119 12.066 20.3489L11.988 20.4379L11.753 20.1169C10.889 18.9379 10.153 17.4939 9.69403 16.0799C9.42103 15.2349 9.16403 14.0429 9.09703 13.3089L9.06903 12.9999H12H14.931L14.903 13.3089ZM20.906 13.2389C20.825 14.0169 20.498 15.0869 20.082 15.9399C18.982 18.1939 16.995 19.8899 14.607 20.6139L14.274 20.7149L14.346 20.6079C14.583 20.2519 15.008 19.5029 15.278 18.9639C16.089 17.3429 16.611 15.6509 16.842 13.8999C16.888 13.5479 16.935 13.2019 16.945 13.1299L16.964 12.9999H18.948H20.931L20.906 13.2389Z" fill="#FF0000"/>
</svg>
