<svg width="24" height="24" viewBox="0 0 24 24" fill="none" xmlns="http://www.w3.org/2000/svg">
<path fill-rule="evenodd" clip-rule="evenodd" d="M11.2801 1.02299C11.2031 1.03199 10.9511 1.05899 10.7201 1.08299C8.83211 1.28299 6.99111 2.02299 5.36011 3.23499C4.75111 3.68799 3.68411 4.75499 3.22611 5.36699C2.08111 6.90299 1.38711 8.57099 1.10111 10.48C1.01111 11.082 0.980106 12.233 1.03611 12.895C1.21211 14.982 1.95611 16.93 3.22611 18.633C3.70111 19.269 4.75311 20.316 5.40011 20.797C9.36411 23.745 14.6661 23.734 18.6371 20.77C19.2461 20.316 20.3161 19.246 20.7701 18.637C23.7441 14.652 23.7441 9.34799 20.7701 5.36299C20.3161 4.75499 19.2471 3.68599 18.6401 3.23499C17.0451 2.04899 15.3651 1.35999 13.4231 1.09599C13.0001 1.03799 11.5741 0.989989 11.2801 1.02299ZM12.7781 3.04199C13.0191 3.06399 13.2251 3.09099 13.2341 3.10099C13.2511 3.11799 13.0471 6.33099 13.0281 6.34099C13.0241 6.34399 12.1201 6.74599 11.0201 7.23499C9.92011 7.72399 8.95911 8.17299 8.88411 8.23199C8.8081 8.29199 8.53411 8.62299 8.27311 8.96999C8.0121 9.31699 7.78811 9.59999 7.77711 9.59999C7.74811 9.59999 4.56011 7.32799 4.46911 7.24299C4.40211 7.17999 4.40911 7.16199 4.59911 6.88499C6.41911 4.24299 9.61411 2.74199 12.7781 3.04199ZM15.9401 3.91999C17.7501 4.79599 19.2011 6.24599 20.0801 8.05999C20.7201 9.37899 20.9771 10.507 20.9771 12C20.9771 13.493 20.7201 14.621 20.0801 15.94C19.3751 17.394 18.3111 18.607 16.9271 19.532C16.1381 20.06 14.8761 20.588 13.9081 20.797C11.2661 21.366 8.4791 20.708 6.37011 19.019C4.85711 17.807 3.72211 16.029 3.26711 14.16C3.08311 13.408 3.02411 12.886 3.02311 12.02C3.02211 11.211 3.05911 10.813 3.20311 10.12C3.27411 9.77499 3.46711 9.08199 3.50211 9.04499C3.51011 9.03699 4.30511 9.59299 5.26811 10.281C6.23211 10.969 7.13711 11.587 7.28011 11.655C7.74711 11.876 8.28911 11.84 8.70111 11.558C8.92711 11.404 9.11011 11.194 9.65911 10.457L10.1391 9.81299L11.8391 9.05899C12.7751 8.64499 13.7241 8.21999 13.9481 8.11599C14.6151 7.80699 14.9111 7.45199 14.9981 6.85499C15.0201 6.70399 15.0741 6.00399 15.1191 5.29999C15.2251 3.62199 15.2281 3.59899 15.3131 3.62699C15.3501 3.63899 15.6321 3.77099 15.9401 3.91999ZM11.8351 12.173C11.5641 12.249 11.2541 12.465 11.0811 12.696C10.8861 12.956 10.1871 14.353 10.0981 14.661C9.9861 15.047 10.0261 15.248 10.4991 16.672C10.7351 17.382 10.9811 18.07 11.0471 18.201C11.1911 18.49 11.4931 18.766 11.8001 18.891C12.0141 18.978 12.0591 18.98 13.5601 18.98H15.1001L15.3251 18.874C15.4491 18.816 15.6271 18.699 15.7211 18.614C15.9171 18.437 17.4331 16.191 17.6051 15.821C17.7551 15.499 17.7871 15.206 17.7051 14.886C17.5831 14.41 17.3351 14.11 16.8711 13.875C16.3051 13.589 13.7221 12.511 13.1911 12.339C12.5521 12.132 12.1531 12.083 11.8351 12.173ZM12.8821 14.354C13.2361 14.474 15.3961 15.386 15.4531 15.439C15.4721 15.457 15.2571 15.815 14.9771 16.235L14.4671 17H13.5971H12.7271L12.4051 16.037L12.0841 15.073L12.2911 14.657C12.4051 14.427 12.5091 14.24 12.5221 14.24C12.5341 14.24 12.6971 14.291 12.8821 14.354Z" fill="#FF0000"/>
</svg>
