<svg width="24" height="24" viewBox="0 0 45 45" fill="none" xmlns="http://www.w3.org/2000/svg">
<g clip-path="url(#clip0_goose)">
<path d="M43.2098 39.2492L39.8118 36.4522C37.9646 34.9318 36.3923 33.1051 35.1631 31.0529C33.4647 28.2172 31.1178 25.8243 28.3164 24.071L26.9482 23.2744C26.4794 22.9485 26.1525 22.4405 26.106 21.8675C26.0762 21.4981 26.1647 21.1678 26.3712 20.8771C27.0837 19.873 30.9617 15.6995 31.6365 15.1411C32.5056 14.4228 33.4739 13.8253 34.3724 13.1412C34.5001 13.0438 34.6283 12.9469 34.7545 12.8481C34.7589 12.8437 34.7653 12.8403 34.7692 12.8363C35.0574 12.6088 35.3295 12.3671 35.5458 12.0803C36.5993 10.8604 36.5783 9.82938 36.5783 9.82938C36.5783 9.82938 36.5793 9.8284 36.5798 9.82791C36.4677 9.5534 36.0645 8.69902 35.2449 8.29825C35.9696 8.28406 36.7872 8.55564 37.1582 8.91873C37.6039 8.21947 37.8922 7.76585 38.3404 7.00347C38.4471 6.82241 38.5038 6.48771 38.2998 6.30029C38.2998 6.30029 38.2988 6.30029 38.2978 6.30029C38.2978 6.30029 38.2978 6.29931 38.2978 6.29833C38.2939 6.29442 38.289 6.29148 38.2851 6.28757C38.2812 6.28365 38.2787 6.27925 38.2743 6.27485C38.2743 6.27485 38.2734 6.27485 38.2724 6.27485C38.2724 6.27485 38.2724 6.27387 38.2724 6.27289C38.2641 6.26457 38.2548 6.25821 38.246 6.25038C38.2406 6.245 38.2362 6.23864 38.2313 6.23276C38.2254 6.22787 38.219 6.22347 38.2137 6.21808C38.2053 6.20977 38.2 6.19949 38.1911 6.19166C38.1911 6.19166 38.1897 6.19117 38.1892 6.19166C38.1892 6.19166 38.1892 6.19068 38.1892 6.1897C38.1853 6.18579 38.1804 6.18285 38.1765 6.17894C38.1726 6.17502 38.1696 6.17013 38.1657 6.16621C38.1657 6.16621 38.1642 6.16572 38.1637 6.16621C38.1637 6.16621 38.1637 6.16524 38.1637 6.16426C37.9763 5.9602 37.6416 6.01697 37.4606 6.12364C36.4692 6.70693 35.5047 7.33475 34.6351 7.88525C34.6351 7.88525 33.6046 7.86372 32.3842 8.91775C32.097 9.13452 31.8552 9.4066 31.6282 9.69433C31.6238 9.69873 31.6199 9.7046 31.6164 9.70901C31.5171 9.83476 31.4202 9.96297 31.3233 10.0912C30.6387 10.9901 30.0417 11.958 29.3234 12.8271C28.7656 13.5023 24.5915 17.3798 23.5874 18.0923C23.2967 18.2988 22.9669 18.3879 22.597 18.3575C22.0245 18.3115 21.5161 17.9842 21.1902 17.5154L20.3935 16.1472C18.6402 13.3448 16.2474 10.9989 13.4117 9.30041C11.3594 8.0712 9.5332 6.49847 8.01234 4.65172L5.2153 1.25377C5.0773 1.08642 4.81306 1.11382 4.71422 1.30662C4.39615 1.92612 3.78888 3.23411 3.32353 4.99327C3.31227 5.03487 3.32206 5.07891 3.34946 5.11218C3.92786 5.81095 5.26717 7.35089 6.8624 8.65351C6.97348 8.74403 6.88246 8.92313 6.74447 8.88496C5.36846 8.51013 4.03062 7.90825 3.02944 7.39542C2.94772 7.35383 2.84887 7.4057 2.83713 7.49672C2.68152 8.74354 2.64139 10.1127 2.80581 11.5562C2.8107 11.6032 2.84055 11.6438 2.8841 11.6629C4.02572 12.1596 5.85143 12.8804 7.76816 13.3389C7.90713 13.3722 7.90273 13.5723 7.76229 13.5992C6.26982 13.8801 4.70688 13.9427 3.43656 13.9261C3.3475 13.9251 3.28193 14.0093 3.30591 14.0949C3.56085 14.9958 3.90632 15.9118 4.3619 16.8342C4.55029 17.2487 4.75532 17.6553 4.97504 18.0532C5.01271 18.1212 5.08562 18.1618 5.16343 18.1584C6.21207 18.107 7.47946 17.9964 8.75369 17.7713C8.97095 17.7331 9.08741 18.0189 8.90391 18.1417C8.03877 18.7201 7.11588 19.2183 6.25758 19.6283C6.14259 19.6836 6.1054 19.8304 6.18125 19.9327C6.69114 20.6236 7.25191 21.2774 7.86114 21.8866C7.86114 21.8866 10.8608 24.9763 10.9425 25.2185C12.6928 23.4261 15.5701 21.4394 18.7474 19.7047C14.4921 23.1672 12.1198 25.7235 10.9258 27.1758L10.0935 28.3439C9.66091 28.9507 9.2856 29.5951 8.97193 30.2709C7.92231 32.5292 6.19201 37.0966 6.19201 37.0966C6.0594 37.4543 6.16755 37.8072 6.39753 38.0371C6.40292 38.0425 6.4083 38.0479 6.41417 38.0528C6.41955 38.0582 6.42445 38.0641 6.42983 38.0694C6.66031 38.2999 7.01263 38.4076 7.37033 38.275C7.37033 38.275 11.9368 36.5447 14.1961 35.495C14.8719 35.1814 15.5168 34.8056 16.1231 34.3735L17.4095 33.457C18.0907 32.9715 19.0234 33.0489 19.615 33.6405L22.5804 36.6058C23.1896 37.2151 23.8433 37.7758 24.5343 38.2857C24.637 38.3611 24.7833 38.3244 24.8386 38.2094C25.2492 37.3516 25.7473 36.4277 26.3252 35.5631C26.4481 35.3796 26.7343 35.4965 26.6957 35.7133C26.4701 36.988 26.3605 38.2554 26.3086 39.3035C26.3047 39.3809 26.3458 39.4543 26.4138 39.4919C26.8112 39.7121 27.2178 39.9172 27.6327 40.1051C28.5551 40.5606 29.4717 40.9066 30.3721 41.1611C30.4577 41.185 30.5419 41.1195 30.5409 41.0304C30.5237 39.7596 30.5864 38.1967 30.8677 36.7047C30.8942 36.5638 31.0943 36.5593 31.1281 36.6988C31.5861 38.616 32.3069 40.4417 32.8041 41.5829C32.8231 41.6264 32.8633 41.6558 32.9107 41.6612C34.3543 41.8256 35.7234 41.7855 36.9703 41.6298C37.0618 41.6186 37.1136 41.5197 37.0715 41.4375C36.5587 40.4364 35.9568 39.0975 35.582 37.7225C35.5443 37.584 35.7229 37.4935 35.8135 37.6046C37.1161 39.1998 38.656 40.5391 39.3548 41.1175C39.3881 41.1449 39.4326 41.1542 39.4737 41.1434C41.2333 40.6786 42.5413 40.0713 43.1604 39.7528C43.3532 39.6539 43.3806 39.3897 43.2132 39.2517L43.2098 39.2492Z" fill="#FF0000"/>
</g>
<defs>
<clipPath id="clip0_goose">
<rect width="45" height="45" fill="white"/>
</clipPath>
</defs>
</svg>
