<svg width="24" height="24" viewBox="0 0 24 24" fill="none" xmlns="http://www.w3.org/2000/svg">
<path fill-rule="evenodd" clip-rule="evenodd" d="M3.68612 2.03992C2.86912 2.16292 2.23312 2.76492 2.06112 3.58092C1.97312 3.99292 1.97312 9.00692 2.06112 9.41892C2.14712 9.82692 2.29812 10.1039 2.59712 10.4029C2.89612 10.7019 3.17312 10.8529 3.58112 10.9389C3.99312 11.0269 9.00712 11.0269 9.41912 10.9399C9.81812 10.8549 10.1021 10.6989 10.4011 10.4009C10.6991 10.1019 10.8551 9.81792 10.9401 9.41892C11.0271 9.00692 11.0271 3.99292 10.9401 3.58092C10.7921 2.88492 10.3281 2.36292 9.63512 2.11192L9.38012 2.01992L6.64012 2.01392C5.13312 2.01092 3.80412 2.02192 3.68612 2.03992ZM14.6861 2.03992C13.8691 2.16292 13.2331 2.76492 13.0611 3.58092C12.9731 3.99292 12.9731 9.00692 13.0611 9.41892C13.1471 9.82692 13.2981 10.1039 13.5971 10.4029C13.8961 10.7019 14.1731 10.8529 14.5811 10.9389C14.9931 11.0269 20.0071 11.0269 20.4191 10.9399C20.8181 10.8549 21.1021 10.6989 21.4011 10.4009C21.6991 10.1019 21.8551 9.81792 21.9401 9.41892C22.0271 9.00692 22.0271 3.99292 21.9391 3.58092C21.7911 2.88092 21.3321 2.36392 20.6351 2.11192L20.3801 2.01992L17.6401 2.01392C16.1331 2.01092 14.8041 2.02192 14.6861 2.03992ZM9.00012 6.49992V8.99992H6.50012H4.00012V6.49992V3.99992H6.50012H9.00012V6.49992ZM20.0001 6.49992V8.99992H17.5001H15.0001V6.49992V3.99992H17.5001H20.0001V6.49992ZM3.68612 13.0399C2.86912 13.1629 2.23312 13.7649 2.06112 14.5809C1.97312 14.9929 1.97312 20.0069 2.06112 20.4189C2.14712 20.8269 2.29812 21.1039 2.59712 21.4029C2.89612 21.7019 3.17312 21.8529 3.58112 21.9389C3.99312 22.0269 9.00712 22.0269 9.41912 21.9399C9.81712 21.8549 10.1011 21.6999 10.4031 21.4009C10.7021 21.1039 10.8531 20.8289 10.9391 20.4189C11.0271 20.0069 11.0271 14.9929 10.9401 14.5809C10.7921 13.8849 10.3281 13.3629 9.63512 13.1119L9.38012 13.0199L6.64012 13.0139C5.13312 13.0109 3.80412 13.0219 3.68612 13.0399ZM14.6861 13.0399C13.8691 13.1629 13.2331 13.7649 13.0611 14.5809C12.9731 14.9929 12.9731 20.0069 13.0611 20.4189C13.1471 20.8269 13.2981 21.1039 13.5971 21.4029C13.8961 21.7019 14.1731 21.8529 14.5811 21.9389C14.9931 22.0269 20.0071 22.0269 20.4191 21.9399C20.8181 21.8549 21.1021 21.6989 21.4011 21.4009C21.6991 21.1019 21.8551 20.8179 21.9401 20.4189C22.0271 20.0069 22.0271 14.9929 21.9401 14.5809C21.7921 13.8849 21.3281 13.3629 20.6351 13.1119L20.3801 13.0199L17.6401 13.0139C16.1331 13.0109 14.8041 13.0219 14.6861 13.0399ZM9.00012 17.4999V19.9999H6.50012H4.00012V17.4999V14.9999H6.50012H9.00012V17.4999ZM20.0001 17.4999V19.9999H17.5001H15.0001V17.4999V14.9999H17.5001H20.0001V17.4999Z" fill="#FF0000"/>
</svg>
