<svg width="24" height="24" viewBox="0 0 24 24" fill="none" xmlns="http://www.w3.org/2000/svg">
<path fill-rule="evenodd" clip-rule="evenodd" d="M11.4199 1.06289C10.7869 1.18689 10.1009 1.66089 9.71794 2.23789C9.66394 2.31889 9.64394 2.32489 9.56594 2.28289C9.42694 2.20889 8.90194 2.11989 8.59994 2.11989C7.56294 2.11989 6.62294 2.69989 6.16694 3.61989C5.90594 4.14589 5.90894 4.11789 5.89094 6.58289L5.87394 8.82589L5.34694 8.80889C4.70594 8.78789 4.41294 8.84689 3.94494 9.08989C3.70994 9.21089 3.52994 9.34689 3.29594 9.57889C2.92394 9.9479 2.72794 10.2709 2.59194 10.7399C2.50194 11.0529 2.49994 11.0989 2.50294 12.7399C2.50594 14.2519 2.51494 14.4759 2.59294 14.9819C3.25894 19.3109 6.73094 22.5449 11.1599 22.9629C11.7559 23.0199 12.7989 22.9899 13.3999 22.8999C16.1939 22.4799 18.6639 20.8629 20.1289 18.4949C20.7679 17.4609 21.2089 16.2519 21.4089 14.9819C21.4949 14.4349 21.4979 14.3289 21.4989 11.0799C21.4999 7.35989 21.5119 7.53089 21.2219 6.93989C20.8919 6.26489 20.1679 5.68689 19.4399 5.51689C19.1959 5.45889 18.5489 5.44389 18.2959 5.48889L18.1319 5.51889L18.1069 4.92889C18.0789 4.28589 18.0169 3.98989 17.8329 3.61989C17.3769 2.69989 16.4369 2.11989 15.3999 2.11989C15.0979 2.11989 14.5729 2.20889 14.4339 2.28289C14.3559 2.32489 14.3359 2.31889 14.2819 2.23789C13.6579 1.29789 12.5459 0.840894 11.4199 1.06289ZM12.3189 3.08989C12.4159 3.13889 12.5319 3.23089 12.5779 3.29289C12.6589 3.40489 12.6599 3.44789 12.6799 7.29289L12.6999 11.1799L12.8129 11.4099C12.9009 11.5889 12.9679 11.6649 13.1129 11.7499C13.2829 11.8499 13.3359 11.8599 13.6999 11.8599C14.0639 11.8599 14.1169 11.8499 14.2869 11.7499C14.4319 11.6649 14.4989 11.5889 14.5869 11.4099L14.6999 11.1799L14.7199 7.85289C14.7399 4.57089 14.7409 4.52389 14.8219 4.41489C14.9859 4.19689 15.1039 4.13989 15.3959 4.13989C15.6299 4.13989 15.6859 4.15489 15.8129 4.25189C15.8929 4.31289 15.9819 4.40289 16.0089 4.45189C16.0489 4.51989 16.0649 5.28889 16.0799 7.85989L16.0999 11.1799L16.2129 11.4099C16.3009 11.5889 16.3679 11.6649 16.5129 11.7499C16.6829 11.8499 16.7359 11.8599 17.0999 11.8599C17.4639 11.8599 17.5169 11.8499 17.6869 11.7499C17.8319 11.6649 17.8989 11.5889 17.9869 11.4099L18.0999 11.1799L18.1199 9.51789C18.1419 7.66489 18.1309 7.73889 18.4279 7.55489C18.6499 7.41789 18.9719 7.42389 19.1929 7.56989C19.5039 7.77689 19.4849 7.51989 19.4689 11.2909C19.4549 14.5539 19.4519 14.6719 19.3689 15.0519C18.9059 17.1769 17.6299 18.9339 15.7849 19.9879C14.5649 20.6849 13.4419 20.9789 11.9999 20.9789C11.1129 20.9789 10.6309 20.9159 9.87794 20.6989C7.50094 20.0159 5.52594 18.0989 4.82194 15.7919C4.56394 14.9429 4.54994 14.8089 4.53094 12.9599L4.51394 11.2599L4.60794 11.1209C4.75994 10.8959 4.93594 10.7999 5.19994 10.7999C5.45094 10.7999 5.62394 10.8879 5.77594 11.0929C5.85694 11.2019 5.86094 11.2629 5.88294 12.8529C5.89894 13.9889 5.92194 14.5469 5.95594 14.6529C6.02394 14.8619 6.27594 15.1049 6.48794 15.1639C6.70794 15.2249 7.09194 15.2249 7.31194 15.1639C7.52294 15.1049 7.77494 14.8639 7.84594 14.6529C7.88694 14.5329 7.90194 13.4279 7.91894 9.51289C7.93994 4.55489 7.93994 4.52489 8.02194 4.41489C8.18594 4.19689 8.30394 4.13989 8.59594 4.13989C8.82994 4.13989 8.88594 4.15489 9.01294 4.25189C9.09294 4.31289 9.18194 4.40289 9.20894 4.45189C9.24894 4.51989 9.26494 5.28889 9.27994 7.85989L9.29994 11.1799L9.41294 11.4099C9.50094 11.5889 9.56794 11.6649 9.71294 11.7499C9.88294 11.8499 9.93594 11.8599 10.2999 11.8599C10.6639 11.8599 10.7169 11.8499 10.8869 11.7499C11.0319 11.6649 11.0989 11.5889 11.1869 11.4099L11.2999 11.1799L11.3199 7.29289C11.3399 3.44789 11.3409 3.40489 11.4219 3.29289C11.5289 3.14689 11.8179 2.99989 11.9999 2.99989C12.0789 2.99989 12.2219 3.04089 12.3189 3.08989Z" fill="#FF0000"/>
</svg>
