<svg width="24" height="24" viewBox="0 0 24 24" fill="none" xmlns="http://www.w3.org/2000/svg">
<path fill-rule="evenodd" clip-rule="evenodd" d="M9.04 2.06388C8.857 2.14288 8.73 2.26488 8.632 2.45588C8.576 2.56488 8.443 3.26488 8.187 4.80388L7.821 6.99688L5.48 7.00888C2.91 7.02088 2.994 7.01288 2.752 7.26688C2.584 7.44288 2.513 7.65788 2.512 7.99688C2.51 8.34788 2.582 8.55588 2.771 8.75088C3.007 8.99488 3.064 8.99988 5.387 8.99988C6.538 8.99988 7.48 9.00888 7.48 9.02088C7.48 9.05688 6.521 14.8139 6.5 14.9079L6.479 14.9969L4.31 15.0079C1.928 15.0209 1.992 15.0149 1.752 15.2669C1.584 15.4429 1.513 15.6579 1.512 15.9969C1.51 16.3479 1.582 16.5559 1.771 16.7509C2.005 16.9919 2.079 16.9999 4.23 16.9999C6.054 16.9999 6.164 17.0039 6.145 17.0699C6.134 17.1079 5.976 18.0419 5.794 19.1449L5.463 21.1509L5.532 21.3719C5.651 21.7479 5.954 21.9479 6.463 21.9879C6.786 22.0139 6.981 21.9639 7.163 21.8119C7.402 21.6099 7.428 21.5069 7.814 19.1939L8.18 16.9999H11.173C14.004 16.9999 14.164 17.0039 14.145 17.0699C14.134 17.1079 13.976 18.0419 13.794 19.1449L13.463 21.1509L13.532 21.3719C13.651 21.7479 13.954 21.9479 14.463 21.9879C14.786 22.0139 14.981 21.9639 15.163 21.8119C15.402 21.6099 15.428 21.5069 15.814 19.1939L16.18 16.9999H17.943C19.905 16.9999 19.998 16.9899 20.229 16.7509C20.418 16.5559 20.486 16.3549 20.486 15.9969C20.486 15.4909 20.303 15.1959 19.909 15.0639C19.746 15.0099 19.477 14.9999 18.119 14.9999C17.239 14.9999 16.52 14.9909 16.52 14.9789C16.52 14.9429 17.479 9.18488 17.501 9.08988L17.522 8.99988H19.114C20.889 8.99988 21.001 8.98688 21.229 8.75088C21.418 8.55588 21.486 8.35488 21.486 7.99688C21.486 7.49088 21.303 7.19588 20.909 7.06388C20.747 7.00988 20.49 6.99988 19.276 6.99988C17.922 6.99988 17.836 6.99588 17.855 6.92988C17.866 6.89088 18.024 5.95788 18.206 4.85488L18.537 2.84888L18.467 2.62588C18.378 2.34388 18.17 2.15588 17.846 2.06488C17.418 1.94488 17.035 1.99888 16.807 2.21188C16.597 2.40688 16.563 2.55188 16.186 4.80588L15.82 6.99988H12.827C9.996 6.99988 9.836 6.99588 9.855 6.92988C9.866 6.89088 10.024 5.95788 10.206 4.85488L10.537 2.84888L10.467 2.62588C10.416 2.46388 10.354 2.36688 10.237 2.26688C9.957 2.02688 9.358 1.92588 9.04 2.06388ZM15.48 9.02088C15.48 9.05688 14.521 14.8149 14.499 14.9099L14.478 14.9999H11.499C9.861 14.9999 8.52 14.9909 8.52 14.9789C8.52 14.9429 9.479 9.18488 9.501 9.08988L9.522 8.99988H12.501C14.139 8.99988 15.48 9.00888 15.48 9.02088Z" fill="#FF0000"/>
</svg>
