<svg width="24" height="24" viewBox="0 0 16 16" fill="none" xmlns="http://www.w3.org/2000/svg">
<path fill-rule="evenodd" clip-rule="evenodd" transform="translate(0.6624 0.7248)" d="M8.8365 0.0375069C8.33983 0.146174 7.77917 0.48084 7.46917 0.853507C7.19117 1.18684 6.9785 1.65484 6.90983 2.08284C6.86183 2.38084 6.88917 2.80417 6.97517 3.10217C7.0705 3.43017 7.34317 3.97151 7.7825 4.70217C8.63117 6.11417 8.85917 6.42151 9.17583 6.58151C9.49583 6.74351 9.77983 6.77884 10.1052 6.69751C10.4645 6.60817 12.3825 5.57351 13.0305 5.11884C13.7218 4.63417 14.0872 3.98084 14.1278 3.15551C14.1785 2.14217 13.5172 1.13817 12.5785 0.804173C12.2132 0.674173 11.6605 0.648173 11.2658 0.742173L11.0338 0.79684L10.9118 0.68084C10.5525 0.336173 10.1738 0.131507 9.7205 0.0355068C9.4945 -0.0124932 9.0605 -0.0118265 8.8365 0.0375069ZM9.66317 1.41484C9.84917 1.50084 10.0418 1.68751 10.1632 1.90151C10.4218 2.35417 10.7098 2.47217 11.0758 2.27484C11.5305 2.02951 11.5132 2.03551 11.8165 2.03551C12.0778 2.03551 12.1072 2.04084 12.2398 2.11417C12.6245 2.32751 12.8532 2.80617 12.7785 3.24217C12.6792 3.81751 12.3612 4.06684 10.4398 5.07484L9.8085 5.40551L9.76383 5.34684C9.68717 5.24817 9.20783 4.48617 8.9045 3.98217C8.52383 3.34884 8.2765 2.85284 8.23983 2.64884C8.16183 2.20951 8.3485 1.77084 8.71983 1.52351C9.03917 1.31084 9.35917 1.27417 9.66317 1.41484ZM1.12783 7.30151C0.5805 7.38617 0.159167 7.78551 0.0445 8.32951C-0.0148333 8.60684 -0.0148333 13.2775 0.0445 13.5548C0.101833 13.8282 0.2025 14.0115 0.401833 14.2095C0.603167 14.4088 0.7925 14.5122 1.05783 14.5688C1.3225 14.6248 2.68517 14.6248 2.94983 14.5688C3.51183 14.4495 3.88783 14.0368 3.98983 13.4288L4.0065 13.3288H4.54517C4.84117 13.3295 5.18583 13.3408 5.3105 13.3555C5.43517 13.3695 5.98117 13.4902 6.52383 13.6228C7.6165 13.8908 7.89717 13.9415 8.2705 13.9422C8.58317 13.9422 8.75717 13.9142 10.1105 13.6488C11.9225 13.2928 12.0152 13.2455 13.2832 12.0195C13.7165 11.6002 14.1465 11.1755 14.2385 11.0748C14.6998 10.5715 14.7992 9.84884 14.4938 9.22217C14.3718 8.97151 14.0232 8.61351 13.7725 8.48151C13.5352 8.35617 13.2452 8.28884 12.9432 8.28884C12.4558 8.28884 12.2565 8.37684 11.4972 8.92684L10.9505 9.32284L10.9205 9.14551C10.8545 8.76417 10.6825 8.45617 10.3838 8.18151C10.0865 7.90951 9.91383 7.84217 8.84383 7.58217C7.79517 7.32684 7.39783 7.26217 7.01717 7.28484C6.43583 7.31884 5.98383 7.45951 4.65383 8.01817C4.29983 8.16684 3.9985 8.28884 3.9845 8.28884C3.9705 8.28884 3.94383 8.23817 3.92517 8.17551C3.85117 7.92417 3.61917 7.63151 3.3725 7.47951C3.31117 7.44151 3.18517 7.38417 3.0925 7.35151C2.93383 7.29484 2.87583 7.29151 2.09717 7.28551C1.6425 7.28217 1.2065 7.28951 1.12783 7.30151ZM2.66917 10.9422L2.67183 13.2755H2.0045H1.33717V10.9422V8.60884H2.00183H2.6665L2.66917 10.9422ZM7.41783 8.63684C7.63583 8.66351 9.22383 9.03417 9.36717 9.09151C9.40583 9.10684 9.47183 9.15484 9.51383 9.19884C9.5805 9.26884 9.5905 9.30151 9.59983 9.47751C9.61117 9.71151 9.57783 9.81217 9.4605 9.89617C9.38117 9.95284 9.34583 9.95617 8.68383 9.97017C8.05717 9.98351 7.9785 9.99017 7.86783 10.0402C7.7025 10.1148 7.6105 10.2202 7.55983 10.3935C7.47383 10.6875 7.5685 11.0608 7.76117 11.1888C7.92783 11.2995 8.00983 11.3062 9.14583 11.2962C10.6065 11.2835 10.4538 11.3382 11.8178 10.3428C12.2952 9.99417 12.7238 9.69017 12.7698 9.66617C12.9725 9.56084 13.2465 9.65417 13.3112 9.85017C13.3772 10.0515 13.3552 10.0842 12.7292 10.6982C11.5998 11.8062 11.4878 11.8995 11.1032 12.0535C10.8445 12.1568 8.74183 12.5782 8.37183 12.6008C8.0565 12.6202 8.0445 12.6175 6.73717 12.3022C5.5565 12.0168 5.4045 11.9955 4.5745 11.9955H4.00383V10.8655V9.73617L5.0105 9.31484C6.0625 8.87417 6.47783 8.72017 6.7905 8.65284C7.0205 8.60417 7.12917 8.60084 7.41783 8.63684Z" fill="#FF0000"/>
</svg>
