<svg width="24" height="24" viewBox="0 0 24 24" fill="none" xmlns="http://www.w3.org/2000/svg">
<path fill-rule="evenodd" clip-rule="evenodd" d="M11.28 1.02299C11.203 1.03199 10.951 1.05899 10.72 1.08299C9.52703 1.20999 8.33703 1.55799 7.18003 2.11999C6.04503 2.67099 5.19303 3.28499 4.23803 4.23899C3.27703 5.19799 2.64303 6.07999 2.09703 7.21999C0.301033 10.968 0.728033 15.286 3.22603 18.633C3.70103 19.269 4.75303 20.316 5.40003 20.797C9.36403 23.745 14.666 23.734 18.637 20.77C19.246 20.316 20.316 19.246 20.77 18.637C23.744 14.652 23.744 9.34799 20.77 5.36299C20.316 4.75499 19.247 3.68599 18.64 3.23499C17.045 2.04899 15.365 1.35999 13.423 1.09599C13 1.03799 11.574 0.989989 11.28 1.02299ZM13.32 3.10099C15.883 3.48799 18.124 4.93099 19.56 7.11999C19.863 7.58299 20.303 8.47899 20.492 9.01999C20.838 10.013 20.977 10.865 20.977 12C20.977 13.493 20.72 14.621 20.08 15.94C19.375 17.394 18.311 18.607 16.927 19.532C16.138 20.06 14.876 20.588 13.908 20.797C11.266 21.366 8.47903 20.708 6.37003 19.019C4.85703 17.807 3.72203 16.029 3.26703 14.16C3.08103 13.397 3.02303 12.888 3.02303 12C3.02303 10.507 3.28003 9.37899 3.92003 8.05999C4.97103 5.89099 6.87703 4.22099 9.16003 3.46599C9.86503 3.23299 10.432 3.11799 11.34 3.02399C11.662 2.99099 12.911 3.03899 13.32 3.10099ZM11.3 6.04199C10.776 6.12299 10.157 6.37399 9.64003 6.71499C8.74703 7.30399 7.96603 8.58999 8.08703 9.27399C8.14703 9.61899 8.44103 9.86399 8.93803 9.98699C9.16703 10.043 9.23903 10.046 9.39503 10.005C9.66203 9.93399 9.88303 9.70099 10.041 9.32699C10.199 8.94999 10.341 8.74099 10.592 8.51499C11.209 7.95999 12.025 7.84699 12.8 8.20999C13.148 8.37299 13.544 8.77299 13.714 9.13299C13.856 9.43399 13.94 9.88599 13.902 10.143C13.806 10.781 12.995 11.477 11.739 12C11.012 12.302 10.815 12.565 10.92 13.097C11.053 13.772 11.459 14.11 12.008 14.002C12.59 13.887 13.617 13.37 14.292 12.851C15.449 11.961 15.97 10.971 15.908 9.78099C15.855 8.76999 15.469 7.90699 14.742 7.17499C14.219 6.64799 13.619 6.30599 12.889 6.11699C12.53 6.02399 11.672 5.98399 11.3 6.04199ZM11.614 16.055C11.22 16.184 11.039 16.437 11.009 16.9C10.978 17.381 11.119 17.699 11.442 17.88C11.597 17.967 11.669 17.98 12 17.98C12.312 17.98 12.408 17.964 12.54 17.894C12.866 17.718 13 17.459 13 17C13 16.357 12.713 16.048 12.083 16.016C11.893 16.006 11.718 16.021 11.614 16.055Z" fill="white"/>
</svg>
