<svg width="20" height="22" viewBox="0 0 20 22" fill="none" xmlns="http://www.w3.org/2000/svg">
<path d="M17.82 0C18.9025 0 19.7822 0.868687 19.7997 1.94725L19.8 1.98V20.02C19.8 21.1025 18.931 21.9822 17.8527 21.9997L17.82 22H1.98C0.897534 22 0.0177527 21.131 0.0002653 20.0527L0 20.02V1.98C0 0.897262 0.868957 0.0177472 1.94726 0.000265219L1.98 0H17.82ZM17.82 1.1H1.98C1.50248 1.1 1.11236 1.48266 1.10029 1.95733L1.1 1.98V20.02C1.1 20.4975 1.48266 20.8876 1.95733 20.8997L1.98 20.9H17.82C18.2978 20.9 18.6876 20.5173 18.6997 20.0427L18.7 20.02V1.98C18.7 1.4949 18.3054 1.1 17.82 1.1ZM4.95 14.3L7.425 16.5L4.95 18.7V14.3ZM7.15 3.3V9.54552C8.24835 9.18802 9.78367 8.8 11.275 8.8C12.6349 8.8 13.4489 9.3346 13.8922 9.78312C14.8287 10.7306 14.851 11.9348 14.8498 12.0955L14.8497 12.1L14.85 18.7H12.65V12.1302C12.6393 11.6168 12.3918 11 11.275 11C9.06052 11 6.5792 12.1026 6.50552 12.1356L6.50402 12.1363L4.95 12.8403V3.3H7.15ZM14.85 3.3C14.7015 4.5496 14.195 5.7475 13.2 6.875H11C11.8646 5.74062 12.4074 4.54685 12.65 3.3H14.85Z" fill="#FF0000"/>
</svg>
