<svg width="11" height="11" viewBox="0 0 11 11" fill="none" xmlns="http://www.w3.org/2000/svg">
<mask id="path-1-inside-1_1_7" fill="white">
<path d="M0.0893013 6.48709C0.311797 7.70669 0.939809 8.81536 1.87147 9.63325C2.80313 10.4511 3.98379 10.9303 5.22194 10.993C6.46009 11.0556 7.68311 10.6982 8.6926 9.97854C9.70209 9.25891 10.4388 8.21933 10.7834 7.02842C11.1279 5.83752 11.0599 4.56515 10.5906 3.4177C10.1212 2.27025 9.27796 1.31503 8.19758 0.706976C7.1172 0.0989246 5.86308 -0.126288 4.63864 0.0678681C3.4142 0.262024 2.29127 0.864161 1.45199 1.77661L2.06144 2.33718C2.77436 1.5621 3.72823 1.05062 4.76832 0.885694C5.80841 0.720769 6.87372 0.912075 7.79145 1.42858C8.70917 1.94509 9.42548 2.7565 9.82418 3.7312C10.2229 4.70589 10.2806 5.7867 9.98793 6.79831C9.69529 7.80992 9.06945 8.69299 8.21194 9.30428C7.35443 9.91557 6.31555 10.2192 5.26381 10.166C4.21206 10.1127 3.20916 9.70573 2.41776 9.01098C1.62636 8.31622 1.0929 7.37447 0.903901 6.33848L0.0893013 6.48709Z"/>
</mask>
<path d="M0.0893013 6.48709C0.311797 7.70669 0.939809 8.81536 1.87147 9.63325C2.80313 10.4511 3.98379 10.9303 5.22194 10.993C6.46009 11.0556 7.68311 10.6982 8.6926 9.97854C9.70209 9.25891 10.4388 8.21933 10.7834 7.02842C11.1279 5.83752 11.0599 4.56515 10.5906 3.4177C10.1212 2.27025 9.27796 1.31503 8.19758 0.706976C7.1172 0.0989246 5.86308 -0.126288 4.63864 0.0678681C3.4142 0.262024 2.29127 0.864161 1.45199 1.77661L2.06144 2.33718C2.77436 1.5621 3.72823 1.05062 4.76832 0.885694C5.80841 0.720769 6.87372 0.912075 7.79145 1.42858C8.70917 1.94509 9.42548 2.7565 9.82418 3.7312C10.2229 4.70589 10.2806 5.7867 9.98793 6.79831C9.69529 7.80992 9.06945 8.69299 8.21194 9.30428C7.35443 9.91557 6.31555 10.2192 5.26381 10.166C4.21206 10.1127 3.20916 9.70573 2.41776 9.01098C1.62636 8.31622 1.0929 7.37447 0.903901 6.33848L0.0893013 6.48709Z" stroke="white" stroke-width="2" mask="url(#path-1-inside-1_1_7)"/>
<path fill-rule="evenodd" clip-rule="evenodd" d="M5.33332 3C5.51741 3 5.66664 3.17908 5.66664 3.39999V5.55273L6.81567 6.24216C6.98033 6.34095 7.04706 6.58122 6.96474 6.7788C6.88241 6.97639 6.68219 7.05648 6.51754 6.95768L5.18426 6.1577C5.07133 6.08995 5 5.95144 5 5.79994V3.39999C5 3.17908 5.14923 3 5.33332 3Z" fill="white"/>
<path d="M3 3L1 3L1 1L3 3Z" fill="white"/>
</svg>
