<svg width="24" height="24" viewBox="0 0 24 24" fill="none" xmlns="http://www.w3.org/2000/svg">
<path fill-rule="evenodd" clip-rule="evenodd" d="M5.92 2.04111C5.151 2.09211 4.672 2.20511 4.18 2.45111C3.089 2.99611 2.357 3.96111 2.124 5.16011C2.013 5.72911 2 6.45511 2 12.0001C2 18.3581 2.006 18.5261 2.245 19.3201C2.577 20.4221 3.578 21.4231 4.68 21.7551C5.474 21.9941 5.642 22.0001 12 22.0001C18.358 22.0001 18.526 21.9941 19.32 21.7551C20.422 21.4231 21.423 20.4221 21.755 19.3201C21.994 18.5261 22 18.3581 22 12.0001C22 5.64211 21.994 5.47411 21.755 4.68011C21.424 3.58111 20.465 2.62211 19.32 2.24611C18.644 2.02411 18.8 2.02911 12.34 2.01911C9.062 2.01411 6.173 2.02411 5.92 2.04111ZM18.492 4.09111C18.642 4.12711 18.849 4.19811 18.952 4.24811C19.194 4.36611 19.634 4.80611 19.752 5.04811C19.97 5.49611 19.971 5.50611 19.989 9.18011L20.006 12.5801L18.633 11.2181C17.878 10.4691 17.165 9.79711 17.05 9.72411C16.432 9.33511 15.573 9.33411 14.95 9.72311C14.728 9.86111 5.399 19.1401 5.13 19.4901C5.049 19.5941 4.958 19.6801 4.928 19.6801C4.837 19.6801 4.347 19.1561 4.248 18.9521C4.198 18.8491 4.126 18.6331 4.088 18.4721C4.025 18.2031 4.02 17.6871 4.02 12.0001C4.02 6.31311 4.025 5.79711 4.088 5.52811C4.175 5.15511 4.294 4.91811 4.52 4.66711C4.883 4.26211 5.282 4.09111 5.98 4.03911C6.2 4.02311 9.044 4.01311 12.3 4.01811C17.643 4.02411 18.247 4.03211 18.492 4.09111ZM7.808 5.58111C6.875 5.78411 5.969 6.60111 5.668 7.51011C5.22 8.86611 5.724 10.2821 6.933 11.0601C7.822 11.6321 9.178 11.6321 10.067 11.0601C11.275 10.2821 11.78 8.86611 11.332 7.51111C11.028 6.59111 10.122 5.78011 9.174 5.57911C8.834 5.50711 8.143 5.50811 7.808 5.58111ZM9.023 7.66211C9.306 7.83611 9.454 8.09411 9.474 8.44611C9.487 8.68311 9.474 8.75111 9.379 8.94511C9.03 9.65811 8 9.66911 7.631 8.96311C7.372 8.46811 7.558 7.86911 8.049 7.62211C8.23 7.53011 8.3 7.51711 8.544 7.52811C8.776 7.53911 8.863 7.56311 9.023 7.66211ZM18.016 13.4361L20.012 15.4321L19.988 16.8261C19.957 18.6841 19.909 18.8911 19.4 19.4011C19.12 19.6811 18.839 19.8411 18.48 19.9231C18.311 19.9621 17.014 19.9771 12.84 19.9881L7.42 20.0021L11.7 15.7211C14.054 13.3661 15.989 11.4401 16 11.4401C16.011 11.4401 16.918 12.3381 18.016 13.4361Z" fill="#FF0000"/>
</svg>
