<svg width="16" height="16" viewBox="0 0 16 16" fill="none" xmlns="http://www.w3.org/2000/svg">
<path fill-rule="evenodd" clip-rule="evenodd" d="M1.74266 1.37142C1.58466 1.42076 1.47466 1.50742 1.406 1.63542C1.35666 1.72809 1.34666 1.78942 1.34666 2.00009C1.34666 2.22076 1.35533 2.26876 1.41333 2.37209C1.48666 2.50342 1.60933 2.59876 1.75666 2.63942C1.89 2.67676 14.11 2.67676 14.2433 2.63942C14.3907 2.59876 14.5133 2.50342 14.5867 2.37209C14.6447 2.26809 14.6533 2.22142 14.6527 2.00009C14.652 1.71142 14.5987 1.57009 14.452 1.46609C14.2567 1.32676 14.5847 1.33342 7.98933 1.33542C3.03066 1.33676 1.832 1.34342 1.74266 1.37142ZM7.68666 4.05676C7.59466 4.10142 7.49866 4.16942 7.47333 4.20809C7.44733 4.24676 6.52466 5.18476 5.42266 6.29276C4.01933 7.70342 3.40133 8.34209 3.36 8.42476C3.242 8.66009 3.30133 8.90276 3.53266 9.13409C3.764 9.36542 4.00666 9.42476 4.242 9.30676C4.324 9.26609 4.816 8.79276 5.84666 7.76476L7.33333 6.28142V10.2141C7.33333 12.7661 7.34333 14.1808 7.36066 14.2434C7.432 14.5001 7.62466 14.6414 7.93066 14.6608C8.254 14.6814 8.466 14.5881 8.58667 14.3721L8.65333 14.2534L8.66067 10.2674L8.66733 6.28209L10.154 7.76476C11.184 8.79276 11.676 9.26609 11.758 9.30676C11.9933 9.42476 12.236 9.36542 12.4673 9.13409C12.6987 8.90276 12.758 8.66009 12.64 8.42476C12.5987 8.34209 11.9807 7.70342 10.5773 6.29276C9.47533 5.18476 8.55266 4.24676 8.52666 4.20809C8.50133 4.16942 8.40267 4.10076 8.30666 4.05542C8.07533 3.94609 7.91533 3.94676 7.68666 4.05676Z" fill="black"/>
<path fill-rule="evenodd" clip-rule="evenodd" d="M1.74266 1.37142C1.58466 1.42076 1.47466 1.50742 1.406 1.63542C1.35666 1.72809 1.34666 1.78942 1.34666 2.00009C1.34666 2.22076 1.35533 2.26876 1.41333 2.37209C1.48666 2.50342 1.60933 2.59876 1.75666 2.63942C1.89 2.67676 14.11 2.67676 14.2433 2.63942C14.3907 2.59876 14.5133 2.50342 14.5867 2.37209C14.6447 2.26809 14.6533 2.22142 14.6527 2.00009C14.652 1.71142 14.5987 1.57009 14.452 1.46609C14.2567 1.32676 14.5847 1.33342 7.98933 1.33542C3.03066 1.33676 1.832 1.34342 1.74266 1.37142ZM7.68666 4.05676C7.59466 4.10142 7.49866 4.16942 7.47333 4.20809C7.44733 4.24676 6.52466 5.18476 5.42266 6.29276C4.01933 7.70342 3.40133 8.34209 3.36 8.42476C3.242 8.66009 3.30133 8.90276 3.53266 9.13409C3.764 9.36542 4.00666 9.42476 4.242 9.30676C4.324 9.26609 4.816 8.79276 5.84666 7.76476L7.33333 6.28142V10.2141C7.33333 12.7661 7.34333 14.1808 7.36066 14.2434C7.432 14.5001 7.62466 14.6414 7.93066 14.6608C8.254 14.6814 8.466 14.5881 8.58667 14.3721L8.65333 14.2534L8.66067 10.2674L8.66733 6.28209L10.154 7.76476C11.184 8.79276 11.676 9.26609 11.758 9.30676C11.9933 9.42476 12.236 9.36542 12.4673 9.13409C12.6987 8.90276 12.758 8.66009 12.64 8.42476C12.5987 8.34209 11.9807 7.70342 10.5773 6.29276C9.47533 5.18476 8.55266 4.24676 8.52666 4.20809C8.50133 4.16942 8.40267 4.10076 8.30666 4.05542C8.07533 3.94609 7.91533 3.94676 7.68666 4.05676Z" fill="white" fill-opacity="0.9"/>
</svg>
