<svg width="24" height="24" viewBox="0 0 24 24" fill="none" xmlns="http://www.w3.org/2000/svg">
<path fill-rule="evenodd" clip-rule="evenodd" d="M7.446 3.0439C6.261 3.1499 5.229 3.7679 4.553 4.7769C4.259 5.2159 1.323 11.0729 1.201 11.4639C1.012 12.0699 1 12.2459 1 14.5599C1 17.1179 1.032 17.6149 1.245 18.3199C1.577 19.4219 2.578 20.4229 3.68 20.7549C4.485 20.9979 4.567 20.9999 12 20.9999C19.433 20.9999 19.515 20.9979 20.32 20.7549C21.422 20.4229 22.423 19.4219 22.755 18.3199C22.967 17.6159 23 17.1169 23 14.5879C23 12.3229 22.987 12.1009 22.815 11.5259C22.687 11.0989 19.792 5.2989 19.448 4.7799C19.159 4.3459 18.803 3.9799 18.403 3.7099C17.803 3.3029 17.242 3.1079 16.48 3.0409C15.926 2.9919 7.996 2.9949 7.446 3.0439ZM16.371 5.0379C16.962 5.0999 17.454 5.3879 17.758 5.8479C17.892 6.0519 20.36 10.9129 20.36 10.9749C20.36 10.9849 19.744 11.0009 18.99 11.0109C17.465 11.0299 17.425 11.0359 16.86 11.3159C16.345 11.5709 15.975 11.9279 15.631 12.4999C15.469 12.7699 15.326 12.8919 15.096 12.9579C14.984 12.9909 14.091 13.0009 11.92 12.9919C8.419 12.9779 8.709 13.0139 8.413 12.5579C7.981 11.8899 7.652 11.5689 7.141 11.3159C6.575 11.0359 6.535 11.0299 5.01 11.0109C4.256 11.0009 3.64 10.9849 3.64 10.9749C3.64 10.9129 6.108 6.0519 6.242 5.8479C6.532 5.4099 7.049 5.0959 7.573 5.0409C7.991 4.9969 15.956 4.9949 16.371 5.0379ZM6.287 13.1299C6.422 13.2089 6.516 13.3099 6.624 13.4899C7.112 14.3039 7.771 14.7859 8.632 14.9579C8.923 15.0159 15.077 15.0159 15.368 14.9579C16.229 14.7859 16.888 14.3039 17.376 13.4899C17.484 13.3099 17.578 13.2089 17.713 13.1299L17.9 13.0199L19.454 13.0079L21.009 12.9959L20.989 15.1079C20.967 17.3699 20.953 17.5389 20.752 17.9519C20.626 18.2109 20.19 18.6379 19.918 18.7679C19.463 18.9869 19.707 18.9799 12 18.9799C4.304 18.9799 4.541 18.9859 4.082 18.7709C3.812 18.6429 3.377 18.2169 3.248 17.9519C3.047 17.5389 3.033 17.3699 3.011 15.1079L2.991 12.9959L4.546 13.0079L6.1 13.0199L6.287 13.1299Z" fill="#FF0000"/>
</svg>
