<svg width="24" height="24" viewBox="0 0 24 24" fill="none" xmlns="http://www.w3.org/2000/svg">
<g clip-path="url(#clip0_76_9)">
<path d="M21.951 12.811C21.8994 12.7179 21.1251 12.2373 20.9425 12.0735C20.636 11.7988 19.8158 10.8976 19.7629 10.5032C19.7541 10.4357 19.736 10.3715 19.7748 10.3082C19.9124 10.1601 20.1161 10.2523 20.2824 10.1945C19.4397 9.30246 19.0305 8.0857 18.2989 7.12579C17.7119 6.35528 16.9521 5.77878 16.273 5.10918C14.835 3.69108 13.5513 2.03817 12.3091 0.434784C12.224 0.371952 12.2765 0.51688 12.2871 0.549443C12.7126 1.87535 13.4936 3.21823 14.2838 4.3373C14.3178 4.38545 14.4964 4.6432 14.4672 4.67301C14.3764 4.68265 14.3116 4.61202 14.2463 4.55973C13.7886 4.19099 13.1351 3.40077 12.7267 2.93296C11.9083 1.99505 11.1736 0.988813 10.4151 0C10.9483 1.48827 11.7182 2.85132 12.4851 4.21484C11.3937 4.02634 10.4306 3.30858 9.51069 2.70364C9.42249 2.69172 9.45248 2.70685 9.44454 2.77198C9.42558 2.92608 9.60902 3.59064 9.4613 3.6232L7.28729 2.70318L7.55143 3.75667L7.0452 3.80207L5.12872 3.57367L5.7452 4.62669L3.41068 5.13165L4.20267 5.88702L2.35366 7.262C2.33338 7.36886 2.39996 7.31749 2.45773 7.33492C2.6619 7.39684 3.05173 7.49728 3.2215 7.59497C3.26913 7.62249 3.32778 7.64037 3.31763 7.71192L2 9.73495C2.10804 9.87713 2.27164 9.76155 2.41672 9.75696C2.64426 9.74963 2.87401 9.7666 3.10156 9.7588L2.66102 12.1873L3.67571 11.7938L4.31291 14.019C4.45094 13.9209 4.75654 13.3834 4.92058 13.4297C5.02465 13.4591 5.92027 14.274 6.12753 14.424C8.9899 16.4975 14.7962 17.7771 16.131 21.293C16.3409 21.8452 16.4552 22.4295 16.6038 23C16.677 22.9477 16.6668 22.8748 16.6726 22.7964C16.7705 21.4168 16.6734 20.6862 16.0168 19.4873C13.7992 15.4371 8.30859 15.411 5.88543 11.4686C4.36936 9.00205 5.9238 6.27548 8.63094 6.09432C10.4799 5.97049 11.9982 6.44609 13.431 7.65276C14.6273 8.66037 15.2112 9.93858 16.4799 10.8962C17.5391 11.6951 19.8247 13.0422 19.6099 14.6726C19.5711 14.9689 19.415 15.2418 19.3572 15.5321C20.0566 15.4023 20.9147 14.9248 21.3822 14.3626C21.6326 14.0612 22.1631 13.1949 21.951 12.811ZM18.3439 9.2089C18.3134 9.241 18.0419 9.03807 18 9C17.8576 8.87067 17.0392 8.14951 17 8C16.9815 7.92937 16.9929 7.56513 17 7.5C17.0908 7.43304 17.9339 7.92433 18 8C18.1521 8.17336 18.1706 8.62489 18.2989 8.82164C18.3328 8.87393 18.3747 9.17588 18.3439 9.2089Z" fill="white"/>
</g>
<defs>
<clipPath id="clip0_76_9">
<rect width="24" height="24" fill="white"/>
</clipPath>
</defs>
</svg>
