<svg width="24" height="24" viewBox="0 0 24 24" fill="none" xmlns="http://www.w3.org/2000/svg">
<path fill-rule="evenodd" clip-rule="evenodd" d="M14.54 2.02304C13.715 2.10204 13.25 2.20004 12.62 2.42704C10.21 3.29504 8.49102 5.39504 8.07502 7.98004C8.00602 8.40804 8.00602 9.64704 8.07502 10.094L8.12902 10.448L5.25002 13.334C2.48402 16.107 2.36502 16.232 2.22502 16.52C2.14502 16.685 2.06202 16.917 2.04002 17.035C2.01802 17.154 2.00002 17.901 2.00102 18.695C2.00102 20.271 2.02502 20.504 2.22702 20.919C2.36602 21.205 2.79502 21.634 3.08102 21.773C3.50602 21.98 3.71002 21.999 5.54002 21.999C6.54402 21.999 7.27802 21.983 7.36502 21.959C7.58602 21.898 7.77002 21.755 7.88002 21.558C7.97402 21.391 7.98102 21.338 7.99402 20.69L8.00802 20H8.61402C8.94702 20 9.28502 19.981 9.36502 19.959C9.58602 19.898 9.77002 19.755 9.88002 19.558C9.97402 19.391 9.98102 19.338 9.99402 18.693L10.008 18.007L10.654 17.993C11.188 17.982 11.324 17.966 11.44 17.905C11.517 17.864 12.024 17.39 12.566 16.851L13.552 15.871L13.906 15.925C14.352 15.994 15.591 15.994 16.02 15.925C19.108 15.429 21.428 13.109 21.926 10.02C21.954 9.84404 21.977 9.38504 21.977 9.00004C21.977 8.05604 21.876 7.46204 21.573 6.62004C20.715 4.23704 18.581 2.47304 16.102 2.09804C15.726 2.04104 14.813 1.99704 14.54 2.02304ZM15.552 4.04304C17.413 4.24604 19.001 5.47904 19.68 7.24804C20.092 8.32004 20.085 9.72004 19.663 10.793C19.206 11.955 18.31 12.936 17.212 13.476C16.268 13.94 15.39 14.075 14.179 13.94C13.476 13.863 13.209 13.873 12.873 13.992C12.516 14.118 12.317 14.279 11.417 15.167L10.575 16H9.69402C8.75702 16 8.56102 16.028 8.32202 16.199C8.25402 16.247 8.15802 16.362 8.10902 16.453C8.02902 16.603 8.01902 16.689 8.00702 17.31L7.99302 18H7.40302C6.57702 18 6.29902 18.097 6.10902 18.453C6.02902 18.603 6.01902 18.689 6.00702 19.31L5.99302 20H4.99702H4.00002V18.711V17.422L6.83402 14.581C8.39302 13.018 9.72102 11.659 9.78602 11.56C10.006 11.223 10.119 10.872 10.12 10.52C10.12 10.399 10.09 10.03 10.053 9.70004C9.89902 8.31804 10.189 7.15304 10.955 6.08004C11.996 4.62104 13.747 3.84504 15.552 4.04304ZM14.649 6.03604C14.263 6.13604 14.039 6.43804 14.009 6.90004C13.965 7.59104 14.248 7.92904 14.933 7.99904C15.34 8.04104 15.503 8.10504 15.699 8.30104C15.894 8.49604 15.956 8.65304 16.003 9.06704C16.081 9.75604 16.324 9.97804 17 9.97804C17.504 9.97804 17.715 9.87504 17.894 9.54004C18.021 9.30404 18.016 8.58404 17.885 8.16004C17.583 7.18104 16.809 6.40504 15.861 6.12904C15.513 6.02804 14.871 5.97904 14.649 6.03604Z" fill="#FF0000"/>
</svg>
