<svg width="20" height="20" viewBox="0 0 21 13" fill="none" xmlns="http://www.w3.org/2000/svg">
<path d="M19.6235 12H1.68976C1.30901 12 1 11.692 1 11.3125V1.6875C1 1.308 1.30901 1 1.68976 1H19.6235C20.0043 1 20.3133 1.308 20.3133 1.6875V11.3125C20.3133 11.692 20.0043 12 19.6235 12Z" stroke="white" stroke-miterlimit="10"/>
<path d="M7.20782 9.25H14.1054" stroke="white" stroke-miterlimit="10"/>
<path d="M15.485 9.25H18.244" stroke="white" stroke-miterlimit="10"/>
<path d="M3.06927 9.25H5.82832" stroke="white" stroke-miterlimit="10"/>
<path d="M3.06927 3.75H4.4488" stroke="white" stroke-miterlimit="10"/>
<path d="M5.82831 3.75H7.20783" stroke="white" stroke-miterlimit="10"/>
<path d="M8.5874 3.75H9.96692" stroke="white" stroke-miterlimit="10"/>
<path d="M9.96692 6.5H11.3464" stroke="white" stroke-miterlimit="10"/>
<path d="M12.7259 6.5H14.1054" stroke="white" stroke-miterlimit="10"/>
<path d="M15.485 6.5H18.244" stroke="white" stroke-miterlimit="10"/>
<path d="M3.06927 6.5H5.82832" stroke="white" stroke-miterlimit="10"/>
<path d="M7.20782 6.5H8.58735" stroke="white" stroke-miterlimit="10"/>
<path d="M11.3464 3.75H12.7259" stroke="white" stroke-miterlimit="10"/>
<path d="M14.1055 3.75H15.485" stroke="white" stroke-miterlimit="10"/>
<path d="M16.8645 3.75H18.244" stroke="white" stroke-miterlimit="10"/>
</svg>
