<svg width="24" height="24" viewBox="0 0 24 24" fill="none" xmlns="http://www.w3.org/2000/svg">
<circle cx="12" cy="12" r="12" fill="black"/>
<path d="M19.0822 5C19.7631 5 20.3151 5.55198 20.3151 6.23287C20.3151 6.9138 19.7631 7.46574 19.0822 7.46574H17.9944C17.9143 7.46574 17.8494 7.40082 17.8494 7.32072V6.23287C17.8494 5.55198 18.4014 5 19.0822 5Z" fill="#1783FF"/>
<path d="M12.1703 12.1794L16.823 7.56337C16.9105 7.47631 16.8612 7.30141 16.7482 7.30141H14.2446C14.2175 7.30141 14.1911 7.31251 14.1699 7.33381L9.15682 12.3062C9.07864 12.383 8.96308 12.3145 8.96308 12.1914V7.44859C8.96308 7.36711 8.9095 7.30141 8.8441 7.30141H7.11898C7.05352 7.30141 7 7.36711 7 7.44859V17.6747C7 17.7562 7.05352 17.8219 7.11898 17.8219H8.8441C8.9095 17.8219 8.96308 17.7562 8.96308 17.6747V15.5912C8.96308 15.5468 8.97922 15.5042 9.00724 15.4764L10.5615 13.9343C10.5989 13.8973 10.6508 13.8917 10.6924 13.9195L14.8497 16.9787C15.5304 17.4369 16.291 17.7182 17.0634 17.8016C17.1323 17.809 17.1918 17.7405 17.1918 17.6544V15.6921C17.1918 15.6171 17.1467 15.556 17.0864 15.5468C16.6317 15.4755 16.1882 15.2996 15.7871 15.0293L12.1881 12.4237C12.1133 12.3737 12.104 12.2451 12.1703 12.1794Z" fill="white"/>
</svg>
