<svg width="24" height="24" viewBox="0 0 24 24" fill="none" xmlns="http://www.w3.org/2000/svg">
<path fill-rule="evenodd" clip-rule="evenodd" d="M4.749 3.04515C3.967 3.12015 3.402 3.37115 2.89 3.87015C2.508 4.24315 2.265 4.67615 2.109 5.26015C2.024 5.57715 2.023 5.62115 2.01 10.4282L1.997 15.2752L1.861 15.3592C1.668 15.4782 1.333 15.8562 1.218 16.0852C1.038 16.4392 1 16.6812 1 17.4582C1 17.8552 1.019 18.2972 1.042 18.4402C1.249 19.7582 2.242 20.7512 3.56 20.9582C3.732 20.9852 6.609 20.9992 12.02 20.9982C18.704 20.9972 20.275 20.9872 20.52 20.9432C21.807 20.7132 22.77 19.7132 22.961 18.4102C22.991 18.2052 23.002 17.8042 22.99 17.3322C22.971 16.5322 22.927 16.3162 22.712 15.9662C22.59 15.7662 22.297 15.4572 22.136 15.3572L22.003 15.2752L21.99 10.4282C21.977 5.62415 21.976 5.57715 21.891 5.26015C21.779 4.84115 21.68 4.61415 21.473 4.31015C21.184 3.88215 20.811 3.56015 20.329 3.32115C20.019 3.16815 19.706 3.09115 19.18 3.04215C18.644 2.99115 5.276 2.99415 4.749 3.04515ZM19.374 5.07415C19.572 5.14115 19.859 5.42815 19.925 5.62615C19.966 5.74715 19.98 6.76815 19.99 10.3902L20.003 15.0002H17.652C16.316 15.0002 15.196 15.0172 15.06 15.0392C14.683 15.1012 14.302 15.3132 13.911 15.6782L13.568 16.0002H12H10.432L10.089 15.6782C9.698 15.3132 9.317 15.1012 8.94 15.0392C8.804 15.0172 7.684 15.0002 6.35 15.0002H4V10.6302C4 8.07615 4.017 6.12015 4.039 5.92315C4.103 5.36615 4.35 5.10315 4.866 5.04215C5.017 5.02415 8.308 5.01215 12.18 5.01615C17.839 5.02115 19.25 5.03215 19.374 5.07415ZM8.911 17.3222C9.29 17.6752 9.672 17.8932 10.035 17.9602C10.158 17.9832 11.006 18.0002 12 18.0002C12.994 18.0002 13.842 17.9832 13.965 17.9602C14.328 17.8932 14.71 17.6752 15.089 17.3222L15.432 17.0002H18.22H21.008L20.994 17.6302C20.981 18.1912 20.969 18.2812 20.886 18.4502C20.835 18.5552 20.728 18.6942 20.649 18.7592C20.335 19.0172 20.958 19.0002 12 19.0002C3.042 19.0002 3.665 19.0172 3.351 18.7592C3.272 18.6942 3.165 18.5552 3.114 18.4502C3.031 18.2812 3.019 18.1912 3.006 17.6302L2.992 17.0002H5.78H8.568L8.911 17.3222Z" fill="#FF0000"/>
</svg>
