<svg width="24" height="24" viewBox="0 0 24 24" fill="none" xmlns="http://www.w3.org/2000/svg">
<path fill-rule="evenodd" clip-rule="evenodd" d="M5.92 2.04087C5.151 2.09187 4.672 2.20487 4.18 2.45087C3.089 2.99587 2.357 3.96087 2.124 5.15987C2.013 5.72887 2 6.45487 2 11.9999C2 18.3579 2.006 18.5259 2.245 19.3199C2.577 20.4219 3.578 21.4229 4.68 21.7549C5.474 21.9939 5.642 21.9999 12 21.9999C18.358 21.9999 18.526 21.9939 19.32 21.7549C20.422 21.4229 21.423 20.4219 21.755 19.3199C21.994 18.5259 22 18.3579 22 11.9999C22 5.64187 21.994 5.47387 21.755 4.67987C21.424 3.58087 20.465 2.62187 19.32 2.24587C18.644 2.02387 18.8 2.02887 12.34 2.01887C9.062 2.01387 6.173 2.02387 5.92 2.04087ZM8 12.0049V20.0099L6.89 19.9889C6.271 19.9779 5.674 19.9479 5.54 19.9209C5.161 19.8449 4.887 19.6939 4.6 19.4029C4.303 19.1039 4.186 18.8899 4.088 18.4719C4.025 18.2029 4.02 17.6869 4.02 11.9999C4.02 6.31287 4.025 5.79687 4.088 5.52787C4.175 5.15487 4.294 4.91787 4.52 4.66687C5.013 4.11787 5.412 4.01887 7.19 4.00587L8 3.99987V12.0049ZM18.492 4.09187C18.893 4.18687 19.109 4.30787 19.4 4.59987C19.696 4.89487 19.814 5.10887 19.912 5.52787C19.975 5.79687 19.98 6.31287 19.98 11.9999C19.98 17.6869 19.975 18.2029 19.912 18.4719C19.814 18.8909 19.696 19.1039 19.4 19.4009C19.12 19.6809 18.838 19.8409 18.48 19.9229C18.314 19.9599 17.24 19.9769 14.13 19.9879L10 20.0039V11.9989V3.99487L14.11 4.01087C17.729 4.02487 18.253 4.03487 18.492 4.09187Z" fill="white"/>
</svg>
