<svg width="24" height="24" viewBox="0 0 24 24" fill="none" xmlns="http://www.w3.org/2000/svg">
<g clip-path="url(#clip0_21_46)">
<path fill-rule="evenodd" clip-rule="evenodd" d="M8.87174 12.9468C7.59057 14.6762 6.42262 16.5198 5.39473 18.4305C4.48588 20.1199 4 22.0466 4 23.9924V31.6332C4 31.873 4.30708 31.9446 4.40168 31.7269L6.42891 27.0614C6.49385 26.912 6.55836 26.7646 6.63183 26.6197C7.0861 25.7237 8.98967 22.3648 12 22.3648C15.0103 22.3648 16.9139 25.7237 17.3682 26.6197C17.4416 26.7646 17.5062 26.912 17.5711 27.0614L19.5983 31.7269C19.6929 31.9446 20 31.873 20 31.6332V23.9924C20 22.0466 19.5141 20.1199 18.6053 18.4305C17.5774 16.5198 16.4094 14.6762 15.1283 12.9468L12.3309 9.17067C12.1623 8.94311 11.8377 8.94311 11.6691 9.17067L8.87174 12.9468ZM10.953 13.537C10.5202 14.1572 10.1585 14.83 9.87551 15.5411L9.7464 15.8656C9.71243 15.9509 9.69492 16.0427 9.69492 16.1354C9.69492 16.3534 9.77004 16.5639 9.90611 16.7271L9.92118 16.7452C10.0797 16.9354 10.2605 17.1059 10.481 17.2042C10.788 17.3411 11.3067 17.5096 12 17.5096C12.6933 17.5096 13.212 17.3411 13.519 17.2042C13.7395 17.1059 13.9203 16.9354 14.0788 16.7452L14.0939 16.7271C14.23 16.5639 14.3051 16.3534 14.3051 16.1354C14.3051 16.0427 14.2876 15.9509 14.2536 15.8656L14.1245 15.5411C13.8415 14.83 13.4798 14.1572 13.047 13.537L12.1723 12.2835C12.0866 12.1606 11.9135 12.1606 11.8277 12.2835L10.953 13.537Z" fill="#FF0000"/>
</g>
<defs>
<clipPath id="clip0_21_46">
<rect width="24" height="24" fill="white"/>
</clipPath>
</defs>
</svg>
