<svg width="24" height="24" viewBox="0 0 24 24" fill="none" xmlns="http://www.w3.org/2000/svg">
<g clip-path="url(#clip0_21_48)">
<path fill-rule="evenodd" clip-rule="evenodd" d="M8.87174 0.946769C7.59057 2.67618 6.42262 4.51985 5.39473 6.43052C4.48588 8.11994 4 10.0466 4 11.9924V19.6332C4 19.873 4.30708 19.9446 4.40168 19.7269L6.42891 15.0614C6.49385 14.912 6.55836 14.7646 6.63183 14.6197C7.0861 13.7237 8.98967 10.3648 12 10.3648C15.0103 10.3648 16.9139 13.7237 17.3682 14.6197C17.4416 14.7646 17.5062 14.912 17.5711 15.0614L19.5983 19.7269C19.6929 19.9446 20 19.873 20 19.6332V11.9924C20 10.0466 19.5141 8.11994 18.6053 6.43052C17.5774 4.51985 16.4094 2.67618 15.1283 0.946769L12.3309 -2.82933C12.1623 -3.05689 11.8377 -3.05689 11.6691 -2.82933L8.87174 0.946769ZM10.953 1.53698C10.5202 2.15722 10.1585 2.83001 9.87551 3.54113L9.7464 3.86557C9.71243 3.95094 9.69492 4.04268 9.69492 4.13537C9.69492 4.35339 9.77004 4.56387 9.90611 4.7271L9.92118 4.74519C10.0797 4.93539 10.2605 5.1059 10.481 5.20424C10.788 5.34114 11.3067 5.50962 12 5.50962C12.6933 5.50962 13.212 5.34114 13.519 5.20424C13.7395 5.1059 13.9203 4.93538 14.0788 4.74518L14.0939 4.7271C14.23 4.56387 14.3051 4.35339 14.3051 4.13537C14.3051 4.04268 14.2876 3.95094 14.2536 3.86556L14.1245 3.54112C13.8415 2.83001 13.4798 2.15723 13.047 1.53699L12.1723 0.2835C12.0866 0.160642 11.9135 0.160642 11.8277 0.2835L10.953 1.53698Z" fill="#FF0000"/>
</g>
<defs>
<clipPath id="clip0_21_48">
<rect width="24" height="24" fill="white"/>
</clipPath>
</defs>
</svg>
