<svg width="24" height="24" viewBox="0 0 24 24" fill="none" xmlns="http://www.w3.org/2000/svg">
<g clip-path="url(#clip0_21_50)">
<path fill-rule="evenodd" clip-rule="evenodd" d="M8.87174 -11.0532C7.59057 -9.32382 6.42262 -7.48015 5.39473 -5.56948C4.48588 -3.88006 4 -1.95341 4 -0.0076189V7.63321C4 7.873 4.30708 7.94463 4.40168 7.72692L6.42891 3.0614C6.49385 2.91195 6.55836 2.76465 6.63183 2.61973C7.0861 1.72366 8.98967 -1.63517 12 -1.63517C15.0103 -1.63517 16.9139 1.72366 17.3682 2.61973C17.4416 2.76465 17.5062 2.91195 17.5711 3.0614L19.5983 7.72692C19.6929 7.94464 20 7.87299 20 7.63321V-0.00761604C20 -1.95341 19.5141 -3.88006 18.6053 -5.56948C17.5774 -7.48015 16.4094 -9.32382 15.1283 -11.0532L12.3309 -14.8293C12.1623 -15.0569 11.8377 -15.0569 11.6691 -14.8293L8.87174 -11.0532ZM10.953 -10.463C10.5202 -9.84278 10.1585 -9.16999 9.87551 -8.45887L9.7464 -8.13443C9.71243 -8.04906 9.69492 -7.95732 9.69492 -7.86463C9.69492 -7.64661 9.77004 -7.43613 9.90611 -7.2729L9.92118 -7.25481C10.0797 -7.06461 10.2605 -6.8941 10.481 -6.79576C10.788 -6.65886 11.3067 -6.49038 12 -6.49038C12.6933 -6.49038 13.212 -6.65886 13.519 -6.79576C13.7395 -6.8941 13.9203 -7.06462 14.0788 -7.25482L14.0939 -7.2729C14.23 -7.43613 14.3051 -7.64661 14.3051 -7.86463C14.3051 -7.95732 14.2876 -8.04906 14.2536 -8.13444L14.1245 -8.45888C13.8415 -9.16999 13.4798 -9.84277 13.047 -10.463L12.1723 -11.7165C12.0866 -11.8394 11.9135 -11.8394 11.8277 -11.7165L10.953 -10.463Z" fill="#FF0000"/>
</g>
<defs>
<clipPath id="clip0_21_50">
<rect width="24" height="24" fill="white"/>
</clipPath>
</defs>
</svg>
