<svg width="24" height="24" viewBox="0 0 24 24" fill="none" xmlns="http://www.w3.org/2000/svg">
<g clip-path="url(#clip0_21_44)">
<path fill-rule="evenodd" clip-rule="evenodd" d="M8.87174 23.9468C7.59057 25.6762 6.42262 27.5198 5.39473 29.4305C4.48588 31.1199 4 33.0466 4 34.9924V42.6332C4 42.873 4.30708 42.9446 4.40168 42.7269L6.42891 38.0614C6.49385 37.912 6.55836 37.7646 6.63183 37.6197C7.0861 36.7237 8.98967 33.3648 12 33.3648C15.0103 33.3648 16.9139 36.7237 17.3682 37.6197C17.4416 37.7646 17.5062 37.912 17.5711 38.0614L19.5983 42.7269C19.6929 42.9446 20 42.873 20 42.6332V34.9924C20 33.0466 19.5141 31.1199 18.6053 29.4305C17.5774 27.5198 16.4094 25.6762 15.1283 23.9468L12.3309 20.1707C12.1623 19.9431 11.8377 19.9431 11.6691 20.1707L8.87174 23.9468ZM10.953 24.537C10.5202 25.1572 10.1585 25.83 9.87551 26.5411L9.7464 26.8656C9.71243 26.9509 9.69492 27.0427 9.69492 27.1354C9.69492 27.3534 9.77004 27.5639 9.90611 27.7271L9.92118 27.7452C10.0797 27.9354 10.2605 28.1059 10.481 28.2042C10.788 28.3411 11.3067 28.5096 12 28.5096C12.6933 28.5096 13.212 28.3411 13.519 28.2042C13.7395 28.1059 13.9203 27.9354 14.0788 27.7452L14.0939 27.7271C14.23 27.5639 14.3051 27.3534 14.3051 27.1354C14.3051 27.0427 14.2876 26.9509 14.2536 26.8656L14.1245 26.5411C13.8415 25.83 13.4798 25.1572 13.047 24.537L12.1723 23.2835C12.0866 23.1606 11.9135 23.1606 11.8277 23.2835L10.953 24.537Z" fill="#FF0000"/>
</g>
<defs>
<clipPath id="clip0_21_44">
<rect width="24" height="24" fill="white"/>
</clipPath>
</defs>
</svg>
