<svg width="24" height="24" viewBox="0 0 24 24" fill="none" xmlns="http://www.w3.org/2000/svg">
<path fill-rule="evenodd" clip-rule="evenodd" d="M11.207 1.04307C9.65597 1.19307 8.09597 1.84607 6.89997 2.84707C5.98497 3.61207 5.30697 4.47707 4.79997 5.52907C3.60197 8.00907 3.75797 10.8791 5.21797 13.2341C5.84497 14.2461 6.86697 15.2641 7.80497 15.8131L7.98997 15.9221L8.01097 16.6911C8.02697 17.2971 8.04897 17.5281 8.11597 17.7801C8.39397 18.8331 9.15397 19.5951 10.22 19.8891C10.523 19.9731 10.617 19.9771 12 19.9771C13.38 19.9771 13.477 19.9721 13.772 19.8901C14.852 19.5871 15.602 18.8371 15.884 17.7781C15.951 17.5271 15.973 17.2981 15.989 16.6911L16.01 15.9221L16.195 15.8151C16.565 15.6011 17.269 15.0391 17.649 14.6541C20.073 12.1991 20.685 8.60207 19.2 5.52907C18.693 4.47707 18.015 3.61207 17.1 2.84707C15.482 1.49307 13.338 0.837066 11.207 1.04307ZM12.564 3.03907C14.921 3.26907 16.913 4.83707 17.671 7.06007C18.2 8.61107 18.071 10.3121 17.316 11.7581C16.736 12.8691 15.93 13.6831 14.8 14.3011C14.316 14.5651 14.224 14.6401 14.108 14.8601C14.03 15.0081 14.021 15.1051 13.997 16.1441C13.972 17.2201 13.967 17.2771 13.876 17.4591C13.772 17.6671 13.615 17.8181 13.4 17.9161C13.281 17.9701 13.069 17.9801 12 17.9801C10.762 17.9801 10.737 17.9781 10.551 17.8871C10.447 17.8361 10.314 17.7371 10.255 17.6671C10.044 17.4171 10.031 17.3411 10.003 16.1401C9.96897 14.6921 9.98597 14.7311 9.19997 14.3011C8.62597 13.9871 8.20897 13.6831 7.80197 13.2801C5.65697 11.1561 5.40597 7.82007 7.20897 5.40007C7.31597 5.25707 7.55097 4.98907 7.73097 4.80507C9.00797 3.50307 10.757 2.86407 12.564 3.03907ZM9.17997 21.0391C8.71497 21.1591 8.51397 21.4471 8.51197 21.9971C8.50997 22.5011 8.71097 22.8271 9.09597 22.9411C9.39097 23.0291 14.609 23.0291 14.904 22.9411C15.29 22.8271 15.486 22.5081 15.486 21.9971C15.486 21.4911 15.303 21.1961 14.909 21.0641C14.74 21.0081 14.391 21.0001 12.009 21.0041C10.519 21.0061 9.24597 21.0221 9.17997 21.0391Z" fill="#FF0000"/>
</svg>
