<svg width="24" height="24" viewBox="0 0 24 24" fill="none" xmlns="http://www.w3.org/2000/svg">
<path fill-rule="evenodd" clip-rule="evenodd" d="M7.95896 1.05392C7.66896 1.11692 7.40796 1.27392 7.19996 1.50892C7.07296 1.65292 6.47596 2.81092 4.75696 6.24592C3.50696 8.74692 2.44696 10.9009 2.40196 11.0349C2.19596 11.6459 2.39296 12.3029 2.89596 12.6789C3.31396 12.9919 3.15896 12.9779 6.32496 12.9999L9.14996 13.0199L7.81596 17.4599C6.84396 20.6969 6.48296 21.9539 6.48196 22.0999C6.48196 22.2129 6.51496 22.3729 6.55796 22.4679C6.74996 22.8909 7.46896 23.1279 7.91196 22.9139C8.04696 22.8489 9.56196 21.3009 14.41 16.2739C17.887 12.6679 20.815 9.61392 20.918 9.48692C21.627 8.60292 21.354 7.49592 20.331 7.10892C20.102 7.02192 20.071 7.02092 16.776 7.00092L13.453 6.97992L14.345 4.59992C14.835 3.29192 15.248 2.15192 15.262 2.06692C15.329 1.67192 15.146 1.33992 14.746 1.12792L14.54 1.01992L11.36 1.01292C9.00896 1.00792 8.12196 1.01792 7.95896 1.05392ZM12.781 3.06992C12.766 3.10892 12.365 4.17492 11.89 5.43992C11.254 7.13192 11.021 7.79792 11.009 7.95992C10.977 8.37592 11.132 8.70692 11.442 8.87992L11.62 8.97992L15.123 8.99992L18.626 9.01992L14.164 13.6479C11.71 16.1929 9.69496 18.2679 9.68696 18.2599C9.67796 18.2509 10.08 16.8799 10.581 15.2119C11.365 12.5969 11.49 12.1459 11.487 11.9319C11.481 11.5299 11.311 11.2349 11 11.0869C10.874 11.0269 10.557 11.0189 7.74996 11.0089C6.03996 11.0029 4.63996 10.9889 4.63996 10.9789C4.63996 10.9689 5.53496 9.16892 6.62996 6.97992L8.61996 2.99992H10.714C12.693 2.99992 12.807 3.00392 12.781 3.06992Z" fill="#FF0000"/>
</svg>
