<svg width="22" height="22" viewBox="0 0 22 22" fill="none" xmlns="http://www.w3.org/2000/svg">
<path d="M0.26959 13.535C0.22064 13.3263 0.469236 13.1949 0.620794 13.3465L8.65352 21.3792C8.80508 21.5308 8.67365 21.7794 8.46498 21.7304C4.41133 20.7795 1.22051 17.5887 0.26959 13.535ZM0.000416096 10.3156C-0.00346553 10.3779 0.019968 10.4388 0.0641219 10.4829L11.5171 21.9359C11.5612 21.98 11.6221 22.0035 11.6844 21.9996C12.2056 21.9671 12.717 21.8984 13.2161 21.7959C13.3843 21.7613 13.4427 21.5547 13.3213 21.4333L0.566709 8.67867C0.4453 8.55725 0.238652 8.61568 0.204111 8.78387C0.101609 9.28296 0.0328803 9.79437 0.000416096 10.3156ZM0.926405 6.53519C0.889777 6.61742 0.908433 6.71352 0.972088 6.77719L15.2228 21.0279C15.2865 21.0916 15.3826 21.1102 15.4648 21.0736C15.8578 20.8986 16.2386 20.7012 16.6056 20.4831C16.7271 20.411 16.7458 20.244 16.6459 20.1442L1.85585 5.35407C1.75595 5.25417 1.58905 5.27291 1.51688 5.39438C1.29879 5.76142 1.10143 6.14224 0.926405 6.53519ZM2.78491 3.97628C2.70349 3.89486 2.69845 3.76426 2.77517 3.67838C4.79149 1.42105 7.72451 0 10.9894 0C17.0704 0 22 4.9296 22 11.0106C22 14.2755 20.579 17.2085 18.3216 19.2248C18.2358 19.3015 18.1051 19.2965 18.0237 19.2151L2.78491 3.97628Z" fill="#FF0000"/>
</svg>
