<svg width="16" height="16" viewBox="0 0 16 16" fill="none" xmlns="http://www.w3.org/2000/svg">
<g clip-path="url(#clip0_29_16977)">
<path fill-rule="evenodd" clip-rule="evenodd" d="M5.74266 0.704655C5.58466 0.753988 5.47466 0.840655 5.40599 0.968655C5.34866 1.07599 5.34666 1.10999 5.33866 1.93866C5.33333 2.47999 5.34066 2.83599 5.35866 2.90132C5.42933 3.16465 5.62133 3.30732 5.93066 3.32732C6.25399 3.34799 6.46599 3.25465 6.58666 3.03866L6.65333 2.91999V1.99999C6.65333 1.09999 6.65199 1.07732 6.59399 0.968655C6.56133 0.907988 6.49733 0.831322 6.45199 0.799322C6.27599 0.673322 5.97133 0.633322 5.74266 0.704655ZM11 1.38732C10.6007 1.42066 10.1667 1.54199 9.81266 1.71932C9.40599 1.92332 9.23199 2.06999 8.31266 2.98399C7.70666 3.58665 7.39399 3.91665 7.35666 3.99266C7.23866 4.23732 7.31133 4.48665 7.57066 4.72666C7.78066 4.92066 7.94199 4.96799 8.16999 4.90132C8.26199 4.87466 8.42399 4.72732 9.14666 4.01332C10.004 3.16666 10.21 2.99065 10.4987 2.86332C10.982 2.64932 11.7027 2.66332 12.164 2.89465C12.698 3.16265 13.086 3.63132 13.2307 4.18266C13.2933 4.42266 13.3053 4.88732 13.2547 5.12865C13.2087 5.34665 13.0907 5.62066 12.9573 5.81799C12.894 5.91132 12.4673 6.36599 11.998 6.83999C11.4187 7.42465 11.1393 7.72599 11.1093 7.79665C11.02 8.01132 11.072 8.21199 11.2733 8.42932C11.506 8.68065 11.7447 8.75599 11.9887 8.65399C12.1227 8.59865 13.72 7.01399 13.9607 6.69866C14.1687 6.42532 14.404 5.95932 14.4953 5.63999C14.7713 4.67065 14.6193 3.68132 14.0653 2.84999C13.608 2.16265 12.8507 1.63999 12.0447 1.45466C11.894 1.41999 11.2987 1.35199 11.2533 1.36399C11.246 1.36599 11.132 1.37666 11 1.38732ZM2.17333 1.65799C1.88133 1.76732 1.62599 2.08599 1.62733 2.33932C1.62866 2.54532 1.70933 2.65265 2.32799 3.27199C2.95733 3.90132 3.05333 3.97132 3.27799 3.97266C3.43266 3.97332 3.58666 3.89666 3.74199 3.74199C3.97066 3.51266 4.02799 3.28399 3.91799 3.03999C3.84733 2.88399 2.73066 1.76532 2.57466 1.69399C2.44266 1.63332 2.27799 1.61866 2.17333 1.65799ZM10.1733 4.99265C10.1293 5.00866 10.0453 5.05466 9.98666 5.09532C9.92799 5.13599 8.79733 6.25332 7.47466 7.57799C5.61333 9.44199 5.05733 10.014 5.01533 10.1067C4.90533 10.3507 4.96733 10.5747 5.21133 10.812C5.46599 11.0613 5.71133 11.102 5.96599 10.938C6.03599 10.8927 7.18066 9.76599 8.50933 8.43466C11.128 5.81132 11.0593 5.88732 11.034 5.62532C11.0047 5.32065 10.6267 4.96399 10.3333 4.96399C10.2893 4.96399 10.2173 4.97732 10.1733 4.99265ZM1.07599 5.37132C0.917993 5.42066 0.807993 5.50732 0.739326 5.63532C0.689993 5.72799 0.679993 5.78932 0.679993 5.99999C0.679993 6.22065 0.688659 6.26865 0.746659 6.37199C0.819993 6.50332 0.942659 6.59865 1.08999 6.63932C1.21733 6.67465 2.78266 6.67465 2.90999 6.63932C3.05733 6.59865 3.17999 6.50332 3.25333 6.37199C3.31133 6.26799 3.31999 6.22132 3.31933 5.99999C3.31866 5.79132 3.30799 5.72732 3.25999 5.63532C3.19066 5.50399 3.08199 5.42066 2.91399 5.36999C2.74466 5.31932 1.23933 5.32065 1.07599 5.37132ZM3.98599 7.36199C3.84999 7.43332 2.25999 9.01332 2.05133 9.28465C1.54866 9.93799 1.29733 10.8227 1.38599 11.6267C1.47333 12.424 1.79333 13.0987 2.34733 13.6527C2.91999 14.2247 3.59799 14.5393 4.42666 14.6167C4.81733 14.6533 5.23133 14.612 5.63999 14.4953C5.95933 14.404 6.42533 14.1687 6.69866 13.9607C7.01399 13.72 8.59866 12.1227 8.65399 11.9887C8.70866 11.858 8.70999 11.6913 8.65733 11.5653C8.55799 11.328 8.21333 11.0667 7.99999 11.0673C7.79466 11.068 7.69933 11.1447 6.81399 12.0227C6.34399 12.488 5.89066 12.914 5.80666 12.9693C5.45066 13.202 5.15066 13.29 4.70666 13.2907C4.45533 13.2913 4.34199 13.2787 4.17866 13.232C3.61266 13.0707 3.16199 12.6953 2.89466 12.164C2.66333 11.7027 2.64933 10.982 2.86333 10.4987C2.99066 10.21 3.16666 10.004 4.01333 9.14666C4.89799 8.25132 4.93333 8.20732 4.93333 7.99999C4.93333 7.79332 4.70133 7.47399 4.47066 7.36199C4.32066 7.28932 4.12533 7.28932 3.98599 7.36199ZM13.076 9.37132C12.918 9.42066 12.808 9.50732 12.7393 9.63532C12.69 9.72799 12.68 9.78932 12.68 9.99999C12.68 10.2207 12.6887 10.2687 12.7467 10.372C12.82 10.5033 12.9427 10.5987 13.09 10.6393C13.2173 10.6747 14.7827 10.6747 14.91 10.6393C15.0573 10.5987 15.18 10.5033 15.2533 10.372C15.3113 10.268 15.32 10.2213 15.3193 9.99999C15.3187 9.79132 15.308 9.72732 15.26 9.63532C15.1907 9.50399 15.082 9.42066 14.914 9.36999C14.7447 9.31932 13.2393 9.32065 13.076 9.37132ZM12.4907 12.0807C12.3493 12.1507 12.148 12.3533 12.08 12.4933C12.012 12.6333 12.0127 12.8073 12.0813 12.958C12.1467 13.1013 13.1687 14.144 13.3727 14.2747C13.4853 14.3473 13.5307 14.36 13.67 14.36C13.8187 14.36 13.85 14.3493 13.9907 14.2533C14.1887 14.1173 14.3473 13.8927 14.3667 13.7227C14.394 13.4767 14.3453 13.4067 13.6827 12.7413C13.0407 12.096 12.9487 12.0287 12.72 12.0273C12.652 12.0267 12.5527 12.05 12.4907 12.0807ZM9.74266 12.7047C9.58466 12.754 9.47466 12.8407 9.40599 12.9687C9.34866 13.076 9.34666 13.11 9.33866 13.9387C9.33333 14.48 9.34066 14.836 9.35866 14.9013C9.42933 15.1647 9.62133 15.3073 9.93066 15.3273C10.254 15.348 10.466 15.2547 10.5867 15.0387L10.6533 14.92V14C10.6533 13.1 10.652 13.0773 10.594 12.9687C10.5613 12.908 10.4973 12.8313 10.452 12.7993C10.276 12.6733 9.97132 12.6333 9.74266 12.7047Z" fill="#FF8272"/>
</g>
<defs>
<clipPath id="clip0_29_16977">
<rect width="16" height="16" fill="white"/>
</clipPath>
</defs>
</svg>
