<svg width="24" height="24" viewBox="0 0 24 24" fill="none" xmlns="http://www.w3.org/2000/svg">
<path fill-rule="evenodd" clip-rule="evenodd" d="M16.0599 1.13792C15.3549 1.25692 14.9999 1.36592 14.4029 1.64592C13.6489 1.99892 13.3029 2.26492 12.1389 3.38992C11.5549 3.95492 11.0069 4.50792 10.9219 4.61892C10.5829 5.05992 10.6269 5.46292 11.0619 5.89092C11.2829 6.10892 11.5419 6.23992 11.7499 6.23892C12.0589 6.23692 12.2109 6.11992 13.2969 5.04692C14.3869 3.96992 14.6499 3.75192 15.1799 3.48792C16.2119 2.97392 17.4719 2.94192 18.5289 3.40292C19.7499 3.93492 20.5929 4.98892 20.8619 6.31792C20.9639 6.82092 20.9269 7.69092 20.7819 8.17792C20.6549 8.60692 20.3919 9.12492 20.1229 9.47992C20.0149 9.62292 19.1549 10.5069 18.2129 11.4439C16.4009 13.2459 16.2279 13.3929 15.6009 13.6649C15.0259 13.9139 14.7349 13.9719 14.0399 13.9759C13.3549 13.9799 13.0789 13.9329 12.5299 13.7169C11.9089 13.4739 11.3779 13.0839 10.9009 12.5219C10.5379 12.0939 10.3369 11.9599 10.0559 11.9599C9.69594 11.9609 9.20894 12.2699 9.03694 12.6059C8.93494 12.8049 8.93694 13.1119 9.04094 13.3329C9.24794 13.7729 10.1179 14.6389 10.7699 15.0529C12.5689 16.1959 14.7819 16.3089 16.6959 15.3549C17.5049 14.9519 17.7109 14.7759 19.7039 12.7829C21.7049 10.7829 21.8719 10.5869 22.2869 9.76992C23.3249 7.72292 23.1079 5.29992 21.7209 3.43992C21.4839 3.12192 20.9469 2.58692 20.5999 2.32292C19.8659 1.76492 19.0479 1.38592 18.1679 1.19792C17.6669 1.08992 16.5339 1.05792 16.0599 1.13792ZM9.15994 8.06192C7.93894 8.23292 6.87194 8.74392 5.91094 9.61692C5.08794 10.3639 2.46294 13.0499 2.21294 13.3999C1.55194 14.3259 1.17194 15.3559 1.08494 16.4629C0.872943 19.1519 2.46094 21.6249 5.00394 22.5629C5.68094 22.8119 6.28894 22.9189 7.03994 22.9189C8.37794 22.9189 9.52294 22.5479 10.5999 21.7659C11.0189 21.4629 13.0979 19.3899 13.2039 19.1709C13.3759 18.8159 13.2739 18.4349 12.9179 18.1019C12.6869 17.8859 12.4389 17.7619 12.2399 17.7619C11.9429 17.7619 11.7809 17.8869 10.7219 18.9339C10.1599 19.4899 9.57794 20.0369 9.42894 20.1489C9.09094 20.4029 8.60594 20.6419 8.13894 20.7849C7.80394 20.8879 7.73194 20.8949 7.05994 20.8949C6.39094 20.8949 6.31494 20.8869 5.97994 20.7859C5.16994 20.5409 4.46394 20.0739 3.96194 19.4529C3.53294 18.9229 3.27894 18.3769 3.13794 17.6799C3.03694 17.1819 3.07394 16.3079 3.21594 15.8279C3.33194 15.4369 3.52994 15.0219 3.77094 14.6599C3.94794 14.3949 7.15894 11.1429 7.52394 10.8589C7.98794 10.4979 8.54194 10.2319 9.11994 10.0929C9.34094 10.0399 9.57294 10.0219 9.99994 10.0229C10.7309 10.0249 11.1179 10.1129 11.7449 10.4189C12.2919 10.6859 12.6909 10.9979 13.0949 11.4749C13.4619 11.9059 13.6629 12.0399 13.9439 12.0399C14.3039 12.0389 14.7909 11.7299 14.9629 11.3939C15.0719 11.1809 15.0639 10.8849 14.9429 10.6459C14.6979 10.1619 13.8489 9.32892 13.1909 8.92592C11.9409 8.16192 10.5579 7.86492 9.15994 8.06192Z" fill="#FF1200"/>
</svg>
