<svg width="24" height="24" viewBox="0 0 24 24" fill="none" xmlns="http://www.w3.org/2000/svg">
<path fill-rule="evenodd" clip-rule="evenodd" d="M17.719 1.99887L14.658 2.01987L14.459 2.12187C14.119 2.29687 13.978 2.60587 14.009 3.10387C14.038 3.56287 14.25 3.85187 14.635 3.95887C14.723 3.98387 15.53 3.99987 16.68 3.99987H18.579L14.853 7.72987C12.206 10.3799 11.102 11.5109 11.039 11.6369C10.863 11.9899 10.952 12.3549 11.299 12.7009C11.645 13.0479 12.01 13.1369 12.363 12.9609C12.489 12.8979 13.62 11.7939 16.27 9.14687L20 5.42087V7.31987C20 8.46987 20.016 9.27687 20.041 9.36487C20.148 9.74987 20.437 9.96187 20.896 9.99087C21.381 10.0219 21.699 9.88187 21.88 9.55787L21.98 9.37987L22.007 6.21987C22.022 4.48187 22.035 3.00087 22.037 2.92887C22.041 2.74387 21.835 2.30987 21.696 2.21187C21.467 2.05187 21.198 1.95987 20.985 1.96887C20.872 1.97387 19.402 1.98787 17.719 1.99887ZM5.92 2.04187C5.155 2.09087 4.674 2.20387 4.18 2.45087C3.089 2.99587 2.357 3.96087 2.124 5.15987C2.013 5.72887 2 6.45487 2 11.9999C2 18.3579 2.006 18.5259 2.245 19.3199C2.577 20.4219 3.578 21.4229 4.68 21.7549C5.474 21.9939 5.642 21.9999 12 21.9999C18.358 21.9999 18.526 21.9939 19.32 21.7549C20.422 21.4229 21.425 20.4209 21.755 19.3199C21.972 18.5969 22.008 18.0359 21.993 15.6199C21.98 13.6399 21.979 13.6179 21.891 13.4529C21.689 13.0759 21.138 12.9019 20.629 13.0549C20.378 13.1309 20.215 13.2559 20.109 13.4529C20.021 13.6179 20.02 13.6429 19.994 15.9199C19.966 18.3819 19.954 18.5369 19.752 18.9519C19.626 19.2109 19.19 19.6379 18.918 19.7679C18.466 19.9849 18.627 19.9799 12 19.9799C5.383 19.9799 5.538 19.9849 5.082 19.7709C4.812 19.6429 4.377 19.2169 4.248 18.9519C4.198 18.8489 4.126 18.6329 4.088 18.4719C4.025 18.2029 4.02 17.6869 4.02 11.9999C4.02 6.31287 4.025 5.79687 4.088 5.52787C4.126 5.36687 4.198 5.15087 4.248 5.04787C4.366 4.80587 4.806 4.36587 5.048 4.24787C5.463 4.04587 5.618 4.03387 8.08 4.00587C10.33 3.98087 10.383 3.97787 10.54 3.89387C10.875 3.71487 10.978 3.50387 10.978 2.99987C10.978 2.56687 10.899 2.35587 10.678 2.19887C10.409 2.00687 10.316 1.99987 8.284 2.00587C7.237 2.00887 6.173 2.02487 5.92 2.04187Z" fill="white"/>
</svg>
