<svg width="14" height="14" viewBox="0 0 14 14" fill="none" xmlns="http://www.w3.org/2000/svg">
<path fill-rule="evenodd" clip-rule="evenodd" d="M3.72166 3.52508C2.20733 3.67442 0.980582 4.79208 0.649832 6.32333C0.573998 6.67683 0.573998 7.32317 0.649832 7.67667C0.954332 9.08717 1.9845 10.1214 3.395 10.4318C3.60558 10.4778 3.71233 10.4843 4.49283 10.4936C5.07558 10.5006 5.38825 10.4959 5.45183 10.479C5.59008 10.4417 5.69742 10.3606 5.76333 10.2422C5.81408 10.1512 5.82167 10.1103 5.82108 9.91667C5.8205 9.66408 5.77383 9.54042 5.6455 9.44942C5.49733 9.34325 5.40633 9.33333 4.61416 9.33333C3.95325 9.33333 3.84241 9.32808 3.63241 9.28492C2.6635 9.08775 1.93025 8.32125 1.78383 7.35292C1.74183 7.07058 1.74183 6.92942 1.78383 6.64708C1.91333 5.79017 2.52233 5.06917 3.35708 4.78508C3.633 4.69117 3.90366 4.66725 4.66666 4.66667C5.07091 4.66667 5.41508 4.65617 5.46291 4.64275C5.59183 4.60717 5.69917 4.52375 5.76333 4.40883C5.81408 4.31783 5.82167 4.277 5.82108 4.08333C5.8205 3.83075 5.77383 3.70708 5.6455 3.61608C5.49675 3.50992 5.40691 3.5 4.634 3.50292C4.235 3.50467 3.82433 3.51458 3.72166 3.52508ZM8.52483 3.53325C8.38658 3.57642 8.29033 3.65225 8.23025 3.76425C8.18708 3.84533 8.17833 3.899 8.17833 4.08333C8.17833 4.27642 8.18591 4.31842 8.23666 4.40883C8.30083 4.52375 8.40817 4.60717 8.53708 4.64275C8.58492 4.65617 8.92908 4.66667 9.33333 4.66667C10.3075 4.66725 10.5338 4.704 10.99 4.93733C11.5144 5.20567 11.9362 5.69975 12.1316 6.27375C12.1899 6.44583 12.25 6.81333 12.25 7C12.25 7.18783 12.1899 7.55475 12.131 7.72625C11.8539 8.53533 11.1971 9.11633 10.3676 9.28492C10.1576 9.32808 10.0467 9.33333 9.38583 9.33333C8.59366 9.33333 8.50266 9.34325 8.3545 9.44942C8.225 9.54158 8.17833 9.66467 8.17833 9.91667C8.17833 10.1098 8.18591 10.1518 8.23666 10.2422C8.30258 10.3606 8.40992 10.4417 8.54817 10.479C8.61175 10.4959 8.92442 10.5006 9.50717 10.4936C10.4592 10.4819 10.5857 10.4668 11.0483 10.3087C12.2232 9.90617 13.0818 8.92383 13.3496 7.67667C13.4254 7.32317 13.4254 6.67683 13.3496 6.32333C13.1985 5.61808 12.8969 5.05167 12.4069 4.55292C11.8172 3.95208 11.0886 3.605 10.2457 3.52275C9.89683 3.48892 8.64208 3.4965 8.52483 3.53325ZM3.85816 6.44992C3.71991 6.49308 3.62366 6.56892 3.56358 6.68092C3.52041 6.762 3.51166 6.81567 3.51166 7C3.51166 7.19308 3.51925 7.23508 3.57 7.3255C3.63416 7.44042 3.7415 7.52383 3.87041 7.55942C3.9865 7.59208 10.0135 7.59208 10.1296 7.55942C10.2585 7.52383 10.3658 7.44042 10.43 7.3255C10.4807 7.2345 10.4883 7.19367 10.4877 7C10.4872 6.74742 10.4405 6.62375 10.3122 6.53275C10.1442 6.41317 10.2462 6.41667 6.99067 6.41842C4.5675 6.41958 3.93516 6.426 3.85816 6.44992Z" fill="white"/>
</svg>
