<svg width="24" height="24" viewBox="0 0 24 24" fill="none" xmlns="http://www.w3.org/2000/svg">
<path d="M9.75789 8.96842C9.75789 9.80557 9.07926 10.4842 8.24211 10.4842C7.40495 10.4842 6.72632 9.80557 6.72632 8.96842C6.72632 8.13127 7.40495 7.45263 8.24211 7.45263C9.07926 7.45263 9.75789 8.13127 9.75789 8.96842Z" fill="#050505"/>
<path d="M9.75789 8.96842C9.75789 9.80557 9.07926 10.4842 8.24211 10.4842C7.40495 10.4842 6.72632 9.80557 6.72632 8.96842C6.72632 8.13127 7.40495 7.45263 8.24211 7.45263C9.07926 7.45263 9.75789 8.13127 9.75789 8.96842Z" fill="white"/>
<path d="M15.7579 10.4842C16.595 10.4842 17.2737 9.80557 17.2737 8.96842C17.2737 8.13127 16.595 7.45263 15.7579 7.45263C14.9207 7.45263 14.2421 8.13127 14.2421 8.96842C14.2421 9.80557 14.9207 10.4842 15.7579 10.4842Z" fill="#050505"/>
<path d="M15.7579 10.4842C16.595 10.4842 17.2737 9.80557 17.2737 8.96842C17.2737 8.13127 16.595 7.45263 15.7579 7.45263C14.9207 7.45263 14.2421 8.13127 14.2421 8.96842C14.2421 9.80557 14.9207 10.4842 15.7579 10.4842Z" fill="white"/>
<path fill-rule="evenodd" clip-rule="evenodd" d="M3 9C3 4.02944 7.02943 0 12 0C16.9706 0 21 4.02944 21 9V22.8C21 23.4627 20.4627 24 19.8 24H4.2C3.53726 24 3 23.4627 3 22.8V9ZM11.2737 11.3376V8.08421H11.2711C11.2049 6.4685 9.8741 5.17895 8.24211 5.17895C6.61012 5.17895 5.27934 6.4685 5.21312 8.08421H5.21053V14.9368C5.21053 14.9474 5.21048 14.9579 5.21053 14.9684C5.22753 18.7036 8.26081 21.7263 12 21.7263C15.7392 21.7263 18.7725 18.7036 18.7895 14.9684C18.7895 14.9579 18.7895 14.9474 18.7895 14.9368V8.08421H18.7869C18.7207 6.4685 17.3899 5.17895 15.7579 5.17895C14.1259 5.17895 12.7951 6.4685 12.7289 8.08421H12.7263V11.3221C14.0658 11.6361 15.0632 12.8384 15.0632 14.2737C15.0632 15.948 13.7059 17.3053 12.0316 17.3053C10.3573 17.3053 9 15.948 9 14.2737C9 12.8611 9.96613 11.6741 11.2737 11.3376Z" fill="#050505"/>
<path fill-rule="evenodd" clip-rule="evenodd" d="M3 9C3 4.02944 7.02943 0 12 0C16.9706 0 21 4.02944 21 9V22.8C21 23.4627 20.4627 24 19.8 24H4.2C3.53726 24 3 23.4627 3 22.8V9ZM11.2737 11.3376V8.08421H11.2711C11.2049 6.4685 9.8741 5.17895 8.24211 5.17895C6.61012 5.17895 5.27934 6.4685 5.21312 8.08421H5.21053V14.9368C5.21053 14.9474 5.21048 14.9579 5.21053 14.9684C5.22753 18.7036 8.26081 21.7263 12 21.7263C15.7392 21.7263 18.7725 18.7036 18.7895 14.9684C18.7895 14.9579 18.7895 14.9474 18.7895 14.9368V8.08421H18.7869C18.7207 6.4685 17.3899 5.17895 15.7579 5.17895C14.1259 5.17895 12.7951 6.4685 12.7289 8.08421H12.7263V11.3221C14.0658 11.6361 15.0632 12.8384 15.0632 14.2737C15.0632 15.948 13.7059 17.3053 12.0316 17.3053C10.3573 17.3053 9 15.948 9 14.2737C9 12.8611 9.96613 11.6741 11.2737 11.3376Z" fill="white"/>
</svg>
