<svg width="24" height="24" viewBox="0 0 24 24" fill="none" xmlns="http://www.w3.org/2000/svg">
<path fill-rule="evenodd" clip-rule="evenodd" d="M11.614 1.05689C11.377 1.13089 11.212 1.26089 11.109 1.45289C11.02 1.61889 11.02 1.62889 11.009 3.91089C11.001 5.39189 11.012 6.25589 11.039 6.35489C11.144 6.74689 11.433 6.96089 11.896 6.99089C12.381 7.02189 12.699 6.88189 12.88 6.55789L12.98 6.37989V3.99989V1.61989L12.891 1.45289C12.842 1.36189 12.746 1.24689 12.678 1.19889C12.414 1.00989 11.957 0.949891 11.614 1.05689ZM4.54602 4.04489C4.34302 4.15189 4.06602 4.43189 3.96302 4.63489C3.85302 4.84889 3.85402 5.15089 3.96402 5.37189C4.09202 5.62789 7.16402 8.69089 7.40002 8.79689C7.76202 8.95989 8.13302 8.86189 8.46602 8.51289C8.79602 8.16789 8.87702 7.83489 8.71702 7.47989C8.61102 7.24389 5.54802 4.17189 5.29202 4.04389C5.07202 3.93389 4.75502 3.93489 4.54602 4.04489ZM18.7 4.04589C18.605 4.09489 17.892 4.77489 16.952 5.71389C15.277 7.38689 15.203 7.47589 15.201 7.82489C15.2 8.05489 15.293 8.25489 15.511 8.48789C15.86 8.85989 16.228 8.96489 16.6 8.79689C16.836 8.69089 19.908 5.62789 20.036 5.37189C20.212 5.01989 20.121 4.63889 19.781 4.29889C19.441 3.95889 19.047 3.86689 18.7 4.04589ZM1.61402 11.0569C1.37702 11.1309 1.21202 11.2609 1.10902 11.4529C1.03502 11.5919 1.02002 11.6839 1.02002 11.9999C1.02002 12.3309 1.03302 12.4029 1.12002 12.5579C1.23002 12.7549 1.41402 12.8979 1.63502 12.9589C1.83102 13.0139 6.16902 13.0139 6.36502 12.9589C6.58602 12.8979 6.77002 12.7549 6.88002 12.5579C6.96702 12.4019 6.98002 12.3319 6.97902 11.9999C6.97802 11.5669 6.89802 11.3549 6.67802 11.1989C6.40602 11.0049 6.33602 10.9999 3.98402 11.0029C2.29302 11.0049 1.74102 11.0169 1.61402 11.0569ZM17.614 11.0569C17.377 11.1309 17.212 11.2609 17.109 11.4529C17.035 11.5919 17.02 11.6839 17.02 11.9999C17.02 12.3309 17.033 12.4029 17.12 12.5579C17.23 12.7549 17.414 12.8979 17.635 12.9589C17.831 13.0139 22.169 13.0139 22.365 12.9589C22.586 12.8979 22.77 12.7549 22.88 12.5579C22.967 12.4019 22.98 12.3319 22.979 11.9999C22.978 11.5669 22.898 11.3549 22.678 11.1989C22.406 11.0049 22.336 10.9999 19.984 11.0029C18.293 11.0049 17.741 11.0169 17.614 11.0569ZM7.40002 15.2829C7.15902 15.3909 4.09202 18.4529 3.96002 18.7159C3.78502 19.0669 3.87502 19.4369 4.21902 19.7809C4.55902 20.1209 4.94002 20.2119 5.29202 20.0359C5.54802 19.9079 8.61102 16.8359 8.71702 16.5999C8.87702 16.2449 8.80602 15.9309 8.48902 15.5919C8.14002 15.2199 7.77202 15.1149 7.40002 15.2829ZM15.879 15.2979C15.659 15.4129 15.347 15.7379 15.262 15.9409C15.178 16.1429 15.185 16.3839 15.283 16.5999C15.389 16.8359 18.452 19.9079 18.708 20.0359C19.06 20.2119 19.441 20.1209 19.781 19.7809C20.121 19.4409 20.212 19.0599 20.036 18.7079C19.908 18.4519 16.836 15.3889 16.6 15.2829C16.36 15.1749 16.105 15.1799 15.879 15.2979ZM11.614 17.0569C11.377 17.1309 11.212 17.2609 11.109 17.4529C11.02 17.6189 11.02 17.6289 11.009 19.9109C11.001 21.3919 11.012 22.2559 11.039 22.3549C11.144 22.7469 11.433 22.9609 11.896 22.9909C12.381 23.0219 12.699 22.8819 12.88 22.5579L12.98 22.3799V19.9999V17.6199L12.891 17.4529C12.842 17.3619 12.746 17.2469 12.678 17.1989C12.414 17.0099 11.957 16.9499 11.614 17.0569Z" fill="#FF1200"/>
</svg>
