<svg width="16" height="16" viewBox="0 0 16 16" fill="none" xmlns="http://www.w3.org/2000/svg">
<g clip-path="url(#clip0_4211_4998)">
<path d="M15.3065 6.34973C15.7622 6.80542 15.99 7.35539 15.99 7.99964C15.99 8.6439 15.7622 9.19387 15.3065 9.64956C14.8508 10.1053 14.3008 10.3331 13.6565 10.3331C13.0123 10.3331 12.4623 10.1053 12.0066 9.64956C11.5509 9.19387 11.3231 8.6439 11.3231 7.99964C11.3231 7.35539 11.5509 6.80542 12.0066 6.34973C12.1795 6.17688 12.372 6.03546 12.5841 5.92546C12.7962 5.81547 13.0241 5.74083 13.2676 5.70155L12.9494 6.01974C12.8159 5.6819 12.6489 5.36174 12.4486 5.05926C12.2482 4.75677 12.0223 4.47982 11.7709 4.22841C10.7181 3.1756 9.46105 2.6492 7.99969 2.6492C6.53834 2.6492 5.28126 3.1756 4.22846 4.22841L3.28565 3.2856C3.93776 2.63349 4.67433 2.14441 5.49536 1.81835C6.31639 1.4923 7.15117 1.32927 7.99969 1.32927C8.84822 1.32927 9.683 1.4923 10.504 1.81835C11.3251 2.14441 12.0616 2.63349 12.7137 3.2856C13.0673 3.63915 13.3757 4.02217 13.6389 4.43465C13.9021 4.84713 14.1162 5.28514 14.2812 5.74869C14.4776 5.80368 14.6622 5.88225 14.8351 5.98439C15.0079 6.08653 15.165 6.20831 15.3065 6.34973ZM14.3637 7.29254C14.1672 7.09612 13.9315 6.99791 13.6565 6.99791C13.3816 6.99791 13.1459 7.09612 12.9494 7.29254C12.753 7.48896 12.6548 7.72466 12.6548 7.99964C12.6548 8.27463 12.753 8.51033 12.9494 8.70675C13.1459 8.90317 13.3816 9.00138 13.6565 9.00138C13.9315 9.00138 14.1672 8.90317 14.3637 8.70675C14.5601 8.51033 14.6583 8.27463 14.6583 7.99964C14.6583 7.72466 14.5601 7.48896 14.3637 7.29254ZM9.64961 6.34973C10.1053 6.80542 10.3331 7.35539 10.3331 7.99964C10.3331 8.6439 10.1053 9.19387 9.64961 9.64956C9.19392 10.1053 8.64395 10.3331 7.99969 10.3331C7.35544 10.3331 6.80547 10.1053 6.34978 9.64956C5.89409 9.19387 5.66624 8.6439 5.66624 7.99964C5.66624 7.35539 5.89409 6.80542 6.34978 6.34973C6.80547 5.89404 7.35544 5.66619 7.99969 5.66619C8.64395 5.66619 9.19392 5.89404 9.64961 6.34973ZM12.7137 12.7137C12.0616 13.3658 11.3251 13.8549 10.504 14.1809C9.683 14.507 8.84822 14.67 7.99969 14.67C7.15117 14.67 6.31639 14.507 5.49536 14.1809C4.67433 13.8549 3.93776 13.3658 3.28565 12.7137C2.9321 12.3601 2.62372 11.9771 2.36052 11.5646C2.09732 11.1522 1.88322 10.7141 1.71823 10.2506C1.52181 10.1956 1.33718 10.117 1.16433 10.0149C0.991481 9.91276 0.834346 9.79098 0.692924 9.64956C0.237233 9.19387 0.00938792 8.6439 0.00938792 7.99964C0.00938792 7.35539 0.237233 6.80542 0.692924 6.34973C1.14862 5.89404 1.69859 5.66619 2.34284 5.66619C2.98709 5.66619 3.53707 5.89404 3.99276 6.34973C4.44845 6.80542 4.67629 7.35539 4.67629 7.99964C4.67629 8.6439 4.44845 9.19387 3.99276 9.64956C3.81991 9.82241 3.62742 9.96383 3.41529 10.0738C3.20315 10.1838 2.97531 10.2585 2.73175 10.2977L3.04995 9.97954C3.18351 10.3174 3.35047 10.6375 3.55081 10.94C3.75116 11.2425 3.97704 11.5195 4.22846 11.7709C5.28126 12.8237 6.53834 13.3501 7.99969 13.3501C9.46105 13.3501 10.7181 12.8237 11.7709 11.7709L12.7137 12.7137ZM3.04995 7.29254C2.85353 7.09612 2.61783 6.99791 2.34284 6.99791C2.06785 6.99791 1.83215 7.09612 1.63573 7.29254C1.43932 7.48896 1.34111 7.72466 1.34111 7.99964C1.34111 8.27463 1.43932 8.51033 1.63573 8.70675C1.83215 8.90317 2.06785 9.00138 2.34284 9.00138C2.61783 9.00138 2.85353 8.90317 3.04995 8.70675C3.24637 8.51033 3.34458 8.27463 3.34458 7.99964C3.34458 7.72466 3.24637 7.48896 3.04995 7.29254Z" fill="#FF8FFD"/>
</g>
<defs>
<clipPath id="clip0_4211_4998">
<rect width="16" height="16" fill="white"/>
</clipPath>
</defs>
</svg>
