<svg width="18" height="20" viewBox="0 0 18 20" fill="none" xmlns="http://www.w3.org/2000/svg">
<path fill-rule="evenodd" clip-rule="evenodd" d="M8.38 0.0400306C5.764 0.321031 3.681 2.21503 3.119 4.82003C3.049 5.14303 3.028 5.40503 3.011 6.18403L2.99 7.14703L2.705 7.23903C1.545 7.61003 0.579 8.56803 0.245 9.68003C0.0319999 10.388 0 10.88 0 13.5C0 16.12 0.0319999 16.612 0.245 17.32C0.577 18.422 1.578 19.423 2.68 19.755C3.46 19.99 3.716 20 9 20C14.284 20 14.54 19.99 15.32 19.755C16.422 19.423 17.423 18.422 17.755 17.32C17.968 16.612 18 16.12 18 13.5C18 10.88 17.968 10.388 17.755 9.68003C17.424 8.58103 16.465 7.62203 15.32 7.24603C14.665 7.03103 14.664 7.03103 9.65 7.01203L5 6.99503V6.38703C5.001 5.38803 5.114 4.84403 5.464 4.16003C5.924 3.26103 6.771 2.53803 7.756 2.20303C8.667 1.89303 9.872 1.97103 10.716 2.39303C11.604 2.83803 12.15 3.38603 12.615 4.30203C12.94 4.94103 13.237 5.12203 13.743 4.99003C14.196 4.87103 14.509 4.60603 14.604 4.26403C14.713 3.87003 14.187 2.81703 13.468 1.99003C12.678 1.08203 11.315 0.318031 10.094 0.101031C9.66 0.0240307 8.81 -0.00696937 8.38 0.0400306ZM14.492 9.09103C14.893 9.18803 15.109 9.30903 15.4 9.60003C15.697 9.89603 15.814 10.11 15.911 10.528C15.971 10.787 15.979 11.126 15.979 13.5C15.979 16.406 15.972 16.499 15.752 16.952C15.626 17.211 15.19 17.638 14.918 17.768C14.471 17.983 14.547 17.98 9 17.98C3.462 17.98 3.533 17.983 3.082 17.771C2.812 17.643 2.377 17.217 2.248 16.952C2.028 16.499 2.021 16.406 2.021 13.5C2.021 11.126 2.029 10.787 2.089 10.528C2.175 10.156 2.294 9.91903 2.52 9.66703C2.883 9.26203 3.281 9.09103 3.98 9.03903C4.2 9.02303 6.594 9.01303 9.3 9.01803C13.701 9.02503 14.249 9.03303 14.492 9.09103ZM8.545 11.579C8.32 11.659 8.128 11.863 8.059 12.096C7.974 12.384 7.974 14.616 8.059 14.904C8.173 15.287 8.493 15.486 8.997 15.488C9.501 15.49 9.827 15.289 9.941 14.904C10.027 14.613 10.026 12.383 9.94 12.092C9.868 11.852 9.645 11.627 9.413 11.563C9.2 11.504 8.731 11.513 8.545 11.579Z" fill="#FF0000"/>
</svg>
