<svg width="24" height="24" viewBox="0 0 24 24" fill="none" xmlns="http://www.w3.org/2000/svg">
<path fill-rule="evenodd" clip-rule="evenodd" d="M5.92 2.04194C5.155 2.09094 4.674 2.20394 4.18 2.45094C3.089 2.99594 2.357 3.96094 2.124 5.15994C2.013 5.72894 2 6.45494 2 11.9999C2 18.3579 2.006 18.5259 2.245 19.3199C2.518 20.2279 3.251 21.0849 4.141 21.5349C4.613 21.7749 5.072 21.8909 5.82 21.9589C6.395 22.0119 9.174 22.0119 9.365 21.9589C9.586 21.8979 9.77 21.7549 9.88 21.5579C9.967 21.4019 9.98 21.3319 9.979 20.9999C9.977 20.4689 9.849 20.2419 9.455 20.0719C9.373 20.0369 8.835 20.0159 7.56 19.9969C6.401 19.9809 5.696 19.9539 5.54 19.9219C5.159 19.8439 4.887 19.6929 4.6 19.4029C4.303 19.1039 4.186 18.8899 4.088 18.4719C4.025 18.2029 4.02 17.6869 4.02 11.9999C4.02 6.31294 4.025 5.79694 4.088 5.52794C4.186 5.10894 4.304 4.89494 4.6 4.59994C5.13 4.06994 5.269 4.04194 7.58 4.00694C9.311 3.97994 9.386 3.97594 9.54 3.89394C9.874 3.71594 9.978 3.50394 9.978 2.99994C9.978 2.56694 9.899 2.35594 9.678 2.19894C9.418 2.01394 9.28 1.99994 7.784 2.00594C7.012 2.00894 6.173 2.02494 5.92 2.04194ZM15.626 6.04494C15.42 6.15394 15.146 6.43294 15.038 6.64394C14.924 6.86794 14.924 7.13294 15.04 7.36294C15.1 7.48294 15.679 8.09194 16.853 9.26994L18.578 10.9999H13.695C8.462 10.9999 8.608 10.9949 8.322 11.1989C8.1 11.3569 8.02 11.5679 8.02 11.9999C8.02 12.3309 8.033 12.4029 8.12 12.5579C8.23 12.7549 8.414 12.8979 8.635 12.9589C8.729 12.9849 10.52 12.9999 13.679 12.9999H18.578L16.853 14.7299C15.679 15.9079 15.1 16.5169 15.04 16.6369C14.863 16.9889 14.952 17.3539 15.299 17.7009C15.646 18.0479 16.01 18.1369 16.363 17.9599C16.486 17.8989 17.313 17.1029 19.061 15.3659C20.448 13.9879 21.634 12.8259 21.696 12.7839C21.85 12.6819 22.049 12.2389 22.049 11.9999C22.049 11.7439 21.851 11.3209 21.676 11.2009C21.601 11.1499 20.415 9.98794 19.04 8.61794C17.379 6.96394 16.483 6.09994 16.372 6.04394C16.152 5.93394 15.835 5.93494 15.626 6.04494Z" fill="#FF0000"/>
</svg>
