<svg width="24" height="24" viewBox="0 0 24 24" fill="none" xmlns="http://www.w3.org/2000/svg">
<g id="maximize-01">
<path id="Vector" fill-rule="evenodd" clip-rule="evenodd" d="M17.719 1.99911L14.658 2.02011L14.459 2.12211C14.119 2.29711 13.978 2.60611 14.009 3.10411C14.038 3.56311 14.25 3.85211 14.635 3.95911C14.723 3.98411 15.53 4.00011 16.679 4.00011H18.579L15.853 6.73011C13.942 8.64411 13.102 9.51311 13.039 9.63711C12.863 9.99011 12.952 10.3541 13.299 10.7011C13.646 11.0481 14.01 11.1371 14.363 10.9611C14.487 10.8981 15.356 10.0581 17.27 8.14711L20 5.42111V7.32111C20 8.47011 20.016 9.27711 20.041 9.36511C20.148 9.75011 20.437 9.96211 20.896 9.99111C21.381 10.0221 21.699 9.88211 21.88 9.55811L21.98 9.38011L22.007 6.22011C22.022 4.48211 22.035 3.00111 22.037 2.92911C22.041 2.74411 21.835 2.31011 21.696 2.21211C21.467 2.05211 21.198 1.96011 20.985 1.96911C20.872 1.97411 19.402 1.98811 17.719 1.99911ZM9.61996 13.0461C9.52196 13.0971 8.40396 14.1821 6.73196 15.8521L4.00396 18.5751L3.99196 16.5981C3.97996 14.6401 3.97896 14.6181 3.89096 14.4531C3.78496 14.2561 3.62196 14.1311 3.37096 14.0551C2.86196 13.9021 2.31096 14.0761 2.10896 14.4531L2.01996 14.6201L1.99296 17.7801C1.97896 19.5181 1.96496 20.9981 1.96296 21.0691C1.95896 21.2081 2.12096 21.6101 2.23196 21.7351C2.33096 21.8481 2.77696 22.0401 2.92896 22.0371C3.00096 22.0351 4.48196 22.0211 6.21996 22.0071C9.34896 21.9801 9.38196 21.9791 9.53996 21.8941C9.87496 21.7151 9.97796 21.5041 9.97796 21.0001C9.97796 20.5671 9.89896 20.3561 9.67796 20.1991C9.41096 20.0081 9.31096 20.0001 7.30396 20.0001H5.42096L8.14696 17.2701C10.058 15.3561 10.898 14.4871 10.961 14.3631C11.137 14.0101 11.048 13.6461 10.701 13.2991C10.361 12.9591 9.96696 12.8671 9.61996 13.0461Z" fill="#FF0000"/>
</g>
</svg>
