<svg width="24" height="24" viewBox="0 0 24 24" fill="none" xmlns="http://www.w3.org/2000/svg">
<path fill-rule="evenodd" clip-rule="evenodd" d="M2.61402 5.05701C2.37702 5.13101 2.21202 5.26101 2.10902 5.45301C2.03502 5.59201 2.02002 5.68401 2.02002 6.00001C2.02002 6.33101 2.03302 6.40301 2.12002 6.55801C2.23002 6.75501 2.41402 6.89801 2.63502 6.95901C2.83502 7.01501 21.165 7.01501 21.365 6.95901C21.586 6.89801 21.77 6.75501 21.88 6.55801C21.967 6.40201 21.98 6.33201 21.979 6.00001C21.978 5.56701 21.898 5.35501 21.678 5.19901C21.385 4.99001 21.877 5.00001 11.984 5.00301C4.54602 5.00501 2.74802 5.01501 2.61402 5.05701ZM2.61402 11.057C2.37702 11.131 2.21202 11.261 2.10902 11.453C2.03502 11.592 2.02002 11.684 2.02002 12C2.02002 12.331 2.03302 12.403 2.12002 12.558C2.23002 12.755 2.41402 12.898 2.63502 12.959C2.83502 13.015 21.165 13.015 21.365 12.959C21.586 12.898 21.77 12.755 21.88 12.558C21.967 12.402 21.98 12.332 21.979 12C21.978 11.567 21.898 11.355 21.678 11.199C21.385 10.99 21.877 11 11.984 11.003C4.54602 11.005 2.74802 11.015 2.61402 11.057ZM2.61402 17.057C2.37702 17.131 2.21202 17.261 2.10902 17.453C2.03502 17.592 2.02002 17.684 2.02002 18C2.02002 18.331 2.03302 18.403 2.12002 18.558C2.23002 18.755 2.41402 18.898 2.63502 18.959C2.83502 19.015 21.165 19.015 21.365 18.959C21.586 18.898 21.77 18.755 21.88 18.558C21.967 18.402 21.98 18.332 21.979 18C21.978 17.567 21.898 17.355 21.678 17.199C21.385 16.99 21.877 17 11.984 17.003C4.54602 17.005 2.74802 17.015 2.61402 17.057Z" fill="#FF0000"/>
</svg>
