<svg width="24" height="24" viewBox="0 0 24 24" fill="none" xmlns="http://www.w3.org/2000/svg">
    <path fill-rule="evenodd" clip-rule="evenodd" d="M5.91999 2.04111C5.66699 2.05811 5.34299 2.09211 5.19999 2.11811C4.02699 2.32611 2.99899 3.08611 2.46499 4.14111C2.22499 4.61311 2.10899 5.07211 2.04099 5.82011C1.98699 6.40711 1.98699 15.0181 2.04099 15.4891C2.18999 16.7951 3.01899 17.9661 4.21999 18.5701C4.70499 18.8141 5.43599 18.9971 5.92999 19.0001C5.99499 19.0001 5.99999 19.0741 5.99999 19.9951C5.99999 20.5421 6.01799 21.0851 6.03999 21.2021C6.23699 22.2371 7.23999 22.7451 8.16599 22.2771C8.29199 22.2141 9.18299 21.5311 10.147 20.7601C12.016 19.2661 12.24 19.1161 12.72 19.0411C12.874 19.0171 13.952 19.0001 15.36 19.0001C18.126 19.0001 18.606 18.9701 19.32 18.7551C20.422 18.4231 21.423 17.4221 21.755 16.3201C21.987 15.5491 22 15.2481 22 10.5001C22 5.75211 21.987 5.45111 21.755 4.68011C21.424 3.58111 20.465 2.62211 19.32 2.24611C18.644 2.02411 18.8 2.02911 12.34 2.01911C9.06199 2.01411 6.17299 2.02411 5.91999 2.04111ZM18.492 4.09111C18.894 4.18811 19.109 4.30911 19.4 4.60011C19.696 4.89511 19.814 5.10911 19.912 5.52811C19.974 5.79511 19.98 6.22811 19.98 10.5001C19.98 15.6081 19.986 15.4721 19.752 15.9521C19.627 16.2101 19.19 16.6381 18.92 16.7671C18.516 16.9611 18.432 16.9661 15.36 17.0001C12.389 17.0331 12.316 17.0371 11.8 17.2061C11.177 17.4101 10.986 17.5391 9.27299 18.9051L8.00499 19.9151L7.99299 18.7681C7.98099 17.6701 7.97599 17.6131 7.89099 17.4531C7.79899 17.2821 7.65599 17.1571 7.45499 17.0751C7.38799 17.0471 6.97399 17.0151 6.45999 16.9971C5.72599 16.9721 5.54099 16.9531 5.34599 16.8841C4.77199 16.6811 4.36599 16.2841 4.12799 15.6901L4.01999 15.4201V10.6201C4.01999 6.23411 4.02599 5.79511 4.08799 5.52811C4.17499 5.15511 4.29399 4.91811 4.51999 4.66711C4.88299 4.26211 5.28199 4.09111 5.97999 4.03911C6.19999 4.02311 9.04399 4.01311 12.3 4.01811C17.643 4.02411 18.247 4.03211 18.492 4.09111ZM11.545 6.57911C11.46 6.60911 11.329 6.69311 11.254 6.76611C11.025 6.98811 11 7.14711 11 8.40711V9.52011H9.86999C9.19699 9.52011 8.67799 9.53811 8.58699 9.56311C8.35499 9.62711 8.13199 9.85211 8.05999 10.0921C7.93499 10.5131 8.01699 11.0041 8.24899 11.2291C8.50999 11.4821 8.57999 11.4941 9.84999 11.5121L11 11.5281V12.6171C11 13.8441 11.026 14.0131 11.249 14.2291C11.442 14.4161 11.647 14.4871 11.997 14.4881C12.348 14.4901 12.556 14.4181 12.751 14.2291C12.974 14.0131 13 13.8441 13 12.6161V11.5271L14.15 11.5121C15.42 11.4961 15.488 11.4841 15.751 11.2291C15.983 11.0041 16.065 10.5131 15.94 10.0921C15.868 9.85211 15.645 9.62711 15.413 9.56311C15.322 9.53811 14.803 9.52011 14.13 9.52011H13V8.40711C13 7.11411 12.977 6.97711 12.723 6.74711C12.636 6.66911 12.497 6.58611 12.413 6.56311C12.2 6.50411 11.731 6.51311 11.545 6.57911Z" fill="#FF0000"/>
</svg>
