<svg width="24" height="24" viewBox="0 0 16 16" fill="none" xmlns="http://www.w3.org/2000/svg">
<path fill-rule="evenodd" clip-rule="evenodd" transform="translate(0.6672 0.6784)" d="M2.61333 0.0155265C2.10067 0.0495265 1.78133 0.12486 1.45333 0.28886C0.726 0.652193 0.238 1.29553 0.0826666 2.09486C0.0126666 2.45353 0 2.93286 0 5.17819C0 7.74819 0.000666658 7.76486 0.158 8.22086C0.311333 8.66753 0.614 9.08819 1.012 9.40819C1.36733 9.69353 1.65333 9.81886 2.298 9.97153L2.36933 9.98819L2.38 10.8482C2.38933 11.6609 2.39333 11.7175 2.45 11.8735C2.59067 12.2582 2.95667 12.5029 3.392 12.5029C3.548 12.5029 3.60333 12.4882 3.78 12.4022C3.97067 12.3095 4.038 12.2509 4.656 11.6289L5.326 10.9562L5.344 11.2542C5.38267 11.9015 5.55467 12.3155 5.944 12.6969C6.12467 12.8735 6.36133 13.0262 6.58467 13.1102C6.924 13.2382 7.03333 13.2469 8.44 13.2649C9.68133 13.2802 9.78 13.2849 9.86667 13.3322C9.918 13.3602 10.3453 13.6509 10.8173 13.9789C11.2887 14.3069 11.7247 14.5929 11.7873 14.6149C12.0973 14.7249 12.4447 14.6142 12.5867 14.3602C12.65 14.2482 12.654 14.2155 12.6627 13.7575C12.6727 13.2189 12.6627 13.2435 12.8667 13.2415C13.0413 13.2395 13.332 13.1569 13.56 13.0435C14.0833 12.7842 14.43 12.3615 14.594 11.7815C14.652 11.5775 14.6527 11.5495 14.6527 9.66819C14.6533 7.90286 14.6493 7.74553 14.604 7.54819C14.5373 7.26286 14.4567 7.06886 14.318 6.86486C13.9813 6.36819 13.4767 6.07553 12.8687 6.02419L12.6667 6.00686V4.41753C12.6667 2.57153 12.6467 2.25086 12.5033 1.77486C12.2827 1.04219 11.6433 0.40286 10.88 0.152193C10.4333 0.0055265 10.5 0.0075265 6.56 0.000859837C4.558 -0.0024735 2.782 0.00419314 2.61333 0.0155265ZM10.328 1.38219C10.428 1.40619 10.566 1.45353 10.6347 1.48686C10.796 1.56553 11.0893 1.85886 11.168 2.02019C11.3073 2.30686 11.3127 2.37686 11.326 4.24819L11.3387 5.98819H9.42267C7.092 5.98819 6.84267 6.00619 6.44733 6.20219C5.89933 6.47419 5.53533 6.93486 5.39733 7.52886C5.36867 7.65353 5.35133 7.91219 5.34133 8.37753L5.32733 9.04686L4.518 9.87086L3.70933 10.6949L3.708 10.2762C3.70733 10.0462 3.69333 9.79419 3.67733 9.71619C3.56467 9.17819 3.11067 8.77019 2.48 8.64219C2.15067 8.57486 1.94 8.46619 1.73267 8.25753C1.52733 8.05019 1.40667 7.82086 1.36 7.54819C1.33667 7.40886 1.33133 6.74286 1.34 4.93486C1.35 2.81953 1.35733 2.48486 1.39467 2.32686C1.45067 2.09019 1.532 1.93086 1.68 1.76619C1.922 1.49619 2.18733 1.38219 2.65333 1.34753C2.8 1.33686 4.546 1.33019 6.53333 1.33353C9.78133 1.33819 10.1653 1.34286 10.328 1.38219ZM12.916 7.37153C13.0567 7.41819 13.2413 7.60886 13.2853 7.75219C13.3127 7.84286 13.32 8.25686 13.32 9.65486V11.4415L13.2413 11.5842C13.0813 11.8722 12.906 11.9309 12.2 11.9335C12.0093 11.9349 11.81 11.9475 11.7567 11.9622C11.504 12.0322 11.3607 12.2249 11.3393 12.5229L11.3267 12.7049L10.958 12.4542C10.5267 12.1615 10.3947 12.0909 10.1293 12.0109C9.942 11.9549 9.87267 11.9522 8.56 11.9369L7.18667 11.9215L7.03333 11.8462C6.80667 11.7349 6.72467 11.6035 6.69 11.2929C6.66867 11.1022 6.66933 10.2702 6.69067 9.32153C6.69067 9.29953 6.68467 9.04153 6.67667 8.74819C6.65867 8.08553 6.69 7.75553 6.786 7.61086C6.88867 7.45619 7.03133 7.37486 7.244 7.34886C7.34467 7.33686 8.63867 7.32953 10.12 7.33219C12.2273 7.33619 12.836 7.34486 12.916 7.37153Z" fill="#FF0000"/>
</svg>
