<svg width="24" height="24" viewBox="0 0 24 24" fill="none" xmlns="http://www.w3.org/2000/svg">
    <path fill-rule="evenodd" clip-rule="evenodd" d="M5.91999 2.04111C5.66699 2.05811 5.34299 2.09211 5.19999 2.11811C4.02699 2.32611 2.99899 3.08611 2.46499 4.14111C2.22499 4.61311 2.10899 5.07211 2.04099 5.82011C1.98699 6.40711 1.98699 15.0181 2.04099 15.4891C2.18999 16.7951 3.01899 17.9661 4.21999 18.5701C4.70499 18.8141 5.43599 18.9971 5.92999 19.0001C5.99499 19.0001 5.99999 19.0741 5.99999 19.9951C5.99999 20.5421 6.01799 21.0851 6.03999 21.2021C6.23699 22.2371 7.23999 22.7451 8.16599 22.2771C8.29199 22.2141 9.18299 21.5311 10.147 20.7601C12.016 19.2661 12.24 19.1161 12.72 19.0411C12.874 19.0171 13.952 19.0001 15.36 19.0001C18.126 19.0001 18.606 18.9701 19.32 18.7551C20.422 18.4231 21.423 17.4221 21.755 16.3201C21.987 15.5491 22 15.2481 22 10.5001C22 5.75211 21.987 5.45111 21.755 4.68011C21.424 3.58111 20.465 2.62211 19.32 2.24611C18.644 2.02411 18.8 2.02911 12.34 2.01911C9.06199 2.01411 6.17299 2.02411 5.91999 2.04111ZM18.492 4.09111C18.894 4.18811 19.109 4.30911 19.4 4.60011C19.696 4.89511 19.814 5.10911 19.912 5.52811C19.974 5.79511 19.98 6.22811 19.98 10.5001C19.98 15.6081 19.986 15.4721 19.752 15.9521C19.627 16.2101 19.19 16.6381 18.92 16.7671C18.516 16.9611 18.432 16.9661 15.36 17.0001C12.389 17.0331 12.316 17.0371 11.8 17.2061C11.177 17.4101 10.986 17.5391 9.27299 18.9051L8.00499 19.9151L7.99299 18.7681C7.98099 17.6701 7.97599 17.6131 7.89099 17.4531C7.79899 17.2821 7.65599 17.1571 7.45499 17.0751C7.38799 17.0471 6.97399 17.0151 6.45999 16.9971C5.72599 16.9721 5.54099 16.9531 5.34599 16.8841C4.77199 16.6811 4.36599 16.2841 4.12799 15.6901L4.01999 15.4201V10.6201C4.01999 6.23411 4.02599 5.79511 4.08799 5.52811C4.17499 5.15511 4.29399 4.91811 4.51999 4.66711C4.88299 4.26211 5.28199 4.09111 5.97999 4.03911C6.19999 4.02311 9.04399 4.01311 12.3 4.01811C17.643 4.02411 18.247 4.03211 18.492 4.09111ZM6.54499 7.57911C6.31999 7.65911 6.12799 7.86311 6.05899 8.09611C5.92799 8.53611 6.01899 9.01911 6.27499 9.25111C6.55899 9.50711 6.46199 9.50011 9.49999 9.50011C12.538 9.50011 12.441 9.50711 12.725 9.25111C12.982 9.01811 13.072 8.53611 12.94 8.09211C12.868 7.85211 12.645 7.62711 12.413 7.56311C12.312 7.53511 11.322 7.52111 9.47999 7.52211C7.21899 7.52311 6.67099 7.53411 6.54499 7.57911ZM6.61399 11.0571C6.37699 11.1311 6.21199 11.2611 6.10899 11.4531C6.03499 11.5921 6.01999 11.6841 6.01999 12.0001C6.01999 12.3311 6.03299 12.4031 6.11999 12.5581C6.22999 12.7551 6.41399 12.8981 6.63499 12.9591C6.83299 13.0141 15.167 13.0141 15.365 12.9591C15.586 12.8981 15.77 12.7551 15.88 12.5581C15.967 12.4021 15.98 12.3321 15.979 12.0001C15.978 11.5671 15.898 11.3551 15.678 11.1991C15.393 10.9961 15.487 11.0001 10.984 11.0031C7.65099 11.0051 6.74599 11.0161 6.61399 11.0571Z" fill="#FF0000"/>
</svg>
