<svg width="24" height="24" viewBox="0 0 24 24" fill="none" xmlns="http://www.w3.org/2000/svg">
<path fill-rule="evenodd" clip-rule="evenodd" d="M11.358 1.06109C9.73097 1.31509 8.41697 2.58409 8.08297 4.22709C8.00197 4.62009 7.99997 4.75009 7.99997 8.50009C7.99997 12.2501 8.00197 12.3801 8.08297 12.7731C8.35697 14.1181 9.24897 15.1951 10.512 15.7041C11.231 15.9941 12.023 16.0701 12.757 15.9211C14.384 15.5891 15.589 14.3841 15.921 12.7571C15.997 12.3841 16 12.2011 16 8.50009C16 4.79909 15.997 4.61609 15.921 4.24309C15.721 3.26409 15.197 2.41509 14.438 1.84309C13.866 1.41209 13.276 1.16009 12.605 1.05809C12.144 0.989091 11.816 0.990091 11.358 1.06109ZM12.523 3.07309C13.022 3.20309 13.516 3.59909 13.772 4.07109C13.999 4.49009 13.999 4.48909 13.999 8.50009C13.999 12.5101 13.999 12.5071 13.772 12.9311C13.625 13.2081 13.191 13.6431 12.93 13.7751C12.346 14.0711 11.658 14.0731 11.083 13.7811C10.816 13.6461 10.449 13.2971 10.281 13.0171C9.99597 12.5441 10.005 12.6891 10.002 8.52809C9.99997 4.37809 9.99497 4.46409 10.265 4.01409C10.745 3.21209 11.635 2.84109 12.523 3.07309ZM4.61397 9.05709C4.37697 9.13109 4.21197 9.26109 4.10897 9.45309C4.02297 9.61509 4.01997 9.66309 4.00697 10.9801C3.99397 12.4141 4.02497 12.9321 4.16597 13.6201C4.39897 14.7561 4.94797 15.9491 5.67397 16.9001C5.93297 17.2391 6.60597 17.9251 6.95997 18.2111C7.68697 18.7991 8.61997 19.3071 9.49997 19.5951C9.97897 19.7511 10.703 19.9201 10.898 19.9201H11V20.4601V21.0001H9.40597C7.70997 21.0001 7.58397 21.0121 7.32197 21.1991C7.09997 21.3571 7.01997 21.5681 7.01997 22.0001C7.01997 22.3311 7.03297 22.4031 7.11997 22.5581C7.22997 22.7551 7.41397 22.8981 7.63497 22.9591C7.83297 23.0141 16.167 23.0141 16.365 22.9591C16.586 22.8981 16.77 22.7551 16.88 22.5581C16.967 22.4021 16.98 22.3321 16.979 22.0001C16.978 21.5671 16.898 21.3551 16.678 21.1991C16.416 21.0121 16.29 21.0001 14.594 21.0001H13V20.4601V19.9201H13.102C13.297 19.9201 14.021 19.7511 14.5 19.5951C15.38 19.3071 16.313 18.7991 17.04 18.2111C17.394 17.9251 18.067 17.2391 18.326 16.9001C19.052 15.9491 19.601 14.7561 19.834 13.6201C19.976 12.9291 20.007 12.4141 19.993 10.9801C19.98 9.65509 19.978 9.61609 19.889 9.45009C19.724 9.14009 19.329 8.97009 18.874 9.01109C18.439 9.05109 18.141 9.27409 18.041 9.63509C18.018 9.71709 18 10.3031 17.999 10.9801C17.997 12.6211 17.938 13.1581 17.671 13.9401C16.988 15.9441 15.291 17.4281 13.16 17.8851C12.81 17.9601 12.617 17.9751 12 17.9751C11.179 17.9751 10.754 17.9091 10.06 17.6721C8.36497 17.0941 6.95697 15.7071 6.36097 14.0291C6.06897 13.2071 6.03597 12.9371 6.00497 11.1601C5.97897 9.67609 5.97497 9.61409 5.88997 9.45309C5.84097 9.36209 5.74597 9.24709 5.67797 9.19909C5.41397 9.01009 4.95697 8.95009 4.61397 9.05709Z" fill="#FF0000"/>
</svg>
