<svg width="24" height="24" viewBox="0 0 24 24" fill="none" xmlns="http://www.w3.org/2000/svg">
<path fill-rule="evenodd" clip-rule="evenodd" d="M20.62 2.04606C20.522 2.09706 19.404 3.18206 17.732 4.85206L15.004 7.57506L14.992 5.59806C14.98 3.64006 14.979 3.61806 14.891 3.45306C14.785 3.25606 14.622 3.13106 14.371 3.05506C13.862 2.90206 13.311 3.07606 13.109 3.45306L13.02 3.62006L12.993 6.78006C12.979 8.51806 12.965 9.99806 12.963 10.0691C12.959 10.2081 13.121 10.6101 13.232 10.7351C13.331 10.8481 13.777 11.0401 13.929 11.0371C14.001 11.0351 15.482 11.0211 17.22 11.0071C20.349 10.9801 20.382 10.9791 20.54 10.8941C20.875 10.7151 20.978 10.5041 20.978 10.0001C20.978 9.56706 20.899 9.35606 20.678 9.19906C20.411 9.00806 20.311 9.00006 18.304 9.00006H16.421L19.147 6.27006C21.058 4.35606 21.898 3.48706 21.961 3.36306C22.137 3.01006 22.048 2.64606 21.701 2.29906C21.361 1.95906 20.967 1.86706 20.62 2.04606ZM6.71898 12.9991L3.65798 13.0201L3.45898 13.1221C3.11898 13.2971 2.97798 13.6061 3.00898 14.1041C3.03798 14.5631 3.24998 14.8521 3.63498 14.9591C3.72298 14.9841 4.52998 15.0001 5.67898 15.0001H7.57898L4.85298 17.7301C2.94198 19.6441 2.10198 20.5131 2.03898 20.6371C1.86298 20.9901 1.95198 21.3541 2.29898 21.7011C2.64598 22.0481 3.00998 22.1371 3.36298 21.9611C3.48698 21.8981 4.35598 21.0581 6.26998 19.1471L8.99998 16.4211V18.3211C8.99998 19.4701 9.01598 20.2771 9.04098 20.3651C9.14798 20.7501 9.43698 20.9621 9.89598 20.9911C10.381 21.0221 10.699 20.8821 10.88 20.5581L10.98 20.3801L11.007 17.2201C11.022 15.4821 11.035 14.0011 11.037 13.9291C11.041 13.7441 10.835 13.3101 10.696 13.2121C10.467 13.0521 10.198 12.9601 9.98498 12.9691C9.87198 12.9741 8.40198 12.9881 6.71898 12.9991Z" fill="#FF0000"/>
</svg>
