<svg width="24" height="24" viewBox="0 0 24 24" fill="none" xmlns="http://www.w3.org/2000/svg">
<path fill-rule="evenodd" clip-rule="evenodd" d="M11.28 1.02299C11.203 1.03199 10.951 1.05899 10.72 1.08299C9.52703 1.20999 8.33703 1.55799 7.18003 2.11999C6.04503 2.67099 5.19303 3.28499 4.23803 4.23899C3.27703 5.19799 2.64303 6.07999 2.09703 7.21999C0.301033 10.968 0.728033 15.286 3.22603 18.633C3.70103 19.269 4.75303 20.316 5.40003 20.797C9.36403 23.745 14.666 23.734 18.637 20.77C19.246 20.316 20.316 19.246 20.77 18.637C23.744 14.652 23.744 9.34799 20.77 5.36299C20.316 4.75499 19.247 3.68599 18.64 3.23499C17.045 2.04899 15.365 1.35999 13.423 1.09599C13 1.03799 11.574 0.989989 11.28 1.02299ZM13.32 3.10099C15.883 3.48799 18.124 4.93099 19.56 7.11999C19.863 7.58299 20.303 8.47899 20.492 9.01999C20.838 10.013 20.977 10.865 20.977 12C20.977 13.493 20.72 14.621 20.08 15.94C19.375 17.394 18.311 18.607 16.927 19.532C16.138 20.06 14.876 20.588 13.908 20.797C11.266 21.366 8.47903 20.708 6.37003 19.019C4.85703 17.807 3.72203 16.029 3.26703 14.16C3.08103 13.397 3.02303 12.888 3.02303 12C3.02303 10.507 3.28003 9.37899 3.92003 8.05999C4.97103 5.89099 6.87703 4.22099 9.16003 3.46599C9.86503 3.23299 10.432 3.11799 11.34 3.02399C11.662 2.99099 12.911 3.03899 13.32 3.10099ZM7.61403 11.057C7.37703 11.131 7.21203 11.261 7.10903 11.453C7.03503 11.592 7.02003 11.684 7.02003 12C7.02003 12.331 7.03303 12.403 7.12003 12.558C7.23003 12.755 7.41403 12.898 7.63503 12.959C7.83303 13.014 16.167 13.014 16.365 12.959C16.586 12.898 16.77 12.755 16.88 12.558C16.967 12.402 16.98 12.332 16.979 12C16.978 11.567 16.898 11.355 16.678 11.199C16.393 10.996 16.487 11 11.984 11.003C8.65103 11.005 7.74603 11.016 7.61403 11.057Z" fill="#FF0000"/>
</svg>
