<svg width="24" height="24" viewBox="0 0 24 24" fill="none" xmlns="http://www.w3.org/2000/svg">
<path fill-rule="evenodd" clip-rule="evenodd" d="M4.61402 11.057C4.37702 11.131 4.21202 11.261 4.10902 11.453C4.03502 11.592 4.02002 11.684 4.02002 12C4.02002 12.331 4.03302 12.403 4.12002 12.558C4.23002 12.755 4.41402 12.898 4.63502 12.959C4.83502 13.015 19.165 13.015 19.365 12.959C19.586 12.898 19.77 12.755 19.88 12.558C19.967 12.402 19.98 12.332 19.979 12C19.978 11.567 19.898 11.355 19.678 11.199C19.387 10.991 19.72 11 11.984 11.003C6.18802 11.005 4.74702 11.016 4.61402 11.057Z" fill="#FF0000"/>
</svg>
