<svg width="24" height="24" viewBox="0 0 24 24" fill="none" xmlns="http://www.w3.org/2000/svg">
<g clip-path="url(#clip0_120108_15185)">
<path fill-rule="evenodd" clip-rule="evenodd" d="M11.53 1.08507C11.392 1.15207 11.248 1.25407 11.21 1.31107C11.1711 1.36907 10.463 2.10107 9.63505 2.93807C8.63505 3.94907 8.09905 4.52007 8.04005 4.63707C7.86305 4.98907 7.95205 5.35407 8.29905 5.70107C8.64605 6.04807 9.01205 6.13707 9.36305 5.95907C9.46905 5.90507 9.83205 5.58007 10.2701 5.14707L11 4.42507V7.71207V11.0001H7.71205H4.42505L5.14705 10.2701C5.58005 9.83207 5.90505 9.46907 5.95905 9.36307C6.13705 9.01207 6.04805 8.64607 5.70105 8.29907C5.36105 7.95907 4.98005 7.86807 4.62805 8.04407C4.52105 8.09807 3.91505 8.67007 2.96005 9.61807C2.13505 10.4381 1.39905 11.1501 1.32405 11.2011C1.14905 11.3211 0.95105 11.7451 0.95105 12.0001C0.95105 12.2381 1.15005 12.6821 1.30305 12.7841C1.36605 12.8261 2.10105 13.5371 2.93805 14.3651C3.94905 15.3651 4.52005 15.9011 4.63705 15.9601C4.98905 16.1371 5.35405 16.0481 5.70105 15.7011C6.04805 15.3541 6.13705 14.9881 5.95905 14.6371C5.90505 14.5311 5.58005 14.1681 5.14705 13.7301L4.42505 13.0001H7.71205H11V16.2881V19.5751L10.2701 18.8531C9.85605 18.4441 9.46705 18.0941 9.37205 18.0451C9.02105 17.8681 8.64005 17.9581 8.29905 18.2991C7.95205 18.6461 7.86305 19.0111 8.04005 19.3631C8.09905 19.4801 8.63505 20.0511 9.63505 21.0621C10.463 21.8991 11.174 22.6341 11.216 22.6971C11.318 22.8501 11.762 23.0491 12 23.0491C12.238 23.0491 12.682 22.8501 12.784 22.6971C12.826 22.6341 13.537 21.8991 14.365 21.0621C15.365 20.0511 15.901 19.4801 15.96 19.3631C16.137 19.0111 16.048 18.6461 15.701 18.2991C15.3601 17.9581 14.979 17.8681 14.628 18.0451C14.533 18.0941 14.144 18.4441 13.73 18.8531L13 19.5751V16.2881V13.0001H16.288H19.5751L18.8531 13.7301C18.42 14.1681 18.0951 14.5311 18.041 14.6371C17.8631 14.9881 17.952 15.3541 18.299 15.7011C18.646 16.0481 19.0111 16.1371 19.3631 15.9601C19.4801 15.9011 20.0511 15.3651 21.062 14.3651C21.899 13.5371 22.6341 12.8261 22.6971 12.7841C22.85 12.6821 23.049 12.2381 23.049 12.0001C23.049 11.7451 22.851 11.3211 22.6761 11.2011C22.601 11.1501 21.8651 10.4381 21.0401 9.61807C20.0851 8.67007 19.479 8.09807 19.372 8.04407C19.0201 7.86807 18.639 7.95907 18.299 8.29907C17.952 8.64607 17.8631 9.01207 18.041 9.36307C18.0951 9.46907 18.42 9.83207 18.8531 10.2701L19.5751 11.0001H16.288H13V7.71207V4.42507L13.73 5.14707C14.168 5.58007 14.531 5.90507 14.637 5.95907C14.988 6.13707 15.354 6.04807 15.701 5.70107C16.048 5.35407 16.137 4.98907 15.96 4.63707C15.901 4.52007 15.365 3.94907 14.365 2.93807C13.537 2.10107 12.829 1.36907 12.79 1.31107C12.752 1.25407 12.604 1.15107 12.46 1.08307C12.113 0.919071 11.873 0.920071 11.53 1.08507Z" fill="#FF0000"/>
</g>
<defs>
<clipPath id="clip0_120108_15185">
<rect width="24" height="24" fill="white"/>
</clipPath>
</defs>
</svg>
