<svg width="18" height="18" viewBox="0 0 18 18" fill="none" xmlns="http://www.w3.org/2000/svg">
    <path fill-rule="evenodd" clip-rule="evenodd" d="M3.93332 0.701049C3.29249 0.743549 2.89332 0.837715 2.48332 1.04272C1.57416 1.49688 0.964157 2.30105 0.76999 3.30022C0.67749 3.77438 0.666656 4.37938 0.666656 9.00022C0.666656 14.2985 0.671656 14.4385 0.870823 15.1002C1.14749 16.0185 1.98166 16.8527 2.89999 17.1294C3.56166 17.3285 3.70166 17.3335 8.99999 17.3335C14.2983 17.3335 14.4383 17.3285 15.1 17.1294C16.0183 16.8527 16.8525 16.0185 17.1292 15.1002C17.3283 14.4385 17.3333 14.2985 17.3333 9.00022C17.3333 3.70188 17.3283 3.56188 17.1292 2.90022C16.8533 1.98438 16.0542 1.18522 15.1 0.871882C14.5367 0.686882 14.6667 0.691049 9.28332 0.682715C6.55166 0.678549 4.14416 0.686882 3.93332 0.701049ZM8.16666 9.00272V15.6719L5.97499 15.6569C4.41832 15.6469 3.72999 15.6302 3.59999 15.6019C3.29416 15.5336 3.06666 15.4052 2.83332 15.1694C2.58582 14.9202 2.48832 14.7419 2.40666 14.3935C2.35416 14.1694 2.34999 13.7394 2.34999 9.00022C2.34999 4.26105 2.35416 3.83105 2.40666 3.60688C2.47916 3.29605 2.57832 3.09855 2.76666 2.88938C3.06999 2.55105 3.40249 2.40855 3.98332 2.36688C4.16666 2.35438 5.18332 2.34105 6.24166 2.33855L8.16666 2.33355V9.00272ZM14.41 2.41105C14.535 2.44022 14.7075 2.49855 14.7933 2.54022C14.995 2.63855 15.3617 3.00522 15.46 3.20688C15.6342 3.56522 15.6408 3.65272 15.6575 5.99188L15.6733 8.16688H12.7533H9.83332V5.24688V2.32688L12.0083 2.34272C13.8392 2.35605 14.2192 2.36688 14.41 2.41105ZM15.6575 12.0085C15.6408 14.3477 15.6342 14.4352 15.46 14.7935C15.3558 15.0085 14.9917 15.3652 14.7667 15.4727C14.4242 15.6369 14.3592 15.6419 12.025 15.6569L9.83332 15.6719V12.7527V9.83355H12.7533H15.6733L15.6575 12.0085Z" fill="white"/>
</svg>
