<svg width="24" height="24" viewBox="0 0 24 24" fill="none" xmlns="http://www.w3.org/2000/svg">
<path d="M9.75 21C8.9 21 8.16667 20.7042 7.55 20.1125C6.93333 19.5208 6.58333 18.8083 6.5 17.975C5.5 17.8417 4.66667 17.4 4 16.65C3.33333 15.9 3 15.0167 3 14C3 13.65 3.04583 13.3042 3.1375 12.9625C3.22917 12.6208 3.36667 12.3 3.55 12C3.36667 11.7 3.22917 11.3833 3.1375 11.05C3.04583 10.7167 3 10.3667 3 10C3 8.98333 3.33333 8.10417 4 7.3625C4.66667 6.62083 5.49167 6.18333 6.475 6.05C6.525 5.2 6.86667 4.47917 7.5 3.8875C8.13333 3.29583 8.88333 3 9.75 3C10.1833 3 10.5875 3.08333 10.9625 3.25C11.3375 3.41667 11.6833 3.64167 12 3.925C12.3 3.64167 12.6417 3.41667 13.025 3.25C13.4083 3.08333 13.8167 3 14.25 3C15.1167 3 15.8625 3.29167 16.4875 3.875C17.1125 4.45833 17.45 5.175 17.5 6.025C18.4833 6.15833 19.3125 6.6 19.9875 7.35C20.6625 8.1 21 8.98333 21 10C21 10.3667 20.9542 10.7167 20.8625 11.05C20.7708 11.3833 20.6333 11.7 20.45 12C20.6333 12.3 20.7708 12.6208 20.8625 12.9625C20.9542 13.3042 21 13.65 21 14C21 15.0333 20.6625 15.9208 19.9875 16.6625C19.3125 17.4042 18.475 17.8417 17.475 17.975C17.3917 18.8083 17.0458 19.5208 16.4375 20.1125C15.8292 20.7042 15.1 21 14.25 21C13.8333 21 13.4292 20.9208 13.0375 20.7625C12.6458 20.6042 12.3 20.3833 12 20.1C11.6833 20.3833 11.3333 20.6042 10.95 20.7625C10.5667 20.9208 10.1667 21 9.75 21ZM13 6.25V17.75C13 18.1 13.1208 18.3958 13.3625 18.6375C13.6042 18.8792 13.9 19 14.25 19C14.5833 19 14.8708 18.8667 15.1125 18.6C15.3542 18.3333 15.4833 18.0333 15.5 17.7C15.15 17.5667 14.8292 17.3875 14.5375 17.1625C14.2458 16.9375 13.9833 16.6667 13.75 16.35C13.5833 16.1167 13.5208 15.8667 13.5625 15.6C13.6042 15.3333 13.7417 15.1167 13.975 14.95C14.2083 14.7833 14.4583 14.7208 14.725 14.7625C14.9917 14.8042 15.2083 14.9417 15.375 15.175C15.5583 15.4417 15.7917 15.6458 16.075 15.7875C16.3583 15.9292 16.6667 16 17 16C17.55 16 18.0208 15.8042 18.4125 15.4125C18.8042 15.0208 19 14.55 19 14C19 13.9167 18.9958 13.8333 18.9875 13.75C18.9792 13.6667 18.9583 13.5833 18.925 13.5C18.6417 13.6667 18.3375 13.7917 18.0125 13.875C17.6875 13.9583 17.35 14 17 14C16.7167 14 16.4792 13.9042 16.2875 13.7125C16.0958 13.5208 16 13.2833 16 13C16 12.7167 16.0958 12.4792 16.2875 12.2875C16.4792 12.0958 16.7167 12 17 12C17.55 12 18.0208 11.8042 18.4125 11.4125C18.8042 11.0208 19 10.55 19 10C19 9.45 18.8042 8.98333 18.4125 8.6C18.0208 8.21667 17.55 8.01667 17 8C16.8167 8.3 16.5792 8.5625 16.2875 8.7875C15.9958 9.0125 15.675 9.19167 15.325 9.325C15.0583 9.425 14.8 9.41667 14.55 9.3C14.3 9.18333 14.1333 8.99167 14.05 8.725C13.9667 8.45833 13.9792 8.2 14.0875 7.95C14.1958 7.7 14.3833 7.53333 14.65 7.45C14.9 7.36667 15.1042 7.21667 15.2625 7C15.4208 6.78333 15.5 6.53333 15.5 6.25C15.5 5.9 15.3792 5.60417 15.1375 5.3625C14.8958 5.12083 14.6 5 14.25 5C13.9 5 13.6042 5.12083 13.3625 5.3625C13.1208 5.60417 13 5.9 13 6.25ZM11 17.75V6.25C11 5.9 10.8792 5.60417 10.6375 5.3625C10.3958 5.12083 10.1 5 9.75 5C9.4 5 9.10417 5.12083 8.8625 5.3625C8.62083 5.60417 8.5 5.9 8.5 6.25C8.5 6.51667 8.575 6.7625 8.725 6.9875C8.875 7.2125 9.075 7.36667 9.325 7.45C9.59167 7.53333 9.78333 7.7 9.9 7.95C10.0167 8.2 10.0333 8.45833 9.95 8.725C9.85 8.99167 9.675 9.18333 9.425 9.3C9.175 9.41667 8.91667 9.425 8.65 9.325C8.3 9.19167 7.97917 9.0125 7.6875 8.7875C7.39583 8.5625 7.15833 8.3 6.975 8C6.44167 8.01667 5.97917 8.22083 5.5875 8.6125C5.19583 9.00417 5 9.46667 5 10C5 10.55 5.19583 11.0208 5.5875 11.4125C5.97917 11.8042 6.45 12 7 12C7.28333 12 7.52083 12.0958 7.7125 12.2875C7.90417 12.4792 8 12.7167 8 13C8 13.2833 7.90417 13.5208 7.7125 13.7125C7.52083 13.9042 7.28333 14 7 14C6.65 14 6.3125 13.9583 5.9875 13.875C5.6625 13.7917 5.35833 13.6667 5.075 13.5C5.04167 13.5833 5.02083 13.6667 5.0125 13.75C5.00417 13.8333 5 13.9167 5 14C5 14.55 5.19583 15.0208 5.5875 15.4125C5.97917 15.8042 6.45 16 7 16C7.33333 16 7.64167 15.9292 7.925 15.7875C8.20833 15.6458 8.44167 15.4417 8.625 15.175C8.79167 14.9417 9.00833 14.8042 9.275 14.7625C9.54167 14.7208 9.79167 14.7833 10.025 14.95C10.2583 15.1167 10.3958 15.3333 10.4375 15.6C10.4792 15.8667 10.4167 16.1167 10.25 16.35C10.0167 16.6667 9.75 16.9417 9.45 17.175C9.15 17.4083 8.825 17.5917 8.475 17.725C8.49167 18.0583 8.625 18.3542 8.875 18.6125C9.125 18.8708 9.41667 19 9.75 19C10.1 19 10.3958 18.8792 10.6375 18.6375C10.8792 18.3958 11 18.1 11 17.75Z" fill="#FF0000"/>
</svg>
