<svg width="24" height="24" viewBox="0 0 24 24" fill="none" xmlns="http://www.w3.org/2000/svg">
<g clip-path="url(#clip0_122315_60)">
<path d="M16.4961 22.7143H13.4033L11.8193 18.2221H4.67676L3.09277 22.7143H0L6.70117 5.04043H9.79492L16.4961 22.7143ZM5.59668 15.6449H10.8994L8.24805 8.13321L5.59668 15.6449ZM17.7188 1.32071C18.0005 1.21836 18.4629 1.38388 18.6221 1.64395C18.6552 1.69842 18.8727 2.24012 19.1064 2.84805C19.8932 4.89837 19.8973 4.90944 20.1416 5.15371C20.3628 5.37493 20.5177 5.44542 22.2432 6.10977C23.1363 6.45281 23.6759 6.67647 23.7529 6.73477C23.8904 6.83791 24.0078 7.04642 24.0078 7.18692C24.0076 7.32979 23.9047 7.63413 23.8174 7.74844C23.7748 7.80449 23.6964 7.87669 23.6426 7.90957C23.588 7.94349 22.9653 8.19241 22.2588 8.46426C20.3452 9.20024 20.3783 9.18554 20.1377 9.42617C19.8971 9.666 19.9123 9.63215 19.1748 11.5473C18.9028 12.2543 18.6549 12.8818 18.625 12.9408C18.551 13.0849 18.3856 13.226 18.2363 13.2709C18.0017 13.3412 17.5942 13.2025 17.4268 12.9955C17.3705 12.9253 17.1704 12.4471 16.8516 11.6205C16.0756 9.60844 16.1015 9.66554 15.8613 9.42617C15.6207 9.18552 15.6775 9.21149 13.6641 8.43496C12.9656 8.16602 12.3408 7.90743 12.2754 7.86172C12.0244 7.68618 11.9507 7.47752 12.0312 7.16836C12.0925 6.93219 12.1931 6.77431 12.3418 6.67715C12.4044 6.63734 13.0731 6.36641 13.8291 6.07656C15.5104 5.4317 15.6352 5.37492 15.8564 5.15371C16.1008 4.91009 16.1027 4.90313 16.8926 2.84805C17.1265 2.23969 17.3422 1.69466 17.3721 1.63711C17.4453 1.49517 17.5805 1.37151 17.7188 1.32071Z" fill="#FF0000"/>
</g>
<defs>
<clipPath id="clip0_122315_60">
<rect width="24" height="24" fill="white"/>
</clipPath>
</defs>
</svg>
