<svg width="266" height="266" viewBox="0 0 266 266" fill="none" xmlns="http://www.w3.org/2000/svg">
<path fill-rule="evenodd" clip-rule="evenodd" d="M133 266C206.454 266 266 206.454 266 133C266 59.5461 206.454 0 133 0C59.5461 0 0 59.5461 0 133C0 206.454 59.5461 266 133 266ZM211 209.463L198.428 222L172.393 196.037C161.9 205.218 148.042 210.845 133.193 210.845C117.44 210.845 102.333 204.605 91.1945 193.497C80.0559 182.389 73.7982 167.323 73.7982 151.615C73.7982 139.67 79.2428 125.158 86.8651 110.844L54 78.0703L66.5719 65.4345L211 209.463ZM133.193 45C133.193 45 192.588 112.128 192.588 151.615C192.588 156.057 192.093 160.4 191.202 164.547L106.168 79.7485C120.027 59.9063 133.193 45 133.193 45Z" fill="white"/>
</svg>
