<svg width="80" height="80" viewBox="0 0 80 80" fill="none" xmlns="http://www.w3.org/2000/svg">
<path d="M40.1193 79.5C39.0343 79.5 38.0217 79.2106 37.0813 78.7041L27.4611 72.9884C26.0144 72.1925 26.7378 71.9031 27.1718 71.7584C29.1247 71.1072 29.4864 70.9625 31.5117 69.8049C31.7287 69.6602 32.0181 69.7326 32.2351 69.8773L39.613 74.2907C39.9023 74.4354 40.264 74.4354 40.481 74.2907L69.3417 57.5775C69.6311 57.4328 69.7757 57.1434 69.7757 56.7817V23.4276C69.7757 23.0659 69.6311 22.7765 69.3417 22.6318L40.481 5.99096C40.1917 5.84626 39.83 5.84626 39.613 5.99096L10.7522 22.6318C10.4629 22.7765 10.3182 23.1382 10.3182 23.4276V56.7817C10.3182 57.0711 10.4629 57.4328 10.7522 57.5775L18.6365 62.1357C22.9041 64.3062 25.5804 61.7739 25.5804 59.2416V26.3217C25.5804 25.8876 25.9421 25.4535 26.4484 25.4535H30.1374C30.5714 25.4535 31.0054 25.8152 31.0054 26.3217V59.2416C31.0054 64.9574 27.8951 68.2855 22.4701 68.2855C20.8065 68.2855 19.5045 68.2855 15.8155 66.4767L8.22059 62.1357C6.33994 61.0504 5.18262 59.0246 5.18262 56.854V23.5C5.18262 21.3295 6.33994 19.3036 8.22059 18.2183L37.0813 1.50517C38.8897 0.492254 41.349 0.492254 43.1573 1.50517L72.0181 18.2183C73.8987 19.3036 75.056 21.3295 75.056 23.5V56.854C75.056 59.0246 73.8987 61.0504 72.0181 62.1357L43.1573 78.8488C42.2893 79.2106 41.2043 79.5 40.1193 79.5Z" fill="#FF0000"/>
<path d="M49.0884 56.5646C36.4302 56.5646 33.8262 50.7765 33.8262 45.8566C33.8262 45.4225 34.1878 44.9883 34.6942 44.9883H38.4555C38.8895 44.9883 39.2511 45.2778 39.2511 45.7119C39.8298 49.5465 41.4934 51.4276 49.1607 51.4276C55.2367 51.4276 57.8406 50.0529 57.8406 46.7971C57.8406 44.916 57.1173 43.5413 47.6417 42.6008C39.7575 41.8049 34.8388 40.0685 34.8388 33.7739C34.8388 27.9134 39.7575 24.4406 48.0034 24.4406C57.262 24.4406 61.8189 27.624 62.3976 34.5697C62.3976 34.7868 62.3253 35.0039 62.1806 35.2209C62.0359 35.3656 61.8189 35.5103 61.6019 35.5103H57.7683C57.4066 35.5103 57.045 35.2209 56.9726 34.8592C56.1047 30.8798 53.8623 29.5775 47.9311 29.5775C41.2764 29.5775 40.4808 31.8927 40.4808 33.6292C40.4808 35.7274 41.4211 36.3785 50.3904 37.5362C59.2873 38.6938 63.4826 40.3579 63.4826 46.5801C63.4826 52.947 58.2023 56.5646 49.0884 56.5646Z" fill="#FF0000"/>
</svg>
