<svg width="24" height="24" viewBox="0 0 24 24" fill="none" xmlns="http://www.w3.org/2000/svg">
<path fill-rule="evenodd" clip-rule="evenodd" d="M6.92 1.04211C6.155 1.09111 5.674 1.20411 5.18 1.45111C4.089 1.99611 3.357 2.96111 3.124 4.16011C3.012 4.73811 3 5.47011 3 12.0001C3 19.4331 3.002 19.5151 3.245 20.3201C3.577 21.4221 4.578 22.4231 5.68 22.7551C6.46 22.9901 6.716 23.0001 12 23.0001C17.284 23.0001 17.54 22.9901 18.32 22.7551C19.422 22.4231 20.425 21.4211 20.755 20.3201C20.998 19.5081 21.007 19.2731 20.991 13.6201C20.978 9.01011 20.971 8.60011 20.907 8.36011C20.796 7.95111 20.596 7.36211 20.559 7.34011C20.541 7.32811 20.423 7.17111 20.298 6.98911C20.128 6.74411 19.467 6.05811 17.705 4.29511C15.458 2.04811 15.03 1.65311 14.584 1.41111C14.374 1.29711 13.583 1.08211 13.227 1.04311C12.792 0.994113 7.667 0.993113 6.92 1.04211ZM12.875 3.02511L13 3.05011L13.001 5.09511C13.001 7.32011 13.014 7.48211 13.227 7.91911C13.366 8.20511 13.795 8.63411 14.081 8.77311C14.518 8.98611 14.679 8.99911 16.908 8.99911L18.955 9.00011L18.98 9.17011C18.994 9.26411 18.998 11.5631 18.99 14.2801C18.973 19.6481 18.98 19.4851 18.752 19.9521C18.626 20.2111 18.19 20.6381 17.918 20.7681C17.471 20.9831 17.547 20.9801 12 20.9801C6.462 20.9801 6.533 20.9831 6.082 20.7711C5.812 20.6431 5.377 20.2171 5.248 19.9521C5.198 19.8491 5.126 19.6331 5.088 19.4721C5.025 19.2021 5.02 18.6301 5.02 12.0001C5.02 5.37011 5.025 4.79811 5.088 4.52811C5.175 4.15511 5.294 3.91811 5.52 3.66711C5.884 3.26111 6.283 3.09011 6.98 3.04011C7.482 3.00511 12.705 2.99111 12.875 3.02511ZM16.3 5.72011L17.58 7.00011H16.29H15V5.72011C15 5.01611 15.005 4.44011 15.01 4.44011C15.016 4.44011 15.596 5.01611 16.3 5.72011ZM7.614 12.0571C7.377 12.1311 7.212 12.2611 7.109 12.4531C7.035 12.5921 7.02 12.6841 7.02 13.0001C7.02 13.3311 7.033 13.4031 7.12 13.5581C7.23 13.7551 7.414 13.8981 7.635 13.9591C7.833 14.0141 16.167 14.0141 16.365 13.9591C16.586 13.8981 16.77 13.7551 16.88 13.5581C16.967 13.4021 16.98 13.3321 16.979 13.0001C16.978 12.5671 16.898 12.3551 16.678 12.1991C16.393 11.9961 16.487 12.0001 11.984 12.0031C8.651 12.0051 7.746 12.0161 7.614 12.0571ZM7.614 16.0571C7.377 16.1311 7.212 16.2611 7.109 16.4531C7.035 16.5921 7.02 16.6841 7.02 17.0001C7.02 17.3311 7.033 17.4031 7.12 17.5581C7.23 17.7551 7.414 17.8981 7.635 17.9591C7.832 18.0141 14.168 18.0141 14.365 17.9591C14.586 17.8981 14.77 17.7551 14.88 17.5581C14.967 17.4021 14.98 17.3321 14.979 17.0001C14.978 16.5671 14.898 16.3551 14.678 16.1991C14.398 15.9991 14.411 16.0001 10.984 16.0031C8.472 16.0051 7.744 16.0171 7.614 16.0571Z" fill="white"/>
</svg>
