<svg width="22" height="22" viewBox="0 0 22 22" fill="none" xmlns="http://www.w3.org/2000/svg">
<path fill-rule="evenodd" clip-rule="evenodd" d="M13.4825 0.0392658L1.33421 0.952144C0.351107 1.02236 0 1.68947 0 2.4619V15.804C0 16.4008 0.210664 16.9275 0.737324 17.5946L3.58129 21.3163C4.03773 21.9132 4.49417 22.0537 5.37193 21.9834L19.4864 21.1408C20.6802 21.0706 21.0313 20.5088 21.0313 19.5608V4.53343C21.0313 4.04188 20.8557 3.90144 20.2589 3.48011C20.2238 3.445 20.1886 3.445 20.1535 3.40989L16.2914 0.706369C15.3785 0.00415513 14.9923 -0.0660663 13.4825 0.0392658ZM5.68793 4.28766C4.52928 4.35788 4.2835 4.39299 3.6164 3.83122L1.9662 2.53212C1.79064 2.35657 1.86087 2.14591 2.31731 2.1108L14.0092 1.26814C14.9923 1.19792 15.4838 1.51391 15.87 1.82991L17.8713 3.26945C17.9767 3.30456 18.1873 3.55033 17.9065 3.55033L5.82837 4.28766H5.68793ZM4.35372 19.4204V6.67519C4.35372 6.11341 4.52928 5.86764 5.02083 5.83253L18.8895 5.02498C19.346 4.98987 19.5567 5.27076 19.5567 5.83253V18.4724C19.5567 19.0341 19.4513 19.4906 18.714 19.5257L5.44216 20.2981C4.70483 20.3684 4.35372 20.0875 4.35372 19.4204ZM17.45 7.3774C17.5202 7.76362 17.45 8.14983 17.0638 8.18495L16.4318 8.32539V17.7351C15.87 18.051 15.3785 18.1915 14.9572 18.1915C14.29 18.1915 14.1145 17.9808 13.5878 17.3488L9.37455 10.748V17.1031L10.7088 17.4191C10.7088 17.4191 10.7088 18.1915 9.65544 18.1915L6.70614 18.367C6.63592 18.1915 6.70614 17.7702 6.98703 17.6999L7.75946 17.4893V9.06271L6.70614 8.95738C6.63592 8.57116 6.84658 8.00939 7.44347 7.97428L10.6034 7.76362L14.9572 14.4346V8.53605L13.8336 8.39561C13.7634 7.93917 14.0794 7.58806 14.5007 7.55295L17.45 7.3774Z" fill="#FF0000"/>
</svg>
