<svg height="32" viewBox="0 0 32 32" width="32" xmlns="http://www.w3.org/2000/svg"><g fill="none" transform="translate(1 1)"><path d="m15 0c-8.28493927 0-15 6.71506073-15 15 0 8.2849393 6.71506073 15 15 15 8.2849393 0 15-6.7150607 15-15 0-8.28493927-6.7150607-15-15-15zm0 1c7.7326667 0 14 6.26733333 14 14 0 7.7326667-6.2673333 14-14 14-7.73266667 0-14-6.2673333-14-14 0-7.73266667 6.26733333-14 14-14z" fill="#000" opacity=".502255"/><path d="m15 1c7.7326667 0 14 6.26733333 14 14 0 7.7326667-6.2673333 14-14 14-7.73266667 0-14-6.2673333-14-14 0-7.73266667 6.26733333-14 14-14z" fill="#fff"/><path d="m13 9.50146466c0-.27695128.2150574-.50146466.4904785-.50146466h3.019043c.2708838 0 .4904785.21959381.4904785.4960727v5.6078546c0 .2739734-.1651297.6446894-.3723631.8311995l-.2552738.2297464c-.2056505.1850854-.2161131.4913768-.0226116.6848783l.300497.300497c.1931624.1931624.3497515.5793963.3497515.8512162v2.4970706c0 .2769513-.2150574.5014647-.4904785.5014647h-3.019043c-.2708838 0-.4904785-.2162666-.4904785-.4992512v-5.5014976c0-.2757288.15625-.6555012.3497515-.8490027l.300497-.300497c.1931624-.1931624.1935015-.5060015 0-.699503l-.300497-.300497c-.1931624-.1931624-.3497515-.5793963-.3497515-.8512162z" fill="#0a2d4d"/><path d="m15 4c6.0756667 0 11 4.92433333 11 11 0 6.0756667-4.9243333 11-11 11-6.07566667 0-11-4.9243333-11-11 0-6.07566667 4.92433333-11 11-11zm0 3c-4.4186667 0-8 3.5813333-8 8s3.5813333 8 8 8 8-3.5813333 8-8-3.5813333-8-8-8z" fill="#198cff"/></g></svg>
