<svg width="24" height="24" viewBox="0 0 24 24" fill="none" xmlns="http://www.w3.org/2000/svg">
<g clip-path="url(#clip0_25_3427)">
<path d="M22.2819 9.82107C22.5503 9.01295 22.6431 8.15687 22.5542 7.31001C22.4652 6.46315 22.1966 5.64502 21.7662 4.91028C21.1282 3.7997 20.154 2.92043 18.984 2.39923C17.8141 1.87804 16.5088 1.74184 15.2564 2.01028C14.5449 1.21884 13.6377 0.628547 12.6259 0.298687C11.6141 -0.0311717 10.5333 -0.088985 9.49202 0.131054C8.45078 0.351093 7.48577 0.841237 6.69391 1.55226C5.90204 2.26328 5.31121 3.17015 4.98074 4.18178C4.14641 4.35286 3.3582 4.70006 2.6688 5.20017C1.97939 5.70027 1.40467 6.34177 0.983043 7.08178C0.338078 8.1905 0.0624244 9.47561 0.195934 10.7513C0.329444 12.027 0.865199 13.2272 1.72574 14.1784C1.45641 14.9861 1.36267 15.842 1.45079 16.6889C1.53892 17.5358 1.80688 18.3541 2.23674 19.0891C2.87558 20.2001 3.85066 21.0795 5.02145 21.6007C6.19224 22.1219 7.49828 22.2579 8.75134 21.9892C9.31661 22.6257 10.0112 23.1344 10.7887 23.4811C11.5661 23.8279 12.4087 24.0048 13.2599 24C14.5436 24.0012 15.7944 23.5944 16.8318 22.8385C17.8692 22.0825 18.6396 21.0165 19.0317 19.7942C19.866 19.6228 20.6541 19.2755 21.3434 18.7754C22.0328 18.2753 22.6076 17.6339 23.0294 16.8941C23.6668 15.787 23.9377 14.5067 23.8034 13.2363C23.6692 11.966 23.1366 10.7705 22.2819 9.82107ZM13.2599 22.4292C12.2087 22.4308 11.1903 22.0624 10.3835 21.3884L10.5254 21.308L15.3037 18.5498C15.4227 18.48 15.5214 18.3805 15.5903 18.2611C15.6591 18.1416 15.6957 18.0063 15.6964 17.8685V11.1316L17.7164 12.3002C17.7264 12.3052 17.7351 12.3126 17.7417 12.3216C17.7483 12.3307 17.7527 12.3411 17.7544 12.3522V17.9348C17.7519 19.126 17.2776 20.2677 16.4352 21.11C15.5929 21.9523 14.4512 22.4267 13.2599 22.4292ZM3.59924 18.3038C3.07202 17.3934 2.88272 16.3263 3.06464 15.2901L3.20664 15.3753L7.98964 18.1335C8.10799 18.2029 8.24273 18.2395 8.37994 18.2395C8.51716 18.2395 8.6519 18.2029 8.77024 18.1335L14.613 14.765V17.0974C14.6125 17.1095 14.6092 17.1213 14.6035 17.1319C14.5977 17.1426 14.5896 17.1518 14.5798 17.1589L9.74004 19.9502C8.70717 20.5452 7.48039 20.706 6.32905 20.3973C5.17772 20.0886 4.19593 19.3357 3.59924 18.3038ZM2.34084 7.89558C2.87173 6.97934 3.70968 6.2805 4.70634 5.92278V11.6C4.70454 11.7371 4.73959 11.8723 4.80782 11.9912C4.87605 12.1102 4.97496 12.2087 5.09424 12.2765L10.9086 15.6308L8.88854 16.7993C8.87761 16.8051 8.86542 16.8081 8.85304 16.8081C8.84067 16.8081 8.82848 16.8051 8.81754 16.7993L3.98724 14.0128C2.95631 13.4152 2.20419 12.4334 1.89561 11.2825C1.58703 10.1315 1.74712 8.90514 2.34084 7.87198V7.89558ZM18.9371 11.7514L13.1038 8.36398L15.1192 7.19998C15.1302 7.19417 15.1424 7.19113 15.1547 7.19113C15.1671 7.19113 15.1793 7.19417 15.1902 7.19998L20.0205 9.99127C20.7591 10.4174 21.3612 11.0449 21.7565 11.8004C22.1518 12.5559 22.3241 13.4083 22.2531 14.258C22.1822 15.1077 21.871 15.9197 21.3559 16.5992C20.8408 17.2787 20.143 17.7977 19.344 18.0955V12.4183C19.3399 12.2814 19.3001 12.1479 19.2288 12.0309C19.1574 11.914 19.057 11.8177 18.9371 11.7514ZM20.9478 8.72827L20.8058 8.64307L16.0323 5.86128C15.9133 5.7914 15.7777 5.75456 15.6396 5.75456C15.5016 5.75456 15.366 5.7914 15.2469 5.86128L9.40904 9.22967V6.89738C9.4078 6.88552 9.40978 6.87354 9.41478 6.86272C9.41978 6.85189 9.42761 6.84262 9.43744 6.83588L14.2677 4.04928C15.0081 3.62279 15.8545 3.41591 16.7081 3.45283C17.5616 3.48975 18.3871 3.76895 19.0878 4.25776C19.7885 4.74657 20.3356 5.42479 20.665 6.21311C20.9944 7.00142 21.0925 7.86723 20.9479 8.70927L20.9478 8.72827ZM8.30654 12.863L6.28654 11.6992C6.27644 11.6931 6.26779 11.6849 6.26123 11.6751C6.25466 11.6653 6.25033 11.6541 6.24854 11.6425V6.07418C6.24966 5.21995 6.49393 4.38369 6.9528 3.66317C7.41166 2.94266 8.06617 2.36766 8.83978 2.00541C9.6134 1.64317 10.4742 1.50864 11.3214 1.61755C12.1687 1.72647 12.9674 2.07434 13.6242 2.62048L13.4822 2.70098L8.70404 5.45898C8.58512 5.52872 8.48638 5.62821 8.41753 5.74766C8.34868 5.8671 8.31209 6.00241 8.31134 6.14028L8.30654 12.863ZM9.40414 10.4976L12.0061 8.99777L14.613 10.4976V13.497L12.0156 14.9967L9.40894 13.497L9.40414 10.4976Z" fill="#FF0000"/>
</g>
<defs>
<clipPath id="clip0_25_3427">
<rect width="24" height="24" fill="white"/>
</clipPath>
</defs>
</svg>
