<svg width="24" height="24" viewBox="0 0 24 24" fill="none" xmlns="http://www.w3.org/2000/svg">
<path d="M6 21.5C5.03333 21.5 4.20833 21.1583 3.525 20.475C2.84167 19.7917 2.5 18.9667 2.5 18C2.5 17.0333 2.84167 16.2083 3.525 15.525C4.20833 14.8417 5.03333 14.5 6 14.5C6.96667 14.5 7.79167 14.8417 8.475 15.525C9.15833 16.2083 9.5 17.0333 9.5 18C9.5 18.3667 9.44583 18.7208 9.3375 19.0625C9.22917 19.4042 9.06667 19.725 8.85 20.025V19.35C9.35 19.5667 9.86667 19.7292 10.4 19.8375C10.9333 19.9458 11.4667 20 12 20C14.2333 20 16.125 19.225 17.675 17.675C19.225 16.125 20 14.2333 20 12H22C22 13.3833 21.7375 14.6833 21.2125 15.9C20.6875 17.1167 19.975 18.175 19.075 19.075C18.175 19.975 17.1167 20.6875 15.9 21.2125C14.6833 21.7375 13.3833 22 12 22C11.25 22 10.5167 21.9208 9.8 21.7625C9.08333 21.6042 8.39167 21.3667 7.725 21.05C7.45833 21.2 7.17917 21.3125 6.8875 21.3875C6.59583 21.4625 6.3 21.5 6 21.5ZM6 19.5C6.41667 19.5 6.77083 19.3542 7.0625 19.0625C7.35417 18.7708 7.5 18.4167 7.5 18C7.5 17.5833 7.35417 17.2292 7.0625 16.9375C6.77083 16.6458 6.41667 16.5 6 16.5C5.58333 16.5 5.22917 16.6458 4.9375 16.9375C4.64583 17.2292 4.5 17.5833 4.5 18C4.5 18.4167 4.64583 18.7708 4.9375 19.0625C5.22917 19.3542 5.58333 19.5 6 19.5ZM12 15.5C11.0333 15.5 10.2083 15.1583 9.525 14.475C8.84167 13.7917 8.5 12.9667 8.5 12C8.5 11.0333 8.84167 10.2083 9.525 9.525C10.2083 8.84167 11.0333 8.5 12 8.5C12.9667 8.5 13.7917 8.84167 14.475 9.525C15.1583 10.2083 15.5 11.0333 15.5 12C15.5 12.9667 15.1583 13.7917 14.475 14.475C13.7917 15.1583 12.9667 15.5 12 15.5ZM2 12C2 10.6167 2.2625 9.31667 2.7875 8.1C3.3125 6.88333 4.025 5.825 4.925 4.925C5.825 4.025 6.88333 3.3125 8.1 2.7875C9.31667 2.2625 10.6167 2 12 2C12.75 2 13.4833 2.07917 14.2 2.2375C14.9167 2.39583 15.6083 2.63333 16.275 2.95C16.5417 2.8 16.8208 2.6875 17.1125 2.6125C17.4042 2.5375 17.7 2.5 18 2.5C18.9667 2.5 19.7917 2.84167 20.475 3.525C21.1583 4.20833 21.5 5.03333 21.5 6C21.5 6.96667 21.1583 7.79167 20.475 8.475C19.7917 9.15833 18.9667 9.5 18 9.5C17.0333 9.5 16.2083 9.15833 15.525 8.475C14.8417 7.79167 14.5 6.96667 14.5 6C14.5 5.63333 14.5542 5.27917 14.6625 4.9375C14.7708 4.59583 14.9333 4.275 15.15 3.975V4.65C14.65 4.43333 14.1333 4.27083 13.6 4.1625C13.0667 4.05417 12.5333 4 12 4C9.76667 4 7.875 4.775 6.325 6.325C4.775 7.875 4 9.76667 4 12H2ZM18 7.5C18.4167 7.5 18.7708 7.35417 19.0625 7.0625C19.3542 6.77083 19.5 6.41667 19.5 6C19.5 5.58333 19.3542 5.22917 19.0625 4.9375C18.7708 4.64583 18.4167 4.5 18 4.5C17.5833 4.5 17.2292 4.64583 16.9375 4.9375C16.6458 5.22917 16.5 5.58333 16.5 6C16.5 6.41667 16.6458 6.77083 16.9375 7.0625C17.2292 7.35417 17.5833 7.5 18 7.5Z" fill="#FF0000"/>
</svg>
