<svg width="24" height="24" viewBox="0 0 24 24" fill="none" xmlns="http://www.w3.org/2000/svg">
<path fill-rule="evenodd" clip-rule="evenodd" d="M10.6665 12C10.6665 11.2636 11.2635 10.6667 11.9998 10.6667C12.7362 10.6667 13.3332 11.2636 13.3332 12C13.3332 12.7364 12.7362 13.3334 11.9998 13.3334C11.2635 13.3334 10.6665 12.7364 10.6665 12Z" fill="white"/>
<path fill-rule="evenodd" clip-rule="evenodd" d="M10.6665 7.33333C10.6665 6.59695 11.2635 6 11.9998 6C12.7362 6 13.3332 6.59695 13.3332 7.33333C13.3332 8.06971 12.7362 8.66667 11.9998 8.66667C11.2635 8.66667 10.6665 8.06971 10.6665 7.33333Z" fill="white"/>
<path fill-rule="evenodd" clip-rule="evenodd" d="M10.6665 16.6666C10.6665 15.9303 11.2635 15.3333 11.9998 15.3333C12.7362 15.3333 13.3332 15.9303 13.3332 16.6666C13.3332 17.403 12.7362 18 11.9998 18C11.2635 18 10.6665 17.403 10.6665 16.6666Z" fill="white"/>
</svg>
