<svg width="24" height="24" viewBox="0 0 24 24" fill="none" xmlns="http://www.w3.org/2000/svg">
<path d="M15 2C18.3137 2 21 4.68629 21 8C21 8.64492 20.8963 9.26545 20.708 9.84766C22.6735 10.9656 24 13.0772 24 15.5C24 19.0899 21.0899 22 17.5 22H13.2422L13.0381 21.5938L15.25 14.5459H21V13.1133L16.5234 9.99316L17.6455 7.38672L16.208 5L15.25 6.90918V9.11035L14.3105 6.92676L11.8955 6.43164L12.3926 8.3584L13.8135 9.77246H11.417V16.9258L8.95996 10.2041L6.25781 11.1836L8.71484 17.9072L4.09766 12.4258L1.89551 14.2656L6.51074 19.7441L0.292969 16.1689L3.3658e-06 16C0 15.5 0 15.851 0 15.5C0 13.1505 1.24647 11.0921 3.11426 9.9502C3.04003 9.64558 3 9.32747 3 9C3 6.79086 4.79086 5 7 5C7.90658 5 8.74225 5.30221 9.41309 5.81055C10.2879 3.57985 12.4591 2 15 2Z" fill="rgb(255, 0, 0)"/>
</svg>
