<svg width="24" height="24" viewBox="0 0 24 24" fill="none" xmlns="http://www.w3.org/2000/svg">
<path fill-rule="evenodd" clip-rule="evenodd" d="M11.42 1.24098C11.288 1.28298 10.316 1.79698 9.26 2.38398C8.204 2.96998 7.282 3.46698 7.211 3.48698C7.14 3.50698 7.00499 3.58198 6.911 3.65298C6.817 3.72498 5.94799 4.22198 4.98 4.75798C4.012 5.29398 3.102 5.80998 2.957 5.90498C2.457 6.23198 2.168 6.63298 2.058 7.15498C1.974 7.54798 1.974 16.452 2.058 16.845C2.171 17.381 2.49199 17.813 3.01799 18.139C3.53799 18.461 11.086 22.636 11.314 22.729C11.639 22.859 12.358 22.861 12.68 22.731C12.971 22.613 14.542 21.745 14.718 21.604C14.904 21.456 15.04 21.19 15.04 20.975C15.04 20.564 14.695 20.033 14.339 19.897C14.08 19.799 13.856 19.843 13.412 20.08C13.206 20.19 13.029 20.28 13.019 20.28C13.009 20.28 13.001 18.547 13.001 16.43L13.003 12.58L14.809 11.58C15.803 11.03 16.694 10.55 16.79 10.513C16.886 10.476 17.029 10.397 17.107 10.337C17.235 10.24 19.936 8.71998 19.981 8.71998C19.992 8.71998 20 9.61698 20 10.713C20 12.926 20.007 12.995 20.249 13.229C20.442 13.416 20.647 13.487 20.997 13.488C21.501 13.49 21.827 13.289 21.941 12.904C22.026 12.617 22.027 7.55498 21.942 7.15498C21.841 6.67598 21.586 6.29198 21.164 5.98298C20.808 5.72198 12.833 1.32098 12.568 1.23898C12.234 1.13598 11.748 1.13698 11.42 1.24098ZM15.509 5.09198C17.383 6.12998 18.918 6.98898 18.918 6.99998C18.919 7.01698 17.969 7.55198 16.841 8.16898L16.496 8.35698L13.06 6.44898C11.17 5.39898 9.625 4.52198 9.627 4.49998C9.633 4.43498 11.972 3.15598 12.039 3.18098C12.073 3.19298 13.634 4.05298 15.509 5.09198ZM11.075 7.62898C12.888 8.63698 14.371 9.47898 14.371 9.50098C14.373 9.55598 12.075 10.838 11.993 10.828C11.918 10.819 5.08099 7.03198 5.08199 6.99998C5.08199 6.98898 5.626 6.67998 6.29 6.31298L7.497 5.64698L7.638 5.72098C7.716 5.76198 9.26299 6.61998 11.075 7.62898ZM7.536 10.66L10.997 12.58L10.999 16.434C11 19.502 10.99 20.285 10.95 20.269C10.867 20.237 4.104 16.475 4.05 16.431C4.011 16.399 3.99999 15.574 3.99999 12.552C3.99999 10.221 4.015 8.71898 4.037 8.72698C4.057 8.73398 5.63199 9.60398 7.536 10.66ZM21.62 15.046C21.525 15.095 20.753 15.834 19.731 16.853L18.001 18.577L17.271 17.854C16.856 17.444 16.467 17.094 16.372 17.045C16.021 16.868 15.64 16.958 15.299 17.299C14.952 17.646 14.863 18.01 15.04 18.363C15.162 18.607 17.393 20.838 17.637 20.96C17.868 21.076 18.132 21.076 18.363 20.961C18.486 20.899 19.197 20.215 20.706 18.706C22.215 17.197 22.899 16.486 22.961 16.363C23.137 16.01 23.048 15.645 22.701 15.299C22.361 14.959 21.967 14.867 21.62 15.046Z" fill="#FF0000"/>
</svg>
