<svg width="24" height="24" viewBox="0 0 24 24" fill="none" xmlns="http://www.w3.org/2000/svg">
<path fill-rule="evenodd" clip-rule="evenodd" d="M15.76 1.48202C15.059 1.54502 14.318 1.81102 13.687 2.22402C13.388 2.42002 12.669 3.12302 8.51603 7.27602C5.40703 10.384 3.60703 12.214 3.45303 12.42C1.90703 14.498 1.75903 17.224 3.07303 19.42C3.90703 20.815 5.33903 21.875 6.90503 22.257C7.49503 22.401 7.81803 22.44 8.41803 22.44C9.81803 22.44 11.099 22.011 12.22 21.168C12.352 21.069 14.608 18.844 17.233 16.224C20.742 12.721 22.032 11.41 22.103 11.271C22.291 10.906 22.191 10.506 21.828 10.172C21.464 9.83602 21.18 9.77002 20.814 9.93702C20.604 10.033 20.093 10.53 15.8 14.815C12.727 17.883 10.938 19.639 10.792 19.734C10.457 19.951 9.95003 20.182 9.54003 20.306C9.21103 20.405 9.12103 20.414 8.48003 20.417C7.76503 20.42 7.61303 20.4 7.08003 20.231C6.32503 19.992 5.52803 19.418 5.04403 18.766C4.39503 17.89 4.12003 16.918 4.20803 15.81C4.26803 15.059 4.57403 14.262 5.03903 13.65C5.17603 13.469 7.24103 11.377 10.007 8.61702C15.023 3.61202 14.846 3.77702 15.407 3.57702C15.675 3.48102 16.16 3.43902 16.518 3.48002C17.504 3.59202 18.369 4.34902 18.621 5.32002C18.672 5.51902 18.684 5.69202 18.67 6.06002C18.65 6.59402 18.564 6.89502 18.319 7.28702C18.131 7.58902 9.31703 16.415 9.09703 16.521C8.53203 16.795 7.94003 16.301 8.05803 15.653C8.08303 15.516 8.50103 15.084 12.057 11.52C16.254 7.31302 16.2 7.37202 16.2 7.00802C16.2 6.54802 15.607 5.96302 15.138 5.96102C14.776 5.95902 14.812 5.92502 10.558 10.189C6.25003 14.507 6.34703 14.402 6.15403 15C6.04803 15.329 6.01003 16.02 6.07803 16.37C6.19403 16.964 6.45503 17.42 6.94303 17.875C7.78903 18.665 9.02703 18.82 10.1 18.269C10.306 18.163 11.004 17.483 15.011 13.483C18.224 10.276 19.743 8.73302 19.876 8.54002C21.051 6.84102 20.96 4.67002 19.648 3.06602C19.096 2.39002 18.252 1.85102 17.381 1.61602C17.095 1.54002 16.216 1.42102 16.12 1.44602C16.109 1.44902 15.947 1.46502 15.76 1.48202Z" fill="#FF1200"/>
</svg>
