<svg width="24" height="24" viewBox="0 0 24 24" fill="none" xmlns="http://www.w3.org/2000/svg">
<path fill-rule="evenodd" clip-rule="evenodd" d="M18.611 1.20391C18.001 1.26091 17.408 1.47191 16.864 1.82691C16.645 1.96991 15.211 3.37891 10.647 7.93591C7.384 11.1939 4.598 14.0029 4.457 14.1779C4.316 14.3529 4.13 14.6319 4.044 14.7979C3.921 15.0379 1.706 20.7329 1.525 21.2759C1.469 21.4439 1.467 21.7589 1.519 21.8979C1.577 22.0489 1.919 22.4029 2.069 22.4659C2.225 22.5319 2.54 22.5359 2.724 22.4749C3.267 22.2939 8.962 20.0789 9.202 19.9559C9.368 19.8699 9.647 19.6839 9.822 19.5429C9.997 19.4019 12.806 16.6159 16.064 13.3529C22.247 7.16091 22.182 7.22791 22.48 6.59191C22.827 5.85091 22.916 4.85991 22.707 4.05991C22.225 2.21691 20.518 1.02691 18.611 1.20391ZM19.624 3.28591C20.631 3.65591 21.096 4.81191 20.637 5.79991C20.524 6.04391 20.157 6.41991 14.758 11.8199L9 17.5799L7.71 16.2899L6.42 14.9999L12.18 9.24191C17.691 3.73291 17.952 3.47791 18.214 3.35591C18.649 3.15391 19.191 3.12691 19.624 3.28591ZM7.188 18.6239C7.181 18.6309 5.112 19.4289 4.49 19.6649L4.239 19.7599L4.292 19.6299C4.321 19.5579 4.577 18.8929 4.862 18.1499L5.38 16.7999L6.288 17.7079C6.788 18.2079 7.193 18.6199 7.188 18.6239ZM12.614 20.0569C12.377 20.1309 12.212 20.2609 12.109 20.4529C12.035 20.5919 12.02 20.6839 12.02 20.9999C12.02 21.3309 12.033 21.4029 12.12 21.5579C12.23 21.7549 12.414 21.8979 12.635 21.9589C12.833 22.0139 21.167 22.0139 21.365 21.9589C21.586 21.8979 21.77 21.7549 21.88 21.5579C21.967 21.4019 21.98 21.3319 21.979 20.9999C21.978 20.5669 21.898 20.3549 21.678 20.1989C21.393 19.9959 21.487 19.9999 16.984 20.0029C13.651 20.0049 12.746 20.0159 12.614 20.0569Z" fill="white"/>
</svg>
