<svg xmlns="http://www.w3.org/2000/svg" width="24" height="24" viewBox="0 0 24 24" fill="none">
  <path fill-rule="evenodd" clip-rule="evenodd" d="M17.626 1.04492C17.42 1.15392 17.146 1.43292 17.038 1.64392C16.924 1.86692 16.924 2.13192 17.039 2.36292C17.164 2.61192 21.388 6.83592 21.637 6.96092C21.99 7.13692 22.355 7.04792 22.701 6.70092C23.048 6.35492 23.137 5.98992 22.961 5.63692C22.84 5.39592 18.612 1.16392 18.372 1.04392C18.152 0.933916 17.835 0.934916 17.626 1.04492ZM14.679 4.25192C14.557 4.27992 14.368 4.35292 14.259 4.41592C14.121 4.49392 12.335 6.25392 8.47504 10.1149C2.48304 16.1069 2.69204 15.8839 2.48004 16.4999C2.35304 16.8679 1.04204 21.6919 1.01504 21.8919C0.964041 22.2609 1.19404 22.7529 1.49704 22.9239C1.78904 23.0889 1.88704 23.0699 4.68004 22.3079C6.09904 21.9199 7.36804 21.5659 7.49904 21.5199C8.10904 21.3099 7.90104 21.5049 13.905 15.5029C19.236 10.1749 19.517 9.88592 19.645 9.62092C19.766 9.37092 19.78 9.30592 19.78 8.99992C19.78 8.69292 19.766 8.62992 19.645 8.37892C19.521 8.12392 19.363 7.95292 17.785 6.36792C16.805 5.38392 15.959 4.56692 15.826 4.47792C15.475 4.24192 15.076 4.16292 14.679 4.25192ZM16.3 7.71992L17.58 8.99992L12.32 14.2609C8.74104 17.8399 7.00904 19.5459 6.90004 19.5979C6.72704 19.6809 3.48204 20.5759 3.45504 20.5479C3.43304 20.5269 4.34604 17.1829 4.40504 17.0669C4.44704 16.9829 14.959 6.43992 15 6.43992C15.011 6.43992 15.596 7.01592 16.3 7.71992Z" fill="#FF0000"/>
</svg>
