<svg width="24" height="24" viewBox="0 0 24 24" fill="none" xmlns="http://www.w3.org/2000/svg">
<path fill-rule="evenodd" clip-rule="evenodd" d="M6.74902 1.04491C5.96702 1.11991 5.40202 1.37091 4.89002 1.86991C4.49102 2.25991 4.23602 2.73091 4.09402 3.33991C4.02302 3.64691 4.02002 4.01191 4.02002 12.0199V20.3799L4.11102 20.7349C4.22502 21.1839 4.37902 21.5049 4.65002 21.8579C5.03802 22.3629 5.59402 22.7189 6.26502 22.8889L6.62002 22.9799H11.98C17.064 22.9799 17.357 22.9759 17.66 22.9059C18.459 22.7199 19.041 22.3269 19.486 21.6709C19.685 21.3779 19.807 21.0839 19.906 20.6599C19.977 20.3529 19.98 19.9879 19.98 11.9999C19.98 4.01191 19.977 3.64691 19.906 3.33991C19.688 2.40391 19.167 1.73691 18.329 1.32091C18.019 1.16791 17.706 1.09091 17.18 1.04191C16.648 0.99091 7.27402 0.99391 6.74902 1.04491ZM17.374 3.07391C17.585 3.14491 17.862 3.43191 17.928 3.64591C18.005 3.90291 18.005 20.0969 17.928 20.3539C17.863 20.5669 17.591 20.8489 17.376 20.9249C17.144 21.0069 6.85602 21.0069 6.62402 20.9249C6.42302 20.8539 6.14102 20.5709 6.07402 20.3739C6.03202 20.2499 6.01902 18.6719 6.01002 12.2599C6.00202 7.18091 6.01202 4.17091 6.03802 3.94391C6.10202 3.36491 6.34202 3.10391 6.86602 3.04191C7.01702 3.02391 9.40802 3.01191 12.18 3.01591C16.174 3.02091 17.252 3.03391 17.374 3.07391ZM11.637 16.0549C10.808 16.2329 10.294 17.2019 10.599 18.0099C10.759 18.4349 11.144 18.8119 11.538 18.9299C11.747 18.9919 12.253 18.9919 12.462 18.9299C12.855 18.8119 13.242 18.4339 13.399 18.0129C13.707 17.1899 13.19 16.2299 12.344 16.0529C12.051 15.9909 11.93 15.9919 11.637 16.0549Z" fill="#FF0000"/>
</svg>
