<svg width="13" height="13" viewBox="0 0 13 13" fill="none" xmlns="http://www.w3.org/2000/svg">
<path fill-rule="evenodd" clip-rule="evenodd" d="M2.51172 0.923414C2.13781 1.01033 1.95172 1.09141 1.71839 1.267C1.49731 1.43383 0.634557 2.32225 0.509723 2.51183C0.315473 2.80641 0.194723 3.14883 0.14164 3.55541C0.0891401 3.95383 0.170223 4.36508 0.481723 5.28733C1.05106 6.97316 1.97622 8.45775 3.25839 9.74283C4.54639 11.0337 5.89914 11.8977 7.61006 12.5224C7.94664 12.6449 8.66764 12.8537 8.88931 12.8922C9.48139 12.9955 10.1522 12.8351 10.6352 12.4746C10.8312 12.3282 11.4256 11.753 11.673 11.4701C11.8678 11.2478 11.9804 11.0547 12.0696 10.7917C12.1181 10.6487 12.1251 10.5852 12.1245 10.29C12.1245 10.0275 12.1146 9.92016 12.0807 9.81166C12.0282 9.64133 11.932 9.44183 11.8299 9.29308C11.7354 9.15425 11.0342 8.4385 10.8301 8.27225C10.5104 8.0115 10.1516 7.88491 9.73339 7.88433C9.22064 7.88375 8.87064 8.03483 8.45181 8.43675C8.32581 8.5575 8.21031 8.65666 8.19572 8.65666C8.12164 8.65666 7.61064 8.3685 7.17839 8.08325C6.07006 7.35175 5.12331 6.29533 4.52656 5.12458L4.38539 4.8475L4.52364 4.70458C4.76339 4.45608 4.87422 4.31958 4.95706 4.17025C5.26097 3.62075 5.24931 2.96683 4.92614 2.42316C4.81531 2.23708 4.14564 1.53533 3.85339 1.30025C3.66322 1.14683 3.43164 1.02666 3.21172 0.966581C3.07697 0.929831 2.60856 0.901248 2.51172 0.923414ZM2.99006 2.12508C3.11664 2.18283 3.87964 2.92833 3.94906 3.0625C4.01672 3.19375 4.02839 3.332 3.98347 3.486C3.94964 3.60208 3.91347 3.65166 3.69472 3.88033C3.55706 4.02383 3.41706 4.18891 3.38322 4.24666C3.23272 4.50391 3.18139 4.88716 3.26014 5.15841C3.30797 5.32233 3.63697 5.9605 3.84172 6.28658C4.40231 7.17791 5.09006 7.94733 5.93239 8.62458C6.39439 8.99675 7.26589 9.53225 7.72906 9.72941C7.92156 9.81108 8.15722 9.84725 8.33806 9.82275C8.65072 9.77958 8.81522 9.68975 9.13372 9.38816C9.44231 9.09591 9.52164 9.04983 9.72056 9.04925C9.95797 9.0475 10.0221 9.09066 10.483 9.55791C10.9286 10.0094 10.9706 10.0718 10.9695 10.2871C10.9689 10.514 10.9205 10.5822 10.4031 11.0962C9.89614 11.5996 9.83081 11.6457 9.52164 11.7221C9.25797 11.7874 9.10922 11.767 8.48506 11.5815C6.23397 10.913 4.19697 9.408 2.82264 7.39666C2.17689 6.45166 1.64664 5.285 1.36489 4.18833C1.27097 3.82433 1.28672 3.55775 1.41856 3.27483C1.52764 3.04033 2.39389 2.16358 2.57297 2.10641C2.70189 2.06558 2.87514 2.07316 2.99006 2.12508Z" fill="#FF0000"/>
</svg>
