<svg xmlns="http://www.w3.org/2000/svg" width="8" height="11" viewBox="0 0 8 11" fill="none">
  <path fill-rule="evenodd" clip-rule="evenodd" d="M1.58119 0.0137297C1.32819 0.0472298 1.13069 0.14373 0.970691 0.31123C0.779691 0.51123 0.682691 0.77823 0.705691 1.03673C0.723191 1.22923 0.783191 1.40373 1.14019 2.29773L1.45769 3.09423V3.70573V4.31773L0.920191 4.99023C0.174691 5.92223 0.0946913 6.03923 0.0266913 6.29523C-0.0508087 6.58623 0.0436912 6.92723 0.268191 7.16973C0.394191 7.30623 0.518691 7.37773 0.731191 7.43723C0.883191 7.47973 0.922691 7.48123 2.17219 7.48823L3.45669 7.49473L3.46219 9.08873C3.46769 10.6747 3.46769 10.6832 3.51069 10.7627C3.60019 10.9297 3.70519 10.9812 3.95769 10.9822C4.12369 10.9827 4.15869 10.9762 4.23669 10.9327C4.33519 10.8777 4.40669 10.7857 4.43719 10.6752C4.45019 10.6297 4.45769 10.0282 4.45769 9.04873V7.49473L5.74269 7.48823C6.99269 7.48123 7.03219 7.47973 7.18419 7.43723C7.39719 7.37773 7.52119 7.30623 7.64819 7.16873C7.87269 6.92623 7.96619 6.58673 7.88869 6.29523C7.82069 6.03923 7.74069 5.92223 6.99519 4.99023L6.45769 4.31773V3.70573V3.09423L6.77519 2.29773C7.13219 1.40373 7.19219 1.22923 7.20969 1.03673C7.23419 0.76223 7.12019 0.47423 6.90869 0.27723C6.77469 0.15223 6.67069 0.0937297 6.48769 0.0392298C6.37619 0.00622975 6.20569 0.00322971 4.03769 0.000229715C2.75619 -0.00127029 1.65069 0.00472975 1.58119 0.0137297ZM6.18769 1.01273C6.19469 1.02423 6.04519 1.42223 5.85519 1.89773C5.66569 2.37373 5.49869 2.81223 5.48419 2.87273C5.45069 3.01523 5.44669 4.35873 5.47969 4.51673C5.52319 4.72573 5.60469 4.85023 6.11069 5.48323C6.75119 6.28423 6.87969 6.45323 6.86619 6.47473C6.85169 6.49873 1.06369 6.49873 1.04869 6.47473C1.03619 6.45373 1.19219 6.24973 1.84469 5.43323C2.30969 4.85173 2.39269 4.72273 2.43569 4.51673C2.46869 4.35873 2.46469 3.01523 2.43119 2.87273C2.41669 2.81223 2.24969 2.37373 2.06019 1.89773C1.87019 1.42223 1.72069 1.02423 1.72769 1.01273C1.74469 0.98473 6.17069 0.98473 6.18769 1.01273Z" fill="#121212"/>
  <path fill-rule="evenodd" clip-rule="evenodd" d="M1.58119 0.0137297C1.32819 0.0472298 1.13069 0.14373 0.970691 0.31123C0.779691 0.51123 0.682691 0.77823 0.705691 1.03673C0.723191 1.22923 0.783191 1.40373 1.14019 2.29773L1.45769 3.09423V3.70573V4.31773L0.920191 4.99023C0.174691 5.92223 0.0946913 6.03923 0.0266913 6.29523C-0.0508087 6.58623 0.0436912 6.92723 0.268191 7.16973C0.394191 7.30623 0.518691 7.37773 0.731191 7.43723C0.883191 7.47973 0.922691 7.48123 2.17219 7.48823L3.45669 7.49473L3.46219 9.08873C3.46769 10.6747 3.46769 10.6832 3.51069 10.7627C3.60019 10.9297 3.70519 10.9812 3.95769 10.9822C4.12369 10.9827 4.15869 10.9762 4.23669 10.9327C4.33519 10.8777 4.40669 10.7857 4.43719 10.6752C4.45019 10.6297 4.45769 10.0282 4.45769 9.04873V7.49473L5.74269 7.48823C6.99269 7.48123 7.03219 7.47973 7.18419 7.43723C7.39719 7.37773 7.52119 7.30623 7.64819 7.16873C7.87269 6.92623 7.96619 6.58673 7.88869 6.29523C7.82069 6.03923 7.74069 5.92223 6.99519 4.99023L6.45769 4.31773V3.70573V3.09423L6.77519 2.29773C7.13219 1.40373 7.19219 1.22923 7.20969 1.03673C7.23419 0.76223 7.12019 0.47423 6.90869 0.27723C6.77469 0.15223 6.67069 0.0937297 6.48769 0.0392298C6.37619 0.00622975 6.20569 0.00322971 4.03769 0.000229715C2.75619 -0.00127029 1.65069 0.00472975 1.58119 0.0137297ZM6.18769 1.01273C6.19469 1.02423 6.04519 1.42223 5.85519 1.89773C5.66569 2.37373 5.49869 2.81223 5.48419 2.87273C5.45069 3.01523 5.44669 4.35873 5.47969 4.51673C5.52319 4.72573 5.60469 4.85023 6.11069 5.48323C6.75119 6.28423 6.87969 6.45323 6.86619 6.47473C6.85169 6.49873 1.06369 6.49873 1.04869 6.47473C1.03619 6.45373 1.19219 6.24973 1.84469 5.43323C2.30969 4.85173 2.39269 4.72273 2.43569 4.51673C2.46869 4.35873 2.46469 3.01523 2.43119 2.87273C2.41669 2.81223 2.24969 2.37373 2.06019 1.89773C1.87019 1.42223 1.72069 1.02423 1.72769 1.01273C1.74469 0.98473 6.17069 0.98473 6.18769 1.01273Z" fill="#FAF9F6" fill-opacity="0.6"/>
</svg>
