<svg xmlns="http://www.w3.org/2000/svg" width="16" height="16" viewBox="0 0 16 16" fill="none">
<g clip-path="url(#clip0_6228_17678)">
<path fill-rule="evenodd" clip-rule="evenodd" d="M11.2191 8.48528L13.5761 6.12826L14.0475 6.59966C14.3068 6.85894 14.7311 6.85894 14.9904 6.59966C15.2496 6.34039 15.2496 5.91613 14.9904 5.65685L10.2763 0.942809C10.017 0.683537 9.59277 0.683537 9.3335 0.942809C9.07422 1.20208 9.07422 1.62635 9.3335 1.88562L9.8049 2.35702L7.44788 4.71405C6.66535 5.49658 5.40198 5.49658 4.61945 4.71405L3.67664 5.65685L6.49093 8.47114L3.1911 11.771V12.7138H4.1339L7.43374 9.41395L10.2763 12.2565L11.2191 11.3137C10.4366 10.5312 10.4366 9.26781 11.2191 8.48528Z" fill="#121212"/>
<path fill-rule="evenodd" clip-rule="evenodd" d="M11.2191 8.48528L13.5761 6.12826L14.0475 6.59966C14.3068 6.85894 14.7311 6.85894 14.9904 6.59966C15.2496 6.34039 15.2496 5.91613 14.9904 5.65685L10.2763 0.942809C10.017 0.683537 9.59277 0.683537 9.3335 0.942809C9.07422 1.20208 9.07422 1.62635 9.3335 1.88562L9.8049 2.35702L7.44788 4.71405C6.66535 5.49658 5.40198 5.49658 4.61945 4.71405L3.67664 5.65685L6.49093 8.47114L3.1911 11.771V12.7138H4.1339L7.43374 9.41395L10.2763 12.2565L11.2191 11.3137C10.4366 10.5312 10.4366 9.26781 11.2191 8.48528Z" fill="#FAF9F6" fill-opacity="0.4"/>
</g>
<defs>
<clipPath id="clip0_6228_17678">
<rect width="16" height="16" fill="white"/>
</clipPath>
</defs>
</svg>
