<svg xmlns="http://www.w3.org/2000/svg" width="7" height="10" viewBox="0 0 7 10" fill="none">
  <path fill-rule="evenodd" clip-rule="evenodd" d="M5.5 3.5V1H6C6.275 1 6.5 0.775 6.5 0.5C6.5 0.225 6.275 0 6 0H1C0.725 0 0.5 0.225 0.5 0.5C0.5 0.775 0.725 1 1 1H1.5V3.5C1.5 4.33 0.83 5 0 5V6H2.985V9.5L3.485 10L3.985 9.5V6H7V5C6.17 5 5.5 4.33 5.5 3.5Z" fill="#121212"/>
  <path fill-rule="evenodd" clip-rule="evenodd" d="M5.5 3.5V1H6C6.275 1 6.5 0.775 6.5 0.5C6.5 0.225 6.275 0 6 0H1C0.725 0 0.5 0.225 0.5 0.5C0.5 0.775 0.725 1 1 1H1.5V3.5C1.5 4.33 0.83 5 0 5V6H2.985V9.5L3.485 10L3.985 9.5V6H7V5C6.17 5 5.5 4.33 5.5 3.5Z" fill="#FAF9F6" fill-opacity="0.9"/>
</svg>
