<svg width="330" height="330" viewBox="0 0 330 330" fill="none" xmlns="http://www.w3.org/2000/svg">
<defs>
<clipPath id="face"><circle cx="165" cy="165" r="165"/></clipPath>
</defs>
<g clip-path="url(#face)">
<circle cx="165" cy="165" r="165" fill="#F9D949"/>
<path d="M382.907 65.9997C392.27 77.6812 399.24 91.0925 403.42 105.468C407.6 119.843 408.907 134.901 407.268 149.782C405.628 164.662 401.074 179.074 393.864 192.195C386.655 205.315 376.932 216.887 365.251 226.25C353.569 235.613 340.158 242.583 325.782 246.763C311.407 250.943 296.349 252.251 281.468 250.611C266.588 248.971 252.176 244.417 239.055 237.208C225.935 229.998 214.363 220.275 205 208.594" stroke="black" stroke-width="17" stroke-linecap="round" stroke-linejoin="round"/>
<path d="M159.877 87.2203C173.871 115.28 190.304 129.188 217.592 126.72C249.919 123.796 260.317 104.039 265.688 59.6102Z" fill="black"/>
<path d="M433 16C391.678 26.7824 307.01 48.8277 265.688 59.6102C224.366 70.3926 201.199 76.4379 159.877 87.2203L-81 151.763M159.877 87.2203C173.871 115.28 190.304 129.188 217.592 126.72C249.919 123.796 260.317 104.039 265.688 59.6102M159.877 87.2203L265.688 59.6102" stroke="black" stroke-width="15" stroke-linejoin="round"/>
</g>
</svg>
