<svg width="24" height="24" viewBox="0 0 24 24" fill="none" xmlns="http://www.w3.org/2000/svg">
<path fill-rule="evenodd" clip-rule="evenodd" d="M11.614 4.05714C11.377 4.13114 11.212 4.26114 11.109 4.45314L11.02 4.62014L11.009 7.81014L10.998 11.0001H7.90502C4.59902 11.0001 4.60102 11.0001 4.32202 11.1991C4.10002 11.3571 4.02002 11.5681 4.02002 12.0001C4.02002 12.3311 4.03302 12.4031 4.12002 12.5581C4.23002 12.7551 4.41402 12.8981 4.63502 12.9591C4.72602 12.9851 5.93002 13.0001 7.89002 13.0001H11V16.1101C11 18.0701 11.015 19.2741 11.041 19.3651C11.148 19.7501 11.437 19.9621 11.896 19.9911C12.381 20.0221 12.699 19.8821 12.88 19.5581L12.98 19.3801L12.991 16.1901L13.002 13.0001H16.111C18.07 13.0001 19.274 12.9851 19.365 12.9591C19.586 12.8981 19.77 12.7551 19.88 12.5581C19.967 12.4021 19.98 12.3321 19.979 12.0001C19.978 11.5671 19.898 11.3551 19.678 11.1991C19.399 11.0001 19.401 11.0001 16.095 11.0001H13.002L12.991 7.81014L12.98 4.62014L12.891 4.45314C12.842 4.36214 12.746 4.24714 12.678 4.19914C12.414 4.01014 11.957 3.95014 11.614 4.05714Z" fill="red"/>
</svg>
