<svg width="24" height="24" viewBox="0 0 24 24" fill="none" xmlns="http://www.w3.org/2000/svg">
<g clip-path="url(#clip0_17_1662)">
<path fill-rule="evenodd" clip-rule="evenodd" d="M7.33506 20.8037C8.19962 20.8027 9.06419 20.8017 9.92875 20.802C10.6019 20.8022 11.2751 20.8026 11.9484 20.8031C13.9934 20.8044 16.0385 20.8058 18.0835 20.8015C19.9109 20.7974 20.365 20.466 20.7591 18.7291C21.8124 14.088 22.8474 9.44269 23.8759 4.79607C24.1927 3.36481 23.9558 3.06296 22.5446 3.06161C20.7454 3.05977 18.9461 3.06215 17.1469 3.06452C13.3188 3.06958 9.49065 3.07463 5.66296 3.03912C4.3015 3.02652 3.68569 3.58817 3.40022 4.85891C2.73149 7.83505 2.03936 10.8059 1.34722 13.7768C0.937491 15.5355 0.527761 17.2942 0.122882 19.054C-0.198287 20.4495 0.0611422 20.7862 1.48788 20.7955C3.43686 20.8083 5.38596 20.806 7.33506 20.8037ZM12.3229 11.5273C12.2648 11.4591 12.2049 11.3878 12.1435 11.3145L12.1435 11.3145C12.0055 11.1501 11.8596 10.9762 11.7078 10.8077C11.3981 10.4637 11.0891 10.119 10.7801 9.7744L10.7791 9.77326L10.779 9.77318C9.84741 8.73416 8.91581 7.69515 7.96554 6.67357C7.38629 6.0508 7.20168 5.44599 7.89733 4.83128C8.58478 4.22367 9.26025 4.27746 9.89085 4.97652L10.2397 5.36315L10.2399 5.36336C11.8796 7.18077 13.5195 8.99831 15.1865 10.7906C15.8531 11.5075 15.6978 11.9949 14.9637 12.5261C12.1458 14.5657 9.34375 16.6275 6.5448 18.6931C5.91566 19.1576 5.31587 19.2739 4.80765 18.5879C4.24698 17.8312 4.76571 17.3811 5.34729 16.9576C7.42725 15.4426 9.50317 13.9219 11.5702 12.3893C11.6309 12.3443 11.6972 12.3033 11.7645 12.2616C12.0163 12.1056 12.2823 11.9409 12.3229 11.5273ZM13.2138 18.8466C12.9856 18.8466 12.7572 18.8489 12.5289 18.8513H12.5289C11.9994 18.8568 11.47 18.8623 10.9419 18.8383C10.3389 18.811 9.97605 18.4741 9.98363 17.8389C9.99097 17.2384 10.2937 16.7869 10.896 16.7706C12.5516 16.7263 14.2097 16.7358 15.8659 16.7682C16.3922 16.7785 16.7808 17.1214 16.7776 17.6699C16.7738 18.299 16.4427 18.7864 15.769 18.827C15.175 18.8629 14.5785 18.8548 13.982 18.8467H13.982H13.982C13.7259 18.8432 13.4698 18.8397 13.2139 18.8397L13.2138 18.8466Z" fill="#050505"/>
<path fill-rule="evenodd" clip-rule="evenodd" d="M7.33506 20.8037C8.19962 20.8027 9.06419 20.8017 9.92875 20.802C10.6019 20.8022 11.2751 20.8026 11.9484 20.8031C13.9934 20.8044 16.0385 20.8058 18.0835 20.8015C19.9109 20.7974 20.365 20.466 20.7591 18.7291C21.8124 14.088 22.8474 9.44269 23.8759 4.79607C24.1927 3.36481 23.9558 3.06296 22.5446 3.06161C20.7454 3.05977 18.9461 3.06215 17.1469 3.06452C13.3188 3.06958 9.49065 3.07463 5.66296 3.03912C4.3015 3.02652 3.68569 3.58817 3.40022 4.85891C2.73149 7.83505 2.03936 10.8059 1.34722 13.7768C0.937491 15.5355 0.527761 17.2942 0.122882 19.054C-0.198287 20.4495 0.0611422 20.7862 1.48788 20.7955C3.43686 20.8083 5.38596 20.806 7.33506 20.8037ZM12.3229 11.5273C12.2648 11.4591 12.2049 11.3878 12.1435 11.3145L12.1435 11.3145C12.0055 11.1501 11.8596 10.9762 11.7078 10.8077C11.3981 10.4637 11.0891 10.119 10.7801 9.7744L10.7791 9.77326L10.779 9.77318C9.84741 8.73416 8.91581 7.69515 7.96554 6.67357C7.38629 6.0508 7.20168 5.44599 7.89733 4.83128C8.58478 4.22367 9.26025 4.27746 9.89085 4.97652L10.2397 5.36315L10.2399 5.36336C11.8796 7.18077 13.5195 8.99831 15.1865 10.7906C15.8531 11.5075 15.6978 11.9949 14.9637 12.5261C12.1458 14.5657 9.34375 16.6275 6.5448 18.6931C5.91566 19.1576 5.31587 19.2739 4.80765 18.5879C4.24698 17.8312 4.76571 17.3811 5.34729 16.9576C7.42725 15.4426 9.50317 13.9219 11.5702 12.3893C11.6309 12.3443 11.6972 12.3033 11.7645 12.2616C12.0163 12.1056 12.2823 11.9409 12.3229 11.5273ZM13.2138 18.8466C12.9856 18.8466 12.7572 18.8489 12.5289 18.8513H12.5289C11.9994 18.8568 11.47 18.8623 10.9419 18.8383C10.3389 18.811 9.97605 18.4741 9.98363 17.8389C9.99097 17.2384 10.2937 16.7869 10.896 16.7706C12.5516 16.7263 14.2097 16.7358 15.8659 16.7682C16.3922 16.7785 16.7808 17.1214 16.7776 17.6699C16.7738 18.299 16.4427 18.7864 15.769 18.827C15.175 18.8629 14.5785 18.8548 13.982 18.8467H13.982H13.982C13.7259 18.8432 13.4698 18.8397 13.2139 18.8397L13.2138 18.8466Z" fill="white"/>
</g>
<defs>
<clipPath id="clip0_17_1662">
<rect width="24" height="24" fill="white"/>
</clipPath>
</defs>
</svg>
