<svg width="24" height="24" viewBox="0 0 24 24" fill="none" xmlns="http://www.w3.org/2000/svg">
<path fill-rule="evenodd" clip-rule="evenodd" d="M8.6129 6L13 18H10.4194L9.60503 15.4698H5.38486L4.57258 18H2L6.3629 6H8.6129ZM6.00664 13.533H8.98168L7.49228 8.90523L6.00664 13.533Z" fill="#FF0000"/>
<path fill-rule="evenodd" clip-rule="evenodd" d="M20.2288 11.8137C20.3301 11.7684 20.4256 11.7179 20.5152 11.6621C20.9437 11.3984 21.2564 11.0577 21.4534 10.6401C21.6553 10.2225 21.7562 9.76648 21.7562 9.27198C21.7562 8.71154 21.6651 8.22802 21.4829 7.82143C21.3007 7.40934 21.0372 7.06868 20.6925 6.79945C20.3478 6.53022 19.9267 6.32967 19.4294 6.1978C18.9369 6.06593 18.378 6 17.7525 6H14V18H18.1145C18.9468 18 19.651 17.8681 20.2271 17.6044C20.8082 17.3407 21.249 16.9478 21.5494 16.4258C21.8498 15.8984 22 15.25 22 14.4808C22 13.9973 21.9064 13.544 21.7193 13.1209C21.5371 12.6978 21.2441 12.3544 20.8403 12.0907C20.662 11.9703 20.4582 11.878 20.2288 11.8137ZM16.2161 12.7335V16.0714H18.1145C18.5035 16.0714 18.8212 16.0027 19.0674 15.8654C19.3136 15.7225 19.4958 15.5302 19.614 15.2885C19.7322 15.0467 19.7913 14.7692 19.7913 14.456C19.7913 14.1044 19.7372 13.7995 19.6288 13.5412C19.5254 13.283 19.358 13.0852 19.1265 12.9478C18.895 12.8049 18.5897 12.7335 18.2105 12.7335H16.2161ZM17.7525 11.0357C18.1613 11.0357 18.4962 10.978 18.7572 10.8626C19.0182 10.7418 19.2127 10.5687 19.3407 10.3434C19.4737 10.1126 19.5402 9.83242 19.5402 9.50275C19.5402 9.12912 19.4761 8.82692 19.3481 8.59615C19.225 8.36538 19.0305 8.1978 18.7645 8.09341C18.5035 7.98901 18.1662 7.93681 17.7525 7.93681H16.2161V11.0357H17.7525Z" fill="#FF0000"/>
</svg>
