<svg width="24" height="24" viewBox="0 0 24 24" fill="none" xmlns="http://www.w3.org/2000/svg">
<path fill-rule="evenodd" clip-rule="evenodd" d="M5.92013 2.04087C4.93913 2.10587 4.36013 2.28687 3.70013 2.73287C3.03113 3.18487 2.46713 3.93987 2.24513 4.67987C2.00313 5.48687 1.99213 5.76287 2.01013 10.9399C2.02413 15.3759 2.02713 15.5099 2.10713 15.8609C2.38613 17.0779 3.12713 18.0299 4.21713 18.5709C4.89513 18.9079 5.24413 18.9629 6.90013 18.9949C8.40013 19.0239 8.42113 19.0269 8.69013 19.2959C8.75813 19.3639 9.26713 20.0229 9.82013 20.7599C10.3731 21.4969 10.9201 22.1849 11.0351 22.2879C11.5871 22.7839 12.4131 22.7839 12.9651 22.2879C13.0801 22.1849 13.6271 21.4969 14.1801 20.7599C14.7331 20.0229 15.2421 19.3639 15.3101 19.2959C15.5791 19.0269 15.6001 19.0239 17.1001 18.9949C18.5071 18.9679 18.8341 18.9339 19.3291 18.7639C20.5371 18.3479 21.5261 17.2859 21.8371 16.0719C21.9871 15.4859 22.0001 15.0379 22.0001 10.5829C22.0001 5.74587 21.9881 5.45187 21.7551 4.67987C21.4241 3.58087 20.4651 2.62187 19.3201 2.24587C18.6441 2.02387 18.8001 2.02887 12.3401 2.01887C9.06213 2.01387 6.17313 2.02387 5.92013 2.04087ZM18.4921 4.09087C18.8941 4.18787 19.1091 4.30887 19.4001 4.59987C19.6961 4.89587 19.8141 5.10887 19.9121 5.52787C19.9741 5.79387 19.9801 6.23087 19.9801 10.5199C19.9801 14.0509 19.9681 15.2769 19.9311 15.4489C19.7861 16.1349 19.2411 16.7209 18.5801 16.9019C18.3921 16.9539 18.0341 16.9749 16.9201 17.0009C15.4331 17.0349 15.2811 17.0519 14.8201 17.2449C14.4941 17.3819 14.1021 17.6649 13.8271 17.9609C13.6861 18.1139 13.2211 18.7059 12.7951 19.2779C12.3691 19.8489 12.0111 20.3169 12.0001 20.3169C11.9891 20.3169 11.6311 19.8489 11.2051 19.2779C10.7791 18.7059 10.3141 18.1139 10.1731 17.9609C9.89813 17.6649 9.50613 17.3819 9.18013 17.2449C8.71913 17.0519 8.56713 17.0349 7.08013 17.0009C5.51713 16.9649 5.35713 16.9429 4.96613 16.7079C4.69313 16.5449 4.35713 16.1839 4.22413 15.9119C4.01713 15.4879 4.02013 15.5599 4.02013 10.5199C4.02013 6.23087 4.02613 5.79387 4.08813 5.52787C4.17513 5.15487 4.29413 4.91787 4.52013 4.66687C4.88313 4.26187 5.28213 4.09087 5.98013 4.03887C6.20013 4.02287 9.04413 4.01287 12.3001 4.01787C17.6431 4.02387 18.2471 4.03187 18.4921 4.09087ZM7.17413 9.03887C6.75013 9.12887 6.32913 9.47687 6.13213 9.89987C6.03513 10.1069 6.02013 10.1899 6.02013 10.4999C6.02013 10.8109 6.03513 10.8939 6.13313 11.1039C6.27613 11.4129 6.58513 11.7209 6.90013 11.8679C7.10713 11.9649 7.19013 11.9799 7.50013 11.9799C7.81013 11.9799 7.89313 11.9649 8.10013 11.8679C8.41513 11.7209 8.72413 11.4129 8.86713 11.1039C8.96513 10.8939 8.98013 10.8109 8.98013 10.4999C8.98013 10.1889 8.96513 10.1059 8.86713 9.89587C8.72713 9.59187 8.41513 9.27787 8.11913 9.14287C7.87013 9.02987 7.44113 8.98187 7.17413 9.03887ZM11.6371 9.05487C10.8081 9.23287 10.2941 10.2019 10.5991 11.0099C10.7591 11.4349 11.1441 11.8119 11.5381 11.9299C11.7471 11.9919 12.2531 11.9919 12.4621 11.9299C12.8551 11.8119 13.2421 11.4339 13.3991 11.0129C13.7071 10.1899 13.1901 9.22987 12.3441 9.05287C12.0511 8.99087 11.9301 8.99187 11.6371 9.05487ZM16.1741 9.03887C15.7501 9.12887 15.3291 9.47687 15.1321 9.89987C15.0351 10.1069 15.0201 10.1899 15.0201 10.4999C15.0201 10.8109 15.0351 10.8939 15.1331 11.1039C15.2761 11.4129 15.5851 11.7209 15.9001 11.8679C16.1071 11.9649 16.1901 11.9799 16.5001 11.9799C16.8101 11.9799 16.8931 11.9649 17.1001 11.8679C17.4151 11.7209 17.7241 11.4129 17.8671 11.1039C17.9651 10.8939 17.9801 10.8109 17.9801 10.4999C17.9801 10.1889 17.9651 10.1059 17.8671 9.89587C17.7271 9.59187 17.4151 9.27787 17.1191 9.14287C16.8701 9.02987 16.4411 8.98187 16.1741 9.03887Z" fill="#FF0000"/>
</svg>
