<svg width="16" height="16" viewBox="0 0 16 16" fill="none" xmlns="http://www.w3.org/2000/svg">
<path d="M4 14.6667V11.8C3.36667 11.2223 2.875 10.5473 2.525 9.77504C2.175 9.00282 2 8.18893 2 7.33337C2 5.66671 2.58333 4.25004 3.75 3.08337C4.91667 1.91671 6.33333 1.33337 8 1.33337C9.38889 1.33337 10.6194 1.74171 11.6917 2.55837C12.7639 3.37504 13.4611 4.43893 13.7833 5.75004L14.65 9.16671C14.7056 9.37782 14.6667 9.56949 14.5333 9.74171C14.4 9.91393 14.2222 10 14 10H12.6667V12C12.6667 12.3667 12.5361 12.6806 12.275 12.9417C12.0139 13.2028 11.7 13.3334 11.3333 13.3334H10V14.6667H8.66667V12H11.3333V8.66671H13.1333L12.5 6.08337C12.2444 5.07226 11.7 4.25004 10.8667 3.61671C10.0333 2.98337 9.07778 2.66671 8 2.66671C6.71111 2.66671 5.61111 3.11671 4.7 4.01671C3.78889 4.91671 3.33333 6.01115 3.33333 7.30004C3.33333 7.96671 3.46944 8.60004 3.74167 9.20004C4.01389 9.80004 4.4 10.3334 4.9 10.8L5.33333 11.2V14.6667H4ZM7.33333 10H8.66667L8.76667 9.16671C8.85556 9.13337 8.93611 9.09449 9.00833 9.05004C9.08056 9.0056 9.14444 8.9556 9.2 8.90004L9.96667 9.23337L10.6333 8.10004L9.96667 7.60004C9.98889 7.51115 10 7.42226 10 7.33337C10 7.24449 9.98889 7.1556 9.96667 7.06671L10.6333 6.56671L9.96667 5.43337L9.2 5.76671C9.14444 5.71115 9.08056 5.66115 9.00833 5.61671C8.93611 5.57226 8.85556 5.53337 8.76667 5.50004L8.66667 4.66671H7.33333L7.23333 5.50004C7.14444 5.53337 7.06389 5.57226 6.99167 5.61671C6.91944 5.66115 6.85556 5.71115 6.8 5.76671L6.03333 5.43337L5.36667 6.56671L6.03333 7.06671C6.01111 7.1556 6 7.24449 6 7.33337C6 7.42226 6.01111 7.51115 6.03333 7.60004L5.36667 8.10004L6.03333 9.23337L6.8 8.90004C6.85556 8.9556 6.91944 9.0056 6.99167 9.05004C7.06389 9.09449 7.14444 9.13337 7.23333 9.16671L7.33333 10ZM8 8.33337C7.72222 8.33337 7.48611 8.23615 7.29167 8.04171C7.09722 7.84726 7 7.61115 7 7.33337C7 7.0556 7.09722 6.81949 7.29167 6.62504C7.48611 6.4306 7.72222 6.33337 8 6.33337C8.27778 6.33337 8.51389 6.4306 8.70833 6.62504C8.90278 6.81949 9 7.0556 9 7.33337C9 7.61115 8.90278 7.84726 8.70833 8.04171C8.51389 8.23615 8.27778 8.33337 8 8.33337Z" fill="#FF0000"/>
</svg>
