<svg width="12" height="12" viewBox="0 0 12 12" fill="none" xmlns="http://www.w3.org/2000/svg">
<path d="M6.00511 2.8C5.88931 2.8 5.79225 2.76167 5.71392 2.685C5.63559 2.60833 5.59642 2.51333 5.59642 2.4C5.59642 2.28667 5.63559 2.19167 5.71392 2.115C5.79225 2.03833 5.88931 2 6.00511 2C6.1209 2 6.21796 2.03833 6.2963 2.115C6.37463 2.19167 6.41379 2.28667 6.41379 2.4C6.41379 2.51333 6.37463 2.60833 6.2963 2.685C6.21796 2.76167 6.1209 2.8 6.00511 2.8ZM6.00511 10C5.88931 10 5.79225 9.96167 5.71392 9.885C5.63559 9.80833 5.59642 9.71333 5.59642 9.6C5.59642 9.48667 5.63559 9.39167 5.71392 9.315C5.79225 9.23833 5.88931 9.2 6.00511 9.2C6.1209 9.2 6.21796 9.23833 6.2963 9.315C6.37463 9.39167 6.41379 9.48667 6.41379 9.6C6.41379 9.71333 6.37463 9.80833 6.2963 9.885C6.21796 9.96167 6.1209 10 6.00511 10ZM3.1341 4.15C3.01831 4.15 2.92124 4.11167 2.84291 4.035C2.76458 3.95833 2.72542 3.86333 2.72542 3.75C2.72542 3.63667 2.76458 3.54167 2.84291 3.465C2.92124 3.38833 3.01831 3.35 3.1341 3.35C3.24989 3.35 3.34696 3.38833 3.42529 3.465C3.50362 3.54167 3.54278 3.63667 3.54278 3.75C3.54278 3.86333 3.50362 3.95833 3.42529 4.035C3.34696 4.11167 3.24989 4.15 3.1341 4.15ZM8.87612 8.65C8.76032 8.65 8.66326 8.61167 8.58493 8.535C8.5066 8.45833 8.46743 8.36333 8.46743 8.25C8.46743 8.13667 8.5066 8.04167 8.58493 7.965C8.66326 7.88833 8.76032 7.85 8.87612 7.85C8.99191 7.85 9.08897 7.88833 9.1673 7.965C9.24564 8.04167 9.2848 8.13667 9.2848 8.25C9.2848 8.36333 9.24564 8.45833 9.1673 8.535C9.08897 8.61167 8.99191 8.65 8.87612 8.65ZM2.4189 7.2C2.30311 7.2 2.20605 7.16167 2.12771 7.085C2.04938 7.00833 2.01022 6.91333 2.01022 6.8C2.01022 6.68667 2.04938 6.59167 2.12771 6.515C2.20605 6.43833 2.30311 6.4 2.4189 6.4C2.5347 6.4 2.63176 6.43833 2.71009 6.515C2.78842 6.59167 2.82759 6.68667 2.82759 6.8C2.82759 6.91333 2.78842 7.00833 2.71009 7.085C2.63176 7.16167 2.5347 7.2 2.4189 7.2ZM9.59132 5.6C9.47552 5.6 9.37846 5.56167 9.30013 5.485C9.2218 5.40833 9.18263 5.31333 9.18263 5.2C9.18263 5.08667 9.2218 4.99167 9.30013 4.915C9.37846 4.83833 9.47552 4.8 9.59132 4.8C9.70711 4.8 9.80417 4.83833 9.8825 4.915C9.96083 4.99167 10 5.08667 10 5.2C10 5.31333 9.96083 5.40833 9.8825 5.485C9.80417 5.56167 9.70711 5.6 9.59132 5.6ZM4.41124 9.65C4.29544 9.65 4.19838 9.61167 4.12005 9.535C4.04172 9.45833 4.00255 9.36333 4.00255 9.25C4.00255 9.13667 4.04172 9.04167 4.12005 8.965C4.19838 8.88833 4.29544 8.85 4.41124 8.85C4.52703 8.85 4.6241 8.88833 4.70243 8.965C4.78076 9.04167 4.81992 9.13667 4.81992 9.25C4.81992 9.36333 4.78076 9.45833 4.70243 9.535C4.6241 9.61167 4.52703 9.65 4.41124 9.65ZM7.59898 3.15C7.48318 3.15 7.38612 3.11167 7.30779 3.035C7.22946 2.95833 7.19029 2.86333 7.19029 2.75C7.19029 2.63667 7.22946 2.54167 7.30779 2.465C7.38612 2.38833 7.48318 2.35 7.59898 2.35C7.71477 2.35 7.81183 2.38833 7.89017 2.465C7.9685 2.54167 8.00766 2.63667 8.00766 2.75C8.00766 2.86333 7.9685 2.95833 7.89017 3.035C7.81183 3.11167 7.71477 3.15 7.59898 3.15ZM7.59898 9.64C7.48318 9.64 7.38612 9.60167 7.30779 9.525C7.22946 9.44833 7.19029 9.35333 7.19029 9.24C7.19029 9.12667 7.22946 9.03167 7.30779 8.955C7.38612 8.87833 7.48318 8.84 7.59898 8.84C7.71477 8.84 7.81183 8.87833 7.89017 8.955C7.9685 9.03167 8.00766 9.12667 8.00766 9.24C8.00766 9.35333 7.9685 9.44833 7.89017 9.525C7.81183 9.60167 7.71477 9.64 7.59898 9.64ZM4.41124 3.15C4.29544 3.15 4.19838 3.11167 4.12005 3.035C4.04172 2.95833 4.00255 2.86333 4.00255 2.75C4.00255 2.63667 4.04172 2.54167 4.12005 2.465C4.19838 2.38833 4.29544 2.35 4.41124 2.35C4.52703 2.35 4.6241 2.38833 4.70243 2.465C4.78076 2.54167 4.81992 2.63667 4.81992 2.75C4.81992 2.86333 4.78076 2.95833 4.70243 3.035C4.6241 3.11167 4.52703 3.15 4.41124 3.15ZM9.59132 7.2C9.47552 7.2 9.37846 7.16167 9.30013 7.085C9.2218 7.00833 9.18263 6.91333 9.18263 6.8C9.18263 6.68667 9.2218 6.59167 9.30013 6.515C9.37846 6.43833 9.47552 6.4 9.59132 6.4C9.70711 6.4 9.80417 6.43833 9.8825 6.515C9.96083 6.59167 10 6.68667 10 6.8C10 6.91333 9.96083 7.00833 9.8825 7.085C9.80417 7.16167 9.70711 7.2 9.59132 7.2ZM2.40868 5.6C2.29289 5.6 2.19583 5.56167 2.1175 5.485C2.03917 5.40833 2 5.31333 2 5.2C2 5.08667 2.03917 4.99167 2.1175 4.915C2.19583 4.83833 2.29289 4.8 2.40868 4.8C2.52448 4.8 2.62154 4.83833 2.69987 4.915C2.7782 4.99167 2.81737 5.08667 2.81737 5.2C2.81737 5.31333 2.7782 5.40833 2.69987 5.485C2.62154 5.56167 2.52448 5.6 2.40868 5.6ZM8.87612 4.15C8.76032 4.15 8.66326 4.11167 8.58493 4.035C8.5066 3.95833 8.46743 3.86333 8.46743 3.75C8.46743 3.63667 8.5066 3.54167 8.58493 3.465C8.66326 3.38833 8.76032 3.35 8.87612 3.35C8.99191 3.35 9.08897 3.38833 9.1673 3.465C9.24564 3.54167 9.2848 3.63667 9.2848 3.75C9.2848 3.86333 9.24564 3.95833 9.1673 4.035C9.08897 4.11167 8.99191 4.15 8.87612 4.15ZM3.1341 8.65C3.01831 8.65 2.92124 8.61167 2.84291 8.535C2.76458 8.45833 2.72542 8.36333 2.72542 8.25C2.72542 8.13667 2.76458 8.04167 2.84291 7.965C2.92124 7.88833 3.01831 7.85 3.1341 7.85C3.24989 7.85 3.34696 7.88833 3.42529 7.965C3.50362 8.04167 3.54278 8.13667 3.54278 8.25C3.54278 8.36333 3.50362 8.45833 3.42529 8.535C3.34696 8.61167 3.24989 8.65 3.1341 8.65Z" fill="#FF0000"/>
</svg>
