<svg width="64" height="64" viewBox="0 0 64 64" fill="none" xmlns="http://www.w3.org/2000/svg">
<path d="M41 11.0425V8C41 7.34339 40.8707 6.69321 40.6194 6.08658C40.3681 5.47995 39.9998 4.92876 39.5355 4.46447C39.0712 4.00017 38.52 3.63188 37.9134 3.3806C37.3068 3.12933 36.6566 3 36 3H28C26.6739 3 25.4021 3.52678 24.4645 4.46447C23.5268 5.40215 23 6.67392 23 8V11.0425C19.7367 11.2972 16.6893 12.7723 14.4653 15.1738C12.2412 17.5753 11.0039 20.7268 11 24V54C11 54.7957 11.3161 55.5587 11.8787 56.1213C12.4413 56.6839 13.2044 57 14 57H50C50.7957 57 51.5587 56.6839 52.1213 56.1213C52.6839 55.5587 53 54.7957 53 54V24C52.9961 20.7268 51.7588 17.5753 49.5347 15.1738C47.3107 12.7723 44.2633 11.2972 41 11.0425ZM28 5H36C36.7956 5 37.5587 5.31607 38.1213 5.87868C38.6839 6.44129 39 7.20435 39 8V11H25V8C25 7.20435 25.3161 6.44129 25.8787 5.87868C26.4413 5.31607 27.2044 5 28 5ZM43 41H21V38C21 37.2043 21.3161 36.4413 21.8787 35.8787C22.4413 35.3161 23.2044 35 24 35H40C40.7956 35 41.5587 35.3161 42.1213 35.8787C42.6839 36.4413 43 37.2043 43 38V41ZM21 43H35V46C35 46.2652 35.1054 46.5196 35.2929 46.7071C35.4804 46.8946 35.7348 47 36 47C36.2652 47 36.5196 46.8946 36.7071 46.7071C36.8946 46.5196 37 46.2652 37 46V43H43V55H21V43ZM51 54C51 54.2652 50.8946 54.5196 50.7071 54.7071C50.5196 54.8946 50.2652 55 50 55H45V38C45 36.6739 44.4732 35.4021 43.5355 34.4645C42.5979 33.5268 41.3261 33 40 33H24C22.6739 33 21.4021 33.5268 20.4645 34.4645C19.5268 35.4021 19 36.6739 19 38V55H14C13.7348 55 13.4804 54.8946 13.2929 54.7071C13.1054 54.5196 13 54.2652 13 54V24C13.0033 21.0836 14.1633 18.2877 16.2255 16.2255C18.2877 14.1633 21.0836 13.0033 24 13H40C42.9164 13.0033 45.7123 14.1633 47.7745 16.2255C49.8367 18.2877 50.9967 21.0836 51 24V54Z" fill="white"/>
<path fill-rule="evenodd" clip-rule="evenodd" d="M32.4832 18.028L32.4831 18.0281L30.4378 26.4822C30.434 26.4977 30.4322 26.5054 30.4341 26.5115C30.4358 26.5168 30.4393 26.5213 30.4441 26.5242C30.4496 26.5275 30.4575 26.5275 30.4734 26.5275H37.2764C38.0512 26.5275 38.6793 25.8785 38.6793 25.0778V19.4497C38.6793 18.649 38.0512 18 37.2764 18H32.5188C32.5085 18 32.5033 18 32.499 18.0018C32.4953 18.0034 32.492 18.006 32.4896 18.0093C32.4868 18.013 32.4856 18.018 32.4832 18.028ZM31.2395 19.6315C31.2415 19.6376 31.2396 19.6453 31.2359 19.6607L29.4024 27.3044C29.3987 27.3199 29.3968 27.3276 29.3987 27.3336C29.4004 27.339 29.404 27.3435 29.4088 27.3464C29.4142 27.3497 29.4222 27.3497 29.438 27.3497H32.2804C32.2963 27.3497 32.3042 27.3497 32.3097 27.3529C32.3144 27.3558 32.318 27.3603 32.3197 27.3657C32.3216 27.3717 32.3198 27.3795 32.3161 27.3949L32.1434 28.1149L32.1434 28.1149C32.1409 28.1249 32.1397 28.1299 32.137 28.1337C32.1345 28.137 32.1313 28.1396 32.1275 28.1412C32.1232 28.143 32.118 28.143 32.1077 28.143H27.391C26.6228 28.143 26 27.494 26 26.6933L26 21.0652C26 20.2645 26.6228 19.6155 27.391 19.6155H31.2002C31.2161 19.6155 31.2241 19.6155 31.2295 19.6188C31.2343 19.6216 31.2379 19.6262 31.2395 19.6315Z" fill="white"/>
</svg>
