<svg width="64" height="64" viewBox="0 0 64 64" fill="none" xmlns="http://www.w3.org/2000/svg">
<path fill-rule="evenodd" clip-rule="evenodd" d="M42.1039 16.0351L42.1039 16.0351L39.5472 26.6028C39.5425 26.6221 39.5402 26.6317 39.5426 26.6393C39.5447 26.646 39.5492 26.6517 39.5551 26.6553C39.562 26.6594 39.5719 26.6594 39.5918 26.6594H48.0955C49.064 26.6594 49.8491 25.8481 49.8491 24.8473V17.8121C49.8491 16.8113 49.064 16 48.0955 16H42.1485C42.1356 16 42.1292 16 42.1238 16.0023C42.1191 16.0043 42.115 16.0075 42.1119 16.0116C42.1085 16.0163 42.107 16.0225 42.1039 16.0351ZM40.5494 18.0394C40.5518 18.047 40.5495 18.0566 40.5449 18.0759L38.253 27.6305C38.2483 27.6498 38.246 27.6595 38.2484 27.6671C38.2505 27.6737 38.255 27.6794 38.261 27.683C38.2678 27.6871 38.2777 27.6871 38.2975 27.6871H41.8505C41.8703 27.6871 41.8803 27.6871 41.8871 27.6912C41.8931 27.6948 41.8975 27.7004 41.8996 27.7071C41.902 27.7147 41.8997 27.7243 41.8951 27.7436L41.6792 28.6436L41.6792 28.6436C41.6762 28.6562 41.6747 28.6624 41.6712 28.6671C41.6682 28.6712 41.6641 28.6745 41.6593 28.6765C41.654 28.6787 41.6475 28.6787 41.6346 28.6787H35.7387C34.7784 28.6787 34 27.8675 34 26.8666L34 19.8315C34 18.8307 34.7784 18.0194 35.7387 18.0194H40.5003C40.5201 18.0194 40.5301 18.0194 40.5369 18.0235C40.5429 18.0271 40.5473 18.0327 40.5494 18.0394Z" fill="white"/>
<path fill-rule="evenodd" clip-rule="evenodd" d="M25.0956 24.2746C26.0285 24.0031 27.0216 24.4414 27.4498 25.3136L36.3636 43.4713C36.9175 44.5997 36.3055 45.9533 35.0924 46.2827L18.6912 50.7374C17.7296 50.9985 16.7225 50.5121 16.3293 49.5967L8.52744 31.4336C8.05323 30.3296 8.65258 29.0596 9.80625 28.7239L25.0956 24.2746ZM25.6544 26.195L10.3651 30.6442L18.167 48.8073L34.5682 44.3527L25.6544 26.195Z" fill="white"/>
<path fill-rule="evenodd" clip-rule="evenodd" d="M2.12358 36.6665L8.75828 29.3293L10.2417 30.6707L3.60703 38.0079C3.34362 38.2992 3.27511 38.7177 3.43189 39.0778L12.5413 60C12.741 60.4585 13.2486 60.6991 13.7299 60.5632L34.2038 54.7818C34.6504 54.6557 34.9515 54.2389 34.931 53.7753L34.501 44.0442L36.499 43.9558L36.9291 53.687C36.9906 55.0779 36.0871 56.3282 34.7473 56.7066L14.2734 62.4879C12.8296 62.8956 11.3065 62.174 10.7076 60.7984L1.59816 39.8762C1.12782 38.7959 1.33335 37.5404 2.12358 36.6665Z" fill="white"/>
<path fill-rule="evenodd" clip-rule="evenodd" d="M18.4255 50.3786L13.9255 61.3786L12.0744 60.6214L16.5744 49.6214L18.4255 50.3786Z" fill="white"/>
<path fill-rule="evenodd" clip-rule="evenodd" d="M23 6C23 4.89543 23.8954 4 25 4H58C59.1046 4 60 4.89543 60 6V39C60 40.1046 59.1046 41 58 41H34V39H58V6L25 6V25H23V6Z" fill="white"/>
</svg>
