<svg width="64" height="64" viewBox="0 0 64 64" fill="none" xmlns="http://www.w3.org/2000/svg">
<path d="M58.5 30.6875L44.9275 10.335C44.6531 9.92369 44.2812 9.58659 43.8451 9.35367C43.4089 9.12076 42.922 8.99927 42.4275 9H21.5675C21.073 8.99927 20.5861 9.12076 20.1499 9.35367C19.7138 9.58659 19.3419 9.92369 19.0675 10.335L5.5 30.6875C5.26163 31.0443 5.10258 31.4481 5.03357 31.8716C4.96457 32.2951 4.98722 32.7285 5.1 33.1425L10.46 52.79C10.6334 53.4253 11.0111 53.986 11.5347 54.3854C12.0584 54.7848 12.6989 55.0007 13.3575 55H20C20.7956 55 21.5587 54.6839 22.1213 54.1213C22.6839 53.5587 23 52.7957 23 52V47H41V52C41 52.7957 41.3161 53.5587 41.8787 54.1213C42.4413 54.6839 43.2043 55 44 55H50.6425C51.3002 54.9996 51.9396 54.7832 52.4622 54.3838C52.9849 53.9845 53.3618 53.4245 53.535 52.79L58.895 33.1425C59.0085 32.7288 59.032 32.2957 58.9638 31.8722C58.8957 31.4487 58.7375 31.0447 58.5 30.6875ZM20 45C19.7348 45 19.4804 44.8946 19.2929 44.7071C19.1054 44.5196 19 44.2652 19 44V15.5L27 20.215V34C27 34.2652 27.1054 34.5196 27.2929 34.7071C27.4804 34.8946 27.7348 35 28 35C28.2652 35 28.5196 34.8946 28.7071 34.7071C28.8946 34.5196 29 34.2652 29 34V21.3925L31.5 22.8625C31.6538 22.9531 31.829 23.0009 32.0075 23.0009C32.186 23.0009 32.3612 22.9531 32.515 22.8625L35.015 21.3925V32C35.015 32.2652 35.1204 32.5196 35.3079 32.7071C35.4954 32.8946 35.7498 33 36.015 33C36.2802 33 36.5346 32.8946 36.7221 32.7071C36.9096 32.5196 37.015 32.2652 37.015 32V20.2125L45 15.5V44C45 44.2652 44.8946 44.5196 44.7071 44.7071C44.5196 44.8946 44.2652 45 44 45H20ZM20.735 11.445C20.8264 11.308 20.9502 11.1957 21.0954 11.1181C21.2407 11.0405 21.4028 10.9999 21.5675 11H42.4325C42.5972 10.9999 42.7593 11.0405 42.9046 11.1181C43.0498 11.1957 43.1736 11.308 43.265 11.445L44.5825 13.4225L32 20.84L19.4175 13.4225L20.735 11.445ZM21 52C21 52.2652 20.8946 52.5196 20.7071 52.7071C20.5196 52.8946 20.2652 53 20 53H13.3575C13.1384 52.9995 12.9256 52.927 12.7517 52.7938C12.5778 52.6605 12.4525 52.4739 12.395 52.2625L7.035 32.615C6.99741 32.4772 6.98979 32.3329 7.01264 32.1919C7.0355 32.0509 7.0883 31.9164 7.1675 31.7975L17 17.05V44C17 44.7957 17.3161 45.5587 17.8787 46.1213C18.4413 46.6839 19.2043 47 20 47H21V52ZM56.965 32.615L51.605 52.2625C51.5475 52.4739 51.4222 52.6605 51.2483 52.7938C51.0744 52.927 50.8616 52.9995 50.6425 53H44C43.7348 53 43.4804 52.8946 43.2929 52.7071C43.1054 52.5196 43 52.2652 43 52V47H44C44.7957 47 45.5587 46.6839 46.1213 46.1213C46.6839 45.5587 47 44.7957 47 44V17.05L56.8325 31.8C56.9113 31.9186 56.9639 32.0526 56.9868 32.1932C57.0096 32.3337 57.0022 32.4776 56.965 32.615Z" fill="white"/>
</svg>
