<svg width="64" height="64" viewBox="0 0 64 64" fill="none" xmlns="http://www.w3.org/2000/svg">
<path fill-rule="evenodd" clip-rule="evenodd" d="M61 10H3C2.44772 10 2 10.4477 2 11V53C2 53.5523 2.44772 54 3 54H61C61.5523 54 62 53.5523 62 53V11C62 10.4477 61.5523 10 61 10ZM3 8C1.34315 8 0 9.34315 0 11V53C0 54.6569 1.34315 56 3 56H61C62.6569 56 64 54.6569 64 53V11C64 9.34315 62.6569 8 61 8H3Z" fill="white"/>
<path fill-rule="evenodd" clip-rule="evenodd" d="M64 44H0V42H64V44Z" fill="white"/>
<path d="M10 15.5C10 16.8807 8.88071 18 7.5 18C6.11929 18 5 16.8807 5 15.5C5 14.1193 6.11929 13 7.5 13C8.88071 13 10 14.1193 10 15.5Z" fill="white"/>
<path d="M17 15.5C17 16.8807 15.8807 18 14.5 18C13.1193 18 12 16.8807 12 15.5C12 14.1193 13.1193 13 14.5 13C15.8807 13 17 14.1193 17 15.5Z" fill="white"/>
<path d="M24 15.5C24 16.8807 22.8807 18 21.5 18C20.1193 18 19 16.8807 19 15.5C19 14.1193 20.1193 13 21.5 13C22.8807 13 24 14.1193 24 15.5Z" fill="white"/>
</svg>
