<svg width="64" height="64" viewBox="0 0 64 64" fill="none" xmlns="http://www.w3.org/2000/svg">
<path d="M55 12V52C55 52.7957 54.6839 53.5587 54.1213 54.1213C53.5587 54.6839 52.7957 55 52 55H12C11.2044 55 10.4413 54.6839 9.87868 54.1213C9.31607 53.5587 9 52.7957 9 52V12C9 11.2044 9.31607 10.4413 9.87868 9.87868C10.4413 9.31607 11.2044 9 12 9H52C52.7957 9 53.5587 9.31607 54.1213 9.87868C54.6839 10.4413 55 11.2044 55 12ZM12 53H19V11H12C11.7348 11 11.4804 11.1054 11.2929 11.2929C11.1054 11.4804 11 11.7348 11 12V52C11 52.2652 11.1054 52.5196 11.2929 52.7071C11.4804 52.8946 11.7348 53 12 53ZM53 12C53 11.7348 52.8946 11.4804 52.7071 11.2929C52.5196 11.1054 52.2652 11 52 11H21V53H52C52.2652 53 52.5196 52.8946 52.7071 52.7071C52.8946 52.5196 53 52.2652 53 52V12Z" fill="white"/>
<path fill-rule="evenodd" clip-rule="evenodd" d="M35.6322 25.4577L35.6322 25.4577L33.0755 36.0254C33.0708 36.0447 33.0684 36.0544 33.0708 36.062C33.0729 36.0686 33.0774 36.0743 33.0834 36.0779C33.0902 36.082 33.1001 36.082 33.12 36.082H41.6237C42.5922 36.082 43.3774 35.2707 43.3774 34.2699V27.2347C43.3774 26.2339 42.5922 25.4226 41.6237 25.4226H35.6767C35.6638 25.4226 35.6574 25.4226 35.6521 25.4249C35.6473 25.4269 35.6432 25.4301 35.6402 25.4342C35.6367 25.4389 35.6352 25.4451 35.6322 25.4577ZM34.0777 27.462C34.0801 27.4696 34.0778 27.4792 34.0731 27.4985L31.7812 37.0531C31.7766 37.0724 31.7743 37.0821 31.7767 37.0897C31.7788 37.0963 31.7832 37.102 31.7892 37.1056C31.796 37.1097 31.806 37.1097 31.8258 37.1097H35.3787C35.3986 37.1097 35.4085 37.1097 35.4153 37.1138C35.4213 37.1174 35.4258 37.123 35.4279 37.1297C35.4303 37.1373 35.428 37.1469 35.4233 37.1662L35.2074 38.0662L35.2074 38.0662C35.2044 38.0788 35.2029 38.085 35.1995 38.0897C35.1964 38.0939 35.1923 38.0971 35.1876 38.0991C35.1822 38.1014 35.1758 38.1014 35.1629 38.1014H29.267C28.3067 38.1014 27.5282 37.2901 27.5282 36.2892L27.5282 29.2541C27.5282 28.2533 28.3067 27.442 29.267 27.442H34.0286C34.0484 27.442 34.0583 27.442 34.0651 27.4461C34.0711 27.4497 34.0756 27.4553 34.0777 27.462Z" fill="white"/>
</svg>
