<svg width="64" height="64" viewBox="0 0 64 64" fill="none" xmlns="http://www.w3.org/2000/svg">
<path d="M61.42 16.1825L48.4775 9.1225C48.3311 9.04246 48.1669 9.00035 48 9H40C39.7348 9 39.4804 9.10536 39.2929 9.29289C39.1054 9.48043 39 9.73478 39 10C39 11.8565 38.2625 13.637 36.9497 14.9497C35.637 16.2625 33.8565 17 32 17C30.1435 17 28.363 16.2625 27.0503 14.9497C25.7375 13.637 25 11.8565 25 10C25 9.73478 24.8946 9.48043 24.7071 9.29289C24.5196 9.10536 24.2652 9 24 9H16C15.8337 9.00153 15.6705 9.04449 15.525 9.125L2.58 16.1825C1.88799 16.5441 1.3677 17.1654 1.13335 17.9102C0.898994 18.655 0.969719 19.4623 1.33 20.155L6.15 29.3575C6.41475 29.8563 6.811 30.273 7.29577 30.5625C7.78055 30.8521 8.33535 31.0034 8.9 31H15V52C15 52.7957 15.3161 53.5587 15.8787 54.1213C16.4413 54.6839 17.2044 55 18 55H46C46.7957 55 47.5587 54.6839 48.1213 54.1213C48.6839 53.5587 49 52.7957 49 52V31H55.0825C55.6472 31.0034 56.202 30.8521 56.6867 30.5625C57.1715 30.273 57.5678 29.8563 57.8325 29.3575L62.6525 20.155C63.0141 19.4644 63.0874 18.6588 62.8564 17.9143C62.6255 17.1698 62.109 16.5471 61.42 16.1825ZM8.9175 29C8.71474 29.0049 8.51447 28.9545 8.33826 28.854C8.16205 28.7536 8.01658 28.607 7.9175 28.43L3.11 19.2275C3.05192 19.1152 3.0169 18.9924 3.00701 18.8664C2.99711 18.7404 3.01253 18.6136 3.05237 18.4936C3.09221 18.3737 3.15566 18.2629 3.23897 18.1678C3.32229 18.0727 3.42379 17.9953 3.5375 17.94L15 11.685V29H8.9175ZM47 52C47 52.2652 46.8946 52.5196 46.7071 52.7071C46.5196 52.8946 46.2652 53 46 53H18C17.7348 53 17.4804 52.8946 17.2929 52.7071C17.1054 52.5196 17 52.2652 17 52V11H23.055C23.2995 13.2014 24.3472 15.2353 25.9976 16.7125C27.6479 18.1898 29.7851 19.0065 32 19.0065C34.2149 19.0065 36.3521 18.1898 38.0024 16.7125C39.6528 15.2353 40.7005 13.2014 40.945 11H47V52ZM60.89 19.2275L56.0725 28.43C55.9734 28.607 55.8279 28.7536 55.6517 28.854C55.4755 28.9545 55.2753 29.0049 55.0725 29H49V11.685L60.4625 17.935C60.5769 17.9902 60.679 18.0679 60.7627 18.1633C60.8465 18.2588 60.9102 18.3701 60.9501 18.4907C60.9899 18.6113 61.0052 18.7386 60.9948 18.8652C60.9845 18.9918 60.9489 19.115 60.89 19.2275Z" fill="white"/>
<path fill-rule="evenodd" clip-rule="evenodd" d="M32.5963 25.7185L32.5963 25.7185L30.5509 34.1727C30.5472 34.1882 30.5453 34.1959 30.5472 34.202C30.5489 34.2073 30.5525 34.2118 30.5573 34.2147C30.5627 34.218 30.5707 34.218 30.5866 34.218H37.3896C38.1644 34.218 38.7925 33.569 38.7925 32.7683V27.1402C38.7925 26.3395 38.1644 25.6905 37.3896 25.6905H32.632C32.6216 25.6905 32.6165 25.6905 32.6122 25.6923C32.6084 25.6939 32.6052 25.6965 32.6027 25.6998C32.5999 25.7035 32.5987 25.7085 32.5963 25.7185ZM31.3527 27.322C31.3546 27.3281 31.3528 27.3358 31.3491 27.3512L29.5155 34.9949C29.5118 35.0104 29.51 35.0181 29.5119 35.0241C29.5136 35.0295 29.5172 35.034 29.5219 35.0369C29.5274 35.0401 29.5353 35.0401 29.5512 35.0401H32.3936C32.4094 35.0401 32.4174 35.0401 32.4228 35.0434C32.4276 35.0463 32.4312 35.0508 32.4329 35.0562C32.4348 35.0622 32.4329 35.0699 32.4292 35.0854L32.2565 35.8054L32.2565 35.8054C32.2541 35.8154 32.2529 35.8204 32.2501 35.8242C32.2477 35.8275 32.2444 35.8301 32.2406 35.8317C32.2364 35.8335 32.2312 35.8335 32.2209 35.8335H27.5041C26.7359 35.8335 26.1132 35.1845 26.1132 34.3838L26.1132 28.7557C26.1132 27.955 26.7359 27.306 27.5041 27.306H31.3134C31.3293 27.306 31.3372 27.306 31.3427 27.3093C31.3475 27.3121 31.351 27.3167 31.3527 27.322Z" fill="white"/>
</svg>
