<svg width="64" height="64" viewBox="0 0 64 64" fill="none" xmlns="http://www.w3.org/2000/svg">
<path d="M32 7C25.372 7.00794 19.0178 9.64441 14.3311 14.3311C9.64441 19.0178 7.00794 25.372 7 32V46C6.99994 46.9244 7.25612 47.8306 7.74009 48.6182C8.22406 49.4057 8.91686 50.0437 9.74154 50.4612C10.5662 50.8787 11.4905 51.0594 12.4117 50.9833C13.3329 50.9072 14.215 50.5772 14.96 50.03C18.115 47.75 23.6325 45 32 45C40.3675 45 45.885 47.735 49.04 50.03C49.7896 50.5812 50.6781 50.9122 51.6056 50.986C52.5331 51.0598 53.4627 50.8733 54.29 50.4475C55.1091 50.0296 55.7961 49.3926 56.2746 48.6074C56.7531 47.8221 57.0042 46.9195 57 46V32C56.9921 25.372 54.3556 19.0178 49.6689 14.3311C44.9822 9.64441 38.628 7.00794 32 7ZM55 32V36.0575C51.2836 33.5235 47.1717 31.6252 42.8325 30.44C42.097 22.6577 39.1327 15.2526 34.295 9.1125C39.967 9.68806 45.2239 12.347 49.0486 16.5748C52.8733 20.8027 54.9939 26.2989 55 32ZM40.775 29.935C34.9914 28.6884 29.0086 28.6884 23.225 29.935C24.41 19.2325 30 11.8275 32 9.5C34 11.83 39.59 19.2325 40.775 29.9375V29.935ZM29.705 9.115C24.8673 15.2551 21.903 22.6602 21.1675 30.4425C16.8283 31.6277 12.7164 33.526 9 36.06V32C9.00677 26.2993 11.1276 20.8037 14.9522 16.5764C18.7769 12.3491 24.0334 9.69051 29.705 9.115ZM53.37 48.6675C52.8743 48.927 52.3154 49.0412 51.7577 48.997C51.2 48.9527 50.6661 48.7519 50.2175 48.4175C46.8225 45.945 40.905 43 32 43C23.095 43 17.1775 45.9425 13.7825 48.4125C13.3339 48.7469 12.8 48.9477 12.2423 48.992C11.6846 49.0362 11.1257 48.922 10.63 48.6625C10.1355 48.4168 9.72034 48.0366 9.43203 47.5657C9.14373 47.0948 8.99399 46.5521 9 46V38.5C15.6774 33.6238 23.7317 30.996 32 30.996C40.2683 30.996 48.3226 33.6238 55 38.5V46C55.007 46.553 54.8577 47.0967 54.5693 47.5686C54.2809 48.0405 53.8652 48.4214 53.37 48.6675Z" fill="white"/>
</svg>
