<svg width="64" height="64" viewBox="0 0 64 64" fill="none" xmlns="http://www.w3.org/2000/svg">
<path fill-rule="evenodd" clip-rule="evenodd" d="M20 19H43C45.2091 19 47 20.7909 47 23V60C47 62.2091 45.2091 64 43 64H20C17.7909 64 16 62.2091 16 60V23C16 20.7909 17.7909 19 20 19ZM20 21C18.8954 21 18 21.8954 18 23V60C18 61.1046 18.8954 62 20 62H43C44.1046 62 45 61.1046 45 60V23C45 21.8954 44.1046 21 43 21H20Z" fill="white"/>
<path fill-rule="evenodd" clip-rule="evenodd" d="M20 9H44V21H20V9ZM22 11V19H42V11H22Z" fill="white"/>
<path fill-rule="evenodd" clip-rule="evenodd" d="M17 10C17 9.44772 17.4477 9 18 9H45C45.5523 9 46 9.44772 46 10C46 10.5523 45.5523 11 45 11H18C17.4477 11 17 10.5523 17 10Z" fill="white"/>
<path fill-rule="evenodd" clip-rule="evenodd" d="M26.0017 9.95659C26.0017 9.9562 26.0017 9.95579 25.0027 10C24.0037 10.0442 24.0036 10.0437 24.0036 10.0432L24.0036 10.0421L24.0035 10.0392L24.0031 10.0312L24.0023 10.0066C24.0017 9.98636 24.0011 9.95866 24.0006 9.92395C23.9996 9.85457 23.9994 9.757 24.002 9.63524C24.0071 9.39206 24.0233 9.05039 24.0674 8.64257C24.1549 7.83249 24.3552 6.73299 24.8151 5.61853C25.2759 4.50201 26.0115 3.33703 27.1863 2.45147C28.3721 1.55752 29.9376 0.999997 31.9595 1C33.9815 1 35.5506 1.55752 36.7426 2.44925C37.9237 3.3327 38.67 4.49517 39.1417 5.61045C39.6126 6.72374 39.8241 7.82248 39.92 8.63247C39.9682 9.04018 39.988 9.38179 39.9956 9.62495C39.9994 9.7467 40.0002 9.84427 40 9.91365C39.9998 9.94836 39.9995 9.97607 39.9991 9.99627L39.9985 10.0209L39.9983 10.0289L39.9982 10.0318L39.9982 10.033C39.9981 10.0335 39.9981 10.0339 38.9987 10C37.9993 9.96606 37.9993 9.96648 37.9992 9.96686L37.9994 9.95783C37.9996 9.94776 37.9999 9.93054 38 9.90666C38.0001 9.85886 37.9996 9.78455 37.9966 9.68755C37.9905 9.49321 37.9744 9.20982 37.9338 8.86753C37.8522 8.17753 37.6747 7.27626 37.2997 6.38956C36.9255 5.50484 36.3689 4.66731 35.5447 4.05076C34.7315 3.44249 33.5929 3 31.9595 3C30.326 3 29.1941 3.44247 28.3902 4.04852C27.5751 4.66296 27.0285 5.49798 26.6639 6.38146C26.2985 7.267 26.1304 8.16751 26.0558 8.85743C26.0188 9.19961 26.0056 9.48294 26.0015 9.67726C25.9995 9.77425 25.9997 9.84856 26.0004 9.89636C26.0007 9.92025 26.0012 9.93747 26.0015 9.94755L26.0017 9.95659Z" fill="white"/>
<path fill-rule="evenodd" clip-rule="evenodd" d="M32.519 33.7672L32.519 33.7672L29.9623 44.3349C29.9576 44.3542 29.9552 44.3639 29.9576 44.3715C29.9597 44.3781 29.9642 44.3838 29.9702 44.3874C29.977 44.3915 29.9869 44.3915 30.0068 44.3915H38.5105C39.479 44.3915 40.2642 43.5802 40.2642 42.5794V35.5442C40.2642 34.5434 39.479 33.7321 38.5105 33.7321H32.5635C32.5506 33.7321 32.5442 33.7321 32.5388 33.7344C32.5341 33.7364 32.53 33.7396 32.527 33.7437C32.5235 33.7484 32.522 33.7546 32.519 33.7672ZM30.9645 35.7715C30.9669 35.7791 30.9646 35.7887 30.9599 35.808L28.668 45.3626C28.6634 45.3819 28.6611 45.3916 28.6635 45.3992C28.6656 45.4058 28.67 45.4115 28.676 45.4151C28.6828 45.4192 28.6927 45.4192 28.7126 45.4192H32.2655C32.2854 45.4192 32.2953 45.4192 32.3021 45.4233C32.3081 45.4269 32.3126 45.4325 32.3147 45.4392C32.3171 45.4468 32.3147 45.4564 32.3101 45.4757L32.0942 46.3757L32.0942 46.3757C32.0912 46.3883 32.0897 46.3946 32.0863 46.3992C32.0832 46.4034 32.0791 46.4066 32.0744 46.4086C32.069 46.4109 32.0626 46.4109 32.0497 46.4109H26.1537C25.1935 46.4109 24.415 45.5996 24.415 44.5988L24.415 37.5636C24.415 36.5628 25.1935 35.7515 26.1537 35.7515H30.9153C30.9352 35.7515 30.9451 35.7515 30.9519 35.7556C30.9579 35.7592 30.9624 35.7648 30.9645 35.7715Z" fill="white"/>
</svg>
