<svg width="24" height="24" viewBox="0 0 24 24" fill="none" xmlns="http://www.w3.org/2000/svg">
<path fill-rule="evenodd" clip-rule="evenodd" d="M10.8 2.58088C9.13997 2.78688 7.58397 3.43088 6.18197 4.49288C5.75797 4.81288 4.98597 5.56888 4.62097 6.01988C3.52297 7.37488 2.82797 8.99388 2.57497 10.7799C2.47697 11.4789 2.48497 12.6149 2.59497 13.3399C2.68997 13.9729 2.82197 14.5189 3.01997 15.0929C3.13197 15.4199 3.14397 15.4819 3.08797 15.4609C2.92597 15.3989 2.52597 15.3209 2.36297 15.3209C2.13597 15.3199 1.86697 15.4489 1.73497 15.6229C1.51897 15.9059 1.41697 16.4929 1.53397 16.7709C1.60697 16.9439 1.78497 17.1159 1.97997 17.2029C2.06797 17.2429 2.82297 17.4579 3.65797 17.6819C4.95897 18.0299 5.20997 18.0859 5.40897 18.0719C5.70497 18.0499 5.93597 17.8959 6.06697 17.6349C6.21797 17.3299 6.95997 14.5009 6.95997 14.2259C6.95997 13.8019 6.74797 13.5419 6.28597 13.3989C5.66797 13.2069 5.24997 13.3869 5.04797 13.9289C5.00497 14.0449 4.95597 14.2029 4.93897 14.2799L4.90797 14.4199L4.83297 14.1999C4.48597 13.1899 4.42397 11.5859 4.68497 10.3849C4.81097 9.80488 5.03297 9.18888 5.31997 8.61988C6.35497 6.56788 8.21997 5.14088 10.5 4.65488C10.889 4.57188 11.131 4.54888 11.78 4.53188C12.965 4.49988 13.646 4.61488 14.771 5.03688C15.062 5.14588 15.365 5.24688 15.444 5.26088C15.798 5.32388 16.152 5.09188 16.34 4.67288C16.638 4.00988 16.481 3.62488 15.78 3.29888C15.002 2.93588 14.047 2.67888 13.041 2.55988C12.579 2.50488 11.312 2.51688 10.8 2.58088ZM18.288 6.00288C18.105 6.09588 17.955 6.26488 17.88 6.45988C17.854 6.52588 17.655 7.24588 17.436 8.05988C17.171 9.04588 17.037 9.61488 17.035 9.76488C17.028 10.1839 17.248 10.4569 17.704 10.5979C18.436 10.8239 18.844 10.5759 19.044 9.78088L19.094 9.58388L19.168 9.80188C19.514 10.8139 19.576 12.4139 19.315 13.6149C19.056 14.8089 18.412 16.0699 17.572 17.0259C16.802 17.9019 15.487 18.7599 14.369 19.1149C13.471 19.3999 12.869 19.4929 11.96 19.4909C10.89 19.4869 10.069 19.3149 8.95997 18.8599C8.65097 18.7339 8.28497 18.7119 8.09997 18.8099C7.73297 19.0029 7.45497 19.6209 7.53797 20.0609C7.57497 20.2599 7.83497 20.5329 8.11297 20.6649C8.79997 20.9889 9.90597 21.3039 10.78 21.4239C11.361 21.5029 12.544 21.5139 13.08 21.4449C14.611 21.2469 15.964 20.7519 17.219 19.9309C18.314 19.2149 19.333 18.1749 20.056 17.0399C20.519 16.3119 20.991 15.1929 21.218 14.2809C21.43 13.4339 21.542 12.3719 21.499 11.6199C21.444 10.6709 21.218 9.51888 20.942 8.78688L20.838 8.51388L20.929 8.54288C21.801 8.82188 22.236 8.66488 22.444 7.99788C22.623 7.42088 22.474 6.99888 22.02 6.79688C21.731 6.66888 18.991 5.95088 18.72 5.93288C18.508 5.91788 18.428 5.93088 18.288 6.00288Z" fill="#FF0000"/>
</svg>
