<svg width="24" height="24" viewBox="0 0 24 24" fill="none" xmlns="http://www.w3.org/2000/svg">
<path fill-rule="evenodd" clip-rule="evenodd" d="M10.626 0.645013C10.42 0.754013 10.146 1.03301 10.038 1.24401C9.85603 1.60101 9.94503 1.92601 10.341 2.35401C10.463 2.48601 10.549 2.60201 10.531 2.61201C10.514 2.62201 10.41 2.64201 10.3 2.65701C10.19 2.67201 9.86003 2.74701 9.56603 2.82301C7.04003 3.47901 4.82003 5.24501 3.60203 7.56701C2.78103 9.13201 2.41403 10.832 2.52303 12.566C2.64903 14.569 3.35003 16.387 4.60103 17.96C5.13403 18.631 6.26303 19.647 6.69103 19.841C7.04103 20 7.42903 19.903 7.70503 19.586C8.03303 19.209 8.12703 18.776 7.94903 18.463C7.90003 18.376 7.74303 18.208 7.60003 18.089C6.85703 17.471 6.69403 17.321 6.38403 16.964C5.93003 16.444 5.56303 15.887 5.26003 15.26C4.72603 14.155 4.52003 13.24 4.52003 11.965C4.52003 9.96301 5.28103 8.13001 6.70603 6.70601C7.66903 5.74301 8.90503 5.04001 10.2 4.72001C10.299 4.69501 10.416 4.66501 10.459 4.65201C10.511 4.63701 10.466 4.70801 10.327 4.86001C10.057 5.15501 9.95103 5.36501 9.95103 5.60001C9.95103 6.07701 10.523 6.64901 11 6.64901C11.334 6.64901 11.468 6.54301 12.706 5.30601C13.943 4.06801 14.049 3.93401 14.049 3.60001C14.049 3.48901 14.014 3.34401 13.96 3.23701C13.842 3.00001 11.608 0.762013 11.372 0.644013C11.152 0.534013 10.835 0.535013 10.626 0.645013ZM16.609 4.16501C16.272 4.33201 15.961 4.81401 15.96 5.17201C15.96 5.52701 16.031 5.61501 16.905 6.33601C17.615 6.92301 18.285 7.80001 18.74 8.74001C19.244 9.77901 19.434 10.57 19.468 11.76C19.498 12.805 19.418 13.409 19.132 14.3C18.356 16.719 16.313 18.643 13.867 19.262C13.731 19.296 13.584 19.335 13.541 19.348C13.489 19.363 13.535 19.291 13.673 19.14C14.056 18.72 14.142 18.397 13.962 18.044C13.852 17.828 13.576 17.55 13.365 17.443C13.151 17.333 12.849 17.334 12.628 17.444C12.392 17.562 10.158 19.8 10.04 20.037C9.92403 20.268 9.92403 20.532 10.04 20.763C10.162 21.007 12.393 23.238 12.637 23.36C12.99 23.537 13.354 23.448 13.701 23.101C14.043 22.759 14.137 22.387 13.965 22.051C13.919 21.96 13.781 21.778 13.658 21.645C13.447 21.417 13.439 21.402 13.527 21.384C13.578 21.373 13.764 21.335 13.94 21.299C15.333 21.013 16.755 20.349 17.896 19.45C18.262 19.162 19.162 18.262 19.45 17.896C21.291 15.558 21.931 12.528 21.197 9.62401C20.879 8.36401 20.221 7.06101 19.378 6.01801C18.818 5.32601 17.732 4.35201 17.3 4.15501C17.085 4.05701 16.819 4.06101 16.609 4.16501Z" fill="#FF0000"/>
</svg>
