<svg width="16" height="16" viewBox="0 0 16 16" fill="none" xmlns="http://www.w3.org/2000/svg">
<path fill-rule="evenodd" clip-rule="evenodd" d="M7.38676 1.36339C6.13742 1.47339 4.90742 1.96472 3.86676 2.76939C3.47542 3.07205 2.41942 4.17539 2.07542 4.64139L2.01342 4.72472L2.00009 3.56872C1.98676 2.43139 1.98609 2.41139 1.92609 2.30005C1.81609 2.09339 1.55276 1.98005 1.24942 2.00739C0.958757 2.03405 0.758091 2.18472 0.694757 2.42405C0.680091 2.48005 0.667424 3.42472 0.66409 4.69605L0.659424 6.87205L0.73609 7.01539C0.820757 7.17205 0.935424 7.26405 1.10409 7.31005C1.24276 7.34805 5.43209 7.34339 5.57609 7.30539C5.72209 7.26672 5.84609 7.17072 5.92009 7.03872C5.97809 6.93472 5.98676 6.88805 5.98609 6.66672C5.98476 6.31272 5.90142 6.16472 5.63676 6.04739C5.57876 6.02205 5.20609 6.01005 4.12809 6.00005L2.69609 5.98672L2.98209 5.63739C4.15076 4.20805 4.76076 3.65672 5.66676 3.21139C7.12942 2.49205 8.86942 2.49205 10.3334 3.21072C11.4221 3.74539 12.2548 4.57805 12.7894 5.66672C13.5088 7.13139 13.5088 8.86072 12.7888 10.3327C12.4994 10.9247 12.1488 11.4034 11.6641 11.8674C11.2508 12.2627 10.8414 12.5461 10.3141 12.8001C8.23209 13.8061 5.74409 13.3541 4.15142 11.6807C3.58609 11.0861 3.20076 10.4434 2.92142 9.62805C2.85409 9.43139 2.76942 9.23205 2.73342 9.18472C2.59476 9.00272 2.33942 8.94405 2.05409 9.02872C1.69676 9.13539 1.51542 9.36939 1.55676 9.67139C1.57942 9.83605 1.74342 10.3281 1.88142 10.6434C2.83076 12.8141 4.79476 14.2887 7.17342 14.6174C7.56009 14.6707 8.55476 14.6634 8.93342 14.6047C10.4248 14.3721 11.6688 13.7467 12.7081 12.7081C13.7468 11.6694 14.3714 10.4254 14.6048 8.93339C14.6721 8.50205 14.6721 7.49805 14.6048 7.06672C14.4161 5.85739 13.9728 4.82539 13.2314 3.86672C13.0068 3.57672 12.4261 2.99605 12.1334 2.76939C10.7554 1.70339 9.09742 1.21205 7.38676 1.36339Z" fill="#FAF9F6"/>
</svg>
