<svg xmlns="http://www.w3.org/2000/svg" width="16" height="16" viewBox="0 0 16 16" fill="none">
  <path d="M9.92485 4.72989L8.11254 6.98908L9.41178 7.86627L10.9262 5.52433L12.4489 7.94075L13.7481 7.03045L11.9937 4.82092L14.6667 4.07613L14.1784 2.59484L11.6461 3.61271L11.8199 0.666666H10.2145L10.3717 3.55478L7.7898 2.52863L7.29327 3.9851L9.92485 4.72989Z" fill="white"/>
  <path d="M1.69743 13.2221C1.45469 13.4593 1.33331 13.7544 1.33331 14.1075C1.33331 14.4606 1.45469 14.7558 1.69743 14.993C1.94569 15.2302 2.27395 15.3488 2.6822 15.3488C3.09046 15.3488 3.41596 15.2302 3.6587 14.993C3.90696 14.7558 4.0311 14.4606 4.0311 14.1075C4.0311 13.7544 3.90696 13.4593 3.6587 13.2221C3.41596 12.9848 3.09046 12.8662 2.6822 12.8662C2.27395 12.8662 1.94569 12.9848 1.69743 13.2221Z" fill="white"/>
</svg>
