<svg width="24" height="24" viewBox="0 0 24 24" fill="none" xmlns="http://www.w3.org/2000/svg">
<path fill-rule="evenodd" clip-rule="evenodd" d="M16.626 1.04492C16.257 1.23892 15.951 1.67292 15.951 1.99992C15.951 2.33292 16.056 2.46692 17.351 3.76792L18.573 4.99592L12.137 5.01192C5.15905 5.02892 5.35905 5.02292 4.68005 5.24592C3.35405 5.68092 2.39205 6.77792 2.12405 8.15992C2.00505 8.76892 1.94705 11.0269 2.04105 11.3649C2.14805 11.7499 2.43705 11.9619 2.89605 11.9909C3.38105 12.0219 3.70005 11.8819 3.87905 11.5579C3.97705 11.3829 3.97805 11.3619 4.00605 10.0999C4.04505 8.33692 4.10105 8.09792 4.60005 7.59992C4.89005 7.30892 5.10605 7.18792 5.50805 7.09092C5.75405 7.03092 6.39905 7.02292 12.18 7.01092L18.58 6.99692L17.355 8.22792C16.549 9.03792 16.0991 9.52092 16.0401 9.63692C15.8631 9.98892 15.952 10.3539 16.299 10.7009C16.646 11.0479 17.0111 11.1369 17.3631 10.9599C17.4841 10.8989 18.1821 10.2339 19.5611 8.86592C20.673 7.76292 21.634 6.82592 21.696 6.78392C21.85 6.68192 22.049 6.23892 22.049 5.99992C22.049 5.74492 21.851 5.32092 21.6761 5.20092C21.601 5.14992 20.6401 4.21292 19.5401 3.11792C18.232 1.81692 17.482 1.09892 17.372 1.04392C17.152 0.933916 16.835 0.934916 16.626 1.04492ZM20.614 12.0569C20.376 12.1319 20.212 12.2609 20.111 12.4529C20.028 12.6109 20.0221 12.6909 19.9951 13.8999C19.9561 15.6619 19.899 15.9009 19.4 16.4009C19.121 16.6809 18.839 16.8409 18.48 16.9229C18.309 16.9629 16.8361 16.9769 11.84 16.9879L5.42005 17.0029L6.64605 15.7709C7.45105 14.9619 7.90105 14.4789 7.96005 14.3629C8.13705 14.0109 8.04805 13.6459 7.70105 13.2989C7.36105 12.9589 6.98005 12.8679 6.62805 13.0439C6.51805 13.0989 5.76805 13.8169 4.46005 15.1179C3.36005 16.2129 2.39905 17.1499 2.32405 17.2009C2.14905 17.3209 1.95105 17.7449 1.95105 17.9999C1.95105 18.2389 2.15005 18.6819 2.30405 18.7839C2.36605 18.8259 3.32705 19.7629 4.43905 20.8659C5.81805 22.2339 6.51605 22.8989 6.63705 22.9599C6.98905 23.1369 7.35405 23.0479 7.70105 22.7009C8.04805 22.3539 8.13705 21.9889 7.96005 21.6369C7.90105 21.5209 7.45205 21.0389 6.64705 20.2299L5.42305 18.9999H11.581C18.389 18.9999 18.521 18.9959 19.32 18.7549C20.2281 18.4819 21.085 17.7489 21.536 16.8579C21.901 16.1379 22.0161 15.3229 21.993 13.6199C21.9811 12.6759 21.975 12.6109 21.8911 12.4529C21.8421 12.3619 21.746 12.2469 21.678 12.1989C21.414 12.0099 20.9571 11.9499 20.614 12.0569Z" fill="#FF1200"/>
</svg>
