<svg width="16" height="16" viewBox="0 0 16 16" fill="none" xmlns="http://www.w3.org/2000/svg">
<path fill-rule="evenodd" clip-rule="evenodd" d="M7.38651 1.36326C6.13718 1.47326 4.90718 1.9646 3.86651 2.76926C3.47518 3.07193 2.41918 4.17526 2.07518 4.64126L2.01318 4.7246L1.99985 3.5686C1.98651 2.43126 1.98585 2.41126 1.92585 2.29993C1.81585 2.09326 1.55251 1.97993 1.24918 2.00726C0.958513 2.03393 0.757846 2.1846 0.694513 2.42393C0.679846 2.47993 0.66718 3.4246 0.663846 4.69593L0.65918 6.87193L0.735846 7.01526C0.820513 7.17193 0.93518 7.26393 1.10385 7.30993C1.24251 7.34793 5.43185 7.34327 5.57585 7.30526C5.72185 7.2666 5.84585 7.1706 5.91985 7.0386C5.97785 6.9346 5.98651 6.88793 5.98585 6.6666C5.98451 6.3126 5.90118 6.1646 5.63651 6.04726C5.57851 6.02193 5.20585 6.00993 4.12785 5.99993L2.69585 5.9866L2.98185 5.63726C4.15051 4.20793 4.76051 3.6566 5.66651 3.21126C7.12918 2.49193 8.86918 2.49193 10.3332 3.2106C11.4218 3.74526 12.2545 4.57793 12.7892 5.6666C13.5085 7.13126 13.5085 8.8606 12.7885 10.3326C12.4992 10.9246 12.1485 11.4033 11.6638 11.8673C11.2505 12.2626 10.8412 12.5459 10.3138 12.7999C8.23185 13.8059 5.74385 13.3539 4.15118 11.6806C3.58585 11.0859 3.20051 10.4433 2.92118 9.62793C2.85385 9.43126 2.76918 9.23193 2.73318 9.1846C2.59451 9.0026 2.33918 8.94393 2.05385 9.0286C1.69651 9.13526 1.51518 9.36926 1.55651 9.67126C1.57918 9.83593 1.74318 10.3279 1.88118 10.6433C2.83051 12.8139 4.79451 14.2886 7.17318 14.6173C7.55985 14.6706 8.55451 14.6633 8.93318 14.6046C10.4245 14.3719 11.6685 13.7466 12.7078 12.7079C13.7465 11.6693 14.3712 10.4253 14.6045 8.93326C14.6718 8.50193 14.6718 7.49793 14.6045 7.0666C14.4158 5.85726 13.9725 4.82526 13.2312 3.8666C13.0065 3.5766 12.4258 2.99593 12.1332 2.76926C10.7552 1.70326 9.09718 1.21193 7.38651 1.36326Z" fill="white"/>
</svg>
