<svg width="24" height="24" viewBox="0 0 24 24" fill="none" xmlns="http://www.w3.org/2000/svg">
<path fill-rule="evenodd" clip-rule="evenodd" d="M7.62 2.046C7.525 2.095 6.652 2.932 5.46 4.118C4.36 5.213 3.399 6.15 3.324 6.201C3.149 6.321 2.951 6.745 2.951 7C2.951 7.239 3.15 7.682 3.304 7.784C3.366 7.826 4.327 8.763 5.439 9.866C6.818 11.234 7.516 11.899 7.637 11.96C7.989 12.137 8.354 12.048 8.701 11.701C9.048 11.354 9.137 10.989 8.96 10.637C8.901 10.521 8.452 10.039 7.647 9.23L6.423 8H10.293C14.268 8 14.657 8.013 15.24 8.162C16.795 8.559 18.095 9.725 18.68 11.248C19.092 12.32 19.085 13.72 18.663 14.793C18.12 16.174 16.99 17.258 15.6 17.732C14.839 17.991 15.249 17.974 9.179 17.998L3.658 18.02L3.459 18.122C3.119 18.297 2.978 18.606 3.009 19.104C3.039 19.567 3.253 19.856 3.645 19.961C3.748 19.989 5.604 19.998 9.309 19.988C15.185 19.973 14.938 19.98 15.72 19.783C17.947 19.219 19.794 17.543 20.573 15.38C20.876 14.538 20.977 13.944 20.977 13C20.977 12.056 20.876 11.462 20.573 10.62C19.794 8.457 17.946 6.78 15.72 6.217C14.975 6.029 15.011 6.03 10.604 6.013L6.427 5.996L7.649 4.768C8.452 3.961 8.901 3.479 8.96 3.363C9.137 3.011 9.048 2.646 8.701 2.299C8.361 1.959 7.967 1.867 7.62 2.046Z" fill="#FF0000"/>
</svg>
