<svg width="24" height="24" viewBox="0 0 24 24" fill="none" xmlns="http://www.w3.org/2000/svg">
<path fill-rule="evenodd" clip-rule="evenodd" d="M16.7081 1.69707C15.2171 1.94907 13.9031 2.18507 13.7881 2.22207C13.4591 2.32907 13.0511 2.54107 12.7761 2.74907C12.6351 2.85607 11.7411 3.77507 10.7551 4.83007C9.78306 5.87007 8.96806 6.72007 8.94506 6.72007C8.92206 6.72007 8.38606 6.54807 7.75306 6.33807C6.34606 5.87207 6.10106 5.82807 5.60006 5.95507C5.41206 6.00207 5.16706 6.09907 5.05206 6.17007C4.79506 6.33007 1.96906 8.71607 1.71606 8.98707C1.33106 9.39907 1.14106 10.0371 1.23506 10.6061C1.33306 11.1971 1.71306 11.7541 2.20506 12.0291C2.32306 12.0941 2.84906 12.3071 3.37406 12.5001L4.32806 12.8511L4.30206 12.9761C4.17706 13.5871 4.17606 14.6291 4.30006 15.2001C4.43806 15.8361 4.75106 16.6031 5.07406 17.1001L5.23006 17.3401L3.91806 18.6601C2.95606 19.6271 2.58306 20.0281 2.52306 20.1601C2.36106 20.5191 2.44906 20.8531 2.79806 21.2021C3.15006 21.5531 3.48306 21.6411 3.83706 21.4741C3.96906 21.4121 4.39206 21.0181 5.34406 20.0711L6.66906 18.7541L6.94206 18.9211C7.42306 19.2161 8.11006 19.4861 8.72006 19.6201C9.16806 19.7191 10.2081 19.7431 10.6781 19.6661C10.8871 19.6311 11.0631 19.6101 11.0721 19.6181C11.0801 19.6261 11.2471 20.0681 11.4431 20.5991C11.6391 21.1301 11.8481 21.6481 11.9081 21.7491C12.2651 22.3601 13.0621 22.7701 13.7621 22.7051C14.2871 22.6561 14.6841 22.4631 15.0641 22.0721C15.2851 21.8441 17.3131 19.4591 17.6311 19.0531C17.9131 18.6931 18.0691 18.1481 18.0221 17.6801C18.0061 17.5131 17.8541 16.9881 17.5981 16.2181C17.3791 15.5571 17.2001 14.9981 17.2001 14.9751C17.2001 14.9521 17.9601 14.2241 18.8901 13.3571C20.9961 11.3911 21.1071 11.2791 21.3581 10.8721C21.6901 10.3341 21.7521 10.0701 22.2441 7.12007C22.6561 4.64407 22.6851 4.43307 22.6651 4.07107C22.6231 3.31407 22.3311 2.68207 21.7621 2.11607C21.4761 1.83107 21.3501 1.73907 21.0381 1.58607C20.5721 1.35707 20.2901 1.28307 19.8001 1.25807C19.4521 1.24107 19.1881 1.27907 16.7081 1.69707ZM20.0941 3.34007C20.3261 3.45007 20.5431 3.70207 20.6231 3.95307L20.6941 4.18007L20.3981 5.97007C20.2351 6.95507 20.0891 7.76007 20.0741 7.76007C20.0591 7.76007 19.9871 7.68407 19.9141 7.59007C19.0931 6.54107 17.4101 4.85707 16.2991 3.97307C16.2121 3.90407 16.1491 3.83907 16.1601 3.83007C16.1711 3.82107 16.9361 3.68507 17.8601 3.52807C19.6041 3.23307 19.8291 3.21407 20.0941 3.34007ZM14.7401 5.29507C16.3881 6.58007 18.0081 8.27207 19.1681 9.92207L19.3531 10.1841L17.4341 11.9821C16.3791 12.9711 15.4671 13.8111 15.4081 13.8491C15.3481 13.8871 15.2011 14.0261 15.0801 14.1571C14.7671 14.4971 12.2231 16.8611 11.9661 17.0511C11.4111 17.4601 10.7921 17.6731 10.0521 17.7081C9.36706 17.7411 8.80706 17.6371 8.26906 17.3771L8.11706 17.3041L10.9951 14.4221C13.0181 12.3961 13.8981 11.4871 13.9611 11.3631C14.1371 11.0101 14.0481 10.6461 13.7011 10.2991C13.3611 9.95907 12.9801 9.86807 12.6281 10.0441C12.5151 10.1011 11.5111 11.0751 9.57106 13.0121C7.98306 14.5981 6.67506 15.8881 6.66606 15.8781C6.60206 15.8081 6.42306 15.3861 6.33406 15.0921C6.23706 14.7741 6.22606 14.6771 6.22406 14.1001C6.22306 13.6211 6.24006 13.3911 6.29206 13.1841C6.37706 12.8491 6.61406 12.3331 6.83006 12.0151C6.97406 11.8041 9.20306 9.38207 9.80806 8.78007C9.94006 8.64807 10.8791 7.64607 11.8941 6.55307L13.7381 4.56607L14.0591 4.79107C14.2361 4.91407 14.5421 5.14107 14.7401 5.29507ZM6.79006 8.12407C7.14806 8.24207 7.43606 8.35107 7.43006 8.36607C7.42506 8.38207 7.08406 8.75207 6.67406 9.18907C5.75606 10.1691 5.32706 10.6541 5.20606 10.8501C5.15506 10.9331 5.10906 11.0001 5.10306 11.0001C5.07006 11.0001 3.27206 10.3251 3.25206 10.3051C3.23906 10.2921 3.27106 10.2461 3.32406 10.2041C3.37706 10.1611 4.01406 9.62207 4.74006 9.00507C5.46606 8.38807 6.07806 7.88907 6.10006 7.89607C6.12206 7.90307 6.43306 8.00507 6.79006 8.12407ZM15.8101 17.1681C16.0331 17.8411 16.0371 17.8581 15.9651 17.9381C15.9051 18.0041 13.6981 20.6191 13.6531 20.6771C13.6461 20.6861 13.6301 20.6831 13.6171 20.6711C13.5991 20.6521 12.9201 18.8461 12.9201 18.8151C12.9201 18.8101 12.9881 18.7651 13.0701 18.7141C13.2611 18.5971 13.9441 17.9901 14.8401 17.1451C15.2251 16.7811 15.5491 16.4831 15.5611 16.4821C15.5721 16.4811 15.6841 16.7901 15.8101 17.1681Z" fill="#FF0000"/>
</svg>
