<svg width="24" height="24" viewBox="0 0 20 20" fill="none" xmlns="http://www.w3.org/2000/svg">
<path fill-rule="evenodd" clip-rule="evenodd" d="M17.6832 0.854461C16.4282 0.941961 15.6049 1.09696 14.5932 1.43613C13.5941 1.77196 12.5316 2.30446 11.6832 2.89446C10.8332 3.48529 9.79989 4.44946 9.23239 5.18113C9.07739 5.38113 8.91989 5.58113 8.88322 5.62529L8.81572 5.70446L8.48322 5.63696C7.82322 5.50279 7.33906 5.45446 6.66656 5.45446C6.11906 5.45446 5.96156 5.46696 5.66656 5.52946C5.00489 5.67196 4.58489 5.88696 4.14322 6.31029C3.83822 6.60363 3.52239 7.05029 3.28572 7.52696C2.86656 8.36696 2.47489 9.67779 2.50906 10.1228C2.53656 10.4728 2.72239 10.7145 3.02906 10.7995C3.10406 10.8203 3.91322 10.8336 5.14989 10.8336H7.14989L8.15822 11.842L9.16656 12.8503V14.8503C9.16656 16.087 9.17989 16.8961 9.20072 16.9711C9.28406 17.272 9.52406 17.4603 9.86322 17.4911C10.1266 17.5153 10.5999 17.4103 11.3516 17.1636C12.6432 16.7386 13.5532 16.1586 14.0157 15.467C14.5924 14.6045 14.7149 13.312 14.3816 11.6011C14.3374 11.3728 14.3116 11.1761 14.3257 11.1636C14.3391 11.152 14.5449 10.9861 14.7824 10.7961C15.5582 10.177 16.3824 9.32779 16.9449 8.57113C18.3374 6.69363 19.1416 4.29113 19.1482 1.98113L19.1499 1.34529L19.0499 1.18279C18.9782 1.06779 18.9016 0.996128 18.7841 0.935295C18.6366 0.859461 18.5766 0.849461 18.2341 0.846128C18.0224 0.844461 17.7749 0.847795 17.6832 0.854461ZM17.4666 2.54279C17.4666 2.54779 17.4432 2.73946 17.4157 2.96779C17.1382 5.22363 16.1816 7.16363 14.5624 8.75613C14.0174 9.29279 13.3066 9.86946 12.8424 10.152C12.7832 10.1878 12.5924 10.3036 12.4182 10.4095C11.8441 10.7595 10.3507 11.5003 10.2216 11.5003C10.2007 11.5003 9.80239 11.1195 9.33739 10.6545C8.58489 9.90196 8.49489 9.80029 8.51656 9.72946C8.55572 9.60363 8.99739 8.68196 9.19489 8.31696C10.2091 6.43779 11.1916 5.27446 12.5857 4.29779C13.8107 3.44113 15.1749 2.88363 16.6499 2.63696C16.8699 2.60029 17.1174 2.56446 17.1999 2.55779C17.2824 2.55113 17.3766 2.54279 17.4082 2.53946C17.4399 2.53613 17.4666 2.53779 17.4666 2.54279ZM7.57489 7.16946C7.73572 7.19113 7.86656 7.22279 7.86656 7.23863C7.86656 7.25529 7.78739 7.41446 7.69072 7.59279C7.52322 7.90113 7.15239 8.66779 7.00489 9.00863L6.93656 9.16696H5.68489C4.93406 9.16696 4.43322 9.15446 4.43322 9.13613C4.43322 9.06696 4.64656 8.53196 4.78572 8.25029C5.15739 7.50113 5.46406 7.25613 6.19989 7.12029C6.34156 7.09446 7.26739 7.12696 7.57489 7.16946ZM12.8374 12.4753C12.9049 12.9953 12.8974 13.7953 12.8216 14.0928C12.7057 14.5436 12.4466 14.837 11.8857 15.1503C11.6799 15.2653 11.0916 15.5111 10.9249 15.552L10.8324 15.5745L10.8416 14.317L10.8499 13.0586L11.1999 12.907C11.3924 12.8228 11.8199 12.617 12.1499 12.4478C12.4799 12.2795 12.7591 12.1395 12.7716 12.137C12.7832 12.1353 12.8124 12.2878 12.8374 12.4753ZM4.36656 12.5503C3.25989 12.772 2.43322 13.6986 1.84989 15.3703C1.51156 16.3411 1.19739 17.7845 1.25239 18.117C1.31072 18.4711 1.51322 18.6545 1.93072 18.7328C2.25989 18.7945 3.62989 18.4986 4.62989 18.1503C6.58072 17.4695 7.50239 16.4811 7.50322 15.067C7.50322 14.5978 7.42822 14.2711 7.22572 13.867C7.11239 13.6411 7.02239 13.5228 6.78322 13.2836C6.37322 12.8736 5.98906 12.6578 5.47239 12.5486C5.19989 12.4911 4.65822 12.4911 4.36656 12.5503ZM5.31656 14.2461C5.50072 14.332 5.62822 14.4478 5.74156 14.6303C5.80572 14.7328 5.81656 14.797 5.81656 15.067C5.81656 15.3511 5.80739 15.3995 5.72656 15.537C5.57072 15.8011 5.27239 16.0445 4.83322 16.2645C4.46739 16.447 3.58989 16.762 3.28406 16.8186L3.15739 16.8428L3.18156 16.7128C3.23572 16.4195 3.54656 15.557 3.73239 15.182C4.00156 14.6386 4.31572 14.2936 4.62572 14.2003C4.81739 14.142 5.14156 14.1636 5.31656 14.2461Z" fill="#050505"/>
<path fill-rule="evenodd" clip-rule="evenodd" d="M17.6832 0.854461C16.4282 0.941961 15.6049 1.09696 14.5932 1.43613C13.5941 1.77196 12.5316 2.30446 11.6832 2.89446C10.8332 3.48529 9.79989 4.44946 9.23239 5.18113C9.07739 5.38113 8.91989 5.58113 8.88322 5.62529L8.81572 5.70446L8.48322 5.63696C7.82322 5.50279 7.33906 5.45446 6.66656 5.45446C6.11906 5.45446 5.96156 5.46696 5.66656 5.52946C5.00489 5.67196 4.58489 5.88696 4.14322 6.31029C3.83822 6.60363 3.52239 7.05029 3.28572 7.52696C2.86656 8.36696 2.47489 9.67779 2.50906 10.1228C2.53656 10.4728 2.72239 10.7145 3.02906 10.7995C3.10406 10.8203 3.91322 10.8336 5.14989 10.8336H7.14989L8.15822 11.842L9.16656 12.8503V14.8503C9.16656 16.087 9.17989 16.8961 9.20072 16.9711C9.28406 17.272 9.52406 17.4603 9.86322 17.4911C10.1266 17.5153 10.5999 17.4103 11.3516 17.1636C12.6432 16.7386 13.5532 16.1586 14.0157 15.467C14.5924 14.6045 14.7149 13.312 14.3816 11.6011C14.3374 11.3728 14.3116 11.1761 14.3257 11.1636C14.3391 11.152 14.5449 10.9861 14.7824 10.7961C15.5582 10.177 16.3824 9.32779 16.9449 8.57113C18.3374 6.69363 19.1416 4.29113 19.1482 1.98113L19.1499 1.34529L19.0499 1.18279C18.9782 1.06779 18.9016 0.996128 18.7841 0.935295C18.6366 0.859461 18.5766 0.849461 18.2341 0.846128C18.0224 0.844461 17.7749 0.847795 17.6832 0.854461ZM17.4666 2.54279C17.4666 2.54779 17.4432 2.73946 17.4157 2.96779C17.1382 5.22363 16.1816 7.16363 14.5624 8.75613C14.0174 9.29279 13.3066 9.86946 12.8424 10.152C12.7832 10.1878 12.5924 10.3036 12.4182 10.4095C11.8441 10.7595 10.3507 11.5003 10.2216 11.5003C10.2007 11.5003 9.80239 11.1195 9.33739 10.6545C8.58489 9.90196 8.49489 9.80029 8.51656 9.72946C8.55572 9.60363 8.99739 8.68196 9.19489 8.31696C10.2091 6.43779 11.1916 5.27446 12.5857 4.29779C13.8107 3.44113 15.1749 2.88363 16.6499 2.63696C16.8699 2.60029 17.1174 2.56446 17.1999 2.55779C17.2824 2.55113 17.3766 2.54279 17.4082 2.53946C17.4399 2.53613 17.4666 2.53779 17.4666 2.54279ZM7.57489 7.16946C7.73572 7.19113 7.86656 7.22279 7.86656 7.23863C7.86656 7.25529 7.78739 7.41446 7.69072 7.59279C7.52322 7.90113 7.15239 8.66779 7.00489 9.00863L6.93656 9.16696H5.68489C4.93406 9.16696 4.43322 9.15446 4.43322 9.13613C4.43322 9.06696 4.64656 8.53196 4.78572 8.25029C5.15739 7.50113 5.46406 7.25613 6.19989 7.12029C6.34156 7.09446 7.26739 7.12696 7.57489 7.16946ZM12.8374 12.4753C12.9049 12.9953 12.8974 13.7953 12.8216 14.0928C12.7057 14.5436 12.4466 14.837 11.8857 15.1503C11.6799 15.2653 11.0916 15.5111 10.9249 15.552L10.8324 15.5745L10.8416 14.317L10.8499 13.0586L11.1999 12.907C11.3924 12.8228 11.8199 12.617 12.1499 12.4478C12.4799 12.2795 12.7591 12.1395 12.7716 12.137C12.7832 12.1353 12.8124 12.2878 12.8374 12.4753ZM4.36656 12.5503C3.25989 12.772 2.43322 13.6986 1.84989 15.3703C1.51156 16.3411 1.19739 17.7845 1.25239 18.117C1.31072 18.4711 1.51322 18.6545 1.93072 18.7328C2.25989 18.7945 3.62989 18.4986 4.62989 18.1503C6.58072 17.4695 7.50239 16.4811 7.50322 15.067C7.50322 14.5978 7.42822 14.2711 7.22572 13.867C7.11239 13.6411 7.02239 13.5228 6.78322 13.2836C6.37322 12.8736 5.98906 12.6578 5.47239 12.5486C5.19989 12.4911 4.65822 12.4911 4.36656 12.5503ZM5.31656 14.2461C5.50072 14.332 5.62822 14.4478 5.74156 14.6303C5.80572 14.7328 5.81656 14.797 5.81656 15.067C5.81656 15.3511 5.80739 15.3995 5.72656 15.537C5.57072 15.8011 5.27239 16.0445 4.83322 16.2645C4.46739 16.447 3.58989 16.762 3.28406 16.8186L3.15739 16.8428L3.18156 16.7128C3.23572 16.4195 3.54656 15.557 3.73239 15.182C4.00156 14.6386 4.31572 14.2936 4.62572 14.2003C4.81739 14.142 5.14156 14.1636 5.31656 14.2461Z" fill="white" fill-opacity="0.9"/>
</svg>
