<svg width="24" height="24" viewBox="0 0 24 24" fill="none" xmlns="http://www.w3.org/2000/svg">
<path fill-rule="evenodd" clip-rule="evenodd" d="M5.92 2.04197C5.155 2.09097 4.674 2.20397 4.18 2.45097C3.089 2.99597 2.357 3.96097 2.124 5.15997C2.013 5.72897 2 6.45497 2 12C2 18.358 2.006 18.526 2.245 19.32C2.577 20.422 3.578 21.423 4.68 21.755C5.474 21.994 5.642 22 12 22C18.358 22 18.526 21.994 19.32 21.755C20.422 21.423 21.425 20.421 21.755 19.32C21.997 18.514 22.007 18.245 21.991 12.96C21.978 8.61397 21.972 8.28397 21.905 8.06097C21.801 7.71797 21.625 7.34497 21.453 7.10697C21.371 6.99297 20.524 6.10797 19.57 5.13997C18.617 4.17197 17.795 3.33497 17.744 3.27997C17.575 3.09697 16.883 2.54197 16.644 2.39697C16.329 2.20497 15.951 2.08697 15.507 2.03997C15.079 1.99497 6.62 1.99597 5.92 2.04197ZM15.589 4.09097C15.661 4.12997 15.782 4.21697 15.859 4.28497L16 4.40797V5.70397V6.99997H12H8V5.49897V3.99797L11.73 4.00897C15.21 4.01897 15.469 4.02497 15.589 4.09097ZM6.001 5.58997C6.001 7.27997 6.023 7.49897 6.227 7.91897C6.366 8.20497 6.795 8.63397 7.081 8.77297C7.55 9.00097 7.493 8.99897 12 8.99897C16.514 8.99897 16.454 9.00097 16.919 8.77097C17.203 8.62997 17.63 8.20297 17.771 7.91897C17.917 7.62397 17.998 7.21797 17.999 6.77997L18 6.42097L18.883 7.29997C19.368 7.78397 19.814 8.26097 19.873 8.35997L19.98 8.53997V13.36C19.979 17.75 19.973 18.206 19.911 18.472C19.825 18.845 19.706 19.082 19.48 19.333C19.155 19.696 18.761 19.893 18.263 19.944L18 19.971L17.999 16.916C17.999 14.375 17.989 13.813 17.94 13.581C17.792 12.885 17.328 12.363 16.635 12.112L16.38 12.02H12H7.62L7.365 12.112C6.859 12.295 6.433 12.66 6.222 13.093C6.005 13.535 6.001 13.603 6.001 16.91L6 19.96H5.887C5.413 19.96 4.955 19.762 4.6 19.403C4.303 19.104 4.186 18.89 4.088 18.472C4.025 18.203 4.02 17.687 4.02 12C4.02 6.31297 4.025 5.79697 4.088 5.52797C4.126 5.36697 4.198 5.15097 4.248 5.04797C4.366 4.80597 4.806 4.36497 5.049 4.24697C5.251 4.14897 5.656 4.04797 5.87 4.04297L6 4.03997L6.001 5.58997ZM16 17V20H12H8V17V14H12H16V17Z" fill="#FF0000"/>
</svg>
