<svg xmlns="http://www.w3.org/2000/svg" width="16" height="16" viewBox="0 0 16 16" fill="none">
    <path fill-rule="evenodd" clip-rule="evenodd" d="M7.33334 2.66659C4.75601 2.66659 2.66668 4.75592 2.66668 7.33325C2.66668 9.91058 4.75601 11.9999 7.33334 11.9999C9.91067 11.9999 12 9.91058 12 7.33325C12 4.75592 9.91067 2.66659 7.33334 2.66659ZM1.33334 7.33325C1.33334 4.01954 4.01963 1.33325 7.33334 1.33325C10.6471 1.33325 13.3333 4.01954 13.3333 7.33325C13.3333 10.647 10.6471 13.3333 7.33334 13.3333C4.01963 13.3333 1.33334 10.647 1.33334 7.33325Z" fill="#ffffff"/>
    <path fill-rule="evenodd" clip-rule="evenodd" d="M10.6286 10.6286C10.8889 10.3683 11.311 10.3683 11.5714 10.6286L14.4714 13.5286C14.7317 13.789 14.7317 14.2111 14.4714 14.4714C14.211 14.7318 13.7889 14.7318 13.5286 14.4714L10.6286 11.5714C10.3682 11.3111 10.3682 10.889 10.6286 10.6286Z" fill="#ffffff"/>
</svg>
