<svg width="14" height="14" viewBox="0 0 14 14" fill="none" xmlns="http://www.w3.org/2000/svg">
<path fill-rule="evenodd" clip-rule="evenodd" d="M5.13799 0.361998C4.10399 0.461998 3.06399 0.897331 2.26666 1.56466C1.65666 2.07466 1.20466 2.65133 0.866659 3.35266C-0.0313408 5.21133 0.224659 7.41666 1.52599 9.02666C1.71666 9.26266 2.17399 9.71133 2.39999 9.884C3.64933 10.838 5.21933 11.2013 6.74666 10.8887C7.38733 10.758 8.14466 10.436 8.66666 10.072L8.93332 9.886L10.7867 11.734C12.0847 13.028 12.6753 13.5987 12.758 13.6407C12.9933 13.758 13.236 13.6987 13.4673 13.4673C13.6987 13.236 13.758 12.9933 13.6407 12.758C13.5987 12.6753 13.028 12.0847 11.734 10.7867L9.88599 8.93333L10.072 8.66666C10.174 8.52 10.3393 8.236 10.4387 8.03533C11.1767 6.54866 11.1867 4.84333 10.4667 3.35266C10.1287 2.65133 9.67666 2.07466 9.06666 1.56466C7.98866 0.662665 6.55799 0.224665 5.13799 0.361998ZM6.04266 1.69266C7.61399 1.846 8.94199 2.89133 9.44732 4.37333C9.77866 5.34466 9.71199 6.50066 9.27333 7.38666C8.69999 8.544 7.70399 9.31866 6.43999 9.59C6.03599 9.67666 5.29733 9.67666 4.89333 9.59C3.62733 9.31866 2.63399 8.546 2.05999 7.38666C1.62133 6.50066 1.55466 5.34466 1.88599 4.37333C2.07866 3.808 2.38666 3.31333 2.82066 2.87C3.67199 2.002 4.83799 1.576 6.04266 1.69266Z" fill="white"/>
</svg>
