<svg width="16" height="16" viewBox="0 0 16 16" fill="none" xmlns="http://www.w3.org/2000/svg">
<path fill-rule="evenodd" clip-rule="evenodd" d="M15.1382 0.861785C15.3985 1.12213 15.3985 1.54424 15.1382 1.80459L7.80482 9.13793C7.54447 9.39828 7.12236 9.39828 6.86201 9.13793C6.60166 8.87758 6.60166 8.45547 6.86201 8.19512L14.1953 0.861785C14.4557 0.601435 14.8778 0.601435 15.1382 0.861785Z" fill="white"/>
<path fill-rule="evenodd" clip-rule="evenodd" d="M15.1382 0.861785C15.3192 1.04288 15.3806 1.3117 15.296 1.55342L10.6293 14.8868C10.539 15.1448 10.3004 15.3215 10.0273 15.3326C9.75414 15.3438 9.50189 15.1871 9.39088 14.9373L6.82835 9.17159L1.06266 6.60906C0.812872 6.49805 0.656163 6.2458 0.667306 5.97268C0.678448 5.69956 0.855184 5.46092 1.11318 5.37062L14.4465 0.70395C14.6882 0.619347 14.9571 0.680693 15.1382 0.861785ZM3.1408 6.07359L7.60418 8.05731C7.755 8.12435 7.87559 8.24494 7.94263 8.39576L9.92635 12.8591L13.5801 2.41984L3.1408 6.07359Z" fill="white"/>
</svg>
