<svg width="24" height="24" viewBox="0 0 24 24" fill="none" xmlns="http://www.w3.org/2000/svg">
<path fill-rule="evenodd" clip-rule="evenodd" d="M17.358 4.06109C15.851 4.29609 14.597 5.41509 14.143 6.93009C14.124 6.99609 13.819 7.00009 8.46802 7.00009C2.40202 7.00009 2.61002 6.99309 2.32202 7.19909C2.10002 7.35709 2.02002 7.56809 2.02002 8.00009C2.02002 8.33109 2.03302 8.40309 2.12002 8.55809C2.23002 8.75509 2.41402 8.89809 2.63502 8.95909C2.72902 8.98509 4.77502 9.00009 8.45102 9.00009C13.818 9.00009 14.124 9.00409 14.143 9.07009C14.51 10.2921 15.362 11.2401 16.512 11.7041C18.558 12.5281 20.877 11.5381 21.704 9.48809C22.09 8.53009 22.09 7.46909 21.705 6.51609C21.172 5.19709 20.001 4.26909 18.605 4.05809C18.144 3.98909 17.816 3.99009 17.358 4.06109ZM18.523 6.07309C19.262 6.26609 19.85 6.92409 19.967 7.69009C20.067 8.34309 19.873 8.93309 19.403 9.40409C19.002 9.80709 18.547 10.0001 18 10.0001C17.485 10.0001 17.038 9.82209 16.653 9.46509C15.323 8.22909 16.189 6.00509 18 6.00509C18.143 6.00509 18.378 6.03609 18.523 6.07309ZM5.35802 12.0611C4.23002 12.2371 3.14302 12.9741 2.56902 13.9531C1.32002 16.0831 2.23302 18.7851 4.51202 19.7041C5.47102 20.0901 6.52902 20.0901 7.48802 19.7041C8.52202 19.2871 9.32302 18.4781 9.71102 17.4601C9.77802 17.2841 9.84302 17.1091 9.85502 17.0701C9.87602 17.0041 10.183 17.0001 15.549 17.0001C19.225 17.0001 21.271 16.9851 21.365 16.9591C21.586 16.8981 21.77 16.7551 21.88 16.5581C21.967 16.4021 21.98 16.3321 21.979 16.0001C21.978 15.5671 21.898 15.3551 21.678 15.1991C21.39 14.9931 21.598 15.0001 15.532 15.0001C10.182 15.0001 9.87602 14.9961 9.85502 14.9301C9.84302 14.8921 9.77802 14.7161 9.71102 14.5401C9.21302 13.2321 8.00802 12.2701 6.60502 12.0581C6.14402 11.9891 5.81602 11.9901 5.35802 12.0611ZM6.52302 14.0731C7.26202 14.2661 7.85002 14.9241 7.96702 15.6901C8.06702 16.3431 7.87302 16.9331 7.40302 17.4041C7.00202 17.8071 6.54702 18.0001 6.00002 18.0001C5.48502 18.0001 5.03802 17.8221 4.65302 17.4651C3.32302 16.2291 4.18902 14.0051 6.00002 14.0051C6.14302 14.0051 6.37802 14.0361 6.52302 14.0731Z" fill="#FF0000"/>
</svg>
