<svg width="24" height="24" viewBox="0 0 24 24" fill="none" xmlns="http://www.w3.org/2000/svg">
<path fill-rule="evenodd" clip-rule="evenodd" d="M11.53 2.08507C11.392 2.15207 11.248 2.25407 11.21 2.31207C11.171 2.37007 10.237 3.32707 9.13401 4.43907C7.76601 5.81807 7.10101 6.51607 7.04001 6.63707C6.86301 6.98907 6.95201 7.35407 7.29901 7.70107C7.64601 8.04807 8.01101 8.13707 8.36301 7.96007C8.47901 7.90107 8.96101 7.45207 9.77001 6.64707L11 5.42307V10.3211C11 13.4801 11.015 15.2711 11.041 15.3651C11.148 15.7501 11.437 15.9621 11.896 15.9911C12.381 16.0221 12.699 15.8821 12.88 15.5581L12.98 15.3801L12.991 10.4021L13.002 5.42407L14.231 6.64807C15.039 7.45207 15.521 7.90107 15.637 7.96007C15.989 8.13707 16.354 8.04807 16.701 7.70107C17.048 7.35407 17.137 6.98907 16.96 6.63707C16.899 6.51607 16.234 5.81807 14.866 4.43907C13.763 3.32707 12.829 2.37007 12.79 2.31207C12.752 2.25407 12.604 2.15107 12.46 2.08307C12.113 1.91907 11.873 1.92007 11.53 2.08507ZM2.61401 11.0571C2.37701 11.1311 2.21201 11.2611 2.10901 11.4531L2.02001 11.6201L2.00801 14.6201C1.99301 18.1131 2.01601 18.5561 2.24501 19.3201C2.57501 20.4211 3.57801 21.4231 4.68001 21.7551C5.47401 21.9941 5.64201 22.0001 12 22.0001C18.358 22.0001 18.526 21.9941 19.32 21.7551C20.422 21.4231 21.425 20.4211 21.755 19.3201C21.984 18.5551 22.007 18.1121 21.992 14.6201L21.98 11.6201L21.891 11.4531C21.785 11.2561 21.622 11.1311 21.371 11.0551C20.862 10.9021 20.311 11.0761 20.109 11.4531L20.02 11.6201L19.996 14.9201C19.969 18.4771 19.967 18.5101 19.752 18.9521C19.626 19.2111 19.19 19.6381 18.918 19.7681C18.466 19.9851 18.627 19.9801 12 19.9801C5.38301 19.9801 5.53801 19.9851 5.08201 19.7711C4.81201 19.6431 4.37701 19.2171 4.24801 18.9521C4.03301 18.5111 4.03101 18.4771 4.00501 14.9201L3.98001 11.6201L3.89101 11.4531C3.84201 11.3621 3.74601 11.2471 3.67801 11.1991C3.41401 11.0101 2.95701 10.9501 2.61401 11.0571Z" fill="#FF0000"/>
</svg>
