<svg width="24" height="24" viewBox="0 0 24 24" fill="none" xmlns="http://www.w3.org/2000/svg">
<path fill-rule="evenodd" clip-rule="evenodd" d="M17.719 1.99911L14.658 2.02011L14.459 2.12211C14.119 2.29711 13.978 2.60611 14.009 3.10411C14.038 3.56311 14.25 3.85211 14.635 3.95911C14.723 3.98411 15.53 4.00011 16.68 4.00011H18.579L14.853 7.73011C12.206 10.3801 11.102 11.5111 11.039 11.6371C10.863 11.9901 10.952 12.3551 11.299 12.7011C11.645 13.0481 12.01 13.1371 12.363 12.9611C12.489 12.8981 13.62 11.7941 16.27 9.14711L20 5.42111V7.32011C20 8.47011 20.016 9.27711 20.041 9.36511C20.148 9.75011 20.437 9.96211 20.896 9.99111C21.381 10.0221 21.699 9.88211 21.88 9.55811L21.98 9.38011L22.007 6.22011C22.022 4.48211 22.035 3.00111 22.037 2.92911C22.041 2.74411 21.835 2.31011 21.696 2.21211C21.467 2.05211 21.198 1.96011 20.985 1.96911C20.872 1.97411 19.402 1.98811 17.719 1.99911ZM5.92 2.04211C5.155 2.09111 4.674 2.20411 4.18 2.45111C3.089 2.99611 2.357 3.96111 2.124 5.16011C2.013 5.72911 2 6.45511 2 12.0001C2 18.3581 2.006 18.5261 2.245 19.3201C2.577 20.4221 3.578 21.4231 4.68 21.7551C5.474 21.9941 5.642 22.0001 12 22.0001C18.358 22.0001 18.526 21.9941 19.32 21.7551C20.422 21.4231 21.425 20.4211 21.755 19.3201C21.972 18.5971 22.008 18.0361 21.993 15.6201C21.98 13.6401 21.979 13.6181 21.891 13.4531C21.689 13.0761 21.138 12.9021 20.629 13.0551C20.378 13.1311 20.215 13.2561 20.109 13.4531C20.021 13.6181 20.02 13.6431 19.994 15.9201C19.966 18.3821 19.954 18.5371 19.752 18.9521C19.626 19.2111 19.19 19.6381 18.918 19.7681C18.466 19.9851 18.627 19.9801 12 19.9801C5.383 19.9801 5.538 19.9851 5.082 19.7711C4.812 19.6431 4.377 19.2171 4.248 18.9521C4.198 18.8491 4.126 18.6331 4.088 18.4721C4.025 18.2031 4.02 17.6871 4.02 12.0001C4.02 6.31311 4.025 5.79711 4.088 5.52811C4.126 5.36711 4.198 5.15111 4.248 5.04811C4.366 4.80611 4.806 4.36611 5.048 4.24811C5.463 4.04611 5.618 4.03411 8.08 4.00611C10.33 3.98111 10.383 3.97811 10.54 3.89411C10.875 3.71511 10.978 3.50411 10.978 3.00011C10.978 2.56711 10.899 2.35611 10.678 2.19911C10.409 2.00711 10.316 2.00011 8.284 2.00611C7.237 2.00911 6.173 2.02511 5.92 2.04211Z" fill="#FF0000"/>
</svg>
