<svg width="16" height="16" viewBox="0 0 16 16" fill="none" xmlns="http://www.w3.org/2000/svg">
<path fill-rule="evenodd" clip-rule="evenodd" d="M3.94667 1.36123C3.434 1.39523 3.11467 1.47056 2.78667 1.63456C2.05934 1.9979 1.57134 2.64123 1.416 3.44056C1.342 3.8199 1.33334 4.3039 1.33334 8.00056C1.33334 12.2392 1.33734 12.3512 1.49667 12.8806C1.718 13.6152 2.38534 14.2826 3.12 14.5039C3.64934 14.6632 3.76134 14.6672 8 14.6672C12.2387 14.6672 12.3507 14.6632 12.88 14.5039C13.6147 14.2826 14.282 13.6152 14.5033 12.8806C14.6627 12.3512 14.6667 12.2392 14.6667 8.00056C14.6667 3.7619 14.6627 3.6499 14.5033 3.12056C14.2827 2.3879 13.6433 1.74856 12.88 1.4979C12.4293 1.3499 12.5333 1.35323 8.22667 1.34656C6.04134 1.34323 4.11534 1.3499 3.94667 1.36123ZM12.328 2.7279C12.596 2.79256 12.7393 2.87323 12.9333 3.06723C13.1307 3.2639 13.2093 3.40656 13.2747 3.6859C13.3167 3.86523 13.32 4.20923 13.32 8.00056C13.32 11.7919 13.3167 12.1359 13.2747 12.3152C13.2093 12.5946 13.1307 12.7366 12.9333 12.9346C12.734 13.1346 12.5467 13.2346 12.2787 13.2859C12.0067 13.3372 3.99334 13.3372 3.72134 13.2852C3.44667 13.2339 3.26534 13.1366 3.06667 12.9359C2.86867 12.7366 2.79067 12.5939 2.72534 12.3152C2.68334 12.1359 2.68 11.7919 2.68 8.00056C2.68 4.20923 2.68334 3.86523 2.72534 3.6859C2.78334 3.43723 2.86267 3.27923 3.01334 3.1119C3.25534 2.8419 3.52134 2.7279 3.98667 2.69323C4.13334 2.68256 6.02934 2.6759 8.2 2.67923C11.762 2.68323 12.1647 2.68856 12.328 2.7279Z" fill="#FF0000"/>
<rect x="5.09216" y="12.3242" width="10.3093" height="1.33333" rx="0.666667" transform="rotate(-63.3462 5.09216 12.3242)" fill="#FF0000"/>
</svg>
