<svg width="24" height="24" viewBox="0 0 24 24" fill="none" xmlns="http://www.w3.org/2000/svg">
<path fill-rule="evenodd" clip-rule="evenodd" d="M11.28 1.02299C11.203 1.03199 10.951 1.05899 10.72 1.08299C9.52703 1.20999 8.33703 1.55799 7.18003 2.11999C6.04503 2.67099 5.19303 3.28499 4.23803 4.23899C3.27703 5.19799 2.64303 6.07999 2.09703 7.21999C0.301033 10.968 0.728033 15.286 3.22603 18.633C3.70103 19.269 4.75303 20.316 5.40003 20.797C9.36403 23.745 14.666 23.734 18.637 20.77C19.246 20.316 20.316 19.246 20.77 18.637C23.744 14.652 23.744 9.34799 20.77 5.36299C20.316 4.75499 19.247 3.68599 18.64 3.23499C17.045 2.04899 15.365 1.35999 13.423 1.09599C13 1.03799 11.574 0.989989 11.28 1.02299ZM13.32 3.10099C15.883 3.48799 18.124 4.93099 19.56 7.11999C19.863 7.58299 20.303 8.47899 20.492 9.01999C20.838 10.013 20.977 10.865 20.977 12C20.977 13.493 20.721 14.617 20.08 15.942C19.824 16.472 19.26 17.378 19.093 17.529C19.02 17.595 18.79 17.37 12.704 11.284L6.39203 4.97199L6.56603 4.83099C7.17003 4.34099 8.27803 3.75699 9.16003 3.46599C9.86503 3.23299 10.432 3.11799 11.34 3.02399C11.662 2.99099 12.911 3.03899 13.32 3.10099ZM17.599 19.04C17.598 19.051 17.459 19.16 17.289 19.283C13.997 21.659 9.53103 21.551 6.37003 19.019C4.85703 17.807 3.72203 16.029 3.26703 14.16C3.08103 13.397 3.02303 12.888 3.02303 12C3.02303 10.865 3.16203 10.013 3.50803 9.01999C3.78503 8.22699 4.38303 7.11799 4.83103 6.56599L4.97203 6.39199L11.286 12.706C14.759 16.179 17.6 19.029 17.599 19.04Z" fill="#FF0000"/>
</svg>
