<svg width="24" height="25" viewBox="0 0 24 25" fill="none" xmlns="http://www.w3.org/2000/svg">
<path d="M5.08663 4C4.97628 4 4.88668 4.0896 4.88668 4.19995V17.9999H1.31368C1.14412 17.9999 1.05147 18.1976 1.15999 18.328L5.73299 23.8156C5.81295 23.9115 5.96041 23.9115 6.04036 23.8156L10.6134 18.328C10.7219 18.1976 10.6292 17.9999 10.4597 17.9999H6.88668V4.19995C6.88668 4.0896 6.79708 4 6.68673 4H5.08663Z" fill="#FF0000"/>
<path d="M18.5734 22C18.6838 22 18.7734 21.9104 18.7734 21.8V6L22.3464 6C22.5159 6 22.6086 5.80225 22.5 5.67188L17.927 0.184326C17.8471 0.0883785 17.6996 0.0883785 17.6197 0.184326L13.0467 5.67187C12.9382 5.80225 13.0308 6 13.2004 6L16.7734 6V21.8C16.7734 21.9104 16.863 22 16.9733 22H18.5734Z" fill="#FF0000"/>
</svg>
