<svg width="24" height="24" viewBox="0 0 24 24" fill="none" xmlns="http://www.w3.org/2000/svg">
<path fill-rule="evenodd" clip-rule="evenodd" d="M14.625 1.01694C14.44 1.08494 14.259 1.24994 14.161 1.43994C14.121 1.51694 13.833 2.24594 13.52 3.05994C12.463 5.80994 12.46 5.81894 12.133 6.14494C11.837 6.44094 11.67 6.51694 9.41998 7.37994C8.40798 7.76794 7.51298 8.12994 7.42998 8.18294C7.23098 8.31294 7.09698 8.52394 7.01498 8.83994C6.90698 9.25394 7.00498 9.53394 7.34098 9.76894C7.42798 9.82994 8.26498 10.1749 9.19998 10.5349C11.894 11.5739 11.817 11.5389 12.139 11.8609C12.461 12.1819 12.425 12.1039 13.464 14.7979C13.891 15.9049 14.159 16.5449 14.234 16.6379C14.458 16.9149 15.003 17.0999 15.317 17.0059C15.517 16.9459 15.739 16.7569 15.838 16.5639C15.878 16.4849 16.209 15.6459 16.573 14.6999C17.56 12.1369 17.539 12.1819 17.861 11.8609C18.183 11.5389 18.139 11.5589 20.7 10.5739C21.646 10.2099 22.479 9.87694 22.551 9.83194C22.623 9.78794 22.728 9.69194 22.785 9.61694C22.902 9.46394 23.04 9.05594 23.04 8.86494C23.04 8.67694 22.883 8.39794 22.699 8.25994C22.596 8.18194 21.874 7.88294 20.679 7.42394C18.37 6.53494 18.163 6.44094 17.867 6.14494C17.54 5.81794 17.534 5.80394 16.481 3.05994C16.168 2.24594 15.877 1.52094 15.833 1.44894C15.62 1.10094 15.002 0.87994 14.625 1.01694ZM6.09998 12.0319C6.01098 12.0739 5.88198 12.1729 5.81098 12.2539C5.73998 12.3339 5.40098 12.9589 5.05698 13.6429C4.20598 15.3349 4.33098 15.2079 2.71598 16.0209C2.03598 16.3629 1.41598 16.6989 1.33698 16.7679C1.15698 16.9259 1.00198 17.2289 0.971981 17.4829C0.940981 17.7429 1.03798 17.9929 1.23998 18.1749C1.32998 18.2569 1.91198 18.5749 2.64698 18.9439C4.32898 19.7889 4.21098 19.6719 5.05098 21.3429C5.73898 22.7129 5.80198 22.7999 6.21598 22.9549C6.62298 23.1069 6.93098 23.0399 7.19298 22.7419C7.26098 22.6639 7.59998 22.0369 7.94598 21.3499C8.78798 19.6739 8.67598 19.7859 10.32 18.9619C10.994 18.6249 11.6 18.2949 11.674 18.2249C11.849 18.0599 11.999 17.7609 12.028 17.5169C12.058 17.2579 11.962 17.0069 11.763 16.8279C11.676 16.7489 11.064 16.4149 10.329 16.0439C8.66298 15.2039 8.79298 15.3339 7.95898 13.6729C7.62398 13.0049 7.29498 12.3999 7.22498 12.3259C6.93598 12.0179 6.41698 11.8829 6.09998 12.0319Z" fill="#FF1200"/>
</svg>
