<svg width="24" height="24" viewBox="0 0 24 24" fill="none" xmlns="http://www.w3.org/2000/svg">
<path fill-rule="evenodd" clip-rule="evenodd" d="M15.626 2.04492C15.257 2.23892 14.951 2.67292 14.951 2.99992C14.951 3.33292 15.0561 3.46692 16.3531 4.76992L17.577 5.99992H10.695C3.30605 5.99992 3.61205 5.99192 3.32205 6.19892C3.10005 6.35692 3.02005 6.56792 3.02005 6.99992C3.02005 7.33092 3.03305 7.40292 3.12005 7.55792C3.23005 7.75492 3.41405 7.89792 3.63505 7.95892C3.73005 7.98592 6.18105 7.99992 10.679 7.99992H17.577L16.3531 9.22992C15.548 10.0389 15.099 10.5209 15.04 10.6369C14.863 10.9889 14.952 11.3539 15.299 11.7009C15.646 12.0479 16.0111 12.1369 16.3631 11.9599C16.4841 11.8989 17.1821 11.2339 18.5611 9.86592C19.673 8.76292 20.634 7.82592 20.696 7.78392C20.85 7.68192 21.049 7.23892 21.049 6.99992C21.049 6.74492 20.851 6.32092 20.6761 6.20092C20.601 6.14992 19.6401 5.21292 18.5401 4.11792C17.2321 2.81692 16.482 2.09892 16.372 2.04392C16.152 1.93392 15.835 1.93492 15.626 2.04492ZM7.62005 12.0459C7.52505 12.0949 6.65205 12.9319 5.46005 14.1179C4.36005 15.2129 3.39905 16.1499 3.32405 16.2009C3.14905 16.3209 2.95105 16.7449 2.95105 16.9999C2.95105 17.2389 3.15005 17.6819 3.30405 17.7839C3.36605 17.8259 4.32705 18.7629 5.43905 19.8659C6.81805 21.2339 7.51605 21.8989 7.63705 21.9599C7.98905 22.1369 8.35405 22.0479 8.70105 21.7009C9.04805 21.3539 9.13705 20.9889 8.96005 20.6369C8.90105 20.5209 8.45205 20.0389 7.64705 19.2299L6.42305 17.9999H13.321C17.819 17.9999 20.2701 17.9859 20.365 17.9589C20.5861 17.8979 20.77 17.7549 20.88 17.5579C20.967 17.4019 20.98 17.3319 20.979 16.9999C20.9781 16.5669 20.898 16.3549 20.678 16.1989C20.388 15.9919 20.694 15.9999 13.305 15.9999H6.42305L7.64705 14.7699C8.45205 13.9609 8.90105 13.4789 8.96005 13.3629C9.13705 13.0109 9.04805 12.6459 8.70105 12.2989C8.36105 11.9589 7.96705 11.8669 7.62005 12.0459Z" fill="white"/>
</svg>
