<svg width="13" height="12" viewBox="0 0 13 12" fill="none" xmlns="http://www.w3.org/2000/svg">
<path fill-rule="evenodd" clip-rule="evenodd" d="M1.41675 0.696448C1.27941 0.769114 1.09675 0.955114 1.02475 1.09578C0.948748 1.24445 0.948748 1.42111 1.02541 1.57511C1.06741 1.65778 1.62741 2.23711 2.90141 3.51311L4.71875 5.33311L2.90141 7.15311C1.62741 8.42911 1.06741 9.00845 1.02541 9.09111C0.908081 9.32645 0.967414 9.56911 1.19875 9.80045C1.42941 10.0311 1.67275 10.0911 1.90808 9.97378C2.07475 9.89045 6.22341 5.74178 6.30675 5.57511C6.34208 5.50378 6.36541 5.40711 6.36541 5.33311C6.36541 5.25911 6.34208 5.16245 6.30675 5.09111C6.22608 4.92911 2.07541 0.775781 1.91408 0.695781C1.76741 0.622448 1.55541 0.623114 1.41675 0.696448ZM6.74208 10.0378C6.58408 10.0871 6.47408 10.1738 6.40541 10.3018C6.35608 10.3944 6.34608 10.4558 6.34608 10.6664C6.34608 10.8871 6.35475 10.9351 6.41275 11.0384C6.48608 11.1698 6.60875 11.2651 6.75608 11.3058C6.88808 11.3424 12.4441 11.3424 12.5761 11.3058C12.7234 11.2651 12.8461 11.1698 12.9194 11.0384C12.9774 10.9344 12.9861 10.8878 12.9854 10.6664C12.9847 10.3778 12.9314 10.2364 12.7847 10.1324C12.5947 9.99711 12.6574 9.99978 9.65541 10.0018C7.43341 10.0031 6.83008 10.0104 6.74208 10.0378Z" fill="white"/>
</svg>

