<svg width="24" height="24" viewBox="0 0 24 24" fill="none" xmlns="http://www.w3.org/2000/svg">
<path fill-rule="evenodd" clip-rule="evenodd" d="M3.62598 4.04492C3.41998 4.15392 3.14598 4.43292 3.03798 4.64392C2.92398 4.86692 2.92398 5.13192 3.03898 5.36292C3.10198 5.48692 3.94198 6.35592 5.85298 8.26992L8.57898 10.9999L5.85298 13.7299C3.94198 15.6439 3.10198 16.5129 3.03898 16.6369C2.86298 16.9899 2.95198 17.3539 3.29898 17.7009C3.64498 18.0469 4.00998 18.1369 4.36298 17.9609C4.61298 17.8359 10.836 11.6129 10.961 11.3629C11.014 11.2559 11.049 11.1109 11.049 10.9999C11.049 10.8889 11.014 10.7439 10.961 10.6369C10.84 10.3939 4.61398 4.16392 4.37198 4.04392C4.15198 3.93392 3.83398 3.93492 3.62598 4.04492ZM11.614 18.0569C11.377 18.1309 11.212 18.2609 11.109 18.4529C11.035 18.5919 11.02 18.6839 11.02 18.9999C11.02 19.3309 11.033 19.4029 11.12 19.5579C11.23 19.7549 11.414 19.8979 11.635 19.9589C11.833 20.0139 20.167 20.0139 20.365 19.9589C20.586 19.8979 20.77 19.7549 20.88 19.5579C20.967 19.4019 20.98 19.3319 20.979 18.9999C20.978 18.5669 20.898 18.3549 20.678 18.1989C20.393 17.9959 20.487 17.9999 15.984 18.0029C12.651 18.0049 11.746 18.0159 11.614 18.0569Z" fill="red"/>
</svg>
