<svg width="13" height="12" viewBox="0 0 13 12" fill="none" xmlns="http://www.w3.org/2000/svg">
<path fill-rule="evenodd" clip-rule="evenodd" d="M7.61833 0.0374907C7.3955 0.113907 7.28525 0.293574 7.28583 0.581157C7.28583 0.784741 7.32842 0.906657 7.43808 1.02041C7.55825 1.14466 7.67375 1.16566 8.24075 1.16566H8.73833V5.83057V10.4955L8.19583 10.5042C7.60492 10.5136 7.55125 10.5241 7.427 10.6547C7.329 10.7574 7.28758 10.8828 7.287 11.0806C7.28583 11.3746 7.40308 11.5647 7.62767 11.6312C7.79975 11.6826 10.8436 11.6826 11.0157 11.6312C11.2408 11.5647 11.3552 11.3787 11.3552 11.0806C11.3552 10.7854 11.2484 10.6133 11.0186 10.5363C10.9299 10.5066 10.8027 10.499 10.4061 10.499H9.905V9.91857V9.33757L10.6108 9.32591C11.2192 9.31599 11.3423 9.30782 11.5033 9.26641C11.7425 9.20574 11.8778 9.14682 12.0511 9.02957C12.4267 8.77466 12.6595 8.42874 12.7668 7.96732C12.8071 7.79349 12.81 7.64882 12.81 5.83232C12.81 4.01582 12.8071 3.87116 12.7668 3.69732C12.6397 3.15132 12.3357 2.76224 11.8469 2.51957C11.5622 2.37841 11.2099 2.33232 10.4125 2.33232H9.905V1.74899V1.16566H10.4026C10.9696 1.16566 11.0851 1.14466 11.2052 1.02041C11.3155 0.906657 11.3552 0.789407 11.3552 0.580574C11.3552 0.285407 11.2484 0.113324 11.0186 0.036324C10.92 0.00365735 10.7129 -0.00100919 9.31525 0.000157473C7.94092 0.00132414 7.70875 0.00599074 7.61833 0.0374907ZM1.59192 2.35857C1.13575 2.40232 0.806167 2.54874 0.5075 2.83982C0.27475 3.06732 0.126 3.34207 0.0431667 3.69732C0.00291667 3.87116 0 4.01582 0 5.84399C0 7.80341 -2.17309e-08 7.80399 0.0530833 8.01107C0.119583 8.27299 0.209417 8.46024 0.3675 8.66616C0.58975 8.95607 0.9135 9.16491 1.29733 9.26699L1.49333 9.31891L4.29917 9.32649C6.18508 9.33174 7.13475 9.32591 7.19483 9.31016C7.32842 9.27399 7.43633 9.19116 7.50167 9.07449C7.55242 8.98349 7.56 8.94266 7.55942 8.74899C7.55825 8.43924 7.48533 8.30974 7.25375 8.20707C7.20125 8.18374 6.58467 8.17499 4.38667 8.16566L1.58667 8.15399L1.47583 8.09916C1.34458 8.03499 1.23492 7.91016 1.19525 7.78066C1.15208 7.64066 1.15442 4.01816 1.197 3.87582C1.2355 3.75041 1.39708 3.58357 1.52017 3.54274C1.59017 3.51941 2.22483 3.51007 4.41 3.50016C7.0875 3.48791 7.2135 3.48557 7.29167 3.44357C7.49933 3.33274 7.55883 3.21549 7.55883 2.91566C7.55883 2.66307 7.51275 2.53999 7.38383 2.44841C7.217 2.32941 7.28875 2.33232 4.44733 2.33524C2.98958 2.33699 1.7045 2.34749 1.59192 2.35857ZM11.2898 3.54507C11.4117 3.58241 11.5745 3.74924 11.613 3.87582C11.6556 4.01816 11.6579 7.64066 11.6147 7.78066C11.5751 7.91016 11.4654 8.03499 11.3342 8.09916C11.2274 8.15224 11.2 8.15399 10.5642 8.16216L9.905 8.16974V5.83174V3.49316L10.5525 3.50541C10.9486 3.51299 11.235 3.52816 11.2898 3.54507Z" fill="white"/>
</svg>
