<svg width="24" height="24" viewBox="0 0 24 24" fill="none" xmlns="http://www.w3.org/2000/svg">
<path fill-rule="evenodd" clip-rule="evenodd" d="M11.164 1.0431C10.918 1.0921 10.53 1.2841 10.334 1.4551C10.243 1.5341 10.106 1.6941 10.03 1.8101C9.95402 1.9251 9.09402 3.8141 8.12002 6.0071L6.35002 9.9941L4.90502 10.0091C3.50302 10.0241 3.45002 10.0281 3.13902 10.1241C2.17502 10.4211 1.41902 11.1811 1.11402 12.1601L1.02002 12.4601V16.5001V20.5401L1.11402 20.8401C1.42202 21.8271 2.17302 22.5781 3.16002 22.8861L3.46002 22.9801H10.74C17.641 22.9801 18.036 22.9761 18.32 22.9071C19.758 22.5591 20.915 21.4451 21.278 20.0601C21.324 19.8841 21.616 18.1021 21.926 16.1001C22.411 12.9731 22.491 12.3921 22.492 11.9801C22.497 10.9191 22.064 9.9001 21.294 9.1571C20.625 8.5121 19.883 8.1511 19.001 8.0421C18.81 8.0181 17.866 8.0001 16.833 8.0001H15.005L14.99 5.9301C14.976 3.9221 14.973 3.8511 14.886 3.5601C14.483 2.2151 13.361 1.2281 12.027 1.0431C11.669 0.994098 11.416 0.994098 11.164 1.0431ZM12.002 3.0831C12.299 3.1571 12.687 3.4951 12.85 3.8201C12.984 4.0881 13 4.3501 13 6.3141C13 8.4271 13.006 8.4981 13.225 8.9301C13.361 9.1991 13.801 9.6391 14.07 9.7751C14.503 9.9941 14.571 10.0001 16.701 10.0001C17.935 10.0001 18.754 10.0161 18.903 10.0431C19.481 10.1481 20.024 10.5741 20.304 11.1401C20.575 11.6891 20.577 11.6651 19.942 15.8001C19.642 17.7471 19.363 19.4581 19.32 19.6021C19.127 20.2551 18.591 20.7561 17.891 20.9371C17.677 20.9931 17.083 21.0001 12.824 21.0001H8.00002V16.0791V11.1581L8.13402 10.8891C8.20802 10.7411 9.03002 8.9061 9.96102 6.8111C11.637 3.0361 11.653 3.0021 11.756 3.0251C11.813 3.0381 11.924 3.0641 12.002 3.0831ZM6.00002 16.5021V21.0051L4.85002 20.9921L3.70002 20.9801L3.51602 20.8721C3.41502 20.8131 3.28402 20.7001 3.22502 20.6231C2.99202 20.3171 3.00002 20.4691 3.00002 16.5221C3.00002 12.4141 2.98502 12.6211 3.30402 12.3031C3.58202 12.0241 3.68002 12.0061 4.93002 12.0031L6.00002 12.0001V16.5021Z" fill="#FF1200"/>
</svg>
