<svg width="24" height="24" viewBox="0 0 24 24" fill="none" xmlns="http://www.w3.org/2000/svg">
<path fill-rule="evenodd" clip-rule="evenodd" d="M6.35996 1.04311C5.42096 1.11211 4.73696 1.35711 4.11396 1.84811C3.38496 2.42311 2.96396 3.09611 2.70496 4.10011C2.59196 4.54211 1.82896 9.38011 1.64096 10.8521C1.49196 12.0191 1.54096 12.8431 1.79996 13.5111C2.18596 14.5091 3.07896 15.3821 4.03796 15.6991C4.78596 15.9461 5.40496 16.0001 7.48796 16.0001H8.99496L9.00996 18.0701C9.02396 20.0781 9.02696 20.1491 9.11396 20.4401C9.46996 21.6281 10.402 22.5571 11.56 22.8801C11.997 23.0011 12.599 23.0291 12.899 22.9421C13.384 22.8011 13.726 22.5611 13.97 22.1901C14.046 22.0751 14.905 20.1861 15.879 17.9941L17.649 14.0081L19.035 13.9891C20.262 13.9721 20.456 13.9611 20.74 13.8881C21.154 13.7821 21.382 13.6821 21.69 13.4731C22.324 13.0441 22.722 12.4491 22.906 11.6601C22.975 11.3601 22.98 11.1021 22.98 7.50011C22.98 3.89811 22.975 3.64011 22.906 3.34011C22.688 2.40411 22.167 1.73711 21.329 1.32111C21.019 1.16811 20.706 1.09111 20.18 1.04211C19.664 0.993113 7.02196 0.994113 6.35996 1.04311ZM16 7.93511V12.8701L15.902 13.0451C15.848 13.1411 15.029 14.9651 14.081 17.0981C13.133 19.2311 12.349 20.9841 12.34 20.9941C12.313 21.0211 11.958 20.9161 11.784 20.8301C11.586 20.7311 11.27 20.4161 11.169 20.2161C11.014 19.9111 11 19.7001 10.999 17.7481C10.999 15.7021 10.983 15.5111 10.778 15.0931C10.566 14.6581 10.136 14.2911 9.63496 14.1151C9.38896 14.0281 9.31196 14.0241 7.37996 13.9971C5.00596 13.9641 4.81696 13.9411 4.35296 13.6291C4.07396 13.4411 3.84796 13.1721 3.69096 12.8401C3.55096 12.5441 3.52396 11.9421 3.61796 11.1931C3.70296 10.5181 4.45296 5.60711 4.56196 5.02011C4.70396 4.25011 4.87396 3.85111 5.18696 3.55311C5.34696 3.40011 5.74996 3.16611 5.93796 3.11511C6.27696 3.02411 6.92096 3.01111 11.39 3.00611L16 3.00011V7.93511ZM20.374 3.07911C20.583 3.14311 20.862 3.42911 20.928 3.64611C21.001 3.89111 21.005 11.0991 20.931 11.3401C20.863 11.5621 20.675 11.7761 20.45 11.8861C20.267 11.9771 20.22 11.9801 19.13 11.9941L18 12.0071V7.49911V2.99011L19.11 3.01111C19.789 3.02411 20.28 3.05011 20.374 3.07911Z" fill="#FF1200"/>
</svg>
