<svg width="24" height="24" viewBox="0 0 24 24" fill="none" xmlns="http://www.w3.org/2000/svg">
<path fill-rule="evenodd" clip-rule="evenodd" d="M2.57703 1.0989C2.30803 1.2329 1.19703 2.3499 1.08303 2.6009C0.933029 2.9309 0.95603 3.0409 1.52503 4.7569C1.81403 5.6279 2.08303 6.4029 2.12203 6.4799C2.16103 6.5569 2.25303 6.6779 2.32703 6.7479C2.57703 6.9889 2.66103 6.9999 4.19503 6.9999H5.58003L7.33003 8.7499L9.07903 10.4989L5.80603 13.7799C3.66903 15.9219 2.48003 17.1419 2.38003 17.2969C2.01803 17.8559 1.85503 18.4769 1.89303 19.1579C1.90503 19.3899 1.94503 19.6879 1.98103 19.8199C2.25903 20.8439 3.15603 21.7409 4.18003 22.0189C4.31203 22.0549 4.61003 22.0949 4.84203 22.1069C5.52303 22.1449 6.14503 21.9819 6.70303 21.6199C6.85403 21.5219 7.85403 20.5549 9.47003 18.9439L12 16.4219L14.53 18.9439C16.146 20.5549 17.146 21.5219 17.297 21.6199C17.855 21.9819 18.477 22.1449 19.158 22.1069C19.39 22.0949 19.688 22.0549 19.82 22.0189C20.844 21.7409 21.741 20.8439 22.019 19.8199C22.185 19.2099 22.129 18.3829 21.884 17.7969C21.675 17.2979 21.497 17.0919 19.832 15.4179L18.198 13.7749L18.429 13.7039C20.487 13.0679 22.137 11.3819 22.739 9.3009C23.122 7.9759 23.072 6.5759 22.596 5.2619C22.332 4.5319 21.78 4.1989 21.24 4.4429C21.106 4.5039 20.668 4.9159 19.53 6.0519L17.999 7.5779L17.46 7.0399L16.92 6.5009L18.496 4.9199C19.5 3.9139 20.102 3.2799 20.154 3.1749C20.484 2.5119 20.278 2.1229 19.36 1.6739C18.279 1.1439 17.196 0.935901 16.029 1.0339C15.138 1.1079 14.562 1.2529 13.82 1.5909C11.856 2.4849 10.48 4.2619 10.096 6.3989C10.006 6.9019 9.98303 7.7809 10.049 8.2719L10.104 8.6829L8.55203 7.1319L7.00003 5.5799V4.1949C7.00003 2.6609 6.98903 2.5789 6.74803 2.3249C6.57003 2.1369 6.42203 2.0779 4.69703 1.5059C3.00903 0.944901 2.92003 0.927901 2.57703 1.0989ZM17.084 3.0449C17.269 3.0689 17.427 3.0959 17.437 3.1049C17.446 3.1129 16.969 3.6099 16.376 4.2099C15.513 5.0839 15.272 5.3509 15.164 5.5549C14.99 5.8859 14.921 6.1539 14.921 6.4999C14.921 6.9839 15.057 7.3459 15.401 7.7799C15.687 8.1409 16.682 9.0969 16.954 9.2729C17.581 9.6779 18.422 9.6759 19.053 9.2679C19.191 9.1789 19.676 8.7369 20.15 8.2669C21.104 7.3229 21.033 7.3439 20.957 8.0269C20.699 10.3449 18.632 12.1049 16.305 11.9879C16.06 11.9759 15.644 11.9199 15.38 11.8629C14.83 11.7459 14.566 11.7359 14.204 11.8219C13.621 11.9589 13.791 11.8049 9.52003 16.0619C5.91803 19.6529 5.56303 19.9949 5.38303 20.0549C4.83303 20.2369 4.26003 20.0039 4.00003 19.4949C3.87103 19.2429 3.86003 18.7869 3.97703 18.5399C4.02803 18.4309 5.30903 17.1199 7.96103 14.4599C11.738 10.6709 11.874 10.5299 12.015 10.2399C12.266 9.7229 12.283 9.4359 12.118 8.5299C12.007 7.9229 11.983 7.4719 12.038 7.0019C12.329 4.4959 14.6 2.7149 17.084 3.0449ZM4.15003 3.4429L5.00003 3.7269V4.3629V4.9999H4.36303H3.72703L3.44003 4.1389C3.20803 3.4429 3.16203 3.2659 3.20103 3.2189C3.22803 3.1859 3.26103 3.1599 3.27503 3.1599C3.28903 3.1599 3.68203 3.2869 4.15003 3.4429ZM15.14 13.8609L15.5 13.9259L17.706 16.1279C19.263 17.6839 19.939 18.3849 20.006 18.5159C20.142 18.7819 20.139 19.2229 20 19.4949C19.723 20.0379 19.056 20.2699 18.519 20.0089C18.39 19.9459 17.66 19.2409 15.88 17.4609L13.421 14.9999L14.04 14.3799C14.431 13.9889 14.681 13.7669 14.719 13.7779C14.753 13.7879 14.942 13.8249 15.14 13.8609Z" fill="#FF0000"/>
</svg>
