<svg width="24" height="24" viewBox="0 0 24 24" fill="none" xmlns="http://www.w3.org/2000/svg">
<path fill-rule="evenodd" clip-rule="evenodd" d="M15.54 1.02256C14.706 1.10356 14.25 1.19956 13.62 1.42656C11.709 2.11456 10.187 3.61456 9.45596 5.52956C8.94996 6.85656 8.87196 8.27756 9.22396 9.77256L9.33496 10.2426L5.93396 13.6516C3.70696 15.8826 2.47996 17.1416 2.37996 17.2966C2.01796 17.8556 1.85496 18.4766 1.89296 19.1576C1.90496 19.3896 1.94496 19.6876 1.98096 19.8196C2.25896 20.8436 3.15596 21.7406 4.17996 22.0186C4.31196 22.0546 4.60996 22.0946 4.84196 22.1066C5.52296 22.1446 6.14396 21.9816 6.70296 21.6196C6.85796 21.5196 8.11696 20.2926 10.348 18.0656L13.757 14.6646L14.227 14.7756C15.231 15.0116 16.225 15.0566 17.12 14.9056C19.641 14.4796 21.717 12.7566 22.573 10.3796C22.881 9.52556 22.978 8.94456 22.977 7.95956C22.977 6.91956 22.826 6.16556 22.441 5.27256C22.2 4.71256 21.961 4.50656 21.552 4.50656C21.378 4.50656 21.266 4.53556 21.072 4.63156C20.853 4.73956 20.6 4.97656 19.16 6.41756L17.501 8.07956L16.711 7.29056L15.921 6.50056L17.638 4.78056C18.925 3.49056 19.376 3.01456 19.437 2.87956C19.602 2.51556 19.507 2.14756 19.165 1.82856C18.87 1.55156 18.013 1.24456 17.12 1.09456C16.777 1.03656 15.836 0.994563 15.54 1.02256ZM16.371 3.02556L16.523 3.05056L15.411 4.17456C14.237 5.36256 14.104 5.53256 13.976 6.01456C13.906 6.27756 13.906 6.72156 13.976 6.98456C14.104 7.46656 14.239 7.64256 15.298 8.70156C16.11 9.51256 16.348 9.72856 16.555 9.83656C17.281 10.2156 18.06 10.1546 18.7 9.66756C18.788 9.60056 19.331 9.07856 19.906 8.50756L20.953 7.46856L20.983 7.70456C21.021 8.00356 20.944 8.83256 20.841 9.23256C20.484 10.6276 19.498 11.8426 18.212 12.4756C17.563 12.7946 16.931 12.9556 16.2 12.9886C15.675 13.0126 15.242 12.9646 14.64 12.8156C13.778 12.6026 13.21 12.6476 12.709 12.9686C12.535 13.0796 11.418 14.1676 9.01996 16.5586C5.88196 19.6876 5.56296 19.9946 5.38296 20.0546C4.83396 20.2366 4.25996 20.0036 3.99996 19.4946C3.87096 19.2426 3.85996 18.7866 3.97696 18.5396C4.02796 18.4316 5.16596 17.2616 7.47896 14.9396C9.58596 12.8246 10.956 11.4186 11.037 11.2896C11.352 10.7866 11.396 10.2806 11.198 9.42556C11.017 8.64356 10.976 8.17656 11.034 7.56556C11.06 7.28756 11.114 6.93356 11.154 6.77956C11.673 4.77656 13.384 3.27156 15.4 3.04356C15.781 3.00056 16.177 2.99356 16.371 3.02556Z" fill="#FF0000"/>
</svg>
