<svg width="24" height="24" viewBox="0 0 24 24" fill="none" xmlns="http://www.w3.org/2000/svg">
<path fill-rule="evenodd" clip-rule="evenodd" d="M9.74902 1.04548C8.77102 1.13948 8.03702 1.55748 7.52702 2.31048C7.16202 2.84848 7.04402 3.30048 7.01202 4.29048L6.98902 5.00048H4.90102C2.67402 5.00048 2.59202 5.00648 2.32202 5.19948C2.10002 5.35748 2.02002 5.56848 2.02002 6.00048C2.02002 6.33148 2.03302 6.40348 2.12002 6.55848C2.23002 6.75548 2.41402 6.89848 2.63502 6.95948C2.71502 6.98148 3.05402 7.00048 3.39002 7.00048H4.00002V12.8705C4.00002 19.3685 4.00502 19.5245 4.24502 20.3205C4.57702 21.4225 5.57802 22.4235 6.68002 22.7555C7.43902 22.9845 7.78802 23.0005 12 23.0005C16.212 23.0005 16.561 22.9845 17.32 22.7555C18.422 22.4235 19.423 21.4225 19.755 20.3205C19.995 19.5245 20 19.3685 20 12.8705V7.00048H20.61C20.946 7.00048 21.285 6.98148 21.365 6.95948C21.586 6.89848 21.77 6.75548 21.88 6.55848C21.967 6.40248 21.98 6.33248 21.979 6.00048C21.978 5.56748 21.898 5.35548 21.678 5.19948C21.408 5.00648 21.326 5.00048 19.1 5.00048H17.012L16.988 4.29048C16.954 3.29648 16.837 2.84648 16.473 2.31048C16.184 1.88248 15.811 1.56048 15.329 1.32148C15.019 1.16848 14.706 1.09148 14.18 1.04248C13.665 0.993485 10.261 0.995485 9.74902 1.04548ZM14.374 3.07648C14.576 3.14248 14.862 3.43048 14.918 3.62648C14.942 3.71148 14.973 4.05448 14.987 4.39048L15.012 5.00048H12.006H9.00002V4.63048C9.00102 4.02448 9.06302 3.61048 9.17902 3.43448C9.33302 3.20248 9.54702 3.08048 9.86602 3.04148C10.31 2.98748 14.191 3.01748 14.374 3.07648ZM17.989 13.1105C17.974 19.7675 17.984 19.4765 17.752 19.9525C17.626 20.2115 17.19 20.6385 16.918 20.7685C16.477 20.9805 16.468 20.9805 12 20.9805C7.53902 20.9805 7.52702 20.9795 7.08202 20.7715C6.81202 20.6435 6.37702 20.2175 6.24802 19.9525C6.01602 19.4765 6.02602 19.7675 6.01102 13.1105L5.99602 7.00048H12H18.004L17.989 13.1105Z" fill="red"/>
</svg>
