<svg width="24" height="24" viewBox="0 0 24 24" fill="none" xmlns="http://www.w3.org/2000/svg">
<path d="M2.58342 9.83437C1.38682 9.83437 0.417362 10.8038 0.417362 12.0004C0.417362 13.1964 1.38682 14.166 2.58342 14.166C3.77951 14.166 4.74897 13.1964 4.74897 12.0004C4.74897 10.8038 3.77951 9.83437 2.58342 9.83437ZM18.0463 19.6773C17.0105 20.2757 16.6552 21.5994 17.2535 22.6347C17.8513 23.6706 19.175 24.0257 20.2109 23.4274C21.2467 22.8297 21.6019 21.5059 21.0037 20.4699C20.4059 19.4348 19.0814 19.0797 18.0463 19.6773ZM7.28764 12.0004C7.28764 9.86029 8.35072 7.9694 9.97723 6.82451L8.39392 4.17264C6.49922 5.43925 5.08931 7.3746 4.5034 9.6414C5.18713 10.1991 5.62466 11.0484 5.62466 12.0003C5.62466 12.9517 5.18713 13.801 4.5034 14.3588C5.08855 16.6261 6.49846 18.5617 8.39392 19.8283L9.97723 17.1757C8.35072 16.0315 7.28764 14.1407 7.28764 12.0004ZM13.6133 5.67415C16.918 5.67415 19.6293 8.20786 19.9139 11.4393L22.9997 11.3938C22.8481 9.00822 21.8058 6.86656 20.2046 5.29175C19.3811 5.60288 18.4298 5.55523 17.6079 5.08137C16.7842 4.60611 16.2678 3.80435 16.1267 2.93412C15.308 2.70757 14.4626 2.59262 13.6132 2.59237C12.1669 2.5909 10.7399 2.92409 9.44379 3.56589L10.9486 6.2626C11.7832 5.87415 12.6927 5.67328 13.6133 5.67415ZM13.6133 18.3262C12.6928 18.327 11.7833 18.1262 10.9487 17.7377L9.44391 20.4342C10.7398 21.0767 12.167 21.4103 13.6134 21.4087C14.4628 21.4085 15.3083 21.2933 16.1268 21.0661C16.2679 20.1959 16.7845 19.3949 17.6079 18.9189C18.4306 18.4441 19.3812 18.3973 20.2046 18.7085C21.8059 17.1337 22.8481 14.992 23 12.6064L19.9133 12.5609C19.6293 15.7933 16.9181 18.3262 13.6133 18.3262ZM18.0455 4.3223C19.0814 4.92041 20.4053 4.56622 21.0029 3.53032C21.6013 2.49442 21.2468 1.17053 20.2109 0.572161C19.175 -0.0254424 17.8513 0.329511 17.2528 1.36541C16.6553 2.4008 17.0104 3.72457 18.0455 4.3223Z" fill="#050505"/>
<path d="M2.58342 9.83437C1.38682 9.83437 0.417362 10.8038 0.417362 12.0004C0.417362 13.1964 1.38682 14.166 2.58342 14.166C3.77951 14.166 4.74897 13.1964 4.74897 12.0004C4.74897 10.8038 3.77951 9.83437 2.58342 9.83437ZM18.0463 19.6773C17.0105 20.2757 16.6552 21.5994 17.2535 22.6347C17.8513 23.6706 19.175 24.0257 20.2109 23.4274C21.2467 22.8297 21.6019 21.5059 21.0037 20.4699C20.4059 19.4348 19.0814 19.0797 18.0463 19.6773ZM7.28764 12.0004C7.28764 9.86029 8.35072 7.9694 9.97723 6.82451L8.39392 4.17264C6.49922 5.43925 5.08931 7.3746 4.5034 9.6414C5.18713 10.1991 5.62466 11.0484 5.62466 12.0003C5.62466 12.9517 5.18713 13.801 4.5034 14.3588C5.08855 16.6261 6.49846 18.5617 8.39392 19.8283L9.97723 17.1757C8.35072 16.0315 7.28764 14.1407 7.28764 12.0004ZM13.6133 5.67415C16.918 5.67415 19.6293 8.20786 19.9139 11.4393L22.9997 11.3938C22.8481 9.00822 21.8058 6.86656 20.2046 5.29175C19.3811 5.60288 18.4298 5.55523 17.6079 5.08137C16.7842 4.60611 16.2678 3.80435 16.1267 2.93412C15.308 2.70757 14.4626 2.59262 13.6132 2.59237C12.1669 2.5909 10.7399 2.92409 9.44379 3.56589L10.9486 6.2626C11.7832 5.87415 12.6927 5.67328 13.6133 5.67415ZM13.6133 18.3262C12.6928 18.327 11.7833 18.1262 10.9487 17.7377L9.44391 20.4342C10.7398 21.0767 12.167 21.4103 13.6134 21.4087C14.4628 21.4085 15.3083 21.2933 16.1268 21.0661C16.2679 20.1959 16.7845 19.3949 17.6079 18.9189C18.4306 18.4441 19.3812 18.3973 20.2046 18.7085C21.8059 17.1337 22.8481 14.992 23 12.6064L19.9133 12.5609C19.6293 15.7933 16.9181 18.3262 13.6133 18.3262ZM18.0455 4.3223C19.0814 4.92041 20.4053 4.56622 21.0029 3.53032C21.6013 2.49442 21.2468 1.17053 20.2109 0.572161C19.175 -0.0254424 17.8513 0.329511 17.2528 1.36541C16.6553 2.4008 17.0104 3.72457 18.0455 4.3223Z" fill="white"/>
</svg>
