<svg width="24" height="24" viewBox="0 0 24 24" fill="none" xmlns="http://www.w3.org/2000/svg">
<path fill-rule="evenodd" clip-rule="evenodd" d="M11.3 2.04492C9.20999 2.24092 7.25599 3.44192 6.09899 5.24092C5.84199 5.63992 5.50999 6.33792 5.36699 6.77692L5.25099 7.13392L4.85599 7.25992C2.80799 7.91292 1.37699 9.60692 1.05399 11.7599C0.97899 12.2579 0.99899 13.0419 1.09799 13.5499C1.34299 14.7979 2.06399 15.9889 3.05199 16.7809C3.81099 17.3879 4.26399 17.4369 4.69699 16.9579C4.93399 16.6959 5.05299 16.3999 5.03299 16.1239C5.01099 15.8269 4.92599 15.7099 4.46199 15.3409C3.72799 14.7559 3.32899 14.1719 3.11199 13.3639C2.99299 12.9199 2.99199 12.0639 3.10999 11.6139C3.39899 10.5099 4.27599 9.56592 5.35899 9.19392C5.47999 9.15192 5.78399 9.08192 6.03499 9.03692C6.52999 8.94992 6.60299 8.92292 6.77399 8.76492C6.93999 8.61092 6.98799 8.49792 7.11899 7.94192C7.26099 7.34692 7.41999 6.92092 7.64099 6.54192C8.38299 5.27492 9.63899 4.36292 11.001 4.10192C12.739 3.76992 14.426 4.30892 15.642 5.58492C16.288 6.26192 16.639 6.93192 16.882 7.95192C17.013 8.49792 17.061 8.61192 17.226 8.76492C17.397 8.92292 17.47 8.94992 17.965 9.03692C18.216 9.08192 18.52 9.15192 18.641 9.19392C19.724 9.56592 20.601 10.5099 20.89 11.6139C21.008 12.0639 21.007 12.9199 20.888 13.3639C20.671 14.1719 20.272 14.7559 19.538 15.3409C19.074 15.7099 18.989 15.8269 18.967 16.1239C18.947 16.4079 19.07 16.7039 19.324 16.9799C19.746 17.4379 20.196 17.3829 20.948 16.7809C22.892 15.2229 23.528 12.5679 22.513 10.2489C22.026 9.13792 21.046 8.12292 19.93 7.57592C19.715 7.47092 19.362 7.32792 19.144 7.25892L18.749 7.13392L18.633 6.77692C18.49 6.33792 18.158 5.63992 17.901 5.24092C16.47 3.01392 13.954 1.79592 11.3 2.04492ZM11.53 11.0849C11.392 11.1519 11.248 11.2539 11.21 11.3119C11.171 11.3699 10.237 12.3269 9.13399 13.4389C7.76599 14.8179 7.10099 15.5159 7.03999 15.6369C6.86299 15.9889 6.95199 16.3539 7.29899 16.7009C7.64599 17.0479 8.01099 17.1369 8.36299 16.9599C8.47899 16.9009 8.96099 16.4519 9.76999 15.6469L11 14.4229V17.8209C11 19.9749 11.015 21.2729 11.041 21.3649C11.148 21.7499 11.437 21.9619 11.896 21.9909C12.381 22.0219 12.699 21.8819 12.88 21.5579L12.98 21.3799L12.991 17.9029L13.002 14.4249L14.231 15.6479C15.039 16.4519 15.521 16.9009 15.637 16.9599C15.989 17.1369 16.354 17.0479 16.701 16.7009C17.048 16.3539 17.137 15.9889 16.96 15.6369C16.899 15.5159 16.234 14.8179 14.866 13.4389C13.763 12.3269 12.829 11.3699 12.79 11.3119C12.752 11.2539 12.604 11.1509 12.46 11.0829C12.113 10.9189 11.873 10.9199 11.53 11.0849Z" fill="#FF0000"/>
</svg>
