<svg width="24" height="24" viewBox="0 0 24 24" fill="none" xmlns="http://www.w3.org/2000/svg">
<path fill-rule="evenodd" clip-rule="evenodd" d="M11.53 2.08532C11.392 2.15232 11.248 2.25432 11.21 2.31232C11.171 2.37032 10.012 3.55232 8.63396 4.93932C6.89696 6.68732 6.10096 7.51432 6.03996 7.63732C5.86296 7.99032 5.95196 8.35432 6.29896 8.70132C6.64596 9.04832 7.01096 9.13732 7.36296 8.96032C7.48296 8.90032 8.09196 8.32131 9.26996 7.14732L11 5.42232V10.3213C11 13.4803 11.015 15.2713 11.041 15.3653C11.148 15.7503 11.437 15.9623 11.896 15.9913C12.381 16.0223 12.699 15.8823 12.88 15.5583L12.98 15.3803L12.991 10.4023L13.002 5.42431L14.731 7.14732C15.908 8.32131 16.517 8.90032 16.637 8.96032C16.989 9.13732 17.354 9.04832 17.701 8.70132C18.048 8.35432 18.137 7.99032 17.96 7.63732C17.899 7.51432 17.103 6.68732 15.366 4.93932C13.988 3.55232 12.829 2.37032 12.79 2.31232C12.752 2.25432 12.604 2.15132 12.46 2.08332C12.113 1.91932 11.873 1.92032 11.53 2.08532ZM2.61396 14.0573C2.37696 14.1313 2.21196 14.2613 2.10896 14.4533C2.02196 14.6163 2.01996 14.6583 2.00696 16.1203C1.98796 18.3883 2.07396 19.0883 2.46496 19.8593C2.91496 20.7493 3.77196 21.4823 4.67996 21.7553C5.47396 21.9943 5.64196 22.0003 12 22.0003C18.358 22.0003 18.526 21.9943 19.32 21.7553C20.228 21.4823 21.085 20.7493 21.535 19.8593C21.927 19.0873 22.012 18.3863 21.993 16.1203C21.98 14.6583 21.978 14.6163 21.891 14.4533C21.785 14.2563 21.622 14.1313 21.371 14.0553C20.861 13.9023 20.31 14.0763 20.11 14.4533C20.024 14.6163 20.021 14.6673 19.993 16.4203C19.958 18.7313 19.93 18.8703 19.4 19.4013C19.101 19.7013 18.82 19.8513 18.418 19.9283C18.01 20.0053 5.98996 20.0053 5.58196 19.9273C5.16996 19.8503 4.89796 19.7043 4.59996 19.4033C4.06996 18.8683 4.04296 18.7323 4.00596 16.4203C3.97896 14.6703 3.97496 14.6153 3.88996 14.4533C3.84096 14.3623 3.74596 14.2473 3.67796 14.1993C3.41396 14.0103 2.95696 13.9503 2.61396 14.0573Z" fill="#FF0000"/>
</svg>
