<svg width="24" height="24" viewBox="0 0 24 24" fill="none" xmlns="http://www.w3.org/2000/svg">
<path fill-rule="evenodd" clip-rule="evenodd" d="M8.86004 2.04706C7.63204 2.18506 6.47904 2.75106 5.57904 3.65906C3.48304 5.77106 3.48004 9.20106 5.57304 11.3331C7.17004 12.9601 9.50104 13.4361 11.624 12.5701C12.899 12.0491 14.049 10.8991 14.57 9.62406C15.316 7.79706 15.073 5.79806 13.915 4.23706C12.74 2.65206 10.83 1.82506 8.86004 2.04706ZM15.58 2.50306C15.514 2.53706 15.409 2.61306 15.348 2.67206C15.191 2.82206 14.992 3.24506 14.969 3.47606C14.931 3.87406 15.097 4.10006 15.674 4.43606C16.117 4.69406 16.361 4.89106 16.63 5.20706C17.204 5.88006 17.48 6.62506 17.48 7.50006C17.48 8.37506 17.204 9.12006 16.63 9.79306C16.361 10.1091 16.121 10.3031 15.658 10.5781C15.245 10.8241 15.062 10.9941 14.996 11.1911C14.846 11.6481 15.275 12.4631 15.709 12.5441C15.953 12.5901 16.215 12.5381 16.52 12.3831C18.027 11.6151 19.129 10.1181 19.422 8.44006C19.509 7.94006 19.509 7.06006 19.422 6.56006C19.128 4.88106 17.991 3.34306 16.503 2.61506C16.211 2.47206 16.105 2.44006 15.923 2.44006C15.8 2.44006 15.646 2.46806 15.58 2.50306ZM10.405 4.11506C11.375 4.36606 12.232 5.09406 12.678 6.04606C12.906 6.53206 12.978 6.88106 12.978 7.50006C12.978 8.11906 12.906 8.46806 12.678 8.95406C12.223 9.92506 11.401 10.6171 10.36 10.9051C9.99304 11.0071 9.00704 11.0071 8.64004 10.9051C7.62204 10.6231 6.82004 9.96006 6.34204 9.00506C6.09504 8.51306 6.02804 8.19106 6.02804 7.50006C6.02804 7.01706 6.04404 6.84006 6.11104 6.59506C6.46704 5.28606 7.61504 4.25106 8.94204 4.04206C9.29704 3.98606 10.05 4.02406 10.405 4.11506ZM8.68004 15.0431C6.55704 15.2411 4.65804 16.0861 2.87404 17.6271C2.17904 18.2291 1.21204 19.3031 1.04304 19.6631C0.919038 19.9261 0.931038 20.2181 1.07404 20.4451C1.40204 20.9621 2.00704 21.1841 2.42304 20.9401C2.52204 20.8821 2.76804 20.6351 3.01104 20.3501C4.87204 18.1661 7.13104 17.0001 9.50004 17.0001C11.869 17.0001 14.128 18.1661 15.989 20.3501C16.232 20.6351 16.478 20.8821 16.577 20.9401C16.993 21.1841 17.598 20.9621 17.926 20.4451C18.069 20.2181 18.081 19.9261 17.957 19.6631C17.833 19.3991 17.296 18.7671 16.663 18.1401C14.378 15.8781 11.539 14.7761 8.68004 15.0431ZM17.648 15.7631C17.352 15.8541 17.022 16.3431 16.972 16.7671C16.942 17.0171 17.04 17.2761 17.225 17.4391C17.302 17.5061 17.546 17.6531 17.768 17.7641C18.988 18.3761 20.039 19.2211 21.007 20.3691C21.469 20.9161 21.644 21.0401 21.961 21.0401C22.312 21.0401 22.7 20.8001 22.926 20.4451C23.068 20.2201 23.081 19.9261 22.959 19.6681C22.79 19.3081 21.777 18.1811 21.101 17.6021C20.297 16.9121 19.338 16.2831 18.556 15.9321C18.142 15.7471 17.869 15.6961 17.648 15.7631Z" fill="#FF0000"/>
</svg>
