<svg width="14" height="14" viewBox="0 0 14 14" fill="none" xmlns="http://www.w3.org/2000/svg">
<path fill-rule="evenodd" clip-rule="evenodd" d="M6.62959 1.19349C5.6035 1.30082 4.66609 1.9454 4.15625 2.89507C3.74617 3.65866 3.68434 4.64157 3.99292 5.4874C4.31842 6.37932 5.05925 7.09741 5.97742 7.41066C7.49584 7.92866 9.156 7.23274 9.89042 5.7709C10.1185 5.31707 10.2375 4.67132 10.1943 4.12299C10.1313 3.32557 9.79942 2.62791 9.21375 2.0644C8.52309 1.39882 7.609 1.09082 6.62959 1.19349ZM7.525 2.40157C8.07042 2.54216 8.55867 2.94291 8.82 3.46499C8.99092 3.80624 9.01834 3.92991 9.01834 4.37499C9.01834 4.82007 8.99092 4.94432 8.82 5.28499C8.56275 5.79832 8.12175 6.16991 7.57167 6.33732C7.3815 6.39566 7.32784 6.40149 7 6.40149C6.67275 6.40149 6.6185 6.39566 6.42834 6.33791C5.74467 6.13024 5.21209 5.58482 5.02309 4.89824C4.99159 4.78391 4.98167 4.66024 4.98167 4.37499C4.98167 3.97132 5.00617 3.83307 5.12692 3.56007C5.3515 3.05024 5.83392 2.60574 6.34317 2.43891C6.69434 2.32399 7.16509 2.30882 7.525 2.40157ZM6.60334 8.18241C5.88 8.23432 5.22725 8.38657 4.60834 8.64849C3.52509 9.10641 2.64775 9.80116 1.92092 10.7753C1.57617 11.2379 1.4805 11.5582 1.57675 11.9315C1.6625 12.264 1.88067 12.5463 2.15542 12.6822C2.47159 12.8386 2.23884 12.8316 7 12.8316C11.7612 12.8316 11.5284 12.8386 11.8446 12.6822C12.1193 12.5463 12.3375 12.264 12.4233 11.9315C12.5195 11.5582 12.4238 11.2379 12.0791 10.7753C11.1504 9.53107 9.91142 8.69632 8.47 8.34457C7.89017 8.20341 7.17675 8.14099 6.60334 8.18241ZM7.75834 9.39224C8.62692 9.52349 9.47217 9.89507 10.1733 10.4539C10.444 10.6697 10.8722 11.1142 11.0938 11.41L11.277 11.655L9.1385 11.6608C7.9625 11.6643 6.0375 11.6643 4.8615 11.6608L2.723 11.655L2.90617 11.41C3.25267 10.9474 3.7625 10.4662 4.22334 10.1669C4.94842 9.69557 5.6945 9.44007 6.615 9.34732C6.81042 9.32749 7.51217 9.35549 7.75834 9.39224Z" fill="#FFFFFF"/>
</svg>
