<svg width="24" height="24" viewBox="0 0 24 24" fill="none" xmlns="http://www.w3.org/2000/svg">
<path fill-rule="evenodd" clip-rule="evenodd" d="M9.36506 2.04588C7.60606 2.22988 5.99906 3.33488 5.12506 4.96288C4.42206 6.27188 4.31606 7.95687 4.84506 9.40687C5.40306 10.9369 6.69706 12.1879 8.26506 12.7129C10.1841 13.3559 12.3211 12.8779 13.7751 11.4809C14.7931 10.5029 15.3661 9.30888 15.4751 7.93388C15.6071 6.27288 15.0091 4.70788 13.7951 3.53888C12.6111 2.39788 11.0441 1.86988 9.36506 2.04588ZM10.9001 4.11688C11.8351 4.35788 12.6721 5.04488 13.1201 5.93988C13.4131 6.52488 13.4601 6.73688 13.4601 7.49988C13.4601 8.26288 13.4131 8.47588 13.1201 9.05988C12.6791 9.93988 11.9231 10.5769 10.9801 10.8639C10.6541 10.9639 10.5621 10.9739 10.0001 10.9739C9.43906 10.9739 9.34606 10.9639 9.02006 10.8649C7.84806 10.5089 6.93506 9.57388 6.61106 8.39688C6.55706 8.20088 6.54006 7.98888 6.54006 7.49988C6.54006 6.80788 6.58206 6.57088 6.78906 6.10288C7.17406 5.22888 8.00106 4.46688 8.87406 4.18088C9.47606 3.98388 10.2831 3.95788 10.9001 4.11688ZM18.6141 14.0569C18.3771 14.1309 18.2121 14.2609 18.1091 14.4529C18.0241 14.6129 18.0201 14.6679 18.0081 15.8099L17.9961 16.9999H16.9041C15.7441 16.9999 15.5701 17.0219 15.3221 17.1989C15.1001 17.3569 15.0201 17.5679 15.0201 17.9999C15.0201 18.3309 15.0331 18.4029 15.1201 18.5579C15.2301 18.7549 15.4141 18.8979 15.6351 18.9589C15.7161 18.9819 16.2701 18.9999 16.8901 18.9999H18.0001V20.1099C18.0001 20.7299 18.0181 21.2839 18.0411 21.3649C18.1481 21.7499 18.4371 21.9619 18.8961 21.9909C19.3811 22.0219 19.6991 21.8819 19.8801 21.5579C19.9791 21.3809 19.9801 21.3739 19.9931 20.1899L20.0051 18.9999H21.1131C21.7311 18.9999 22.2841 18.9819 22.3651 18.9589C22.5861 18.8979 22.7701 18.7549 22.8801 18.5579C22.9671 18.4019 22.9801 18.3319 22.9791 17.9999C22.9781 17.5669 22.8981 17.3549 22.6781 17.1989C22.4301 17.0219 22.2561 16.9999 21.0961 16.9999H20.0051L19.9931 15.8099C19.9811 14.6689 19.9761 14.6129 19.8911 14.4529C19.8421 14.3619 19.7461 14.2469 19.6781 14.1989C19.4141 14.0099 18.9571 13.9499 18.6141 14.0569ZM5.54006 14.5459C4.72606 14.6429 4.32406 14.7559 3.73206 15.0549C3.24206 15.3019 2.84106 15.5949 2.44206 15.9989C1.74106 16.7059 1.26106 17.6249 1.09506 18.5749C1.01306 19.0429 0.969056 21.0989 1.03506 21.3439C1.14506 21.7479 1.42806 21.9609 1.89606 21.9909C2.38106 22.0219 2.70006 21.8819 2.87906 21.5579C2.97506 21.3839 2.97806 21.3529 3.00506 20.2399C3.03706 18.9369 3.07606 18.6789 3.31606 18.1849C3.60406 17.5939 4.06706 17.1279 4.67006 16.8249C5.25506 16.5309 5.03706 16.5459 8.86006 16.5219C12.6811 16.4979 12.4561 16.5149 12.7511 16.2289C12.9831 16.0039 13.0651 15.5129 12.9401 15.0919C12.8681 14.8519 12.6451 14.6269 12.4131 14.5629C12.2711 14.5239 5.86106 14.5079 5.54006 14.5459Z" fill="white"/>
</svg>
