<svg width="12" height="12" viewBox="0 0 12 12" fill="none" xmlns="http://www.w3.org/2000/svg">
<g id="Subtract">
<path fill-rule="evenodd" clip-rule="evenodd" d="M2 0C0.895431 0 0 0.895431 0 2V10C0 11.1046 0.895431 12 2 12H10C11.1046 12 12 11.1046 12 10V2C12 0.895431 11.1046 0 10 0H2ZM5.33633 8.60683H4V10H8V8.60683H6.66367V3.39317H8V2H4V3.39317H5.33633V8.60683Z" fill="black"/>
<path fill-rule="evenodd" clip-rule="evenodd" d="M2 0C0.895431 0 0 0.895431 0 2V10C0 11.1046 0.895431 12 2 12H10C11.1046 12 12 11.1046 12 10V2C12 0.895431 11.1046 0 10 0H2ZM5.33633 8.60683H4V10H8V8.60683H6.66367V3.39317H8V2H4V3.39317H5.33633V8.60683Z" fill="white" fill-opacity="0.9"/>
</g>
</svg>
