<svg width="12" height="12" viewBox="0 0 12 12" fill="none" xmlns="http://www.w3.org/2000/svg">
<path id="Subtract" fill-rule="evenodd" clip-rule="evenodd" d="M2 0C0.895431 0 0 0.895431 0 2V10C0 11.1046 0.895431 12 2 12H10C11.1046 12 12 11.1046 12 10V2C12 0.895431 11.1046 0 10 0H2ZM9.0022 5.41016C9.19543 5.09375 9.29204 4.75586 9.29204 4.39648C9.29204 4.10352 9.23166 3.81445 9.11089 3.5293C8.99414 3.24414 8.81903 2.98828 8.58554 2.76172C8.35608 2.53516 8.07228 2.35156 7.73413 2.21094C7.39597 2.07031 7.00952 2 6.57475 2H3V10.1738H4.42507V6.82227H6.57475C6.79213 6.82227 6.97731 6.85352 7.13028 6.91602C7.28326 6.97461 7.40604 7.05273 7.49863 7.15039C7.59122 7.24414 7.65764 7.35156 7.6979 7.47266C7.74218 7.59375 7.76432 7.71484 7.76432 7.83594V9.07812C7.76432 9.14453 7.76633 9.2207 7.77036 9.30664C7.77841 9.39258 7.79048 9.48438 7.80659 9.58203C7.82672 9.67969 7.85489 9.7793 7.89113 9.88086C7.93138 9.98242 7.9817 10.0801 8.04209 10.1738H9.6C9.47118 9.96289 9.36853 9.75781 9.29204 9.55859C9.21958 9.35938 9.18335 9.18555 9.18335 9.03711V7.85352C9.18335 7.68945 9.16322 7.52539 9.12296 7.36133C9.08271 7.19336 9.02031 7.03711 8.93577 6.89258C8.85124 6.74414 8.74254 6.61133 8.6097 6.49414C8.47685 6.37695 8.31784 6.28711 8.13266 6.22461C8.52315 5.99414 8.81299 5.72266 9.0022 5.41016ZM6.57475 5.66211H4.42507V3.16602H6.57475C6.75993 3.16602 6.93102 3.19922 7.08801 3.26562C7.24501 3.32812 7.37987 3.41602 7.49259 3.5293C7.60933 3.63867 7.69991 3.77148 7.76432 3.92773C7.82873 4.08008 7.86093 4.24609 7.86093 4.42578C7.86093 4.60938 7.82672 4.77734 7.75828 4.92969C7.68984 5.08203 7.59524 5.21289 7.47447 5.32227C7.35773 5.42773 7.22086 5.51172 7.06386 5.57422C6.91089 5.63281 6.74785 5.66211 6.57475 5.66211Z" fill="#B4FA72"/>
</svg>
