<svg width="30" height="30" viewBox="0 0 30 30" fill="none" xmlns="http://www.w3.org/2000/svg">
<g clip-path="url(#clip0_5267_6621)">
<path fill-rule="evenodd" clip-rule="evenodd" d="M26.435 9.19237C27.1421 9.89948 27.013 11.4428 26.6616 11.7942L21.4853 16.9706L13.7071 3.53553L15.8789 1.36373C15.8789 1.36373 16.5355 0.707092 17.2426 0.707092C17.9497 0.707092 18.6569 1.4142 18.6569 1.4142L26.435 9.19237ZM21.8388 13.7886C21.8388 13.7886 23.6066 12.0208 24.3137 11.3137C25.0208 10.6066 24.3137 9.89948 24.3137 9.89948C24.3137 9.89948 18.137 3.63002 17.5962 3.18197C17.0554 2.73391 16.3947 3.39465 16.3947 3.39465L15.8032 3.98607L21.8388 13.7886Z" fill="#FF0505"/>
<path fill-rule="evenodd" clip-rule="evenodd" d="M3.80764 20.5061C3.10054 19.799 3.22962 18.2557 3.58109 17.9043L8.75741 12.7279L16.5362 26.1623L14.3638 28.3348C14.3638 28.3348 13.7071 28.9914 13 28.9914C12.2929 28.9914 11.5858 28.2843 11.5858 28.2843L3.80764 20.5061ZM8.40384 15.9099C8.40384 15.9099 6.63607 17.6777 5.92896 18.3848C5.22186 19.0919 5.92896 19.799 5.92896 19.799C5.92896 19.799 12.1057 26.0685 12.6465 26.5165C13.1873 26.9646 13.848 26.3038 13.848 26.3038L14.3542 25.7977L8.40384 15.9099Z" fill="#FF0505"/>
</g>
<defs>
<clipPath id="clip0_5267_6621">
<rect width="30" height="30" fill="white"/>
</clipPath>
</defs>
</svg>
