<svg width="30" height="30" viewBox="0 0 30 30" fill="none" xmlns="http://www.w3.org/2000/svg">
<path fill-rule="evenodd" clip-rule="evenodd" d="M4.00006 11C4.00006 10 5.18261 9 5.67967 9H12.0899H15.295L14.0001 19L15.5007 20.25L14.501 24H5.92869C5.92869 24 5.00006 24 4.50006 23.5C4.00006 23 4.00006 22 4.00006 22V11ZM15.8779 11C15.8779 11 8.00006 11 7.00006 11C6.00006 11 6.00006 12 6.00006 12C6.00006 12 5.93449 20.8008 6.00006 21.5C6.06563 22.1992 7.00006 22.1992 7.00006 22.1992H13.0937L15.8779 11Z" fill="#FF0505"/>
<path fill-rule="evenodd" clip-rule="evenodd" d="M26 19C26 20 24.8174 21 24.3204 21H11.5L15.4991 6H24.0714C24.0714 6 25 6 25.5 6.5C26 7 26 8 26 8V19ZM14.1221 19C14.1221 19 22 19 23 19C24 19 24 18 24 18C24 18 24.0656 9.19922 24 8.5C23.9344 7.80078 23 7.80078 23 7.80078H16.9063L14.1221 19Z" fill="#FF0505"/>
</svg>
