<svg width="30" height="30" viewBox="0 0 30 30" fill="none" xmlns="http://www.w3.org/2000/svg">
<path fill-rule="evenodd" clip-rule="evenodd" d="M2.99998 11C2.99998 9.99999 4.18254 8.99999 4.67959 8.99999H12L8 24L4.92862 24C4.92862 24 3.99998 24 3.49998 23.5C2.99998 23 2.99998 22 2.99998 22V11ZM9.5 11C9.5 11 6.99998 11 5.99998 11C4.99998 11 4.99998 12 4.99998 12C4.99998 12 4.93442 20.8008 4.99998 21.5C5.06555 22.1992 5.99998 22.1992 5.99998 22.1992H6.83637L9.5 11Z" fill="#FF0505"/>
<path fill-rule="evenodd" clip-rule="evenodd" d="M27 19C27 20 25.8175 21 25.3204 21H18L21.9991 6H25.0714C25.0714 6 26 6 26.5 6.5C27 7 27 8 27 8V19ZM20.5 19C20.5 19 23 19 24 19C25 19 25 18 25 18C25 18 25.0656 9.19922 25 8.5C24.9345 7.80078 24 7.80078 24 7.80078H23.2842L20.5 19Z" fill="#FF0505"/>
</svg>
