<svg width="24" height="24" viewBox="0 0 24 24" fill="none" xmlns="http://www.w3.org/2000/svg">
<path d="M12.2598 3.22532C12.2526 3.23503 12.2495 3.24807 12.2432 3.27414L8.70963 17.8795C8.6999 17.9197 8.69504 17.9398 8.70002 17.9556C8.70438 17.9695 8.71366 17.9813 8.72611 17.9888C8.74031 17.9974 8.761 17.9974 8.80236 17.9974H20.5658C21.9102 17.9974 23 16.8712 23 15.482V5.71653C23 4.32734 21.9102 3.20117 20.5658 3.20117H12.3359C12.3091 3.20117 12.2957 3.20117 12.2845 3.20588C12.2747 3.21003 12.2662 3.21674 12.2598 3.22532Z" fill="white"/>
<path d="M10.0849 6.04591C10.0899 6.06171 10.085 6.08178 10.0754 6.12193L6.91285 19.3063C6.90322 19.3464 6.8984 19.3665 6.9034 19.3823C6.90778 19.3961 6.91706 19.4079 6.9295 19.4154C6.94369 19.4239 6.96433 19.4239 7.00563 19.4239H11.8568C11.8981 19.4239 11.9187 19.4239 11.9329 19.4325C11.9454 19.4399 11.9547 19.4517 11.959 19.4656C11.964 19.4813 11.9592 19.5014 11.9496 19.5416L11.6652 20.7273C11.6589 20.7534 11.6558 20.7665 11.6486 20.7762C11.6422 20.7848 11.6337 20.7916 11.6239 20.7957C11.6127 20.8005 11.5993 20.8005 11.5724 20.8005H3.41346C2.08054 20.8005 1 19.6743 1 18.2851V8.51962C1 7.13044 2.08054 6.00427 3.41346 6.00427H9.98264C10.0239 6.00427 10.0446 6.00427 10.0588 6.01281C10.0712 6.0203 10.0805 6.03207 10.0849 6.04591Z" fill="white"/>
</svg>
