<svg width="764" height="179" viewBox="0 0 764 179" fill="none" xmlns="http://www.w3.org/2000/svg">
<path d="M170.286 27.5005H227.682C236.973 27.5005 244.505 35.2835 244.505 44.8844V112.374C244.505 121.975 236.973 129.758 227.682 129.758H145.546L170.286 27.5005Z" fill="#121212"/>
<path d="M155.378 46.8732H109.141C99.9291 46.8732 92.4613 54.6562 92.4613 64.257V131.747C92.4613 141.348 99.9291 149.131 109.141 149.131H166.048L168.33 139.618H133.131L155.378 46.8732Z" fill="#121212"/>
<path d="M313.427 129.717L288.122 46.9034H302.418L320.328 110.164L339.717 46.9034H353.19L372.58 110.164L390.325 46.9034H404.949L379.481 129.717H365.843L346.454 66.7853L327.065 129.717H313.427ZM467.986 75.8225C467.986 64.4849 459.935 57.2551 447.776 57.2551C436.438 57.2551 428.387 63.992 427.237 75.1653L414.256 72.7006C416.721 56.2692 430.359 45.5889 447.776 45.5889C467.822 45.5889 481.789 57.4194 481.789 76.6441V129.717H467.986V115.586C463.221 125.117 452.377 131.032 440.382 131.032C423.786 131.032 412.449 120.844 412.449 106.549C412.449 90.6107 425.429 81.9021 451.884 79.2731L467.986 77.4657V75.8225ZM426.415 106.385C426.415 114.108 432.988 119.53 442.518 119.53C458.621 119.53 467.986 108.849 467.986 92.2539V88.3103L451.884 90.1178C435.124 91.9252 426.415 97.6762 426.415 106.385ZM575.81 75.001L561.843 77.63C561.186 65.3065 553.463 58.241 540.975 58.241C525.694 58.241 515.835 72.0433 515.835 94.2256V129.717H501.869V46.9034H515.835V63.1704C521.915 51.3398 532.102 45.5889 544.262 45.5889C562.665 45.5889 575.152 57.0908 575.81 75.001ZM590.697 159.622V46.9034H604.664V58.8982C609.1 51.3398 619.945 45.5889 631.94 45.5889C657.408 45.5889 671.539 63.992 671.539 88.3103C671.539 112.629 657.08 131.032 631.611 131.032C621.095 131.032 610.251 125.774 604.664 118.215V159.622H590.697ZM630.297 118.544C646.728 118.544 657.408 106.549 657.408 88.3103C657.408 70.0716 646.728 58.0767 630.297 58.0767C614.194 58.0767 603.514 70.0716 603.514 88.3103C603.514 106.549 614.194 118.544 630.297 118.544Z" fill="#121212"/>
</svg>
