<svg width="30" height="30" viewBox="0 0 30 30" fill="none" xmlns="http://www.w3.org/2000/svg">
<path fill-rule="evenodd" clip-rule="evenodd" d="M27.1214 18.8492C27.1214 19.8492 25.9388 20.8492 25.4417 20.8492L18.1213 20.8492L22.1213 5.84924L25.1927 5.84925C25.1927 5.84925 26.1214 5.84925 26.6214 6.34925C27.1214 6.84925 27.1214 7.84925 27.1214 7.84925L27.1214 18.8492ZM20.6213 18.8492C20.6213 18.8492 23.1214 18.8492 24.1214 18.8492C25.1214 18.8492 25.1214 17.8492 25.1214 17.8492C25.1214 17.8492 25.1869 9.04847 25.1214 8.34925C25.0558 7.65003 24.1214 7.65003 24.1214 7.65003L23.285 7.65003L20.6213 18.8492Z" fill="#FF0505"/>
<path fill-rule="evenodd" clip-rule="evenodd" d="M3.12131 10.8492C3.12131 9.84924 4.30386 8.84924 4.80092 8.84924L12.1213 8.84924L8.12224 23.8492L5.04994 23.8492C5.04994 23.8492 4.12131 23.8492 3.62131 23.3492C3.12131 22.8492 3.12131 21.8492 3.12131 21.8492L3.12131 10.8492ZM9.62131 10.8492C9.62131 10.8492 7.12131 10.8492 6.12131 10.8492C5.12131 10.8492 5.12131 11.8492 5.12131 11.8492C5.12131 11.8492 5.05574 20.65 5.12131 21.3492C5.18688 22.0485 6.12131 22.0485 6.12131 22.0485L6.83713 22.0485L9.62131 10.8492Z" fill="#FF0505"/>
</svg>
