<svg width="16" height="12" viewBox="0 0 16 12" fill="none" xmlns="http://www.w3.org/2000/svg">
<path fill-rule="evenodd" clip-rule="evenodd" d="M8.37585 10.0793L7.97856 11.6685H2.32409C1.40877 11.6685 0.666748 10.9265 0.666748 10.0111V3.57662C0.666748 2.66128 1.40877 1.91925 2.32409 1.91925H7.6243L8.02159 0.330078H13.6761C14.5914 0.330078 15.3334 1.07211 15.3334 1.98745V8.42193C15.3334 9.33728 14.5914 10.0793 13.6761 10.0793H8.37585ZM6.92606 9.0317L8.83954 1.37768H13.6761C14.0128 1.37768 14.2858 1.65067 14.2858 1.98745V8.42193C14.2858 8.75873 14.0128 9.0317 13.6761 9.0317H6.92606ZM7.296 10.0793H5.58432L7.3624 2.96686H2.32409C1.98736 2.96686 1.71435 3.23984 1.71435 3.57662V10.0111C1.71435 10.3479 1.98736 10.6209 2.32409 10.6209H7.16061L7.296 10.0793Z" fill="#FAF9F6"/>
</svg>
