<svg width="30" height="30" viewBox="0 0 30 30" fill="none" xmlns="http://www.w3.org/2000/svg">
<path fill-rule="evenodd" clip-rule="evenodd" d="M14.2246 2.23197C15.1485 1.84929 16.5249 2.55914 16.7151 3.01836L19.5165 9.78154L4.12759 11.8263L2.95223 8.98868C2.95223 8.98868 2.59686 8.13074 2.86746 7.47746C3.13805 6.82417 4.06193 6.44149 4.06193 6.44149L14.2246 2.23197ZM16.7121 8.2372C16.7121 8.2372 15.7553 5.92749 15.3727 5.00361C14.99 4.07973 14.0661 4.46242 14.0661 4.46242C14.0661 4.46242 5.91014 7.76975 5.28924 8.09791C4.66834 8.42607 5.02593 9.28937 5.02593 9.28937L5.346 10.0621L16.7121 8.2372Z" fill="#FF0505"/>
<path fill-rule="evenodd" clip-rule="evenodd" d="M16.018 27.4666C15.0941 27.8493 13.7177 27.1394 13.5274 26.6802L10.726 19.917L26.1146 17.8714L27.2903 20.7099C27.2903 20.7099 27.6457 21.5678 27.3751 22.2211C27.1045 22.8744 26.1806 23.2571 26.1806 23.2571L16.018 27.4666ZM13.5305 21.4614C13.5305 21.4614 14.4872 23.7711 14.8699 24.6949C15.2526 25.6188 16.1765 25.2361 16.1765 25.2361C16.1765 25.2361 24.3324 21.9288 24.9533 21.6006C25.5742 21.2725 25.2166 20.4092 25.2166 20.4092L24.9427 19.7479L13.5305 21.4614Z" fill="#FF0505"/>
</svg>
