<svg width="30" height="30" viewBox="0 0 30 30" fill="none" xmlns="http://www.w3.org/2000/svg">
<path fill-rule="evenodd" clip-rule="evenodd" d="M23.4091 5.29344C24.3329 5.67612 24.8043 7.15134 24.6141 7.61056L21.8127 14.3737L9.4852 4.93797L10.6606 2.10038C10.6606 2.10038 11.0159 1.24244 11.6692 0.971838C12.3225 0.70124 13.2464 1.08392 13.2464 1.08392L23.4091 5.29344ZM20.9216 11.2987C20.9216 11.2987 21.8783 8.98896 22.261 8.06508C22.6437 7.1412 21.7198 6.75852 21.7198 6.75852C21.7198 6.75852 13.614 3.33003 12.943 3.12302C12.2719 2.91602 11.9143 3.77932 11.9143 3.77932L11.5942 4.55205L20.9216 11.2987Z" fill="#FF0505"/>
<path fill-rule="evenodd" clip-rule="evenodd" d="M6.83361 24.4051C5.90973 24.0224 5.4384 22.5472 5.62861 22.088L8.43002 15.3248L20.7578 24.7598L19.5821 27.5982C19.5821 27.5982 19.2267 28.4561 18.5734 28.7267C17.9202 28.9973 16.9963 28.6146 16.9963 28.6146L6.83361 24.4051ZM9.32105 18.3999C9.32105 18.3999 8.36435 20.7096 7.98166 21.6335C7.59898 22.5574 8.52286 22.94 8.52286 22.94C8.52286 22.94 16.6286 26.3685 17.2997 26.5755C17.9708 26.7825 18.3284 25.9192 18.3284 25.9192L18.6023 25.2579L9.32105 18.3999Z" fill="#FF0505"/>
</svg>
