<svg width="30" height="30" viewBox="0 0 30 30" fill="none" xmlns="http://www.w3.org/2000/svg">
<path fill-rule="evenodd" clip-rule="evenodd" d="M19.1213 2.84923C20.1213 2.84923 21.1213 4.03178 21.1213 4.52884L21.1213 11.8492L6.12134 7.84924L6.12134 4.77786C6.12134 4.77786 6.12134 3.84923 6.62134 3.34923C7.12134 2.84923 8.12134 2.84923 8.12134 2.84923L19.1213 2.84923ZM19.1213 9.34924C19.1213 9.34924 19.1213 6.84923 19.1213 5.84923C19.1213 4.84923 18.1213 4.84923 18.1213 4.84923C18.1213 4.84923 9.32056 4.78366 8.62134 4.84923C7.92213 4.9148 7.92213 5.84923 7.92213 5.84923L7.92213 6.68562L19.1213 9.34924Z" fill="#FF0505"/>
<path fill-rule="evenodd" clip-rule="evenodd" d="M11.1213 26.8493C10.1213 26.8493 9.12134 25.6667 9.12134 25.1697L9.12134 17.8492L24.1213 21.8483L24.1213 24.9206C24.1213 24.9206 24.1213 25.8493 23.6213 26.3493C23.1213 26.8493 22.1213 26.8493 22.1213 26.8493L11.1213 26.8493ZM11.1213 20.3493C11.1213 20.3493 11.1213 22.8493 11.1213 23.8493C11.1213 24.8493 12.1213 24.8493 12.1213 24.8493C12.1213 24.8493 20.9221 24.9148 21.6213 24.8493C22.3206 24.7837 22.3206 23.8493 22.3206 23.8493L22.3206 23.1335L11.1213 20.3493Z" fill="#FF0505"/>
</svg>
