<svg width="30" height="30" viewBox="0 0 30 30" fill="none" xmlns="http://www.w3.org/2000/svg">
<path fill-rule="evenodd" clip-rule="evenodd" d="M5.5656 6.56146C5.94828 5.63758 7.4235 5.16624 7.88272 5.35646L14.6459 8.15785L5.21012 20.4853L2.37254 19.3099C2.37254 19.3099 1.51459 18.9546 1.24399 18.3013C0.973395 17.648 1.35608 16.7241 1.35608 16.7241L5.5656 6.56146ZM11.5708 9.0489C11.5708 9.0489 9.26111 8.09219 8.33723 7.70951C7.41336 7.32682 7.03067 8.2507 7.03067 8.2507C7.03067 8.2507 3.60218 16.3565 3.39518 17.0276C3.18818 17.6986 4.05148 18.0562 4.05148 18.0562L4.8242 18.3763L11.5708 9.0489Z" fill="#FF0505"/>
<path fill-rule="evenodd" clip-rule="evenodd" d="M24.6772 23.1369C24.2945 24.0608 22.8193 24.5321 22.3601 24.3419L15.5969 21.5405L25.0318 9.2127L27.8703 10.3884C27.8703 10.3884 28.7282 10.7438 28.9988 11.3971C29.2694 12.0504 28.8867 12.9742 28.8867 12.9742L24.6772 23.1369ZM18.672 20.6495C18.672 20.6495 20.9817 21.6062 21.9056 21.9889C22.8295 22.3715 23.2121 21.4477 23.2121 21.4477C23.2121 21.4477 26.6406 13.3419 26.8476 12.6708C27.0546 11.9997 26.1913 11.6421 26.1913 11.6421L25.53 11.3682L18.672 20.6495Z" fill="#FF0505"/>
</svg>
