<svg width="30" height="30" viewBox="0 0 30 30" fill="none" xmlns="http://www.w3.org/2000/svg">
<path fill-rule="evenodd" clip-rule="evenodd" d="M27.7387 13.9526C28.1214 14.8765 27.4115 16.2529 26.9523 16.4431L20.1891 19.2445L18.1444 3.85556L20.982 2.6802C20.982 2.6802 21.8399 2.32482 22.4932 2.59542C23.1465 2.86602 23.5292 3.7899 23.5292 3.7899L27.7387 13.9526ZM21.7334 16.44C21.7334 16.44 24.0432 15.4833 24.967 15.1006C25.8909 14.7179 25.5082 13.7941 25.5082 13.7941C25.5082 13.7941 22.2009 5.63811 21.8727 5.01721C21.5446 4.3963 20.6813 4.7539 20.6813 4.7539L19.9086 5.07397L21.7334 16.44Z" fill="#FF0505"/>
<path fill-rule="evenodd" clip-rule="evenodd" d="M2.50412 15.7459C2.12144 14.822 2.83129 13.4456 3.29051 13.2554L10.0537 10.454L12.0993 25.8426L9.26083 27.0183C9.26083 27.0183 8.40288 27.3737 7.7496 27.1031C7.09632 26.8325 6.71364 25.9086 6.71364 25.9086L2.50412 15.7459ZM8.50934 13.2585C8.50934 13.2585 6.19964 14.2152 5.27576 14.5979C4.35188 14.9806 4.73456 15.9044 4.73456 15.9044C4.73456 15.9044 8.0419 24.0604 8.37005 24.6813C8.69821 25.3022 9.56151 24.9446 9.56151 24.9446L10.2228 24.6707L8.50934 13.2585Z" fill="#FF0505"/>
</svg>
