<svg width="30" height="30" viewBox="0 0 30 30" fill="none" xmlns="http://www.w3.org/2000/svg">
<path fill-rule="evenodd" clip-rule="evenodd" d="M6.99998 11C6.99998 9.99999 8.18254 8.99999 8.67959 8.99999H16L12 24L8.92862 24C8.92862 24 7.99998 24 7.49998 23.5C6.99998 23 6.99998 22 6.99998 22V11ZM13.5 11C13.5 11 11 11 9.99998 11C8.99998 11 8.99998 12 8.99998 12C8.99998 12 8.93442 20.8008 8.99998 21.5C9.06555 22.1992 9.99998 22.1992 9.99998 22.1992H10.8364L13.5 11Z" fill="#FF0505"/>
<path fill-rule="evenodd" clip-rule="evenodd" d="M23 19C23 20 21.8175 21 21.3204 21H14L17.9991 6H21.0714C21.0714 6 22 6 22.5 6.5C23 7 23 8 23 8V19ZM16.5 19C16.5 19 19 19 20 19C21 19 21 18 21 18C21 18 21.0656 9.19922 21 8.5C20.9345 7.80078 20 7.80078 20 7.80078H19.2842L16.5 19Z" fill="#FF0505"/>
</svg>
