<svg width="30" height="30" viewBox="0 0 30 30" fill="none" xmlns="http://www.w3.org/2000/svg">
<path fill-rule="evenodd" clip-rule="evenodd" d="M9.46453 3.53556C10.1716 2.82845 11.7149 2.95753 12.0664 3.309L17.2427 8.48531L3.80768 16.2635L1.63589 14.0917C1.63589 14.0917 0.979248 13.435 0.979248 12.7279C0.979248 12.0208 1.68635 11.3137 1.68635 11.3137L9.46453 3.53556ZM14.0607 8.13176C14.0607 8.13176 12.293 6.36398 11.5858 5.65688C10.8787 4.94977 10.1716 5.65688 10.1716 5.65688C10.1716 5.65688 3.90218 11.8336 3.45412 12.3744C3.00606 12.9152 3.66681 13.5759 3.66681 13.5759L4.25822 14.1673L14.0607 8.13176Z" fill="#FF0505"/>
<path fill-rule="evenodd" clip-rule="evenodd" d="M20.7782 26.163C20.0711 26.8701 18.5278 26.741 18.1763 26.3895L13 21.2132L26.4344 13.4344L28.6068 15.6069C28.6068 15.6069 29.2634 16.2635 29.2634 16.9706C29.2634 17.6777 28.5563 18.3848 28.5563 18.3848L20.7782 26.163ZM16.182 21.5668C16.182 21.5668 17.9497 23.3346 18.6568 24.0417C19.3639 24.7488 20.0711 24.0417 20.0711 24.0417C20.0711 24.0417 26.3405 17.8649 26.7886 17.3242C27.2366 16.7834 26.5759 16.1226 26.5759 16.1226L26.0697 15.6165L16.182 21.5668Z" fill="#FF0505"/>
</svg>
