<?xml version="1.0" encoding="UTF-8" standalone="no"?>
<!-- Created with Keyshape -->
<svg xmlns="http://www.w3.org/2000/svg" width="30" height="30" viewBox="0 0 30 30" fill="none">
    <path d="M0,894.581C6.268,892.523,25.391,892.443,38.109,891.733C58.686,890.584,94.994,888.672,123.459,887.687C170.611,886.055,256.482,883.582,321.019,881.943C384.235,880.337,447.448,878.091,510.684,877.853C574.105,877.615,637.93,879.279,701.545,880.512C789.64,882.219,976.441,886.499,1039.25,888.097C1052.32,888.429,1070.63,889.634,1078.42,890.101C1080.96,890.253,1086.1,891.871,1086,890.898C1085.9,889.925,1081.12,885.471,1077.83,884.263C1062.93,878.804,1022.15,866.175,996.639,858.142C972.737,850.614,948.828,843.097,924.776,836.065C881.363,823.374,798.651,799.322,736.163,781.995C674.206,764.816,607.607,746.757,549.845,732.104C496.63,718.605,443.18,706.015,389.592,694.08C331.148,681.064,245.007,663.672,199.177,654.006C170.985,648.06,132.435,639.736,114.618,636.083C107.206,634.564,98.023,633.102,92.274,632.089C88.226,631.376,83.126,630.798,80.121,630.004C78.04,629.454,74.197,628.283,74.245,627.326C74.293,626.369,78.128,624.508,80.409,624.263C83.971,623.882,90.56,624.579,95.614,625.039C117.451,627.025,181.679,632.99,211.429,636.178C232.373,638.422,253.251,641.257,274.114,644.164C300.427,647.83,337.645,653.077,369.312,658.176C403.145,663.624,441.26,670.171,477.111,676.853C516.407,684.177,562.645,692.68,605.091,702.123C649.098,711.912,697.035,723.793,741.148,735.589C784.274,747.12,835.743,762.466,869.769,772.896C895.153,780.676,924.789,790.96,945.305,798.164C961.293,803.777,977.136,809.81,992.863,816.118C1011.73,823.684,1040.26,835.678,1058.5,843.56C1073.2,849.917,1093.62,859.335,1102.27,863.411C1105.08,864.735,1108.54,867.274,1110.37,868.013C1111.26,868.372,1112.97,868.345,1113.24,867.843C1113.51,867.341,1112.55,865.866,1111.98,865.003C1110.21,862.344,1106.41,855.725,1102.66,851.893C1089.83,838.778,1059.87,805.504,1035,786.311C994.11,754.747,916.843,699.046,857.319,662.507C799.576,627.062,728.972,592.536,677.853,567.075C636.211,546.335,593.475,527.82,550.609,509.744C498.113,487.608,424.038,457.213,362.879,434.258C303.671,412.035,231.545,388.381,183.657,372.015C147.722,359.734,99.147,343.879,75.551,336.063C64.409,332.373,48.333,327.293,42.083,325.121C40.652,324.624,37.927,323.845,38.049,323.032C38.171,322.219,40.974,320.256,42.815,320.242C47.089,320.211,56.817,321.473,63.697,322.844C83.705,326.83,130.142,335.655,162.867,344.16C216.127,358.001,316.35,385.548,383.256,405.889C444.116,424.391,514.106,448.162,564.303,466.205C604.878,480.79,645.012,496.697,684.438,514.15C733.022,535.657,803.401,567.273,855.812,595.25C905.02,621.516,960.339,656.812,998.903,682.007C1029.4,701.934,1059.96,724.859,1087.19,746.424C1113.15,766.975,1141.78,792.553,1162.31,811.394C1179.01,826.718,1200.1,848.238,1210.4,859.471C1215.74,865.289,1223.39,870.928,1224.1,878.79C1225.18,890.854,1226.16,916.584,1216.92,931.855C1204.75,951.972,1174.07,978.029,1151.06,999.491C1126.93,1022,1099.31,1045.51,1072.12,1066.9C1042.71,1090.03,1008.3,1116.14,974.657,1138.25C938.37,1162.1,895.448,1187.79,854.396,1210.01C813.012,1232.41,769.745,1253.29,726.354,1272.66C679.232,1293.68,623.817,1316.5,571.668,1336.18C514.742,1357.67,441.68,1383.59,384.797,1401.58C333.889,1417.67,273.441,1432.98,230.368,1444.09C195.903,1452.99,151.316,1462.95,126.359,1468.28C111.234,1471.51,90.442,1474.47,80.622,1476.1C76.242,1476.82,70.195,1477.86,67.441,1478.01C66.277,1478.07,64.178,1477.62,64.097,1476.99C64.015,1476.36,65.728,1474.73,66.951,1474.23C72.075,1472.12,85.492,1467.46,94.841,1464.31C117.804,1456.57,168.189,1440.16,204.728,1427.78C241.248,1415.4,277.932,1403.45,314.073,1390.01C365.048,1371.04,446.027,1341.66,510.578,1313.98C579.785,1284.32,673.448,1239.66,729.32,1211.99C769.022,1192.33,814.761,1165.99,845.806,1148C869.592,1134.21,893.085,1119.82,915.587,1104.02C946.581,1082.26,1001.74,1041.91,1031.77,1017.44C1054.47,998.929,1082.46,970.463,1095.71,957.165C1101.59,951.269,1108.71,941.461,1111.29,937.65C1111.92,936.724,1111.67,934.801,1111.21,934.295C1110.75,933.79,1109.36,934.253,1108.53,934.616C1088.97,943.238,1032.81,970.669,993.819,986.024C951.406,1002.73,892.972,1022.18,854.053,1034.84C823.115,1044.91,791.781,1053.78,760.305,1062.02C720.607,1072.4,658.359,1087.49,615.867,1097.17C579.185,1105.53,542.3,1113,505.353,1120.1C456.259,1129.53,371.52,1145.43,321.303,1153.75C282.376,1160.2,238.874,1165.96,204.053,1170.01C173.582,1173.56,132.851,1176.42,112.377,1178.09C102,1178.94,87.6,1179.97,81.204,1180.07C78.76,1180.11,74.868,1179.35,74,1178.7C73.139,1178.06,75.006,1176.59,75.996,1176.16C78.55,1175.07,84.79,1173.14,89.325,1172.16C116.85,1166.21,196.474,1150.07,241.149,1140.46C279.957,1132.11,318.737,1123.61,357.373,1114.5C416.595,1100.53,524.148,1074.77,596.484,1056.64C661.618,1040.31,727.949,1023.15,791.387,1005.7C853.53,988.599,929.618,966.412,977.113,951.917C1010.48,941.735,1058.09,924.941,1076.36,918.725C1079.88,917.526,1087.08,915.712,1086.75,914.621C1086.42,913.53,1078.57,912.517,1074.38,912.177C1069.33,911.767,1062.39,912.033,1056.4,912.157C1007.32,913.178,870.593,916.656,779.892,918.3C690.667,919.918,586.895,921.812,512.197,922.023C452.027,922.193,387.671,920.63,331.703,919.566C279.923,918.582,216.661,916.956,176.385,915.643C147.59,914.704,114.493,913.007,90.046,911.686C69.918,910.598,43.464,908.663,29.704,907.715C22.293,907.204,12.352,906.603,7.484,905.997C5.089,905.699,1.747,905.984,0.5,904.081C-0.747,902.179,-3.013,895.571,0,894.581Z" fill-rule="nonzero" clip-rule="evenodd" stroke-linejoin="round" stroke-miterlimit="2" fill="#ff0505" opacity="0.666667" transform="translate(3.93182,14.769) scale(0.012,0.012) translate(-611.639,-899.128)"/>
    <path d="M848.085,395.248C814.333,371.125,751.74,327.114,715.868,302.873C688.657,284.484,660.844,266.986,632.857,249.802C598.309,228.59,549.381,199.031,508.582,175.602C468.811,152.763,421.202,127.007,388.066,109.225C362.199,95.345,325.337,76.784,309.766,68.913C304.819,66.412,297.761,63.756,294.64,62.002C293.157,61.168,290.737,59.191,291.037,58.386C291.338,57.581,294.675,56.637,296.443,57.171C307.987,60.654,339.171,71.481,360.301,79.286C381.842,87.244,404.069,95.932,425.686,104.913C449.575,114.838,477.983,126.791,503.631,138.835C534.604,153.38,576.236,173.094,611.524,192.184C650.056,213.03,694.395,238.883,734.825,263.908C780.058,291.905,848.016,336.606,882.924,360.17C903.964,374.372,923.917,390.122,944.272,405.289C971.782,425.788,1014.18,456.217,1047.99,483.159C1088.96,515.81,1152.61,569.021,1190.11,601.196C1218.39,625.461,1245.92,650.72,1273,676.21C1300.05,701.661,1331.61,732.233,1352.63,754.136C1368.99,771.182,1386.41,791.579,1399.13,807.63C1409.94,821.262,1421.52,835.195,1428.96,850.445C1436.4,865.691,1443.46,883.471,1443.78,899.132C1444.11,914.793,1437.67,930.252,1430.9,944.412C1423.55,959.803,1410.07,977.457,1399.67,991.482C1390.06,1004.45,1379.53,1016.75,1368.53,1028.56C1346.35,1052.37,1297.58,1103.72,1266.64,1134.32C1239.54,1161.11,1211.38,1186.82,1182.89,1212.13C1150,1241.36,1104.81,1280.36,1069.3,1309.69C1036.73,1336.57,1003.33,1362.43,969.788,1388.08C935.871,1414.02,901.448,1440.97,865.793,1465.33C812.141,1501.98,696.613,1577.2,647.876,1608.01C623.755,1623.25,598.591,1636.82,573.372,1650.17C536.878,1669.5,462.652,1707.62,428.915,1723.95C410.068,1733.08,387.543,1741.15,370.949,1748.17C357.049,1754.04,341.307,1761.1,329.351,1766.04C319.387,1770.15,305.051,1775.77,299.216,1777.78C297.677,1778.3,295.454,1778.08,294.34,1778.06C293.721,1778.04,292.654,1778.04,292.534,1777.62C292.413,1777.19,292.999,1776.01,293.617,1775.53C296.509,1773.29,304.317,1767.71,309.888,1764.12C319.231,1758.12,336.293,1747.5,349.677,1739.48C364.231,1730.76,381.467,1721.22,397.207,1711.82C419.389,1698.59,454.332,1677.45,482.769,1660.06C517.077,1639.08,563.681,1611.78,603.053,1585.93C657.431,1550.24,753.168,1486.07,809.032,1445.9C853.413,1413.98,901.409,1374.7,938.235,1344.9C969.408,1319.67,999.923,1293.62,1029.99,1267.09C1063.91,1237.14,1105.32,1200.04,1141.78,1165.23C1178.3,1130.36,1217.94,1092.09,1249.12,1057.86C1277.48,1026.73,1312.66,982.308,1328.84,959.845C1336.76,948.848,1342.96,935.318,1346.22,923.083C1349.37,911.259,1351.45,898.291,1348.41,886.437C1344.4,870.791,1334.03,846.512,1322.15,829.206C1306.47,806.349,1277.76,775.068,1254.3,749.295C1230.86,723.559,1206.59,698.549,1181.36,674.572C1147.41,642.312,1094.44,593.564,1050.61,555.737C1007.51,518.536,952.134,474.359,918.38,447.611C895.48,429.465,871.856,412.237,848.085,395.248Z" fill-rule="nonzero" clip-rule="evenodd" stroke-linejoin="round" stroke-miterlimit="2" fill="#ff0505" opacity="1" transform="translate(11.6859,14.9903) scale(0.012,0.012) translate(-867.402,-917.569)"/>
    <path d="M1128,404.081C1090.68,366.121,1054.04,327.461,1015.54,290.709C974.635,251.673,918.057,200.082,882.596,169.863C857.188,148.212,826.895,126.365,802.768,109.397C781.778,94.636,755.852,78.896,737.83,68.056C723.759,59.592,709.494,51.362,694.64,44.361C677.627,36.343,651.515,26.143,635.751,19.947C623.992,15.325,607.79,9.843,600.059,7.186C596.544,5.978,591.361,4.894,589.37,4.005C588.612,3.666,588.037,2.493,588.117,1.851C588.197,1.209,589.051,0.284,589.849,0.152C591.634,-0.142,595.833,0.063,598.825,0.083C652.011,0.446,847.151,-0.125,908.962,2.329C929.61,3.149,953.247,9.461,969.688,14.806C983.217,19.205,995.369,27.14,1007.6,34.401C1020.31,41.942,1034.1,50.25,1045.94,60.057C1064.92,75.769,1097.1,104.945,1121.46,128.672C1153.15,159.522,1203.89,212.356,1236.05,245.161C1262.25,271.877,1288.28,298.743,1314.43,325.502C1342.81,354.545,1376.52,388.946,1406.34,419.423C1435.34,449.067,1464.24,478.806,1493.33,508.367C1534.19,549.905,1606.61,622.977,1651.55,668.652C1688.77,706.487,1737.47,752.169,1762.95,782.417C1780.01,802.664,1796,827.524,1804.44,850.141C1812.43,871.56,1813.95,899.589,1813.59,918.114C1813.3,932.989,1808.87,947.955,1802.28,961.292C1793.26,979.53,1775.89,1007,1759.49,1027.54C1741.28,1050.33,1714.74,1074.68,1693.06,1098.03C1671.66,1121.08,1648.61,1146.77,1629.41,1167.65C1612.28,1186.26,1594.89,1204.62,1577.82,1223.29C1556.49,1246.62,1526.98,1279.59,1501.43,1307.62C1474.09,1337.62,1440.52,1373.89,1413.77,1403.3C1389.38,1430.13,1365.29,1457.24,1340.93,1484.11C1315.15,1512.57,1286.38,1544.08,1259.06,1574.02C1227.73,1608.35,1187.6,1655,1152.99,1690.06C1120.51,1722.95,1077.63,1763.04,1051.34,1784.37C1034.4,1798.12,1011.94,1810.11,995.225,1818.09C981.275,1824.76,966.241,1829.32,951.065,1832.27C935.642,1835.27,918.862,1835.93,902.686,1836.1C845.461,1836.72,658.498,1836.29,607.717,1835.97C604.425,1835.95,598.043,1835.26,598,1834.21C597.957,1833.17,604.181,1830.9,607.46,1829.69C618.495,1825.62,645.773,1817.66,664.211,1809.8C683.328,1801.64,706.752,1789,722.166,1780.75C733.959,1774.44,745.335,1767.37,756.694,1760.31C769.014,1752.64,783.347,1743.86,796.086,1734.78C811.134,1724.05,831.259,1708.64,846.981,1695.92C861.848,1683.88,876.515,1671.56,890.418,1658.42C914.734,1635.45,959.997,1591.59,992.873,1558.09C1025.16,1525.19,1061.98,1484.75,1087.68,1457.41C1107.51,1436.31,1127.26,1415.13,1147.08,1394.03C1167.58,1372.19,1189.48,1348.92,1210.71,1326.39C1232.74,1303.02,1257.13,1277.29,1279.28,1253.8C1300.75,1231.04,1322.13,1208.2,1343.62,1185.46C1366.59,1161.14,1392.75,1133.87,1417.14,1107.92C1443.63,1079.72,1481.99,1042.58,1502.59,1016.28C1518.28,996.254,1533.11,967.513,1540.76,950.167C1545.96,938.353,1548.75,925.117,1548.47,912.209C1548.09,895.138,1547.41,867.574,1538.49,847.743C1527.78,823.918,1504.97,793.349,1484.19,769.259C1456.76,737.459,1400.66,684.355,1373.91,656.943C1357.05,639.667,1340.49,622.104,1323.67,604.784C1301.77,582.224,1269.54,549.327,1242.5,521.584C1209.88,488.133,1165.83,442.56,1128,404.081Z" fill-rule="nonzero" clip-rule="evenodd" stroke-linejoin="round" stroke-miterlimit="2" fill="#ff0505" opacity="1" transform="translate(15.6876,14.998) scale(0.012,0.012) translate(-1200.87,-918.205)"/>
    <path d="M1339.62,220.667C1301.99,182.338,1249.99,129.967,1225.53,106.874C1215.59,97.491,1204.49,89.263,1192.85,82.109C1172.13,69.383,1121.64,41.191,1101.23,30.518C1091.41,25.382,1077.09,20.835,1070.41,18.07C1067.29,16.779,1063.18,15.541,1061.16,13.932C1059.54,12.64,1058.06,10.03,1058.28,8.415C1058.5,6.799,1060.58,4.74,1062.5,4.241C1066.31,3.245,1074.92,2.476,1081.18,2.441C1140.09,2.119,1347.63,-0.033,1415.93,2.304C1441.37,3.174,1467.6,8.088,1490.96,16.463C1514.33,24.838,1536.18,37.761,1556.12,52.552C1579.43,69.848,1607.89,97.161,1630.86,120.238C1653.15,142.635,1672.39,167.898,1693.93,191.014C1784.81,288.504,2082.1,603.799,2176.1,705.18C2204.35,735.659,2239.86,772.592,2257.89,799.294C2271.16,818.955,2279.33,844.485,2284.26,865.391C2288.82,884.671,2289.69,905.044,2287.51,924.733C2285.26,944.946,2279.49,967.129,2270.81,986.667C2262.12,1006.22,2248.88,1024.79,2235.35,1042.03C2217.4,1064.92,2186.99,1096.52,2163.06,1123.98C2068.88,1232.09,1759.47,1588.53,1670.23,1690.69C1656.45,1706.47,1642.9,1722.55,1627.66,1736.93C1611.79,1751.91,1593.72,1767.6,1574.97,1780.58C1555.95,1793.76,1531.3,1807.65,1513.55,1815.97C1499.26,1822.66,1483.97,1827.44,1468.48,1830.45C1451.21,1833.81,1429.52,1835.81,1409.91,1836.12C1349.15,1837.06,1157.38,1836.87,1103.96,1836.12C1098.87,1836.05,1089.94,1833.88,1089.37,1831.65C1088.8,1829.43,1096.5,1825.28,1100.54,1822.78C1107.69,1818.36,1121.96,1811.51,1132.25,1805.15C1146.84,1796.15,1172.71,1779.87,1188.08,1768.74C1200.88,1759.48,1212.87,1749.09,1224.48,1738.38C1241.96,1722.25,1271.29,1695.23,1292.98,1671.97C1398.56,1558.77,1753.76,1173.48,1857.93,1059.16C1879.18,1035.85,1905.59,1003.25,1918.04,986.072C1924.55,977.083,1929.27,966.711,1932.59,956.121C1936.57,943.444,1942.07,925.69,1941.92,910.009C1941.66,882.499,1942.4,863.621,1921.46,826.532C1907.03,800.97,1882.52,776.57,1860.62,753.766C1763.65,652.789,1445.47,328.483,1339.62,220.667Z" fill-rule="nonzero" clip-rule="evenodd" stroke-linejoin="round" stroke-miterlimit="2" fill="#ff0505" opacity="1" transform="translate(21.3585,15.0074) scale(0.012,0.012) translate(-1673.45,-918.992)"/>
</svg>
