<svg width="38" height="30" viewBox="0 0 38 30" fill="none" xmlns="http://www.w3.org/2000/svg">
<path d="M19.4334 0.374224C19.4214 0.390415 19.4161 0.412145 19.4056 0.455604L13.5164 24.7979C13.5002 24.8649 13.4921 24.8984 13.5004 24.9248C13.5076 24.9479 13.5231 24.9675 13.5438 24.98C13.5675 24.9943 13.602 24.9943 13.6709 24.9943H33.2767C35.5172 24.9943 37.3337 23.1174 37.3337 20.802V4.52624C37.3337 2.21092 35.5172 0.333984 33.2767 0.333984H19.5602C19.5155 0.333984 19.4931 0.333984 19.4746 0.341831C19.4582 0.348753 19.444 0.359939 19.4334 0.374224Z" fill="#FAF9F6" fill-opacity="0.15"/>
<path d="M15.8084 5.07522C15.8168 5.10154 15.8087 5.135 15.7927 5.20192L10.5217 27.1758C10.5057 27.2427 10.4977 27.2762 10.506 27.3025C10.5133 27.3256 10.5288 27.3452 10.5495 27.3577C10.5731 27.3719 10.6075 27.3719 10.6764 27.3719H18.7617C18.8305 27.3719 18.8649 27.3719 18.8886 27.3861C18.9093 27.3986 18.9248 27.4182 18.9321 27.4413C18.9404 27.4676 18.9324 27.5011 18.9163 27.568L18.4423 29.5442C18.4318 29.5878 18.4266 29.6095 18.4146 29.6258C18.404 29.6401 18.3898 29.6513 18.3734 29.6582C18.3548 29.6661 18.3324 29.6661 18.2876 29.6661H4.68943C2.4679 29.6661 0.666992 27.7892 0.666992 25.4738V9.19807C0.666992 6.88276 2.4679 5.00582 4.68943 5.00582H15.6381C15.7069 5.00582 15.7413 5.00582 15.7649 5.02006C15.7857 5.03254 15.8011 5.05215 15.8084 5.07522Z" fill="#FAF9F6" fill-opacity="0.15"/>
</svg>
