<svg width="24" height="24" viewBox="0 0 24 24" fill="none" xmlns="http://www.w3.org/2000/svg">
<path fill-rule="evenodd" clip-rule="evenodd" d="M6.24027 1.44893C6.32869 1.25685 6.47035 1.12679 6.67382 1.05276C6.96829 0.945718 7.36063 1.00574 7.58728 1.19482C7.80362 1.37389 7.84311 1.53696 7.85771 2.30628L7.87059 2.99656H8.36681C9.58418 2.99656 10.2761 3.21565 11.1261 3.87092C12.2662 4.74928 12.9959 6.31193 12.9968 7.87857C12.9976 8.33876 12.9908 8.39278 12.9118 8.55685C12.7684 8.85497 12.5237 8.99903 12.1563 8.99903C11.7914 8.99903 11.5433 8.85497 11.4051 8.56385C11.3398 8.4268 11.3175 8.29774 11.2935 7.92059C11.2763 7.65048 11.23 7.31334 11.1853 7.13226C10.9527 6.19688 10.2779 5.41056 9.46142 5.12344C9.22361 5.0404 9.09397 5.0244 8.52478 5.00739L7.86372 4.98838V10.9999H8.36337C9.58504 10.9999 10.2753 11.2179 11.1261 11.8742C12.0387 12.5765 12.6929 13.722 12.935 15.0415C13.0217 15.5127 13.0217 16.4911 12.935 16.9623C12.6542 18.4919 11.8386 19.7515 10.6848 20.4367C9.98253 20.8549 9.56615 20.966 8.59689 20.993L7.87059 21.013L7.85857 21.6983C7.84741 22.3425 7.8414 22.3955 7.7607 22.5626C7.60531 22.8867 7.3323 23.0268 6.91592 22.9958C6.52186 22.9668 6.27375 22.7547 6.18189 22.3695C6.163 22.2895 6.14669 21.9524 6.14669 21.6182V21.013L5.41695 20.993C4.91558 20.979 4.60651 20.951 4.42966 20.9049C2.48083 20.3967 1.10205 18.5189 1.00504 16.242C0.986154 15.7828 1.01792 15.5737 1.14155 15.3597C1.36133 14.9805 2.0241 14.8885 2.41129 15.1836C2.61046 15.3356 2.67743 15.5327 2.7152 16.0839C2.73409 16.3451 2.78388 16.7002 2.82595 16.8713C3.05689 17.8017 3.72053 18.576 4.54985 18.8851C4.75504 18.9611 4.88982 18.9771 5.46846 18.9931L6.14669 19.0122V13.0097L5.41695 12.9897C4.91558 12.9757 4.60651 12.9477 4.42966 12.9016C2.70748 12.4525 1.4446 10.9668 1.07544 8.95902C0.988729 8.48782 0.988729 7.50942 1.07544 7.03823C1.3081 5.7687 1.91163 4.67425 2.77101 3.95996C3.62094 3.25367 4.38759 2.99656 5.64446 2.99656H6.14068L6.1527 2.30628C6.163 1.68502 6.17159 1.59899 6.24027 1.44893ZM6.14669 11.0089V4.99739L5.58865 5.00239C5.28131 5.00439 4.95249 5.0224 4.85806 5.0404C3.90596 5.22648 3.10411 6.05182 2.81994 7.13727C2.74869 7.41038 2.73581 7.54043 2.73581 7.99862C2.73581 8.45681 2.74869 8.58686 2.81994 8.85998C3.06891 9.81237 3.71881 10.5717 4.54985 10.8818C4.75504 10.9578 4.88982 10.9738 5.46846 10.9899L6.14669 11.0089ZM11.1905 15.1406C10.9406 14.1862 10.2779 13.4138 9.46142 13.1267C9.22361 13.0437 9.09397 13.0277 8.52478 13.0107L7.86372 12.9917V19.0122L8.54195 18.9931C9.12059 18.9771 9.25537 18.9611 9.46056 18.8851C10.2916 18.575 10.9415 17.8157 11.1905 16.8633C11.2617 16.5902 11.2746 16.4601 11.2746 16.0019C11.2746 15.5437 11.2617 15.4137 11.1905 15.1406Z" fill="#FF0000"/>
<path d="M15 21C14.4477 21 14 21.4477 14 22C14 22.5523 14.4477 23 15 23H22C22.5523 23 23 22.5523 23 22C23 21.4477 22.5523 21 22 21H15Z" fill="#FF0000"/>
</svg>
