<svg width="16" height="16" viewBox="0 0 16 16" fill="none" xmlns="http://www.w3.org/2000/svg">
<g clip-path="url(#clip0_409_190)">
<path fill-rule="evenodd" clip-rule="evenodd" d="M7.52 0.682C7.46866 0.688 7.30066 0.706 7.14666 0.722C6.35133 0.806667 5.558 1.03867 4.78666 1.41333C4.03 1.78067 3.462 2.19 2.82533 2.826C2.18466 3.46533 1.762 4.05333 1.398 4.81333C0.200663 7.312 0.48533 10.1907 2.15066 12.422C2.46733 12.846 3.16866 13.544 3.6 13.8647C6.24266 15.83 9.77733 15.8227 12.4247 13.8467C12.8307 13.544 13.544 12.8307 13.8467 12.4247C15.8293 9.768 15.8293 6.232 13.8467 3.57533C13.544 3.17 12.8313 2.45733 12.4267 2.15667C11.3633 1.366 10.2433 0.906667 8.94866 0.730667C8.66666 0.692 7.716 0.66 7.52 0.682ZM8.88 2.06733C10.5887 2.32533 12.0827 3.28733 13.04 4.74667C13.242 5.05533 13.5353 5.65267 13.6613 6.01333C13.892 6.67533 13.9847 7.24333 13.9847 8C13.9847 8.99533 13.8133 9.74733 13.3867 10.6267C12.9167 11.596 12.2073 12.4047 11.2847 13.0213C10.7587 13.3733 9.91733 13.7253 9.272 13.8647C7.51066 14.244 5.65266 13.8053 4.24666 12.6793C3.238 11.8713 2.48133 10.686 2.178 9.44C2.054 8.93133 2.01533 8.592 2.01533 8C2.01533 7.00467 2.18666 6.25267 2.61333 5.37333C3.314 3.92733 4.58466 2.814 6.10666 2.31067C6.57666 2.15533 6.95466 2.07867 7.56 2.016C7.77466 1.994 8.60733 2.026 8.88 2.06733ZM5.75066 5.36333C5.50466 5.49267 5.30066 5.782 5.30066 6C5.30066 6.222 5.37066 6.31133 6.23533 7.18L7.05133 8L6.23533 8.82C5.37066 9.68867 5.30066 9.778 5.30066 10C5.30066 10.318 5.682 10.6993 6 10.6993C6.222 10.6993 6.31133 10.6293 7.18 9.76467L8 8.94867L8.82 9.76467C9.68866 10.6293 9.778 10.6993 10 10.6993C10.318 10.6993 10.6993 10.318 10.6993 10C10.6993 9.778 10.6293 9.68867 9.76466 8.82L8.94866 8L9.76466 7.18C10.3013 6.64067 10.6007 6.31933 10.64 6.242C10.758 6.00733 10.6987 5.764 10.4673 5.53267C10.2407 5.30533 9.98666 5.24533 9.752 5.36333C9.682 5.39867 9.33266 5.72533 8.82 6.23533L8 7.05133L7.18 6.23533C6.66733 5.72533 6.318 5.39867 6.248 5.36333C6.10133 5.28933 5.89 5.28933 5.75066 5.36333Z" fill="black"/>
<path fill-rule="evenodd" clip-rule="evenodd" d="M7.52 0.682C7.46866 0.688 7.30066 0.706 7.14666 0.722C6.35133 0.806667 5.558 1.03867 4.78666 1.41333C4.03 1.78067 3.462 2.19 2.82533 2.826C2.18466 3.46533 1.762 4.05333 1.398 4.81333C0.200663 7.312 0.48533 10.1907 2.15066 12.422C2.46733 12.846 3.16866 13.544 3.6 13.8647C6.24266 15.83 9.77733 15.8227 12.4247 13.8467C12.8307 13.544 13.544 12.8307 13.8467 12.4247C15.8293 9.768 15.8293 6.232 13.8467 3.57533C13.544 3.17 12.8313 2.45733 12.4267 2.15667C11.3633 1.366 10.2433 0.906667 8.94866 0.730667C8.66666 0.692 7.716 0.66 7.52 0.682ZM8.88 2.06733C10.5887 2.32533 12.0827 3.28733 13.04 4.74667C13.242 5.05533 13.5353 5.65267 13.6613 6.01333C13.892 6.67533 13.9847 7.24333 13.9847 8C13.9847 8.99533 13.8133 9.74733 13.3867 10.6267C12.9167 11.596 12.2073 12.4047 11.2847 13.0213C10.7587 13.3733 9.91733 13.7253 9.272 13.8647C7.51066 14.244 5.65266 13.8053 4.24666 12.6793C3.238 11.8713 2.48133 10.686 2.178 9.44C2.054 8.93133 2.01533 8.592 2.01533 8C2.01533 7.00467 2.18666 6.25267 2.61333 5.37333C3.314 3.92733 4.58466 2.814 6.10666 2.31067C6.57666 2.15533 6.95466 2.07867 7.56 2.016C7.77466 1.994 8.60733 2.026 8.88 2.06733ZM5.75066 5.36333C5.50466 5.49267 5.30066 5.782 5.30066 6C5.30066 6.222 5.37066 6.31133 6.23533 7.18L7.05133 8L6.23533 8.82C5.37066 9.68867 5.30066 9.778 5.30066 10C5.30066 10.318 5.682 10.6993 6 10.6993C6.222 10.6993 6.31133 10.6293 7.18 9.76467L8 8.94867L8.82 9.76467C9.68866 10.6293 9.778 10.6993 10 10.6993C10.318 10.6993 10.6993 10.318 10.6993 10C10.6993 9.778 10.6293 9.68867 9.76466 8.82L8.94866 8L9.76466 7.18C10.3013 6.64067 10.6007 6.31933 10.64 6.242C10.758 6.00733 10.6987 5.764 10.4673 5.53267C10.2407 5.30533 9.98666 5.24533 9.752 5.36333C9.682 5.39867 9.33266 5.72533 8.82 6.23533L8 7.05133L7.18 6.23533C6.66733 5.72533 6.318 5.39867 6.248 5.36333C6.10133 5.28933 5.89 5.28933 5.75066 5.36333Z" fill="white" fill-opacity="0.9"/>
</g>
<defs>
<clipPath id="clip0_409_190">
<rect width="16" height="16" fill="white"/>
</clipPath>
</defs>
</svg>
