<svg width="24" height="24" viewBox="0 0 24 24" fill="none" xmlns="http://www.w3.org/2000/svg">
<path fill-rule="evenodd" clip-rule="evenodd" d="M5.62598 5.04472C5.41998 5.15372 5.14598 5.43272 5.03798 5.64372C4.92398 5.86672 4.92398 6.13172 5.03898 6.36272C5.10198 6.48672 5.94198 7.35572 7.85298 9.26972L10.579 11.9997L7.85298 14.7297C5.94198 16.6437 5.10198 17.5127 5.03898 17.6367C4.86298 17.9897 4.95198 18.3537 5.29898 18.7007C5.64598 19.0477 6.00998 19.1367 6.36298 18.9607C6.48698 18.8977 7.35598 18.0577 9.26998 16.1467L12 13.4207L14.73 16.1467C16.644 18.0577 17.513 18.8977 17.637 18.9607C17.99 19.1367 18.354 19.0477 18.701 18.7007C19.048 18.3537 19.137 17.9897 18.961 17.6367C18.898 17.5127 18.058 16.6437 16.147 14.7297L13.421 11.9997L16.147 9.26972C18.058 7.35572 18.898 6.48672 18.961 6.36272C19.137 6.00972 19.048 5.64572 18.701 5.29872C18.361 4.95872 17.98 4.86772 17.628 5.04372C17.516 5.09972 16.558 6.02872 14.73 7.85272L12 10.5787L9.26998 7.85272C7.44198 6.02872 6.48398 5.09972 6.37198 5.04372C6.15198 4.93372 5.83498 4.93472 5.62598 5.04472Z" fill="red"/>
</svg>
