<svg xmlns="http://www.w3.org/2000/svg" width="666.66669" height="666.66669" viewBox="0 0 666.66669 666.66669"><path fill="#fff" transform="matrix(1.3333333,0,0,-1.3333333,0,666.66667)" d="M 211.07,488.409 45.903,402.083 C 18.585,387.795 1.457,359.462 1.457,328.559 v 0 -158.447 C 1.458,139.209 18.586,110.865 45.903,96.61 v 0 L 211.07,10.234 c 7.428,-3.858 15.269,-6.528 23.289,-8.009 v 0 112.957 c 0,65.841 -53.236,119.256 -118.931,119.256 v 0 H 60.907 v 29.815 h 54.521 c 65.695,0 118.931,53.381 118.931,119.256 v 0 54.667 h 29.733 v -54.667 c 0,-65.875 53.239,-119.256 118.935,-119.256 v 0 h 113.986 v 64.324 c 0,30.901 -17.128,59.234 -44.443,73.506 v 0 l -165.185,86.326 c -11.957,6.246 -25.057,9.369 -38.157,9.369 v 0 c -13.101,0 -26.201,-3.123 -38.158,-9.369 M 383.007,234.438 c -65.695,0 -118.933,-53.415 -118.934,-119.256 v 0 h 0.016 V 2.221 c 8.021,1.482 15.863,4.168 23.293,8.01 v 0 L 452.55,96.61 c 27.316,14.255 44.443,42.599 44.443,73.502 v 0 64.326 z"/></svg>
