<svg width="24" height="24" viewBox="0 0 24 24" fill="none" xmlns="http://www.w3.org/2000/svg">
<path fill-rule="evenodd" clip-rule="evenodd" d="M3.477 4.0729C2.806 4.2489 2.238 4.8229 2.06 5.5079C1.941 5.9619 2.003 6.4919 2.225 6.9299C2.361 7.1989 2.801 7.6389 3.07 7.7749C3.659 8.0729 4.341 8.0729 4.93 7.7749C5.196 7.6399 5.638 7.1999 5.771 6.9369C5.994 6.4979 6.052 6.0069 5.94 5.5289C5.858 5.1819 5.72 4.9269 5.465 4.6529C4.948 4.0969 4.211 3.8819 3.477 4.0729ZM8.614 5.0569C8.377 5.1309 8.212 5.2609 8.109 5.4529C8.035 5.5919 8.02 5.6839 8.02 5.9999C8.02 6.3309 8.033 6.4029 8.12 6.5579C8.23 6.7549 8.414 6.8979 8.635 6.9589C8.834 7.0149 21.166 7.0149 21.365 6.9589C21.586 6.8979 21.77 6.7549 21.88 6.5579C21.967 6.4019 21.98 6.3319 21.979 5.9999C21.978 5.5669 21.898 5.3549 21.678 5.1989C21.388 4.9919 21.642 4.9999 14.984 5.0029C10.009 5.0049 8.747 5.0159 8.614 5.0569ZM3.477 10.0729C3.13 10.1639 2.802 10.3659 2.535 10.6529C2.178 11.0379 2 11.4849 2 11.9999C2 12.5459 2.193 13.0009 2.596 13.4039C2.741 13.5499 2.955 13.7159 3.07 13.7749C3.659 14.0729 4.341 14.0729 4.93 13.7749C5.196 13.6399 5.638 13.1999 5.771 12.9369C6.161 12.1679 6.043 11.2749 5.471 10.6589C5.074 10.2319 4.563 10.0049 4 10.0049C3.857 10.0049 3.622 10.0359 3.477 10.0729ZM8.614 11.0569C8.377 11.1309 8.212 11.2609 8.109 11.4529C8.035 11.5919 8.02 11.6839 8.02 11.9999C8.02 12.3309 8.033 12.4029 8.12 12.5579C8.23 12.7549 8.414 12.8979 8.635 12.9589C8.834 13.0149 21.166 13.0149 21.365 12.9589C21.586 12.8979 21.77 12.7549 21.88 12.5579C21.967 12.4019 21.98 12.3319 21.979 11.9999C21.978 11.5669 21.898 11.3549 21.678 11.1989C21.388 10.9919 21.642 10.9999 14.984 11.0029C10.009 11.0049 8.747 11.0159 8.614 11.0569ZM3.477 16.0729C3.13 16.1639 2.802 16.3659 2.535 16.6529C2.178 17.0379 2 17.4849 2 17.9999C2 18.5459 2.193 19.0009 2.596 19.4039C2.999 19.8069 3.454 19.9999 4 19.9999C4.546 19.9999 5.001 19.8069 5.404 19.4039C5.92 18.8889 6.106 18.2359 5.94 17.5289C5.858 17.1819 5.72 16.9269 5.465 16.6529C5.074 16.2319 4.56 16.0049 4 16.0049C3.857 16.0049 3.622 16.0359 3.477 16.0729ZM8.614 17.0569C8.377 17.1309 8.212 17.2609 8.109 17.4529C8.035 17.5919 8.02 17.6839 8.02 17.9999C8.02 18.3309 8.033 18.4029 8.12 18.5579C8.23 18.7549 8.414 18.8979 8.635 18.9589C8.834 19.0149 21.166 19.0149 21.365 18.9589C21.586 18.8979 21.77 18.7549 21.88 18.5579C21.967 18.4019 21.98 18.3319 21.979 17.9999C21.978 17.5669 21.898 17.3549 21.678 17.1989C21.388 16.9919 21.642 16.9999 14.984 17.0029C10.009 17.0049 8.747 17.0159 8.614 17.0569Z" fill="#FF0000"/>
</svg>
