<svg width="14" height="14" viewBox="0 0 14 14" fill="none" xmlns="http://www.w3.org/2000/svg">
<path fill-rule="evenodd" clip-rule="evenodd" d="M6.5774 0.364039C5.40473 0.486706 4.3334 1.22337 3.75073 2.30871C3.28207 3.18137 3.2114 4.3047 3.56407 5.27137C3.93607 6.29137 4.79873 7.12537 5.84407 7.47537C7.1234 7.90404 8.54807 7.58537 9.5174 6.65404C10.1961 6.00204 10.5781 5.20604 10.6507 4.28937C10.7387 3.18204 10.3401 2.13871 9.53073 1.35937C8.7414 0.598706 7.69673 0.246706 6.5774 0.364039ZM7.60073 1.74471C8.22407 1.90537 8.78207 2.36337 9.08073 2.96004C9.27607 3.35004 9.3074 3.49137 9.3074 4.00004C9.3074 4.50871 9.27607 4.65071 9.08073 5.04004C8.78673 5.62671 8.28273 6.05137 7.65407 6.24271C7.43673 6.30937 7.3754 6.31604 7.00073 6.31604C6.62673 6.31604 6.56473 6.30937 6.3474 6.24337C5.56607 6.00604 4.9574 5.38271 4.7414 4.59804C4.7054 4.46737 4.69407 4.32604 4.69407 4.00004C4.69407 3.53871 4.72207 3.38071 4.86007 3.06871C5.11673 2.48604 5.66807 1.97804 6.25007 1.78737C6.6514 1.65604 7.1894 1.63871 7.60073 1.74471ZM6.33407 9.02804C4.2194 9.21204 2.33607 10.088 0.786734 11.6094C0.386734 12.002 0.302734 12.13 0.302734 12.348C0.302734 12.6614 0.687401 13.0314 1.01273 13.0314C1.19407 13.0314 1.33407 12.9387 1.72073 12.5627C2.9614 11.356 4.33073 10.6627 5.97407 10.4087C6.2814 10.3607 6.4634 10.3507 7.00073 10.3507C7.53807 10.3507 7.72007 10.3607 8.0274 10.4087C9.67473 10.6634 11.0294 11.3507 12.2941 12.574C12.6907 12.9574 12.8021 13.0314 12.9874 13.0314C13.3141 13.0314 13.6987 12.662 13.6987 12.348C13.6987 12.1 13.5527 11.9054 12.9607 11.3654C11.5514 10.0794 9.8454 9.28537 8.01407 9.0647C7.6014 9.0147 6.70807 8.99537 6.33407 9.02804Z" fill="black"/>
<path fill-rule="evenodd" clip-rule="evenodd" d="M6.5774 0.364039C5.40473 0.486706 4.3334 1.22337 3.75073 2.30871C3.28207 3.18137 3.2114 4.3047 3.56407 5.27137C3.93607 6.29137 4.79873 7.12537 5.84407 7.47537C7.1234 7.90404 8.54807 7.58537 9.5174 6.65404C10.1961 6.00204 10.5781 5.20604 10.6507 4.28937C10.7387 3.18204 10.3401 2.13871 9.53073 1.35937C8.7414 0.598706 7.69673 0.246706 6.5774 0.364039ZM7.60073 1.74471C8.22407 1.90537 8.78207 2.36337 9.08073 2.96004C9.27607 3.35004 9.3074 3.49137 9.3074 4.00004C9.3074 4.50871 9.27607 4.65071 9.08073 5.04004C8.78673 5.62671 8.28273 6.05137 7.65407 6.24271C7.43673 6.30937 7.3754 6.31604 7.00073 6.31604C6.62673 6.31604 6.56473 6.30937 6.3474 6.24337C5.56607 6.00604 4.9574 5.38271 4.7414 4.59804C4.7054 4.46737 4.69407 4.32604 4.69407 4.00004C4.69407 3.53871 4.72207 3.38071 4.86007 3.06871C5.11673 2.48604 5.66807 1.97804 6.25007 1.78737C6.6514 1.65604 7.1894 1.63871 7.60073 1.74471ZM6.33407 9.02804C4.2194 9.21204 2.33607 10.088 0.786734 11.6094C0.386734 12.002 0.302734 12.13 0.302734 12.348C0.302734 12.6614 0.687401 13.0314 1.01273 13.0314C1.19407 13.0314 1.33407 12.9387 1.72073 12.5627C2.9614 11.356 4.33073 10.6627 5.97407 10.4087C6.2814 10.3607 6.4634 10.3507 7.00073 10.3507C7.53807 10.3507 7.72007 10.3607 8.0274 10.4087C9.67473 10.6634 11.0294 11.3507 12.2941 12.574C12.6907 12.9574 12.8021 13.0314 12.9874 13.0314C13.3141 13.0314 13.6987 12.662 13.6987 12.348C13.6987 12.1 13.5527 11.9054 12.9607 11.3654C11.5514 10.0794 9.8454 9.28537 8.01407 9.0647C7.6014 9.0147 6.70807 8.99537 6.33407 9.02804Z" fill="white" fill-opacity="0.6"/>
<path fill-rule="evenodd" clip-rule="evenodd" d="M6.5774 0.364039C5.40473 0.486706 4.3334 1.22337 3.75073 2.30871C3.28207 3.18137 3.2114 4.3047 3.56407 5.27137C3.93607 6.29137 4.79873 7.12537 5.84407 7.47537C7.1234 7.90404 8.54807 7.58537 9.5174 6.65404C10.1961 6.00204 10.5781 5.20604 10.6507 4.28937C10.7387 3.18204 10.3401 2.13871 9.53073 1.35937C8.7414 0.598706 7.69673 0.246706 6.5774 0.364039ZM7.60073 1.74471C8.22407 1.90537 8.78207 2.36337 9.08073 2.96004C9.27607 3.35004 9.3074 3.49137 9.3074 4.00004C9.3074 4.50871 9.27607 4.65071 9.08073 5.04004C8.78673 5.62671 8.28273 6.05137 7.65407 6.24271C7.43673 6.30937 7.3754 6.31604 7.00073 6.31604C6.62673 6.31604 6.56473 6.30937 6.3474 6.24337C5.56607 6.00604 4.9574 5.38271 4.7414 4.59804C4.7054 4.46737 4.69407 4.32604 4.69407 4.00004C4.69407 3.53871 4.72207 3.38071 4.86007 3.06871C5.11673 2.48604 5.66807 1.97804 6.25007 1.78737C6.6514 1.65604 7.1894 1.63871 7.60073 1.74471ZM6.33407 9.02804C4.2194 9.21204 2.33607 10.088 0.786734 11.6094C0.386734 12.002 0.302734 12.13 0.302734 12.348C0.302734 12.6614 0.687401 13.0314 1.01273 13.0314C1.19407 13.0314 1.33407 12.9387 1.72073 12.5627C2.9614 11.356 4.33073 10.6627 5.97407 10.4087C6.2814 10.3607 6.4634 10.3507 7.00073 10.3507C7.53807 10.3507 7.72007 10.3607 8.0274 10.4087C9.67473 10.6634 11.0294 11.3507 12.2941 12.574C12.6907 12.9574 12.8021 13.0314 12.9874 13.0314C13.3141 13.0314 13.6987 12.662 13.6987 12.348C13.6987 12.1 13.5527 11.9054 12.9607 11.3654C11.5514 10.0794 9.8454 9.28537 8.01407 9.0647C7.6014 9.0147 6.70807 8.99537 6.33407 9.02804Z" fill="black" fill-opacity="0.2"/>
</svg>

