<svg width="8" height="8" viewBox="0 0 8 8" fill="none" xmlns="http://www.w3.org/2000/svg">
<g id="Union">
<path d="M7.62328 0.305907C7.21889 -0.101969 6.56378 -0.101969 6.15939 0.305907L3.99994 2.48532L1.84049 0.306162C1.4366 -0.101969 0.780981 -0.101969 0.37659 0.306162C-0.0278019 0.714037 -0.0278019 1.37572 0.37659 1.7836L2.53604 3.96301L0.303294 6.21641C-0.101098 6.62428 -0.101098 7.28596 0.303294 7.69384C0.70718 8.10197 1.3628 8.10197 1.76719 7.69384L3.99994 5.44045L6.23268 7.69409C6.63707 8.10197 7.29269 8.10197 7.69709 7.69409C8.10097 7.28596 8.10097 6.62454 7.69709 6.21641L5.46383 3.96276L7.62328 1.7836C8.02768 1.37546 8.02768 0.714037 7.62328 0.305907Z" fill="black"/>
<path d="M7.62328 0.305907C7.21889 -0.101969 6.56378 -0.101969 6.15939 0.305907L3.99994 2.48532L1.84049 0.306162C1.4366 -0.101969 0.780981 -0.101969 0.37659 0.306162C-0.0278019 0.714037 -0.0278019 1.37572 0.37659 1.7836L2.53604 3.96301L0.303294 6.21641C-0.101098 6.62428 -0.101098 7.28596 0.303294 7.69384C0.70718 8.10197 1.3628 8.10197 1.76719 7.69384L3.99994 5.44045L6.23268 7.69409C6.63707 8.10197 7.29269 8.10197 7.69709 7.69409C8.10097 7.28596 8.10097 6.62454 7.69709 6.21641L5.46383 3.96276L7.62328 1.7836C8.02768 1.37546 8.02768 0.714037 7.62328 0.305907Z" fill="white" fill-opacity="0.9"/>
</g>
</svg>
